<?xml version="1.0" standalone="no"?>
<!DOCTYPE svg PUBLIC "-//W3C//DTD SVG 20010904//EN"
 "http://www.w3.org/TR/2001/REC-SVG-20010904/DTD/svg10.dtd">
<svg version="1.0" xmlns="http://www.w3.org/2000/svg"
 width="170.000000pt" height="170.000000pt" viewBox="0 0 170.000000 170.000000"
 preserveAspectRatio="xMidYMid meet">
<metadata>
Created by potrace 1.11, written by Peter Selinger 2001-2013
</metadata>
<g transform="translate(0.000000,170.000000) scale(0.100000,-0.100000)"
fill="#000000" stroke="none">
<path d="M696 1177 c-57 -14 -128 -88 -152 -158 -29 -84 -25 -227 8 -300 29
-63 63 -101 116 -128 145 -74 320 3 362 159 15 57 15 209 0 257 -22 69 -77
132 -139 159 -42 19 -143 25 -195 11z m158 -61 c84 -35 133 -137 123 -260 -6
-83 -26 -138 -65 -180 -97 -103 -266 -57 -311 86 -7 20 -12 71 -12 113 0 42 5
93 12 113 35 112 152 170 253 128z"/>
<path d="M1318 1181 c-99 -32 -149 -121 -115 -203 19 -46 60 -75 180 -128 111
-49 137 -74 137 -132 0 -31 -7 -46 -30 -70 -30 -29 -33 -30 -106 -26 -73 3
-77 5 -105 38 -50 62 -68 80 -78 80 -20 0 -18 -30 5 -79 20 -43 31 -55 71 -74
103 -47 243 -20 288 55 22 38 23 114 1 155 -21 42 -52 62 -171 112 -110 45
-135 70 -135 133 1 60 50 98 125 98 56 0 92 -20 123 -66 39 -60 78 -35 47 30
-24 51 -73 78 -148 82 -34 2 -74 0 -89 -5z"/>
<path d="M128 1003 c-25 -6 -22 -32 5 -38 12 -3 66 -6 121 -8 l99 -2 -75 -100
c-137 -185 -176 -249 -158 -260 5 -3 73 -8 150 -11 137 -5 140 -5 140 16 0 28
-24 35 -128 39 -48 1 -88 4 -90 5 -1 2 38 60 87 128 97 136 131 193 131 220 0
16 -12 18 -132 17 -73 -1 -141 -3 -150 -6z"/>
</g>
</svg>
