<?xml version="1.0" standalone="no"?>
<!DOCTYPE svg PUBLIC "-//W3C//DTD SVG 20010904//EN"
 "http://www.w3.org/TR/2001/REC-SVG-20010904/DTD/svg10.dtd">
<svg version="1.0" xmlns="http://www.w3.org/2000/svg"
 width="151.000000pt" height="151.000000pt" viewBox="0 0 151.000000 151.000000"
 preserveAspectRatio="xMidYMid meet">
<metadata>
Created by potrace 1.11, written by Peter Selinger 2001-2013
</metadata>
<g transform="translate(0.000000,151.000000) scale(0.100000,-0.100000)"
fill="#000000" stroke="none">
<path d="M596 1047 c-25 -6 -57 -27 -86 -57 -64 -63 -85 -125 -85 -252 1 -90
3 -100 35 -164 30 -58 44 -74 88 -101 137 -82 301 -35 368 106 34 71 34 261
-1 334 -22 47 -80 106 -122 124 -43 18 -148 23 -197 10z m157 -61 c72 -31 114
-98 123 -197 20 -213 -114 -352 -272 -280 -78 35 -116 113 -116 236 0 85 14
136 50 184 46 61 144 88 215 57z"/>
<path d="M1216 1050 c-84 -27 -135 -101 -121 -177 10 -56 64 -101 183 -151
115 -49 142 -75 142 -134 0 -30 -7 -46 -29 -69 -26 -26 -36 -29 -93 -29 -76 0
-104 13 -138 64 -32 46 -59 64 -70 46 -17 -28 33 -119 77 -139 112 -51 236
-30 296 50 24 33 26 112 4 156 -22 42 -53 62 -166 108 -106 44 -141 74 -141
122 0 71 43 113 118 113 61 0 98 -18 127 -61 43 -66 80 -33 43 39 -28 54 -153
88 -232 62z"/>
<path d="M28 873 c-25 -6 -22 -30 5 -36 12 -3 66 -7 119 -8 69 -1 96 -5 91
-13 -4 -6 -36 -51 -73 -101 -131 -178 -168 -239 -150 -250 5 -3 72 -8 150 -11
137 -5 140 -5 140 16 0 28 -24 35 -128 39 -48 1 -88 4 -90 5 -1 2 39 61 89
132 100 141 129 189 129 217 0 16 -11 17 -132 16 -73 -1 -141 -4 -150 -6z"/>
</g>
</svg>
