<svg xmlns="http://www.w3.org/2000/svg" xmlns:xlink="http://www.w3.org/1999/xlink" viewBox="0 0 622.65 336.29"><defs><style>.cls-1{fill:url(#New_Gradient_Swatch);}.cls-2{fill:url(#New_Gradient_Swatch_copy);}.cls-3{fill:url(#New_Gradient_Swatch_copy-2);}.cls-4{fill:url(#New_Gradient_Swatch-2);}.cls-5{fill:url(#New_Gradient_Swatch_copy-3);}.cls-6{fill:url(#New_Gradient_Swatch_copy-4);}.cls-7{fill:url(#New_Gradient_Swatch-3);}.cls-8{fill:url(#New_Gradient_Swatch_copy-5);}.cls-9{fill:#fff;}.cls-10,.cls-24{opacity:0.5;}.cls-11{fill:#272c34;}.cls-12,.cls-13{fill:#67eaec;}.cls-13{opacity:0.09;}.cls-14{fill:url(#New_Gradient_Swatch_copy-6);}.cls-15{fill:url(#New_Gradient_Swatch_copy-7);}.cls-16{opacity:0.3;}.cls-17{fill:url(#linear-gradient);}.cls-18{fill:url(#linear-gradient-2);}.cls-19{opacity:0.25;}.cls-20{fill:url(#New_Gradient_Swatch_copy-8);}.cls-21{fill:url(#New_Gradient_Swatch_copy-9);}.cls-22{fill:url(#New_Gradient_Swatch_copy-10);}.cls-23{fill:url(#linear-gradient-3);}.cls-137,.cls-24{fill:#424b4f;}.cls-25{fill:url(#linear-gradient-4);}.cls-26{fill:#f5ffff;}.cls-27{fill:url(#linear-gradient-5);}.cls-28{fill:url(#linear-gradient-6);}.cls-29{fill:url(#linear-gradient-7);}.cls-30{fill:url(#linear-gradient-8);}.cls-31{fill:url(#linear-gradient-9);}.cls-32{fill:url(#linear-gradient-10);}.cls-33{fill:url(#linear-gradient-11);}.cls-34{fill:url(#linear-gradient-12);}.cls-35{fill:url(#linear-gradient-13);}.cls-36{fill:url(#linear-gradient-14);}.cls-37{fill:url(#linear-gradient-15);}.cls-38{fill:url(#linear-gradient-16);}.cls-39{fill:url(#linear-gradient-17);}.cls-40{fill:url(#linear-gradient-18);}.cls-41{fill:url(#linear-gradient-19);}.cls-42{fill:url(#linear-gradient-20);}.cls-43{fill:url(#linear-gradient-21);}.cls-44{fill:url(#linear-gradient-22);}.cls-45{fill:url(#linear-gradient-23);}.cls-46{fill:url(#linear-gradient-24);}.cls-47{fill:url(#linear-gradient-25);}.cls-48{fill:url(#linear-gradient-26);}.cls-49{fill:url(#linear-gradient-27);}.cls-50{fill:url(#linear-gradient-28);}.cls-51{fill:url(#linear-gradient-29);}.cls-52{fill:url(#linear-gradient-30);}.cls-53{fill:url(#linear-gradient-31);}.cls-54{fill:url(#linear-gradient-32);}.cls-55{fill:url(#linear-gradient-33);}.cls-56{fill:url(#linear-gradient-34);}.cls-57{fill:url(#linear-gradient-35);}.cls-58{fill:url(#linear-gradient-36);}.cls-59{fill:url(#linear-gradient-37);}.cls-60{fill:url(#linear-gradient-38);}.cls-61{fill:url(#linear-gradient-39);}.cls-62{fill:url(#linear-gradient-40);}.cls-63{fill:url(#linear-gradient-41);}.cls-64{fill:url(#linear-gradient-42);}.cls-65{fill:url(#linear-gradient-43);}.cls-66{fill:url(#linear-gradient-44);}.cls-67{fill:url(#linear-gradient-45);}.cls-68{fill:url(#linear-gradient-46);}.cls-69{fill:url(#linear-gradient-47);}.cls-70{fill:url(#linear-gradient-48);}.cls-71{fill:url(#linear-gradient-49);}.cls-72{fill:url(#linear-gradient-50);}.cls-73{fill:url(#linear-gradient-51);}.cls-74{fill:url(#linear-gradient-52);}.cls-75{fill:url(#linear-gradient-53);}.cls-76{fill:url(#linear-gradient-54);}.cls-77{fill:url(#linear-gradient-55);}.cls-78{fill:url(#linear-gradient-56);}.cls-79{fill:url(#linear-gradient-57);}.cls-80{fill:url(#linear-gradient-58);}.cls-81{fill:url(#linear-gradient-59);}.cls-82{fill:url(#linear-gradient-60);}.cls-83{fill:url(#linear-gradient-61);}.cls-84{fill:url(#linear-gradient-62);}.cls-85{fill:url(#linear-gradient-63);}.cls-86{fill:url(#linear-gradient-64);}.cls-87{fill:url(#linear-gradient-65);}.cls-88{fill:url(#linear-gradient-66);}.cls-89{fill:url(#linear-gradient-67);}.cls-90{fill:url(#linear-gradient-68);}.cls-91{fill:url(#linear-gradient-69);}.cls-92{fill:url(#linear-gradient-70);}.cls-93{fill:url(#linear-gradient-71);}.cls-94{fill:url(#linear-gradient-72);}.cls-95{fill:url(#linear-gradient-73);}.cls-96{fill:url(#linear-gradient-74);}.cls-97{fill:url(#linear-gradient-75);}.cls-98{fill:url(#linear-gradient-76);}.cls-99{fill:url(#linear-gradient-77);}.cls-100{fill:url(#linear-gradient-78);}.cls-101{fill:url(#linear-gradient-79);}.cls-102{fill:url(#linear-gradient-80);}.cls-103{fill:url(#linear-gradient-81);}.cls-104{fill:url(#linear-gradient-82);}.cls-105{fill:url(#linear-gradient-83);}.cls-106{fill:url(#linear-gradient-84);}.cls-107{fill:url(#linear-gradient-85);}.cls-108{fill:url(#linear-gradient-86);}.cls-109{fill:url(#linear-gradient-87);}.cls-110{fill:url(#linear-gradient-88);}.cls-111{fill:url(#linear-gradient-89);}.cls-112{fill:url(#linear-gradient-90);}.cls-113{fill:url(#linear-gradient-91);}.cls-114{fill:url(#linear-gradient-92);}.cls-115{fill:url(#linear-gradient-93);}.cls-116{fill:url(#linear-gradient-94);}.cls-117{fill:url(#linear-gradient-95);}.cls-118{fill:url(#linear-gradient-96);}.cls-119{fill:url(#linear-gradient-97);}.cls-120{fill:url(#linear-gradient-98);}.cls-121{fill:url(#linear-gradient-99);}.cls-122{fill:url(#linear-gradient-100);}.cls-123{fill:url(#linear-gradient-101);}.cls-124{fill:url(#linear-gradient-102);}.cls-125{fill:url(#linear-gradient-103);}.cls-126{fill:url(#linear-gradient-104);}.cls-127{fill:url(#linear-gradient-105);}.cls-128{fill:url(#linear-gradient-106);}.cls-129{fill:url(#linear-gradient-107);}.cls-130{fill:url(#linear-gradient-108);}.cls-131{fill:url(#linear-gradient-109);}.cls-132{fill:url(#linear-gradient-110);}.cls-133{fill:url(#linear-gradient-111);}.cls-134{fill:url(#linear-gradient-112);}.cls-135{fill:url(#linear-gradient-113);}.cls-136{fill:url(#linear-gradient-114);}</style><linearGradient id="New_Gradient_Swatch" x1="28.94" y1="40.71" x2="283.06" y2="187.42" gradientUnits="userSpaceOnUse"><stop offset="0" stop-color="#5c8ee4"/><stop offset="1" stop-color="#67eaec"/></linearGradient><linearGradient id="New_Gradient_Swatch_copy" x1="0.3" y1="114.07" x2="311.7" y2="114.07" gradientUnits="userSpaceOnUse"><stop offset="0" stop-color="#2e3d4a"/><stop offset="1" stop-color="#232329"/></linearGradient><linearGradient id="New_Gradient_Swatch_copy-2" x1="0.2" y1="113.57" x2="0.8" y2="113.57" xlink:href="#New_Gradient_Swatch_copy"/><linearGradient id="New_Gradient_Swatch-2" x1="156.5" y1="203.57" x2="156.5" y2="203.57" xlink:href="#New_Gradient_Swatch"/><linearGradient id="New_Gradient_Swatch_copy-3" x1="156.2" y1="203.57" x2="156.8" y2="203.57" xlink:href="#New_Gradient_Swatch_copy"/><linearGradient id="New_Gradient_Swatch_copy-4" x1="311.2" y1="114.57" x2="311.8" y2="114.57" xlink:href="#New_Gradient_Swatch_copy"/><linearGradient id="New_Gradient_Swatch-3" x1="39.33" y1="22.71" x2="272.67" y2="157.42" xlink:href="#New_Gradient_Swatch"/><linearGradient id="New_Gradient_Swatch_copy-5" x1="0" y1="90.07" x2="312" y2="90.07" xlink:href="#New_Gradient_Swatch_copy"/><linearGradient id="New_Gradient_Swatch_copy-6" x1="1726.27" y1="153.77" x2="1814.76" y2="153.77" gradientTransform="matrix(-1, 0, 0, 1, 2237.03, 0)" xlink:href="#New_Gradient_Swatch_copy"/><linearGradient id="New_Gradient_Swatch_copy-7" x1="1726.27" y1="129.77" x2="1814.76" y2="129.77" gradientTransform="matrix(-1, 0, 0, 1, 2237.03, 0)" xlink:href="#New_Gradient_Swatch_copy"/><linearGradient id="linear-gradient" x1="1657.41" y1="67.73" x2="1704.14" y2="67.73" gradientTransform="matrix(-1, 0, 0, 1, 2237.03, 0)" gradientUnits="userSpaceOnUse"><stop offset="0" stop-color="#39e6e0"/><stop offset="1" stop-color="#232329"/></linearGradient><linearGradient id="linear-gradient-2" x1="1665.77" y1="27.67" x2="1695.78" y2="27.67" xlink:href="#linear-gradient"/><linearGradient id="New_Gradient_Swatch_copy-8" x1="495.9" y1="222.28" x2="185.11" y2="222.28" xlink:href="#New_Gradient_Swatch_copy"/><linearGradient id="New_Gradient_Swatch_copy-9" x1="341.01" y1="311.78" x2="341.01" y2="311.78" xlink:href="#New_Gradient_Swatch_copy"/><linearGradient id="New_Gradient_Swatch_copy-10" x1="340.51" y1="287.99" x2="340.51" y2="108.56" xlink:href="#New_Gradient_Swatch_copy"/><linearGradient id="linear-gradient-3" x1="104.71" y1="89.35" x2="163.59" y2="89.35" gradientUnits="userSpaceOnUse"><stop offset="0" stop-color="#5c8ee4"/><stop offset="1" stop-color="#65d5ea"/></linearGradient><linearGradient id="linear-gradient-4" x1="104.71" y1="78.51" x2="163.59" y2="78.51" xlink:href="#linear-gradient-3"/><linearGradient id="linear-gradient-5" x1="158.44" y1="71.64" x2="109.86" y2="71.64" xlink:href="#linear-gradient-3"/><linearGradient id="linear-gradient-6" x1="-1565.48" y1="1707.3" x2="-1560.58" y2="1687.47" gradientTransform="matrix(-0.14, 0.58, -1.75, 0.14, 2879.02, 745.15)" gradientUnits="userSpaceOnUse"><stop offset="0" stop-color="#5fa5e6"/><stop offset="1" stop-color="#67eaec"/></linearGradient><linearGradient id="linear-gradient-7" x1="-1557.42" y1="1694.48" x2="-1556.35" y2="1690.17" xlink:href="#linear-gradient-6"/><linearGradient id="linear-gradient-8" x1="-1570.98" y1="1702.31" x2="-1569.91" y2="1698" xlink:href="#linear-gradient-6"/><linearGradient id="linear-gradient-9" x1="-1556.42" y1="1696.7" x2="-1555.36" y2="1692.39" xlink:href="#linear-gradient-6"/><linearGradient id="linear-gradient-10" x1="-1569.98" y1="1704.53" x2="-1568.92" y2="1700.22" xlink:href="#linear-gradient-6"/><linearGradient id="linear-gradient-11" x1="104.71" y1="84.67" x2="163.59" y2="84.67" xlink:href="#linear-gradient-3"/><linearGradient id="linear-gradient-12" x1="104.71" y1="73.83" x2="163.59" y2="73.83" xlink:href="#linear-gradient-3"/><linearGradient id="linear-gradient-13" x1="158.44" y1="66.95" x2="109.86" y2="66.95" xlink:href="#linear-gradient-3"/><linearGradient id="linear-gradient-14" x1="-1573.68" y1="1707.98" x2="-1568.77" y2="1688.15" xlink:href="#linear-gradient-6"/><linearGradient id="linear-gradient-15" x1="-1565.61" y1="1695.15" x2="-1564.55" y2="1690.85" xlink:href="#linear-gradient-6"/><linearGradient id="linear-gradient-16" x1="-1579.18" y1="1702.98" x2="-1578.11" y2="1698.68" xlink:href="#linear-gradient-6"/><linearGradient id="linear-gradient-17" x1="-1564.62" y1="1697.37" x2="-1563.55" y2="1693.07" xlink:href="#linear-gradient-6"/><linearGradient id="linear-gradient-18" x1="-1578.18" y1="1705.2" x2="-1577.12" y2="1700.9" xlink:href="#linear-gradient-6"/><linearGradient id="linear-gradient-19" x1="104.71" y1="79.98" x2="163.59" y2="79.98" xlink:href="#linear-gradient-3"/><linearGradient id="linear-gradient-20" x1="104.71" y1="69.14" x2="163.59" y2="69.14" xlink:href="#linear-gradient-3"/><linearGradient id="linear-gradient-21" x1="158.44" y1="62.27" x2="109.86" y2="62.27" xlink:href="#linear-gradient-3"/><linearGradient id="linear-gradient-22" x1="-1581.88" y1="1708.66" x2="-1576.97" y2="1688.82" xlink:href="#linear-gradient-6"/><linearGradient id="linear-gradient-23" x1="-1573.81" y1="1695.83" x2="-1572.75" y2="1691.52" xlink:href="#linear-gradient-6"/><linearGradient id="linear-gradient-24" x1="-1587.37" y1="1703.66" x2="-1586.31" y2="1699.35" xlink:href="#linear-gradient-6"/><linearGradient id="linear-gradient-25" x1="-1572.82" y1="1698.05" x2="-1571.75" y2="1693.75" xlink:href="#linear-gradient-6"/><linearGradient id="linear-gradient-26" x1="-1586.38" y1="1705.88" x2="-1585.31" y2="1701.58" xlink:href="#linear-gradient-6"/><linearGradient id="linear-gradient-27" x1="104.71" y1="75.3" x2="163.59" y2="75.3" xlink:href="#linear-gradient-3"/><linearGradient id="linear-gradient-28" x1="104.71" y1="64.46" x2="163.59" y2="64.46" xlink:href="#linear-gradient-3"/><linearGradient id="linear-gradient-29" x1="158.44" y1="57.59" x2="109.86" y2="57.59" xlink:href="#linear-gradient-3"/><linearGradient id="linear-gradient-30" x1="-1590.07" y1="1709.33" x2="-1585.17" y2="1689.5" xlink:href="#linear-gradient-6"/><linearGradient id="linear-gradient-31" x1="-1582.01" y1="1696.51" x2="-1580.94" y2="1692.2" xlink:href="#linear-gradient-6"/><linearGradient id="linear-gradient-32" x1="-1595.57" y1="1704.34" x2="-1594.5" y2="1700.03" xlink:href="#linear-gradient-6"/><linearGradient id="linear-gradient-33" x1="-1581.01" y1="1698.73" x2="-1579.95" y2="1694.42" xlink:href="#linear-gradient-6"/><linearGradient id="linear-gradient-34" x1="-1594.57" y1="1706.56" x2="-1593.51" y2="1702.25" xlink:href="#linear-gradient-6"/><linearGradient id="linear-gradient-35" x1="104.71" y1="70.64" x2="163.59" y2="70.64" xlink:href="#linear-gradient-3"/><linearGradient id="linear-gradient-36" x1="104.71" y1="59.8" x2="163.59" y2="59.8" xlink:href="#linear-gradient-3"/><linearGradient id="linear-gradient-37" x1="158.44" y1="52.93" x2="109.86" y2="52.93" xlink:href="#linear-gradient-3"/><linearGradient id="linear-gradient-38" x1="-1598.23" y1="1710" x2="-1593.32" y2="1690.17" xlink:href="#linear-gradient-6"/><linearGradient id="linear-gradient-39" x1="-1590.16" y1="1697.18" x2="-1589.1" y2="1692.87" xlink:href="#linear-gradient-6"/><linearGradient id="linear-gradient-40" x1="-1603.72" y1="1705.01" x2="-1602.66" y2="1700.7" xlink:href="#linear-gradient-6"/><linearGradient id="linear-gradient-41" x1="-1589.17" y1="1699.4" x2="-1588.1" y2="1695.09" xlink:href="#linear-gradient-6"/><linearGradient id="linear-gradient-42" x1="-1602.73" y1="1707.23" x2="-1601.66" y2="1702.92" xlink:href="#linear-gradient-6"/><linearGradient id="linear-gradient-43" x1="104.71" y1="65.96" x2="163.59" y2="65.96" xlink:href="#linear-gradient-3"/><linearGradient id="linear-gradient-44" x1="104.71" y1="55.11" x2="163.59" y2="55.11" xlink:href="#linear-gradient-3"/><linearGradient id="linear-gradient-45" x1="158.44" y1="48.24" x2="109.86" y2="48.24" xlink:href="#linear-gradient-3"/><linearGradient id="linear-gradient-46" x1="-1606.42" y1="1710.68" x2="-1601.52" y2="1690.85" xlink:href="#linear-gradient-6"/><linearGradient id="linear-gradient-47" x1="-1598.36" y1="1697.86" x2="-1597.29" y2="1693.55" xlink:href="#linear-gradient-6"/><linearGradient id="linear-gradient-48" x1="-1611.92" y1="1705.69" x2="-1610.85" y2="1701.38" xlink:href="#linear-gradient-6"/><linearGradient id="linear-gradient-49" x1="-1597.36" y1="1700.07" x2="-1596.3" y2="1695.77" xlink:href="#linear-gradient-6"/><linearGradient id="linear-gradient-50" x1="-1610.92" y1="1707.9" x2="-1609.86" y2="1703.6" xlink:href="#linear-gradient-6"/><linearGradient id="linear-gradient-51" x1="104.71" y1="61.27" x2="163.59" y2="61.27" xlink:href="#linear-gradient-3"/><linearGradient id="linear-gradient-52" x1="104.71" y1="50.43" x2="163.59" y2="50.43" xlink:href="#linear-gradient-3"/><linearGradient id="linear-gradient-53" x1="158.44" y1="43.56" x2="109.86" y2="43.56" xlink:href="#linear-gradient-3"/><linearGradient id="linear-gradient-54" x1="-1614.62" y1="1711.36" x2="-1609.71" y2="1691.52" xlink:href="#linear-gradient-6"/><linearGradient id="linear-gradient-55" x1="-1606.55" y1="1698.53" x2="-1605.49" y2="1694.22" xlink:href="#linear-gradient-6"/><linearGradient id="linear-gradient-56" x1="-1620.12" y1="1706.36" x2="-1619.05" y2="1702.05" xlink:href="#linear-gradient-6"/><linearGradient id="linear-gradient-57" x1="-1605.56" y1="1700.75" x2="-1604.49" y2="1696.45" xlink:href="#linear-gradient-6"/><linearGradient id="linear-gradient-58" x1="-1619.12" y1="1708.58" x2="-1618.06" y2="1704.28" xlink:href="#linear-gradient-6"/><linearGradient id="linear-gradient-59" x1="104.71" y1="56.59" x2="163.59" y2="56.59" xlink:href="#linear-gradient-3"/><linearGradient id="linear-gradient-60" x1="104.71" y1="45.75" x2="163.59" y2="45.75" xlink:href="#linear-gradient-3"/><linearGradient id="linear-gradient-61" x1="158.44" y1="38.88" x2="109.86" y2="38.88" xlink:href="#linear-gradient-3"/><linearGradient id="linear-gradient-62" x1="-1622.82" y1="1712.03" x2="-1617.91" y2="1692.2" xlink:href="#linear-gradient-6"/><linearGradient id="linear-gradient-63" x1="-1614.75" y1="1699.21" x2="-1613.69" y2="1694.9" xlink:href="#linear-gradient-6"/><linearGradient id="linear-gradient-64" x1="-1628.31" y1="1707.04" x2="-1627.25" y2="1702.73" xlink:href="#linear-gradient-6"/><linearGradient id="linear-gradient-65" x1="-1613.76" y1="1701.43" x2="-1612.69" y2="1697.12" xlink:href="#linear-gradient-6"/><linearGradient id="linear-gradient-66" x1="-1627.32" y1="1709.26" x2="-1626.25" y2="1704.95" xlink:href="#linear-gradient-6"/><linearGradient id="linear-gradient-67" x1="148.4" y1="112.44" x2="207.29" y2="112.44" xlink:href="#linear-gradient-3"/><linearGradient id="linear-gradient-68" x1="148.4" y1="101.59" x2="207.28" y2="101.59" xlink:href="#linear-gradient-3"/><linearGradient id="linear-gradient-69" x1="202.13" y1="94.72" x2="153.55" y2="94.72" xlink:href="#linear-gradient-3"/><linearGradient id="linear-gradient-70" x1="-1518.78" y1="1678.48" x2="-1513.87" y2="1658.65" xlink:href="#linear-gradient-6"/><linearGradient id="linear-gradient-71" x1="-1510.71" y1="1665.66" x2="-1509.65" y2="1661.35" xlink:href="#linear-gradient-6"/><linearGradient id="linear-gradient-72" x1="-1524.27" y1="1673.49" x2="-1523.21" y2="1669.18" xlink:href="#linear-gradient-6"/><linearGradient id="linear-gradient-73" x1="-1509.72" y1="1667.88" x2="-1508.65" y2="1663.57" xlink:href="#linear-gradient-6"/><linearGradient id="linear-gradient-74" x1="-1523.28" y1="1675.71" x2="-1522.21" y2="1671.4" xlink:href="#linear-gradient-6"/><linearGradient id="linear-gradient-75" x1="148.4" y1="107.75" x2="207.29" y2="107.75" xlink:href="#linear-gradient-3"/><linearGradient id="linear-gradient-76" x1="148.4" y1="96.91" x2="207.28" y2="96.91" xlink:href="#linear-gradient-3"/><linearGradient id="linear-gradient-77" x1="202.13" y1="90.04" x2="153.55" y2="90.04" xlink:href="#linear-gradient-3"/><linearGradient id="linear-gradient-78" x1="-1526.97" y1="1679.16" x2="-1522.07" y2="1659.33" xlink:href="#linear-gradient-6"/><linearGradient id="linear-gradient-79" x1="-1518.91" y1="1666.33" x2="-1517.84" y2="1662.03" xlink:href="#linear-gradient-6"/><linearGradient id="linear-gradient-80" x1="-1532.47" y1="1674.16" x2="-1531.4" y2="1669.86" xlink:href="#linear-gradient-6"/><linearGradient id="linear-gradient-81" x1="-1517.91" y1="1668.55" x2="-1516.85" y2="1664.25" xlink:href="#linear-gradient-6"/><linearGradient id="linear-gradient-82" x1="-1531.47" y1="1676.38" x2="-1530.41" y2="1672.08" xlink:href="#linear-gradient-6"/><linearGradient id="linear-gradient-83" x1="148.4" y1="103.07" x2="207.29" y2="103.07" xlink:href="#linear-gradient-3"/><linearGradient id="linear-gradient-84" x1="148.4" y1="92.23" x2="207.28" y2="92.23" xlink:href="#linear-gradient-3"/><linearGradient id="linear-gradient-85" x1="202.13" y1="85.36" x2="153.55" y2="85.36" xlink:href="#linear-gradient-3"/><linearGradient id="linear-gradient-86" x1="-1535.17" y1="1679.84" x2="-1530.26" y2="1660" xlink:href="#linear-gradient-6"/><linearGradient id="linear-gradient-87" x1="-1527.1" y1="1667.01" x2="-1526.04" y2="1662.7" xlink:href="#linear-gradient-6"/><linearGradient id="linear-gradient-88" x1="-1540.67" y1="1674.84" x2="-1539.6" y2="1670.53" xlink:href="#linear-gradient-6"/><linearGradient id="linear-gradient-89" x1="-1526.11" y1="1669.23" x2="-1525.04" y2="1664.93" xlink:href="#linear-gradient-6"/><linearGradient id="linear-gradient-90" x1="-1539.67" y1="1677.06" x2="-1538.61" y2="1672.76" xlink:href="#linear-gradient-6"/><linearGradient id="linear-gradient-91" x1="148.4" y1="98.38" x2="207.29" y2="98.38" xlink:href="#linear-gradient-3"/><linearGradient id="linear-gradient-92" x1="148.4" y1="87.54" x2="207.28" y2="87.54" xlink:href="#linear-gradient-3"/><linearGradient id="linear-gradient-93" x1="202.13" y1="80.67" x2="153.55" y2="80.67" xlink:href="#linear-gradient-3"/><linearGradient id="linear-gradient-94" x1="-1543.37" y1="1680.51" x2="-1538.46" y2="1660.68" xlink:href="#linear-gradient-6"/><linearGradient id="linear-gradient-95" x1="-1535.3" y1="1667.69" x2="-1534.24" y2="1663.38" xlink:href="#linear-gradient-6"/><linearGradient id="linear-gradient-96" x1="-1548.86" y1="1675.52" x2="-1547.8" y2="1671.21" xlink:href="#linear-gradient-6"/><linearGradient id="linear-gradient-97" x1="-1534.31" y1="1669.91" x2="-1533.24" y2="1665.6" xlink:href="#linear-gradient-6"/><linearGradient id="linear-gradient-98" x1="-1547.87" y1="1677.73" x2="-1546.8" y2="1673.43" xlink:href="#linear-gradient-6"/><linearGradient id="linear-gradient-99" x1="148.4" y1="93.73" x2="207.29" y2="93.73" xlink:href="#linear-gradient-3"/><linearGradient id="linear-gradient-100" x1="148.4" y1="82.88" x2="207.28" y2="82.88" xlink:href="#linear-gradient-3"/><linearGradient id="linear-gradient-101" x1="202.13" y1="76.01" x2="153.55" y2="76.01" xlink:href="#linear-gradient-3"/><linearGradient id="linear-gradient-102" x1="-1551.52" y1="1681.18" x2="-1546.61" y2="1661.35" xlink:href="#linear-gradient-6"/><linearGradient id="linear-gradient-103" x1="-1543.46" y1="1668.36" x2="-1542.39" y2="1664.05" xlink:href="#linear-gradient-6"/><linearGradient id="linear-gradient-104" x1="-1557.02" y1="1676.19" x2="-1555.95" y2="1671.88" xlink:href="#linear-gradient-6"/><linearGradient id="linear-gradient-105" x1="-1542.46" y1="1670.58" x2="-1541.39" y2="1666.27" xlink:href="#linear-gradient-6"/><linearGradient id="linear-gradient-106" x1="-1556.02" y1="1678.41" x2="-1554.96" y2="1674.1" xlink:href="#linear-gradient-6"/><linearGradient id="linear-gradient-107" x1="148.4" y1="89.04" x2="207.29" y2="89.04" xlink:href="#linear-gradient-3"/><linearGradient id="linear-gradient-108" x1="148.4" y1="78.2" x2="207.28" y2="78.2" xlink:href="#linear-gradient-3"/><linearGradient id="linear-gradient-109" x1="202.13" y1="71.33" x2="153.55" y2="71.33" xlink:href="#linear-gradient-3"/><linearGradient id="linear-gradient-110" x1="-1559.72" y1="1681.86" x2="-1554.81" y2="1662.03" xlink:href="#linear-gradient-6"/><linearGradient id="linear-gradient-111" x1="-1551.65" y1="1669.04" x2="-1550.59" y2="1664.73" xlink:href="#linear-gradient-6"/><linearGradient id="linear-gradient-112" x1="-1565.21" y1="1676.86" x2="-1564.15" y2="1672.56" xlink:href="#linear-gradient-6"/><linearGradient id="linear-gradient-113" x1="-1550.66" y1="1671.25" x2="-1549.59" y2="1666.95" xlink:href="#linear-gradient-6"/><linearGradient id="linear-gradient-114" x1="-1564.22" y1="1679.08" x2="-1563.15" y2="1674.78" xlink:href="#linear-gradient-6"/></defs><title>imagen1_1.2</title><g id="Layer_2" data-name="Layer 2"><g id="ilus"><polygon class="cls-1" points="311.4 90.35 155.51 0.35 0.6 89.78 0.6 137.78 156.49 227.78 311.4 138.35 311.4 90.35"/><path class="cls-2" d="M156.48,228.13l-.15-.09L.3,138V89.61l.15-.09L155.51,0l.15.09,156,90.09v48.35l-.15.09ZM.9,137.61l155.58,89.83L311.1,138.17V90.52L155.51.69.9,90Z"/><path class="cls-3" d="M.5,137.87a.3.3,0,0,1-.3-.3v-48a.3.3,0,1,1,.6,0v48A.3.3,0,0,1,.5,137.87Z"/><line class="cls-4" x1="156.5" y1="179.57" x2="156.5" y2="227.57"/><rect class="cls-5" x="156.2" y="179.57" width="0.6" height="48"/><path class="cls-6" d="M311.5,138.87a.3.3,0,0,1-.3-.3v-48a.3.3,0,0,1,.6,0v48A.3.3,0,0,1,311.5,138.87Z"/><polygon class="cls-7" points="156.49 179.78 0.6 89.78 155.51 0.35 311.4 90.35 156.49 179.78"/><path class="cls-8" d="M156.48,180.13l-.15-.09L0,89.78l.45-.26L155.51,0l.15.09L312,90.35l-.45.26ZM1.2,89.78l155.28,89.65L310.8,90.35,155.51.69Z"/><path class="cls-9" d="M121.06,76.3l2.14-1.23,14,8.06L135,84.36Z"/><path class="cls-9" d="M146,90.66q-4-2.33-3.42-5.43t4.78-5.51A21.66,21.66,0,0,1,156.86,77a16.27,16.27,0,0,1,9.41,2q4,2.31,3.4,5.42t-4.76,5.52a21.59,21.59,0,0,1-9.56,2.75A16.3,16.3,0,0,1,146,90.66Zm-.07-5.33q-.75,2.43,2.17,4.12a11.58,11.58,0,0,0,7.13,1.25,18.17,18.17,0,0,0,7.3-2.22,7.73,7.73,0,0,0,3.84-4.22q.75-2.43-2.17-4.12A11.58,11.58,0,0,0,157,78.9a18.17,18.17,0,0,0-7.3,2.22A7.73,7.73,0,0,0,145.89,85.33Z"/><path class="cls-9" d="M166.78,102.67q-3.46-2-4-4.07t2.7-4l2.3,1.33q-2.48,1.43-1.84,2.88t3.4,3a10.06,10.06,0,0,0,4.18,1.31,6.9,6.9,0,0,0,4.17-.9q1.49-.86,1.12-2.06A5.68,5.68,0,0,0,177,97.79q-1.39-1.24-2.67-2.51A4,4,0,0,1,173,92.62q-.07-1.38,1.92-2.53a9.53,9.53,0,0,1,6-1.12,16,16,0,0,1,6.17,2q3,1.75,3.68,3.55T189.15,98l-2.23-1.29q2.55-2.14-1.71-4.6a11,11,0,0,0-3.91-1.36,5.69,5.69,0,0,0-3.79.66q-1.3.75-.81,1.89a7.26,7.26,0,0,0,1.83,2.38q1.35,1.24,2.6,2.56a4,4,0,0,1,1.26,2.73q0,1.41-1.94,2.54a10.88,10.88,0,0,1-6.79,1.48A17.55,17.55,0,0,1,166.78,102.67Z"/><g class="cls-10"><path class="cls-11" d="M490.2,77.67c-.34-10,6-20,19.16-27.57,25.72-14.85,67.57-14.77,93.47.19,13.11,7.57,19.61,17.5,19.51,27.38,0,0-.16,14.88,0,23,.2,9.87-6.19,19.75-19.18,27.25-25.72,14.85-67.57,14.77-93.47-.19-13-7.49-19.48-17.28-19.52-27.06C490.13,92.55,490.2,77.67,490.2,77.67Z"/><path class="cls-12" d="M556.72,139.28c-17.06,0-34.15-3.77-47.18-11.29-12.64-7.3-19.63-17-19.67-27.32,0-8,0-22.64,0-23-.36-10.55,6.5-20.44,19.31-27.84C535,35,577,35,603,50c12.79,7.38,19.77,17.2,19.66,27.65,0,.15-.16,15,0,23,.21,10.43-6.66,20.2-19.33,27.51S573.62,139.28,556.72,139.28Zm-.93-99.95c-16.79,0-33.54,3.67-46.28,11s-19.37,17-19,27.3h0c0,.15-.06,15,0,23,0,10.1,6.92,19.61,19.37,26.8,25.78,14.88,67.57,15,93.17.19,12.47-7.2,19.23-16.78,19-27-.16-8,0-22.86,0-23,.11-10.22-6.77-19.85-19.36-27.12C589.73,43.07,572.74,39.33,555.79,39.33Z"/><path class="cls-13" d="M490.2,77.67c-.34-10,6-20,19.16-27.57,25.72-14.85,67.57-14.77,93.47.19,13.11,7.57,19.61,17.5,19.51,27.38,0,0-.16,14.88,0,23,.2,9.87-6.19,19.75-19.18,27.25-25.72,14.85-67.57,14.77-93.47-.19-13-7.49-19.48-17.28-19.52-27.06C490.13,92.55,490.2,77.67,490.2,77.67Z"/><polygon class="cls-11" points="420.76 180.17 510.76 128.17 510.76 104.17 420.76 156.17 420.76 180.17"/><path class="cls-12" d="M420.76,180.47a.3.3,0,0,1-.3-.3v-24a.3.3,0,0,1,.15-.26l90-52a.3.3,0,0,1,.45.26v24a.3.3,0,0,1-.15.26l-90,52A.3.3,0,0,1,420.76,180.47Zm.3-24.13v23.31L510.46,128V104.69Z"/><line class="cls-14" x1="510.76" y1="128.17" x2="422.27" y2="179.36"/><path class="cls-12" d="M422.27,179.66a.3.3,0,0,1-.15-.56l88.49-51.19a.3.3,0,0,1,.3.52l-88.49,51.19A.3.3,0,0,1,422.27,179.66Z"/><polygon class="cls-13" points="420.76 180.17 510.76 128.17 510.76 104.17 420.76 156.17 420.76 180.17"/><path class="cls-11" d="M509.36,50.1c-25.72,14.85-25.57,39,.33,54s67.75,15,93.47.19,25.57-39-.33-54S535.08,35.25,509.36,50.1Z"/><path class="cls-12" d="M556.72,115.61c-17.06,0-34.15-3.77-47.18-11.29C496.85,97,489.86,87.26,489.87,76.91S496.74,57,509.21,49.84l.15.26-.15-.26C535,35,577,35,603,50c12.69,7.32,19.67,17.06,19.67,27.41s-6.87,19.87-19.34,27.07C590.48,111.91,573.62,115.61,556.72,115.61Zm-.93-76.28c-16.79,0-33.54,3.67-46.28,11-12.28,7.09-19,16.52-19,26.55s6.88,19.68,19.37,26.9c25.78,14.88,67.57,15,93.17.19,12.28-7.09,19-16.52,19-26.55s-6.88-19.68-19.37-26.89C589.73,43.07,572.74,39.33,555.79,39.33Z"/><line class="cls-15" x1="510.76" y1="104.17" x2="422.27" y2="155.36"/><path class="cls-12" d="M422.27,155.66a.3.3,0,0,1-.15-.56l88.49-51.19a.3.3,0,0,1,.3.52l-88.49,51.19A.3.3,0,0,1,422.27,155.66Z"/><path class="cls-12" d="M421,156.36l6-9,.69.32a7.18,7.18,0,0,1,4.16,7.2l-.07.76Z"/><path class="cls-11" d="M543.8,46.42a19.54,19.54,0,0,0,24.92,0c0-.2,10.88,29,10.91,29.13h0c0,3.46-2.22,6.93-6.79,9.56-9.09,5.25-23.87,5.22-33-.06-4.55-2.63-6.85-6.07-6.89-9.5h0C532.92,75.4,543.75,46.23,543.8,46.42Z"/><path class="cls-12" d="M556.42,89.32c-6.06,0-12.13-1.34-16.76-4-4.45-2.57-6.95-6-7-9.65a.26.26,0,0,1,0-.17c0-.15,4.05-11,5.43-14.67,5.48-14.7,5.48-14.7,5.76-14.7a.34.34,0,0,1,.21.08,19.24,19.24,0,0,0,24.51,0,.37.37,0,0,1,.21-.08c.28,0,.28,0,5.76,14.7,1.38,3.71,5.41,14.52,5.43,14.67a.31.31,0,0,1,0,.09c0,3.72-2.44,7.19-6.94,9.79S562.43,89.32,556.42,89.32Zm-23.2-13.8a.2.2,0,0,1,0,0c0,3.48,2.43,6.76,6.74,9.25,9,5.22,23.73,5.25,32.72.06,4.3-2.48,6.66-5.77,6.64-9.27-.29-.8-9.4-25.36-10.71-28.66a19.95,19.95,0,0,1-24.7,0C542.62,50.15,533.91,73.65,533.22,75.52Z"/><circle class="cls-11" cx="556.26" cy="27.67" r="15"/><path class="cls-12" d="M556.26,43a15.3,15.3,0,1,1,15.31-15.3A15.32,15.32,0,0,1,556.26,43Zm0-30A14.71,14.71,0,1,0,571,27.67,14.72,14.72,0,0,0,556.26,13Z"/><g class="cls-16"><path class="cls-17" d="M543.8,46.42a19.54,19.54,0,0,0,24.92,0c0-.2,10.88,29,10.91,29.13h0c0,3.46-2.22,6.93-6.79,9.56-9.09,5.25-23.87,5.22-33-.06-4.55-2.63-6.85-6.07-6.89-9.5h0C532.92,75.4,543.75,46.23,543.8,46.42Z"/><circle class="cls-18" cx="556.26" cy="27.67" r="15"/></g></g><g class="cls-19"><polygon class="cls-20" points="495.9 198.56 340.02 108.56 185.11 197.99 185.11 245.99 340.99 335.99 495.9 246.56 495.9 198.56"/><path class="cls-12" d="M341,336.29a.3.3,0,0,1-.15,0L185,246.25a.3.3,0,0,1-.15-.26V198a.3.3,0,0,1,.15-.26L339.87,108.3a.3.3,0,0,1,.3,0l155.88,90a.3.3,0,0,1,.15.26v48a.3.3,0,0,1-.15.26L341.14,336.25A.3.3,0,0,1,341,336.29ZM185.41,245.82,341,335.65,495.6,246.38V198.73L340,108.9,185.41,198.17Z"/><line class="cls-21" x1="341.01" y1="287.78" x2="341.01" y2="335.78"/><path class="cls-12" d="M341,336.07a.3.3,0,0,1-.3-.3v-48a.3.3,0,0,1,.6,0v48A.3.3,0,0,1,341,336.07Z"/><polygon class="cls-22" points="340.99 287.99 185.11 197.99 340.02 108.56 495.9 198.56 340.99 287.99"/><path class="cls-12" d="M341,288.29a.3.3,0,0,1-.15,0L185,198.25a.3.3,0,0,1,0-.52L339.87,108.3a.3.3,0,0,1,.3,0l155.88,90a.3.3,0,0,1,0,.52L341.14,288.25A.3.3,0,0,1,341,288.29ZM185.71,198,341,287.65,495.3,198.56,340,108.9Z"/><path class="cls-12" d="M305.57,184.51l2.14-1.23,14,8.06-2.14,1.23Z"/><path class="cls-12" d="M330.47,198.87q-4-2.33-3.42-5.43t4.78-5.51a21.66,21.66,0,0,1,9.54-2.76,16.27,16.27,0,0,1,9.41,2q4,2.31,3.4,5.42t-4.76,5.52a21.59,21.59,0,0,1-9.56,2.75A16.3,16.3,0,0,1,330.47,198.87Zm-.07-5.33q-.75,2.43,2.17,4.12a11.58,11.58,0,0,0,7.13,1.25,18.17,18.17,0,0,0,7.3-2.22,7.73,7.73,0,0,0,3.84-4.22q.75-2.43-2.17-4.12a11.58,11.58,0,0,0-7.13-1.25,18.17,18.17,0,0,0-7.3,2.22A7.73,7.73,0,0,0,330.4,193.54Z"/><path class="cls-12" d="M351.29,210.88q-3.46-2-4-4.07t2.7-4l2.3,1.33q-2.48,1.43-1.84,2.88t3.4,3a10.06,10.06,0,0,0,4.18,1.31,6.9,6.9,0,0,0,4.17-.9q1.49-.86,1.12-2.06a5.68,5.68,0,0,0-1.76-2.45q-1.39-1.24-2.67-2.51a4,4,0,0,1-1.35-2.66q-.07-1.38,1.92-2.53a9.53,9.53,0,0,1,6-1.12,16,16,0,0,1,6.17,2q3,1.75,3.68,3.55t-1.65,3.48l-2.23-1.29q2.55-2.14-1.71-4.6a11,11,0,0,0-3.91-1.36,5.69,5.69,0,0,0-3.79.66q-1.3.75-.81,1.89A7.26,7.26,0,0,0,363,203.9q1.35,1.24,2.6,2.56a4,4,0,0,1,1.26,2.73q0,1.41-1.94,2.54a10.88,10.88,0,0,1-6.79,1.48A17.55,17.55,0,0,1,351.29,210.88Z"/><polygon class="cls-12" points="203.18 235.39 200.98 224.23 198.58 222.84 202.17 238.74 204.18 239.91 207.75 228.14 205.36 226.76 203.18 235.39"/><polygon class="cls-12" points="211.56 228.16 211.56 230.77 214.95 231.18 214.95 246.12 217.26 247.46 217.26 228.79 216.96 228.62 211.56 228.16"/><path class="cls-12" d="M225.61,249c-.42-.25-.75-.27-1-.08a1.27,1.27,0,0,0-.35,1,3,3,0,0,0,.36,1.42,2.54,2.54,0,0,0,1,1c.43.25.76.28,1,.1a1.22,1.22,0,0,0,.35-1,3.14,3.14,0,0,0-.35-1.44A2.52,2.52,0,0,0,225.61,249Z"/><path class="cls-12" d="M239.24,253.51v-12l-2.39-1.38-6,9.12.07,1.93,6,3.46v4.14l2.31,1.33V256l1.72,1v-2.49Zm-2.31-1.33-3.63-2.1,3.45-5.37.17-.31Z"/></g><path class="cls-23" d="M104.71,78.51s0,3.63,0,4.56c-.11,4.41,2.74,8.83,8.55,12.19,11.46,6.61,30.1,6.58,41.63-.08,5.77-3.33,8.67-7.69,8.7-12,0-1.46,0-4.62,0-4.62Z"/><path class="cls-24" d="M133.94,100.31c-7.53,0-15-1.65-20.75-4.94s-8.73-7.64-8.61-12.3c0-.92,0-4.52,0-4.55v-.13h59.13v.12s0,3.18,0,4.62c0,4.59-3.14,8.9-8.76,12.14C149.15,98.63,141.54,100.31,133.94,100.31ZM104.84,78.64c0,.65,0,3.61,0,4.43-.11,4.56,2.9,8.85,8.48,12.08,11.4,6.58,30,6.55,41.51-.08,5.54-3.2,8.61-7.44,8.63-11.93,0-1.28,0-3.9,0-4.5Z"/><path class="cls-25" d="M155,66.45c-11.46-6.61-30.1-6.58-41.63.08s-11.6,17.42-.15,24,30.1,6.58,41.63-.08S166.5,73.06,155,66.45Z"/><path class="cls-24" d="M133.94,95.62c-7.53,0-15-1.65-20.75-4.94-5.55-3.21-8.61-7.49-8.61-12s3.11-8.94,8.76-12.2c11.55-6.67,30.29-6.71,41.76-.08,5.55,3.21,8.61,7.49,8.61,12s-3.11,8.94-8.76,12.2C149.15,93.94,141.54,95.62,133.94,95.62Zm.41-34c-7.55,0-15.12,1.67-20.89,5-5.57,3.21-8.63,7.47-8.63,12s3,8.67,8.49,11.83c11.4,6.58,30,6.55,41.51-.08,5.57-3.21,8.63-7.47,8.63-12s-3-8.67-8.49-11.83C149.3,63.28,141.84,61.64,134.36,61.64Z"/><path class="cls-26" d="M151.39,68.56c-9.45-5.46-24.84-5.43-34.36.07s-9.57,14.38-.12,19.84,24.84,5.43,34.36-.07S160.84,74,151.39,68.56Z"/><path class="cls-24" d="M134,92.65c-6.22,0-12.42-1.36-17.13-4.08s-7.12-6.19-7.12-10,2.57-7.4,7.24-10.09c9.54-5.51,25-5.54,34.48-.07,4.59,2.65,7.12,6.19,7.12,10s-2.57,7.4-7.24,10.09S140.25,92.65,134,92.65Zm.34-28c-6.23,0-12.47,1.37-17.23,4.12-4.59,2.65-7.11,6.15-7.11,9.87s2.48,7.14,7,9.75c9.4,5.43,24.76,5.4,34.23-.07,4.59-2.65,7.11-6.15,7.11-9.87s-2.48-7.14-7-9.75h0C146.65,66,140.49,64.61,134.32,64.61Z"/><path class="cls-27" d="M117,68.63c-4.86,2.81-7.25,6.5-7.17,10.17.12-3.51,2.51-7,7.16-9.7,9.52-5.5,24.9-5.53,34.36-.07,4.62,2.67,7,6.16,7,9.67.13-3.67-2.22-7.35-7-10.14C141.93,63.1,126.55,63.13,117,68.63Z"/><path class="cls-24" d="M110,78.8h-.25c-.09-3.88,2.48-7.53,7.23-10.28l.06.11-.06-.11c9.54-5.51,25-5.54,34.48-.07,4.72,2.72,7.24,6.36,7.11,10.25h-.25c-.08-3.61-2.56-7-7-9.57-9.41-5.43-24.76-5.4-34.23.07C112.64,71.77,110.11,75.18,110,78.8Zm24.33-14.18c-6.23,0-12.47,1.37-17.23,4.12a15.74,15.74,0,0,0-5.81,5.35A16.36,16.36,0,0,1,117,69c9.54-5.51,25-5.54,34.48-.07A15.94,15.94,0,0,1,157.09,74a15.33,15.33,0,0,0-5.77-5.36C146.65,66,140.49,64.61,134.32,64.61Z"/><polygon class="cls-28" points="146.54 77.48 153.47 75.94 138.7 67.41 133.9 70.18 141.73 74.7 115.07 80.66 119.89 83.44 130.13 89.35 134.96 86.56 126.85 81.89 146.54 77.48"/><path class="cls-24" d="M130.13,89.5l-15.4-8.89,26.66-6-7.74-4.47,5.05-2.92L153.81,76l-26.62,5.95,8,4.63Zm-14.72-8.79,14.72,8.5,4.58-2.64-8.19-4.73.31-.07,26.31-5.88L138.7,67.55l-4.55,2.63,7.92,4.57Z"/><polygon class="cls-29" points="142.54 82.52 145.22 81.92 141.8 79.95 139.12 80.55 142.54 82.52"/><path class="cls-24" d="M142.52,82.65l-3.74-2.16,3-.68L145.56,82Zm-3.06-2.06,3.1,1.79,2.32-.52-3.1-1.79Z"/><polygon class="cls-30" points="133.47 75.14 130.05 73.17 127.37 73.77 130.79 75.74 133.47 75.14"/><path class="cls-24" d="M130.77,75.87,127,73.71l3-.68,3.74,2.16Zm-3.06-2.06,3.1,1.79,2.32-.52L130,73.3Z"/><polygon class="cls-31" points="141.18 82.82 137.76 80.85 135.09 81.44 138.51 83.42 141.18 82.82"/><path class="cls-24" d="M138.49,83.55l-3.74-2.16,3-.68,3.74,2.16Zm-3.06-2.06,3.1,1.79,2.31-.52L137.74,81Z"/><polygon class="cls-32" points="126.02 74.07 123.35 74.67 126.77 76.64 129.44 76.04 126.02 74.07"/><path class="cls-24" d="M126.75,76.77,123,74.61l3-.68,3.74,2.16Zm-3.06-2.06,3.1,1.79L129.1,76,126,74.2Z"/><path class="cls-33" d="M104.71,73.83s0,3.63,0,4.56c-.11,4.41,2.74,8.83,8.55,12.19,11.46,6.61,30.1,6.58,41.63-.08,5.77-3.33,8.67-7.69,8.7-12,0-1.46,0-4.62,0-4.62Z"/><path class="cls-24" d="M133.94,95.62c-7.53,0-15-1.65-20.75-4.94s-8.73-7.64-8.61-12.3c0-.92,0-4.52,0-4.55V73.7h59.13v.12s0,3.18,0,4.62c0,4.59-3.14,8.9-8.76,12.14C149.15,93.94,141.54,95.62,133.94,95.62ZM104.84,74c0,.65,0,3.61,0,4.43-.11,4.56,2.9,8.85,8.48,12.07,11.4,6.58,30,6.55,41.51-.08,5.54-3.2,8.61-7.43,8.63-11.93,0-1.28,0-3.9,0-4.5Z"/><path class="cls-34" d="M155,61.76c-11.46-6.61-30.1-6.58-41.63.08s-11.6,17.42-.15,24,30.1,6.58,41.63-.08S166.5,68.38,155,61.76Z"/><path class="cls-24" d="M133.94,90.94c-7.53,0-15-1.65-20.75-4.94-5.55-3.21-8.61-7.49-8.61-12.05s3.11-8.94,8.76-12.2c11.55-6.67,30.29-6.71,41.76-.08,5.55,3.21,8.61,7.49,8.61,12.05s-3.11,8.94-8.76,12.2C149.15,89.26,141.54,90.94,133.94,90.94Zm.41-34c-7.55,0-15.12,1.67-20.89,5-5.57,3.21-8.63,7.47-8.63,12s3,8.67,8.49,11.83c11.4,6.58,30,6.55,41.51-.08,5.57-3.21,8.63-7.47,8.63-12s-3-8.67-8.49-11.83C149.3,58.6,141.84,57,134.36,57Z"/><path class="cls-26" d="M151.39,63.87c-9.45-5.46-24.84-5.43-34.36.07s-9.57,14.38-.12,19.84,24.84,5.43,34.36-.07S160.84,69.33,151.39,63.87Z"/><path class="cls-24" d="M134,88c-6.22,0-12.42-1.36-17.13-4.08s-7.12-6.19-7.12-10,2.57-7.4,7.24-10.09c9.54-5.51,25-5.54,34.48-.07,4.59,2.65,7.12,6.19,7.12,10s-2.57,7.4-7.24,10.09S140.25,88,134,88Zm.34-28c-6.23,0-12.47,1.37-17.23,4.12-4.59,2.65-7.11,6.15-7.11,9.87s2.48,7.14,7,9.75c9.4,5.43,24.76,5.4,34.23-.07,4.59-2.65,7.11-6.16,7.11-9.87s-2.48-7.14-7-9.75C146.65,61.28,140.49,59.93,134.32,59.93Z"/><path class="cls-35" d="M117,63.94c-4.86,2.81-7.25,6.5-7.17,10.17.12-3.51,2.51-7,7.16-9.7,9.52-5.5,24.9-5.53,34.36-.07,4.62,2.67,7,6.16,7,9.67.13-3.67-2.22-7.35-7-10.14C141.93,58.41,126.55,58.44,117,63.94Z"/><path class="cls-24" d="M110,74.11h-.25c-.09-3.88,2.48-7.53,7.23-10.28l.06.11-.06-.11c9.54-5.51,25-5.54,34.48-.07,4.72,2.72,7.24,6.36,7.11,10.25h-.25c-.08-3.61-2.56-7-7-9.56-9.41-5.43-24.76-5.4-34.23.07C112.64,67.09,110.11,70.5,110,74.11Zm24.33-14.18c-6.23,0-12.47,1.37-17.23,4.12a15.75,15.75,0,0,0-5.81,5.34A16.36,16.36,0,0,1,117,64.3c9.54-5.51,25-5.54,34.48-.07a15.94,15.94,0,0,1,5.64,5.11A15.33,15.33,0,0,0,151.33,64C146.65,61.28,140.49,59.93,134.32,59.93Z"/><polygon class="cls-36" points="146.54 72.8 153.47 71.25 138.7 62.73 133.9 65.5 141.73 70.02 115.07 75.97 119.89 78.76 130.13 84.67 134.96 81.88 126.85 77.2 146.54 72.8"/><path class="cls-24" d="M130.13,84.81l-15.4-8.89,26.66-6-7.74-4.47,5.05-2.92,15.11,8.72-26.62,5.95,8,4.63ZM115.41,76l14.72,8.5,4.58-2.64-8.19-4.73.31-.07,26.31-5.88L138.7,62.87l-4.55,2.63,7.92,4.57Z"/><polygon class="cls-37" points="142.54 77.84 145.22 77.24 141.8 75.26 139.12 75.86 142.54 77.84"/><path class="cls-24" d="M142.52,78l-3.74-2.16,3-.68,3.74,2.16Zm-3.06-2.06,3.1,1.79,2.32-.52-3.1-1.79Z"/><polygon class="cls-38" points="133.47 70.46 130.05 68.48 127.37 69.08 130.79 71.06 133.47 70.46"/><path class="cls-24" d="M130.77,71.19,127,69l3-.68,3.74,2.16Zm-3.06-2.06,3.1,1.79,2.32-.52L130,68.62Z"/><polygon class="cls-39" points="141.18 78.14 137.76 76.17 135.09 76.76 138.51 78.74 141.18 78.14"/><path class="cls-24" d="M138.49,78.87l-3.74-2.16,3-.68,3.74,2.16Zm-3.06-2.06,3.1,1.79,2.31-.52-3.1-1.79Z"/><polygon class="cls-40" points="126.02 69.38 123.35 69.98 126.77 71.96 129.44 71.36 126.02 69.38"/><path class="cls-24" d="M126.75,72.09,123,69.93l3-.68,3.74,2.16ZM123.69,70l3.1,1.79,2.31-.52L126,69.52Z"/><path class="cls-41" d="M104.71,69.14s0,3.63,0,4.56c-.11,4.41,2.74,8.83,8.55,12.19,11.46,6.61,30.1,6.58,41.63-.08,5.77-3.33,8.67-7.69,8.7-12,0-1.46,0-4.62,0-4.62Z"/><path class="cls-24" d="M133.94,90.94c-7.53,0-15-1.65-20.75-4.94s-8.73-7.64-8.61-12.3c0-.92,0-4.52,0-4.55V69h59.13v.12s0,3.18,0,4.62c0,4.59-3.14,8.9-8.76,12.14C149.15,89.26,141.54,90.94,133.94,90.94ZM104.84,69.27c0,.65,0,3.61,0,4.43-.11,4.56,2.9,8.85,8.48,12.07,11.4,6.58,30,6.55,41.51-.08,5.54-3.2,8.61-7.44,8.63-11.93,0-1.28,0-3.9,0-4.5Z"/><path class="cls-42" d="M155,57.08c-11.46-6.61-30.1-6.58-41.63.08s-11.6,17.42-.15,24,30.1,6.58,41.63-.08S166.5,63.7,155,57.08Z"/><path class="cls-24" d="M133.94,86.25c-7.53,0-15-1.65-20.75-4.94-5.55-3.21-8.61-7.49-8.61-12.05s3.11-8.94,8.76-12.2c11.55-6.67,30.29-6.71,41.76-.08,5.55,3.21,8.61,7.49,8.61,12S160.6,78,155,81.23C149.15,84.58,141.54,86.25,133.94,86.25Zm.41-34c-7.55,0-15.12,1.67-20.89,5-5.57,3.21-8.63,7.47-8.63,12s3,8.67,8.49,11.83c11.4,6.58,30,6.55,41.51-.08,5.57-3.21,8.63-7.47,8.63-12s-3-8.67-8.49-11.83C149.3,53.91,141.84,52.28,134.36,52.28Z"/><path class="cls-26" d="M151.39,59.19c-9.45-5.46-24.84-5.43-34.36.07s-9.57,14.38-.12,19.84,24.84,5.43,34.36-.07S160.84,64.65,151.39,59.19Z"/><path class="cls-24" d="M134,83.29c-6.22,0-12.42-1.36-17.13-4.08s-7.12-6.19-7.12-10,2.57-7.4,7.24-10.09c9.54-5.51,25-5.54,34.48-.07,4.59,2.65,7.12,6.19,7.12,10s-2.57,7.4-7.24,10.09S140.25,83.29,134,83.29Zm.34-28c-6.23,0-12.47,1.37-17.23,4.12C112.51,62,110,65.52,110,69.24s2.48,7.14,7,9.75c9.4,5.43,24.76,5.4,34.23-.07,4.59-2.65,7.11-6.15,7.11-9.87s-2.48-7.14-7-9.75h0C146.65,56.59,140.49,55.24,134.32,55.24Z"/><path class="cls-43" d="M117,59.26c-4.86,2.81-7.25,6.5-7.17,10.17.12-3.51,2.51-7,7.16-9.7,9.52-5.5,24.9-5.53,34.36-.07,4.62,2.67,7,6.16,7,9.67.13-3.67-2.22-7.35-7-10.14C141.93,53.73,126.55,53.76,117,59.26Z"/><path class="cls-24" d="M110,69.43h-.25c-.09-3.89,2.48-7.54,7.23-10.28,9.54-5.51,25-5.54,34.48-.07,4.72,2.72,7.24,6.36,7.11,10.25h-.25c-.08-3.61-2.56-7-7-9.57-9.41-5.43-24.76-5.4-34.23.07C112.64,62.4,110.11,65.81,110,69.43Zm7-10.17.06.11a15.74,15.74,0,0,0-5.81,5.35,16.36,16.36,0,0,1,5.68-5.1c9.54-5.51,25-5.54,34.48-.07a15.94,15.94,0,0,1,5.64,5.11,15.32,15.32,0,0,0-5.77-5.36c-9.41-5.43-24.76-5.4-34.23.07Z"/><polygon class="cls-44" points="146.54 68.11 153.47 66.57 138.7 58.04 133.9 60.81 141.73 65.33 115.07 71.29 119.89 74.08 130.13 79.98 134.96 77.2 126.85 72.52 146.54 68.11"/><path class="cls-24" d="M130.13,80.13l-15.4-8.89,26.66-6-7.74-4.47,5.05-2.92,15.11,8.72-26.62,5.95,8,4.63Zm-14.72-8.79,14.72,8.5,4.58-2.64-8.19-4.73.31-.07,26.31-5.88L138.7,58.19l-4.55,2.63,7.92,4.57Z"/><polygon class="cls-45" points="142.54 73.15 145.22 72.55 141.8 70.58 139.12 71.18 142.54 73.15"/><path class="cls-24" d="M142.52,73.29l-3.74-2.16,3-.68,3.74,2.16Zm-3.06-2.06,3.1,1.79,2.32-.52-3.1-1.79Z"/><polygon class="cls-46" points="133.47 65.77 130.05 63.8 127.37 64.4 130.79 66.37 133.47 65.77"/><path class="cls-24" d="M130.77,66.51,127,64.35l3-.68,3.74,2.16Zm-3.06-2.06,3.1,1.79,2.32-.52L130,63.93Z"/><polygon class="cls-47" points="141.18 73.46 137.76 71.48 135.09 72.08 138.51 74.05 141.18 73.46"/><path class="cls-24" d="M138.49,74.19,134.75,72l3-.68,3.74,2.16Zm-3.06-2.06,3.1,1.79,2.31-.52-3.1-1.79Z"/><polygon class="cls-48" points="126.02 64.7 123.35 65.3 126.77 67.27 129.44 66.68 126.02 64.7"/><path class="cls-24" d="M126.75,67.41,123,65.24l3-.68,3.74,2.16Zm-3.06-2.06,3.1,1.79,2.31-.52L126,64.83Z"/><path class="cls-49" d="M104.71,64.46s0,3.63,0,4.56c-.11,4.41,2.74,8.83,8.55,12.19,11.46,6.61,30.1,6.58,41.63-.08,5.77-3.33,8.67-7.69,8.7-12,0-1.46,0-4.62,0-4.62Z"/><path class="cls-24" d="M133.94,86.25c-7.53,0-15-1.65-20.75-4.94s-8.73-7.64-8.61-12.3c0-.92,0-4.52,0-4.55v-.13h59.13v.12s0,3.18,0,4.62c0,4.59-3.14,8.9-8.76,12.14C149.15,84.58,141.54,86.25,133.94,86.25ZM104.84,64.58c0,.65,0,3.61,0,4.43-.11,4.56,2.9,8.85,8.48,12.08,11.4,6.58,30,6.55,41.51-.08,5.54-3.2,8.61-7.44,8.63-11.93,0-1.28,0-3.9,0-4.5Z"/><path class="cls-50" d="M155,52.4c-11.46-6.61-30.1-6.58-41.63.08s-11.6,17.42-.15,24,30.1,6.58,41.63-.08S166.5,59,155,52.4Z"/><path class="cls-24" d="M133.94,81.57c-7.53,0-15-1.65-20.75-4.94-5.55-3.21-8.61-7.49-8.61-12s3.11-8.94,8.76-12.2c11.55-6.67,30.29-6.71,41.76-.08,5.55,3.21,8.61,7.49,8.61,12s-3.11,8.94-8.76,12.2C149.15,79.89,141.54,81.57,133.94,81.57Zm.41-34c-7.55,0-15.12,1.67-20.89,5-5.57,3.21-8.63,7.47-8.63,12s3,8.67,8.49,11.83c11.4,6.58,30,6.55,41.51-.08,5.57-3.21,8.63-7.47,8.63-12s-3-8.67-8.49-11.83C149.3,49.23,141.84,47.59,134.36,47.59Z"/><path class="cls-26" d="M151.39,54.51c-9.45-5.46-24.84-5.43-34.36.07s-9.57,14.38-.12,19.84,24.84,5.43,34.36-.07S160.84,60,151.39,54.51Z"/><path class="cls-24" d="M134,78.6c-6.22,0-12.42-1.36-17.13-4.08s-7.12-6.19-7.12-10,2.57-7.4,7.24-10.09c9.54-5.51,25-5.54,34.48-.07,4.59,2.65,7.12,6.19,7.12,10s-2.57,7.4-7.24,10.09S140.25,78.6,134,78.6Zm.34-28c-6.23,0-12.47,1.37-17.23,4.12-4.59,2.65-7.11,6.15-7.11,9.87s2.48,7.14,7,9.75c9.4,5.43,24.76,5.4,34.23-.07,4.59-2.65,7.11-6.15,7.11-9.87s-2.48-7.14-7-9.75h0C146.65,51.91,140.49,50.56,134.32,50.56Z"/><path class="cls-51" d="M117,54.57c-4.86,2.81-7.25,6.5-7.17,10.17.12-3.51,2.51-7,7.16-9.7,9.52-5.5,24.9-5.53,34.36-.07,4.62,2.67,7,6.16,7,9.67.13-3.67-2.22-7.35-7-10.14C141.93,49,126.55,49.08,117,54.57Z"/><path class="cls-24" d="M110,64.74h-.25c-.09-3.88,2.48-7.53,7.23-10.28l.06.11-.06-.11c9.54-5.51,25-5.54,34.48-.07,4.72,2.72,7.24,6.36,7.11,10.25h-.25c-.08-3.61-2.56-7-7-9.57-9.41-5.43-24.76-5.4-34.23.07C112.64,57.72,110.11,61.13,110,64.74Zm24.33-14.18c-6.23,0-12.47,1.37-17.23,4.12h0A15.74,15.74,0,0,0,111.28,60a16.36,16.36,0,0,1,5.68-5.1c9.54-5.51,25-5.54,34.48-.07A15.94,15.94,0,0,1,157.09,60a15.33,15.33,0,0,0-5.77-5.36C146.65,51.91,140.49,50.56,134.32,50.56Z"/><polygon class="cls-52" points="146.54 63.43 153.47 61.88 138.7 53.36 133.9 56.13 141.73 60.65 115.07 66.61 119.89 69.39 130.13 75.3 134.96 72.51 126.85 67.83 146.54 63.43"/><path class="cls-24" d="M130.13,75.44l-15.4-8.89,26.66-6-7.74-4.47,5.05-2.92,15.11,8.72-26.62,5.95,8,4.63Zm-14.72-8.79,14.72,8.5,4.58-2.64-8.19-4.73.31-.07,26.31-5.88L138.7,53.5l-4.55,2.63,7.92,4.57Z"/><polygon class="cls-53" points="142.54 68.47 145.22 67.87 141.8 65.9 139.12 66.5 142.54 68.47"/><path class="cls-24" d="M142.52,68.6l-3.74-2.16,3-.68,3.74,2.16Zm-3.06-2.06,3.1,1.79,2.32-.52L141.78,66Z"/><polygon class="cls-54" points="133.47 61.09 130.05 59.12 127.37 59.71 130.79 61.69 133.47 61.09"/><path class="cls-24" d="M130.77,61.82,127,59.66l3-.68,3.74,2.16Zm-3.06-2.06,3.1,1.79,2.32-.52L130,59.25Z"/><polygon class="cls-55" points="141.18 68.77 137.76 66.8 135.09 67.39 138.51 69.37 141.18 68.77"/><path class="cls-24" d="M138.49,69.5l-3.74-2.16,3-.68,3.74,2.16Zm-3.06-2.06,3.1,1.79,2.31-.52-3.1-1.79Z"/><polygon class="cls-56" points="126.02 60.02 123.35 60.61 126.77 62.59 129.44 61.99 126.02 60.02"/><path class="cls-24" d="M126.75,62.72,123,60.56l3-.68L129.78,62Zm-3.06-2.06,3.1,1.79,2.31-.52L126,60.15Z"/><path class="cls-57" d="M104.71,59.8s0,3.63,0,4.56c-.11,4.41,2.74,8.83,8.55,12.19,11.46,6.61,30.1,6.58,41.63-.08,5.77-3.33,8.67-7.69,8.7-12,0-1.46,0-4.62,0-4.62Z"/><path class="cls-24" d="M133.94,81.59c-7.53,0-15-1.65-20.75-4.94s-8.73-7.64-8.61-12.3c0-.92,0-4.52,0-4.55v-.13h59.13v.12s0,3.18,0,4.62c0,4.59-3.14,8.9-8.76,12.14C149.15,79.92,141.54,81.59,133.94,81.59ZM104.84,59.93c0,.65,0,3.61,0,4.43-.11,4.56,2.9,8.85,8.48,12.07,11.4,6.58,30,6.55,41.51-.08,5.54-3.2,8.61-7.44,8.63-11.93,0-1.28,0-3.9,0-4.5Z"/><path class="cls-58" d="M155,47.74c-11.46-6.61-30.1-6.58-41.63.08s-11.6,17.42-.15,24,30.1,6.58,41.63-.08S166.5,54.35,155,47.74Z"/><path class="cls-24" d="M133.94,76.91c-7.53,0-15-1.65-20.75-4.94-5.55-3.21-8.61-7.49-8.61-12.05s3.11-8.94,8.76-12.2C124.9,41,143.63,41,155.1,47.63c5.55,3.21,8.61,7.49,8.61,12.05s-3.11,8.94-8.76,12.2C149.15,75.23,141.54,76.91,133.94,76.91Zm.41-34c-7.55,0-15.12,1.67-20.89,5-5.57,3.21-8.63,7.47-8.63,12s3,8.67,8.49,11.83c11.4,6.58,30,6.55,41.51-.08,5.57-3.21,8.63-7.47,8.63-12s-3-8.67-8.49-11.83C149.3,44.57,141.84,42.93,134.36,42.93Z"/><path class="cls-26" d="M151.39,49.85c-9.45-5.46-24.84-5.43-34.36.07s-9.57,14.38-.12,19.84,24.84,5.43,34.36-.07S160.84,55.3,151.39,49.85Z"/><path class="cls-24" d="M134,73.94c-6.22,0-12.42-1.36-17.13-4.08s-7.12-6.19-7.12-10,2.57-7.4,7.24-10.09c9.54-5.51,25-5.54,34.48-.07,4.59,2.65,7.12,6.19,7.12,10s-2.57,7.4-7.24,10.09S140.25,73.94,134,73.94Zm.34-28c-6.23,0-12.47,1.37-17.23,4.12-4.59,2.65-7.11,6.15-7.11,9.87s2.48,7.14,7,9.75c9.4,5.43,24.76,5.4,34.23-.07,4.59-2.65,7.11-6.16,7.11-9.87s-2.48-7.14-7-9.75C146.65,47.25,140.49,45.9,134.32,45.9Z"/><path class="cls-59" d="M117,49.91c-4.86,2.81-7.25,6.5-7.17,10.17.12-3.51,2.51-7,7.16-9.7,9.52-5.5,24.9-5.53,34.36-.07,4.62,2.67,7,6.16,7,9.67.13-3.67-2.22-7.35-7-10.14C141.93,44.39,126.55,44.42,117,49.91Z"/><path class="cls-24" d="M110,60.09h-.25c-.09-3.88,2.48-7.53,7.23-10.28l.06.11-.06-.11c9.54-5.51,25-5.54,34.48-.07,4.72,2.72,7.24,6.36,7.11,10.25h-.25c-.08-3.61-2.56-7-7-9.56-9.41-5.43-24.76-5.4-34.23.07C112.64,53.06,110.11,56.47,110,60.09ZM134.32,45.9c-6.23,0-12.47,1.37-17.23,4.12h0a15.74,15.74,0,0,0-5.81,5.35,16.36,16.36,0,0,1,5.68-5.1c9.54-5.51,25-5.54,34.48-.07a15.94,15.94,0,0,1,5.64,5.11A15.33,15.33,0,0,0,151.33,50C146.65,47.25,140.49,45.9,134.32,45.9Z"/><polygon class="cls-60" points="146.54 58.77 153.47 57.23 138.7 48.7 133.9 51.47 141.73 55.99 115.07 61.95 119.89 64.73 130.13 70.64 134.96 67.85 126.85 63.17 146.54 58.77"/><path class="cls-24" d="M130.13,70.78l-15.4-8.89,26.66-6-7.74-4.47,5.05-2.92,15.11,8.72-26.62,5.95,8,4.63ZM115.41,62l14.72,8.5,4.58-2.64-8.19-4.73.31-.07,26.31-5.88L138.7,48.84l-4.55,2.63L142.07,56Z"/><polygon class="cls-61" points="142.54 63.81 145.22 63.21 141.8 61.24 139.12 61.84 142.54 63.81"/><path class="cls-24" d="M142.52,63.94l-3.74-2.16,3-.68,3.74,2.16Zm-3.06-2.06,3.1,1.79,2.32-.52-3.1-1.79Z"/><polygon class="cls-62" points="133.47 56.43 130.05 54.46 127.37 55.05 130.79 57.03 133.47 56.43"/><path class="cls-24" d="M130.77,57.16,127,55l3-.68,3.74,2.16Zm-3.06-2.06,3.1,1.79,2.32-.52L130,54.59Z"/><polygon class="cls-63" points="141.18 64.11 137.76 62.14 135.09 62.73 138.51 64.71 141.18 64.11"/><path class="cls-24" d="M138.49,64.84l-3.74-2.16,3-.68,3.74,2.16Zm-3.06-2.06,3.1,1.79,2.31-.52-3.1-1.79Z"/><polygon class="cls-64" points="126.02 55.36 123.35 55.95 126.77 57.93 129.44 57.33 126.02 55.36"/><path class="cls-24" d="M126.75,58.06,123,55.9l3-.68,3.74,2.16ZM123.69,56l3.1,1.79,2.31-.52L126,55.49Z"/><path class="cls-65" d="M104.71,55.12s0,3.63,0,4.56c-.11,4.41,2.74,8.83,8.55,12.19,11.46,6.61,30.1,6.58,41.63-.08,5.77-3.33,8.67-7.69,8.7-12,0-1.46,0-4.62,0-4.62Z"/><path class="cls-24" d="M133.94,76.91c-7.53,0-15-1.65-20.75-4.94s-8.73-7.64-8.61-12.3c0-.92,0-4.52,0-4.55V55h59.13v.12s0,3.18,0,4.62c0,4.59-3.14,8.9-8.76,12.14C149.15,75.23,141.54,76.91,133.94,76.91ZM104.84,55.24c0,.65,0,3.61,0,4.43-.11,4.56,2.9,8.85,8.48,12.07,11.4,6.58,30,6.55,41.51-.08,5.54-3.2,8.61-7.44,8.63-11.93,0-1.28,0-3.9,0-4.5Z"/><path class="cls-66" d="M155,43.05c-11.46-6.61-30.1-6.58-41.63.08s-11.6,17.42-.15,24,30.1,6.58,41.63-.08S166.5,49.67,155,43.05Z"/><path class="cls-24" d="M133.94,72.23c-7.53,0-15-1.65-20.75-4.94-5.55-3.21-8.61-7.49-8.61-12.05s3.11-8.94,8.76-12.2c11.55-6.67,30.29-6.71,41.76-.08,5.55,3.21,8.61,7.49,8.61,12S160.6,63.94,155,67.2C149.15,70.55,141.54,72.23,133.94,72.23Zm.41-34c-7.55,0-15.12,1.67-20.89,5-5.57,3.21-8.63,7.47-8.63,12s3,8.67,8.49,11.83c11.4,6.58,30,6.55,41.51-.08,5.57-3.21,8.63-7.47,8.63-12s-3-8.67-8.49-11.83C149.3,39.89,141.84,38.25,134.36,38.25Z"/><path class="cls-26" d="M151.39,45.16c-9.45-5.46-24.84-5.43-34.36.07s-9.57,14.38-.12,19.84,24.84,5.43,34.36-.07S160.84,50.62,151.39,45.16Z"/><path class="cls-24" d="M134,69.26c-6.22,0-12.42-1.36-17.13-4.08s-7.12-6.19-7.12-10,2.57-7.4,7.24-10.09c9.54-5.51,25-5.54,34.48-.07,4.59,2.65,7.12,6.19,7.12,10s-2.57,7.4-7.24,10.09S140.25,69.26,134,69.26Zm.34-28c-6.23,0-12.47,1.38-17.23,4.12C112.51,48,110,51.49,110,55.21s2.48,7.14,7,9.75c9.4,5.43,24.76,5.4,34.23-.07,4.59-2.65,7.11-6.15,7.11-9.87s-2.48-7.14-7-9.75h0C146.65,42.57,140.49,41.22,134.32,41.22Z"/><path class="cls-67" d="M117,45.23c-4.86,2.81-7.25,6.5-7.17,10.17.12-3.51,2.51-7,7.16-9.7,9.52-5.5,24.9-5.53,34.36-.07,4.62,2.67,7,6.16,7,9.67.13-3.67-2.22-7.35-7-10.14C141.93,39.7,126.55,39.73,117,45.23Z"/><path class="cls-24" d="M110,55.4h-.25c-.09-3.89,2.48-7.54,7.23-10.28,9.54-5.51,25-5.54,34.48-.07,4.72,2.72,7.24,6.36,7.11,10.25h-.25c-.08-3.61-2.56-7-7-9.56-9.41-5.43-24.76-5.4-34.23.07C112.64,48.38,110.11,51.79,110,55.4Zm24.33-14.18c-6.23,0-12.47,1.38-17.23,4.12h0a15.74,15.74,0,0,0-5.81,5.35,16.36,16.36,0,0,1,5.68-5.1c9.54-5.51,25-5.54,34.48-.07a15.94,15.94,0,0,1,5.64,5.11,15.33,15.33,0,0,0-5.76-5.36C146.65,42.57,140.49,41.22,134.32,41.22Z"/><polygon class="cls-68" points="146.54 54.09 153.47 52.54 138.7 44.01 133.9 46.79 141.73 51.31 115.07 57.26 119.89 60.05 130.13 65.96 134.96 63.17 126.85 58.49 146.54 54.09"/><path class="cls-24" d="M130.13,66.1l-15.4-8.89,26.66-6-7.74-4.47,5.05-2.92,15.11,8.72-26.62,5.95,8,4.63Zm-14.72-8.79,14.72,8.5,4.58-2.64-8.19-4.73.31-.07,26.31-5.88L138.7,44.16l-4.55,2.63,7.92,4.57Z"/><polygon class="cls-69" points="142.54 59.13 145.22 58.53 141.8 56.55 139.12 57.15 142.54 59.13"/><path class="cls-24" d="M142.52,59.26l-3.74-2.16,3-.68,3.74,2.16Zm-3.06-2.06,3.1,1.79,2.32-.52-3.1-1.79Z"/><polygon class="cls-70" points="133.47 51.75 130.05 49.77 127.37 50.37 130.79 52.35 133.47 51.75"/><path class="cls-24" d="M130.77,52.48,127,50.32l3-.68,3.74,2.16Zm-3.06-2.06,3.1,1.79,2.32-.52L130,49.9Z"/><polygon class="cls-71" points="141.18 59.43 137.76 57.45 135.09 58.05 138.51 60.03 141.18 59.43"/><path class="cls-24" d="M138.49,60.16,134.75,58l3-.68,3.74,2.16Zm-3.06-2.06,3.1,1.79,2.31-.52-3.1-1.79Z"/><polygon class="cls-72" points="126.02 50.67 123.35 51.27 126.77 53.25 129.44 52.65 126.02 50.67"/><path class="cls-24" d="M126.75,53.38,123,51.22l3-.68,3.74,2.16Zm-3.06-2.06,3.1,1.79,2.31-.52L126,50.81Z"/><path class="cls-73" d="M104.71,50.43s0,3.63,0,4.56c-.11,4.41,2.74,8.83,8.55,12.19,11.46,6.61,30.1,6.58,41.63-.08,5.77-3.33,8.67-7.69,8.7-12,0-1.46,0-4.62,0-4.62Z"/><path class="cls-24" d="M133.94,72.23c-7.53,0-15-1.65-20.75-4.94s-8.73-7.64-8.61-12.3c0-.92,0-4.52,0-4.55v-.13h59.13v.12s0,3.18,0,4.62c0,4.59-3.14,8.9-8.76,12.14C149.15,70.55,141.54,72.23,133.94,72.23ZM104.84,50.56c0,.65,0,3.61,0,4.44-.11,4.56,2.9,8.85,8.48,12.07,11.4,6.58,30,6.55,41.51-.08,5.54-3.2,8.61-7.44,8.63-11.93,0-1.28,0-3.9,0-4.5Z"/><path class="cls-74" d="M155,38.37c-11.46-6.61-30.1-6.58-41.63.08s-11.6,17.42-.15,24,30.1,6.58,41.63-.08S166.5,45,155,38.37Z"/><path class="cls-24" d="M133.94,67.54c-7.53,0-15-1.65-20.75-4.94-5.55-3.21-8.61-7.49-8.61-12s3.11-8.94,8.76-12.2c11.55-6.67,30.29-6.71,41.76-.08,5.55,3.21,8.61,7.49,8.61,12s-3.11,8.94-8.76,12.2C149.15,65.87,141.54,67.54,133.94,67.54Zm.41-34c-7.55,0-15.12,1.67-20.89,5-5.57,3.21-8.63,7.47-8.63,12s3,8.67,8.49,11.83c11.4,6.58,30,6.55,41.51-.08,5.57-3.21,8.63-7.47,8.63-12s-3-8.67-8.49-11.83C149.3,35.2,141.84,33.56,134.36,33.56Z"/><path class="cls-26" d="M151.39,40.48c-9.45-5.46-24.84-5.43-34.36.07s-9.57,14.38-.12,19.84,24.84,5.43,34.36-.07S160.84,45.94,151.39,40.48Z"/><path class="cls-24" d="M134,64.57c-6.22,0-12.42-1.36-17.13-4.08s-7.12-6.19-7.12-10,2.57-7.4,7.24-10.09c9.54-5.51,25-5.54,34.48-.07,4.59,2.65,7.12,6.19,7.12,10s-2.57,7.4-7.24,10.09S140.25,64.57,134,64.57Zm.34-28c-6.23,0-12.47,1.37-17.23,4.12-4.59,2.65-7.11,6.16-7.11,9.87s2.48,7.14,7,9.75c9.4,5.43,24.76,5.4,34.23-.07,4.59-2.65,7.11-6.15,7.11-9.87s-2.48-7.14-7-9.75h0C146.65,37.88,140.49,36.53,134.32,36.53Z"/><path class="cls-75" d="M117,40.55c-4.86,2.81-7.25,6.5-7.17,10.17.12-3.51,2.51-7,7.16-9.7,9.52-5.5,24.9-5.53,34.36-.07,4.62,2.67,7,6.16,7,9.67.13-3.67-2.22-7.35-7-10.14C141.93,35,126.55,35.05,117,40.55Z"/><path class="cls-24" d="M110,50.72h-.25c-.09-3.88,2.48-7.53,7.23-10.28,9.54-5.51,25-5.54,34.48-.07,4.72,2.72,7.24,6.36,7.11,10.25h-.25c-.08-3.61-2.56-7-7-9.57-9.41-5.43-24.76-5.4-34.23.07C112.64,43.69,110.11,47.1,110,50.72Zm7-10.17.06.11A15.74,15.74,0,0,0,111.28,46a16.36,16.36,0,0,1,5.68-5.1c9.54-5.51,25-5.54,34.48-.07a15.94,15.94,0,0,1,5.64,5.11,15.33,15.33,0,0,0-5.77-5.36c-9.41-5.43-24.76-5.4-34.23.07Z"/><polygon class="cls-76" points="146.54 49.4 153.47 47.86 138.7 39.33 133.9 42.1 141.73 46.62 115.07 52.58 119.89 55.36 130.13 61.27 134.96 58.49 126.85 53.81 146.54 49.4"/><path class="cls-24" d="M130.13,61.42l-15.4-8.89,26.66-6-7.74-4.47,5.05-2.92,15.11,8.72-26.62,5.95,8,4.63Zm-14.72-8.79,14.72,8.5,4.58-2.64-8.19-4.73.31-.07,26.31-5.88L138.7,39.48l-4.55,2.63,7.92,4.57Z"/><polygon class="cls-77" points="142.54 54.44 145.22 53.84 141.8 51.87 139.12 52.47 142.54 54.44"/><path class="cls-24" d="M142.52,54.58l-3.74-2.16,3-.68,3.74,2.16Zm-3.06-2.06,3.1,1.79,2.32-.52L141.78,52Z"/><polygon class="cls-78" points="133.47 47.06 130.05 45.09 127.37 45.69 130.79 47.66 133.47 47.06"/><path class="cls-24" d="M130.77,47.8,127,45.64l3-.68,3.74,2.16Zm-3.06-2.06,3.1,1.79,2.32-.52L130,45.22Z"/><polygon class="cls-79" points="141.18 54.75 137.76 52.77 135.09 53.37 138.51 55.34 141.18 54.75"/><path class="cls-24" d="M138.49,55.48l-3.74-2.16,3-.68,3.74,2.16Zm-3.06-2.06,3.1,1.79,2.31-.52-3.1-1.79Z"/><polygon class="cls-80" points="126.02 45.99 123.35 46.59 126.77 48.56 129.44 47.97 126.02 45.99"/><path class="cls-24" d="M126.75,48.7,123,46.53l3-.68L129.78,48Zm-3.06-2.06,3.1,1.79,2.31-.52L126,46.12Z"/><path class="cls-81" d="M104.71,45.75s0,3.63,0,4.56c-.11,4.41,2.74,8.83,8.55,12.19,11.46,6.61,30.1,6.58,41.63-.08,5.77-3.33,8.67-7.69,8.7-12,0-1.46,0-4.62,0-4.62Z"/><path class="cls-24" d="M133.94,67.54c-7.53,0-15-1.65-20.75-4.94s-8.73-7.64-8.61-12.3c0-.92,0-4.52,0-4.55v-.13h59.13v.12s0,3.18,0,4.62c0,4.59-3.14,8.9-8.76,12.14C149.15,65.87,141.54,67.54,133.94,67.54ZM104.84,45.87c0,.65,0,3.61,0,4.43-.11,4.56,2.9,8.85,8.48,12.07,11.4,6.58,30,6.55,41.51-.08,5.54-3.2,8.61-7.44,8.63-11.93,0-1.28,0-3.9,0-4.5Z"/><path class="cls-82" d="M155,33.69c-11.46-6.61-30.1-6.58-41.63.08s-11.6,17.42-.15,24,30.1,6.58,41.63-.08S166.5,40.3,155,33.69Z"/><path class="cls-24" d="M133.94,62.86c-7.53,0-15-1.65-20.75-4.94-5.55-3.21-8.61-7.49-8.61-12.05s3.11-8.94,8.76-12.2C124.9,27,143.63,27,155.1,33.58c5.55,3.21,8.61,7.49,8.61,12s-3.11,8.94-8.76,12.2C149.15,61.18,141.54,62.86,133.94,62.86Zm.41-34c-7.55,0-15.12,1.67-20.89,5-5.57,3.21-8.63,7.47-8.63,12s3,8.67,8.49,11.83c11.4,6.58,30,6.55,41.51-.08,5.57-3.21,8.63-7.47,8.63-12S160.45,37,155,33.8C149.3,30.52,141.84,28.88,134.36,28.88Z"/><path class="cls-26" d="M151.39,35.79c-9.45-5.46-24.84-5.43-34.36.07s-9.57,14.38-.12,19.84,24.84,5.43,34.36-.07S160.84,41.25,151.39,35.79Z"/><path class="cls-24" d="M134,59.89c-6.22,0-12.42-1.36-17.13-4.08s-7.12-6.19-7.12-10,2.57-7.4,7.24-10.09c9.54-5.51,25-5.54,34.48-.07,4.59,2.65,7.12,6.19,7.12,10S156,53,151.33,55.74,140.25,59.89,134,59.89Zm.34-28c-6.23,0-12.47,1.37-17.23,4.12-4.59,2.65-7.11,6.15-7.11,9.87s2.48,7.14,7,9.75c9.4,5.43,24.76,5.4,34.23-.07,4.59-2.65,7.11-6.16,7.11-9.87s-2.48-7.14-7-9.75C146.65,33.2,140.49,31.85,134.32,31.85Z"/><path class="cls-83" d="M117,35.86c-4.86,2.81-7.25,6.5-7.17,10.17.12-3.51,2.51-7,7.16-9.7,9.52-5.5,24.9-5.53,34.36-.07,4.62,2.67,7,6.16,7,9.67.13-3.67-2.22-7.35-7-10.14C141.93,30.34,126.55,30.37,117,35.86Z"/><path class="cls-24" d="M110,46h-.25c-.09-3.88,2.48-7.53,7.23-10.28l.06.11-.06-.11c9.54-5.51,25-5.54,34.48-.07,4.72,2.72,7.24,6.36,7.11,10.25h-.25c-.08-3.62-2.56-7-7-9.57-9.41-5.43-24.76-5.4-34.23.07C112.64,39,110.11,42.42,110,46Zm24.33-14.18c-6.23,0-12.47,1.37-17.23,4.12a15.74,15.74,0,0,0-5.81,5.35,16.36,16.36,0,0,1,5.68-5.1c9.54-5.51,25-5.54,34.48-.07a15.94,15.94,0,0,1,5.64,5.11,15.33,15.33,0,0,0-5.76-5.36C146.65,33.2,140.49,31.85,134.32,31.85Z"/><polygon class="cls-84" points="146.54 44.72 153.47 43.17 138.7 34.65 133.9 37.42 141.73 41.94 115.07 47.9 119.89 50.68 130.13 56.59 134.96 53.8 126.85 49.12 146.54 44.72"/><path class="cls-24" d="M130.13,56.73l-15.4-8.89,26.66-6-7.74-4.47,5.05-2.92,15.11,8.72-26.62,5.95,8,4.63Zm-14.72-8.79,14.72,8.5,4.58-2.64-8.19-4.73.31-.07,26.31-5.88L138.7,34.79l-4.55,2.63L142.07,42Z"/><polygon class="cls-85" points="142.54 49.76 145.22 49.16 141.8 47.19 139.12 47.78 142.54 49.76"/><path class="cls-24" d="M142.52,49.89l-3.74-2.16,3-.68,3.74,2.16Zm-3.06-2.06,3.1,1.79,2.32-.52-3.1-1.79Z"/><polygon class="cls-86" points="133.47 42.38 130.05 40.4 127.37 41 130.79 42.98 133.47 42.38"/><path class="cls-24" d="M130.77,43.11,127,41l3-.68,3.74,2.16Zm-3.06-2.06,3.1,1.79,2.32-.52L130,40.54Z"/><polygon class="cls-87" points="141.18 50.06 137.76 48.09 135.09 48.68 138.51 50.66 141.18 50.06"/><path class="cls-24" d="M138.49,50.79l-3.74-2.16,3-.68,3.74,2.16Zm-3.06-2.06,3.1,1.79,2.31-.52-3.1-1.79Z"/><polygon class="cls-88" points="126.02 41.31 123.35 41.9 126.77 43.88 129.44 43.28 126.02 41.31"/><path class="cls-24" d="M126.75,44,123,41.85l3-.68,3.74,2.16ZM123.69,42l3.1,1.79,2.31-.52L126,41.44Z"/><path class="cls-89" d="M148.4,101.6s0,3.63,0,4.56c-.11,4.41,2.74,8.83,8.55,12.19,11.46,6.61,30.1,6.58,41.63-.08,5.77-3.33,8.67-7.69,8.7-12,0-1.46,0-4.62,0-4.62Z"/><path class="cls-24" d="M177.64,123.39c-7.53,0-15-1.65-20.75-4.94s-8.72-7.64-8.61-12.3c0-.92,0-4.52,0-4.55v-.13h59.13v.12s0,3.18,0,4.62c0,4.59-3.14,8.9-8.76,12.14C192.85,121.71,185.23,123.39,177.64,123.39Zm-29.11-21.67c0,.65,0,3.61,0,4.44-.11,4.56,2.9,8.85,8.48,12.07,11.4,6.58,30,6.55,41.51-.08,5.54-3.2,8.61-7.43,8.63-11.93,0-1.28,0-3.9,0-4.5Z"/><path class="cls-90" d="M198.73,89.53c-11.46-6.61-30.1-6.58-41.63.08s-11.6,17.42-.15,24,30.1,6.58,41.63-.08S210.19,96.15,198.73,89.53Z"/><path class="cls-24" d="M177.64,118.71c-7.53,0-15-1.65-20.75-4.94-5.55-3.21-8.61-7.49-8.61-12.05s3.11-8.94,8.76-12.2c11.55-6.67,30.29-6.71,41.76-.08,5.55,3.21,8.61,7.49,8.61,12.05s-3.11,8.94-8.76,12.2C192.85,117,185.23,118.71,177.64,118.71Zm.41-34c-7.55,0-15.12,1.67-20.89,5-5.57,3.21-8.63,7.47-8.63,12s3,8.67,8.49,11.83c11.4,6.58,30,6.55,41.51-.08,5.57-3.21,8.63-7.47,8.63-12s-3-8.67-8.49-11.83C193,86.37,185.53,84.73,178,84.73Z"/><path class="cls-26" d="M195.08,91.64c-9.45-5.46-24.84-5.43-34.36.07s-9.57,14.38-.12,19.84,24.84,5.43,34.36-.07S204.54,97.1,195.08,91.64Z"/><path class="cls-24" d="M177.67,115.74c-6.22,0-12.42-1.36-17.13-4.08s-7.12-6.19-7.12-10,2.57-7.4,7.24-10.09c9.54-5.51,25-5.54,34.48-.07,4.59,2.65,7.12,6.19,7.12,10s-2.57,7.4-7.24,10.09S183.95,115.74,177.67,115.74Zm.34-28c-6.23,0-12.47,1.37-17.23,4.12-4.59,2.65-7.11,6.16-7.11,9.87s2.48,7.14,7,9.75c9.41,5.43,24.76,5.4,34.23-.07,4.59-2.65,7.11-6.15,7.11-9.87s-2.48-7.14-7-9.75h0C190.34,89,184.18,87.7,178,87.7Z"/><path class="cls-91" d="M160.72,91.71c-4.86,2.81-7.25,6.5-7.17,10.17.12-3.51,2.51-7,7.16-9.7,9.52-5.5,24.9-5.53,34.36-.07,4.62,2.67,7,6.16,7,9.67.13-3.67-2.22-7.35-7-10.14C185.63,86.18,170.25,86.21,160.72,91.71Z"/><path class="cls-24" d="M153.68,101.88h-.25c-.09-3.88,2.48-7.53,7.23-10.28h0c9.54-5.51,25-5.54,34.48-.07,4.72,2.72,7.24,6.36,7.11,10.25H202c-.08-3.61-2.56-7-7-9.57-9.41-5.43-24.76-5.4-34.23.07C156.33,94.86,153.81,98.27,153.68,101.88Zm7-10.17.06.11A15.74,15.74,0,0,0,155,97.17a16.36,16.36,0,0,1,5.68-5.1c9.54-5.51,25-5.54,34.48-.07a15.94,15.94,0,0,1,5.65,5.11A15.33,15.33,0,0,0,195,91.75c-9.41-5.43-24.76-5.4-34.23.07Z"/><polygon class="cls-92" points="190.23 100.56 197.16 99.02 182.4 90.49 177.59 93.27 185.42 97.79 158.76 103.74 163.59 106.53 173.82 112.44 178.65 109.65 170.55 104.97 190.23 100.56"/><path class="cls-24" d="M173.82,112.58l-15.4-8.89,26.66-6-7.74-4.47,5.05-2.92,15.11,8.72L170.89,105l8,4.63Zm-14.72-8.79,14.72,8.5,4.58-2.64-8.19-4.73.31-.07L196.83,99,182.4,90.64l-4.55,2.63,7.92,4.57Z"/><polygon class="cls-93" points="186.23 105.61 188.91 105.01 185.49 103.03 182.81 103.63 186.23 105.61"/><path class="cls-24" d="M186.21,105.74l-3.74-2.16,3-.68,3.74,2.16Zm-3.06-2.06,3.1,1.79,2.32-.52-3.1-1.79Z"/><polygon class="cls-94" points="177.17 98.23 173.75 96.25 171.06 96.85 174.49 98.83 177.17 98.23"/><path class="cls-24" d="M174.47,99l-3.74-2.16,3-.68,3.74,2.16Zm-3.06-2.06,3.1,1.79,2.32-.52-3.1-1.79Z"/><polygon class="cls-95" points="184.88 105.91 181.46 103.93 178.78 104.53 182.21 106.51 184.88 105.91"/><path class="cls-24" d="M182.19,106.64l-3.74-2.16,3-.68,3.74,2.16Zm-3.06-2.06,3.1,1.79,2.31-.52-3.1-1.79Z"/><polygon class="cls-96" points="169.71 97.15 167.04 97.75 170.46 99.73 173.13 99.13 169.71 97.15"/><path class="cls-24" d="M170.44,99.86,166.7,97.7l3-.68,3.74,2.16Zm-3.06-2.06,3.1,1.79,2.31-.52-3.1-1.79Z"/><path class="cls-97" d="M148.4,96.91s0,3.63,0,4.56c-.11,4.41,2.74,8.83,8.55,12.19,11.46,6.61,30.1,6.58,41.63-.08,5.77-3.33,8.67-7.69,8.7-12,0-1.46,0-4.62,0-4.62Z"/><path class="cls-24" d="M177.64,118.71c-7.53,0-15-1.65-20.75-4.94s-8.72-7.64-8.61-12.3c0-.92,0-4.52,0-4.55v-.13h59.13v.12s0,3.18,0,4.62c0,4.59-3.14,8.9-8.76,12.14C192.85,117,185.23,118.71,177.64,118.71ZM148.53,97c0,.65,0,3.61,0,4.43-.11,4.56,2.9,8.85,8.48,12.08,11.4,6.58,30,6.55,41.51-.08,5.54-3.2,8.61-7.43,8.63-11.93,0-1.28,0-3.9,0-4.5Z"/><path class="cls-98" d="M198.73,84.85c-11.46-6.61-30.1-6.58-41.63.08s-11.6,17.42-.15,24,30.1,6.58,41.63-.08S210.19,91.47,198.73,84.85Z"/><path class="cls-24" d="M177.64,114c-7.53,0-15-1.65-20.75-4.94-5.55-3.21-8.61-7.49-8.61-12s3.11-8.94,8.76-12.2c11.55-6.67,30.29-6.71,41.76-.08,5.55,3.21,8.61,7.49,8.61,12s-3.11,8.94-8.76,12.2C192.85,112.35,185.23,114,177.64,114ZM178,80c-7.55,0-15.12,1.67-20.89,5-5.57,3.21-8.63,7.47-8.63,12s3,8.67,8.49,11.83c11.4,6.58,30,6.55,41.51-.08,5.57-3.21,8.63-7.47,8.63-12s-3-8.67-8.49-11.83C193,81.68,185.53,80,178,80Z"/><path class="cls-26" d="M195.08,87c-9.45-5.46-24.84-5.43-34.36.07s-9.57,14.38-.12,19.84,24.84,5.43,34.36-.07S204.54,92.42,195.08,87Z"/><path class="cls-24" d="M177.67,111.05c-6.22,0-12.42-1.36-17.13-4.08s-7.12-6.19-7.12-10,2.57-7.4,7.24-10.09c9.54-5.51,25-5.54,34.48-.07,4.59,2.65,7.12,6.19,7.12,10s-2.57,7.4-7.24,10.09S183.95,111.05,177.67,111.05ZM178,83c-6.23,0-12.47,1.37-17.23,4.12-4.59,2.65-7.11,6.15-7.11,9.87s2.48,7.14,7,9.75c9.41,5.43,24.76,5.4,34.23-.07,4.59-2.65,7.11-6.15,7.11-9.87s-2.48-7.14-7-9.75h0C190.34,84.36,184.18,83,178,83Z"/><path class="cls-99" d="M160.72,87c-4.86,2.81-7.25,6.5-7.17,10.17.12-3.51,2.51-7,7.16-9.7,9.52-5.5,24.9-5.53,34.36-.07,4.62,2.67,7,6.16,7,9.67.13-3.67-2.22-7.35-7-10.14C185.63,81.5,170.25,81.53,160.72,87Z"/><path class="cls-24" d="M153.68,97.2h-.25c-.09-3.88,2.48-7.53,7.23-10.28l.06.11-.06-.11c9.54-5.51,25-5.54,34.48-.07,4.72,2.72,7.24,6.36,7.11,10.25H202c-.08-3.61-2.56-7-7-9.57-9.41-5.43-24.76-5.4-34.23.07C156.33,90.17,153.81,93.58,153.68,97.2ZM178,83c-6.23,0-12.47,1.37-17.23,4.12h0A15.74,15.74,0,0,0,155,92.48a16.36,16.36,0,0,1,5.68-5.1c9.54-5.51,25-5.54,34.48-.07a15.94,15.94,0,0,1,5.64,5.11A15.33,15.33,0,0,0,195,87.07C190.34,84.36,184.18,83,178,83Z"/><polygon class="cls-100" points="190.23 95.88 197.16 94.34 182.4 85.81 177.59 88.58 185.42 93.1 158.76 99.06 163.59 101.84 173.82 107.75 178.65 104.97 170.55 100.29 190.23 95.88"/><path class="cls-24" d="M173.82,107.9,158.42,99l26.66-6-7.74-4.47,5.05-2.92,15.11,8.72-26.62,5.95,8,4.63Zm-14.72-8.79,14.72,8.5L178.4,105l-8.19-4.73.31-.07,26.31-5.88L182.4,86l-4.55,2.63,7.92,4.57Z"/><polygon class="cls-101" points="186.23 100.92 188.91 100.32 185.49 98.35 182.81 98.95 186.23 100.92"/><path class="cls-24" d="M186.21,101.06l-3.74-2.16,3-.68,3.74,2.16ZM183.15,99l3.1,1.79,2.32-.52-3.1-1.79Z"/><polygon class="cls-102" points="177.17 93.54 173.75 91.57 171.06 92.17 174.49 94.14 177.17 93.54"/><path class="cls-24" d="M174.47,94.28l-3.74-2.16,3-.68,3.74,2.16Zm-3.06-2.06,3.1,1.79,2.32-.52-3.1-1.79Z"/><polygon class="cls-103" points="184.88 101.23 181.46 99.25 178.78 99.85 182.21 101.82 184.88 101.23"/><path class="cls-24" d="M182.19,102l-3.74-2.16,3-.68,3.74,2.16Zm-3.06-2.06,3.1,1.79,2.31-.52-3.1-1.79Z"/><polygon class="cls-104" points="169.71 92.47 167.04 93.07 170.46 95.04 173.13 94.44 169.71 92.47"/><path class="cls-24" d="M170.44,95.18,166.7,93l3-.68,3.74,2.16Zm-3.06-2.06,3.1,1.79,2.31-.52-3.1-1.79Z"/><path class="cls-105" d="M148.4,92.23s0,3.63,0,4.56c-.11,4.41,2.74,8.83,8.55,12.19,11.46,6.61,30.1,6.58,41.63-.08,5.77-3.33,8.67-7.69,8.7-12,0-1.46,0-4.62,0-4.62Z"/><path class="cls-24" d="M177.64,114c-7.53,0-15-1.65-20.75-4.94s-8.72-7.64-8.61-12.3c0-.92,0-4.52,0-4.55V92.1h59.13v.12s0,3.18,0,4.62c0,4.59-3.14,8.9-8.76,12.14C192.85,112.35,185.23,114,177.64,114ZM148.53,92.35c0,.65,0,3.61,0,4.43-.11,4.56,2.9,8.85,8.48,12.07,11.4,6.58,30,6.55,41.51-.08,5.54-3.2,8.61-7.43,8.63-11.93,0-1.28,0-3.9,0-4.5Z"/><path class="cls-106" d="M198.73,80.17c-11.46-6.61-30.1-6.58-41.63.08s-11.6,17.42-.15,24,30.1,6.58,41.63-.08S210.19,86.78,198.73,80.17Z"/><path class="cls-24" d="M177.64,109.34c-7.53,0-15-1.65-20.75-4.94-5.55-3.21-8.61-7.49-8.61-12s3.11-8.94,8.76-12.2c11.55-6.67,30.29-6.71,41.76-.08,5.55,3.21,8.61,7.49,8.61,12.05s-3.11,8.94-8.76,12.2C192.85,107.66,185.23,109.34,177.64,109.34Zm.41-34c-7.55,0-15.12,1.67-20.89,5-5.57,3.21-8.63,7.47-8.63,12s3,8.67,8.49,11.83c11.4,6.58,30,6.55,41.51-.08,5.57-3.21,8.63-7.47,8.63-12s-3-8.67-8.49-11.83C193,77,185.53,75.36,178,75.36Z"/><path class="cls-26" d="M195.08,82.27c-9.45-5.46-24.84-5.43-34.36.07s-9.57,14.38-.12,19.84,24.84,5.43,34.36-.07S204.54,87.73,195.08,82.27Z"/><path class="cls-24" d="M177.67,106.37c-6.22,0-12.42-1.36-17.13-4.08s-7.12-6.19-7.12-10,2.57-7.4,7.24-10.09c9.54-5.51,25-5.54,34.48-.07,4.59,2.65,7.12,6.19,7.12,10s-2.57,7.4-7.24,10.09S183.95,106.37,177.67,106.37Zm.34-28c-6.23,0-12.47,1.37-17.23,4.12-4.59,2.65-7.11,6.15-7.11,9.87s2.48,7.14,7,9.75c9.41,5.43,24.76,5.4,34.23-.07,4.59-2.65,7.11-6.16,7.11-9.87s-2.48-7.14-7-9.75C190.34,79.68,184.18,78.33,178,78.33Z"/><path class="cls-107" d="M160.72,82.34c-4.86,2.81-7.25,6.5-7.17,10.17.12-3.51,2.51-7,7.16-9.7,9.52-5.5,24.9-5.53,34.36-.07,4.62,2.67,7,6.16,7,9.67.13-3.67-2.22-7.35-7-10.14C185.63,76.82,170.25,76.85,160.72,82.34Z"/><path class="cls-24" d="M153.68,92.51h-.25c-.09-3.88,2.48-7.53,7.23-10.28l.06.11-.06-.11c9.54-5.51,25-5.54,34.48-.07,4.72,2.72,7.24,6.36,7.11,10.25H202c-.08-3.62-2.56-7-7-9.56-9.41-5.43-24.76-5.4-34.23.07C156.33,85.49,153.81,88.9,153.68,92.51ZM178,78.33c-6.23,0-12.47,1.37-17.23,4.12h0A15.75,15.75,0,0,0,155,87.79a16.36,16.36,0,0,1,5.68-5.09c9.54-5.51,25-5.54,34.48-.07a15.94,15.94,0,0,1,5.64,5.11A15.33,15.33,0,0,0,195,82.38C190.34,79.68,184.18,78.33,178,78.33Z"/><polygon class="cls-108" points="190.23 91.2 197.16 89.65 182.4 81.13 177.59 83.9 185.42 88.42 158.76 94.38 163.59 97.16 173.82 103.07 178.65 100.28 170.55 95.6 190.23 91.2"/><path class="cls-24" d="M173.82,103.21l-15.4-8.89,26.66-6-7.74-4.47L182.4,81l15.11,8.72-26.62,5.95,8,4.63Zm-14.72-8.79,14.72,8.5,4.58-2.64-8.19-4.73.31-.07,26.31-5.88L182.4,81.27l-4.55,2.63,7.92,4.57Z"/><polygon class="cls-109" points="186.23 96.24 188.91 95.64 185.49 93.67 182.81 94.26 186.23 96.24"/><path class="cls-24" d="M186.21,96.37l-3.74-2.16,3-.68,3.74,2.16Zm-3.06-2.06,3.1,1.79,2.32-.52-3.1-1.79Z"/><polygon class="cls-110" points="177.17 88.86 173.75 86.88 171.06 87.48 174.49 89.46 177.17 88.86"/><path class="cls-24" d="M174.47,89.59l-3.74-2.16,3-.68,3.74,2.16Zm-3.06-2.06,3.1,1.79,2.32-.52L173.73,87Z"/><polygon class="cls-111" points="184.88 96.54 181.46 94.57 178.78 95.16 182.21 97.14 184.88 96.54"/><path class="cls-24" d="M182.19,97.27l-3.74-2.16,3-.68,3.74,2.16Zm-3.06-2.06,3.1,1.79,2.31-.52-3.1-1.79Z"/><polygon class="cls-112" points="169.71 87.79 167.04 88.38 170.46 90.36 173.13 89.76 169.71 87.79"/><path class="cls-24" d="M170.44,90.49l-3.74-2.16,3-.68,3.74,2.16Zm-3.06-2.06,3.1,1.79,2.31-.52-3.1-1.79Z"/><path class="cls-113" d="M148.4,87.55s0,3.63,0,4.56c-.11,4.41,2.74,8.83,8.55,12.19,11.46,6.61,30.1,6.58,41.63-.08,5.77-3.33,8.67-7.69,8.7-12,0-1.46,0-4.62,0-4.62Z"/><path class="cls-24" d="M177.64,109.34c-7.53,0-15-1.65-20.75-4.94s-8.72-7.64-8.61-12.3c0-.92,0-4.52,0-4.55v-.13h59.13v.12s0,3.18,0,4.62c0,4.59-3.14,8.9-8.76,12.14C192.85,107.66,185.23,109.34,177.64,109.34ZM148.53,87.67c0,.65,0,3.61,0,4.43-.11,4.56,2.9,8.85,8.48,12.07,11.4,6.58,30,6.55,41.51-.08,5.54-3.2,8.61-7.43,8.63-11.93,0-1.28,0-3.9,0-4.5Z"/><path class="cls-114" d="M198.73,75.48c-11.46-6.61-30.1-6.58-41.63.08S145.5,93,157,99.6s30.1,6.58,41.63-.08S210.19,82.1,198.73,75.48Z"/><path class="cls-24" d="M177.64,104.66c-7.53,0-15-1.65-20.75-4.94-5.55-3.21-8.61-7.49-8.61-12.05s3.11-8.94,8.76-12.2c11.55-6.67,30.29-6.71,41.76-.08,5.55,3.21,8.61,7.49,8.61,12.05s-3.11,8.94-8.76,12.2C192.85,103,185.23,104.66,177.64,104.66Zm.41-34c-7.55,0-15.12,1.67-20.89,5-5.57,3.21-8.63,7.47-8.63,12s3,8.67,8.49,11.83c11.4,6.58,30,6.55,41.51-.08,5.57-3.21,8.63-7.47,8.63-12s-3-8.67-8.49-11.83C193,72.31,185.53,70.68,178,70.68Z"/><path class="cls-26" d="M195.08,77.59c-9.45-5.46-24.84-5.43-34.36.07S151.15,92,160.6,97.5s24.84,5.43,34.36-.07S204.54,83,195.08,77.59Z"/><path class="cls-24" d="M177.67,101.69c-6.22,0-12.42-1.36-17.13-4.08s-7.12-6.19-7.12-10,2.57-7.4,7.24-10.09c9.54-5.51,25-5.54,34.48-.07,4.59,2.65,7.12,6.19,7.12,10s-2.57,7.4-7.24,10.09S183.95,101.69,177.67,101.69Zm.34-28c-6.23,0-12.47,1.37-17.23,4.12-4.59,2.65-7.11,6.16-7.11,9.87s2.48,7.14,7,9.75c9.41,5.43,24.76,5.4,34.23-.07,4.59-2.65,7.11-6.15,7.11-9.87s-2.48-7.14-7-9.75h0C190.34,75,184.18,73.65,178,73.65Z"/><path class="cls-115" d="M160.72,77.66c-4.86,2.81-7.25,6.5-7.17,10.17.12-3.51,2.51-7,7.16-9.7,9.52-5.5,24.9-5.53,34.36-.07,4.62,2.67,7,6.16,7,9.67.13-3.67-2.22-7.35-7-10.14C185.63,72.13,170.25,72.16,160.72,77.66Z"/><path class="cls-24" d="M153.68,87.83h-.25c-.09-3.89,2.48-7.54,7.23-10.28h0c9.54-5.51,25-5.54,34.48-.07,4.72,2.72,7.24,6.36,7.11,10.25H202c-.08-3.61-2.56-7-7-9.57-9.41-5.43-24.76-5.4-34.23.07C156.33,80.81,153.81,84.21,153.68,87.83Zm7-10.17.06.11A15.74,15.74,0,0,0,155,83.11a16.36,16.36,0,0,1,5.68-5.1c9.54-5.51,25-5.54,34.48-.07a15.94,15.94,0,0,1,5.65,5.11A15.33,15.33,0,0,0,195,77.7c-9.41-5.43-24.76-5.4-34.23.07Z"/><polygon class="cls-116" points="190.23 86.51 197.16 84.97 182.4 76.44 177.59 79.22 185.42 83.74 158.76 89.69 163.59 92.48 173.82 98.39 178.65 95.6 170.55 90.92 190.23 86.51"/><path class="cls-24" d="M173.82,98.53l-15.4-8.89,26.66-6-7.74-4.47,5.05-2.92L197.51,85,170.89,91l8,4.63Zm-14.72-8.79,14.72,8.5,4.58-2.64-8.19-4.73.31-.07,26.31-5.88L182.4,76.59l-4.55,2.63,7.92,4.57Z"/><polygon class="cls-117" points="186.23 91.56 188.91 90.95 185.49 88.98 182.81 89.58 186.23 91.56"/><path class="cls-24" d="M186.21,91.69l-3.74-2.16,3-.68L189.25,91Zm-3.06-2.06,3.1,1.79,2.32-.52-3.1-1.79Z"/><polygon class="cls-118" points="177.17 84.17 173.75 82.2 171.06 82.8 174.49 84.78 177.17 84.17"/><path class="cls-24" d="M174.47,84.91l-3.74-2.16,3-.68,3.74,2.16Zm-3.06-2.06,3.1,1.79,2.32-.52-3.1-1.79Z"/><polygon class="cls-119" points="184.88 91.86 181.46 89.88 178.78 90.48 182.21 92.46 184.88 91.86"/><path class="cls-24" d="M182.19,92.59l-3.74-2.16,3-.68,3.74,2.16Zm-3.06-2.06,3.1,1.79,2.31-.52L181.43,90Z"/><polygon class="cls-120" points="169.71 83.1 167.04 83.7 170.46 85.67 173.13 85.08 169.71 83.1"/><path class="cls-24" d="M170.44,85.81l-3.74-2.16,3-.68,3.74,2.16Zm-3.06-2.06,3.1,1.79,2.31-.52-3.1-1.79Z"/><path class="cls-121" d="M148.4,82.89s0,3.63,0,4.56c-.11,4.41,2.74,8.83,8.55,12.19,11.46,6.61,30.1,6.58,41.63-.08,5.77-3.33,8.67-7.69,8.7-12,0-1.46,0-4.62,0-4.62Z"/><path class="cls-24" d="M177.64,104.68c-7.53,0-15-1.65-20.75-4.94s-8.72-7.64-8.61-12.3c0-.92,0-4.52,0-4.55v-.13h59.13v.12s0,3.18,0,4.62c0,4.59-3.14,8.9-8.76,12.14C192.85,103,185.23,104.68,177.64,104.68ZM148.53,83c0,.65,0,3.61,0,4.43-.11,4.56,2.9,8.85,8.48,12.08,11.4,6.58,30,6.55,41.51-.08,5.54-3.2,8.61-7.43,8.63-11.93,0-1.28,0-3.9,0-4.5Z"/><path class="cls-122" d="M198.73,70.82c-11.46-6.61-30.1-6.58-41.63.08s-11.6,17.42-.15,24,30.1,6.58,41.63-.08S210.19,77.44,198.73,70.82Z"/><path class="cls-24" d="M177.64,100c-7.53,0-15-1.65-20.75-4.94-5.55-3.21-8.61-7.49-8.61-12s3.11-8.94,8.76-12.2c11.55-6.67,30.29-6.71,41.76-.08,5.55,3.21,8.61,7.49,8.61,12s-3.11,8.94-8.76,12.2C192.85,98.32,185.23,100,177.64,100ZM178,66c-7.55,0-15.12,1.67-20.89,5-5.57,3.21-8.63,7.47-8.63,12s3,8.67,8.49,11.83c11.4,6.58,30,6.55,41.51-.08,5.57-3.21,8.63-7.47,8.63-12s-3-8.67-8.49-11.83C193,67.66,185.53,66,178,66Z"/><path class="cls-26" d="M195.08,72.93c-9.45-5.46-24.84-5.43-34.36.07s-9.57,14.38-.12,19.84,24.84,5.43,34.36-.07S204.54,78.39,195.08,72.93Z"/><path class="cls-24" d="M177.67,97c-6.22,0-12.42-1.36-17.13-4.08s-7.12-6.19-7.12-10,2.57-7.4,7.24-10.09c9.54-5.51,25-5.54,34.48-.07,4.59,2.65,7.12,6.19,7.12,10s-2.57,7.4-7.24,10.09S183.95,97,177.67,97ZM178,69c-6.23,0-12.47,1.37-17.23,4.12-4.59,2.65-7.11,6.16-7.11,9.87s2.48,7.14,7,9.75c9.41,5.43,24.76,5.4,34.23-.07C199.49,90,202,86.5,202,82.79s-2.48-7.14-7-9.75h0C190.34,70.34,184.18,69,178,69Z"/><path class="cls-123" d="M160.72,73c-4.86,2.81-7.25,6.5-7.17,10.17.12-3.51,2.51-7,7.16-9.7,9.52-5.5,24.9-5.53,34.36-.07,4.62,2.67,7,6.16,7,9.67.13-3.67-2.22-7.35-7-10.14C185.63,67.47,170.25,67.5,160.72,73Z"/><path class="cls-24" d="M153.68,83.17h-.25c-.09-3.88,2.48-7.53,7.23-10.28h0c9.54-5.51,25-5.54,34.48-.07,4.72,2.72,7.24,6.36,7.11,10.25H202c-.08-3.61-2.56-7-7-9.57-9.41-5.43-24.76-5.4-34.23.07C156.33,76.15,153.81,79.56,153.68,83.17Zm7-10.17.06.11A15.74,15.74,0,0,0,155,78.45a16.36,16.36,0,0,1,5.68-5.1c9.54-5.51,25-5.54,34.48-.07a15.94,15.94,0,0,1,5.64,5.11A15.33,15.33,0,0,0,195,73c-9.41-5.43-24.76-5.4-34.23.07Z"/><polygon class="cls-124" points="190.23 81.85 197.16 80.31 182.4 71.78 177.59 74.56 185.42 79.08 158.76 85.03 163.59 87.82 173.82 93.73 178.65 90.94 170.55 86.26 190.23 81.85"/><path class="cls-24" d="M173.82,93.87,158.42,85l26.66-6-7.74-4.47,5.05-2.92,15.11,8.72-26.62,5.95,8,4.63Zm-14.72-8.79,14.72,8.5,4.58-2.64-8.19-4.73.31-.07,26.31-5.88L182.4,71.93l-4.55,2.63,7.92,4.57Z"/><polygon class="cls-125" points="186.23 86.9 188.91 86.3 185.49 84.32 182.81 84.92 186.23 86.9"/><path class="cls-24" d="M186.21,87l-3.74-2.16,3-.68,3.74,2.16ZM183.15,85l3.1,1.79,2.32-.52-3.1-1.79Z"/><polygon class="cls-126" points="177.17 79.52 173.75 77.54 171.06 78.14 174.49 80.12 177.17 79.52"/><path class="cls-24" d="M174.47,80.25l-3.74-2.16,3-.68,3.74,2.16Zm-3.06-2.06,3.1,1.79,2.32-.52-3.1-1.79Z"/><polygon class="cls-127" points="184.88 87.2 181.46 85.22 178.78 85.82 182.21 87.8 184.88 87.2"/><path class="cls-24" d="M182.19,87.93l-3.74-2.16,3-.68,3.74,2.16Zm-3.06-2.06,3.1,1.79,2.31-.52-3.1-1.79Z"/><polygon class="cls-128" points="169.71 78.44 167.04 79.04 170.46 81.02 173.13 80.42 169.71 78.44"/><path class="cls-24" d="M170.44,81.15,166.7,79l3-.68,3.74,2.16Zm-3.06-2.06,3.1,1.79,2.31-.52-3.1-1.79Z"/><path class="cls-129" d="M148.4,78.2s0,3.63,0,4.56c-.11,4.41,2.74,8.83,8.55,12.19,11.46,6.61,30.1,6.58,41.63-.08,5.77-3.33,8.67-7.69,8.7-12,0-1.46,0-4.62,0-4.62Z"/><path class="cls-24" d="M177.64,100c-7.53,0-15-1.65-20.75-4.94s-8.72-7.64-8.61-12.3c0-.92,0-4.52,0-4.55v-.13h59.13v.12s0,3.18,0,4.62c0,4.59-3.14,8.9-8.76,12.14C192.85,98.32,185.23,100,177.64,100ZM148.53,78.33c0,.65,0,3.61,0,4.43-.11,4.56,2.9,8.85,8.48,12.07,11.4,6.58,30,6.55,41.51-.08,5.54-3.2,8.61-7.43,8.63-11.93,0-1.28,0-3.9,0-4.5Z"/><path class="cls-130" d="M198.73,66.14c-11.46-6.61-30.1-6.58-41.63.08s-11.6,17.42-.15,24,30.1,6.58,41.63-.08S210.19,72.75,198.73,66.14Z"/><path class="cls-24" d="M177.64,95.31c-7.53,0-15-1.65-20.75-4.94-5.55-3.21-8.61-7.49-8.61-12s3.11-8.94,8.76-12.2c11.55-6.67,30.29-6.71,41.76-.08,5.55,3.21,8.61,7.49,8.61,12.05s-3.11,8.94-8.76,12.2C192.85,93.64,185.23,95.31,177.64,95.31Zm.41-34c-7.55,0-15.12,1.67-20.89,5-5.57,3.21-8.63,7.47-8.63,12s3,8.67,8.49,11.83c11.4,6.58,30,6.55,41.51-.08,5.57-3.21,8.63-7.47,8.63-12s-3-8.67-8.49-11.83C193,63,185.53,61.33,178,61.33Z"/><path class="cls-26" d="M195.08,68.25c-9.45-5.46-24.84-5.43-34.36.07s-9.57,14.38-.12,19.84,24.84,5.43,34.36-.07S204.54,73.71,195.08,68.25Z"/><path class="cls-24" d="M177.67,92.34c-6.22,0-12.42-1.36-17.13-4.08s-7.12-6.19-7.12-10,2.57-7.4,7.24-10.09c9.54-5.51,25-5.54,34.48-.07,4.59,2.65,7.12,6.19,7.12,10s-2.57,7.4-7.24,10.09S183.94,92.34,177.67,92.34Zm.34-28c-6.23,0-12.47,1.37-17.23,4.12-4.59,2.65-7.11,6.15-7.11,9.87s2.48,7.14,7,9.75c9.41,5.43,24.76,5.4,34.23-.07,4.59-2.65,7.11-6.16,7.11-9.87s-2.48-7.14-7-9.75C190.34,65.65,184.18,64.3,178,64.3Z"/><path class="cls-131" d="M160.72,68.32c-4.86,2.81-7.25,6.5-7.17,10.17.12-3.51,2.51-7,7.16-9.7,9.52-5.5,24.9-5.53,34.36-.07,4.62,2.67,7,6.16,7,9.67.13-3.67-2.22-7.35-7-10.14C185.63,62.79,170.25,62.82,160.72,68.32Z"/><path class="cls-24" d="M153.68,78.49h-.25c-.09-3.88,2.48-7.53,7.23-10.28l.06.11-.06-.11c9.54-5.51,25-5.54,34.48-.07,4.72,2.72,7.24,6.36,7.11,10.25H202c-.08-3.62-2.56-7-7-9.56-9.41-5.43-24.76-5.4-34.23.07C156.33,71.46,153.81,74.87,153.68,78.49ZM178,64.3c-6.23,0-12.47,1.37-17.23,4.12A15.74,15.74,0,0,0,155,73.77a16.36,16.36,0,0,1,5.68-5.1c9.54-5.51,25-5.54,34.48-.07a15.94,15.94,0,0,1,5.64,5.11A15.33,15.33,0,0,0,195,68.36C190.34,65.65,184.18,64.3,178,64.3Z"/><polygon class="cls-132" points="190.23 77.17 197.16 75.63 182.4 67.1 177.59 69.87 185.42 74.39 158.76 80.35 163.59 83.13 173.82 89.04 178.65 86.25 170.55 81.58 190.23 77.17"/><path class="cls-24" d="M173.82,89.19l-15.4-8.89,26.66-6-7.74-4.47L182.4,67l15.11,8.72-26.62,5.95,8,4.63ZM159.11,80.4l14.72,8.5,4.58-2.64-8.19-4.73.31-.07,26.31-5.88L182.4,67.24l-4.55,2.63,7.92,4.57Z"/><polygon class="cls-133" points="186.23 82.21 188.91 81.61 185.49 79.64 182.81 80.24 186.23 82.21"/><path class="cls-24" d="M186.21,82.35l-3.74-2.16,3-.68,3.74,2.16Zm-3.06-2.06,3.1,1.79,2.32-.52-3.1-1.79Z"/><polygon class="cls-134" points="177.17 74.83 173.75 72.86 171.06 73.46 174.49 75.43 177.17 74.83"/><path class="cls-24" d="M174.47,75.56l-3.74-2.16,3-.68,3.74,2.16Zm-3.06-2.06,3.1,1.79,2.32-.52L173.73,73Z"/><polygon class="cls-135" points="184.88 82.52 181.46 80.54 178.78 81.14 182.21 83.11 184.88 82.52"/><path class="cls-24" d="M182.19,83.25l-3.74-2.16,3-.68,3.74,2.16Zm-3.06-2.06,3.1,1.79,2.31-.52-3.1-1.79Z"/><polygon class="cls-136" points="169.71 73.76 167.04 74.36 170.46 76.33 173.13 75.73 169.71 73.76"/><path class="cls-24" d="M170.44,76.46,166.7,74.3l3-.68,3.74,2.16Zm-3.06-2.06,3.1,1.79,2.31-.52-3.1-1.79Z"/><polygon class="cls-137" points="18.56 128.07 16.29 116.61 13.83 115.19 17.52 131.51 19.59 132.71 23.25 120.62 20.8 119.21 18.56 128.07"/><polygon class="cls-137" points="27.15 120.65 27.15 123.33 30.64 123.74 30.64 139.09 33.01 140.46 33.01 121.29 32.71 121.11 27.15 120.65"/><path class="cls-137" d="M41.59,142.05q-.65-.38-1-.08a1.31,1.31,0,0,0-.36,1.06,3.07,3.07,0,0,0,.37,1.46,2.61,2.61,0,0,0,1,1.07c.44.26.79.29,1,.1a1.25,1.25,0,0,0,.36-1,3.22,3.22,0,0,0-.36-1.47A2.59,2.59,0,0,0,41.59,142.05Z"/><path class="cls-137" d="M56.08,145.67a8.48,8.48,0,0,0-1.78-2.72,2,2,0,0,0,1.58-.8,3.26,3.26,0,0,0,.61-2.07,9.35,9.35,0,0,0-1.22-4.7A8.9,8.9,0,0,0,51.93,132a4.14,4.14,0,0,0-2.33-.67,2,2,0,0,0-1.62.95,4.15,4.15,0,0,0-.58,2.34L49.77,136a1.74,1.74,0,0,1,.61-1.58,1.49,1.49,0,0,1,1.58.17,4,4,0,0,1,1.63,1.69,5.35,5.35,0,0,1,.53,2.43c0,.94-.22,1.54-.64,1.8a1.73,1.73,0,0,1-1.74-.24l-1.45-.84v2.52l1.4.81a5.12,5.12,0,0,1,2,2,5.49,5.49,0,0,1,.66,2.7c0,1-.21,1.64-.63,1.92s-1,.21-1.74-.21a4.46,4.46,0,0,1-1.7-1.77,5,5,0,0,1-.63-2.41l-2.37-1.37a9.06,9.06,0,0,0,1.31,4.67,9.25,9.25,0,0,0,3.36,3.41q2.14,1.24,3.46.47t1.31-3.34A8.21,8.21,0,0,0,56.08,145.67Z"/></g></g></svg>