<svg xmlns="http://www.w3.org/2000/svg" xmlns:xlink="http://www.w3.org/1999/xlink" viewBox="0 0 435.14 326.78"><defs><style>.cls-1{fill:#272c34;}.cls-2,.cls-3,.cls-5{fill:#67eaec;}.cls-3{opacity:0.09;}.cls-4{fill:url(#New_Gradient_Swatch_copy);}.cls-5{opacity:0.08;}.cls-6{opacity:0.3;}.cls-7{fill:url(#linear-gradient);}.cls-8{fill:url(#linear-gradient-2);}.cls-9{fill:url(#linear-gradient-3);}.cls-10,.cls-28{fill:#424b4f;}.cls-10{opacity:0.5;}.cls-11{fill:url(#New_Gradient_Swatch);}.cls-12{fill:#f5ffff;}.cls-13{fill:url(#New_Gradient_Swatch-2);}.cls-14{fill:url(#New_Gradient_Swatch-3);}.cls-15{fill:url(#New_Gradient_Swatch-4);}.cls-16{fill:url(#New_Gradient_Swatch-5);}.cls-17{fill:url(#New_Gradient_Swatch-6);}.cls-18{fill:url(#New_Gradient_Swatch-7);}.cls-19{fill:url(#New_Gradient_Swatch-8);}.cls-20{fill:url(#New_Gradient_Swatch_copy-3);}.cls-21{fill:url(#New_Gradient_Swatch_copy-4);}.cls-22{fill:url(#New_Gradient_Swatch-9);}.cls-23{fill:url(#New_Gradient_Swatch_copy-5);}.cls-24{fill:url(#New_Gradient_Swatch_copy-6);}.cls-25{fill:url(#New_Gradient_Swatch-10);}.cls-26{fill:url(#New_Gradient_Swatch_copy-7);}.cls-27{fill:#fff;}.cls-29{fill:url(#New_Gradient_Swatch-11);}.cls-30{fill:url(#New_Gradient_Swatch-12);}.cls-31{fill:url(#New_Gradient_Swatch-13);}.cls-32{fill:url(#linear-gradient-4);}.cls-33{fill:url(#linear-gradient-5);}.cls-34{fill:url(#linear-gradient-6);}.cls-35{fill:url(#linear-gradient-7);}.cls-36{fill:url(#linear-gradient-8);}.cls-37{fill:url(#New_Gradient_Swatch-14);}.cls-38{fill:url(#New_Gradient_Swatch-15);}.cls-39{fill:url(#New_Gradient_Swatch-16);}.cls-40{fill:url(#linear-gradient-9);}.cls-41{fill:url(#linear-gradient-10);}.cls-42{fill:url(#linear-gradient-11);}.cls-43{fill:url(#linear-gradient-12);}.cls-44{fill:url(#linear-gradient-13);}.cls-45{fill:url(#New_Gradient_Swatch-17);}.cls-46{fill:url(#New_Gradient_Swatch-18);}.cls-47{fill:url(#New_Gradient_Swatch-19);}.cls-48{fill:url(#linear-gradient-14);}.cls-49{fill:url(#linear-gradient-15);}.cls-50{fill:url(#linear-gradient-16);}.cls-51{fill:url(#linear-gradient-17);}.cls-52{fill:url(#linear-gradient-18);}.cls-53{fill:url(#New_Gradient_Swatch-20);}.cls-54{fill:url(#New_Gradient_Swatch-21);}.cls-55{fill:url(#New_Gradient_Swatch-22);}.cls-56{fill:url(#linear-gradient-19);}.cls-57{fill:url(#linear-gradient-20);}.cls-58{fill:url(#linear-gradient-21);}.cls-59{fill:url(#linear-gradient-22);}.cls-60{fill:url(#linear-gradient-23);}.cls-61{fill:url(#New_Gradient_Swatch-23);}.cls-62{fill:url(#New_Gradient_Swatch-24);}.cls-63{fill:url(#New_Gradient_Swatch-25);}.cls-64{fill:url(#linear-gradient-24);}.cls-65{fill:url(#linear-gradient-25);}.cls-66{fill:url(#linear-gradient-26);}.cls-67{fill:url(#linear-gradient-27);}.cls-68{fill:url(#linear-gradient-28);}.cls-69{fill:url(#New_Gradient_Swatch-26);}.cls-70{fill:url(#New_Gradient_Swatch-27);}.cls-71{fill:url(#New_Gradient_Swatch-28);}.cls-72{fill:url(#linear-gradient-29);}.cls-73{fill:url(#linear-gradient-30);}.cls-74{fill:url(#linear-gradient-31);}.cls-75{fill:url(#linear-gradient-32);}.cls-76{fill:url(#linear-gradient-33);}.cls-77{fill:url(#New_Gradient_Swatch-29);}.cls-78{fill:url(#New_Gradient_Swatch-30);}.cls-79{fill:url(#New_Gradient_Swatch-31);}.cls-80{fill:url(#linear-gradient-34);}.cls-81{fill:url(#linear-gradient-35);}.cls-82{fill:url(#linear-gradient-36);}.cls-83{fill:url(#linear-gradient-37);}.cls-84{fill:url(#linear-gradient-38);}.cls-85{fill:url(#New_Gradient_Swatch-32);}.cls-86{fill:url(#New_Gradient_Swatch-33);}.cls-87{fill:url(#New_Gradient_Swatch-34);}.cls-88{fill:url(#linear-gradient-39);}.cls-89{fill:url(#linear-gradient-40);}.cls-90{fill:url(#linear-gradient-41);}.cls-91{fill:url(#linear-gradient-42);}.cls-92{fill:url(#linear-gradient-43);}.cls-93{fill:url(#New_Gradient_Swatch-35);}.cls-94{fill:url(#New_Gradient_Swatch-36);}.cls-95{fill:url(#New_Gradient_Swatch-37);}.cls-96{fill:url(#linear-gradient-44);}.cls-97{fill:url(#linear-gradient-45);}.cls-98{fill:url(#linear-gradient-46);}.cls-99{fill:url(#linear-gradient-47);}.cls-100{fill:url(#linear-gradient-48);}.cls-101{fill:url(#New_Gradient_Swatch-38);}.cls-102{fill:url(#New_Gradient_Swatch-39);}.cls-103{fill:url(#New_Gradient_Swatch-40);}.cls-104{fill:url(#linear-gradient-49);}.cls-105{fill:url(#linear-gradient-50);}.cls-106{fill:url(#linear-gradient-51);}.cls-107{fill:url(#linear-gradient-52);}.cls-108{fill:url(#linear-gradient-53);}.cls-109{fill:url(#New_Gradient_Swatch-41);}.cls-110{fill:url(#New_Gradient_Swatch-42);}.cls-111{fill:url(#New_Gradient_Swatch-43);}.cls-112{fill:url(#linear-gradient-54);}.cls-113{fill:url(#linear-gradient-55);}.cls-114{fill:url(#linear-gradient-56);}.cls-115{fill:url(#linear-gradient-57);}.cls-116{fill:url(#linear-gradient-58);}.cls-117{fill:url(#New_Gradient_Swatch-44);}.cls-118{fill:url(#New_Gradient_Swatch-45);}.cls-119{fill:url(#New_Gradient_Swatch-46);}.cls-120{fill:url(#linear-gradient-59);}.cls-121{fill:url(#linear-gradient-60);}.cls-122{fill:url(#linear-gradient-61);}.cls-123{fill:url(#linear-gradient-62);}.cls-124{fill:url(#linear-gradient-63);}.cls-125{fill:#57aff7;}.cls-126{fill:none;stroke:#67eaec;stroke-linecap:round;stroke-linejoin:round;stroke-width:0.99px;stroke-dasharray:3.97 4.97;}</style><linearGradient id="New_Gradient_Swatch_copy" x1="-360.45" y1="117.4" x2="-271.97" y2="117.4" gradientTransform="matrix(-1, 0, 0, 1, -37.21, 0)" gradientUnits="userSpaceOnUse"><stop offset="0" stop-color="#2e3d4a"/><stop offset="1" stop-color="#232329"/></linearGradient><linearGradient id="linear-gradient" x1="-429.32" y1="55.36" x2="-382.59" y2="55.36" gradientTransform="matrix(-1, 0, 0, 1, -37.21, 0)" gradientUnits="userSpaceOnUse"><stop offset="0" stop-color="#39e6e0"/><stop offset="1" stop-color="#232329"/></linearGradient><linearGradient id="linear-gradient-2" x1="-420.96" y1="15.3" x2="-390.95" y2="15.3" xlink:href="#linear-gradient"/><linearGradient id="linear-gradient-3" x1="2899.66" y1="-1552.99" x2="2957.34" y2="-1552.99" gradientTransform="matrix(0.5, -0.87, -0.87, -0.5, -2521.57, 1803.22)" gradientUnits="userSpaceOnUse"><stop offset="0" stop-color="#67eaec"/><stop offset="1" stop-color="#5c8ee4"/></linearGradient><linearGradient id="New_Gradient_Swatch" x1="374.08" y1="1949.11" x2="431.75" y2="1949.11" gradientTransform="matrix(-0.5, 0.87, 0.87, 0.5, -1188.61, -1274.05)" gradientUnits="userSpaceOnUse"><stop offset="0" stop-color="#5c8ee4"/><stop offset="1" stop-color="#67eaec"/></linearGradient><linearGradient id="New_Gradient_Swatch-2" x1="2244.75" y1="3002.3" x2="2259.16" y2="3027.25" gradientTransform="matrix(0.5, -0.87, -0.87, -0.5, 1784.43, 3508.87)" xlink:href="#New_Gradient_Swatch"/><linearGradient id="New_Gradient_Swatch-3" x1="-943.5" y1="563.45" x2="-905.61" y2="563.45" gradientTransform="matrix(0.58, 0.17, -1, 1.44, 1395.24, -609.62)" xlink:href="#New_Gradient_Swatch"/><linearGradient id="New_Gradient_Swatch-4" x1="-921.9" y1="558.93" x2="-917.47" y2="558.93" gradientTransform="matrix(0.58, 0.17, -1, 1.44, 1395.24, -609.62)" xlink:href="#New_Gradient_Swatch"/><linearGradient id="New_Gradient_Swatch-5" x1="-933.52" y1="565.64" x2="-929.08" y2="565.64" gradientTransform="matrix(0.58, 0.17, -1, 1.44, 1395.24, -609.62)" xlink:href="#New_Gradient_Swatch"/><linearGradient id="New_Gradient_Swatch-6" x1="-920.32" y1="561.25" x2="-915.89" y2="561.25" gradientTransform="matrix(0.58, 0.17, -1, 1.44, 1395.24, -609.62)" xlink:href="#New_Gradient_Swatch"/><linearGradient id="New_Gradient_Swatch-7" x1="-931.93" y1="567.96" x2="-927.5" y2="567.96" gradientTransform="matrix(0.58, 0.17, -1, 1.44, 1395.24, -609.62)" xlink:href="#New_Gradient_Swatch"/><linearGradient id="New_Gradient_Swatch-8" x1="28.94" y1="139.35" x2="283.06" y2="286.07" gradientTransform="matrix(1, 0, 0, 1, 0, 0)" xlink:href="#New_Gradient_Swatch"/><linearGradient id="New_Gradient_Swatch_copy-3" x1="0.3" y1="212.71" x2="311.7" y2="212.71" gradientTransform="matrix(1, 0, 0, 1, 0, 0)" xlink:href="#New_Gradient_Swatch_copy"/><linearGradient id="New_Gradient_Swatch_copy-4" x1="0.2" y1="212.21" x2="0.8" y2="212.21" gradientTransform="matrix(1, 0, 0, 1, 0, 0)" xlink:href="#New_Gradient_Swatch_copy"/><linearGradient id="New_Gradient_Swatch-9" x1="156.5" y1="302.21" x2="156.5" y2="302.21" gradientTransform="matrix(1, 0, 0, 1, 0, 0)" xlink:href="#New_Gradient_Swatch"/><linearGradient id="New_Gradient_Swatch_copy-5" x1="156.2" y1="302.21" x2="156.8" y2="302.21" gradientTransform="matrix(1, 0, 0, 1, 0, 0)" xlink:href="#New_Gradient_Swatch_copy"/><linearGradient id="New_Gradient_Swatch_copy-6" x1="311.2" y1="213.21" x2="311.8" y2="213.21" gradientTransform="matrix(1, 0, 0, 1, 0, 0)" xlink:href="#New_Gradient_Swatch_copy"/><linearGradient id="New_Gradient_Swatch-10" x1="39.33" y1="121.35" x2="272.67" y2="256.07" gradientTransform="matrix(1, 0, 0, 1, 0, 0)" xlink:href="#New_Gradient_Swatch"/><linearGradient id="New_Gradient_Swatch_copy-7" x1="0" y1="188.71" x2="312" y2="188.71" gradientTransform="matrix(1, 0, 0, 1, 0, 0)" xlink:href="#New_Gradient_Swatch_copy"/><linearGradient id="New_Gradient_Swatch-11" x1="104.81" y1="188" x2="163.7" y2="188" gradientTransform="matrix(1, 0, 0, 1, 0, 0)" xlink:href="#New_Gradient_Swatch"/><linearGradient id="New_Gradient_Swatch-12" x1="104.81" y1="177.16" x2="163.69" y2="177.16" gradientTransform="matrix(1, 0, 0, 1, 0, 0)" xlink:href="#New_Gradient_Swatch"/><linearGradient id="New_Gradient_Swatch-13" x1="158.54" y1="170.28" x2="109.96" y2="170.28" gradientTransform="matrix(1, 0, 0, 1, 0, 0)" xlink:href="#New_Gradient_Swatch"/><linearGradient id="linear-gradient-4" x1="-4594.69" y1="-268.63" x2="-4589.79" y2="-288.46" gradientTransform="matrix(-0.14, 0.58, -1.75, 0.14, -1016, 2896.04)" gradientUnits="userSpaceOnUse"><stop offset="0" stop-color="#5fa5e6"/><stop offset="1" stop-color="#67eaec"/></linearGradient><linearGradient id="linear-gradient-5" x1="-4586.63" y1="-281.46" x2="-4585.56" y2="-285.76" xlink:href="#linear-gradient-4"/><linearGradient id="linear-gradient-6" x1="-4600.19" y1="-273.63" x2="-4599.12" y2="-277.93" xlink:href="#linear-gradient-4"/><linearGradient id="linear-gradient-7" x1="-4585.63" y1="-279.24" x2="-4584.57" y2="-283.54" xlink:href="#linear-gradient-4"/><linearGradient id="linear-gradient-8" x1="-4599.19" y1="-271.41" x2="-4598.13" y2="-275.71" xlink:href="#linear-gradient-4"/><linearGradient id="New_Gradient_Swatch-14" x1="104.81" y1="183.31" x2="163.7" y2="183.31" gradientTransform="matrix(1, 0, 0, 1, 0, 0)" xlink:href="#New_Gradient_Swatch"/><linearGradient id="New_Gradient_Swatch-15" x1="104.81" y1="172.47" x2="163.69" y2="172.47" gradientTransform="matrix(1, 0, 0, 1, 0, 0)" xlink:href="#New_Gradient_Swatch"/><linearGradient id="New_Gradient_Swatch-16" x1="158.54" y1="165.6" x2="109.96" y2="165.6" gradientTransform="matrix(1, 0, 0, 1, 0, 0)" xlink:href="#New_Gradient_Swatch"/><linearGradient id="linear-gradient-9" x1="-4602.89" y1="-267.96" x2="-4597.98" y2="-287.79" xlink:href="#linear-gradient-4"/><linearGradient id="linear-gradient-10" x1="-4594.82" y1="-280.78" x2="-4593.76" y2="-285.09" xlink:href="#linear-gradient-4"/><linearGradient id="linear-gradient-11" x1="-4608.39" y1="-272.95" x2="-4607.32" y2="-277.26" xlink:href="#linear-gradient-4"/><linearGradient id="linear-gradient-12" x1="-4593.83" y1="-278.56" x2="-4592.76" y2="-282.87" xlink:href="#linear-gradient-4"/><linearGradient id="linear-gradient-13" x1="-4607.39" y1="-270.73" x2="-4606.32" y2="-275.04" xlink:href="#linear-gradient-4"/><linearGradient id="New_Gradient_Swatch-17" x1="104.81" y1="178.63" x2="163.7" y2="178.63" gradientTransform="matrix(1, 0, 0, 1, 0, 0)" xlink:href="#New_Gradient_Swatch"/><linearGradient id="New_Gradient_Swatch-18" x1="104.81" y1="167.79" x2="163.69" y2="167.79" gradientTransform="matrix(1, 0, 0, 1, 0, 0)" xlink:href="#New_Gradient_Swatch"/><linearGradient id="New_Gradient_Swatch-19" x1="158.54" y1="160.92" x2="109.96" y2="160.92" gradientTransform="matrix(1, 0, 0, 1, 0, 0)" xlink:href="#New_Gradient_Swatch"/><linearGradient id="linear-gradient-14" x1="-4611.09" y1="-267.28" x2="-4606.18" y2="-287.11" xlink:href="#linear-gradient-4"/><linearGradient id="linear-gradient-15" x1="-4603.02" y1="-280.1" x2="-4601.95" y2="-284.41" xlink:href="#linear-gradient-4"/><linearGradient id="linear-gradient-16" x1="-4616.58" y1="-272.27" x2="-4615.52" y2="-276.58" xlink:href="#linear-gradient-4"/><linearGradient id="linear-gradient-17" x1="-4602.03" y1="-277.89" x2="-4600.96" y2="-282.19" xlink:href="#linear-gradient-4"/><linearGradient id="linear-gradient-18" x1="-4615.59" y1="-270.06" x2="-4614.52" y2="-274.36" xlink:href="#linear-gradient-4"/><linearGradient id="New_Gradient_Swatch-20" x1="104.81" y1="173.95" x2="163.7" y2="173.95" gradientTransform="matrix(1, 0, 0, 1, 0, 0)" xlink:href="#New_Gradient_Swatch"/><linearGradient id="New_Gradient_Swatch-21" x1="104.81" y1="163.11" x2="163.69" y2="163.11" gradientTransform="matrix(1, 0, 0, 1, 0, 0)" xlink:href="#New_Gradient_Swatch"/><linearGradient id="New_Gradient_Swatch-22" x1="158.54" y1="156.23" x2="109.96" y2="156.23" gradientTransform="matrix(1, 0, 0, 1, 0, 0)" xlink:href="#New_Gradient_Swatch"/><linearGradient id="linear-gradient-19" x1="-4619.28" y1="-266.6" x2="-4614.38" y2="-286.44" xlink:href="#linear-gradient-4"/><linearGradient id="linear-gradient-20" x1="-4611.22" y1="-279.43" x2="-4610.15" y2="-283.74" xlink:href="#linear-gradient-4"/><linearGradient id="linear-gradient-21" x1="-4624.78" y1="-271.6" x2="-4623.71" y2="-275.91" xlink:href="#linear-gradient-4"/><linearGradient id="linear-gradient-22" x1="-4610.22" y1="-277.21" x2="-4609.16" y2="-281.51" xlink:href="#linear-gradient-4"/><linearGradient id="linear-gradient-23" x1="-4623.78" y1="-269.38" x2="-4622.72" y2="-273.68" xlink:href="#linear-gradient-4"/><linearGradient id="New_Gradient_Swatch-23" x1="104.81" y1="169.29" x2="163.7" y2="169.29" gradientTransform="matrix(1, 0, 0, 1, 0, 0)" xlink:href="#New_Gradient_Swatch"/><linearGradient id="New_Gradient_Swatch-24" x1="104.81" y1="158.45" x2="163.69" y2="158.45" gradientTransform="matrix(1, 0, 0, 1, 0, 0)" xlink:href="#New_Gradient_Swatch"/><linearGradient id="New_Gradient_Swatch-25" x1="158.54" y1="151.57" x2="109.96" y2="151.57" gradientTransform="matrix(1, 0, 0, 1, 0, 0)" xlink:href="#New_Gradient_Swatch"/><linearGradient id="linear-gradient-24" x1="-4627.44" y1="-265.93" x2="-4622.53" y2="-285.76" xlink:href="#linear-gradient-4"/><linearGradient id="linear-gradient-25" x1="-4619.37" y1="-278.76" x2="-4618.31" y2="-283.06" xlink:href="#linear-gradient-4"/><linearGradient id="linear-gradient-26" x1="-4632.93" y1="-270.93" x2="-4631.87" y2="-275.23" xlink:href="#linear-gradient-4"/><linearGradient id="linear-gradient-27" x1="-4618.38" y1="-276.54" x2="-4617.31" y2="-280.84" xlink:href="#linear-gradient-4"/><linearGradient id="linear-gradient-28" x1="-4631.94" y1="-268.71" x2="-4630.87" y2="-273.01" xlink:href="#linear-gradient-4"/><linearGradient id="New_Gradient_Swatch-26" x1="148.51" y1="211.08" x2="207.39" y2="211.08" gradientTransform="matrix(1, 0, 0, 1, 0, 0)" xlink:href="#New_Gradient_Swatch"/><linearGradient id="New_Gradient_Swatch-27" x1="148.51" y1="200.24" x2="207.39" y2="200.24" gradientTransform="matrix(1, 0, 0, 1, 0, 0)" xlink:href="#New_Gradient_Swatch"/><linearGradient id="New_Gradient_Swatch-28" x1="202.24" y1="193.37" x2="153.66" y2="193.37" gradientTransform="matrix(1, 0, 0, 1, 0, 0)" xlink:href="#New_Gradient_Swatch"/><linearGradient id="linear-gradient-29" x1="-4547.99" y1="-297.45" x2="-4543.08" y2="-317.28" xlink:href="#linear-gradient-4"/><linearGradient id="linear-gradient-30" x1="-4539.92" y1="-310.28" x2="-4538.86" y2="-314.58" xlink:href="#linear-gradient-4"/><linearGradient id="linear-gradient-31" x1="-4553.48" y1="-302.45" x2="-4552.42" y2="-306.75" xlink:href="#linear-gradient-4"/><linearGradient id="linear-gradient-32" x1="-4538.93" y1="-308.06" x2="-4537.86" y2="-312.36" xlink:href="#linear-gradient-4"/><linearGradient id="linear-gradient-33" x1="-4552.49" y1="-300.23" x2="-4551.42" y2="-304.53" xlink:href="#linear-gradient-4"/><linearGradient id="New_Gradient_Swatch-29" x1="148.51" y1="206.4" x2="207.39" y2="206.4" gradientTransform="matrix(1, 0, 0, 1, 0, 0)" xlink:href="#New_Gradient_Swatch"/><linearGradient id="New_Gradient_Swatch-30" x1="148.51" y1="195.56" x2="207.39" y2="195.56" gradientTransform="matrix(1, 0, 0, 1, 0, 0)" xlink:href="#New_Gradient_Swatch"/><linearGradient id="New_Gradient_Swatch-31" x1="202.24" y1="188.69" x2="153.66" y2="188.69" gradientTransform="matrix(1, 0, 0, 1, 0, 0)" xlink:href="#New_Gradient_Swatch"/><linearGradient id="linear-gradient-34" x1="-4556.18" y1="-296.78" x2="-4551.28" y2="-316.61" xlink:href="#linear-gradient-4"/><linearGradient id="linear-gradient-35" x1="-4548.12" y1="-309.6" x2="-4547.05" y2="-313.91" xlink:href="#linear-gradient-4"/><linearGradient id="linear-gradient-36" x1="-4561.68" y1="-301.77" x2="-4560.61" y2="-306.08" xlink:href="#linear-gradient-4"/><linearGradient id="linear-gradient-37" x1="-4547.12" y1="-307.38" x2="-4546.06" y2="-311.69" xlink:href="#linear-gradient-4"/><linearGradient id="linear-gradient-38" x1="-4560.68" y1="-299.55" x2="-4559.62" y2="-303.86" xlink:href="#linear-gradient-4"/><linearGradient id="New_Gradient_Swatch-32" x1="148.51" y1="201.72" x2="207.39" y2="201.72" gradientTransform="matrix(1, 0, 0, 1, 0, 0)" xlink:href="#New_Gradient_Swatch"/><linearGradient id="New_Gradient_Swatch-33" x1="148.51" y1="190.87" x2="207.39" y2="190.87" gradientTransform="matrix(1, 0, 0, 1, 0, 0)" xlink:href="#New_Gradient_Swatch"/><linearGradient id="New_Gradient_Swatch-34" x1="202.24" y1="184" x2="153.66" y2="184" gradientTransform="matrix(1, 0, 0, 1, 0, 0)" xlink:href="#New_Gradient_Swatch"/><linearGradient id="linear-gradient-39" x1="-4564.38" y1="-296.1" x2="-4559.47" y2="-315.93" xlink:href="#linear-gradient-4"/><linearGradient id="linear-gradient-40" x1="-4556.31" y1="-308.92" x2="-4555.25" y2="-313.23" xlink:href="#linear-gradient-4"/><linearGradient id="linear-gradient-41" x1="-4569.88" y1="-301.1" x2="-4568.81" y2="-305.4" xlink:href="#linear-gradient-4"/><linearGradient id="linear-gradient-42" x1="-4555.32" y1="-306.71" x2="-4554.25" y2="-311.01" xlink:href="#linear-gradient-4"/><linearGradient id="linear-gradient-43" x1="-4568.88" y1="-298.88" x2="-4567.81" y2="-303.18" xlink:href="#linear-gradient-4"/><linearGradient id="New_Gradient_Swatch-35" x1="148.51" y1="197.03" x2="207.39" y2="197.03" gradientTransform="matrix(1, 0, 0, 1, 0, 0)" xlink:href="#New_Gradient_Swatch"/><linearGradient id="New_Gradient_Swatch-36" x1="148.51" y1="186.19" x2="207.39" y2="186.19" gradientTransform="matrix(1, 0, 0, 1, 0, 0)" xlink:href="#New_Gradient_Swatch"/><linearGradient id="New_Gradient_Swatch-37" x1="202.24" y1="179.32" x2="153.66" y2="179.32" gradientTransform="matrix(1, 0, 0, 1, 0, 0)" xlink:href="#New_Gradient_Swatch"/><linearGradient id="linear-gradient-44" x1="-4572.58" y1="-295.42" x2="-4567.67" y2="-315.26" xlink:href="#linear-gradient-4"/><linearGradient id="linear-gradient-45" x1="-4564.51" y1="-308.25" x2="-4563.45" y2="-312.56" xlink:href="#linear-gradient-4"/><linearGradient id="linear-gradient-46" x1="-4578.07" y1="-300.42" x2="-4577.01" y2="-304.73" xlink:href="#linear-gradient-4"/><linearGradient id="linear-gradient-47" x1="-4563.52" y1="-306.03" x2="-4562.45" y2="-310.33" xlink:href="#linear-gradient-4"/><linearGradient id="linear-gradient-48" x1="-4577.08" y1="-298.2" x2="-4576.01" y2="-302.5" xlink:href="#linear-gradient-4"/><linearGradient id="New_Gradient_Swatch-38" x1="148.51" y1="192.37" x2="207.39" y2="192.37" gradientTransform="matrix(1, 0, 0, 1, 0, 0)" xlink:href="#New_Gradient_Swatch"/><linearGradient id="New_Gradient_Swatch-39" x1="148.51" y1="181.53" x2="207.39" y2="181.53" gradientTransform="matrix(1, 0, 0, 1, 0, 0)" xlink:href="#New_Gradient_Swatch"/><linearGradient id="New_Gradient_Swatch-40" x1="202.24" y1="174.66" x2="153.66" y2="174.66" gradientTransform="matrix(1, 0, 0, 1, 0, 0)" xlink:href="#New_Gradient_Swatch"/><linearGradient id="linear-gradient-49" x1="-4580.73" y1="-294.75" x2="-4575.82" y2="-314.58" xlink:href="#linear-gradient-4"/><linearGradient id="linear-gradient-50" x1="-4572.66" y1="-307.58" x2="-4571.6" y2="-311.88" xlink:href="#linear-gradient-4"/><linearGradient id="linear-gradient-51" x1="-4586.23" y1="-299.75" x2="-4585.16" y2="-304.05" xlink:href="#linear-gradient-4"/><linearGradient id="linear-gradient-52" x1="-4571.67" y1="-305.36" x2="-4570.6" y2="-309.66" xlink:href="#linear-gradient-4"/><linearGradient id="linear-gradient-53" x1="-4585.23" y1="-297.53" x2="-4584.17" y2="-301.83" xlink:href="#linear-gradient-4"/><linearGradient id="New_Gradient_Swatch-41" x1="148.51" y1="187.69" x2="207.39" y2="187.69" gradientTransform="matrix(1, 0, 0, 1, 0, 0)" xlink:href="#New_Gradient_Swatch"/><linearGradient id="New_Gradient_Swatch-42" x1="148.51" y1="176.85" x2="207.39" y2="176.85" gradientTransform="matrix(1, 0, 0, 1, 0, 0)" xlink:href="#New_Gradient_Swatch"/><linearGradient id="New_Gradient_Swatch-43" x1="202.24" y1="169.98" x2="153.66" y2="169.98" gradientTransform="matrix(1, 0, 0, 1, 0, 0)" xlink:href="#New_Gradient_Swatch"/><linearGradient id="linear-gradient-54" x1="-4588.93" y1="-294.08" x2="-4584.02" y2="-313.91" xlink:href="#linear-gradient-4"/><linearGradient id="linear-gradient-55" x1="-4580.86" y1="-306.9" x2="-4579.8" y2="-311.21" xlink:href="#linear-gradient-4"/><linearGradient id="linear-gradient-56" x1="-4594.42" y1="-299.07" x2="-4593.36" y2="-303.38" xlink:href="#linear-gradient-4"/><linearGradient id="linear-gradient-57" x1="-4579.87" y1="-304.68" x2="-4578.8" y2="-308.99" xlink:href="#linear-gradient-4"/><linearGradient id="linear-gradient-58" x1="-4593.43" y1="-296.85" x2="-4592.36" y2="-301.16" xlink:href="#linear-gradient-4"/><linearGradient id="New_Gradient_Swatch-44" x1="148.51" y1="183.01" x2="207.39" y2="183.01" gradientTransform="matrix(1, 0, 0, 1, 0, 0)" xlink:href="#New_Gradient_Swatch"/><linearGradient id="New_Gradient_Swatch-45" x1="148.51" y1="172.16" x2="207.39" y2="172.16" gradientTransform="matrix(1, 0, 0, 1, 0, 0)" xlink:href="#New_Gradient_Swatch"/><linearGradient id="New_Gradient_Swatch-46" x1="202.24" y1="165.29" x2="153.66" y2="165.29" gradientTransform="matrix(1, 0, 0, 1, 0, 0)" xlink:href="#New_Gradient_Swatch"/><linearGradient id="linear-gradient-59" x1="-4597.12" y1="-293.4" x2="-4592.22" y2="-313.23" xlink:href="#linear-gradient-4"/><linearGradient id="linear-gradient-60" x1="-4589.06" y1="-306.22" x2="-4587.99" y2="-310.53" xlink:href="#linear-gradient-4"/><linearGradient id="linear-gradient-61" x1="-4602.62" y1="-298.39" x2="-4601.55" y2="-302.7" xlink:href="#linear-gradient-4"/><linearGradient id="linear-gradient-62" x1="-4588.06" y1="-304.01" x2="-4587" y2="-308.31" xlink:href="#linear-gradient-4"/><linearGradient id="linear-gradient-63" x1="-4601.62" y1="-296.18" x2="-4600.56" y2="-300.48" xlink:href="#linear-gradient-4"/></defs><title>05_mobile</title><g id="Layer_2" data-name="Layer 2"><g id="ilus"><path class="cls-1" d="M321.85,37.73c-25.72,14.85-25.57,39,.33,54s67.75,15,93.47.19,25.57-39-.33-54S347.57,22.88,321.85,37.73Z"/><path class="cls-2" d="M369.21,103.24c-17.06,0-34.15-3.77-47.18-11.29-12.68-7.32-19.67-17.06-19.67-27.41s6.87-19.87,19.34-27.07c25.76-14.87,67.82-14.79,93.77.19,12.68,7.32,19.67,17.06,19.67,27.41s-6.87,19.87-19.34,27.07C403,99.54,386.11,103.24,369.21,103.24ZM321.85,37.73,322,38c-12.28,7.09-19,16.52-19,26.55s6.88,19.68,19.37,26.89c25.78,14.88,67.57,15,93.17.19,12.28-7.09,19-16.52,19-26.55s-6.88-19.68-19.37-26.9C389.39,23.29,347.6,23.21,322,38Z"/><path class="cls-1" d="M302.69,65.3c-.34-10,6-20,19.16-27.57,25.72-14.85,67.57-14.77,93.47.19,13.11,7.57,19.61,17.5,19.51,27.38,0,0-.16,14.88,0,23,.2,9.87-6.19,19.75-19.18,27.25-25.72,14.85-67.57,14.77-93.47-.19-13-7.49-19.48-17.28-19.52-27.06C302.62,80.18,302.69,65.3,302.69,65.3Z"/><path class="cls-2" d="M369.21,126.91c-17.06,0-34.15-3.76-47.18-11.29-12.64-7.3-19.62-17-19.67-27.32,0-8,0-22.64,0-23-.36-10.55,6.5-20.44,19.31-27.84,25.76-14.87,67.82-14.79,93.77.19,12.79,7.38,19.77,17.2,19.66,27.65,0,.15-.16,15,0,23,.21,10.43-6.66,20.2-19.33,27.51S386.11,126.91,369.21,126.91ZM368.28,27c-16.79,0-33.54,3.67-46.28,11s-19.37,17-19,27.3h0c0,.15-.06,15,0,23,0,10.1,6.92,19.62,19.37,26.8,25.78,14.88,67.57,15,93.17.19,12.47-7.2,19.23-16.78,19-27-.16-8,0-22.86,0-23,.11-10.22-6.77-19.85-19.36-27.12C402.22,30.7,385.23,27,368.28,27Z"/><path class="cls-3" d="M302.69,65.3c-.34-10,6-20,19.16-27.57,25.72-14.85,67.57-14.77,93.47.19,13.11,7.57,19.61,17.5,19.51,27.38,0,0-.16,14.88,0,23,.2,9.87-6.19,19.75-19.18,27.25-25.72,14.85-67.57,14.77-93.47-.19-13-7.49-19.48-17.28-19.52-27.06C302.62,80.18,302.69,65.3,302.69,65.3Z"/><polygon class="cls-1" points="233.25 167.8 323.25 115.8 323.25 91.8 233.25 143.8 233.25 167.8"/><path class="cls-2" d="M233.25,168.1a.3.3,0,0,1-.3-.3v-24a.3.3,0,0,1,.15-.26l90-52a.3.3,0,0,1,.45.26v24a.3.3,0,0,1-.15.26l-90,52A.3.3,0,0,1,233.25,168.1Zm.3-24.13v23.31l89.4-51.65V92.32Z"/><polygon class="cls-3" points="233.25 167.8 323.25 115.8 323.25 91.8 233.25 143.8 233.25 167.8"/><path class="cls-1" d="M321.85,37.73c-25.72,14.85-25.57,39,.33,54s67.75,15,93.47.19,25.57-39-.33-54S347.57,22.88,321.85,37.73Z"/><path class="cls-2" d="M369.21,103.24c-17.06,0-34.15-3.77-47.18-11.29-12.68-7.32-19.67-17.06-19.67-27.41s6.87-19.87,19.34-27.07c25.76-14.87,67.82-14.79,93.77.19,12.68,7.32,19.67,17.06,19.67,27.41s-6.87,19.87-19.34,27.07C403,99.54,386.11,103.24,369.21,103.24ZM321.85,37.73,322,38c-12.28,7.09-19,16.52-19,26.55s6.88,19.68,19.37,26.89c25.78,14.88,67.57,15,93.17.19,12.28-7.09,19-16.52,19-26.55s-6.88-19.68-19.37-26.9C389.39,23.29,347.6,23.21,322,38Z"/><line class="cls-4" x1="323.25" y1="91.8" x2="234.76" y2="142.99"/><path class="cls-2" d="M234.76,143.29a.3.3,0,0,1-.15-.56L323.1,91.54a.3.3,0,1,1,.3.52l-88.49,51.19A.3.3,0,0,1,234.76,143.29Z"/><path class="cls-2" d="M233.53,144l6-9,.69.32a7.18,7.18,0,0,1,4.16,7.2l-.07.76Z"/><polygon class="cls-1" points="233.25 167.8 323.25 115.8 323.25 91.8 233.25 143.8 233.25 167.8"/><path class="cls-2" d="M233.25,168.1a.3.3,0,0,1-.3-.3v-24a.3.3,0,0,1,.15-.26l90-52a.3.3,0,0,1,.45.26v24a.3.3,0,0,1-.15.26l-90,52A.3.3,0,0,1,233.25,168.1Zm.3-24.13v23.31l89.4-51.65V92.32Z"/><polygon class="cls-5" points="233.25 167.8 323.25 115.8 323.25 91.8 233.25 143.8 233.25 167.8"/><line class="cls-4" x1="323.25" y1="91.8" x2="234.76" y2="142.99"/><path class="cls-2" d="M234.76,143.29a.3.3,0,0,1-.15-.56L323.1,91.54a.3.3,0,1,1,.3.52l-88.49,51.19A.3.3,0,0,1,234.76,143.29Z"/><path class="cls-2" d="M233.53,144l6-9,.69.32a7.18,7.18,0,0,1,4.16,7.2l-.07.76Z"/><path class="cls-1" d="M356.29,34.05a19.54,19.54,0,0,0,24.92,0c0-.2,10.88,29,10.91,29.13h0c0,3.46-2.22,6.93-6.79,9.56-9.09,5.25-23.87,5.22-33-.06-4.55-2.63-6.85-6.07-6.89-9.5h0C345.41,63,356.25,33.86,356.29,34.05Z"/><path class="cls-2" d="M368.91,77c-6.06,0-12.13-1.34-16.76-4-4.45-2.57-6.95-6-7-9.65a.27.27,0,0,1,0-.17c0-.15,4.05-11,5.43-14.67,5.48-14.7,5.48-14.7,5.76-14.7a.31.31,0,0,1,.21.08,19.24,19.24,0,0,0,24.51,0,.4.4,0,0,1,.21-.08c.28,0,.28,0,5.76,14.7,1.38,3.71,5.41,14.52,5.43,14.67a.29.29,0,0,1,0,.09c0,3.72-2.44,7.19-6.93,9.79S374.92,77,368.91,77Zm-23.2-13.8v0c0,3.48,2.43,6.76,6.74,9.25,9,5.23,23.73,5.25,32.72.06,4.3-2.48,6.66-5.77,6.64-9.27-.29-.8-9.4-25.36-10.71-28.66a19.95,19.95,0,0,1-24.7,0C355.11,37.78,346.4,61.28,345.71,63.15Z"/><circle class="cls-1" cx="368.75" cy="15.3" r="15"/><path class="cls-2" d="M368.75,30.61a15.3,15.3,0,1,1,15.3-15.31A15.32,15.32,0,0,1,368.75,30.61Zm0-30A14.71,14.71,0,1,0,383.45,15.3,14.72,14.72,0,0,0,368.75.6Z"/><g class="cls-6"><path class="cls-7" d="M356.29,34.05a19.54,19.54,0,0,0,24.92,0c0-.2,10.88,29,10.91,29.13h0c0,3.46-2.22,6.93-6.79,9.56-9.09,5.25-23.87,5.22-33-.06-4.55-2.63-6.85-6.07-6.89-9.5h0C345.41,63,356.25,33.86,356.29,34.05Z"/><circle class="cls-8" cx="368.75" cy="15.3" r="15"/></g><path class="cls-9" d="M282.39,73.84s-3.06-1.8-3.86-2.23c-3.8-2.07-6.15-6.65-6.15-13.22,0-13,9.16-28.75,20.46-35.27,5.65-3.26,10.77-3.59,14.47-1.48,1.24.71,3.92,2.26,3.92,2.26Z"/><path class="cls-10" d="M282.44,74l-.11-.06s-3.07-1.8-3.86-2.23c-4-2.18-6.22-6.92-6.22-13.33,0-13,9.21-28.85,20.52-35.38,5.51-3.18,10.69-3.7,14.59-1.48,1.23.7,3.9,2.25,3.92,2.27l.11.06-.06.11ZM302,20.42a18.58,18.58,0,0,0-9.12,2.8c-11.25,6.49-20.4,22.27-20.4,35.17,0,6.31,2.16,11,6.09,13.11.71.39,3.21,1.85,3.76,2.17l28.71-49.73-3.81-2.2A10.42,10.42,0,0,0,302,20.42Z"/><path class="cls-11" d="M277.45,61.25c0-13,9.16-28.75,20.46-35.27s20.46-1.31,20.46,11.65-9.16,28.75-20.46,35.27S277.45,74.21,277.45,61.25Z"/><path class="cls-10" d="M288.73,75.85a10.64,10.64,0,0,1-5.39-1.39c-3.87-2.24-6-6.93-6-13.21,0-13,9.21-28.85,20.52-35.38,5.53-3.19,10.73-3.71,14.64-1.45s6,6.93,6,13.21c0,13-9.21,28.85-20.52,35.38A18.84,18.84,0,0,1,288.73,75.85ZM307.1,23.28a18.58,18.58,0,0,0-9.12,2.8c-11.25,6.49-20.4,22.27-20.4,35.17,0,6.19,2.09,10.8,5.88,13s8.94,1.7,14.39-1.45c11.25-6.49,20.4-22.27,20.4-35.17,0-6.19-2.09-10.8-5.88-13A10.4,10.4,0,0,0,307.1,23.28Z"/><path class="cls-12" d="M314.8,39.69c0,10.69-7.56,23.73-16.88,29.11S281,69.88,281,59.19s7.56-23.73,16.88-29.11S314.8,29,314.8,39.69Z"/><path class="cls-10" d="M290.33,71.25a8.81,8.81,0,0,1-4.46-1.15c-3.2-1.85-5-5.73-5-10.92,0-10.72,7.6-23.82,16.95-29.22,4.57-2.64,8.87-3.07,12.11-1.2s5,5.73,5,10.92c0,10.72-7.6,23.82-16.95,29.22A15.56,15.56,0,0,1,290.33,71.25ZM305.5,27.88A15.31,15.31,0,0,0,298,30.19c-9.28,5.35-16.82,18.37-16.82,29,0,5.1,1.72,8.9,4.84,10.7s7.36,1.4,11.86-1.2c9.28-5.35,16.82-18.37,16.82-29,0-5.1-1.72-8.9-4.84-10.7A8.56,8.56,0,0,0,305.5,27.88Z"/><path class="cls-13" d="M297.91,68.8c-4.76,2.75-9.06,3-12.13,1.1,3,1.62,7.17,1.31,11.74-1.33,9.33-5.38,16.88-18.42,16.88-29.11,0-5.23-1.81-8.93-4.75-10.71,3.17,1.69,5.15,5.48,5.15,10.94C314.8,50.38,307.24,63.42,297.91,68.8Z"/><path class="cls-10" d="M290.34,71.25A8.77,8.77,0,0,1,285.72,70l.12-.22c3.13,1.66,7.25,1.19,11.62-1.33,9.28-5.36,16.82-18.37,16.82-29,0-5-1.67-8.77-4.69-10.61l.12-.22c3.36,1.79,5.22,5.71,5.22,11.05,0,10.72-7.6,23.82-16.95,29.22A15.54,15.54,0,0,1,290.34,71.25Zm22.68-39a15.72,15.72,0,0,1,1.51,7.17c0,10.72-7.6,23.82-16.95,29.22a16.16,16.16,0,0,1-7,2.31,15.55,15.55,0,0,0,7.23-2.31h0c9.28-5.35,16.82-18.37,16.82-29A15.14,15.14,0,0,0,313,32.29Z"/><polygon class="cls-14" points="304.11 39.1 306.54 32.88 289.67 42.62 289.67 47.43 298.61 42.27 289.28 66.18 294.79 63 306.48 56.26 306.48 51.42 297.22 56.76 304.11 39.1"/><path class="cls-10" d="M289,66.47l.13-.33,9.2-23.58-8.82,5.09v-5.1l17.24-10-2.56,6.55-6.75,17.33,9.13-5.27v5.13ZM298.86,42l-.13.33-9.2,23.58,16.82-9.71V51.63L297,57l.13-.33,9.18-23.54L289.8,42.69v4.52Z"/><polygon class="cls-15" points="306.81 43.92 307.74 41.52 303.84 43.77 302.9 46.18 306.81 43.92"/><path class="cls-10" d="M302.65,46.46l1.08-2.78L308,41.23,306.91,44Zm1.29-2.61-.79,2,3.56-2.06.79-2Z"/><polygon class="cls-16" points="294.33 49.26 290.43 51.51 289.49 53.92 293.4 51.66 294.33 49.26"/><path class="cls-10" d="M289.25,54.2l1.08-2.78L294.58,49l-1.08,2.78Zm1.29-2.61-.79,2,3.56-2.06.79-2Z"/><polygon class="cls-17" points="306.33 45.14 302.43 47.39 301.49 49.79 305.4 47.53 306.33 45.14"/><path class="cls-10" d="M301.25,50.07l1.08-2.77,4.25-2.46-1.08,2.77Zm1.28-2.59-.79,2,3.56-2.06.79-2Z"/><polygon class="cls-18" points="289.02 55.13 288.08 57.53 291.99 55.27 292.93 52.88 289.02 55.13"/><path class="cls-10" d="M287.84,57.81,288.92,55l4.25-2.46-1.08,2.77Zm1.28-2.59-.79,2,3.56-2.06.79-2Z"/><polygon class="cls-19" points="311.4 188.99 155.51 98.99 0.6 188.43 0.6 236.43 156.48 326.43 311.4 236.99 311.4 188.99"/><path class="cls-20" d="M156.48,326.78l-.15-.09L.3,236.6V188.26l.15-.09L155.51,98.65l.15.09,156,90.09v48.35l-.15.09ZM.9,236.26l155.58,89.83L311.1,236.82V189.17L155.51,99.34.9,188.6Z"/><path class="cls-21" d="M.5,236.51a.3.3,0,0,1-.3-.3v-48a.3.3,0,0,1,.6,0v48A.3.3,0,0,1,.5,236.51Z"/><line class="cls-22" x1="156.5" y1="278.21" x2="156.5" y2="326.21"/><rect class="cls-23" x="156.2" y="278.21" width="0.6" height="48"/><path class="cls-24" d="M311.5,237.51a.3.3,0,0,1-.3-.3v-48a.3.3,0,0,1,.6,0v48A.3.3,0,0,1,311.5,237.51Z"/><polygon class="cls-25" points="156.48 278.43 0.6 188.43 155.51 98.99 311.4 188.99 156.48 278.43"/><path class="cls-26" d="M156.48,278.78l-.15-.09L0,188.43l.45-.26L155.51,98.65l.15.09L312,189l-.45.26ZM1.2,188.43l155.29,89.65L310.8,189,155.51,99.34Z"/><path class="cls-27" d="M121.06,174.95l2.14-1.23,14,8.06L135,183Z"/><path class="cls-27" d="M146,189.3q-4-2.33-3.42-5.43t4.78-5.51a21.66,21.66,0,0,1,9.54-2.76,16.27,16.27,0,0,1,9.41,2q4,2.31,3.4,5.42t-4.76,5.52a21.59,21.59,0,0,1-9.56,2.75A16.3,16.3,0,0,1,146,189.3Zm-.07-5.33q-.75,2.43,2.17,4.12a11.58,11.58,0,0,0,7.13,1.25,18.17,18.17,0,0,0,7.3-2.22,7.73,7.73,0,0,0,3.84-4.22q.75-2.43-2.17-4.12a11.58,11.58,0,0,0-7.13-1.25,18.17,18.17,0,0,0-7.3,2.22A7.73,7.73,0,0,0,145.89,184Z"/><path class="cls-27" d="M166.78,201.32q-3.46-2-4-4.07t2.7-4l2.3,1.33q-2.48,1.43-1.84,2.88t3.4,3a10.06,10.06,0,0,0,4.18,1.31,6.9,6.9,0,0,0,4.17-.9q1.49-.86,1.12-2.06a5.68,5.68,0,0,0-1.76-2.45q-1.39-1.24-2.67-2.51a4,4,0,0,1-1.35-2.66q-.07-1.38,1.92-2.53a9.53,9.53,0,0,1,6-1.12,16,16,0,0,1,6.17,2q3,1.75,3.68,3.55t-1.65,3.48l-2.23-1.29q2.55-2.14-1.71-4.6a11,11,0,0,0-3.91-1.36,5.69,5.69,0,0,0-3.79.66q-1.3.75-.81,1.89a7.26,7.26,0,0,0,1.83,2.38q1.35,1.24,2.6,2.56a4,4,0,0,1,1.26,2.73q0,1.41-1.94,2.54a10.88,10.88,0,0,1-6.79,1.48A17.55,17.55,0,0,1,166.78,201.32Z"/><polygon class="cls-28" points="18.68 225.83 16.47 214.67 14.07 213.28 17.66 229.18 19.68 230.34 23.24 218.58 20.85 217.2 18.68 225.83"/><polygon class="cls-28" points="27.05 218.6 27.05 221.21 30.45 221.61 30.45 236.56 32.75 237.89 32.75 219.22 32.45 219.05 27.05 218.6"/><path class="cls-28" d="M41.1,239.44c-.42-.25-.75-.27-1-.08a1.27,1.27,0,0,0-.35,1,3,3,0,0,0,.36,1.42,2.54,2.54,0,0,0,1,1c.43.25.76.28,1,.1a1.22,1.22,0,0,0,.35-1,3.14,3.14,0,0,0-.35-1.44A2.52,2.52,0,0,0,41.1,239.44Z"/><path class="cls-28" d="M54.73,243.95V232l-2.39-1.38-6,9.12.07,1.93,6,3.46v4.14l2.31,1.33v-4.14l1.72,1v-2.49Zm-2.31-1.33-3.63-2.1,3.45-5.37.17-.31Z"/><path class="cls-29" d="M104.81,177.16s0,3.63,0,4.56c-.11,4.41,2.74,8.83,8.55,12.19,11.46,6.61,30.1,6.58,41.63-.08,5.77-3.33,8.67-7.69,8.7-12,0-1.46,0-4.62,0-4.62Z"/><path class="cls-10" d="M134,199c-7.53,0-15-1.65-20.75-4.94s-8.72-7.64-8.61-12.3c0-.92,0-4.52,0-4.55V177h59.13v.12s0,3.18,0,4.62c0,4.59-3.14,8.9-8.76,12.14C149.26,197.28,141.64,199,134,199Zm-29.11-21.67c0,.65,0,3.61,0,4.43-.11,4.56,2.9,8.85,8.48,12.07,11.4,6.58,30,6.55,41.51-.08,5.54-3.2,8.61-7.43,8.63-11.93,0-1.28,0-3.9,0-4.5Z"/><path class="cls-30" d="M155.14,165.1c-11.46-6.61-30.1-6.58-41.63.08s-11.6,17.42-.15,24,30.1,6.58,41.63-.08S166.6,171.71,155.14,165.1Z"/><path class="cls-10" d="M134,194.27c-7.53,0-15-1.65-20.75-4.94-5.55-3.21-8.61-7.49-8.61-12.05s3.11-8.94,8.76-12.2c11.55-6.67,30.29-6.71,41.76-.08,5.55,3.21,8.61,7.49,8.61,12.05s-3.11,8.94-8.76,12.2C149.26,192.59,141.64,194.27,134,194.27Zm.41-34c-7.55,0-15.12,1.67-20.89,5-5.57,3.21-8.63,7.47-8.63,12s3,8.67,8.49,11.83c11.4,6.58,30,6.55,41.51-.08,5.57-3.21,8.63-7.47,8.63-12s-3-8.67-8.49-11.83h0C149.4,161.93,141.94,160.29,134.46,160.29Z"/><path class="cls-12" d="M151.49,167.2c-9.45-5.46-24.84-5.43-34.36.07s-9.57,14.38-.12,19.84,24.84,5.43,34.36-.07S160.95,172.66,151.49,167.2Z"/><path class="cls-10" d="M134.08,191.3c-6.22,0-12.42-1.36-17.13-4.08s-7.12-6.19-7.12-10,2.57-7.4,7.24-10.09c9.54-5.51,25-5.54,34.48-.07,4.59,2.65,7.12,6.19,7.12,10s-2.57,7.4-7.24,10.09S140.35,191.3,134.08,191.3Zm.34-28c-6.23,0-12.47,1.38-17.23,4.12-4.59,2.65-7.11,6.15-7.11,9.87s2.48,7.14,7,9.75c9.41,5.43,24.76,5.4,34.23-.07,4.59-2.65,7.11-6.15,7.11-9.87s-2.48-7.14-7-9.75C146.75,164.61,140.59,163.26,134.42,163.26Z"/><path class="cls-31" d="M117.13,167.27c-4.86,2.81-7.25,6.5-7.17,10.17.12-3.51,2.51-7,7.16-9.7,9.52-5.5,24.9-5.53,34.36-.07,4.62,2.67,7,6.16,7,9.67.13-3.67-2.22-7.35-7-10.14C142,161.74,126.65,161.78,117.13,167.27Z"/><path class="cls-10" d="M110.09,177.44h-.25c-.09-3.88,2.48-7.53,7.23-10.28h0c9.54-5.51,25-5.54,34.48-.07,4.72,2.72,7.24,6.36,7.11,10.25h-.25c-.08-3.61-2.56-7-7-9.56-9.4-5.43-24.76-5.4-34.23.07C112.74,170.42,110.22,173.83,110.09,177.44Zm24.33-14.18c-6.23,0-12.47,1.38-17.23,4.12a15.74,15.74,0,0,0-5.81,5.35,16.34,16.34,0,0,1,5.68-5.1c9.54-5.51,25-5.54,34.48-.07a15.93,15.93,0,0,1,5.64,5.11,15.32,15.32,0,0,0-5.77-5.36C146.75,164.61,140.59,163.26,134.42,163.26Z"/><polygon class="cls-32" points="146.64 176.13 153.57 174.58 138.8 166.06 134 168.83 141.83 173.35 115.17 179.3 120 182.09 130.23 188 135.06 185.21 126.96 180.53 146.64 176.13"/><path class="cls-10" d="M130.23,188.14l-15.4-8.89,26.66-6-7.74-4.47,5.05-2.92,15.11,8.72-7.25,1.61-19.37,4.34,8,4.63Zm-14.72-8.79,14.72,8.5,4.58-2.64-8.19-4.73.31-.07,26.3-5.88L138.8,166.2l-4.55,2.63,7.92,4.57Z"/><polygon class="cls-33" points="142.64 181.17 145.32 180.57 141.9 178.59 139.22 179.19 142.64 181.17"/><path class="cls-10" d="M142.62,181.3l-3.74-2.16,3-.68,3.74,2.16Zm-3.06-2.06,3.1,1.79,2.32-.52-3.1-1.79Z"/><polygon class="cls-34" points="133.58 173.79 130.16 171.81 127.47 172.41 130.9 174.39 133.58 173.79"/><path class="cls-10" d="M130.88,174.52l-3.74-2.16,3-.68,3.74,2.16Zm-3.06-2.06,3.1,1.79,2.32-.52-3.1-1.79Z"/><polygon class="cls-35" points="141.29 181.47 137.86 179.5 135.19 180.09 138.62 182.07 141.29 181.47"/><path class="cls-10" d="M138.6,182.2,134.85,180l3-.68,3.74,2.16Zm-3.06-2.06,3.1,1.79,2.31-.52-3.1-1.79Z"/><polygon class="cls-36" points="126.12 172.72 123.45 173.31 126.87 175.29 129.54 174.69 126.12 172.72"/><path class="cls-10" d="M126.85,175.42l-3.74-2.16,3-.68,3.74,2.16Zm-3.06-2.06,3.1,1.79,2.31-.52-3.1-1.79Z"/><path class="cls-37" d="M104.81,172.47s0,3.63,0,4.56c-.11,4.41,2.74,8.83,8.55,12.19,11.46,6.61,30.1,6.58,41.63-.08,5.77-3.33,8.67-7.69,8.7-12,0-1.46,0-4.62,0-4.62Z"/><path class="cls-10" d="M134,194.27c-7.53,0-15-1.65-20.75-4.94s-8.72-7.64-8.61-12.3c0-.92,0-4.52,0-4.55v-.13h59.13v.12s0,3.18,0,4.62c0,4.59-3.14,8.9-8.76,12.14C149.26,192.59,141.64,194.27,134,194.27ZM104.94,172.6c0,.65,0,3.61,0,4.44-.11,4.56,2.9,8.85,8.48,12.07,11.4,6.58,30,6.55,41.51-.08,5.54-3.2,8.61-7.43,8.63-11.93,0-1.28,0-3.9,0-4.5Z"/><path class="cls-38" d="M155.14,160.41c-11.46-6.61-30.1-6.58-41.63.08s-11.6,17.42-.15,24,30.1,6.58,41.63-.08S166.6,167,155.14,160.41Z"/><path class="cls-10" d="M134,189.58c-7.53,0-15-1.65-20.75-4.94-5.55-3.21-8.61-7.49-8.61-12.05s3.11-8.94,8.76-12.2c11.55-6.67,30.29-6.71,41.76-.08,5.55,3.21,8.61,7.49,8.61,12.05s-3.11,8.94-8.76,12.2C149.26,187.91,141.64,189.58,134,189.58Zm.41-34c-7.55,0-15.12,1.67-20.89,5-5.57,3.21-8.63,7.47-8.63,12s3,8.67,8.49,11.83c11.4,6.58,30,6.55,41.51-.08,5.57-3.21,8.63-7.47,8.63-12s-3-8.67-8.49-11.83h0C149.4,157.24,141.94,155.61,134.46,155.61Z"/><path class="cls-12" d="M151.49,162.52c-9.45-5.46-24.84-5.43-34.36.07S107.56,177,117,182.43s24.84,5.43,34.36-.07S160.95,168,151.49,162.52Z"/><path class="cls-10" d="M134.08,186.62c-6.22,0-12.42-1.36-17.13-4.08s-7.12-6.19-7.12-10,2.57-7.4,7.24-10.09c9.54-5.51,25-5.54,34.48-.07h0c4.59,2.65,7.12,6.19,7.12,10s-2.57,7.4-7.24,10.09S140.35,186.62,134.08,186.62Zm.34-28c-6.23,0-12.47,1.37-17.23,4.12-4.59,2.65-7.11,6.16-7.11,9.87s2.48,7.14,7,9.75c9.41,5.43,24.76,5.4,34.23-.07,4.59-2.65,7.11-6.15,7.11-9.87s-2.48-7.14-7-9.75h0C146.75,159.93,140.59,158.58,134.42,158.58Z"/><path class="cls-39" d="M117.13,162.59c-4.86,2.81-7.25,6.5-7.17,10.17.12-3.51,2.51-7,7.16-9.7,9.52-5.5,24.9-5.53,34.36-.07,4.62,2.67,7,6.16,7,9.67.13-3.67-2.22-7.35-7-10.14C142,157.06,126.65,157.09,117.13,162.59Z"/><path class="cls-10" d="M110.09,172.76h-.25c-.09-3.88,2.48-7.53,7.23-10.28h0c9.54-5.51,25-5.54,34.48-.07,4.72,2.72,7.24,6.36,7.11,10.25h-.25c-.08-3.61-2.56-7-7-9.57-9.4-5.43-24.76-5.4-34.23.07C112.74,165.74,110.22,169.14,110.09,172.76Zm24.33-14.18c-6.23,0-12.47,1.37-17.23,4.12a15.74,15.74,0,0,0-5.81,5.35,16.35,16.35,0,0,1,5.69-5.1c9.54-5.51,25-5.54,34.48-.07A16,16,0,0,1,157.2,168a15.32,15.32,0,0,0-5.77-5.37C146.75,159.93,140.59,158.58,134.42,158.58Z"/><polygon class="cls-40" points="146.64 171.44 153.57 169.9 138.8 161.37 134 164.15 141.83 168.67 115.17 174.62 120 177.41 130.23 183.31 135.06 180.53 126.96 175.85 146.64 171.44"/><path class="cls-10" d="M130.23,183.46l-15.4-8.89,26.66-6-7.74-4.47,5.05-2.92L153.92,170l-7.25,1.61L127.3,175.9l8,4.63Zm-14.72-8.79,14.72,8.5,4.58-2.64-8.19-4.73.31-.07,26.3-5.88-14.43-8.33-4.55,2.63,7.92,4.57Z"/><polygon class="cls-41" points="142.64 176.49 145.32 175.88 141.9 173.91 139.22 174.51 142.64 176.49"/><path class="cls-10" d="M142.62,176.62l-3.74-2.16,3-.68,3.74,2.16Zm-3.06-2.06,3.1,1.79,2.32-.52-3.1-1.79Z"/><polygon class="cls-42" points="133.58 169.1 130.16 167.13 127.47 167.73 130.9 169.7 133.58 169.1"/><path class="cls-10" d="M130.88,169.84l-3.74-2.16,3-.68,3.74,2.16Zm-3.06-2.06,3.1,1.79,2.32-.52-3.1-1.79Z"/><polygon class="cls-43" points="141.29 176.79 137.86 174.81 135.19 175.41 138.62 177.38 141.29 176.79"/><path class="cls-10" d="M138.6,177.52l-3.74-2.16,3-.68,3.74,2.16Zm-3.06-2.06,3.1,1.79,2.31-.52-3.1-1.79Z"/><polygon class="cls-44" points="126.12 168.03 123.45 168.63 126.87 170.6 129.54 170.01 126.12 168.03"/><path class="cls-10" d="M126.85,170.74l-3.74-2.16,3-.68,3.74,2.16Zm-3.06-2.06,3.1,1.79,2.31-.52-3.1-1.79Z"/><path class="cls-45" d="M104.81,167.79s0,3.63,0,4.56c-.11,4.41,2.74,8.83,8.55,12.19,11.46,6.61,30.1,6.58,41.63-.08,5.77-3.33,8.67-7.69,8.7-12,0-1.46,0-4.62,0-4.62Z"/><path class="cls-10" d="M134,189.58c-7.53,0-15-1.65-20.75-4.94s-8.72-7.64-8.61-12.3c0-.92,0-4.52,0-4.55v-.13h59.13v.12s0,3.18,0,4.62c0,4.59-3.14,8.9-8.76,12.14C149.26,187.91,141.64,189.58,134,189.58Zm-29.11-21.67c0,.65,0,3.61,0,4.43-.11,4.56,2.9,8.85,8.48,12.08,11.4,6.58,30,6.55,41.51-.08,5.54-3.2,8.61-7.43,8.63-11.93,0-1.28,0-3.9,0-4.5Z"/><path class="cls-46" d="M155.14,155.73c-11.46-6.61-30.1-6.58-41.63.08s-11.6,17.42-.15,24,30.1,6.58,41.63-.08S166.6,162.34,155.14,155.73Z"/><path class="cls-10" d="M134,184.9c-7.53,0-15-1.65-20.75-4.94-5.55-3.21-8.61-7.49-8.61-12.05s3.11-8.94,8.76-12.2c11.55-6.67,30.29-6.71,41.76-.08,5.55,3.21,8.61,7.49,8.61,12.05s-3.11,8.94-8.76,12.2C149.26,183.22,141.64,184.9,134,184.9Zm.41-34c-7.55,0-15.12,1.67-20.89,5-5.57,3.21-8.63,7.47-8.63,12s3,8.67,8.49,11.83c11.4,6.58,30,6.55,41.51-.08,5.57-3.21,8.63-7.47,8.63-12s-3-8.67-8.49-11.83C149.4,152.56,141.94,150.92,134.46,150.92Z"/><path class="cls-12" d="M151.49,157.84c-9.45-5.46-24.84-5.43-34.36.07s-9.57,14.38-.12,19.84,24.84,5.43,34.36-.07S160.95,163.29,151.49,157.84Z"/><path class="cls-10" d="M134.08,181.93c-6.22,0-12.42-1.36-17.13-4.08s-7.12-6.19-7.12-10,2.57-7.4,7.24-10.09c9.54-5.51,25-5.54,34.48-.07,4.59,2.65,7.12,6.19,7.12,10s-2.57,7.4-7.24,10.09S140.35,181.93,134.08,181.93Zm.34-28c-6.23,0-12.47,1.38-17.23,4.12-4.59,2.65-7.11,6.15-7.11,9.87s2.48,7.14,7,9.75c9.41,5.43,24.76,5.4,34.23-.07,4.59-2.65,7.11-6.15,7.11-9.87s-2.48-7.14-7-9.75C146.75,155.24,140.59,153.89,134.42,153.89Z"/><path class="cls-47" d="M117.13,157.91c-4.86,2.81-7.25,6.5-7.17,10.17.12-3.51,2.51-7,7.16-9.7,9.52-5.5,24.9-5.53,34.36-.07,4.62,2.67,7,6.16,7,9.67.13-3.67-2.22-7.35-7-10.14C142,152.38,126.65,152.41,117.13,157.91Z"/><path class="cls-10" d="M110.09,168.08h-.25c-.09-3.88,2.48-7.53,7.23-10.28h0c9.54-5.51,25-5.54,34.48-.07,4.72,2.72,7.24,6.36,7.11,10.25h-.25c-.08-3.61-2.56-7-7-9.57-9.4-5.43-24.76-5.4-34.23.07C112.74,161.05,110.22,164.46,110.09,168.08Zm24.33-14.18c-6.23,0-12.47,1.38-17.23,4.12h0a15.74,15.74,0,0,0-5.81,5.35,16.35,16.35,0,0,1,5.69-5.1c9.54-5.51,25-5.54,34.48-.07a15.94,15.94,0,0,1,5.65,5.12,15.32,15.32,0,0,0-5.77-5.37C146.75,155.24,140.59,153.89,134.42,153.89Z"/><polygon class="cls-48" points="146.64 166.76 153.57 165.22 138.8 156.69 134 159.46 141.83 163.98 115.17 169.94 120 172.72 130.23 178.63 135.06 175.84 126.96 171.16 146.64 166.76"/><path class="cls-10" d="M130.23,178.78l-15.4-8.89,26.66-6-7.74-4.47,5.05-2.92,15.11,8.72-7.25,1.61-19.37,4.34,8,4.63ZM115.51,170l14.72,8.5,4.58-2.64-8.19-4.73.31-.07,26.3-5.88-14.43-8.33-4.55,2.63,7.92,4.57Z"/><polygon class="cls-49" points="142.64 171.8 145.32 171.2 141.9 169.23 139.22 169.83 142.64 171.8"/><path class="cls-10" d="M142.62,171.93l-3.74-2.16,3-.68,3.74,2.16Zm-3.06-2.06,3.1,1.79,2.32-.52-3.1-1.79Z"/><polygon class="cls-50" points="133.58 164.42 130.16 162.45 127.47 163.04 130.9 165.02 133.58 164.42"/><path class="cls-10" d="M130.88,165.15,127.13,163l3-.68,3.74,2.16Zm-3.06-2.06,3.1,1.79,2.32-.52-3.1-1.79Z"/><polygon class="cls-51" points="141.29 172.1 137.86 170.13 135.19 170.72 138.62 172.7 141.29 172.1"/><path class="cls-10" d="M138.6,172.83l-3.74-2.16,3-.68,3.74,2.16Zm-3.06-2.06,3.1,1.79,2.31-.52-3.1-1.79Z"/><polygon class="cls-52" points="126.12 163.35 123.45 163.94 126.87 165.92 129.54 165.32 126.12 163.35"/><path class="cls-10" d="M126.85,166.05l-3.74-2.16,3-.68,3.74,2.16ZM123.79,164l3.1,1.79,2.31-.52-3.1-1.79Z"/><path class="cls-53" d="M104.81,163.11s0,3.63,0,4.56c-.11,4.41,2.74,8.83,8.55,12.19,11.46,6.61,30.1,6.58,41.63-.08,5.77-3.33,8.67-7.69,8.7-12,0-1.46,0-4.62,0-4.62Z"/><path class="cls-10" d="M134,184.9c-7.53,0-15-1.65-20.75-4.94s-8.72-7.64-8.61-12.3c0-.92,0-4.52,0-4.55V163h59.13v.12s0,3.18,0,4.62c0,4.59-3.14,8.9-8.76,12.14C149.26,183.22,141.64,184.9,134,184.9Zm-29.11-21.67c0,.65,0,3.61,0,4.43-.11,4.56,2.9,8.85,8.48,12.07,11.4,6.58,30,6.55,41.51-.08,5.54-3.2,8.61-7.43,8.63-11.93,0-1.28,0-3.9,0-4.5Z"/><path class="cls-54" d="M155.14,151c-11.46-6.61-30.1-6.58-41.63.08s-11.6,17.42-.15,24,30.1,6.58,41.63-.08S166.6,157.66,155.14,151Z"/><path class="cls-10" d="M134,180.22c-7.53,0-15-1.65-20.75-4.94-5.55-3.21-8.61-7.49-8.61-12.05s3.11-8.94,8.76-12.2c11.55-6.67,30.29-6.71,41.76-.08,5.55,3.21,8.61,7.49,8.61,12.05s-3.11,8.94-8.76,12.2C149.26,178.54,141.64,180.22,134,180.22Zm.41-34c-7.55,0-15.12,1.67-20.89,5-5.57,3.21-8.63,7.47-8.63,12s3,8.67,8.49,11.83c11.4,6.58,30,6.55,41.51-.08,5.57-3.21,8.63-7.47,8.63-12s-3-8.67-8.49-11.83h0C149.4,147.88,141.94,146.24,134.46,146.24Z"/><path class="cls-12" d="M151.49,153.15c-9.45-5.46-24.84-5.43-34.36.07s-9.57,14.38-.12,19.84,24.84,5.43,34.36-.07S160.95,158.61,151.49,153.15Z"/><path class="cls-10" d="M134.08,177.25c-6.22,0-12.42-1.36-17.13-4.08s-7.12-6.19-7.12-10,2.57-7.4,7.24-10.09c9.54-5.51,25-5.54,34.48-.07,4.59,2.65,7.12,6.19,7.12,10s-2.57,7.4-7.24,10.09S140.35,177.25,134.08,177.25Zm.34-28c-6.23,0-12.47,1.38-17.23,4.12-4.59,2.65-7.11,6.15-7.11,9.87s2.48,7.14,7,9.75c9.41,5.43,24.76,5.4,34.23-.07,4.59-2.65,7.11-6.15,7.11-9.87s-2.48-7.14-7-9.75C146.75,150.56,140.59,149.21,134.42,149.21Z"/><path class="cls-55" d="M117.13,153.22c-4.86,2.81-7.25,6.5-7.17,10.17.12-3.51,2.51-7,7.16-9.7,9.52-5.5,24.9-5.53,34.36-.07,4.62,2.67,7,6.16,7,9.67.13-3.67-2.22-7.35-7-10.14C142,147.69,126.65,147.72,117.13,153.22Z"/><path class="cls-10" d="M110.09,163.39h-.25c-.09-3.88,2.48-7.53,7.23-10.28h0c9.54-5.51,25-5.54,34.48-.07,4.72,2.72,7.24,6.36,7.11,10.25h-.25c-.08-3.61-2.56-7-7-9.56-9.4-5.43-24.76-5.4-34.23.07C112.74,156.37,110.22,159.78,110.09,163.39Zm24.33-14.18c-6.23,0-12.47,1.38-17.23,4.12h0a15.73,15.73,0,0,0-5.81,5.35,16.34,16.34,0,0,1,5.68-5.1c9.54-5.51,25-5.54,34.48-.07a15.93,15.93,0,0,1,5.64,5.11,15.32,15.32,0,0,0-5.77-5.36C146.75,150.56,140.59,149.21,134.42,149.21Z"/><polygon class="cls-56" points="146.64 162.07 153.57 160.53 138.8 152 134 154.78 141.83 159.3 115.17 165.25 120 168.04 130.23 173.95 135.06 171.16 126.96 166.48 146.64 162.07"/><path class="cls-10" d="M130.23,174.09l-15.4-8.89,26.66-6-7.74-4.47,5.05-2.92,15.11,8.72-7.25,1.61-19.37,4.34,8,4.63Zm-14.72-8.79,14.72,8.5,4.58-2.64-8.19-4.73.31-.07,26.3-5.88-14.43-8.33-4.55,2.63,7.92,4.57Z"/><polygon class="cls-57" points="142.64 167.12 145.32 166.52 141.9 164.54 139.22 165.14 142.64 167.12"/><path class="cls-10" d="M142.62,167.25l-3.74-2.16,3-.68,3.74,2.16Zm-3.06-2.06,3.1,1.79,2.32-.52-3.1-1.79Z"/><polygon class="cls-58" points="133.58 159.74 130.16 157.76 127.47 158.36 130.9 160.34 133.58 159.74"/><path class="cls-10" d="M130.88,160.47l-3.74-2.16,3-.68,3.74,2.16Zm-3.06-2.06,3.1,1.79,2.32-.52-3.1-1.79Z"/><polygon class="cls-59" points="141.29 167.42 137.86 165.44 135.19 166.04 138.62 168.02 141.29 167.42"/><path class="cls-10" d="M138.6,168.15,134.85,166l3-.68,3.74,2.16Zm-3.06-2.06,3.1,1.79,2.31-.52-3.1-1.79Z"/><polygon class="cls-60" points="126.12 158.66 123.45 159.26 126.87 161.24 129.54 160.64 126.12 158.66"/><path class="cls-10" d="M126.85,161.37l-3.74-2.16,3-.68,3.74,2.16Zm-3.06-2.06,3.1,1.79,2.31-.52-3.1-1.79Z"/><path class="cls-61" d="M104.81,158.45s0,3.63,0,4.56c-.11,4.41,2.74,8.83,8.55,12.19,11.46,6.61,30.1,6.58,41.63-.08,5.77-3.33,8.67-7.69,8.7-12,0-1.46,0-4.62,0-4.62Z"/><path class="cls-10" d="M134,180.24c-7.53,0-15-1.65-20.75-4.94s-8.72-7.64-8.61-12.3c0-.92,0-4.52,0-4.55v-.13h59.13v.12s0,3.18,0,4.62c0,4.59-3.14,8.9-8.76,12.14C149.26,178.56,141.64,180.24,134,180.24Zm-29.11-21.67c0,.65,0,3.61,0,4.43-.11,4.56,2.9,8.85,8.48,12.07,11.4,6.58,30,6.55,41.51-.08,5.54-3.2,8.61-7.43,8.63-11.93,0-1.28,0-3.9,0-4.5Z"/><path class="cls-62" d="M155.14,146.39c-11.46-6.61-30.1-6.58-41.63.08s-11.6,17.42-.15,24,30.1,6.58,41.63-.08S166.6,153,155.14,146.39Z"/><path class="cls-10" d="M134,175.56c-7.53,0-15-1.65-20.75-4.94-5.55-3.21-8.61-7.49-8.61-12.05s3.11-8.94,8.76-12.2c11.55-6.67,30.29-6.71,41.76-.08,5.55,3.21,8.61,7.49,8.61,12.05s-3.11,8.94-8.76,12.2C149.26,173.88,141.64,175.56,134,175.56Zm.41-34c-7.55,0-15.12,1.67-20.89,5-5.57,3.21-8.63,7.47-8.63,12s3,8.67,8.49,11.83c11.4,6.58,30,6.55,41.51-.08,5.57-3.21,8.63-7.47,8.63-12s-3-8.67-8.49-11.83h0C149.4,143.22,141.94,141.58,134.46,141.58Z"/><path class="cls-12" d="M151.49,148.49c-9.45-5.46-24.84-5.43-34.36.07s-9.57,14.38-.12,19.84,24.84,5.43,34.36-.07S160.95,154,151.49,148.49Z"/><path class="cls-10" d="M134.08,172.59c-6.22,0-12.42-1.36-17.13-4.08s-7.12-6.19-7.12-10,2.57-7.4,7.24-10.09c9.54-5.51,25-5.54,34.48-.07h0c4.59,2.65,7.12,6.19,7.12,10s-2.57,7.4-7.24,10.09S140.35,172.59,134.08,172.59Zm.34-28c-6.23,0-12.47,1.38-17.23,4.12-4.59,2.65-7.11,6.15-7.11,9.87s2.48,7.14,7,9.75c9.41,5.43,24.76,5.4,34.23-.07,4.59-2.65,7.11-6.15,7.11-9.87s-2.48-7.14-7-9.75h0C146.75,145.9,140.59,144.55,134.42,144.55Z"/><path class="cls-63" d="M117.13,148.56c-4.86,2.81-7.25,6.5-7.17,10.17.12-3.51,2.51-7,7.16-9.7,9.52-5.5,24.9-5.53,34.36-.07,4.62,2.67,7,6.16,7,9.67.13-3.67-2.22-7.35-7-10.14C142,143,126.65,143.07,117.13,148.56Z"/><path class="cls-10" d="M110.09,158.73h-.25c-.09-3.89,2.48-7.54,7.23-10.28h0c9.54-5.51,25-5.54,34.48-.07,4.72,2.72,7.24,6.36,7.11,10.25h-.25c-.08-3.61-2.56-7-7-9.56-9.4-5.43-24.76-5.4-34.23.07C112.74,151.71,110.22,155.12,110.09,158.73Zm24.33-14.18c-6.23,0-12.47,1.37-17.23,4.12a15.74,15.74,0,0,0-5.81,5.35,16.34,16.34,0,0,1,5.69-5.1c9.54-5.51,25-5.54,34.48-.07A15.94,15.94,0,0,1,157.2,154a15.32,15.32,0,0,0-5.77-5.36C146.75,145.9,140.59,144.55,134.42,144.55Z"/><polygon class="cls-64" points="146.64 157.42 153.57 155.87 138.8 147.34 134 150.12 141.83 154.64 115.17 160.59 120 163.38 130.23 169.29 135.06 166.5 126.96 161.82 146.64 157.42"/><path class="cls-10" d="M130.23,169.43l-15.4-8.89,26.66-6-7.74-4.47,5.05-2.92,15.11,8.72-7.25,1.61-19.37,4.34,8,4.63Zm-14.72-8.79,14.72,8.5,4.58-2.64-8.19-4.73.31-.07,26.3-5.88-14.43-8.33-4.55,2.63,7.92,4.57Z"/><polygon class="cls-65" points="142.64 162.46 145.32 161.86 141.9 159.88 139.22 160.48 142.64 162.46"/><path class="cls-10" d="M142.62,162.59l-3.74-2.16,3-.68,3.74,2.16Zm-3.06-2.06,3.1,1.79,2.32-.52-3.1-1.79Z"/><polygon class="cls-66" points="133.58 155.08 130.16 153.1 127.47 153.7 130.9 155.68 133.58 155.08"/><path class="cls-10" d="M130.88,155.81l-3.74-2.16,3-.68,3.74,2.16Zm-3.06-2.06,3.1,1.79,2.32-.52-3.1-1.79Z"/><polygon class="cls-67" points="141.29 162.76 137.86 160.78 135.19 161.38 138.62 163.36 141.29 162.76"/><path class="cls-10" d="M138.6,163.49l-3.74-2.16,3-.68,3.74,2.16Zm-3.06-2.06,3.1,1.79,2.31-.52-3.1-1.79Z"/><polygon class="cls-68" points="126.12 154 123.45 154.6 126.87 156.58 129.54 155.98 126.12 154"/><path class="cls-10" d="M126.85,156.71l-3.74-2.16,3-.68,3.74,2.16Zm-3.06-2.06,3.1,1.79,2.31-.52-3.1-1.79Z"/><path class="cls-69" d="M148.51,200.24s0,3.63,0,4.56c-.11,4.41,2.74,8.83,8.55,12.19,11.46,6.61,30.1,6.58,41.63-.08,5.77-3.33,8.67-7.69,8.7-12,0-1.46,0-4.62,0-4.62Z"/><path class="cls-10" d="M177.74,222c-7.53,0-15-1.65-20.75-4.94s-8.72-7.64-8.61-12.3c0-.92,0-4.52,0-4.55v-.13h59.13v.12s0,3.18,0,4.62c0,4.59-3.14,8.9-8.76,12.14C193,220.36,185.33,222,177.74,222Zm-29.11-21.67c0,.65,0,3.61,0,4.43-.11,4.56,2.9,8.85,8.48,12.08,11.41,6.58,30,6.55,41.51-.08,5.54-3.2,8.61-7.44,8.63-11.93,0-1.28,0-3.9,0-4.5Z"/><path class="cls-70" d="M198.84,188.18c-11.46-6.61-30.1-6.58-41.63.08s-11.6,17.42-.15,24,30.1,6.58,41.63-.08S210.29,194.8,198.84,188.18Z"/><path class="cls-10" d="M177.74,217.35c-7.53,0-15-1.65-20.75-4.94-5.55-3.21-8.61-7.49-8.61-12s3.11-8.94,8.76-12.21c11.55-6.67,30.29-6.71,41.76-.08,5.55,3.21,8.61,7.49,8.61,12s-3.11,8.94-8.76,12.2C193,215.68,185.33,217.35,177.74,217.35Zm.41-34c-7.55,0-15.12,1.67-20.89,5-5.57,3.21-8.63,7.47-8.63,12s3,8.67,8.49,11.83c11.41,6.58,30,6.55,41.51-.08,5.57-3.21,8.63-7.47,8.63-12s-3-8.67-8.49-11.83C193.1,185,185.63,183.38,178.15,183.38Z"/><path class="cls-12" d="M195.19,190.29c-9.45-5.46-24.84-5.43-34.36.07s-9.57,14.38-.12,19.84,24.84,5.43,34.36-.07S204.64,195.75,195.19,190.29Z"/><path class="cls-10" d="M177.78,214.39c-6.22,0-12.42-1.36-17.13-4.08s-7.12-6.19-7.12-10,2.57-7.4,7.24-10.09c9.54-5.51,25-5.54,34.48-.07,4.59,2.65,7.12,6.19,7.12,10s-2.57,7.4-7.24,10.09S184,214.39,177.78,214.39Zm.34-28c-6.23,0-12.47,1.38-17.23,4.12-4.59,2.65-7.11,6.15-7.11,9.87s2.48,7.14,7,9.75c9.4,5.43,24.76,5.4,34.23-.07,4.59-2.65,7.11-6.16,7.11-9.87s-2.48-7.14-7-9.75C190.44,187.69,184.29,186.35,178.12,186.35Z"/><path class="cls-71" d="M160.83,190.36c-4.86,2.81-7.25,6.5-7.17,10.17.12-3.51,2.51-7,7.16-9.7,9.52-5.5,24.9-5.53,34.36-.07,4.62,2.67,7,6.16,7,9.67.13-3.67-2.22-7.35-7-10.14C185.73,184.83,170.35,184.86,160.83,190.36Z"/><path class="cls-10" d="M153.79,200.53h-.25c-.09-3.88,2.48-7.53,7.23-10.28h0c9.54-5.51,25-5.54,34.48-.07,4.72,2.72,7.24,6.36,7.11,10.25h-.25c-.08-3.61-2.56-7-7-9.57-9.4-5.43-24.76-5.4-34.23.07C156.43,193.51,153.91,196.91,153.79,200.53Zm7.1-10.06a15.75,15.75,0,0,0-5.8,5.34,16.37,16.37,0,0,1,5.68-5.09c9.54-5.51,25-5.54,34.48-.07a16,16,0,0,1,5.64,5.11,15.33,15.33,0,0,0-5.77-5.36c-9.4-5.43-24.76-5.4-34.23.07Z"/><polygon class="cls-72" points="190.34 199.21 197.27 197.67 182.5 189.14 177.7 191.91 185.53 196.44 158.87 202.39 163.69 205.18 173.93 211.08 178.75 208.3 170.65 203.62 190.34 199.21"/><path class="cls-10" d="M173.93,211.23l-15.4-8.89,26.66-6-7.74-4.47L182.5,189l15.11,8.72-7.25,1.61L171,203.67l8,4.63Zm-14.72-8.79,14.72,8.5,4.58-2.64-8.19-4.73.31-.07,26.3-5.88-14.43-8.33-4.55,2.63,7.92,4.57Z"/><polygon class="cls-73" points="186.33 204.25 189.01 203.65 185.6 201.68 182.91 202.28 186.33 204.25"/><path class="cls-10" d="M186.31,204.39l-3.74-2.16,3-.68,3.74,2.16Zm-3.06-2.06,3.1,1.79,2.32-.52-3.1-1.79Z"/><polygon class="cls-74" points="177.27 196.87 173.85 194.9 171.17 195.5 174.59 197.47 177.27 196.87"/><path class="cls-10" d="M174.57,197.61l-3.74-2.16,3-.68,3.74,2.16Zm-3.06-2.06,3.1,1.79,2.32-.52-3.1-1.79Z"/><polygon class="cls-75" points="184.98 204.56 181.56 202.58 178.89 203.18 182.31 205.15 184.98 204.56"/><path class="cls-10" d="M182.29,205.29l-3.74-2.16,3-.68,3.74,2.16Zm-3.06-2.06,3.1,1.79,2.31-.52-3.1-1.79Z"/><polygon class="cls-76" points="169.81 195.8 167.14 196.4 170.57 198.37 173.24 197.78 169.81 195.8"/><path class="cls-10" d="M170.55,198.51l-3.74-2.16,3-.68,3.74,2.16Zm-3.06-2.06,3.1,1.79,2.31-.52-3.1-1.79Z"/><path class="cls-77" d="M148.51,195.56s0,3.63,0,4.56c-.11,4.41,2.74,8.83,8.55,12.19,11.46,6.61,30.1,6.58,41.63-.08,5.77-3.33,8.67-7.69,8.7-12,0-1.46,0-4.62,0-4.62Z"/><path class="cls-10" d="M177.74,217.35c-7.53,0-15-1.65-20.75-4.94s-8.72-7.64-8.61-12.3c0-.92,0-4.52,0-4.55v-.13h59.13v.12s0,3.18,0,4.62c0,4.59-3.14,8.9-8.76,12.14C193,215.68,185.33,217.35,177.74,217.35Zm-29.11-21.67c0,.65,0,3.61,0,4.43-.11,4.56,2.9,8.85,8.48,12.07,11.41,6.58,30,6.55,41.51-.08,5.54-3.2,8.61-7.43,8.63-11.93,0-1.28,0-3.9,0-4.5Z"/><path class="cls-78" d="M198.84,183.5c-11.46-6.61-30.1-6.58-41.63.08s-11.6,17.42-.15,24,30.1,6.58,41.63-.08S210.29,190.11,198.84,183.5Z"/><path class="cls-10" d="M177.74,212.67c-7.53,0-15-1.65-20.75-4.94-5.55-3.21-8.61-7.49-8.61-12s3.11-8.94,8.76-12.2c11.55-6.67,30.29-6.71,41.76-.08,5.55,3.21,8.61,7.49,8.61,12s-3.11,8.94-8.76,12.2C193,211,185.33,212.67,177.74,212.67Zm.41-34c-7.55,0-15.12,1.67-20.89,5-5.57,3.21-8.63,7.47-8.63,12s3,8.67,8.49,11.83c11.41,6.58,30,6.55,41.51-.08,5.57-3.21,8.63-7.47,8.63-12s-3-8.67-8.49-11.83C193.1,180.33,185.63,178.69,178.15,178.69Z"/><path class="cls-12" d="M195.19,185.61c-9.45-5.46-24.84-5.43-34.36.07s-9.57,14.38-.12,19.84,24.84,5.43,34.36-.07S204.64,191.06,195.19,185.61Z"/><path class="cls-10" d="M177.78,209.7c-6.22,0-12.42-1.36-17.13-4.08s-7.12-6.19-7.12-10,2.57-7.4,7.24-10.09c9.54-5.51,25-5.54,34.48-.07,4.59,2.65,7.12,6.19,7.12,10s-2.57,7.4-7.24,10.09S184,209.7,177.78,209.7Zm.34-28c-6.23,0-12.47,1.38-17.23,4.12-4.59,2.65-7.11,6.15-7.11,9.87s2.48,7.14,7,9.75c9.41,5.43,24.76,5.4,34.23-.07,4.59-2.65,7.11-6.16,7.11-9.87s-2.48-7.14-7-9.75C190.44,183,184.29,181.66,178.12,181.66Z"/><path class="cls-79" d="M160.83,185.67c-4.86,2.81-7.25,6.5-7.17,10.17.12-3.51,2.51-7,7.16-9.7,9.52-5.5,24.9-5.53,34.36-.07,4.62,2.67,7,6.16,7,9.67.13-3.67-2.22-7.35-7-10.14C185.73,180.15,170.35,180.18,160.83,185.67Z"/><path class="cls-10" d="M153.79,195.85h-.25c-.09-3.88,2.48-7.53,7.23-10.28h0c9.54-5.51,25-5.54,34.48-.07,4.72,2.72,7.24,6.36,7.11,10.25h-.25c-.08-3.61-2.56-7-7-9.56-9.4-5.43-24.76-5.4-34.23.07C156.43,188.82,153.91,192.23,153.79,195.85Zm7.1-10.06a15.76,15.76,0,0,0-5.8,5.33,16.37,16.37,0,0,1,5.67-5.08c9.54-5.51,25-5.54,34.48-.07a16,16,0,0,1,5.64,5.11,15.33,15.33,0,0,0-5.76-5.36c-9.4-5.43-24.76-5.4-34.23.07Z"/><polygon class="cls-80" points="190.34 194.53 197.27 192.99 182.5 184.46 177.7 187.23 185.53 191.75 158.87 197.71 163.69 200.49 173.93 206.4 178.75 203.61 170.65 198.93 190.34 194.53"/><path class="cls-10" d="M173.93,206.54l-15.4-8.89,26.66-6-7.74-4.47,5.05-2.92L197.61,193l-7.25,1.61L171,199l8,4.63Zm-14.72-8.79,14.72,8.5,4.58-2.64-8.19-4.73.31-.07,26.3-5.88L182.5,184.6l-4.55,2.63,7.92,4.57Z"/><polygon class="cls-81" points="186.33 199.57 189.01 198.97 185.6 197 182.91 197.59 186.33 199.57"/><path class="cls-10" d="M186.31,199.7l-3.74-2.16,3-.68,3.74,2.16Zm-3.06-2.06,3.1,1.79,2.32-.52-3.1-1.79Z"/><polygon class="cls-82" points="177.27 192.19 173.85 190.22 171.17 190.81 174.59 192.79 177.27 192.19"/><path class="cls-10" d="M174.57,192.92l-3.74-2.16,3-.68,3.74,2.16Zm-3.06-2.06,3.1,1.79,2.32-.52-3.1-1.79Z"/><polygon class="cls-83" points="184.98 199.87 181.56 197.9 178.89 198.49 182.31 200.47 184.98 199.87"/><path class="cls-10" d="M182.29,200.6l-3.74-2.16,3-.68,3.74,2.16Zm-3.06-2.06,3.1,1.79,2.31-.52-3.1-1.79Z"/><polygon class="cls-84" points="169.81 191.12 167.14 191.71 170.57 193.69 173.24 193.09 169.81 191.12"/><path class="cls-10" d="M170.55,193.82l-3.74-2.16,3-.68,3.74,2.16Zm-3.06-2.06,3.1,1.79,2.31-.52-3.1-1.79Z"/><path class="cls-85" d="M148.51,190.88s0,3.63,0,4.56c-.11,4.41,2.74,8.83,8.55,12.19,11.46,6.61,30.1,6.58,41.63-.08,5.77-3.33,8.67-7.69,8.7-12,0-1.46,0-4.62,0-4.62Z"/><path class="cls-10" d="M177.74,212.67c-7.53,0-15-1.65-20.75-4.94s-8.72-7.64-8.61-12.3c0-.92,0-4.52,0-4.55v-.13h59.13v.12s0,3.18,0,4.62c0,4.59-3.14,8.9-8.76,12.14C193,211,185.33,212.67,177.74,212.67ZM148.63,191c0,.65,0,3.61,0,4.44-.11,4.56,2.9,8.85,8.48,12.07,11.41,6.58,30,6.55,41.51-.08,5.54-3.2,8.61-7.44,8.63-11.93,0-1.28,0-3.9,0-4.5Z"/><path class="cls-86" d="M198.84,178.81c-11.46-6.61-30.1-6.58-41.63.08s-11.6,17.42-.15,24,30.1,6.58,41.63-.08S210.29,185.43,198.84,178.81Z"/><path class="cls-10" d="M177.74,208c-7.53,0-15-1.65-20.75-4.94-5.55-3.21-8.61-7.49-8.61-12.05s3.11-8.94,8.76-12.2c11.55-6.67,30.29-6.71,41.76-.08,5.55,3.21,8.61,7.49,8.61,12s-3.11,8.94-8.76,12.2C193,206.31,185.33,208,177.74,208Zm.41-34c-7.55,0-15.12,1.67-20.89,5-5.57,3.21-8.63,7.47-8.63,12s3,8.67,8.49,11.83c11.41,6.58,30,6.55,41.51-.08,5.57-3.21,8.63-7.47,8.63-12s-3-8.67-8.49-11.83C193.1,175.65,185.63,174,178.15,174Z"/><path class="cls-12" d="M195.19,180.92c-9.45-5.46-24.84-5.43-34.36.07s-9.57,14.38-.12,19.84,24.84,5.43,34.36-.07S204.64,186.38,195.19,180.92Z"/><path class="cls-10" d="M177.78,205c-6.22,0-12.42-1.36-17.13-4.08s-7.12-6.19-7.12-10,2.57-7.4,7.24-10.09c9.54-5.51,25-5.54,34.48-.07h0c4.59,2.65,7.12,6.19,7.12,10s-2.57,7.4-7.24,10.09S184,205,177.78,205Zm.34-28c-6.23,0-12.47,1.37-17.23,4.12-4.59,2.65-7.11,6.16-7.11,9.87s2.48,7.14,7,9.75c9.41,5.43,24.76,5.4,34.23-.07,4.59-2.65,7.11-6.15,7.11-9.87s-2.48-7.14-7-9.75C190.44,178.33,184.29,177,178.12,177Z"/><path class="cls-87" d="M160.83,181c-4.86,2.81-7.25,6.5-7.17,10.17.12-3.51,2.51-7,7.16-9.7,9.52-5.5,24.9-5.53,34.36-.07,4.62,2.67,7,6.16,7,9.67.13-3.67-2.22-7.35-7-10.14C185.73,175.46,170.35,175.49,160.83,181Z"/><path class="cls-10" d="M153.79,191.16h-.25c-.09-3.88,2.48-7.53,7.23-10.28h0c9.54-5.51,25-5.54,34.48-.07,4.72,2.72,7.24,6.36,7.11,10.25h-.25c-.08-3.61-2.56-7-7-9.57-9.4-5.43-24.76-5.4-34.23.07C156.43,184.14,153.91,187.55,153.79,191.16Zm7.1-10.06a15.75,15.75,0,0,0-5.8,5.34,16.36,16.36,0,0,1,5.68-5.09c9.54-5.51,25-5.54,34.48-.07a15.94,15.94,0,0,1,5.64,5.11,15.32,15.32,0,0,0-5.77-5.36c-9.4-5.43-24.76-5.4-34.23.07Z"/><polygon class="cls-88" points="190.34 189.84 197.27 188.3 182.5 179.77 177.7 182.55 185.53 187.07 158.87 193.02 163.69 195.81 173.93 201.72 178.75 198.93 170.65 194.25 190.34 189.84"/><path class="cls-10" d="M173.93,201.86,158.53,193l26.66-6-7.74-4.47,5.05-2.92,15.11,8.72L190.36,190,171,194.3l8,4.63Zm-14.72-8.79,14.72,8.5,4.58-2.64-8.19-4.73.31-.07,26.3-5.88-14.43-8.33-4.55,2.63,7.92,4.57Z"/><polygon class="cls-89" points="186.33 194.89 189.01 194.29 185.6 192.31 182.91 192.91 186.33 194.89"/><path class="cls-10" d="M186.31,195l-3.74-2.16,3-.68,3.74,2.16ZM183.25,193l3.1,1.79,2.32-.52-3.1-1.79Z"/><polygon class="cls-90" points="177.27 187.51 173.85 185.53 171.17 186.13 174.59 188.11 177.27 187.51"/><path class="cls-10" d="M174.57,188.24l-3.74-2.16,3-.68,3.74,2.16Zm-3.06-2.06,3.1,1.79,2.32-.52-3.1-1.79Z"/><polygon class="cls-91" points="184.98 195.19 181.56 193.21 178.89 193.81 182.31 195.79 184.98 195.19"/><path class="cls-10" d="M182.29,195.92l-3.74-2.16,3-.68,3.74,2.16Zm-3.06-2.06,3.1,1.79,2.31-.52-3.1-1.79Z"/><polygon class="cls-92" points="169.81 186.43 167.14 187.03 170.57 189.01 173.24 188.41 169.81 186.43"/><path class="cls-10" d="M170.55,189.14,166.8,187l3-.68,3.74,2.16Zm-3.06-2.06,3.1,1.79,2.31-.52-3.1-1.79Z"/><path class="cls-93" d="M148.51,186.19s0,3.63,0,4.56c-.11,4.41,2.74,8.83,8.55,12.19,11.46,6.61,30.1,6.58,41.63-.08,5.77-3.33,8.67-7.69,8.7-12,0-1.46,0-4.62,0-4.62Z"/><path class="cls-10" d="M177.74,208c-7.53,0-15-1.65-20.75-4.94s-8.72-7.64-8.61-12.3c0-.92,0-4.52,0-4.55v-.13h59.13v.12s0,3.18,0,4.62c0,4.59-3.14,8.9-8.76,12.14C193,206.31,185.33,208,177.74,208Zm-29.11-21.67c0,.65,0,3.61,0,4.43-.11,4.56,2.9,8.85,8.48,12.08,11.41,6.58,30,6.55,41.51-.08,5.54-3.2,8.61-7.44,8.63-11.93,0-1.28,0-3.9,0-4.5Z"/><path class="cls-94" d="M198.84,174.13c-11.46-6.61-30.1-6.58-41.63.08s-11.6,17.42-.15,24,30.1,6.58,41.63-.08S210.29,180.74,198.84,174.13Z"/><path class="cls-10" d="M177.74,203.3c-7.53,0-15-1.65-20.75-4.94-5.55-3.21-8.61-7.49-8.61-12s3.11-8.94,8.76-12.2c11.55-6.67,30.29-6.71,41.76-.08,5.55,3.21,8.61,7.49,8.61,12s-3.11,8.94-8.76,12.2C193,201.63,185.33,203.3,177.74,203.3Zm.41-34c-7.55,0-15.12,1.67-20.89,5-5.57,3.21-8.63,7.47-8.63,12s3,8.67,8.49,11.83c11.41,6.58,30,6.55,41.51-.08,5.57-3.21,8.63-7.47,8.63-12s-3-8.67-8.49-11.83C193.1,171,185.63,169.33,178.15,169.33Z"/><path class="cls-12" d="M195.19,176.24c-9.45-5.46-24.84-5.43-34.36.07s-9.57,14.38-.12,19.84,24.84,5.43,34.36-.07S204.64,181.7,195.19,176.24Z"/><path class="cls-10" d="M177.78,200.33c-6.22,0-12.42-1.36-17.13-4.08s-7.12-6.19-7.12-10,2.57-7.4,7.24-10.09c9.54-5.51,25-5.54,34.48-.07h0c4.59,2.65,7.12,6.19,7.12,10s-2.57,7.4-7.24,10.09S184,200.33,177.78,200.33Zm.34-28c-6.23,0-12.47,1.38-17.23,4.12-4.59,2.65-7.11,6.15-7.11,9.87s2.48,7.14,7,9.75c9.41,5.43,24.76,5.4,34.23-.07,4.59-2.65,7.11-6.15,7.11-9.87s-2.48-7.14-7-9.75C190.44,173.64,184.29,172.29,178.12,172.29Z"/><path class="cls-95" d="M160.83,176.31c-4.86,2.81-7.25,6.5-7.17,10.17.12-3.51,2.51-7,7.16-9.7,9.52-5.5,24.9-5.53,34.36-.07,4.62,2.67,7,6.16,7,9.67.13-3.67-2.22-7.35-7-10.14C185.73,170.78,170.35,170.81,160.83,176.31Z"/><path class="cls-10" d="M153.79,186.48h-.25c-.09-3.88,2.48-7.53,7.23-10.28h0c9.54-5.51,25-5.54,34.48-.07,4.72,2.72,7.24,6.36,7.11,10.25h-.25c-.08-3.61-2.56-7-7-9.57-9.4-5.43-24.76-5.4-34.23.07C156.43,179.45,153.91,182.86,153.79,186.48Zm7.1-10.06a15.75,15.75,0,0,0-5.8,5.34,16.37,16.37,0,0,1,5.68-5.09c9.54-5.51,25-5.54,34.48-.07a16,16,0,0,1,5.64,5.11,15.33,15.33,0,0,0-5.77-5.36c-9.4-5.43-24.76-5.4-34.23.07Z"/><polygon class="cls-96" points="190.34 185.16 197.27 183.62 182.5 175.09 177.7 177.86 185.53 182.38 158.87 188.34 163.69 191.12 173.93 197.03 178.75 194.25 170.65 189.57 190.34 185.16"/><path class="cls-10" d="M173.93,197.18l-15.4-8.89,26.66-6-7.74-4.47,5.05-2.92,15.11,8.72-7.25,1.61L171,189.62l8,4.63Zm-14.72-8.79,14.72,8.5,4.58-2.64-8.19-4.73.31-.07,26.3-5.88-14.43-8.33-4.55,2.63,7.92,4.57Z"/><polygon class="cls-97" points="186.33 190.2 189.01 189.6 185.6 187.63 182.91 188.23 186.33 190.2"/><path class="cls-10" d="M186.31,190.34l-3.74-2.16,3-.68,3.74,2.16Zm-3.06-2.06,3.1,1.79,2.32-.52-3.1-1.79Z"/><polygon class="cls-98" points="177.27 182.82 173.85 180.85 171.17 181.45 174.59 183.42 177.27 182.82"/><path class="cls-10" d="M174.57,183.56l-3.74-2.16,3-.68,3.74,2.16Zm-3.06-2.06,3.1,1.79,2.32-.52-3.1-1.79Z"/><polygon class="cls-99" points="184.98 190.51 181.56 188.53 178.89 189.13 182.31 191.1 184.98 190.51"/><path class="cls-10" d="M182.29,191.24l-3.74-2.16,3-.68,3.74,2.16Zm-3.06-2.06,3.1,1.79,2.31-.52-3.1-1.79Z"/><polygon class="cls-100" points="169.81 181.75 167.14 182.35 170.57 184.32 173.24 183.72 169.81 181.75"/><path class="cls-10" d="M170.55,184.46l-3.74-2.16,3-.68,3.74,2.16Zm-3.06-2.06,3.1,1.79,2.31-.52-3.1-1.79Z"/><path class="cls-101" d="M148.51,181.53s0,3.63,0,4.56c-.11,4.41,2.74,8.83,8.55,12.19,11.46,6.61,30.1,6.58,41.63-.08,5.77-3.33,8.67-7.69,8.7-12,0-1.46,0-4.62,0-4.62Z"/><path class="cls-10" d="M177.74,203.33c-7.53,0-15-1.65-20.75-4.94s-8.72-7.64-8.61-12.3c0-.92,0-4.52,0-4.55v-.13h59.13v.12s0,3.18,0,4.62c0,4.59-3.14,8.9-8.76,12.14C193,201.65,185.34,203.33,177.74,203.33Zm-29.11-21.67c0,.65,0,3.61,0,4.43-.11,4.56,2.9,8.85,8.48,12.07,11.41,6.58,30,6.55,41.51-.08,5.54-3.2,8.61-7.44,8.63-11.93,0-1.28,0-3.9,0-4.5Z"/><path class="cls-102" d="M198.84,169.47c-11.46-6.61-30.1-6.58-41.63.08s-11.6,17.42-.15,24,30.1,6.58,41.63-.08S210.29,176.09,198.84,169.47Z"/><path class="cls-10" d="M177.74,198.64c-7.53,0-15-1.65-20.75-4.94-5.55-3.21-8.61-7.49-8.61-12s3.11-8.94,8.76-12.2c11.55-6.67,30.29-6.71,41.76-.08,5.55,3.21,8.61,7.49,8.61,12.05s-3.11,8.94-8.76,12.2C193,197,185.33,198.64,177.74,198.64Zm.41-34c-7.55,0-15.12,1.67-20.89,5-5.57,3.21-8.63,7.47-8.63,12s3,8.67,8.49,11.83c11.41,6.58,30,6.55,41.51-.08,5.57-3.21,8.63-7.47,8.63-12s-3-8.67-8.49-11.83C193.1,166.3,185.63,164.67,178.15,164.67Z"/><path class="cls-12" d="M195.19,171.58c-9.45-5.46-24.84-5.43-34.36.07s-9.57,14.38-.12,19.84,24.84,5.43,34.36-.07S204.64,177,195.19,171.58Z"/><path class="cls-10" d="M177.78,195.67c-6.22,0-12.42-1.36-17.13-4.08s-7.12-6.19-7.12-10,2.57-7.4,7.24-10.09c9.54-5.51,25-5.54,34.48-.07,4.59,2.65,7.12,6.19,7.12,10s-2.57,7.4-7.24,10.09S184,195.67,177.78,195.67Zm.34-28c-6.23,0-12.47,1.38-17.23,4.12-4.59,2.65-7.11,6.15-7.11,9.87s2.48,7.14,7,9.75c9.41,5.43,24.76,5.4,34.23-.07,4.59-2.65,7.11-6.16,7.11-9.87s-2.48-7.14-7-9.75C190.44,169,184.29,167.63,178.12,167.63Z"/><path class="cls-103" d="M160.83,171.65c-4.86,2.81-7.25,6.5-7.17,10.17.12-3.51,2.51-7,7.16-9.7,9.52-5.5,24.9-5.53,34.36-.07,4.62,2.67,7,6.16,7,9.67.13-3.67-2.22-7.35-7-10.14C185.73,166.12,170.35,166.15,160.83,171.65Z"/><path class="cls-10" d="M153.79,181.82h-.25c-.09-3.88,2.48-7.53,7.23-10.28h0c9.54-5.51,25-5.54,34.48-.07,4.72,2.72,7.24,6.36,7.11,10.25h-.25c-.08-3.61-2.56-7-7-9.56-9.4-5.43-24.76-5.4-34.23.07C156.43,174.79,153.91,178.2,153.79,181.82Zm7.1-10.06a15.75,15.75,0,0,0-5.8,5.34,16.37,16.37,0,0,1,5.68-5.09c9.54-5.51,25-5.54,34.48-.07a16,16,0,0,1,5.64,5.11,15.33,15.33,0,0,0-5.76-5.36c-9.4-5.43-24.76-5.4-34.23.07Z"/><polygon class="cls-104" points="190.34 180.5 197.27 178.96 182.5 170.43 177.7 173.2 185.53 177.72 158.87 183.68 163.69 186.47 173.93 192.37 178.75 189.59 170.65 184.91 190.34 180.5"/><path class="cls-10" d="M173.93,192.52l-15.4-8.89,26.66-6-7.74-4.47,5.05-2.92L197.61,179l-7.25,1.61L171,185l8,4.63Zm-14.72-8.79,14.72,8.5,4.58-2.64-8.19-4.73.31-.07,26.3-5.88-14.43-8.33-4.55,2.63,7.92,4.57Z"/><polygon class="cls-105" points="186.33 185.54 189.01 184.94 185.6 182.97 182.91 183.57 186.33 185.54"/><path class="cls-10" d="M186.31,185.68l-3.74-2.16,3-.68,3.74,2.16Zm-3.06-2.06,3.1,1.79,2.32-.52-3.1-1.79Z"/><polygon class="cls-106" points="177.27 178.16 173.85 176.19 171.17 176.79 174.59 178.76 177.27 178.16"/><path class="cls-10" d="M174.57,178.9l-3.74-2.16,3-.68,3.74,2.16Zm-3.06-2.06,3.1,1.79,2.32-.52-3.1-1.79Z"/><polygon class="cls-107" points="184.98 185.85 181.56 183.87 178.89 184.47 182.31 186.44 184.98 185.85"/><path class="cls-10" d="M182.29,186.58l-3.74-2.16,3-.68,3.74,2.16Zm-3.06-2.06,3.1,1.79,2.31-.52-3.1-1.79Z"/><polygon class="cls-108" points="169.81 177.09 167.14 177.69 170.57 179.66 173.24 179.07 169.81 177.09"/><path class="cls-10" d="M170.55,179.8l-3.74-2.16,3-.68,3.74,2.16Zm-3.06-2.06,3.1,1.79,2.31-.52-3.1-1.79Z"/><path class="cls-109" d="M148.51,176.85s0,3.63,0,4.56c-.11,4.41,2.74,8.83,8.55,12.19,11.46,6.61,30.1,6.58,41.63-.08,5.77-3.33,8.67-7.69,8.7-12,0-1.46,0-4.62,0-4.62Z"/><path class="cls-10" d="M177.74,198.64c-7.53,0-15-1.65-20.75-4.94s-8.72-7.64-8.61-12.3c0-.92,0-4.52,0-4.55v-.13h59.13v.12s0,3.18,0,4.62c0,4.59-3.14,8.9-8.76,12.14C193,197,185.33,198.64,177.74,198.64ZM148.63,177c0,.65,0,3.61,0,4.43-.11,4.56,2.9,8.85,8.48,12.07,11.41,6.58,30,6.55,41.51-.08,5.54-3.2,8.61-7.44,8.63-11.93,0-1.28,0-3.9,0-4.5Z"/><path class="cls-110" d="M198.84,164.79c-11.46-6.61-30.1-6.58-41.63.08s-11.6,17.42-.15,24,30.1,6.58,41.63-.08S210.29,171.4,198.84,164.79Z"/><path class="cls-10" d="M177.74,194c-7.53,0-15-1.65-20.75-4.94-5.55-3.21-8.61-7.49-8.61-12s3.11-8.94,8.76-12.2c11.55-6.67,30.29-6.71,41.76-.08,5.55,3.21,8.61,7.49,8.61,12s-3.11,8.94-8.76,12.2C193,192.28,185.33,194,177.74,194Zm.41-34c-7.55,0-15.12,1.67-20.89,5-5.57,3.21-8.63,7.47-8.63,12s3,8.67,8.49,11.83c11.41,6.58,30,6.55,41.51-.08,5.57-3.21,8.63-7.47,8.63-12s-3-8.67-8.49-11.83C193.1,161.62,185.63,160,178.15,160Z"/><path class="cls-12" d="M195.19,166.89c-9.45-5.46-24.84-5.43-34.36.07s-9.57,14.38-.12,19.84,24.84,5.43,34.36-.07S204.64,172.35,195.19,166.89Z"/><path class="cls-10" d="M177.78,191c-6.22,0-12.42-1.36-17.13-4.08s-7.12-6.19-7.12-10,2.57-7.4,7.24-10.09c9.54-5.51,25-5.54,34.48-.07h0c4.59,2.65,7.12,6.19,7.12,10s-2.57,7.4-7.24,10.09S184,191,177.78,191Zm.34-28c-6.23,0-12.47,1.37-17.23,4.12-4.59,2.65-7.11,6.16-7.11,9.87s2.48,7.14,7,9.75c9.41,5.43,24.76,5.4,34.23-.07,4.59-2.65,7.11-6.15,7.11-9.87s-2.48-7.14-7-9.75C190.44,164.3,184.29,163,178.12,163Z"/><path class="cls-111" d="M160.83,167c-4.86,2.81-7.25,6.5-7.17,10.17.12-3.51,2.51-7,7.16-9.7,9.52-5.5,24.9-5.53,34.36-.07,4.62,2.67,7,6.16,7,9.67.13-3.67-2.22-7.35-7-10.14C185.73,161.44,170.35,161.47,160.83,167Z"/><path class="cls-10" d="M153.79,177.13h-.25c-.09-3.89,2.48-7.54,7.23-10.28h0c9.54-5.51,25-5.54,34.48-.07,4.72,2.72,7.24,6.36,7.11,10.25h-.25c-.08-3.61-2.56-7-7-9.56-9.4-5.43-24.76-5.4-34.23.07C156.43,170.11,153.91,173.52,153.79,177.13Zm7.1-10.06a15.75,15.75,0,0,0-5.8,5.34,16.36,16.36,0,0,1,5.68-5.09c9.54-5.51,25-5.54,34.48-.07a16,16,0,0,1,5.64,5.11,15.33,15.33,0,0,0-5.76-5.36c-9.4-5.43-24.76-5.4-34.23.07Z"/><polygon class="cls-112" points="190.34 175.82 197.27 174.28 182.5 165.75 177.7 168.52 185.53 173.04 158.87 179 163.69 181.78 173.93 187.69 178.75 184.9 170.65 180.22 190.34 175.82"/><path class="cls-10" d="M173.93,187.83l-15.4-8.89,26.66-6-7.74-4.47,5.05-2.92,15.11,8.72-7.25,1.61L171,180.28l8,4.63ZM159.21,179l14.72,8.5,4.58-2.64-8.19-4.73.31-.07,26.3-5.88-14.43-8.33-4.55,2.63,7.92,4.57Z"/><polygon class="cls-113" points="186.33 180.86 189.01 180.26 185.6 178.28 182.91 178.88 186.33 180.86"/><path class="cls-10" d="M186.31,181l-3.74-2.16,3-.68,3.74,2.16Zm-3.06-2.06,3.1,1.79,2.32-.52-3.1-1.79Z"/><polygon class="cls-114" points="177.27 173.48 173.85 171.5 171.17 172.1 174.59 174.08 177.27 173.48"/><path class="cls-10" d="M174.57,174.21l-3.74-2.16,3-.68,3.74,2.16Zm-3.06-2.06,3.1,1.79,2.32-.52-3.1-1.79Z"/><polygon class="cls-115" points="184.98 181.16 181.56 179.19 178.89 179.78 182.31 181.76 184.98 181.16"/><path class="cls-10" d="M182.29,181.89l-3.74-2.16,3-.68,3.74,2.16Zm-3.06-2.06,3.1,1.79,2.31-.52-3.1-1.79Z"/><polygon class="cls-116" points="169.81 172.41 167.14 173 170.57 174.98 173.24 174.38 169.81 172.41"/><path class="cls-10" d="M170.55,175.11,166.8,173l3-.68,3.74,2.16Zm-3.06-2.06,3.1,1.79,2.31-.52-3.1-1.79Z"/><path class="cls-117" d="M148.51,172.17s0,3.63,0,4.56c-.11,4.41,2.74,8.83,8.55,12.19,11.46,6.61,30.1,6.58,41.63-.08,5.77-3.33,8.67-7.69,8.7-12,0-1.46,0-4.62,0-4.62Z"/><path class="cls-10" d="M177.74,194c-7.53,0-15-1.65-20.75-4.94s-8.72-7.64-8.61-12.3c0-.92,0-4.52,0-4.55V172h59.13v.12s0,3.18,0,4.62c0,4.59-3.14,8.9-8.76,12.14C193,192.28,185.33,194,177.74,194Zm-29.11-21.67c0,.65,0,3.61,0,4.43-.11,4.56,2.9,8.85,8.48,12.08,11.41,6.58,30,6.55,41.51-.08,5.54-3.2,8.61-7.44,8.63-11.93,0-1.28,0-3.9,0-4.5Z"/><path class="cls-118" d="M198.84,160.1c-11.46-6.61-30.1-6.58-41.63.08s-11.6,17.42-.15,24,30.1,6.58,41.63-.08S210.29,166.72,198.84,160.1Z"/><path class="cls-10" d="M177.74,189.28c-7.53,0-15-1.65-20.75-4.94-5.55-3.21-8.61-7.49-8.61-12s3.11-8.94,8.76-12.2c11.55-6.67,30.29-6.71,41.76-.08,5.55,3.21,8.61,7.49,8.61,12s-3.11,8.94-8.76,12.21C193,187.6,185.34,189.28,177.74,189.28Zm.41-34c-7.55,0-15.12,1.67-20.89,5-5.57,3.21-8.63,7.47-8.63,12s3,8.67,8.49,11.83c11.41,6.58,30,6.55,41.51-.08,5.57-3.21,8.63-7.47,8.63-12s-3-8.67-8.49-11.83C193.1,156.94,185.63,155.3,178.15,155.3Z"/><path class="cls-12" d="M195.19,162.21c-9.45-5.46-24.84-5.43-34.36.07s-9.57,14.38-.12,19.84,24.84,5.43,34.36-.07S204.64,167.67,195.19,162.21Z"/><path class="cls-10" d="M177.78,186.31c-6.22,0-12.42-1.36-17.13-4.08s-7.12-6.19-7.12-10,2.57-7.4,7.24-10.09c9.54-5.51,25-5.54,34.48-.07h0c4.59,2.65,7.12,6.19,7.12,10s-2.57,7.4-7.24,10.09S184,186.31,177.78,186.31Zm.34-28c-6.23,0-12.47,1.38-17.23,4.12-4.59,2.65-7.11,6.16-7.11,9.87s2.48,7.14,7,9.75c9.41,5.43,24.76,5.4,34.23-.07,4.59-2.65,7.11-6.15,7.11-9.87s-2.48-7.14-7-9.75C190.44,159.62,184.29,158.27,178.12,158.27Z"/><path class="cls-119" d="M160.83,162.28c-4.86,2.81-7.25,6.5-7.17,10.17.12-3.51,2.51-7,7.16-9.7,9.52-5.5,24.9-5.53,34.36-.07,4.62,2.67,7,6.16,7,9.67.13-3.67-2.22-7.35-7-10.14C185.73,156.75,170.35,156.78,160.83,162.28Z"/><path class="cls-10" d="M153.79,172.45h-.25c-.09-3.88,2.48-7.53,7.23-10.28h0c9.54-5.51,25-5.54,34.48-.07,4.72,2.72,7.24,6.36,7.11,10.25h-.25c-.08-3.61-2.56-7-7-9.57-9.4-5.43-24.76-5.4-34.23.07C156.43,165.43,153.91,168.83,153.79,172.45Zm7.1-10.06a15.75,15.75,0,0,0-5.8,5.34,16.37,16.37,0,0,1,5.68-5.09c9.54-5.51,25-5.54,34.48-.07a16,16,0,0,1,5.64,5.11,15.33,15.33,0,0,0-5.77-5.36c-9.4-5.43-24.76-5.4-34.23.07Z"/><polygon class="cls-120" points="190.34 171.13 197.27 169.59 182.5 161.06 177.7 163.84 185.53 168.36 158.87 174.31 163.69 177.1 173.93 183.01 178.75 180.22 170.65 175.54 190.34 171.13"/><path class="cls-10" d="M173.93,183.15l-15.4-8.89,26.66-6-7.74-4.47,5.05-2.92,15.11,8.72-7.25,1.61L171,175.59l8,4.63Zm-14.72-8.79,14.72,8.5,4.58-2.64-8.19-4.73.31-.07,26.3-5.88-14.43-8.33-4.55,2.63,7.92,4.57Z"/><polygon class="cls-121" points="186.33 176.18 189.01 175.58 185.6 173.6 182.91 174.2 186.33 176.18"/><path class="cls-10" d="M186.31,176.31l-3.74-2.16,3-.68,3.74,2.16Zm-3.06-2.06,3.1,1.79,2.32-.52-3.1-1.79Z"/><polygon class="cls-122" points="177.27 168.79 173.85 166.82 171.17 167.42 174.59 169.4 177.27 168.79"/><path class="cls-10" d="M174.57,169.53l-3.74-2.16,3-.68,3.74,2.16Zm-3.06-2.06,3.1,1.79,2.32-.52-3.1-1.79Z"/><polygon class="cls-123" points="184.98 176.48 181.56 174.5 178.89 175.1 182.31 177.08 184.98 176.48"/><path class="cls-10" d="M182.29,177.21,178.55,175l3-.68,3.74,2.16Zm-3.06-2.06,3.1,1.79,2.31-.52-3.1-1.79Z"/><polygon class="cls-124" points="169.81 167.72 167.14 168.32 170.57 170.3 173.24 169.7 169.81 167.72"/><path class="cls-10" d="M170.55,170.43l-3.74-2.16,3-.68,3.74,2.16Zm-3.06-2.06,3.1,1.79,2.31-.52-3.1-1.79Z"/><path class="cls-125" d="M325.25,72.85l-6,9-.69-.32a7.18,7.18,0,0,1-4.16-7.2l.07-.76Z"/><line class="cls-126" x1="323.7" y1="73.48" x2="178.87" y2="158.83"/></g></g></svg>