<svg xmlns="http://www.w3.org/2000/svg" xmlns:xlink="http://www.w3.org/1999/xlink" viewBox="0 0 622.35 336.25"><defs><style>.cls-1{fill:url(#New_Gradient_Swatch_copy);}.cls-2{fill:#57aff7;}.cls-3{fill:url(#New_Gradient_Swatch_copy-2);}.cls-4{fill:#272c34;}.cls-5,.cls-6{fill:#67eaec;}.cls-6{opacity:0.09;}.cls-7{fill:url(#New_Gradient_Swatch_copy-3);}.cls-8{fill:url(#New_Gradient_Swatch_copy-4);}.cls-9{opacity:0.4;}.cls-10{fill:url(#linear-gradient);}.cls-11{fill:url(#linear-gradient-2);}.cls-12{fill:url(#New_Gradient_Swatch_copy-5);}.cls-13{fill:url(#New_Gradient_Swatch_copy-6);}.cls-14{fill:url(#New_Gradient_Swatch_copy-7);}.cls-15{fill:url(#New_Gradient_Swatch);}.cls-16{fill:#424b4f;opacity:0.5;}.cls-17{fill:url(#New_Gradient_Swatch-2);}.cls-18{fill:#f5ffff;}.cls-19{fill:url(#New_Gradient_Swatch-3);}.cls-20{fill:url(#linear-gradient-3);}.cls-21{fill:url(#linear-gradient-4);}.cls-22{fill:url(#linear-gradient-5);}.cls-23{fill:url(#linear-gradient-6);}.cls-24{fill:url(#linear-gradient-7);}.cls-25{fill:url(#New_Gradient_Swatch-4);}.cls-26{fill:url(#New_Gradient_Swatch-5);}.cls-27{fill:url(#New_Gradient_Swatch-6);}.cls-28{fill:url(#linear-gradient-8);}.cls-29{fill:url(#linear-gradient-9);}.cls-30{fill:url(#linear-gradient-10);}.cls-31{fill:url(#linear-gradient-11);}.cls-32{fill:url(#linear-gradient-12);}.cls-33{fill:url(#New_Gradient_Swatch-7);}.cls-34{fill:url(#New_Gradient_Swatch-8);}.cls-35{fill:url(#New_Gradient_Swatch-9);}.cls-36{fill:url(#linear-gradient-13);}.cls-37{fill:url(#linear-gradient-14);}.cls-38{fill:url(#linear-gradient-15);}.cls-39{fill:url(#linear-gradient-16);}.cls-40{fill:url(#linear-gradient-17);}.cls-41{fill:url(#New_Gradient_Swatch-10);}.cls-42{fill:url(#New_Gradient_Swatch-11);}.cls-43{fill:url(#New_Gradient_Swatch-12);}.cls-44{fill:url(#linear-gradient-18);}.cls-45{fill:url(#linear-gradient-19);}.cls-46{fill:url(#linear-gradient-20);}.cls-47{fill:url(#linear-gradient-21);}.cls-48{fill:url(#linear-gradient-22);}.cls-49{fill:url(#New_Gradient_Swatch-13);}.cls-50{fill:url(#New_Gradient_Swatch-14);}.cls-51{fill:url(#New_Gradient_Swatch-15);}.cls-52{fill:url(#linear-gradient-23);}.cls-53{fill:url(#linear-gradient-24);}.cls-54{fill:url(#linear-gradient-25);}.cls-55{fill:url(#linear-gradient-26);}.cls-56{fill:url(#linear-gradient-27);}.cls-57{fill:url(#New_Gradient_Swatch-16);}.cls-58{fill:url(#New_Gradient_Swatch-17);}.cls-59{fill:url(#New_Gradient_Swatch-18);}.cls-60{fill:url(#linear-gradient-28);}.cls-61{fill:url(#linear-gradient-29);}.cls-62{fill:url(#linear-gradient-30);}.cls-63{fill:url(#linear-gradient-31);}.cls-64{fill:url(#linear-gradient-32);}.cls-65{fill:url(#New_Gradient_Swatch-19);}.cls-66{fill:url(#New_Gradient_Swatch-20);}.cls-67{fill:url(#New_Gradient_Swatch-21);}.cls-68{fill:url(#linear-gradient-33);}.cls-69{fill:url(#linear-gradient-34);}.cls-70{fill:url(#linear-gradient-35);}.cls-71{fill:url(#linear-gradient-36);}.cls-72{fill:url(#linear-gradient-37);}.cls-73{fill:url(#New_Gradient_Swatch-22);}.cls-74{fill:url(#New_Gradient_Swatch-23);}.cls-75{fill:url(#New_Gradient_Swatch-24);}.cls-76{fill:url(#linear-gradient-38);}.cls-77{fill:url(#linear-gradient-39);}.cls-78{fill:url(#linear-gradient-40);}.cls-79{fill:url(#linear-gradient-41);}.cls-80{fill:url(#linear-gradient-42);}.cls-81{fill:url(#New_Gradient_Swatch-25);}.cls-82{fill:url(#New_Gradient_Swatch-26);}.cls-83{fill:url(#New_Gradient_Swatch-27);}.cls-84{fill:url(#linear-gradient-43);}.cls-85{fill:url(#linear-gradient-44);}.cls-86{fill:url(#linear-gradient-45);}.cls-87{fill:url(#linear-gradient-46);}.cls-88{fill:url(#linear-gradient-47);}.cls-89{fill:url(#New_Gradient_Swatch-28);}.cls-90{fill:url(#New_Gradient_Swatch-29);}.cls-91{fill:url(#New_Gradient_Swatch-30);}.cls-92{fill:url(#linear-gradient-48);}.cls-93{fill:url(#linear-gradient-49);}.cls-94{fill:url(#linear-gradient-50);}.cls-95{fill:url(#linear-gradient-51);}.cls-96{fill:url(#linear-gradient-52);}.cls-97{fill:url(#New_Gradient_Swatch-31);}.cls-98{fill:url(#New_Gradient_Swatch-32);}.cls-99{fill:url(#New_Gradient_Swatch-33);}.cls-100{fill:url(#linear-gradient-53);}.cls-101{fill:url(#linear-gradient-54);}.cls-102{fill:url(#linear-gradient-55);}.cls-103{fill:url(#linear-gradient-56);}.cls-104{fill:url(#linear-gradient-57);}.cls-105{fill:url(#New_Gradient_Swatch-34);}.cls-106{fill:url(#New_Gradient_Swatch-35);}.cls-107{fill:url(#New_Gradient_Swatch-36);}.cls-108{fill:url(#linear-gradient-58);}.cls-109{fill:url(#linear-gradient-59);}.cls-110{fill:url(#linear-gradient-60);}.cls-111{fill:url(#linear-gradient-61);}.cls-112{fill:url(#linear-gradient-62);}.cls-113{fill:url(#New_Gradient_Swatch-37);}.cls-114{fill:url(#New_Gradient_Swatch-38);}.cls-115{fill:url(#New_Gradient_Swatch-39);}.cls-116{fill:url(#linear-gradient-63);}.cls-117{fill:url(#linear-gradient-64);}.cls-118{fill:url(#linear-gradient-65);}.cls-119{fill:url(#linear-gradient-66);}.cls-120{fill:url(#linear-gradient-67);}.cls-121{fill:url(#New_Gradient_Swatch-40);}.cls-122{fill:url(#New_Gradient_Swatch-41);}.cls-123{fill:url(#New_Gradient_Swatch-42);}.cls-124{fill:url(#linear-gradient-68);}.cls-125{fill:url(#linear-gradient-69);}.cls-126{fill:url(#linear-gradient-70);}.cls-127{fill:url(#linear-gradient-71);}.cls-128{fill:url(#linear-gradient-72);}</style><linearGradient id="New_Gradient_Swatch_copy" x1="311.1" y1="114.02" x2="0.3" y2="114.02" gradientUnits="userSpaceOnUse"><stop offset="0" stop-color="#2e3d4a"/><stop offset="1" stop-color="#232329"/></linearGradient><linearGradient id="New_Gradient_Swatch_copy-2" x1="156.2" y1="203.52" x2="156.2" y2="203.52" xlink:href="#New_Gradient_Swatch_copy"/><linearGradient id="New_Gradient_Swatch_copy-3" x1="-1631.13" y1="153.72" x2="-1542.64" y2="153.72" gradientTransform="matrix(-1, 0, 0, 1, -1120.67, 0)" xlink:href="#New_Gradient_Swatch_copy"/><linearGradient id="New_Gradient_Swatch_copy-4" x1="-1631.13" y1="129.72" x2="-1542.64" y2="129.72" gradientTransform="matrix(-1, 0, 0, 1, -1120.67, 0)" xlink:href="#New_Gradient_Swatch_copy"/><linearGradient id="linear-gradient" x1="-1699.99" y1="67.68" x2="-1653.26" y2="67.68" gradientTransform="translate(2232.58)" gradientUnits="userSpaceOnUse"><stop offset="0" stop-color="#39e6e0"/><stop offset="1" stop-color="#232329"/></linearGradient><linearGradient id="linear-gradient-2" x1="-1691.63" y1="27.63" x2="-1661.62" y2="27.63" xlink:href="#linear-gradient"/><linearGradient id="New_Gradient_Swatch_copy-5" x1="495.6" y1="222.23" x2="184.81" y2="222.23" xlink:href="#New_Gradient_Swatch_copy"/><linearGradient id="New_Gradient_Swatch_copy-6" x1="340.71" y1="311.73" x2="340.71" y2="311.73" xlink:href="#New_Gradient_Swatch_copy"/><linearGradient id="New_Gradient_Swatch_copy-7" x1="340.21" y1="287.95" x2="340.21" y2="108.51" xlink:href="#New_Gradient_Swatch_copy"/><linearGradient id="New_Gradient_Swatch" x1="104.41" y1="89.3" x2="163.29" y2="89.3" gradientUnits="userSpaceOnUse"><stop offset="0" stop-color="#5c8ee4"/><stop offset="1" stop-color="#67eaec"/></linearGradient><linearGradient id="New_Gradient_Swatch-2" x1="104.41" y1="78.46" x2="163.29" y2="78.46" xlink:href="#New_Gradient_Swatch"/><linearGradient id="New_Gradient_Swatch-3" x1="158.14" y1="71.59" x2="109.56" y2="71.59" xlink:href="#New_Gradient_Swatch"/><linearGradient id="linear-gradient-3" x1="-2469.59" y1="379.92" x2="-2464.68" y2="360.09" gradientTransform="matrix(-0.14, 0.58, -1.75, 0.14, 425.3, 1464.09)" gradientUnits="userSpaceOnUse"><stop offset="0" stop-color="#5fa5e6"/><stop offset="1" stop-color="#67eaec"/></linearGradient><linearGradient id="linear-gradient-4" x1="-2461.52" y1="367.09" x2="-2460.45" y2="362.78" xlink:href="#linear-gradient-3"/><linearGradient id="linear-gradient-5" x1="-2475.08" y1="374.92" x2="-2474.02" y2="370.61" xlink:href="#linear-gradient-3"/><linearGradient id="linear-gradient-6" x1="-2460.52" y1="369.31" x2="-2459.46" y2="365.01" xlink:href="#linear-gradient-3"/><linearGradient id="linear-gradient-7" x1="-2474.09" y1="377.14" x2="-2473.02" y2="372.84" xlink:href="#linear-gradient-3"/><linearGradient id="New_Gradient_Swatch-4" x1="104.41" y1="84.62" x2="163.29" y2="84.62" xlink:href="#New_Gradient_Swatch"/><linearGradient id="New_Gradient_Swatch-5" x1="104.41" y1="73.78" x2="163.29" y2="73.78" xlink:href="#New_Gradient_Swatch"/><linearGradient id="New_Gradient_Swatch-6" x1="158.14" y1="66.91" x2="109.56" y2="66.91" xlink:href="#New_Gradient_Swatch"/><linearGradient id="linear-gradient-8" x1="-2477.78" y1="380.59" x2="-2472.88" y2="360.76" xlink:href="#linear-gradient-3"/><linearGradient id="linear-gradient-9" x1="-2469.72" y1="367.77" x2="-2468.65" y2="363.46" xlink:href="#linear-gradient-3"/><linearGradient id="linear-gradient-10" x1="-2483.28" y1="375.6" x2="-2482.21" y2="371.29" xlink:href="#linear-gradient-3"/><linearGradient id="linear-gradient-11" x1="-2468.72" y1="369.99" x2="-2467.66" y2="365.68" xlink:href="#linear-gradient-3"/><linearGradient id="linear-gradient-12" x1="-2482.28" y1="377.82" x2="-2481.22" y2="373.51" xlink:href="#linear-gradient-3"/><linearGradient id="New_Gradient_Swatch-7" x1="289.02" y1="197.51" x2="347.9" y2="197.51" xlink:href="#New_Gradient_Swatch"/><linearGradient id="New_Gradient_Swatch-8" x1="289.02" y1="186.67" x2="347.9" y2="186.67" xlink:href="#New_Gradient_Swatch"/><linearGradient id="New_Gradient_Swatch-9" x1="342.75" y1="179.8" x2="294.17" y2="179.8" xlink:href="#New_Gradient_Swatch"/><linearGradient id="linear-gradient-13" x1="-2253.57" y1="256.61" x2="-2248.67" y2="236.78" xlink:href="#linear-gradient-3"/><linearGradient id="linear-gradient-14" x1="-2245.51" y1="243.78" x2="-2244.44" y2="239.48" xlink:href="#linear-gradient-3"/><linearGradient id="linear-gradient-15" x1="-2259.07" y1="251.61" x2="-2258" y2="247.31" xlink:href="#linear-gradient-3"/><linearGradient id="linear-gradient-16" x1="-2244.51" y1="246" x2="-2243.45" y2="241.7" xlink:href="#linear-gradient-3"/><linearGradient id="linear-gradient-17" x1="-2258.07" y1="253.83" x2="-2257.01" y2="249.53" xlink:href="#linear-gradient-3"/><linearGradient id="New_Gradient_Swatch-10" x1="289.02" y1="192.83" x2="347.9" y2="192.83" xlink:href="#New_Gradient_Swatch"/><linearGradient id="New_Gradient_Swatch-11" x1="289.02" y1="181.99" x2="347.9" y2="181.99" xlink:href="#New_Gradient_Swatch"/><linearGradient id="New_Gradient_Swatch-12" x1="342.75" y1="175.12" x2="294.17" y2="175.12" xlink:href="#New_Gradient_Swatch"/><linearGradient id="linear-gradient-18" x1="-2261.77" y1="257.28" x2="-2256.86" y2="237.45" xlink:href="#linear-gradient-3"/><linearGradient id="linear-gradient-19" x1="-2253.7" y1="244.46" x2="-2252.64" y2="240.15" xlink:href="#linear-gradient-3"/><linearGradient id="linear-gradient-20" x1="-2267.26" y1="252.29" x2="-2266.2" y2="247.98" xlink:href="#linear-gradient-3"/><linearGradient id="linear-gradient-21" x1="-2252.71" y1="246.68" x2="-2251.64" y2="242.37" xlink:href="#linear-gradient-3"/><linearGradient id="linear-gradient-22" x1="-2266.27" y1="254.51" x2="-2265.2" y2="250.2" xlink:href="#linear-gradient-3"/><linearGradient id="New_Gradient_Swatch-13" x1="289.02" y1="188.15" x2="347.9" y2="188.15" xlink:href="#New_Gradient_Swatch"/><linearGradient id="New_Gradient_Swatch-14" x1="289.02" y1="177.31" x2="347.9" y2="177.31" xlink:href="#New_Gradient_Swatch"/><linearGradient id="New_Gradient_Swatch-15" x1="342.75" y1="170.43" x2="294.17" y2="170.43" xlink:href="#New_Gradient_Swatch"/><linearGradient id="linear-gradient-23" x1="-2269.97" y1="257.96" x2="-2265.06" y2="238.13" xlink:href="#linear-gradient-3"/><linearGradient id="linear-gradient-24" x1="-2261.9" y1="245.14" x2="-2260.83" y2="240.83" xlink:href="#linear-gradient-3"/><linearGradient id="linear-gradient-25" x1="-2275.46" y1="252.97" x2="-2274.4" y2="248.66" xlink:href="#linear-gradient-3"/><linearGradient id="linear-gradient-26" x1="-2260.9" y1="247.35" x2="-2259.84" y2="243.05" xlink:href="#linear-gradient-3"/><linearGradient id="linear-gradient-27" x1="-2274.47" y1="255.18" x2="-2273.4" y2="250.88" xlink:href="#linear-gradient-3"/><linearGradient id="New_Gradient_Swatch-16" x1="289.02" y1="183.46" x2="347.9" y2="183.46" xlink:href="#New_Gradient_Swatch"/><linearGradient id="New_Gradient_Swatch-17" x1="289.02" y1="172.62" x2="347.9" y2="172.62" xlink:href="#New_Gradient_Swatch"/><linearGradient id="New_Gradient_Swatch-18" x1="342.75" y1="165.75" x2="294.17" y2="165.75" xlink:href="#New_Gradient_Swatch"/><linearGradient id="linear-gradient-28" x1="-2278.16" y1="258.64" x2="-2273.26" y2="238.8" xlink:href="#linear-gradient-3"/><linearGradient id="linear-gradient-29" x1="-2270.1" y1="245.81" x2="-2269.03" y2="241.5" xlink:href="#linear-gradient-3"/><linearGradient id="linear-gradient-30" x1="-2283.66" y1="253.64" x2="-2282.59" y2="249.33" xlink:href="#linear-gradient-3"/><linearGradient id="linear-gradient-31" x1="-2269.1" y1="248.03" x2="-2268.04" y2="243.73" xlink:href="#linear-gradient-3"/><linearGradient id="linear-gradient-32" x1="-2282.66" y1="255.86" x2="-2281.6" y2="251.56" xlink:href="#linear-gradient-3"/><linearGradient id="New_Gradient_Swatch-19" x1="289.02" y1="178.8" x2="347.9" y2="178.8" xlink:href="#New_Gradient_Swatch"/><linearGradient id="New_Gradient_Swatch-20" x1="289.02" y1="167.96" x2="347.9" y2="167.96" xlink:href="#New_Gradient_Swatch"/><linearGradient id="New_Gradient_Swatch-21" x1="342.75" y1="161.09" x2="294.17" y2="161.09" xlink:href="#New_Gradient_Swatch"/><linearGradient id="linear-gradient-33" x1="-2286.32" y1="259.31" x2="-2281.41" y2="239.48" xlink:href="#linear-gradient-3"/><linearGradient id="linear-gradient-34" x1="-2278.25" y1="246.48" x2="-2277.18" y2="242.18" xlink:href="#linear-gradient-3"/><linearGradient id="linear-gradient-35" x1="-2291.81" y1="254.31" x2="-2290.75" y2="250.01" xlink:href="#linear-gradient-3"/><linearGradient id="linear-gradient-36" x1="-2277.25" y1="248.7" x2="-2276.19" y2="244.4" xlink:href="#linear-gradient-3"/><linearGradient id="linear-gradient-37" x1="-2290.82" y1="256.53" x2="-2289.75" y2="252.23" xlink:href="#linear-gradient-3"/><linearGradient id="New_Gradient_Swatch-22" x1="332.71" y1="220.6" x2="391.6" y2="220.6" xlink:href="#New_Gradient_Swatch"/><linearGradient id="New_Gradient_Swatch-23" x1="332.71" y1="209.76" x2="391.59" y2="209.76" xlink:href="#New_Gradient_Swatch"/><linearGradient id="New_Gradient_Swatch-24" x1="386.44" y1="202.89" x2="337.87" y2="202.89" xlink:href="#New_Gradient_Swatch"/><linearGradient id="linear-gradient-38" x1="-2206.87" y1="227.79" x2="-2201.96" y2="207.96" xlink:href="#linear-gradient-3"/><linearGradient id="linear-gradient-39" x1="-2198.8" y1="214.96" x2="-2197.73" y2="210.66" xlink:href="#linear-gradient-3"/><linearGradient id="linear-gradient-40" x1="-2212.36" y1="222.79" x2="-2211.3" y2="218.49" xlink:href="#linear-gradient-3"/><linearGradient id="linear-gradient-41" x1="-2197.8" y1="217.18" x2="-2196.74" y2="212.88" xlink:href="#linear-gradient-3"/><linearGradient id="linear-gradient-42" x1="-2211.37" y1="225.01" x2="-2210.3" y2="220.71" xlink:href="#linear-gradient-3"/><linearGradient id="New_Gradient_Swatch-25" x1="332.71" y1="215.92" x2="391.6" y2="215.92" xlink:href="#New_Gradient_Swatch"/><linearGradient id="New_Gradient_Swatch-26" x1="332.71" y1="205.07" x2="391.59" y2="205.07" xlink:href="#New_Gradient_Swatch"/><linearGradient id="New_Gradient_Swatch-27" x1="386.44" y1="198.2" x2="337.87" y2="198.2" xlink:href="#New_Gradient_Swatch"/><linearGradient id="linear-gradient-43" x1="-2215.06" y1="228.46" x2="-2210.16" y2="208.63" xlink:href="#linear-gradient-3"/><linearGradient id="linear-gradient-44" x1="-2207" y1="215.64" x2="-2205.93" y2="211.33" xlink:href="#linear-gradient-3"/><linearGradient id="linear-gradient-45" x1="-2220.56" y1="223.47" x2="-2219.49" y2="219.16" xlink:href="#linear-gradient-3"/><linearGradient id="linear-gradient-46" x1="-2206" y1="217.86" x2="-2204.94" y2="213.55" xlink:href="#linear-gradient-3"/><linearGradient id="linear-gradient-47" x1="-2219.56" y1="225.69" x2="-2218.5" y2="221.38" xlink:href="#linear-gradient-3"/><linearGradient id="New_Gradient_Swatch-28" x1="332.71" y1="211.23" x2="391.6" y2="211.23" xlink:href="#New_Gradient_Swatch"/><linearGradient id="New_Gradient_Swatch-29" x1="332.71" y1="200.39" x2="391.59" y2="200.39" xlink:href="#New_Gradient_Swatch"/><linearGradient id="New_Gradient_Swatch-30" x1="386.44" y1="193.52" x2="337.87" y2="193.52" xlink:href="#New_Gradient_Swatch"/><linearGradient id="linear-gradient-48" x1="-2223.26" y1="229.14" x2="-2218.35" y2="209.31" xlink:href="#linear-gradient-3"/><linearGradient id="linear-gradient-49" x1="-2215.19" y1="216.32" x2="-2214.13" y2="212.01" xlink:href="#linear-gradient-3"/><linearGradient id="linear-gradient-50" x1="-2228.75" y1="224.15" x2="-2227.69" y2="219.84" xlink:href="#linear-gradient-3"/><linearGradient id="linear-gradient-51" x1="-2214.2" y1="218.53" x2="-2213.13" y2="214.23" xlink:href="#linear-gradient-3"/><linearGradient id="linear-gradient-52" x1="-2227.76" y1="226.36" x2="-2226.69" y2="222.06" xlink:href="#linear-gradient-3"/><linearGradient id="New_Gradient_Swatch-31" x1="332.71" y1="206.55" x2="391.6" y2="206.55" xlink:href="#New_Gradient_Swatch"/><linearGradient id="New_Gradient_Swatch-32" x1="332.71" y1="195.71" x2="391.59" y2="195.71" xlink:href="#New_Gradient_Swatch"/><linearGradient id="New_Gradient_Swatch-33" x1="386.44" y1="188.84" x2="337.87" y2="188.84" xlink:href="#New_Gradient_Swatch"/><linearGradient id="linear-gradient-53" x1="-2231.46" y1="229.82" x2="-2226.55" y2="209.98" xlink:href="#linear-gradient-3"/><linearGradient id="linear-gradient-54" x1="-2223.39" y1="216.99" x2="-2222.32" y2="212.68" xlink:href="#linear-gradient-3"/><linearGradient id="linear-gradient-55" x1="-2236.95" y1="224.82" x2="-2235.89" y2="220.51" xlink:href="#linear-gradient-3"/><linearGradient id="linear-gradient-56" x1="-2222.39" y1="219.21" x2="-2221.33" y2="214.91" xlink:href="#linear-gradient-3"/><linearGradient id="linear-gradient-57" x1="-2235.96" y1="227.04" x2="-2234.89" y2="222.74" xlink:href="#linear-gradient-3"/><linearGradient id="New_Gradient_Swatch-34" x1="332.71" y1="201.89" x2="391.6" y2="201.89" xlink:href="#New_Gradient_Swatch"/><linearGradient id="New_Gradient_Swatch-35" x1="332.71" y1="191.05" x2="391.59" y2="191.05" xlink:href="#New_Gradient_Swatch"/><linearGradient id="New_Gradient_Swatch-36" x1="386.44" y1="184.18" x2="337.87" y2="184.18" xlink:href="#New_Gradient_Swatch"/><linearGradient id="linear-gradient-58" x1="-2239.61" y1="230.49" x2="-2234.7" y2="210.66" xlink:href="#linear-gradient-3"/><linearGradient id="linear-gradient-59" x1="-2231.54" y1="217.66" x2="-2230.48" y2="213.36" xlink:href="#linear-gradient-3"/><linearGradient id="linear-gradient-60" x1="-2245.1" y1="225.49" x2="-2244.04" y2="221.19" xlink:href="#linear-gradient-3"/><linearGradient id="linear-gradient-61" x1="-2230.55" y1="219.88" x2="-2229.48" y2="215.58" xlink:href="#linear-gradient-3"/><linearGradient id="linear-gradient-62" x1="-2244.11" y1="227.71" x2="-2243.04" y2="223.41" xlink:href="#linear-gradient-3"/><linearGradient id="New_Gradient_Swatch-37" x1="332.71" y1="197.21" x2="391.6" y2="197.21" xlink:href="#New_Gradient_Swatch"/><linearGradient id="New_Gradient_Swatch-38" x1="332.71" y1="186.36" x2="391.59" y2="186.36" xlink:href="#New_Gradient_Swatch"/><linearGradient id="New_Gradient_Swatch-39" x1="386.44" y1="179.49" x2="337.87" y2="179.49" xlink:href="#New_Gradient_Swatch"/><linearGradient id="linear-gradient-63" x1="-2247.81" y1="231.16" x2="-2242.9" y2="211.33" xlink:href="#linear-gradient-3"/><linearGradient id="linear-gradient-64" x1="-2239.74" y1="218.34" x2="-2238.67" y2="214.03" xlink:href="#linear-gradient-3"/><linearGradient id="linear-gradient-65" x1="-2253.3" y1="226.17" x2="-2252.24" y2="221.86" xlink:href="#linear-gradient-3"/><linearGradient id="linear-gradient-66" x1="-2238.74" y1="220.56" x2="-2237.68" y2="216.25" xlink:href="#linear-gradient-3"/><linearGradient id="linear-gradient-67" x1="-2252.31" y1="228.39" x2="-2251.24" y2="224.08" xlink:href="#linear-gradient-3"/><linearGradient id="New_Gradient_Swatch-40" x1="332.71" y1="192.52" x2="391.6" y2="192.52" xlink:href="#New_Gradient_Swatch"/><linearGradient id="New_Gradient_Swatch-41" x1="332.71" y1="181.68" x2="391.59" y2="181.68" xlink:href="#New_Gradient_Swatch"/><linearGradient id="New_Gradient_Swatch-42" x1="386.44" y1="174.81" x2="337.87" y2="174.81" xlink:href="#New_Gradient_Swatch"/><linearGradient id="linear-gradient-68" x1="-2256" y1="231.84" x2="-2251.1" y2="212.01" xlink:href="#linear-gradient-3"/><linearGradient id="linear-gradient-69" x1="-2247.94" y1="219.02" x2="-2246.87" y2="214.71" xlink:href="#linear-gradient-3"/><linearGradient id="linear-gradient-70" x1="-2261.5" y1="226.85" x2="-2260.43" y2="222.54" xlink:href="#linear-gradient-3"/><linearGradient id="linear-gradient-71" x1="-2246.94" y1="221.23" x2="-2245.88" y2="216.93" xlink:href="#linear-gradient-3"/><linearGradient id="linear-gradient-72" x1="-2260.5" y1="229.06" x2="-2259.44" y2="224.76" xlink:href="#linear-gradient-3"/></defs><title>03_1</title><g id="Layer_2" data-name="Layer 2"><g id="ilus"><polygon class="cls-1" points="311.1 90.3 155.21 0.3 0.3 89.74 0.3 137.74 156.18 227.74 311.1 138.3 311.1 90.3"/><path class="cls-2" d="M156.18,228a.3.3,0,0,1-.15,0L.15,138a.3.3,0,0,1-.15-.26v-48a.3.3,0,0,1,.15-.26L155.06,0a.3.3,0,0,1,.3,0L311.25,90a.3.3,0,0,1,.15.26v48a.3.3,0,0,1-.15.26L156.33,228A.3.3,0,0,1,156.18,228ZM.6,137.56l155.58,89.83L310.8,138.13V90.47L155.21.65.6,89.91Z"/><line class="cls-3" x1="156.2" y1="179.52" x2="156.2" y2="227.52"/><path class="cls-2" d="M156.2,227.82a.3.3,0,0,1-.3-.3v-48a.3.3,0,0,1,.6,0v48A.3.3,0,0,1,156.2,227.82Z"/><path class="cls-2" d="M156.18,180a.3.3,0,0,1-.15,0L.15,90a.3.3,0,0,1,0-.52L155.06,0a.3.3,0,0,1,.3,0L311.25,90a.3.3,0,0,1,0,.52L156.33,180A.3.3,0,0,1,156.18,180ZM.9,89.74l155.28,89.65L310.5,90.3,155.21.65Z"/><polygon class="cls-2" points="120.76 76.25 134.72 84.32 136.86 83.08 122.9 75.02 120.76 76.25"/><path class="cls-2" d="M169.36,84.31q.6-3.12-3.4-5.42a16.27,16.27,0,0,0-9.41-2A21.65,21.65,0,0,0,147,79.67q-4.16,2.4-4.78,5.51t3.42,5.43a16.3,16.3,0,0,0,9.39,2,21.59,21.59,0,0,0,9.56-2.75Q168.77,87.43,169.36,84.31Zm-14.48,6.34a11.58,11.58,0,0,1-7.13-1.25q-2.92-1.69-2.17-4.12a7.73,7.73,0,0,1,3.84-4.22,18.18,18.18,0,0,1,7.3-2.22,11.58,11.58,0,0,1,7.13,1.25q2.92,1.68,2.17,4.12a7.73,7.73,0,0,1-3.84,4.22A18.17,18.17,0,0,1,154.89,90.65Z"/><path class="cls-2" d="M190.5,94.48q-.64-1.8-3.68-3.55a16,16,0,0,0-6.17-2,9.53,9.53,0,0,0-6,1.12q-2,1.15-1.92,2.53A4,4,0,0,0,174,95.23q1.29,1.27,2.67,2.51a5.68,5.68,0,0,1,1.76,2.45q.37,1.21-1.12,2.06a6.9,6.9,0,0,1-4.17.9,10.05,10.05,0,0,1-4.18-1.31q-2.77-1.6-3.4-3t1.84-2.88l-2.3-1.33q-3.28,1.9-2.7,4t4,4.07a17.55,17.55,0,0,0,6.88,2.32,10.88,10.88,0,0,0,6.79-1.48q1.95-1.12,1.94-2.54a4,4,0,0,0-1.26-2.73q-1.25-1.32-2.6-2.56a7.26,7.26,0,0,1-1.83-2.38q-.49-1.14.81-1.89a5.69,5.69,0,0,1,3.79-.66,11,11,0,0,1,3.91,1.36q4.26,2.46,1.71,4.6L188.85,98Q191.14,96.28,190.5,94.48Z"/><polygon class="cls-2" points="18.26 128.03 15.99 116.56 13.53 115.14 17.22 131.47 19.29 132.66 22.95 120.58 20.5 119.16 18.26 128.03"/><polygon class="cls-2" points="26.85 120.6 26.85 123.28 30.34 123.7 30.34 139.05 32.71 140.41 32.71 121.24 32.41 121.07 26.85 120.6"/><path class="cls-2" d="M41.29,142q-.65-.38-1-.08a1.31,1.31,0,0,0-.36,1.06,3.07,3.07,0,0,0,.37,1.46,2.61,2.61,0,0,0,1,1.07c.44.26.79.29,1,.1a1.25,1.25,0,0,0,.36-1,3.22,3.22,0,0,0-.36-1.47A2.59,2.59,0,0,0,41.29,142Z"/><path class="cls-2" d="M55.78,145.62A8.48,8.48,0,0,0,54,142.9a2,2,0,0,0,1.58-.8,3.26,3.26,0,0,0,.61-2.07,9.35,9.35,0,0,0-1.22-4.7A8.9,8.9,0,0,0,51.62,132a4.14,4.14,0,0,0-2.33-.67,2,2,0,0,0-1.62.95,4.15,4.15,0,0,0-.58,2.34L49.47,136a1.74,1.74,0,0,1,.61-1.58,1.49,1.49,0,0,1,1.58.17,4,4,0,0,1,1.63,1.69,5.35,5.35,0,0,1,.53,2.43c0,.94-.22,1.54-.64,1.8a1.73,1.73,0,0,1-1.74-.24L50,139.38v2.52l1.4.81a5.12,5.12,0,0,1,2,2,5.49,5.49,0,0,1,.66,2.7c0,1-.21,1.64-.63,1.92s-1,.21-1.74-.21A4.46,4.46,0,0,1,50,147.3a5,5,0,0,1-.63-2.41L47,143.52a9.06,9.06,0,0,0,1.31,4.67,9.25,9.25,0,0,0,3.36,3.41q2.14,1.24,3.46.47t1.31-3.34A8.21,8.21,0,0,0,55.78,145.62Z"/><path class="cls-2" d="M154.19,122h0c-1.34,0-2.69-.06-4-.13a.5.5,0,0,1-.47-.53.49.49,0,0,1,.53-.47c1.32.07,2.65.12,4,.13a.5.5,0,0,1,0,1Zm5-.07a.5.5,0,0,1,0-1c1.32-.05,2.66-.14,4-.25a.49.49,0,0,1,.54.46.5.5,0,0,1-.46.54c-1.33.11-2.68.19-4,.25Zm-14-.46h-.05c-1.33-.14-2.67-.32-4-.52a.5.5,0,0,1,.15-1c1.3.2,2.63.37,3.95.52a.5.5,0,0,1-.05,1Zm22.94-.34a.5.5,0,0,1-.07-1c1.31-.18,2.63-.4,3.92-.63a.5.5,0,1,1,.18,1c-1.31.24-2.64.46-4,.64Zm-31.83-1.09h-.11c-1.32-.28-2.64-.6-3.92-.94a.5.5,0,1,1,.26-1c1.26.34,2.56.65,3.87.93a.5.5,0,0,1-.1,1Zm40.66-.61a.5.5,0,0,1-.12-1c1.29-.32,2.58-.68,3.83-1.05a.5.5,0,1,1,.29,1c-1.27.38-2.57.74-3.88,1.07Zm-49.34-1.79-.16,0c-1.28-.44-2.55-.92-3.77-1.42a.5.5,0,0,1,.38-.92c1.2.49,2.45,1,3.72,1.4a.5.5,0,0,1-.16,1Zm57.92-.89a.5.5,0,0,1-.18-1c1.25-.48,2.48-1,3.66-1.53a.5.5,0,0,1,.41.91c-1.2.55-2.45,1.07-3.72,1.55A.51.51,0,0,1,185.57,116.79Zm-66.21-2.6a.5.5,0,0,1-.23-.06c-.82-.42-1.64-.86-2.42-1.32l-1.1-.65a.5.5,0,0,1,.52-.85l1.08.64c.77.44,1.57.88,2.38,1.29a.5.5,0,0,1-.23.94Zm74.36-1.2a.5.5,0,0,1-.24-.94l.44-.25c1-.59,2-1.2,2.92-1.82a.5.5,0,0,1,.56.83c-.94.64-1.95,1.26-3,1.86l-.46.26A.5.5,0,0,1,193.72,113Zm-82-3.58a.5.5,0,0,1-.31-.1,37.53,37.53,0,0,1-3.06-2.65.5.5,0,0,1,.7-.72,36.57,36.57,0,0,0,3,2.58.5.5,0,0,1-.31.9Zm89.34-1.55a.5.5,0,0,1-.33-.88,33.86,33.86,0,0,0,2.83-2.74.5.5,0,1,1,.74.67,34.87,34.87,0,0,1-2.91,2.82A.5.5,0,0,1,201.09,107.86ZM105.43,103a.5.5,0,0,1-.4-.2,25,25,0,0,1-2.15-3.46.5.5,0,0,1,.89-.45,24,24,0,0,0,2.06,3.32.5.5,0,0,1-.4.8ZM207,101.11a.5.5,0,0,1-.42-.77,22.5,22.5,0,0,0,1.79-3.47.5.5,0,0,1,.93.38,23.47,23.47,0,0,1-1.87,3.63A.5.5,0,0,1,207,101.11ZM101.6,95a.5.5,0,0,1-.49-.39,19.15,19.15,0,0,1-.5-4.07.5.5,0,0,1,.49-.51.49.49,0,0,1,.51.49,18.14,18.14,0,0,0,.48,3.85.5.5,0,0,1-.37.6Zm108.53-2.22h-.07a.5.5,0,0,1-.43-.56,17.91,17.91,0,0,0,.16-2.39q0-.75-.06-1.49a.5.5,0,0,1,1-.08q.07.79.07,1.58a18.93,18.93,0,0,1-.17,2.52A.5.5,0,0,1,210.13,92.75ZM101.71,86.06l-.13,0a.5.5,0,0,1-.36-.61,21.31,21.31,0,0,1,1.41-3.84.5.5,0,1,1,.9.43,20.24,20.24,0,0,0-1.34,3.66A.5.5,0,0,1,101.71,86.06Zm107.45-2.17a.5.5,0,0,1-.47-.33A21.51,21.51,0,0,0,207,80a.5.5,0,1,1,.86-.5,22.58,22.58,0,0,1,1.73,3.7.5.5,0,0,1-.47.67ZM105.69,78.06a.5.5,0,0,1-.4-.8A31,31,0,0,1,108,74.19a.5.5,0,0,1,.71.7,29.85,29.85,0,0,0-2.58,3A.5.5,0,0,1,105.69,78.06Zm98.86-1.83a.5.5,0,0,1-.38-.17,32.28,32.28,0,0,0-2.76-2.8.5.5,0,1,1,.67-.74,33.38,33.38,0,0,1,2.85,2.89.5.5,0,0,1-.38.83Zm-92.48-4.48a.5.5,0,0,1-.31-.9c1-.8,2.15-1.58,3.31-2.32a.5.5,0,0,1,.54.84c-1.14.73-2.23,1.49-3.24,2.27A.5.5,0,0,1,112.06,71.75Zm85.75-1.46a.5.5,0,0,1-.28-.09c-1-.73-2.17-1.44-3.34-2.11a.5.5,0,1,1,.5-.87c1.19.69,2.34,1.42,3.41,2.16a.5.5,0,0,1-.29.91Zm-4.66-2.85a.5.5,0,0,1-.24-.06c-1.14-.62-2.33-1.21-3.55-1.76a.5.5,0,0,1,.41-.91c1.24.56,2.46,1.17,3.61,1.79a.5.5,0,0,1-.24.94ZM119.68,67a.5.5,0,0,1-.23-.95c1.17-.6,2.39-1.17,3.65-1.72a.5.5,0,1,1,.4.92c-1.23.53-2.44,1.1-3.59,1.69A.5.5,0,0,1,119.68,67Zm65.26-3.2a.51.51,0,0,1-.17,0c-1.22-.44-2.49-.86-3.77-1.25a.5.5,0,0,1,.29-1c1.3.39,2.58.81,3.82,1.27a.5.5,0,0,1-.17,1Zm-57-.3a.5.5,0,0,1-.16-1c1.25-.43,2.54-.84,3.84-1.21a.5.5,0,0,1,.27,1c-1.28.37-2.56.77-3.79,1.19Zm48.35-2.23h-.11c-1.27-.29-2.58-.56-3.9-.8a.5.5,0,0,1,.18-1c1.33.24,2.66.51,3.94.81a.5.5,0,0,1-.11,1Zm-39.69-.19a.5.5,0,0,1-.11-1c1.29-.28,2.62-.54,3.95-.77a.5.5,0,0,1,.17,1c-1.31.22-2.63.48-3.9.76Zm30.83-1.37h-.06c-1.31-.16-2.64-.29-4-.4a.5.5,0,1,1,.08-1c1.34.11,2.68.24,4,.4a.5.5,0,0,1-.06,1Zm-22-.09a.5.5,0,0,1-.06-1c1.32-.15,2.67-.27,4-.37a.51.51,0,0,1,.53.46.5.5,0,0,1-.46.53c-1.32.09-2.65.21-4,.36Zm13-.56h0q-2-.05-4,0a.5.5,0,1,1,0-1q2,0,4,0a.5.5,0,0,1,0,1Z"/><path class="cls-4" d="M489.89,77.62c-.34-10,6-20,19.16-27.57,25.72-14.85,67.57-14.77,93.47.19,13.11,7.57,19.61,17.5,19.51,27.38,0,0-.16,14.88,0,23,.2,9.87-6.19,19.75-19.18,27.25-25.72,14.85-67.57,14.77-93.47-.19-13-7.49-19.48-17.28-19.52-27.06C489.83,92.5,489.89,77.62,489.89,77.62Z"/><path class="cls-5" d="M556.42,139.23c-17.06,0-34.15-3.77-47.18-11.29-12.64-7.3-19.63-17-19.67-27.32,0-8,0-22.64,0-23-.36-10.55,6.5-20.44,19.31-27.84C534.67,34.92,576.73,35,602.68,50c12.79,7.38,19.77,17.2,19.66,27.65,0,.15-.16,15,0,23,.21,10.43-6.66,20.2-19.33,27.51S573.32,139.23,556.42,139.23Zm-.93-99.95c-16.79,0-33.54,3.67-46.28,11s-19.37,17-19,27.3h0c0,.15-.06,15,0,23,0,10.1,6.92,19.61,19.37,26.8,25.78,14.88,67.57,15,93.17.19,12.47-7.2,19.23-16.78,19-27-.16-8,0-22.86,0-23,.11-10.22-6.77-19.85-19.36-27.12C589.43,43,572.44,39.28,555.49,39.28Z"/><path class="cls-6" d="M489.89,77.62c-.34-10,6-20,19.16-27.57,25.72-14.85,67.57-14.77,93.47.19,13.11,7.57,19.61,17.5,19.51,27.38,0,0-.16,14.88,0,23,.2,9.87-6.19,19.75-19.18,27.25-25.72,14.85-67.57,14.77-93.47-.19-13-7.49-19.48-17.28-19.52-27.06C489.83,92.5,489.89,77.62,489.89,77.62Z"/><polygon class="cls-4" points="420.46 180.12 510.46 128.12 510.46 104.12 420.46 156.12 420.46 180.12"/><path class="cls-5" d="M420.46,180.42a.3.3,0,0,1-.3-.3v-24a.3.3,0,0,1,.15-.26l90-52a.3.3,0,0,1,.45.26v24a.3.3,0,0,1-.15.26l-90,52A.3.3,0,0,1,420.46,180.42Zm.3-24.13V179.6L510.16,128V104.64Z"/><line class="cls-7" x1="510.46" y1="128.12" x2="421.97" y2="179.31"/><path class="cls-5" d="M422,179.61a.3.3,0,0,1-.15-.56l88.49-51.19a.3.3,0,1,1,.3.52l-88.49,51.19A.3.3,0,0,1,422,179.61Z"/><path class="cls-5" d="M420.74,180.32l6-9,.69.32a7.18,7.18,0,0,1,4.16,7.2l-.07.76Z"/><polygon class="cls-6" points="420.46 180.12 510.46 128.12 510.46 104.12 420.46 156.12 420.46 180.12"/><path class="cls-4" d="M509.06,50.05c-25.72,14.85-25.57,39,.33,54s67.75,15,93.47.19,25.57-39-.33-54S534.78,35.2,509.06,50.05Z"/><path class="cls-5" d="M556.42,115.56c-17.06,0-34.15-3.77-47.18-11.29-12.69-7.32-19.67-17.06-19.67-27.41S496.44,57,508.91,49.79l.15.26-.15-.26C534.67,34.92,576.73,35,602.68,50,615.36,57.3,622.35,67,622.35,77.39S615.48,97.26,603,104.46C590.18,111.86,573.32,115.56,556.42,115.56Zm-.93-76.28c-16.79,0-33.54,3.67-46.28,11-12.28,7.09-19,16.52-19,26.55s6.88,19.68,19.37,26.9c25.78,14.88,67.57,15,93.17.19,12.28-7.09,19-16.52,19-26.55s-6.88-19.68-19.37-26.89C589.43,43,572.44,39.28,555.49,39.28Z"/><line class="cls-8" x1="510.46" y1="104.12" x2="421.97" y2="155.31"/><path class="cls-5" d="M422,155.61a.3.3,0,0,1-.15-.56l88.49-51.19a.3.3,0,1,1,.3.52l-88.49,51.19A.3.3,0,0,1,422,155.61Z"/><path class="cls-5" d="M420.74,156.32l6-9,.69.32a7.18,7.18,0,0,1,4.16,7.2l-.07.76Z"/><path class="cls-4" d="M543.5,46.38a19.54,19.54,0,0,0,24.92,0c0-.2,10.88,29,10.91,29.13h0c0,3.46-2.22,6.93-6.79,9.56-9.09,5.25-23.87,5.22-33-.06-4.55-2.63-6.85-6.07-6.89-9.5h0C532.62,75.35,543.45,46.18,543.5,46.38Z"/><path class="cls-5" d="M556.12,89.28c-6.06,0-12.13-1.34-16.76-4-4.45-2.57-6.95-6-7-9.65a.27.27,0,0,1,0-.17c0-.15,4.05-11,5.43-14.67,5.48-14.7,5.48-14.7,5.76-14.7a.35.35,0,0,1,.21.08,19.25,19.25,0,0,0,24.51,0,.48.48,0,0,1,.21-.08c.28,0,.28,0,5.76,14.7,1.38,3.71,5.41,14.52,5.43,14.67a.29.29,0,0,1,0,.09c0,3.72-2.44,7.19-6.93,9.79S562.13,89.28,556.12,89.28Zm-23.2-13.8v0c0,3.48,2.43,6.76,6.74,9.25,9,5.22,23.73,5.25,32.72.06,4.3-2.48,6.66-5.77,6.64-9.27-.29-.8-9.4-25.36-10.71-28.66a19.95,19.95,0,0,1-24.7,0C542.32,50.1,533.6,73.6,532.92,75.47Z"/><circle class="cls-4" cx="555.96" cy="27.63" r="15"/><path class="cls-5" d="M556,42.93a15.3,15.3,0,1,1,15.3-15.3A15.32,15.32,0,0,1,556,42.93Zm0-30a14.71,14.71,0,1,0,14.71,14.71A14.72,14.72,0,0,0,556,12.92Z"/><g class="cls-9"><path class="cls-10" d="M568.41,46.38a19.54,19.54,0,0,1-24.92,0c0-.2-10.88,29-10.91,29.13h0c0,3.46,2.22,6.93,6.79,9.56,9.09,5.25,23.87,5.22,33-.06,4.55-2.63,6.85-6.07,6.89-9.5h0C579.29,75.35,568.46,46.18,568.41,46.38Z"/><circle class="cls-11" cx="555.96" cy="27.63" r="15"/></g><polygon class="cls-12" points="495.6 198.51 339.72 108.51 184.81 197.95 184.81 245.95 340.69 335.95 495.6 246.51 495.6 198.51"/><path class="cls-5" d="M340.69,336.25a.3.3,0,0,1-.15,0l-155.88-90a.3.3,0,0,1-.15-.26v-48a.3.3,0,0,1,.15-.26l154.91-89.44a.3.3,0,0,1,.3,0l155.88,90a.3.3,0,0,1,.15.26v48a.3.3,0,0,1-.15.26L340.84,336.21A.3.3,0,0,1,340.69,336.25ZM185.11,245.77,340.69,335.6,495.3,246.34V198.68L339.72,108.86,185.11,198.12Z"/><line class="cls-13" x1="340.71" y1="287.73" x2="340.71" y2="335.73"/><path class="cls-5" d="M340.71,336a.3.3,0,0,1-.3-.3v-48a.3.3,0,1,1,.6,0v48A.3.3,0,0,1,340.71,336Z"/><polygon class="cls-14" points="340.69 287.95 184.81 197.95 339.72 108.51 495.6 198.51 340.69 287.95"/><path class="cls-5" d="M340.69,288.25a.3.3,0,0,1-.15,0l-155.88-90a.3.3,0,0,1,0-.52l154.91-89.44a.3.3,0,0,1,.3,0l155.88,90a.3.3,0,0,1,0,.52L340.84,288.21A.3.3,0,0,1,340.69,288.25Zm-155.28-90.3L340.69,287.6,495,198.51,339.72,108.86Z"/><polygon class="cls-5" points="305.27 184.46 319.23 192.53 321.37 191.29 307.41 183.23 305.27 184.46"/><path class="cls-5" d="M353.87,192.52q.6-3.12-3.4-5.42a16.27,16.27,0,0,0-9.41-2,21.65,21.65,0,0,0-9.54,2.76q-4.16,2.4-4.78,5.51t3.42,5.43a16.3,16.3,0,0,0,9.39,2,21.59,21.59,0,0,0,9.56-2.75Q353.28,195.64,353.87,192.52Zm-14.48,6.34a11.58,11.58,0,0,1-7.13-1.25q-2.92-1.69-2.17-4.12a7.73,7.73,0,0,1,3.84-4.22,18.17,18.17,0,0,1,7.3-2.22,11.58,11.58,0,0,1,7.13,1.25q2.92,1.68,2.17,4.12a7.73,7.73,0,0,1-3.84,4.22A18.17,18.17,0,0,1,339.4,198.86Z"/><path class="cls-5" d="M375,202.69q-.64-1.8-3.68-3.55a16,16,0,0,0-6.17-2,9.53,9.53,0,0,0-6,1.12q-2,1.15-1.92,2.53a4,4,0,0,0,1.35,2.66q1.29,1.27,2.67,2.51A5.68,5.68,0,0,1,363,208.4q.37,1.21-1.12,2.06a6.9,6.9,0,0,1-4.17.9,10.06,10.06,0,0,1-4.18-1.31q-2.77-1.6-3.4-3t1.84-2.88l-2.3-1.33q-3.28,1.9-2.7,4t4,4.07a17.55,17.55,0,0,0,6.88,2.32,10.88,10.88,0,0,0,6.79-1.48q1.95-1.12,1.94-2.54a4,4,0,0,0-1.26-2.73q-1.25-1.32-2.6-2.56a7.25,7.25,0,0,1-1.83-2.38q-.49-1.14.81-1.89a5.69,5.69,0,0,1,3.79-.66,11,11,0,0,1,3.91,1.36q4.26,2.46,1.71,4.6l2.23,1.29Q375.64,204.49,375,202.69Z"/><polygon class="cls-5" points="202.88 235.35 200.68 224.18 198.28 222.8 201.87 238.7 203.88 239.86 207.45 228.09 205.06 226.71 202.88 235.35"/><polygon class="cls-5" points="211.25 228.12 211.25 230.72 214.65 231.13 214.65 246.08 216.96 247.41 216.96 228.74 216.66 228.57 211.25 228.12"/><path class="cls-5" d="M225.31,249c-.42-.25-.75-.27-1-.08a1.27,1.27,0,0,0-.35,1,3,3,0,0,0,.36,1.42,2.54,2.54,0,0,0,1,1c.43.25.76.28,1,.1a1.22,1.22,0,0,0,.35-1,3.14,3.14,0,0,0-.35-1.44A2.52,2.52,0,0,0,225.31,249Z"/><path class="cls-5" d="M238.94,253.46v-12l-2.39-1.38-6,9.12.07,1.93,6,3.46v4.14l2.31,1.33V256l1.72,1v-2.49Zm-2.31-1.33L233,250l3.45-5.37.17-.31Z"/><path class="cls-5" d="M338.7,230.24h0c-1.34,0-2.69-.06-4-.13a.5.5,0,0,1,.05-1c1.32.07,2.65.12,4,.13a.5.5,0,0,1,0,1Zm5-.07a.5.5,0,0,1,0-1c1.32-.05,2.66-.14,4-.25a.49.49,0,0,1,.54.46.5.5,0,0,1-.46.54c-1.33.11-2.68.19-4,.25Zm-14-.46h-.05c-1.33-.14-2.67-.32-4-.52a.5.5,0,0,1,.15-1c1.3.2,2.63.37,3.95.52a.5.5,0,0,1-.05,1Zm22.94-.33a.5.5,0,0,1-.07-1c1.31-.18,2.63-.4,3.92-.63a.5.5,0,0,1,.18,1c-1.31.24-2.64.46-4,.64Zm-31.83-1.09h-.11c-1.32-.28-2.64-.6-3.92-.94a.5.5,0,1,1,.26-1c1.26.34,2.56.65,3.87.93a.5.5,0,0,1-.1,1Zm40.66-.6a.5.5,0,0,1-.12-1c1.3-.32,2.59-.68,3.83-1.05a.5.5,0,0,1,.29,1c-1.26.38-2.56.74-3.88,1.07Zm-49.34-1.79-.16,0c-1.28-.44-2.55-.92-3.77-1.42a.5.5,0,0,1,.38-.92c1.2.49,2.45,1,3.72,1.4a.5.5,0,0,1-.16,1Zm57.92-.89a.5.5,0,0,1-.18-1c1.25-.48,2.48-1,3.66-1.53a.5.5,0,1,1,.41.91c-1.2.55-2.45,1.07-3.72,1.55A.5.5,0,0,1,370.08,225Zm-66.21-2.6a.5.5,0,0,1-.23-.05c-.82-.42-1.63-.86-2.42-1.32l-1.1-.65a.5.5,0,0,1,.52-.85l1.08.64c.77.45,1.57.88,2.38,1.29a.5.5,0,0,1-.23.95Zm74.36-1.2a.5.5,0,0,1-.25-.94l.44-.25c1-.59,2-1.2,2.92-1.82a.5.5,0,1,1,.56.83c-.94.64-1.95,1.26-3,1.86l-.46.26A.49.49,0,0,1,378.22,221.2Zm-82-3.58a.5.5,0,0,1-.31-.1,37.53,37.53,0,0,1-3.06-2.65.5.5,0,1,1,.7-.72,36.57,36.57,0,0,0,3,2.58.5.5,0,0,1-.31.9Zm89.34-1.55a.5.5,0,0,1-.33-.88,33.86,33.86,0,0,0,2.83-2.74.5.5,0,0,1,.74.67,34.87,34.87,0,0,1-2.91,2.82A.5.5,0,0,1,385.6,216.07Zm-95.66-4.82a.5.5,0,0,1-.4-.2,25,25,0,0,1-2.15-3.46.5.5,0,1,1,.89-.45,24,24,0,0,0,2.06,3.32.5.5,0,0,1-.4.8Zm101.57-1.93a.5.5,0,0,1-.42-.77,22.5,22.5,0,0,0,1.79-3.47.5.5,0,0,1,.93.38,23.47,23.47,0,0,1-1.87,3.63A.5.5,0,0,1,391.51,209.32Zm-105.4-6.14a.5.5,0,0,1-.49-.39,19.15,19.15,0,0,1-.5-4.07.5.5,0,0,1,.49-.51.54.54,0,0,1,.51.49,18.14,18.14,0,0,0,.48,3.85.5.5,0,0,1-.37.6ZM394.64,201h-.07a.5.5,0,0,1-.43-.56,17.91,17.91,0,0,0,.16-2.39q0-.75-.06-1.49a.5.5,0,0,1,1-.08q.07.79.07,1.58a18.93,18.93,0,0,1-.17,2.52A.5.5,0,0,1,394.64,201Zm-108.42-6.69-.13,0a.5.5,0,0,1-.36-.61,21.31,21.31,0,0,1,1.41-3.84.5.5,0,0,1,.9.43,20.24,20.24,0,0,0-1.34,3.66A.5.5,0,0,1,286.21,194.27Zm107.45-2.17a.5.5,0,0,1-.47-.33,21.51,21.51,0,0,0-1.65-3.53.5.5,0,1,1,.86-.5,22.58,22.58,0,0,1,1.73,3.7.5.5,0,0,1-.47.67Zm-103.47-5.83a.5.5,0,0,1-.4-.8,30.86,30.86,0,0,1,2.67-3.06.5.5,0,1,1,.71.7,29.86,29.86,0,0,0-2.58,3A.5.5,0,0,1,290.19,186.27Zm98.86-1.83a.5.5,0,0,1-.38-.17,32.28,32.28,0,0,0-2.76-2.8.5.5,0,0,1,.67-.74,33.38,33.38,0,0,1,2.85,2.89.5.5,0,0,1-.38.83ZM296.57,180a.5.5,0,0,1-.31-.9c1-.8,2.15-1.58,3.31-2.32a.5.5,0,0,1,.54.84c-1.14.73-2.23,1.49-3.24,2.27A.5.5,0,0,1,296.57,180Zm85.75-1.46a.5.5,0,0,1-.28-.09c-1-.73-2.17-1.44-3.34-2.11a.5.5,0,0,1,.5-.87c1.19.69,2.34,1.42,3.41,2.16a.5.5,0,0,1-.29.91Zm-4.66-2.85a.5.5,0,0,1-.24-.06c-1.14-.62-2.33-1.21-3.55-1.76a.5.5,0,1,1,.41-.91c1.24.56,2.46,1.17,3.61,1.79a.5.5,0,0,1-.24.94Zm-73.48-.46a.5.5,0,0,1-.23-.95c1.17-.6,2.39-1.17,3.65-1.72a.5.5,0,0,1,.4.92c-1.23.53-2.44,1.1-3.59,1.69A.5.5,0,0,1,304.19,175.19Zm65.26-3.2a.51.51,0,0,1-.17,0c-1.22-.44-2.49-.86-3.77-1.25a.5.5,0,1,1,.29-1c1.3.39,2.58.81,3.82,1.27a.5.5,0,0,1-.17,1Zm-57-.3a.5.5,0,0,1-.16-1c1.25-.43,2.54-.84,3.84-1.21a.5.5,0,1,1,.27,1c-1.28.37-2.56.77-3.79,1.19Zm48.35-2.23h-.11c-1.27-.29-2.58-.56-3.9-.8a.5.5,0,0,1,.18-1c1.33.24,2.66.51,3.94.81a.5.5,0,0,1-.11,1Zm-39.69-.19a.5.5,0,0,1-.11-1c1.29-.28,2.62-.54,3.95-.77a.5.5,0,0,1,.17,1c-1.31.22-2.63.48-3.9.76ZM352,167.9h-.06c-1.31-.16-2.64-.29-4-.4a.5.5,0,0,1,.08-1c1.34.11,2.68.24,4,.4a.5.5,0,0,1-.06,1Zm-22-.09a.5.5,0,0,1-.06-1c1.32-.15,2.67-.27,4-.37a.51.51,0,0,1,.53.46.5.5,0,0,1-.46.53c-1.32.09-2.65.21-4,.36Zm13-.56h0q-2,0-4,0a.49.49,0,0,1-.51-.49.5.5,0,0,1,.49-.51q2,0,4,0a.5.5,0,0,1,0,1Z"/><path class="cls-15" d="M104.41,78.46s0,3.63,0,4.56c-.11,4.41,2.74,8.83,8.55,12.19,11.46,6.61,30.1,6.58,41.63-.08,5.77-3.33,8.67-7.69,8.7-12,0-1.46,0-4.62,0-4.62Z"/><path class="cls-16" d="M133.64,100.26c-7.53,0-15-1.65-20.75-4.94s-8.73-7.64-8.61-12.3c0-.92,0-4.52,0-4.55v-.13h59.13v.12s0,3.18,0,4.62c0,4.59-3.14,8.9-8.76,12.14C148.85,98.58,141.24,100.26,133.64,100.26ZM104.54,78.59c0,.65,0,3.61,0,4.43-.11,4.56,2.9,8.85,8.48,12.08,11.4,6.58,30,6.55,41.51-.08,5.54-3.2,8.61-7.43,8.63-11.93,0-1.28,0-3.9,0-4.5Z"/><path class="cls-17" d="M154.74,66.4c-11.46-6.61-30.1-6.58-41.63.08s-11.6,17.42-.15,24,30.1,6.58,41.63-.08S166.2,73,154.74,66.4Z"/><path class="cls-16" d="M133.64,95.58c-7.53,0-15-1.65-20.75-4.94-5.55-3.21-8.61-7.49-8.61-12s3.11-8.94,8.76-12.2c11.55-6.67,30.29-6.71,41.76-.08,5.55,3.21,8.61,7.49,8.61,12s-3.11,8.94-8.76,12.2C148.85,93.9,141.24,95.58,133.64,95.58Zm.41-34c-7.55,0-15.12,1.67-20.89,5-5.57,3.21-8.63,7.47-8.63,12s3,8.67,8.49,11.83c11.4,6.58,30,6.55,41.51-.08,5.57-3.21,8.63-7.47,8.63-12s-3-8.67-8.49-11.83C149,63.23,141.54,61.6,134.06,61.6Z"/><path class="cls-18" d="M151.09,68.51c-9.45-5.46-24.84-5.43-34.36.07s-9.57,14.38-.12,19.84,24.84,5.43,34.36-.07S160.54,74,151.09,68.51Z"/><path class="cls-16" d="M133.68,92.61c-6.22,0-12.42-1.36-17.13-4.08s-7.12-6.19-7.12-10,2.57-7.4,7.24-10.09c9.54-5.51,25-5.54,34.48-.07,4.59,2.65,7.12,6.19,7.12,10s-2.57,7.4-7.24,10.09S140,92.61,133.68,92.61Zm.34-28c-6.23,0-12.47,1.37-17.23,4.12-4.59,2.65-7.11,6.15-7.11,9.87s2.48,7.14,7,9.75c9.41,5.43,24.76,5.4,34.23-.07,4.59-2.65,7.11-6.15,7.11-9.87s-2.48-7.14-7-9.75h0C146.35,65.92,140.19,64.57,134,64.57Z"/><path class="cls-19" d="M116.73,68.58c-4.86,2.81-7.25,6.5-7.17,10.17.12-3.51,2.51-7,7.16-9.7,9.52-5.5,24.9-5.53,34.36-.07,4.62,2.67,7,6.16,7,9.67.13-3.67-2.22-7.35-7-10.14C141.63,63.05,126.25,63.08,116.73,68.58Z"/><path class="cls-16" d="M109.69,78.75h-.25c-.09-3.88,2.48-7.53,7.23-10.28l.06.11-.06-.11c9.54-5.51,25-5.54,34.48-.07,4.72,2.72,7.24,6.36,7.11,10.25H158c-.08-3.61-2.56-7-7-9.57-9.4-5.43-24.76-5.4-34.23.07C112.33,71.73,109.81,75.13,109.69,78.75ZM134,64.57c-6.23,0-12.47,1.37-17.23,4.12A15.74,15.74,0,0,0,111,74a16.36,16.36,0,0,1,5.68-5.1c9.54-5.51,25-5.54,34.48-.07A15.94,15.94,0,0,1,156.79,74,15.33,15.33,0,0,0,151,68.62C146.35,65.92,140.19,64.57,134,64.57Z"/><polygon class="cls-20" points="146.24 77.43 153.17 75.89 138.4 67.36 133.6 70.14 141.43 74.66 114.77 80.61 119.59 83.4 129.83 89.31 134.66 86.52 126.55 81.84 146.24 77.43"/><path class="cls-16" d="M129.83,89.45l-15.4-8.89,26.66-6-7.74-4.47,5.05-2.92,15.11,8.72-26.62,5.95,8,4.63Zm-14.72-8.79,14.72,8.5,4.58-2.64-8.19-4.73.31-.07,26.31-5.88L138.4,67.51l-4.55,2.63,7.92,4.57Z"/><polygon class="cls-21" points="142.24 82.47 144.92 81.88 141.5 79.9 138.81 80.5 142.24 82.47"/><path class="cls-16" d="M142.22,82.61l-3.74-2.16,3-.68,3.74,2.16Zm-3.06-2.06,3.1,1.79,2.32-.52L141.48,80Z"/><polygon class="cls-22" points="133.17 75.09 129.75 73.12 127.07 73.72 130.49 75.69 133.17 75.09"/><path class="cls-16" d="M130.47,75.83l-3.74-2.16,3-.68,3.74,2.16Zm-3.06-2.06,3.1,1.79,2.32-.52-3.1-1.79Z"/><polygon class="cls-23" points="140.88 82.78 137.46 80.8 134.79 81.4 138.21 83.38 140.88 82.78"/><path class="cls-16" d="M138.19,83.51l-3.74-2.16,3-.68,3.74,2.16Zm-3.06-2.06,3.1,1.79,2.31-.52-3.1-1.79Z"/><polygon class="cls-24" points="125.72 74.02 123.05 74.62 126.47 76.59 129.14 76 125.72 74.02"/><path class="cls-16" d="M126.45,76.73l-3.74-2.16,3-.68L129.48,76Zm-3.06-2.06,3.1,1.79,2.31-.52-3.1-1.79Z"/><path class="cls-25" d="M104.41,73.78s0,3.63,0,4.56c-.11,4.41,2.74,8.83,8.55,12.19,11.46,6.61,30.1,6.58,41.63-.08,5.77-3.33,8.67-7.69,8.7-12,0-1.46,0-4.62,0-4.62Z"/><path class="cls-16" d="M133.64,95.58c-7.53,0-15-1.65-20.75-4.94s-8.73-7.64-8.61-12.3c0-.92,0-4.52,0-4.55v-.13h59.13v.12s0,3.18,0,4.62c0,4.59-3.14,8.9-8.76,12.14C148.85,93.9,141.24,95.58,133.64,95.58ZM104.54,73.91c0,.65,0,3.61,0,4.43-.11,4.56,2.9,8.85,8.48,12.07,11.4,6.58,30,6.55,41.51-.08,5.54-3.2,8.61-7.43,8.63-11.93,0-1.28,0-3.9,0-4.5Z"/><path class="cls-26" d="M154.74,61.72c-11.46-6.61-30.1-6.58-41.63.08s-11.6,17.42-.15,24,30.1,6.58,41.63-.08S166.2,68.33,154.74,61.72Z"/><path class="cls-16" d="M133.64,90.89c-7.53,0-15-1.65-20.75-4.94-5.55-3.21-8.61-7.49-8.61-12S107.39,65,113,61.69C124.6,55,143.33,55,154.8,61.61c5.55,3.21,8.61,7.49,8.61,12.05s-3.11,8.94-8.76,12.2C148.85,89.21,141.24,90.89,133.64,90.89Zm.41-34c-7.55,0-15.12,1.67-20.89,5-5.57,3.21-8.63,7.47-8.63,12s3,8.67,8.49,11.83c11.4,6.58,30,6.55,41.51-.08,5.57-3.21,8.63-7.47,8.63-12s-3-8.67-8.49-11.83C149,58.55,141.54,56.91,134.06,56.91Z"/><path class="cls-18" d="M151.09,63.83c-9.45-5.46-24.84-5.43-34.36.07s-9.57,14.38-.12,19.84,24.84,5.43,34.36-.07S160.54,69.29,151.09,63.83Z"/><path class="cls-16" d="M133.68,87.92c-6.22,0-12.42-1.36-17.13-4.08s-7.12-6.19-7.12-10,2.57-7.4,7.24-10.09c9.54-5.51,25-5.54,34.48-.07,4.59,2.65,7.12,6.19,7.12,10s-2.57,7.4-7.24,10.09S140,87.92,133.68,87.92Zm.34-28c-6.23,0-12.47,1.37-17.23,4.12-4.59,2.65-7.11,6.15-7.11,9.87s2.48,7.14,7,9.75c9.41,5.43,24.76,5.4,34.23-.07,4.59-2.65,7.11-6.16,7.11-9.87s-2.48-7.14-7-9.75C146.35,61.23,140.19,59.88,134,59.88Z"/><path class="cls-27" d="M116.73,63.9c-4.86,2.81-7.25,6.5-7.17,10.17.12-3.51,2.51-7,7.16-9.7,9.52-5.5,24.9-5.53,34.36-.07,4.62,2.67,7,6.16,7,9.67.13-3.67-2.22-7.35-7-10.14C141.63,58.37,126.25,58.4,116.73,63.9Z"/><path class="cls-16" d="M109.69,74.07h-.25c-.09-3.88,2.48-7.53,7.23-10.28l.06.11-.06-.11c9.54-5.51,25-5.54,34.48-.07,4.72,2.72,7.24,6.36,7.11,10.25H158c-.08-3.61-2.56-7-7-9.56-9.4-5.43-24.76-5.4-34.23.07C112.33,67,109.81,70.45,109.69,74.07ZM134,59.88c-6.23,0-12.47,1.37-17.23,4.12A15.75,15.75,0,0,0,111,69.35a16.36,16.36,0,0,1,5.68-5.09c9.54-5.51,25-5.54,34.48-.07a15.94,15.94,0,0,1,5.64,5.11A15.33,15.33,0,0,0,151,63.93C146.35,61.23,140.19,59.88,134,59.88Z"/><polygon class="cls-28" points="146.24 72.75 153.17 71.21 138.4 62.68 133.6 65.45 141.43 69.97 114.77 75.93 119.59 78.71 129.83 84.62 134.66 81.83 126.55 77.16 146.24 72.75"/><path class="cls-16" d="M129.83,84.77l-15.4-8.89,26.66-6-7.74-4.47,5.05-2.92,15.11,8.72-26.62,5.95,8,4.63ZM115.11,76l14.72,8.5,4.58-2.64-8.19-4.73.31-.07,26.31-5.88L138.4,62.82l-4.55,2.63L141.77,70Z"/><polygon class="cls-29" points="142.24 77.79 144.92 77.19 141.5 75.22 138.81 75.82 142.24 77.79"/><path class="cls-16" d="M142.22,77.92l-3.74-2.16,3-.68,3.74,2.16Zm-3.06-2.06,3.1,1.79,2.32-.52-3.1-1.79Z"/><polygon class="cls-30" points="133.17 70.41 129.75 68.44 127.07 69.04 130.49 71.01 133.17 70.41"/><path class="cls-16" d="M130.47,71.14,126.73,69l3-.68,3.74,2.16Zm-3.06-2.06,3.1,1.79,2.32-.52-3.1-1.79Z"/><polygon class="cls-31" points="140.88 78.09 137.46 76.12 134.79 76.72 138.21 78.69 140.88 78.09"/><path class="cls-16" d="M138.19,78.82l-3.74-2.16,3-.68,3.74,2.16Zm-3.06-2.06,3.1,1.79,2.31-.52-3.1-1.79Z"/><polygon class="cls-32" points="125.72 69.34 123.05 69.94 126.47 71.91 129.14 71.31 125.72 69.34"/><path class="cls-16" d="M126.45,72l-3.74-2.16,3-.68,3.74,2.16ZM123.39,70l3.1,1.79,2.31-.52-3.1-1.79Z"/><path class="cls-33" d="M289,186.67s0,3.63,0,4.56c-.11,4.41,2.74,8.83,8.55,12.19,11.46,6.61,30.1,6.58,41.63-.08,5.77-3.33,8.67-7.69,8.7-12,0-1.46,0-4.62,0-4.62Z"/><path class="cls-16" d="M318.25,208.47c-7.53,0-15-1.65-20.75-4.94s-8.72-7.64-8.61-12.3c0-.92,0-4.52,0-4.55v-.13H348v.12s0,3.16,0,4.62c0,4.59-3.14,8.9-8.76,12.14C333.46,206.79,325.85,208.47,318.25,208.47ZM289.15,186.8c0,.65,0,3.61,0,4.43-.11,4.56,2.9,8.85,8.48,12.07,11.4,6.58,30,6.55,41.51-.08,5.54-3.2,8.61-7.43,8.63-11.93,0-1.29,0-3.9,0-4.5Z"/><path class="cls-34" d="M339.35,174.61c-11.46-6.61-30.1-6.58-41.63.08s-11.6,17.42-.15,24,30.1,6.58,41.63-.08S350.81,181.23,339.35,174.61Z"/><path class="cls-16" d="M318.25,203.79c-7.53,0-15-1.65-20.75-4.94-5.55-3.21-8.61-7.49-8.61-12.05s3.11-8.94,8.76-12.2c11.55-6.67,30.29-6.71,41.76-.08C345,177.71,348,182,348,186.55s-3.11,8.94-8.76,12.2C333.46,202.11,325.85,203.79,318.25,203.79Zm.41-34c-7.55,0-15.12,1.67-20.89,5-5.57,3.21-8.63,7.47-8.63,12s3,8.67,8.49,11.83c11.4,6.58,30,6.55,41.51-.08,5.57-3.21,8.63-7.47,8.63-12s-3-8.67-8.49-11.83C333.61,171.44,326.15,169.81,318.67,169.81Z"/><path class="cls-18" d="M335.7,176.72c-9.45-5.46-24.84-5.43-34.36.07s-9.57,14.38-.12,19.84,24.84,5.43,34.36-.07S345.15,182.18,335.7,176.72Z"/><path class="cls-16" d="M318.29,200.82c-6.22,0-12.42-1.36-17.13-4.08s-7.12-6.19-7.12-10,2.57-7.4,7.24-10.09c9.54-5.51,25-5.54,34.48-.07,4.59,2.65,7.12,6.19,7.12,10s-2.57,7.4-7.24,10.09S324.56,200.82,318.29,200.82Zm.34-28c-6.23,0-12.47,1.37-17.23,4.12-4.59,2.65-7.11,6.15-7.11,9.87s2.48,7.14,7,9.75c9.41,5.43,24.76,5.4,34.23-.07,4.59-2.65,7.11-6.16,7.11-9.87s-2.48-7.14-7-9.75C331,174.13,324.8,172.78,318.63,172.78Z"/><path class="cls-35" d="M301.34,176.79c-4.86,2.81-7.25,6.5-7.17,10.17.12-3.51,2.51-7,7.16-9.7,9.52-5.5,24.9-5.53,34.36-.07,4.62,2.67,7,6.16,7,9.67.13-3.67-2.22-7.35-7-10.14C326.25,171.26,310.86,171.29,301.34,176.79Z"/><path class="cls-16" d="M294.3,187H294c-.09-3.88,2.48-7.53,7.23-10.28,9.54-5.51,25-5.54,34.48-.07,4.72,2.72,7.24,6.36,7.11,10.25h-.25c-.08-3.62-2.56-7-7-9.56-9.4-5.43-24.76-5.4-34.23.07C296.95,179.94,294.42,183.34,294.3,187Zm7.1-10.06a15.74,15.74,0,0,0-5.81,5.34,16.35,16.35,0,0,1,5.68-5.09c9.54-5.51,25-5.54,34.48-.07a15.94,15.94,0,0,1,5.64,5.11,15.33,15.33,0,0,0-5.76-5.36c-9.4-5.43-24.76-5.4-34.23.07Z"/><polygon class="cls-36" points="330.85 185.64 337.78 184.1 323.01 175.57 318.21 178.34 326.04 182.87 299.38 188.82 304.21 191.61 314.44 197.51 319.27 194.73 311.16 190.05 330.85 185.64"/><path class="cls-16" d="M314.44,197.66,299,188.77l26.66-6L318,178.34l5.05-2.92,15.11,8.72L311.5,190.1l8,4.63Zm-14.72-8.79,14.72,8.5,4.58-2.64L310.82,190l.31-.07L337.44,184,323,175.72l-4.55,2.63,7.92,4.57Z"/><polygon class="cls-37" points="326.85 190.69 329.53 190.09 326.11 188.11 323.43 188.71 326.85 190.69"/><path class="cls-16" d="M326.83,190.82l-3.74-2.16,3-.68,3.74,2.16Zm-3.06-2.06,3.1,1.79,2.32-.52-3.1-1.79Z"/><polygon class="cls-38" points="317.79 183.3 314.37 181.33 311.68 181.93 315.1 183.9 317.79 183.3"/><path class="cls-16" d="M315.08,184l-3.74-2.16,3-.68,3.74,2.16ZM312,182l3.1,1.79,2.32-.52-3.1-1.79Z"/><polygon class="cls-39" points="325.49 190.99 322.07 189.01 319.4 189.61 322.83 191.59 325.49 190.99"/><path class="cls-16" d="M322.81,191.72l-3.74-2.16,3-.68,3.74,2.16Zm-3.06-2.06,3.1,1.79,2.31-.52-3.1-1.79Z"/><polygon class="cls-40" points="310.33 182.23 307.66 182.83 311.08 184.81 313.75 184.21 310.33 182.23"/><path class="cls-16" d="M311.06,184.94l-3.74-2.16,3-.68,3.74,2.16ZM308,182.88l3.1,1.79,2.31-.52-3.1-1.79Z"/><path class="cls-41" d="M289,182s0,3.63,0,4.56c-.11,4.41,2.74,8.83,8.55,12.19,11.46,6.61,30.1,6.58,41.63-.08,5.77-3.33,8.67-7.69,8.7-12,0-1.46,0-4.62,0-4.62Z"/><path class="cls-16" d="M318.25,203.79c-7.53,0-15-1.65-20.75-4.94s-8.72-7.64-8.61-12.3c0-.92,0-4.52,0-4.55v-.13H348V182s0,3.16,0,4.62c0,4.59-3.14,8.9-8.76,12.14C333.46,202.11,325.85,203.79,318.25,203.79Zm-29.11-21.67c0,.65,0,3.61,0,4.44-.11,4.56,2.9,8.85,8.48,12.07,11.4,6.58,30,6.55,41.51-.08,5.54-3.2,8.61-7.43,8.63-11.93,0-1.29,0-3.9,0-4.5Z"/><path class="cls-42" d="M339.35,169.93c-11.46-6.61-30.1-6.58-41.63.08s-11.6,17.42-.15,24,30.1,6.58,41.63-.08S350.81,176.54,339.35,169.93Z"/><path class="cls-16" d="M318.25,199.1c-7.53,0-15-1.65-20.75-4.94-5.55-3.21-8.61-7.49-8.61-12.05s3.11-8.94,8.76-12.2c11.55-6.67,30.29-6.71,41.76-.08C345,173,348,177.31,348,181.87s-3.11,8.94-8.76,12.2C333.46,197.42,325.85,199.1,318.25,199.1Zm.41-34c-7.55,0-15.12,1.67-20.89,5-5.57,3.21-8.63,7.47-8.63,12s3,8.67,8.49,11.83c11.4,6.58,30,6.55,41.51-.08,5.57-3.21,8.63-7.47,8.63-12s-3-8.67-8.49-11.83C333.61,166.76,326.15,165.12,318.67,165.12Z"/><path class="cls-18" d="M335.7,172c-9.45-5.46-24.84-5.43-34.36.07s-9.57,14.38-.12,19.84,24.84,5.43,34.36-.07S345.15,177.49,335.7,172Z"/><path class="cls-16" d="M318.29,196.13c-6.22,0-12.42-1.36-17.13-4.08s-7.12-6.19-7.12-10,2.57-7.4,7.24-10.09c9.54-5.51,25-5.54,34.48-.07,4.59,2.65,7.12,6.19,7.12,10s-2.57,7.4-7.24,10.09S324.56,196.13,318.29,196.13Zm.34-28c-6.23,0-12.47,1.37-17.23,4.12-4.59,2.65-7.11,6.16-7.11,9.87s2.48,7.14,7,9.75c9.41,5.43,24.76,5.4,34.23-.07,4.59-2.65,7.11-6.15,7.11-9.87s-2.48-7.14-7-9.75h0C331,169.44,324.8,168.09,318.63,168.09Z"/><path class="cls-43" d="M301.34,172.11c-4.86,2.81-7.25,6.5-7.17,10.17.12-3.51,2.51-7,7.16-9.7,9.52-5.5,24.9-5.53,34.36-.07,4.62,2.67,7,6.16,7,9.67.13-3.67-2.22-7.35-7-10.14C326.25,166.58,310.86,166.61,301.34,172.11Z"/><path class="cls-16" d="M294.3,182.28H294c-.09-3.88,2.48-7.53,7.23-10.28h0c9.54-5.51,25-5.54,34.48-.07,4.72,2.72,7.24,6.36,7.11,10.25h-.25c-.08-3.61-2.56-7-7-9.57-9.4-5.43-24.76-5.4-34.23.07C296.95,175.25,294.42,178.66,294.3,182.28Zm7.1-10.06a15.74,15.74,0,0,0-5.81,5.35,16.35,16.35,0,0,1,5.68-5.1c9.54-5.51,25-5.54,34.48-.07a15.94,15.94,0,0,1,5.65,5.11,15.33,15.33,0,0,0-5.77-5.36c-9.4-5.43-24.76-5.4-34.23.07Z"/><polygon class="cls-44" points="330.85 180.96 337.78 179.42 323.01 170.89 318.21 173.66 326.04 178.18 299.38 184.14 304.21 186.92 314.44 192.83 319.27 190.04 311.16 185.37 330.85 180.96"/><path class="cls-16" d="M314.44,193,299,184.08l26.66-6L318,173.66l5.05-2.92,15.11,8.72-26.62,5.95,8,4.63Zm-14.72-8.79,14.72,8.5L319,190l-8.19-4.73.31-.07,26.31-5.88L323,171l-4.55,2.63,7.92,4.57Z"/><polygon class="cls-45" points="326.85 186 329.53 185.4 326.11 183.43 323.43 184.03 326.85 186"/><path class="cls-16" d="M326.83,186.13,323.09,184l3-.68,3.74,2.16Zm-3.06-2.06,3.1,1.79,2.32-.52-3.1-1.79Z"/><polygon class="cls-46" points="317.79 178.62 314.37 176.65 311.68 177.25 315.1 179.22 317.79 178.62"/><path class="cls-16" d="M315.08,179.35l-3.74-2.16,3-.68,3.74,2.16ZM312,177.3l3.1,1.79,2.32-.52-3.1-1.79Z"/><polygon class="cls-47" points="325.49 186.3 322.07 184.33 319.4 184.93 322.83 186.9 325.49 186.3"/><path class="cls-16" d="M322.81,187l-3.74-2.16,3-.68,3.74,2.16ZM319.74,185l3.1,1.79,2.31-.52-3.1-1.79Z"/><polygon class="cls-48" points="310.33 177.55 307.66 178.14 311.08 180.12 313.75 179.52 310.33 177.55"/><path class="cls-16" d="M311.06,180.25l-3.74-2.16,3-.68,3.74,2.16ZM308,178.2l3.1,1.79,2.31-.52-3.1-1.79Z"/><path class="cls-49" d="M289,177.31s0,3.63,0,4.56c-.11,4.41,2.74,8.83,8.55,12.19,11.46,6.61,30.1,6.58,41.63-.08,5.77-3.33,8.67-7.69,8.7-12,0-1.46,0-4.62,0-4.62Z"/><path class="cls-16" d="M318.25,199.1c-7.53,0-15-1.65-20.75-4.94s-8.72-7.64-8.61-12.3c0-.92,0-4.52,0-4.55v-.13H348v.12s0,3.16,0,4.62c0,4.59-3.14,8.9-8.76,12.14C333.46,197.42,325.85,199.1,318.25,199.1Zm-29.11-21.67c0,.65,0,3.61,0,4.43-.11,4.56,2.9,8.85,8.48,12.08,11.4,6.58,30,6.55,41.51-.08,5.54-3.2,8.61-7.43,8.63-11.93,0-1.29,0-3.9,0-4.5Z"/><path class="cls-50" d="M339.35,165.24c-11.46-6.61-30.1-6.58-41.63.08s-11.6,17.42-.15,24,30.1,6.58,41.63-.08S350.81,171.86,339.35,165.24Z"/><path class="cls-16" d="M318.25,194.42c-7.53,0-15-1.65-20.75-4.94-5.55-3.21-8.61-7.49-8.61-12s3.11-8.94,8.76-12.2c11.55-6.67,30.29-6.71,41.76-.08,5.55,3.21,8.61,7.49,8.61,12s-3.11,8.94-8.76,12.2C333.46,192.74,325.85,194.42,318.25,194.42Zm.41-34c-7.55,0-15.12,1.67-20.89,5-5.57,3.21-8.63,7.47-8.63,12s3,8.67,8.49,11.83c11.4,6.58,30,6.55,41.51-.08,5.57-3.21,8.63-7.47,8.63-12s-3-8.67-8.49-11.83C333.61,162.08,326.15,160.44,318.67,160.44Z"/><path class="cls-18" d="M335.7,167.35c-9.45-5.46-24.84-5.43-34.36.07s-9.57,14.38-.12,19.84,24.84,5.43,34.36-.07S345.15,172.81,335.7,167.35Z"/><path class="cls-16" d="M318.29,191.45c-6.22,0-12.42-1.36-17.13-4.08s-7.12-6.19-7.12-10,2.57-7.4,7.24-10.09c9.54-5.51,25-5.54,34.48-.07,4.59,2.65,7.12,6.19,7.12,10s-2.57,7.4-7.24,10.09S324.56,191.45,318.29,191.45Zm.34-28c-6.23,0-12.47,1.37-17.23,4.12-4.59,2.65-7.11,6.15-7.11,9.87s2.48,7.14,7,9.75c9.41,5.43,24.76,5.4,34.23-.07,4.59-2.65,7.11-6.15,7.11-9.87s-2.48-7.14-7-9.75C331,164.76,324.8,163.41,318.63,163.41Z"/><path class="cls-51" d="M301.34,167.42c-4.86,2.81-7.25,6.5-7.17,10.17.12-3.51,2.51-7,7.16-9.7,9.52-5.5,24.9-5.53,34.36-.07,4.62,2.67,7,6.16,7,9.67.13-3.67-2.22-7.35-7-10.14C326.25,161.89,310.86,161.92,301.34,167.42Z"/><path class="cls-16" d="M294.3,177.59H294c-.09-3.88,2.48-7.53,7.23-10.28,9.54-5.51,25-5.54,34.48-.07,4.72,2.72,7.24,6.36,7.11,10.25h-.25c-.08-3.61-2.56-7-7-9.57-9.4-5.43-24.76-5.4-34.23.07C296.95,170.57,294.42,174,294.3,177.59Zm7.1-10.06h0a15.74,15.74,0,0,0-5.81,5.35,16.35,16.35,0,0,1,5.68-5.1c9.54-5.51,25-5.54,34.48-.07a15.94,15.94,0,0,1,5.64,5.11,15.33,15.33,0,0,0-5.77-5.36c-9.4-5.43-24.76-5.4-34.23.07Z"/><polygon class="cls-52" points="330.85 176.28 337.78 174.73 323.01 166.21 318.21 168.98 326.04 173.5 299.38 179.45 304.21 182.24 314.44 188.15 319.27 185.36 311.16 180.68 330.85 176.28"/><path class="cls-16" d="M314.44,188.29,299,179.4l26.66-6L318,169l5.05-2.92,15.11,8.72-26.62,5.95,8,4.63Zm-14.72-8.79,14.72,8.5,4.58-2.64-8.19-4.73.31-.07,26.31-5.88L323,166.35,318.46,169l7.92,4.57Z"/><polygon class="cls-53" points="326.85 181.32 329.53 180.72 326.11 178.74 323.43 179.34 326.85 181.32"/><path class="cls-16" d="M326.83,181.45l-3.74-2.16,3-.68,3.74,2.16Zm-3.06-2.06,3.1,1.79,2.32-.52-3.1-1.79Z"/><polygon class="cls-54" points="317.79 173.94 314.37 171.96 311.68 172.56 315.1 174.54 317.79 173.94"/><path class="cls-16" d="M315.08,174.67l-3.74-2.16,3-.68,3.74,2.16ZM312,172.61l3.1,1.79,2.32-.52-3.1-1.79Z"/><polygon class="cls-55" points="325.49 181.62 322.07 179.65 319.4 180.24 322.83 182.22 325.49 181.62"/><path class="cls-16" d="M322.81,182.35l-3.74-2.16,3-.68,3.74,2.16Zm-3.06-2.06,3.1,1.79,2.31-.52-3.1-1.79Z"/><polygon class="cls-56" points="310.33 172.86 307.66 173.46 311.08 175.44 313.75 174.84 310.33 172.86"/><path class="cls-16" d="M311.06,175.57l-3.74-2.16,3-.68,3.74,2.16ZM308,173.51l3.1,1.79,2.31-.52-3.1-1.79Z"/><path class="cls-57" d="M289,172.62s0,3.63,0,4.56c-.11,4.41,2.74,8.83,8.55,12.19,11.46,6.61,30.1,6.58,41.63-.08,5.77-3.33,8.67-7.69,8.7-12,0-1.46,0-4.62,0-4.62Z"/><path class="cls-16" d="M318.25,194.42c-7.53,0-15-1.65-20.75-4.94s-8.72-7.64-8.61-12.3c0-.92,0-4.52,0-4.55v-.13H348v.12s0,3.16,0,4.62c0,4.59-3.14,8.9-8.76,12.14C333.46,192.74,325.85,194.42,318.25,194.42Zm-29.11-21.67c0,.65,0,3.61,0,4.43-.11,4.56,2.9,8.85,8.48,12.07,11.4,6.58,30,6.55,41.51-.08,5.54-3.2,8.61-7.43,8.63-11.93,0-1.29,0-3.9,0-4.5Z"/><path class="cls-58" d="M339.35,160.56c-11.46-6.61-30.1-6.58-41.63.08s-11.6,17.42-.15,24,30.1,6.58,41.63-.08S350.81,167.18,339.35,160.56Z"/><path class="cls-16" d="M318.25,189.73c-7.53,0-15-1.65-20.75-4.94-5.55-3.21-8.61-7.49-8.61-12.05s3.11-8.94,8.76-12.2c11.55-6.67,30.29-6.71,41.76-.08,5.55,3.21,8.61,7.49,8.61,12.05s-3.11,8.94-8.76,12.2C333.46,188.06,325.85,189.73,318.25,189.73Zm.41-34c-7.55,0-15.12,1.67-20.89,5-5.57,3.21-8.63,7.47-8.63,12s3,8.67,8.49,11.83c11.4,6.58,30,6.55,41.51-.08,5.57-3.21,8.63-7.47,8.63-12s-3-8.67-8.49-11.83C333.61,157.39,326.15,155.76,318.67,155.76Z"/><path class="cls-18" d="M335.7,162.67c-9.45-5.46-24.84-5.43-34.36.07s-9.57,14.38-.12,19.84,24.84,5.43,34.36-.07S345.15,168.13,335.7,162.67Z"/><path class="cls-16" d="M318.29,186.76c-6.22,0-12.42-1.36-17.13-4.08s-7.12-6.19-7.12-10,2.57-7.4,7.24-10.09c9.54-5.51,25-5.54,34.48-.07,4.59,2.65,7.12,6.19,7.12,10s-2.57,7.4-7.24,10.09S324.56,186.76,318.29,186.76Zm.34-28c-6.23,0-12.47,1.37-17.23,4.12-4.59,2.65-7.11,6.15-7.11,9.87s2.48,7.14,7,9.75c9.41,5.43,24.76,5.4,34.23-.07,4.59-2.65,7.11-6.16,7.11-9.87s-2.48-7.14-7-9.75C331,160.07,324.8,158.72,318.63,158.72Z"/><path class="cls-59" d="M301.34,162.74c-4.86,2.81-7.25,6.5-7.17,10.17.12-3.51,2.51-7,7.16-9.7,9.52-5.5,24.9-5.53,34.36-.07,4.62,2.67,7,6.16,7,9.67.13-3.67-2.22-7.35-7-10.14C326.25,157.21,310.86,157.24,301.34,162.74Z"/><path class="cls-16" d="M294.3,172.91H294c-.09-3.88,2.48-7.53,7.23-10.28,9.54-5.51,25-5.54,34.48-.07,4.72,2.72,7.24,6.36,7.11,10.25h-.25c-.08-3.62-2.56-7-7-9.56-9.4-5.43-24.76-5.4-34.23.07C296.95,165.88,294.42,169.29,294.3,172.91Zm7.1-10.06h0a15.74,15.74,0,0,0-5.81,5.34,16.35,16.35,0,0,1,5.68-5.09c9.54-5.51,25-5.54,34.48-.07a15.94,15.94,0,0,1,5.64,5.11,15.33,15.33,0,0,0-5.76-5.36c-9.4-5.43-24.76-5.4-34.23.07Z"/><polygon class="cls-60" points="330.85 171.59 337.78 170.05 323.01 161.52 318.21 164.29 326.04 168.81 299.38 174.77 304.21 177.56 314.44 183.46 319.27 180.68 311.16 176 330.85 171.59"/><path class="cls-16" d="M314.44,183.61,299,174.72l26.66-6L318,164.29l5.05-2.92,15.11,8.72L311.5,176l8,4.63Zm-14.72-8.79,14.72,8.5,4.58-2.64-8.19-4.73.31-.07L337.44,170,323,161.67l-4.55,2.63,7.92,4.57Z"/><polygon class="cls-61" points="326.85 176.63 329.53 176.03 326.11 174.06 323.43 174.66 326.85 176.63"/><path class="cls-16" d="M326.83,176.77l-3.74-2.16,3-.68,3.74,2.16Zm-3.06-2.06,3.1,1.79,2.32-.52-3.1-1.79Z"/><polygon class="cls-62" points="317.79 169.25 314.37 167.28 311.68 167.88 315.1 169.85 317.79 169.25"/><path class="cls-16" d="M315.08,170l-3.74-2.16,3-.68,3.74,2.16ZM312,167.93l3.1,1.79,2.32-.52-3.1-1.79Z"/><polygon class="cls-63" points="325.49 176.94 322.07 174.96 319.4 175.56 322.83 177.53 325.49 176.94"/><path class="cls-16" d="M322.81,177.67l-3.74-2.16,3-.68,3.74,2.16Zm-3.06-2.06,3.1,1.79,2.31-.52-3.1-1.79Z"/><polygon class="cls-64" points="310.33 168.18 307.66 168.78 311.08 170.75 313.75 170.16 310.33 168.18"/><path class="cls-16" d="M311.06,170.89l-3.74-2.16,3-.68,3.74,2.16ZM308,168.83l3.1,1.79,2.31-.52-3.1-1.79Z"/><path class="cls-65" d="M289,168s0,3.63,0,4.56c-.11,4.41,2.74,8.83,8.55,12.19,11.46,6.61,30.1,6.58,41.63-.08,5.77-3.33,8.67-7.69,8.7-12,0-1.46,0-4.62,0-4.62Z"/><path class="cls-16" d="M318.25,189.76c-7.53,0-15-1.65-20.75-4.94s-8.72-7.64-8.61-12.3c0-.92,0-4.52,0-4.55v-.13H348V168s0,3.16,0,4.62c0,4.59-3.14,8.9-8.76,12.14C333.46,188.08,325.85,189.76,318.25,189.76Zm-29.11-21.67c0,.65,0,3.61,0,4.43-.11,4.56,2.9,8.85,8.48,12.07,11.4,6.58,30,6.55,41.51-.08,5.54-3.2,8.61-7.43,8.63-11.93,0-1.29,0-3.9,0-4.5Z"/><path class="cls-66" d="M339.35,155.9c-11.46-6.61-30.1-6.58-41.63.08s-11.6,17.42-.15,24,30.1,6.58,41.63-.08S350.81,162.52,339.35,155.9Z"/><path class="cls-16" d="M318.25,185.07c-7.53,0-15-1.65-20.75-4.94-5.55-3.21-8.61-7.49-8.61-12.05s3.11-8.94,8.76-12.2c11.55-6.67,30.29-6.71,41.76-.08C345,159,348,163.28,348,167.84s-3.11,8.94-8.76,12.2C333.46,183.4,325.85,185.07,318.25,185.07Zm.41-34c-7.55,0-15.12,1.67-20.89,5-5.57,3.21-8.63,7.47-8.63,12s3,8.67,8.49,11.83c11.4,6.58,30,6.55,41.51-.08,5.57-3.21,8.63-7.47,8.63-12s-3-8.67-8.49-11.83C333.61,152.73,326.15,151.1,318.67,151.1Z"/><path class="cls-18" d="M335.7,158c-9.45-5.46-24.84-5.43-34.36.07s-9.57,14.38-.12,19.84,24.84,5.43,34.36-.07S345.15,163.47,335.7,158Z"/><path class="cls-16" d="M318.29,182.11c-6.22,0-12.42-1.36-17.13-4.08s-7.12-6.19-7.12-10,2.57-7.4,7.24-10.09c9.54-5.51,25-5.54,34.48-.07,4.59,2.65,7.12,6.19,7.12,10s-2.57,7.4-7.24,10.09S324.56,182.11,318.29,182.11Zm.34-28c-6.23,0-12.47,1.38-17.23,4.12-4.59,2.65-7.11,6.15-7.11,9.87s2.48,7.14,7,9.75c9.41,5.43,24.76,5.4,34.23-.07,4.59-2.65,7.11-6.15,7.11-9.87s-2.48-7.14-7-9.75h0C331,155.42,324.8,154.07,318.63,154.07Z"/><path class="cls-67" d="M301.34,158.08c-4.86,2.81-7.25,6.5-7.17,10.17.12-3.51,2.51-7,7.16-9.7,9.52-5.5,24.9-5.53,34.36-.07,4.62,2.67,7,6.16,7,9.67.13-3.67-2.22-7.35-7-10.14C326.25,152.55,310.86,152.58,301.34,158.08Z"/><path class="cls-16" d="M294.3,168.25H294c-.09-3.88,2.48-7.53,7.23-10.28h0c9.54-5.51,25-5.54,34.48-.07,4.72,2.72,7.24,6.36,7.11,10.25h-.25c-.08-3.62-2.56-7-7-9.56-9.4-5.43-24.76-5.4-34.23.07C296.95,161.22,294.42,164.63,294.3,168.25Zm7.1-10.06a15.74,15.74,0,0,0-5.81,5.35,16.35,16.35,0,0,1,5.68-5.1c9.54-5.51,25-5.54,34.48-.07a15.94,15.94,0,0,1,5.64,5.11,15.33,15.33,0,0,0-5.76-5.36c-9.4-5.43-24.76-5.4-34.23.07Z"/><polygon class="cls-68" points="330.85 166.93 337.78 165.39 323.01 156.86 318.21 159.63 326.04 164.16 299.38 170.11 304.21 172.9 314.44 178.8 319.27 176.02 311.16 171.34 330.85 166.93"/><path class="cls-16" d="M314.44,178.95,299,170.06l26.66-6L318,159.63l5.05-2.92,15.11,8.72-26.62,5.95,8,4.63Zm-14.72-8.79,14.72,8.5L319,176l-8.19-4.73.31-.07,26.31-5.88L323,157l-4.55,2.63,7.92,4.57Z"/><polygon class="cls-69" points="326.85 171.97 329.53 171.37 326.11 169.4 323.43 170 326.85 171.97"/><path class="cls-16" d="M326.83,172.11l-3.74-2.16,3-.68,3.74,2.16Zm-3.06-2.06,3.1,1.79,2.32-.52-3.1-1.79Z"/><polygon class="cls-70" points="317.79 164.59 314.37 162.62 311.68 163.22 315.1 165.19 317.79 164.59"/><path class="cls-16" d="M315.08,165.33l-3.74-2.16,3-.68,3.74,2.16ZM312,163.27l3.1,1.79,2.32-.52-3.1-1.79Z"/><polygon class="cls-71" points="325.49 172.28 322.07 170.3 319.4 170.9 322.83 172.88 325.49 172.28"/><path class="cls-16" d="M322.81,173l-3.74-2.16,3-.68,3.74,2.16ZM319.74,171l3.1,1.79,2.31-.52-3.1-1.79Z"/><polygon class="cls-72" points="310.33 163.52 307.66 164.12 311.08 166.09 313.75 165.5 310.33 163.52"/><path class="cls-16" d="M311.06,166.23l-3.74-2.16,3-.68,3.74,2.16ZM308,164.17l3.1,1.79,2.31-.52-3.1-1.79Z"/><path class="cls-73" d="M332.72,209.76s0,3.63,0,4.56c-.11,4.41,2.74,8.83,8.55,12.19,11.46,6.61,30.1,6.58,41.63-.08,5.77-3.33,8.67-7.69,8.7-12,0-1.46,0-4.62,0-4.62Z"/><path class="cls-16" d="M361.95,231.55c-7.53,0-15-1.65-20.75-4.94s-8.72-7.64-8.61-12.3c0-.92,0-4.52,0-4.55v-.13h59.13v.12s0,3.16,0,4.62c0,4.59-3.14,8.9-8.76,12.14C377.16,229.88,369.54,231.55,361.95,231.55Zm-29.11-21.67c0,.65,0,3.61,0,4.43-.11,4.56,2.9,8.85,8.48,12.08,11.4,6.58,30,6.55,41.51-.08,5.54-3.2,8.61-7.43,8.63-11.93,0-1.29,0-3.9,0-4.5Z"/><path class="cls-74" d="M383,197.7c-11.46-6.61-30.1-6.58-41.63.08s-11.6,17.42-.15,24,30.1,6.58,41.63-.08S394.5,204.31,383,197.7Z"/><path class="cls-16" d="M361.95,226.87c-7.53,0-15-1.65-20.75-4.94-5.55-3.21-8.61-7.49-8.61-12s3.11-8.94,8.76-12.2c11.55-6.67,30.29-6.71,41.76-.08,5.55,3.21,8.61,7.49,8.61,12s-3.11,8.94-8.76,12.2C377.16,225.19,369.54,226.87,361.95,226.87Zm.41-34c-7.55,0-15.12,1.67-20.89,5-5.57,3.21-8.63,7.47-8.63,12s3,8.67,8.49,11.83c11.4,6.58,30,6.55,41.51-.08,5.57-3.21,8.63-7.47,8.63-12s-3-8.67-8.49-11.83C377.31,194.53,369.84,192.89,362.36,192.89Z"/><path class="cls-18" d="M379.39,199.81c-9.45-5.46-24.84-5.43-34.36.07s-9.57,14.38-.12,19.84,24.84,5.43,34.36-.07S388.85,205.26,379.39,199.81Z"/><path class="cls-16" d="M362,223.9c-6.22,0-12.42-1.36-17.13-4.08s-7.12-6.19-7.12-10,2.57-7.4,7.24-10.09c9.54-5.51,25-5.54,34.48-.07,4.59,2.65,7.12,6.19,7.12,10s-2.57,7.4-7.24,10.09S368.26,223.9,362,223.9Zm.34-28c-6.23,0-12.47,1.37-17.23,4.12-4.59,2.65-7.11,6.15-7.11,9.87s2.48,7.14,7,9.75c9.41,5.43,24.76,5.4,34.23-.07,4.59-2.65,7.11-6.16,7.11-9.87s-2.48-7.14-7-9.75C374.65,197.21,368.49,195.86,362.32,195.86Z"/><path class="cls-75" d="M345,199.87c-4.86,2.81-7.25,6.5-7.17,10.17.12-3.51,2.51-7,7.16-9.7,9.52-5.5,24.9-5.53,34.36-.07,4.62,2.67,7,6.16,7,9.67.13-3.67-2.22-7.35-7-10.14C369.94,194.35,354.56,194.38,345,199.87Z"/><path class="cls-16" d="M338,210h-.25c-.09-3.88,2.48-7.53,7.23-10.28,9.54-5.51,25-5.54,34.48-.07,4.72,2.72,7.24,6.36,7.11,10.25h-.25c-.08-3.61-2.56-7-7-9.57-9.41-5.43-24.76-5.4-34.23.07C340.64,203,338.12,206.43,338,210ZM345.1,200h0a15.74,15.74,0,0,0-5.81,5.35,16.36,16.36,0,0,1,5.68-5.1c9.54-5.51,25-5.54,34.48-.07a15.93,15.93,0,0,1,5.65,5.11,15.32,15.32,0,0,0-5.77-5.36c-9.4-5.43-24.76-5.4-34.23.07Z"/><polygon class="cls-76" points="374.54 208.73 381.48 207.19 366.71 198.66 361.9 201.43 369.74 205.95 343.08 211.91 347.9 214.69 358.13 220.6 362.96 217.81 354.86 213.13 374.54 208.73"/><path class="cls-16" d="M358.13,220.74l-15.4-8.89,26.66-6-7.74-4.47,5.05-2.92,15.11,8.72-26.62,5.95,8,4.63ZM343.42,212l14.72,8.5,4.58-2.64-8.19-4.73.31-.07,26.31-5.88-14.43-8.33-4.55,2.63,7.92,4.57Z"/><polygon class="cls-77" points="370.54 213.77 373.22 213.17 369.8 211.2 367.12 211.79 370.54 213.77"/><path class="cls-16" d="M370.52,213.9l-3.74-2.16,3-.68,3.74,2.16Zm-3.06-2.06,3.1,1.79,2.32-.52-3.1-1.79Z"/><polygon class="cls-78" points="361.48 206.39 358.06 204.42 355.38 205.01 358.8 206.99 361.48 206.39"/><path class="cls-16" d="M358.78,207.12,355,205l3-.68,3.74,2.16Zm-3.06-2.06,3.1,1.79,2.32-.52-3.1-1.79Z"/><polygon class="cls-79" points="369.19 214.07 365.77 212.1 363.1 212.69 366.52 214.67 369.19 214.07"/><path class="cls-16" d="M366.5,214.8l-3.74-2.16,3-.68,3.74,2.16Zm-3.06-2.06,3.1,1.79,2.31-.52-3.1-1.79Z"/><polygon class="cls-80" points="354.02 205.32 351.35 205.91 354.77 207.89 357.44 207.29 354.02 205.32"/><path class="cls-16" d="M354.75,208,351,205.86l3-.68,3.74,2.16ZM351.69,206l3.1,1.79,2.31-.52-3.1-1.79Z"/><path class="cls-81" d="M332.72,205.08s0,3.63,0,4.56c-.11,4.41,2.74,8.83,8.55,12.19,11.46,6.61,30.1,6.58,41.63-.08,5.77-3.33,8.67-7.69,8.7-12,0-1.46,0-4.62,0-4.62Z"/><path class="cls-16" d="M361.95,226.87c-7.53,0-15-1.65-20.75-4.94s-8.72-7.64-8.61-12.3c0-.92,0-4.52,0-4.55V205h59.13v.12s0,3.16,0,4.62c0,4.59-3.14,8.9-8.76,12.14C377.16,225.19,369.54,226.87,361.95,226.87ZM332.84,205.2c0,.65,0,3.61,0,4.43-.11,4.56,2.9,8.85,8.48,12.07,11.4,6.58,30,6.55,41.51-.08,5.54-3.2,8.61-7.43,8.63-11.93,0-1.29,0-3.9,0-4.5Z"/><path class="cls-82" d="M383,193c-11.46-6.61-30.1-6.58-41.63.08s-11.6,17.42-.15,24,30.1,6.58,41.63-.08S394.5,199.63,383,193Z"/><path class="cls-16" d="M361.95,222.19c-7.53,0-15-1.65-20.75-4.94-5.55-3.21-8.61-7.49-8.61-12.05s3.11-8.94,8.76-12.2c11.55-6.67,30.29-6.71,41.76-.08h0c5.55,3.21,8.61,7.49,8.61,12.05s-3.11,8.94-8.76,12.2C377.16,220.51,369.54,222.19,361.95,222.19Zm.41-34c-7.55,0-15.12,1.67-20.89,5-5.57,3.21-8.63,7.47-8.63,12s3,8.67,8.49,11.83c11.4,6.58,30,6.55,41.51-.08,5.57-3.21,8.63-7.47,8.63-12s-3-8.67-8.49-11.83h0C377.31,189.85,369.84,188.21,362.36,188.21Z"/><path class="cls-18" d="M379.39,195.12c-9.45-5.46-24.84-5.43-34.36.07s-9.57,14.38-.12,19.84,24.84,5.43,34.36-.07S388.85,200.58,379.39,195.12Z"/><path class="cls-16" d="M362,219.22c-6.22,0-12.42-1.36-17.13-4.08s-7.12-6.19-7.12-10,2.57-7.4,7.24-10.09c9.54-5.51,25-5.54,34.48-.07,4.59,2.65,7.12,6.19,7.12,10s-2.57,7.4-7.24,10.09S368.26,219.22,362,219.22Zm.34-28c-6.23,0-12.47,1.37-17.23,4.12-4.59,2.65-7.11,6.15-7.11,9.87s2.48,7.14,7,9.75c9.41,5.43,24.76,5.4,34.23-.07,4.59-2.65,7.11-6.16,7.11-9.87s-2.48-7.14-7-9.75C374.65,192.53,368.49,191.18,362.32,191.18Z"/><path class="cls-83" d="M345,195.19c-4.86,2.81-7.25,6.5-7.17,10.17.12-3.51,2.51-7,7.16-9.7,9.52-5.5,24.9-5.53,34.36-.07,4.62,2.67,7,6.16,7,9.67.13-3.67-2.22-7.35-7-10.14C369.94,189.66,354.56,189.69,345,195.19Z"/><path class="cls-16" d="M338,205.36h-.25c-.09-3.88,2.48-7.53,7.23-10.28,9.54-5.51,25-5.54,34.48-.07,4.72,2.72,7.24,6.36,7.11,10.25h-.25c-.08-3.62-2.56-7-7-9.56-9.4-5.43-24.76-5.4-34.23.07C340.64,198.34,338.12,201.75,338,205.36Zm7.1-10.06h0a15.74,15.74,0,0,0-5.81,5.34,16.35,16.35,0,0,1,5.68-5.09c9.54-5.51,25-5.54,34.48-.07a15.94,15.94,0,0,1,5.64,5.11,15.33,15.33,0,0,0-5.77-5.36c-9.4-5.43-24.76-5.4-34.23.07Z"/><polygon class="cls-84" points="374.54 204.04 381.48 202.5 366.71 193.97 361.9 196.75 369.74 201.27 343.08 207.22 347.9 210.01 358.13 215.92 362.96 213.13 354.86 208.45 374.54 204.04"/><path class="cls-16" d="M358.13,216.06l-15.4-8.89,26.66-6-7.74-4.47,5.05-2.92,15.11,8.72L355.2,208.5l8,4.63Zm-14.72-8.79,14.72,8.5,4.58-2.64-8.19-4.73.31-.07,26.31-5.88-14.43-8.33-4.55,2.63,7.92,4.57Z"/><polygon class="cls-85" points="370.54 209.09 373.22 208.49 369.8 206.51 367.12 207.11 370.54 209.09"/><path class="cls-16" d="M370.52,209.22l-3.74-2.16,3-.68,3.74,2.16Zm-3.06-2.06,3.1,1.79,2.32-.52-3.1-1.79Z"/><polygon class="cls-86" points="361.48 201.71 358.06 199.73 355.38 200.33 358.8 202.31 361.48 201.71"/><path class="cls-16" d="M358.78,202.44,355,200.28l3-.68,3.74,2.16Zm-3.06-2.06,3.1,1.79,2.32-.52-3.1-1.79Z"/><polygon class="cls-87" points="369.19 209.39 365.77 207.41 363.1 208.01 366.52 209.99 369.19 209.39"/><path class="cls-16" d="M366.5,210.12,362.76,208l3-.68,3.74,2.16Zm-3.06-2.06,3.1,1.79,2.31-.52-3.1-1.79Z"/><polygon class="cls-88" points="354.02 200.63 351.35 201.23 354.77 203.21 357.44 202.61 354.02 200.63"/><path class="cls-16" d="M354.75,203.34,351,201.18l3-.68,3.74,2.16Zm-3.06-2.06,3.1,1.79,2.31-.52-3.1-1.79Z"/><path class="cls-89" d="M332.72,200.39s0,3.63,0,4.56c-.11,4.41,2.74,8.83,8.55,12.19,11.46,6.61,30.1,6.58,41.63-.08,5.77-3.33,8.67-7.69,8.7-12,0-1.46,0-4.62,0-4.62Z"/><path class="cls-16" d="M361.95,222.19c-7.53,0-15-1.65-20.75-4.94s-8.72-7.64-8.61-12.3c0-.92,0-4.52,0-4.55v-.13h59.13v.12s0,3.16,0,4.62c0,4.59-3.14,8.9-8.76,12.14C377.16,220.51,369.54,222.19,361.95,222.19Zm-29.11-21.67c0,.65,0,3.61,0,4.44-.11,4.56,2.9,8.85,8.48,12.07,11.4,6.58,30,6.55,41.51-.08,5.54-3.2,8.61-7.43,8.63-11.93,0-1.29,0-3.9,0-4.5Z"/><path class="cls-90" d="M383,188.33c-11.46-6.61-30.1-6.58-41.63.08s-11.6,17.42-.15,24,30.1,6.58,41.63-.08S394.5,194.94,383,188.33Z"/><path class="cls-16" d="M361.95,217.5c-7.53,0-15-1.65-20.75-4.94-5.55-3.21-8.61-7.49-8.61-12.05s3.11-8.94,8.76-12.2c11.55-6.67,30.29-6.71,41.76-.08,5.55,3.21,8.61,7.49,8.61,12.05s-3.11,8.94-8.76,12.2C377.16,215.83,369.54,217.5,361.95,217.5Zm.41-34c-7.55,0-15.12,1.67-20.89,5-5.57,3.21-8.63,7.47-8.63,12s3,8.67,8.49,11.83c11.4,6.58,30,6.55,41.51-.08,5.57-3.21,8.63-7.47,8.63-12s-3-8.67-8.49-11.83h0C377.31,185.16,369.84,183.53,362.36,183.53Z"/><path class="cls-18" d="M379.39,190.44c-9.45-5.46-24.84-5.43-34.36.07s-9.57,14.38-.12,19.84,24.84,5.43,34.36-.07S388.85,195.9,379.39,190.44Z"/><path class="cls-16" d="M362,214.53c-6.22,0-12.42-1.36-17.13-4.08s-7.12-6.19-7.12-10,2.57-7.4,7.24-10.09c9.54-5.51,25-5.54,34.48-.07,4.59,2.65,7.12,6.19,7.12,10s-2.57,7.4-7.24,10.09S368.26,214.53,362,214.53Zm.34-28c-6.23,0-12.47,1.37-17.23,4.12-4.59,2.65-7.11,6.16-7.11,9.87s2.48,7.14,7,9.75c9.41,5.43,24.76,5.4,34.23-.07,4.59-2.65,7.11-6.15,7.11-9.87s-2.48-7.14-7-9.75h0C374.65,187.84,368.49,186.49,362.32,186.49Z"/><path class="cls-91" d="M345,190.51c-4.86,2.81-7.25,6.5-7.17,10.17.12-3.51,2.51-7,7.16-9.7,9.52-5.5,24.9-5.53,34.36-.07,4.62,2.67,7,6.16,7,9.67.13-3.67-2.22-7.35-7-10.14C369.94,185,354.56,185,345,190.51Z"/><path class="cls-16" d="M338,200.68h-.25c-.09-3.88,2.48-7.53,7.23-10.28h0c9.54-5.51,25-5.54,34.48-.07,4.72,2.72,7.24,6.36,7.11,10.25h-.25c-.08-3.61-2.56-7-7-9.57-9.4-5.43-24.76-5.4-34.23.07C340.64,193.65,338.12,197.06,338,200.68Zm7.1-10.06a15.74,15.74,0,0,0-5.81,5.35,16.36,16.36,0,0,1,5.68-5.1c9.54-5.51,25-5.54,34.48-.07a15.94,15.94,0,0,1,5.65,5.12,15.33,15.33,0,0,0-5.77-5.36c-9.4-5.43-24.76-5.4-34.23.07Z"/><polygon class="cls-92" points="374.54 199.36 381.48 197.82 366.71 189.29 361.9 192.06 369.74 196.58 343.08 202.54 347.9 205.32 358.13 211.23 362.96 208.44 354.86 203.77 374.54 199.36"/><path class="cls-16" d="M358.13,211.38l-15.4-8.89,26.66-6-7.74-4.47,5.05-2.92,15.11,8.72-26.62,5.95,8,4.63Zm-14.72-8.79,14.72,8.5,4.58-2.64-8.19-4.73.31-.07,26.31-5.88-14.43-8.33-4.55,2.63,7.92,4.57Z"/><polygon class="cls-93" points="370.54 204.4 373.22 203.8 369.8 201.83 367.12 202.43 370.54 204.4"/><path class="cls-16" d="M370.52,204.54l-3.74-2.16,3-.68,3.74,2.16Zm-3.06-2.06,3.1,1.79,2.32-.52-3.1-1.79Z"/><polygon class="cls-94" points="361.48 197.02 358.06 195.05 355.38 195.65 358.8 197.62 361.48 197.02"/><path class="cls-16" d="M358.78,197.76,355,195.59l3-.68,3.74,2.16Zm-3.06-2.06,3.1,1.79,2.32-.52-3.1-1.79Z"/><polygon class="cls-95" points="369.19 204.71 365.77 202.73 363.1 203.33 366.52 205.3 369.19 204.71"/><path class="cls-16" d="M366.5,205.44l-3.74-2.16,3-.68,3.74,2.16Zm-3.06-2.06,3.1,1.79,2.31-.52-3.1-1.79Z"/><polygon class="cls-96" points="354.02 195.95 351.35 196.55 354.77 198.52 357.44 197.93 354.02 195.95"/><path class="cls-16" d="M354.75,198.66,351,196.49l3-.68,3.74,2.16Zm-3.06-2.06,3.1,1.79,2.31-.52-3.1-1.79Z"/><path class="cls-97" d="M332.72,195.71s0,3.63,0,4.56c-.11,4.41,2.74,8.83,8.55,12.19,11.46,6.61,30.1,6.58,41.63-.08,5.77-3.33,8.67-7.69,8.7-12,0-1.46,0-4.62,0-4.62Z"/><path class="cls-16" d="M361.95,217.5c-7.53,0-15-1.65-20.75-4.94s-8.72-7.64-8.61-12.3c0-.92,0-4.52,0-4.55v-.13h59.13v.12s0,3.16,0,4.62c0,4.59-3.14,8.9-8.76,12.14C377.16,215.83,369.54,217.5,361.95,217.5Zm-29.11-21.67c0,.65,0,3.61,0,4.43-.11,4.56,2.9,8.85,8.48,12.08,11.4,6.58,30,6.55,41.51-.08,5.54-3.2,8.61-7.43,8.63-11.93,0-1.29,0-3.9,0-4.5Z"/><path class="cls-98" d="M383,183.65c-11.46-6.61-30.1-6.58-41.63.08s-11.6,17.42-.15,24,30.1,6.58,41.63-.08S394.5,190.26,383,183.65Z"/><path class="cls-16" d="M361.95,212.82c-7.53,0-15-1.65-20.75-4.94-5.55-3.21-8.61-7.49-8.61-12s3.11-8.94,8.76-12.2c11.55-6.67,30.29-6.71,41.76-.08,5.55,3.21,8.61,7.49,8.61,12s-3.11,8.94-8.76,12.2C377.16,211.14,369.54,212.82,361.95,212.82Zm.41-34c-7.55,0-15.12,1.67-20.89,5-5.57,3.21-8.63,7.47-8.63,12s3,8.67,8.49,11.83c11.4,6.58,30,6.55,41.51-.08,5.57-3.21,8.63-7.47,8.63-12s-3-8.67-8.49-11.83C377.31,180.48,369.84,178.84,362.36,178.84Z"/><path class="cls-18" d="M379.39,185.75c-9.45-5.46-24.84-5.43-34.36.07s-9.57,14.38-.12,19.84,24.84,5.43,34.36-.07S388.85,191.21,379.39,185.75Z"/><path class="cls-16" d="M362,209.85c-6.22,0-12.42-1.36-17.13-4.08s-7.12-6.19-7.12-10,2.57-7.4,7.24-10.09c9.54-5.51,25-5.54,34.48-.07,4.59,2.65,7.12,6.19,7.12,10S384,203,379.34,205.7,368.26,209.85,362,209.85Zm.34-28c-6.23,0-12.47,1.37-17.23,4.12-4.59,2.65-7.11,6.15-7.11,9.87s2.48,7.14,7,9.75c9.41,5.43,24.76,5.4,34.23-.07,4.59-2.65,7.11-6.15,7.11-9.87s-2.48-7.14-7-9.75h0C374.65,183.16,368.49,181.81,362.32,181.81Z"/><path class="cls-99" d="M345,185.82c-4.86,2.81-7.25,6.5-7.17,10.17.12-3.51,2.51-7,7.16-9.7,9.52-5.5,24.9-5.53,34.36-.07,4.62,2.67,7,6.16,7,9.67.13-3.67-2.22-7.35-7-10.14C369.94,180.3,354.56,180.33,345,185.82Z"/><path class="cls-16" d="M338,196h-.25c-.09-3.88,2.48-7.53,7.23-10.28,9.54-5.51,25-5.54,34.48-.07,4.72,2.72,7.24,6.36,7.11,10.25h-.25c-.08-3.61-2.56-7-7-9.57-9.41-5.43-24.76-5.4-34.23.07C340.64,189,338.12,192.38,338,196Zm7.1-10.06a15.74,15.74,0,0,0-5.81,5.35,16.36,16.36,0,0,1,5.68-5.1c9.54-5.51,25-5.54,34.48-.07a15.93,15.93,0,0,1,5.65,5.11,15.32,15.32,0,0,0-5.77-5.36c-9.4-5.43-24.76-5.4-34.23.07Z"/><polygon class="cls-100" points="374.54 194.68 381.48 193.13 366.71 184.61 361.9 187.38 369.74 191.9 343.08 197.85 347.9 200.64 358.13 206.55 362.96 203.76 354.86 199.08 374.54 194.68"/><path class="cls-16" d="M358.13,206.69l-15.4-8.89,26.66-6-7.74-4.47,5.05-2.92,15.11,8.72-26.62,5.95,8,4.63Zm-14.72-8.79,14.72,8.5,4.58-2.64L354.52,199l.31-.07,26.31-5.88-14.43-8.33-4.55,2.63,7.92,4.57Z"/><polygon class="cls-101" points="370.54 199.72 373.22 199.12 369.8 197.15 367.12 197.74 370.54 199.72"/><path class="cls-16" d="M370.52,199.85l-3.74-2.16,3-.68,3.74,2.16Zm-3.06-2.06,3.1,1.79,2.32-.52-3.1-1.79Z"/><polygon class="cls-102" points="361.48 192.34 358.06 190.36 355.38 190.96 358.8 192.94 361.48 192.34"/><path class="cls-16" d="M358.78,193.07,355,190.91l3-.68,3.74,2.16ZM355.72,191l3.1,1.79,2.32-.52L358,190.5Z"/><polygon class="cls-103" points="369.19 200.02 365.77 198.05 363.1 198.64 366.52 200.62 369.19 200.02"/><path class="cls-16" d="M366.5,200.75l-3.74-2.16,3-.68,3.74,2.16Zm-3.06-2.06,3.1,1.79,2.31-.52-3.1-1.79Z"/><polygon class="cls-104" points="354.02 191.27 351.35 191.86 354.77 193.84 357.44 193.24 354.02 191.27"/><path class="cls-16" d="M354.75,194,351,191.81l3-.68,3.74,2.16Zm-3.06-2.06,3.1,1.79,2.31-.52L354,191.4Z"/><path class="cls-105" d="M332.72,191s0,3.63,0,4.56c-.11,4.41,2.74,8.83,8.55,12.19,11.46,6.61,30.1,6.58,41.63-.08,5.77-3.33,8.67-7.69,8.7-12,0-1.46,0-4.62,0-4.62Z"/><path class="cls-16" d="M361.95,212.84c-7.53,0-15-1.65-20.75-4.94s-8.72-7.64-8.61-12.3c0-.92,0-4.52,0-4.55v-.13h59.13V191s0,3.16,0,4.62c0,4.59-3.14,8.9-8.76,12.14C377.16,211.17,369.54,212.84,361.95,212.84Zm-29.11-21.67c0,.65,0,3.61,0,4.43-.11,4.56,2.9,8.85,8.48,12.07,11.41,6.58,30,6.55,41.51-.08,5.54-3.2,8.61-7.43,8.63-11.93,0-1.29,0-3.9,0-4.5Z"/><path class="cls-106" d="M383,179c-11.46-6.61-30.1-6.58-41.63.08s-11.6,17.42-.15,24,30.1,6.58,41.63-.08S394.5,185.6,383,179Z"/><path class="cls-16" d="M361.95,208.16c-7.53,0-15-1.65-20.75-4.94-5.55-3.21-8.61-7.49-8.61-12.05s3.11-8.94,8.76-12.2c11.55-6.67,30.29-6.71,41.76-.08h0c5.55,3.21,8.61,7.49,8.61,12.05s-3.11,8.94-8.76,12.2C377.16,206.48,369.54,208.16,361.95,208.16Zm.41-34c-7.55,0-15.12,1.67-20.89,5-5.57,3.21-8.63,7.47-8.63,12s3,8.67,8.49,11.83c11.4,6.58,30,6.55,41.51-.08,5.57-3.21,8.63-7.47,8.63-12s-3-8.67-8.49-11.83h0C377.31,175.82,369.84,174.18,362.36,174.18Z"/><path class="cls-18" d="M379.39,181.09c-9.45-5.46-24.84-5.43-34.36.07s-9.57,14.38-.12,19.84,24.84,5.43,34.36-.07S388.85,186.55,379.39,181.09Z"/><path class="cls-16" d="M362,205.19c-6.22,0-12.42-1.36-17.13-4.08s-7.12-6.19-7.12-10,2.57-7.4,7.24-10.09c9.54-5.51,25-5.54,34.48-.07,4.59,2.65,7.12,6.19,7.12,10s-2.57,7.4-7.24,10.09S368.26,205.19,362,205.19Zm.34-28c-6.23,0-12.47,1.37-17.23,4.12-4.59,2.65-7.11,6.15-7.11,9.87s2.48,7.14,7,9.75c9.41,5.43,24.76,5.4,34.23-.07,4.59-2.65,7.11-6.16,7.11-9.87s-2.48-7.14-7-9.75C374.65,178.5,368.49,177.15,362.32,177.15Z"/><path class="cls-107" d="M345,181.16c-4.86,2.81-7.25,6.5-7.17,10.17.12-3.51,2.51-7,7.16-9.7,9.52-5.5,24.9-5.53,34.36-.07,4.62,2.67,7,6.16,7,9.67.13-3.67-2.22-7.35-7-10.14C369.94,175.64,354.56,175.67,345,181.16Z"/><path class="cls-16" d="M338,191.33h-.25c-.09-3.88,2.48-7.53,7.23-10.28,9.54-5.51,25-5.54,34.48-.07,4.72,2.72,7.24,6.36,7.11,10.25h-.25c-.08-3.62-2.56-7-7-9.56-9.41-5.43-24.76-5.4-34.23.07C340.64,184.31,338.12,187.72,338,191.33Zm7.1-10.06a15.74,15.74,0,0,0-5.81,5.35,16.36,16.36,0,0,1,5.68-5.1c9.54-5.51,25-5.54,34.48-.07a15.94,15.94,0,0,1,5.64,5.11,15.33,15.33,0,0,0-5.77-5.36c-9.4-5.43-24.76-5.4-34.23.07Z"/><polygon class="cls-108" points="374.54 190.02 381.48 188.47 366.71 179.95 361.9 182.72 369.74 187.24 343.08 193.2 347.9 195.98 358.13 201.89 362.96 199.1 354.86 194.42 374.54 190.02"/><path class="cls-16" d="M358.13,202l-15.4-8.89,26.66-6-7.74-4.47,5.05-2.92,15.11,8.72-26.62,5.95,8,4.63Zm-14.72-8.79,14.72,8.5,4.58-2.64-8.19-4.73.31-.07,26.31-5.88-14.43-8.33-4.55,2.63,7.92,4.57Z"/><polygon class="cls-109" points="370.54 195.06 373.22 194.46 369.8 192.49 367.12 193.09 370.54 195.06"/><path class="cls-16" d="M370.52,195.19,366.78,193l3-.68,3.74,2.16Zm-3.06-2.06,3.1,1.79,2.32-.52-3.1-1.79Z"/><polygon class="cls-110" points="361.48 187.68 358.06 185.71 355.38 186.3 358.8 188.28 361.48 187.68"/><path class="cls-16" d="M358.78,188.41,355,186.25l3-.68,3.74,2.16Zm-3.06-2.06,3.1,1.79,2.32-.52-3.1-1.79Z"/><polygon class="cls-111" points="369.19 195.36 365.77 193.39 363.1 193.98 366.52 195.96 369.19 195.36"/><path class="cls-16" d="M366.5,196.09l-3.74-2.16,3-.68,3.74,2.16ZM363.44,194l3.1,1.79,2.31-.52-3.1-1.79Z"/><polygon class="cls-112" points="354.02 186.61 351.35 187.2 354.77 189.18 357.44 188.58 354.02 186.61"/><path class="cls-16" d="M354.75,189.31,351,187.15l3-.68,3.74,2.16Zm-3.06-2.06,3.1,1.79,2.31-.52-3.1-1.79Z"/><path class="cls-113" d="M332.72,186.37s0,3.63,0,4.56c-.11,4.41,2.74,8.83,8.55,12.19,11.46,6.61,30.1,6.58,41.63-.08,5.77-3.33,8.67-7.69,8.7-12,0-1.46,0-4.62,0-4.62Z"/><path class="cls-16" d="M361.95,208.16c-7.53,0-15-1.65-20.75-4.94s-8.72-7.64-8.61-12.3c0-.92,0-4.52,0-4.55v-.13h59.13v.12s0,3.16,0,4.62c0,4.59-3.14,8.9-8.76,12.14C377.16,206.48,369.54,208.16,361.95,208.16Zm-29.11-21.67c0,.65,0,3.61,0,4.43-.11,4.56,2.9,8.85,8.48,12.07,11.4,6.58,30,6.55,41.51-.08,5.54-3.2,8.61-7.43,8.63-11.93,0-1.29,0-3.9,0-4.5Z"/><path class="cls-114" d="M383,174.3c-11.46-6.61-30.1-6.58-41.63.08s-11.6,17.42-.15,24,30.1,6.58,41.63-.08S394.5,180.92,383,174.3Z"/><path class="cls-16" d="M361.95,203.48c-7.53,0-15-1.65-20.75-4.94-5.55-3.21-8.61-7.49-8.61-12.05s3.11-8.94,8.76-12.2c11.55-6.67,30.29-6.71,41.76-.08,5.55,3.21,8.61,7.49,8.61,12.05s-3.11,8.94-8.76,12.2C377.16,201.8,369.54,203.48,361.95,203.48Zm.41-34c-7.55,0-15.12,1.67-20.89,5-5.57,3.21-8.63,7.47-8.63,12s3,8.67,8.49,11.83c11.4,6.58,30,6.55,41.51-.08,5.57-3.21,8.63-7.47,8.63-12s-3-8.67-8.49-11.83h0C377.31,171.14,369.84,169.5,362.36,169.5Z"/><path class="cls-18" d="M379.39,176.41c-9.45-5.46-24.84-5.43-34.36.07s-9.57,14.38-.12,19.84,24.84,5.43,34.36-.07S388.85,181.87,379.39,176.41Z"/><path class="cls-16" d="M362,200.51c-6.22,0-12.42-1.36-17.13-4.08s-7.12-6.19-7.12-10,2.57-7.4,7.24-10.09c9.54-5.51,25-5.54,34.48-.07,4.59,2.65,7.12,6.19,7.12,10s-2.57,7.4-7.24,10.09S368.26,200.51,362,200.51Zm.34-28c-6.23,0-12.47,1.37-17.23,4.12-4.59,2.65-7.11,6.16-7.11,9.87s2.48,7.14,7,9.75c9.41,5.43,24.76,5.4,34.23-.07,4.59-2.65,7.11-6.15,7.11-9.87s-2.48-7.14-7-9.75h0C374.65,173.82,368.49,172.47,362.32,172.47Z"/><path class="cls-115" d="M345,176.48c-4.86,2.81-7.25,6.5-7.17,10.17.12-3.51,2.51-7,7.16-9.7,9.52-5.5,24.9-5.53,34.36-.07,4.62,2.67,7,6.16,7,9.67.13-3.67-2.22-7.35-7-10.14C369.94,171,354.56,171,345,176.48Z"/><path class="cls-16" d="M338,186.65h-.25c-.09-3.89,2.48-7.54,7.23-10.28h0c9.54-5.51,25-5.54,34.48-.07,4.72,2.72,7.24,6.36,7.11,10.25h-.25c-.08-3.62-2.56-7-7-9.56-9.4-5.43-24.76-5.4-34.23.07C340.64,179.63,338.12,183,338,186.65Zm7.1-10.06a15.74,15.74,0,0,0-5.81,5.35,16.35,16.35,0,0,1,5.68-5.1c9.54-5.51,25-5.54,34.48-.07a15.94,15.94,0,0,1,5.64,5.11,15.33,15.33,0,0,0-5.77-5.36c-9.4-5.43-24.76-5.4-34.23.07Z"/><polygon class="cls-116" points="374.54 185.33 381.48 183.79 366.71 175.26 361.9 178.04 369.74 182.56 343.08 188.51 347.9 191.3 358.13 197.21 362.96 194.42 354.86 189.74 374.54 185.33"/><path class="cls-16" d="M358.13,197.35l-15.4-8.89,26.66-6L361.65,178l5.05-2.92,15.11,8.72-26.62,5.95,8,4.63Zm-14.72-8.79,14.72,8.5,4.58-2.64-8.19-4.73.31-.07,26.31-5.88-14.43-8.33L362.15,178l7.92,4.57Z"/><polygon class="cls-117" points="370.54 190.38 373.22 189.78 369.8 187.8 367.12 188.4 370.54 190.38"/><path class="cls-16" d="M370.52,190.51l-3.74-2.16,3-.68,3.74,2.16Zm-3.06-2.06,3.1,1.79,2.32-.52-3.1-1.79Z"/><polygon class="cls-118" points="361.48 183 358.06 181.02 355.38 181.62 358.8 183.6 361.48 183"/><path class="cls-16" d="M358.78,183.73,355,181.57l3-.68,3.74,2.16Zm-3.06-2.06,3.1,1.79,2.32-.52-3.1-1.79Z"/><polygon class="cls-119" points="369.19 190.68 365.77 188.7 363.1 189.3 366.52 191.28 369.19 190.68"/><path class="cls-16" d="M366.5,191.41l-3.74-2.16,3-.68,3.74,2.16Zm-3.06-2.06,3.1,1.79,2.31-.52-3.1-1.79Z"/><polygon class="cls-120" points="354.02 181.92 351.35 182.52 354.77 184.5 357.44 183.9 354.02 181.92"/><path class="cls-16" d="M354.75,184.63,351,182.47l3-.68,3.74,2.16Zm-3.06-2.06,3.1,1.79,2.31-.52-3.1-1.79Z"/><path class="cls-121" d="M332.72,181.68s0,3.63,0,4.56c-.11,4.41,2.74,8.83,8.55,12.19,11.46,6.61,30.1,6.58,41.63-.08,5.77-3.33,8.67-7.69,8.7-12,0-1.46,0-4.62,0-4.62Z"/><path class="cls-16" d="M361.95,203.48c-7.53,0-15-1.65-20.75-4.94s-8.72-7.64-8.61-12.3c0-.92,0-4.52,0-4.55v-.13h59.13v.12s0,3.16,0,4.62c0,4.59-3.14,8.9-8.76,12.14C377.16,201.8,369.54,203.48,361.95,203.48Zm-29.11-21.67c0,.65,0,3.61,0,4.43-.11,4.56,2.9,8.85,8.48,12.08,11.4,6.58,30,6.55,41.51-.08,5.54-3.2,8.61-7.43,8.63-11.93,0-1.29,0-3.9,0-4.5Z"/><path class="cls-122" d="M383,169.62c-11.46-6.61-30.1-6.58-41.63.08s-11.6,17.42-.15,24,30.1,6.58,41.63-.08S394.5,176.23,383,169.62Z"/><path class="cls-16" d="M361.95,198.79c-7.53,0-15-1.65-20.75-4.94-5.55-3.21-8.61-7.49-8.61-12s3.11-8.94,8.76-12.2c11.55-6.67,30.29-6.71,41.76-.08,5.55,3.21,8.61,7.49,8.61,12s-3.11,8.94-8.76,12.2C377.16,197.12,369.54,198.79,361.95,198.79Zm.41-34c-7.55,0-15.12,1.67-20.89,5-5.57,3.21-8.63,7.47-8.63,12s3,8.67,8.49,11.83c11.41,6.58,30,6.55,41.51-.08,5.57-3.21,8.63-7.47,8.63-12s-3-8.67-8.49-11.83C377.31,166.45,369.84,164.81,362.36,164.81Z"/><path class="cls-18" d="M379.39,171.73c-9.45-5.46-24.84-5.43-34.36.07s-9.57,14.38-.12,19.84,24.84,5.43,34.36-.07S388.85,177.19,379.39,171.73Z"/><path class="cls-16" d="M362,195.82c-6.22,0-12.42-1.36-17.13-4.08s-7.12-6.19-7.12-10,2.57-7.4,7.24-10.09c9.54-5.51,25-5.54,34.48-.07,4.59,2.65,7.12,6.19,7.12,10s-2.57,7.4-7.24,10.09S368.26,195.82,362,195.82Zm.34-28c-6.23,0-12.47,1.37-17.23,4.12-4.59,2.65-7.11,6.16-7.11,9.87s2.48,7.14,7,9.75c9.41,5.43,24.76,5.4,34.23-.07,4.59-2.65,7.11-6.15,7.11-9.87s-2.48-7.14-7-9.75h0C374.65,169.13,368.5,167.78,362.33,167.78Z"/><path class="cls-123" d="M345,171.8c-4.86,2.81-7.25,6.5-7.17,10.17.12-3.51,2.51-7,7.16-9.7,9.52-5.5,24.9-5.53,34.36-.07,4.62,2.67,7,6.16,7,9.67.13-3.67-2.22-7.35-7-10.14C369.94,166.27,354.56,166.3,345,171.8Z"/><path class="cls-16" d="M338,182h-.25c-.09-3.88,2.48-7.53,7.23-10.28,9.54-5.51,25-5.54,34.48-.07,4.72,2.72,7.24,6.36,7.11,10.25h-.25c-.08-3.61-2.56-7-7-9.57-9.41-5.43-24.76-5.4-34.23.07C340.64,174.94,338.12,178.35,338,182Zm7.1-10.06h0a15.74,15.74,0,0,0-5.81,5.35,16.36,16.36,0,0,1,5.68-5.1c9.54-5.51,25-5.54,34.48-.07a15.94,15.94,0,0,1,5.65,5.11,15.33,15.33,0,0,0-5.77-5.36c-9.4-5.43-24.76-5.4-34.23.07Z"/><polygon class="cls-124" points="374.54 180.65 381.48 179.11 366.71 170.58 361.9 173.35 369.74 177.87 343.08 183.83 347.9 186.61 358.13 192.52 362.96 189.74 354.86 185.06 374.54 180.65"/><path class="cls-16" d="M358.13,192.67l-15.4-8.89,26.66-6-7.74-4.47,5.05-2.92,15.11,8.72-26.62,5.95,8,4.63Zm-14.72-8.79,14.72,8.5,4.58-2.64L354.52,185l.31-.07,26.31-5.88-14.43-8.33-4.55,2.63,7.92,4.57Z"/><polygon class="cls-125" points="370.54 185.69 373.22 185.09 369.8 183.12 367.12 183.72 370.54 185.69"/><path class="cls-16" d="M370.52,185.83l-3.74-2.16,3-.68,3.74,2.16Zm-3.06-2.06,3.1,1.79,2.32-.52-3.1-1.79Z"/><polygon class="cls-126" points="361.48 178.31 358.06 176.34 355.38 176.94 358.8 178.91 361.48 178.31"/><path class="cls-16" d="M358.78,179,355,176.88l3-.68,3.74,2.16ZM355.72,177l3.1,1.79,2.32-.52-3.1-1.79Z"/><polygon class="cls-127" points="369.19 186 365.77 184.02 363.1 184.62 366.52 186.59 369.19 186"/><path class="cls-16" d="M366.5,186.73l-3.74-2.16,3-.68,3.74,2.16Zm-3.06-2.06,3.1,1.79,2.31-.52-3.1-1.79Z"/><polygon class="cls-128" points="354.02 177.24 351.35 177.84 354.77 179.81 357.44 179.22 354.02 177.24"/><path class="cls-16" d="M354.75,179.95,351,177.78l3-.68,3.74,2.16Zm-3.06-2.06,3.1,1.79,2.31-.52-3.1-1.79Z"/><path class="cls-2" d="M377.51,155.88a.5.5,0,0,1-.5-.5v-4a.5.5,0,1,1,1,0v4A.5.5,0,0,1,377.51,155.88Zm0-9a.5.5,0,0,1-.5-.5v-4a.5.5,0,1,1,1,0v4A.5.5,0,0,1,377.51,146.88Zm0-9a.5.5,0,0,1-.5-.5v-4a.5.5,0,1,1,1,0v4A.5.5,0,0,1,377.51,137.88Zm0-9a.5.5,0,0,1-.5-.5v-4a.5.5,0,0,1,1,0v4A.5.5,0,0,1,377.51,128.88Zm-.18-9a.5.5,0,0,1-.5-.45,33.72,33.72,0,0,0-.63-3.89.5.5,0,0,1,1-.22,34.85,34.85,0,0,1,.65,4,.5.5,0,0,1-.45.55Zm-2.07-8.73a.5.5,0,0,1-.47-.32,33.76,33.76,0,0,0-1.62-3.59.5.5,0,0,1,.89-.46,34.7,34.7,0,0,1,1.67,3.7.5.5,0,0,1-.47.68ZM371,103.27a.5.5,0,0,1-.4-.21,34,34,0,0,0-2.5-3,.5.5,0,0,1,.73-.68,35.08,35.08,0,0,1,2.57,3.13.5.5,0,0,1-.4.79Zm-6.19-6.5a.5.5,0,0,1-.31-.11,33.67,33.67,0,0,0-3.21-2.29.5.5,0,1,1,.53-.85,34.6,34.6,0,0,1,3.3,2.35.5.5,0,0,1-.31.89Zm-7.55-4.87a.5.5,0,0,1-.25-.07l-3.44-2a.5.5,0,1,1,.51-.86l3.44,2a.5.5,0,0,1-.25.93Zm-7.75-4.58a.5.5,0,0,1-.25-.07l-3.44-2a.5.5,0,0,1,.51-.86l3.44,2a.5.5,0,0,1-.25.93Zm-7.75-4.58a.5.5,0,0,1-.25-.07l-3.44-2a.5.5,0,0,1,.51-.86l3.44,2a.5.5,0,0,1-.25.93ZM334,78.15a.5.5,0,0,1-.25-.07l-3.44-2a.5.5,0,0,1,.51-.86l3.44,2a.5.5,0,0,1-.25.93Zm-7.75-4.58a.5.5,0,0,1-.25-.07l-3.44-2a.5.5,0,0,1,.51-.86l3.44,2a.5.5,0,0,1-.25.93ZM318.51,69a.5.5,0,0,1-.25-.07l-3.44-2a.5.5,0,0,1,.51-.86l3.44,2a.5.5,0,0,1-.25.93Zm-124.74-.75a.5.5,0,0,1-.5-.5V65a.5.5,0,0,1,1,0v2.76A.5.5,0,0,1,193.77,68.24Zm117-3.83a.5.5,0,0,1-.25-.07l-3.44-2a.5.5,0,0,1,.51-.86l3.44,2a.5.5,0,0,1-.25.93Zm-117-3.93a.5.5,0,0,1-.5-.5V56a.5.5,0,0,1,1,0v4A.5.5,0,0,1,193.77,60.48ZM303,59.83a.5.5,0,0,1-.25-.07l-3.44-2a.5.5,0,0,1,.51-.86l3.44,2a.5.5,0,0,1-.25.93Zm-7.75-4.58a.5.5,0,0,1-.25-.07l-3.44-2a.5.5,0,0,1,.51-.86l3.44,2a.5.5,0,0,1-.25.93Zm-101.5-3.77a.5.5,0,0,1-.5-.5V47a.5.5,0,0,1,1,0v4A.5.5,0,0,1,193.77,51.48Zm93.75-.81a.5.5,0,0,1-.25-.07l-3.44-2a.5.5,0,1,1,.51-.86l3.44,2a.5.5,0,0,1-.25.93Zm-7.75-4.58a.5.5,0,0,1-.25-.07l-3.44-2a.5.5,0,1,1,.51-.86l3.44,2a.5.5,0,0,1-.25.93Zm-86-3.61a.5.5,0,0,1-.5-.5V38a.5.5,0,0,1,1,0v4A.5.5,0,0,1,193.77,42.48Zm78.26-1a.5.5,0,0,1-.25-.07l-3.44-2a.5.5,0,1,1,.51-.86l3.44,2a.5.5,0,0,1-.25.93Zm-7.75-4.58a.5.5,0,0,1-.25-.07l-3.44-2a.5.5,0,0,1,.51-.86l3.44,2a.5.5,0,0,1-.25.93Zm-70.51-3.45a.5.5,0,0,1-.5-.5V29a.5.5,0,0,1,1,0v4A.5.5,0,0,1,193.77,33.48Zm62.76-1.13a.5.5,0,0,1-.25-.07l-3.44-2a.5.5,0,1,1,.51-.86l3.44,2a.5.5,0,0,1-.25.93Zm-7.75-4.58a.5.5,0,0,1-.25-.07l-3.44-2a.5.5,0,0,1,.51-.86l3.44,2a.5.5,0,0,1-.25.93Zm-55-3.29a.5.5,0,0,1-.5-.5V20a.5.5,0,0,1,1,0v4A.5.5,0,0,1,193.77,24.48ZM241,23.19a.5.5,0,0,1-.25-.07l-3.44-2a.5.5,0,0,1,.51-.86l3.44,2a.5.5,0,0,1-.25.93Zm-7.75-4.58a.5.5,0,0,1-.25-.07l-3.44-2a.5.5,0,0,1,.51-.86l3.44,2a.5.5,0,0,1-.25.93Zm-39.46-3.13h0a.5.5,0,0,1-.45-.55,12.61,12.61,0,0,1,1.07-4,.5.5,0,0,1,.91.41,11.62,11.62,0,0,0-1,3.69A.5.5,0,0,1,193.83,15.48ZM225.54,14a.5.5,0,0,1-.25-.07l-3.44-2a.5.5,0,0,1,.51-.86l3.44,2a.5.5,0,0,1-.25.93Zm-7.75-4.58a.5.5,0,0,1-.25-.07l-3.44-2a.5.5,0,0,1,.51-.86l3.44,2a.5.5,0,0,1-.25.93Zm-20-1.82a.5.5,0,0,1-.33-.87,13,13,0,0,1,3.48-2.24.5.5,0,0,1,.4.92,12,12,0,0,0-3.22,2.07A.5.5,0,0,1,197.8,7.64Zm12.13-2.53-.16,0A11.47,11.47,0,0,0,206,4.46a.52.52,0,0,1-.52-.5.48.48,0,0,1,.48-.5,12.53,12.53,0,0,1,4.09.68.5.5,0,0,1-.16,1Z"/><path class="cls-2" d="M377.51,155.31l-4.77-9.73.62-.44a7.18,7.18,0,0,1,8.31,0l.62.44Z"/></g></g></svg>