<svg xmlns="http://www.w3.org/2000/svg" xmlns:xlink="http://www.w3.org/1999/xlink" viewBox="0 0 622.65 336.34"><defs><style>.cls-1{fill:url(#New_Gradient_Swatch);}.cls-2{fill:url(#New_Gradient_Swatch_copy);}.cls-3{fill:url(#New_Gradient_Swatch_copy-2);}.cls-4{fill:url(#New_Gradient_Swatch-2);}.cls-5{fill:url(#New_Gradient_Swatch_copy-3);}.cls-6{fill:url(#New_Gradient_Swatch_copy-4);}.cls-7{fill:url(#New_Gradient_Swatch-3);}.cls-8{fill:url(#New_Gradient_Swatch_copy-5);}.cls-9{fill:#fff;}.cls-10{opacity:0.75;}.cls-11{fill:url(#New_Gradient_Swatch_copy-6);}.cls-12{fill:#57aff7;}.cls-13{fill:url(#New_Gradient_Swatch_copy-7);}.cls-14{fill:url(#linear-gradient);}.cls-15{fill:#424b4f;opacity:0.5;}.cls-16{fill:url(#linear-gradient-2);}.cls-17{fill:#f5ffff;}.cls-18{fill:url(#linear-gradient-3);}.cls-19{fill:url(#linear-gradient-4);}.cls-20{fill:url(#linear-gradient-5);}.cls-21{fill:url(#linear-gradient-6);}.cls-22{fill:url(#linear-gradient-7);}.cls-23{fill:url(#linear-gradient-8);}.cls-24{fill:url(#linear-gradient-9);}.cls-25{fill:url(#linear-gradient-10);}.cls-26{fill:url(#linear-gradient-11);}.cls-27{fill:url(#linear-gradient-12);}.cls-28{fill:url(#linear-gradient-13);}.cls-29{fill:url(#linear-gradient-14);}.cls-30{fill:url(#linear-gradient-15);}.cls-31{fill:url(#linear-gradient-16);}.cls-32{fill:url(#linear-gradient-17);}.cls-33{fill:url(#linear-gradient-18);}.cls-34{fill:url(#linear-gradient-19);}.cls-35{fill:url(#linear-gradient-20);}.cls-36{fill:url(#linear-gradient-21);}.cls-37{fill:url(#linear-gradient-22);}.cls-38{fill:url(#linear-gradient-23);}.cls-39{fill:url(#linear-gradient-24);}.cls-40{fill:url(#linear-gradient-25);}.cls-41{fill:url(#linear-gradient-26);}.cls-42{fill:url(#linear-gradient-27);}.cls-43{fill:url(#linear-gradient-28);}.cls-44{fill:url(#linear-gradient-29);}.cls-45{fill:url(#linear-gradient-30);}.cls-46{fill:url(#linear-gradient-31);}.cls-47{fill:url(#linear-gradient-32);}.cls-48{fill:url(#linear-gradient-33);}.cls-49{fill:url(#linear-gradient-34);}.cls-50{fill:url(#linear-gradient-35);}.cls-51{fill:url(#linear-gradient-36);}.cls-52{fill:url(#linear-gradient-37);}.cls-53{fill:url(#linear-gradient-38);}.cls-54{fill:url(#linear-gradient-39);}.cls-55{fill:url(#linear-gradient-40);}.cls-56{fill:url(#linear-gradient-41);}.cls-57{fill:url(#linear-gradient-42);}.cls-58{fill:url(#linear-gradient-43);}.cls-59{fill:url(#linear-gradient-44);}.cls-60{fill:url(#linear-gradient-45);}.cls-61{fill:url(#linear-gradient-46);}.cls-62{fill:url(#linear-gradient-47);}.cls-63{fill:url(#linear-gradient-48);}.cls-64{fill:url(#linear-gradient-49);}.cls-65{fill:url(#linear-gradient-50);}.cls-66{fill:url(#linear-gradient-51);}.cls-67{fill:url(#linear-gradient-52);}.cls-68{fill:url(#linear-gradient-53);}.cls-69{fill:url(#linear-gradient-54);}.cls-70{fill:url(#linear-gradient-55);}.cls-71{fill:url(#linear-gradient-56);}.cls-72{fill:url(#linear-gradient-57);}.cls-73{fill:url(#linear-gradient-58);}.cls-74{fill:url(#linear-gradient-59);}.cls-75{fill:url(#linear-gradient-60);}.cls-76{fill:url(#linear-gradient-61);}.cls-77{fill:url(#linear-gradient-62);}.cls-78{fill:url(#linear-gradient-63);}.cls-79{fill:url(#linear-gradient-64);}.cls-80{fill:url(#linear-gradient-65);}.cls-81{fill:url(#linear-gradient-66);}.cls-82{fill:url(#linear-gradient-67);}.cls-83{fill:url(#linear-gradient-68);}.cls-84{fill:url(#linear-gradient-69);}.cls-85{fill:url(#linear-gradient-70);}.cls-86{fill:url(#linear-gradient-71);}.cls-87{fill:url(#linear-gradient-72);}.cls-88{fill:url(#linear-gradient-73);}.cls-89{fill:url(#linear-gradient-74);}.cls-90{fill:url(#linear-gradient-75);}.cls-91{fill:url(#linear-gradient-76);}.cls-92{fill:url(#linear-gradient-77);}.cls-93{fill:url(#linear-gradient-78);}.cls-94{fill:url(#linear-gradient-79);}.cls-95{fill:url(#linear-gradient-80);}.cls-96{fill:url(#linear-gradient-81);}.cls-97{fill:url(#linear-gradient-82);}.cls-98{fill:url(#linear-gradient-83);}.cls-99{fill:url(#linear-gradient-84);}.cls-100{fill:url(#linear-gradient-85);}.cls-101{fill:url(#linear-gradient-86);}.cls-102{fill:url(#linear-gradient-87);}.cls-103{fill:url(#linear-gradient-88);}.cls-104{fill:url(#linear-gradient-89);}.cls-105{fill:url(#linear-gradient-90);}.cls-106{fill:url(#linear-gradient-91);}.cls-107{fill:url(#linear-gradient-92);}.cls-108{fill:url(#linear-gradient-93);}.cls-109{fill:url(#linear-gradient-94);}.cls-110{fill:url(#linear-gradient-95);}.cls-111{fill:url(#linear-gradient-96);}.cls-112{fill:url(#linear-gradient-97);}.cls-113{fill:url(#linear-gradient-98);}.cls-114{fill:url(#linear-gradient-99);}.cls-115{fill:url(#linear-gradient-100);}.cls-116{fill:url(#linear-gradient-101);}.cls-117{fill:url(#linear-gradient-102);}.cls-118{fill:url(#linear-gradient-103);}.cls-119{fill:url(#linear-gradient-104);}.cls-120{fill:url(#linear-gradient-105);}.cls-121{fill:url(#linear-gradient-106);}.cls-122{fill:url(#linear-gradient-107);}.cls-123{fill:url(#linear-gradient-108);}.cls-124{fill:url(#linear-gradient-109);}.cls-125{fill:url(#linear-gradient-110);}.cls-126{fill:url(#linear-gradient-111);}.cls-127{fill:url(#linear-gradient-112);}.cls-128{fill:#272c34;}.cls-129,.cls-130{fill:#67eaec;}.cls-130{opacity:0.09;}.cls-131{fill:url(#New_Gradient_Swatch_copy-8);}.cls-132{fill:url(#New_Gradient_Swatch_copy-9);}.cls-133{opacity:0.4;}.cls-134{fill:url(#linear-gradient-113);}.cls-135{fill:url(#linear-gradient-114);}.cls-136{fill:url(#New_Gradient_Swatch_copy-10);}.cls-137{fill:url(#New_Gradient_Swatch_copy-11);}.cls-138{fill:url(#New_Gradient_Swatch_copy-12);}.cls-139{fill:url(#New_Gradient_Swatch-4);}.cls-140{fill:url(#New_Gradient_Swatch-5);}.cls-141{fill:url(#New_Gradient_Swatch-6);}.cls-142{fill:url(#linear-gradient-115);}.cls-143{fill:url(#linear-gradient-116);}.cls-144{fill:url(#linear-gradient-117);}.cls-145{fill:url(#linear-gradient-118);}.cls-146{fill:url(#linear-gradient-119);}</style><linearGradient id="New_Gradient_Swatch" x1="28.94" y1="40.71" x2="283.06" y2="187.42" gradientUnits="userSpaceOnUse"><stop offset="0" stop-color="#5c8ee4"/><stop offset="1" stop-color="#67eaec"/></linearGradient><linearGradient id="New_Gradient_Swatch_copy" x1="0.3" y1="114.07" x2="311.7" y2="114.07" gradientUnits="userSpaceOnUse"><stop offset="0" stop-color="#2e3d4a"/><stop offset="1" stop-color="#232329"/></linearGradient><linearGradient id="New_Gradient_Swatch_copy-2" x1="0.2" y1="113.57" x2="0.8" y2="113.57" xlink:href="#New_Gradient_Swatch_copy"/><linearGradient id="New_Gradient_Swatch-2" x1="156.5" y1="203.57" x2="156.5" y2="203.57" xlink:href="#New_Gradient_Swatch"/><linearGradient id="New_Gradient_Swatch_copy-3" x1="156.2" y1="203.57" x2="156.8" y2="203.57" xlink:href="#New_Gradient_Swatch_copy"/><linearGradient id="New_Gradient_Swatch_copy-4" x1="311.2" y1="114.57" x2="311.8" y2="114.57" xlink:href="#New_Gradient_Swatch_copy"/><linearGradient id="New_Gradient_Swatch-3" x1="39.33" y1="22.71" x2="272.67" y2="157.42" xlink:href="#New_Gradient_Swatch"/><linearGradient id="New_Gradient_Swatch_copy-5" x1="0" y1="90.07" x2="312" y2="90.07" xlink:href="#New_Gradient_Swatch_copy"/><linearGradient id="New_Gradient_Swatch_copy-6" x1="311.4" y1="114.11" x2="0.6" y2="114.11" xlink:href="#New_Gradient_Swatch_copy"/><linearGradient id="New_Gradient_Swatch_copy-7" x1="156.5" y1="203.61" x2="156.5" y2="203.61" xlink:href="#New_Gradient_Swatch_copy"/><linearGradient id="linear-gradient" x1="104.71" y1="89.55" x2="163.59" y2="89.55" gradientUnits="userSpaceOnUse"><stop offset="0" stop-color="#5c8ee4"/><stop offset="1" stop-color="#65d5ea"/></linearGradient><linearGradient id="linear-gradient-2" x1="104.71" y1="78.71" x2="163.59" y2="78.71" xlink:href="#linear-gradient"/><linearGradient id="linear-gradient-3" x1="158.44" y1="71.84" x2="109.86" y2="71.84" xlink:href="#linear-gradient"/><linearGradient id="linear-gradient-4" x1="-3367.77" y1="588.2" x2="-3362.86" y2="568.36" gradientTransform="matrix(-0.14, 0.58, -1.75, 0.14, 660.44, 1958.21)" gradientUnits="userSpaceOnUse"><stop offset="0" stop-color="#5fa5e6"/><stop offset="1" stop-color="#67eaec"/></linearGradient><linearGradient id="linear-gradient-5" x1="-3359.7" y1="575.37" x2="-3358.64" y2="571.06" xlink:href="#linear-gradient-4"/><linearGradient id="linear-gradient-6" x1="-3373.27" y1="583.2" x2="-3372.2" y2="578.89" xlink:href="#linear-gradient-4"/><linearGradient id="linear-gradient-7" x1="-3358.71" y1="577.59" x2="-3357.64" y2="573.29" xlink:href="#linear-gradient-4"/><linearGradient id="linear-gradient-8" x1="-3372.27" y1="585.42" x2="-3371.21" y2="581.11" xlink:href="#linear-gradient-4"/><linearGradient id="linear-gradient-9" x1="104.71" y1="84.86" x2="163.59" y2="84.86" xlink:href="#linear-gradient"/><linearGradient id="linear-gradient-10" x1="104.71" y1="74.02" x2="163.59" y2="74.02" xlink:href="#linear-gradient"/><linearGradient id="linear-gradient-11" x1="158.44" y1="67.15" x2="109.86" y2="67.15" xlink:href="#linear-gradient"/><linearGradient id="linear-gradient-12" x1="-3375.97" y1="588.87" x2="-3371.06" y2="569.04" xlink:href="#linear-gradient-4"/><linearGradient id="linear-gradient-13" x1="-3367.9" y1="576.05" x2="-3366.84" y2="571.74" xlink:href="#linear-gradient-4"/><linearGradient id="linear-gradient-14" x1="-3381.46" y1="583.88" x2="-3380.4" y2="579.57" xlink:href="#linear-gradient-4"/><linearGradient id="linear-gradient-15" x1="-3366.91" y1="578.27" x2="-3365.84" y2="573.96" xlink:href="#linear-gradient-4"/><linearGradient id="linear-gradient-16" x1="-3380.47" y1="586.09" x2="-3379.4" y2="581.79" xlink:href="#linear-gradient-4"/><linearGradient id="linear-gradient-17" x1="104.71" y1="80.18" x2="163.59" y2="80.18" xlink:href="#linear-gradient"/><linearGradient id="linear-gradient-18" x1="104.71" y1="69.34" x2="163.59" y2="69.34" xlink:href="#linear-gradient"/><linearGradient id="linear-gradient-19" x1="158.44" y1="62.47" x2="109.86" y2="62.47" xlink:href="#linear-gradient"/><linearGradient id="linear-gradient-20" x1="-3384.16" y1="589.55" x2="-3379.26" y2="569.72" xlink:href="#linear-gradient-4"/><linearGradient id="linear-gradient-21" x1="-3376.1" y1="576.72" x2="-3375.03" y2="572.41" xlink:href="#linear-gradient-4"/><linearGradient id="linear-gradient-22" x1="-3389.66" y1="584.55" x2="-3388.59" y2="580.24" xlink:href="#linear-gradient-4"/><linearGradient id="linear-gradient-23" x1="-3375.1" y1="578.94" x2="-3374.04" y2="574.64" xlink:href="#linear-gradient-4"/><linearGradient id="linear-gradient-24" x1="-3388.66" y1="586.77" x2="-3387.6" y2="582.47" xlink:href="#linear-gradient-4"/><linearGradient id="linear-gradient-25" x1="104.71" y1="75.5" x2="163.59" y2="75.5" xlink:href="#linear-gradient"/><linearGradient id="linear-gradient-26" x1="104.71" y1="64.66" x2="163.59" y2="64.66" xlink:href="#linear-gradient"/><linearGradient id="linear-gradient-27" x1="158.44" y1="57.78" x2="109.86" y2="57.78" xlink:href="#linear-gradient"/><linearGradient id="linear-gradient-28" x1="-3392.36" y1="590.22" x2="-3387.45" y2="570.39" xlink:href="#linear-gradient-4"/><linearGradient id="linear-gradient-29" x1="-3384.29" y1="577.4" x2="-3383.23" y2="573.09" xlink:href="#linear-gradient-4"/><linearGradient id="linear-gradient-30" x1="-3397.86" y1="585.23" x2="-3396.79" y2="580.92" xlink:href="#linear-gradient-4"/><linearGradient id="linear-gradient-31" x1="-3383.3" y1="579.62" x2="-3382.23" y2="575.31" xlink:href="#linear-gradient-4"/><linearGradient id="linear-gradient-32" x1="-3396.86" y1="587.45" x2="-3395.79" y2="583.14" xlink:href="#linear-gradient-4"/><linearGradient id="linear-gradient-33" x1="104.71" y1="70.84" x2="163.59" y2="70.84" xlink:href="#linear-gradient"/><linearGradient id="linear-gradient-34" x1="104.71" y1="60" x2="163.59" y2="60" xlink:href="#linear-gradient"/><linearGradient id="linear-gradient-35" x1="158.44" y1="53.12" x2="109.86" y2="53.12" xlink:href="#linear-gradient"/><linearGradient id="linear-gradient-36" x1="-3400.51" y1="590.9" x2="-3395.61" y2="571.06" xlink:href="#linear-gradient-4"/><linearGradient id="linear-gradient-37" x1="-3392.45" y1="578.07" x2="-3391.38" y2="573.76" xlink:href="#linear-gradient-4"/><linearGradient id="linear-gradient-38" x1="-3406.01" y1="585.9" x2="-3404.94" y2="581.59" xlink:href="#linear-gradient-4"/><linearGradient id="linear-gradient-39" x1="-3391.45" y1="580.29" x2="-3390.39" y2="575.99" xlink:href="#linear-gradient-4"/><linearGradient id="linear-gradient-40" x1="-3405.01" y1="588.12" x2="-3403.95" y2="583.82" xlink:href="#linear-gradient-4"/><linearGradient id="linear-gradient-41" x1="104.71" y1="66.15" x2="163.59" y2="66.15" xlink:href="#linear-gradient"/><linearGradient id="linear-gradient-42" x1="104.71" y1="55.31" x2="163.59" y2="55.31" xlink:href="#linear-gradient"/><linearGradient id="linear-gradient-43" x1="158.44" y1="48.44" x2="109.86" y2="48.44" xlink:href="#linear-gradient"/><linearGradient id="linear-gradient-44" x1="-3408.71" y1="591.57" x2="-3403.8" y2="571.74" xlink:href="#linear-gradient-4"/><linearGradient id="linear-gradient-45" x1="-3400.64" y1="578.75" x2="-3399.58" y2="574.44" xlink:href="#linear-gradient-4"/><linearGradient id="linear-gradient-46" x1="-3414.21" y1="586.58" x2="-3413.14" y2="582.27" xlink:href="#linear-gradient-4"/><linearGradient id="linear-gradient-47" x1="-3399.65" y1="580.97" x2="-3398.58" y2="576.66" xlink:href="#linear-gradient-4"/><linearGradient id="linear-gradient-48" x1="-3413.21" y1="588.8" x2="-3412.15" y2="584.49" xlink:href="#linear-gradient-4"/><linearGradient id="linear-gradient-49" x1="104.71" y1="61.47" x2="163.59" y2="61.47" xlink:href="#linear-gradient"/><linearGradient id="linear-gradient-50" x1="104.71" y1="50.63" x2="163.59" y2="50.63" xlink:href="#linear-gradient"/><linearGradient id="linear-gradient-51" x1="158.44" y1="43.76" x2="109.86" y2="43.76" xlink:href="#linear-gradient"/><linearGradient id="linear-gradient-52" x1="-3416.91" y1="592.25" x2="-3412" y2="572.42" xlink:href="#linear-gradient-4"/><linearGradient id="linear-gradient-53" x1="-3408.84" y1="579.42" x2="-3407.78" y2="575.12" xlink:href="#linear-gradient-4"/><linearGradient id="linear-gradient-54" x1="-3422.4" y1="587.25" x2="-3421.34" y2="582.95" xlink:href="#linear-gradient-4"/><linearGradient id="linear-gradient-55" x1="-3407.85" y1="581.64" x2="-3406.78" y2="577.34" xlink:href="#linear-gradient-4"/><linearGradient id="linear-gradient-56" x1="-3421.41" y1="589.47" x2="-3420.34" y2="585.17" xlink:href="#linear-gradient-4"/><linearGradient id="linear-gradient-57" x1="104.71" y1="56.79" x2="163.59" y2="56.79" xlink:href="#linear-gradient"/><linearGradient id="linear-gradient-58" x1="104.71" y1="45.95" x2="163.59" y2="45.95" xlink:href="#linear-gradient"/><linearGradient id="linear-gradient-59" x1="158.44" y1="39.07" x2="109.86" y2="39.07" xlink:href="#linear-gradient"/><linearGradient id="linear-gradient-60" x1="-3425.1" y1="592.92" x2="-3420.2" y2="573.09" xlink:href="#linear-gradient-4"/><linearGradient id="linear-gradient-61" x1="-3417.04" y1="580.1" x2="-3415.97" y2="575.79" xlink:href="#linear-gradient-4"/><linearGradient id="linear-gradient-62" x1="-3430.6" y1="587.93" x2="-3429.53" y2="583.62" xlink:href="#linear-gradient-4"/><linearGradient id="linear-gradient-63" x1="-3416.04" y1="582.32" x2="-3414.98" y2="578.01" xlink:href="#linear-gradient-4"/><linearGradient id="linear-gradient-64" x1="-3429.6" y1="590.15" x2="-3428.54" y2="585.84" xlink:href="#linear-gradient-4"/><linearGradient id="linear-gradient-65" x1="148.4" y1="112.63" x2="207.29" y2="112.63" xlink:href="#linear-gradient"/><linearGradient id="linear-gradient-66" x1="148.4" y1="101.79" x2="207.28" y2="101.79" xlink:href="#linear-gradient"/><linearGradient id="linear-gradient-67" x1="202.13" y1="94.92" x2="153.55" y2="94.92" xlink:href="#linear-gradient"/><linearGradient id="linear-gradient-68" x1="-3321.06" y1="559.38" x2="-3316.16" y2="539.54" xlink:href="#linear-gradient-4"/><linearGradient id="linear-gradient-69" x1="-3313" y1="546.55" x2="-3311.93" y2="542.24" xlink:href="#linear-gradient-4"/><linearGradient id="linear-gradient-70" x1="-3326.56" y1="554.38" x2="-3325.49" y2="550.07" xlink:href="#linear-gradient-4"/><linearGradient id="linear-gradient-71" x1="-3312" y1="548.77" x2="-3310.94" y2="544.47" xlink:href="#linear-gradient-4"/><linearGradient id="linear-gradient-72" x1="-3325.56" y1="556.6" x2="-3324.5" y2="552.29" xlink:href="#linear-gradient-4"/><linearGradient id="linear-gradient-73" x1="148.4" y1="107.95" x2="207.29" y2="107.95" xlink:href="#linear-gradient"/><linearGradient id="linear-gradient-74" x1="148.4" y1="97.11" x2="207.28" y2="97.11" xlink:href="#linear-gradient"/><linearGradient id="linear-gradient-75" x1="202.13" y1="90.24" x2="153.55" y2="90.24" xlink:href="#linear-gradient"/><linearGradient id="linear-gradient-76" x1="-3329.26" y1="560.05" x2="-3324.35" y2="540.22" xlink:href="#linear-gradient-4"/><linearGradient id="linear-gradient-77" x1="-3321.19" y1="547.23" x2="-3320.13" y2="542.92" xlink:href="#linear-gradient-4"/><linearGradient id="linear-gradient-78" x1="-3334.76" y1="555.06" x2="-3333.69" y2="550.75" xlink:href="#linear-gradient-4"/><linearGradient id="linear-gradient-79" x1="-3320.2" y1="549.44" x2="-3319.13" y2="545.14" xlink:href="#linear-gradient-4"/><linearGradient id="linear-gradient-80" x1="-3333.76" y1="557.27" x2="-3332.7" y2="552.97" xlink:href="#linear-gradient-4"/><linearGradient id="linear-gradient-81" x1="148.4" y1="103.27" x2="207.29" y2="103.27" xlink:href="#linear-gradient"/><linearGradient id="linear-gradient-82" x1="148.4" y1="92.43" x2="207.28" y2="92.43" xlink:href="#linear-gradient"/><linearGradient id="linear-gradient-83" x1="202.13" y1="85.55" x2="153.55" y2="85.55" xlink:href="#linear-gradient"/><linearGradient id="linear-gradient-84" x1="-3337.46" y1="560.73" x2="-3332.55" y2="540.9" xlink:href="#linear-gradient-4"/><linearGradient id="linear-gradient-85" x1="-3329.39" y1="547.9" x2="-3328.33" y2="543.59" xlink:href="#linear-gradient-4"/><linearGradient id="linear-gradient-86" x1="-3342.95" y1="555.73" x2="-3341.89" y2="551.42" xlink:href="#linear-gradient-4"/><linearGradient id="linear-gradient-87" x1="-3328.4" y1="550.12" x2="-3327.33" y2="545.82" xlink:href="#linear-gradient-4"/><linearGradient id="linear-gradient-88" x1="-3341.96" y1="557.95" x2="-3340.89" y2="553.65" xlink:href="#linear-gradient-4"/><linearGradient id="linear-gradient-89" x1="148.4" y1="98.58" x2="207.29" y2="98.58" xlink:href="#linear-gradient"/><linearGradient id="linear-gradient-90" x1="148.4" y1="87.74" x2="207.28" y2="87.74" xlink:href="#linear-gradient"/><linearGradient id="linear-gradient-91" x1="202.13" y1="80.87" x2="153.55" y2="80.87" xlink:href="#linear-gradient"/><linearGradient id="linear-gradient-92" x1="-3345.65" y1="561.4" x2="-3340.75" y2="541.57" xlink:href="#linear-gradient-4"/><linearGradient id="linear-gradient-93" x1="-3337.59" y1="548.58" x2="-3336.52" y2="544.27" xlink:href="#linear-gradient-4"/><linearGradient id="linear-gradient-94" x1="-3351.15" y1="556.41" x2="-3350.08" y2="552.1" xlink:href="#linear-gradient-4"/><linearGradient id="linear-gradient-95" x1="-3336.59" y1="550.8" x2="-3335.53" y2="546.49" xlink:href="#linear-gradient-4"/><linearGradient id="linear-gradient-96" x1="-3350.15" y1="558.63" x2="-3349.09" y2="554.32" xlink:href="#linear-gradient-4"/><linearGradient id="linear-gradient-97" x1="148.4" y1="93.92" x2="207.29" y2="93.92" xlink:href="#linear-gradient"/><linearGradient id="linear-gradient-98" x1="148.4" y1="83.08" x2="207.28" y2="83.08" xlink:href="#linear-gradient"/><linearGradient id="linear-gradient-99" x1="202.13" y1="76.21" x2="153.55" y2="76.21" xlink:href="#linear-gradient"/><linearGradient id="linear-gradient-100" x1="-3353.81" y1="562.08" x2="-3348.9" y2="542.24" xlink:href="#linear-gradient-4"/><linearGradient id="linear-gradient-101" x1="-3345.74" y1="549.25" x2="-3344.68" y2="544.94" xlink:href="#linear-gradient-4"/><linearGradient id="linear-gradient-102" x1="-3359.3" y1="557.08" x2="-3358.24" y2="552.77" xlink:href="#linear-gradient-4"/><linearGradient id="linear-gradient-103" x1="-3344.75" y1="551.47" x2="-3343.68" y2="547.17" xlink:href="#linear-gradient-4"/><linearGradient id="linear-gradient-104" x1="-3358.31" y1="559.3" x2="-3357.24" y2="555" xlink:href="#linear-gradient-4"/><linearGradient id="linear-gradient-105" x1="148.4" y1="89.24" x2="207.29" y2="89.24" xlink:href="#linear-gradient"/><linearGradient id="linear-gradient-106" x1="148.4" y1="78.4" x2="207.28" y2="78.4" xlink:href="#linear-gradient"/><linearGradient id="linear-gradient-107" x1="202.13" y1="71.53" x2="153.55" y2="71.53" xlink:href="#linear-gradient"/><linearGradient id="linear-gradient-108" x1="-3362" y1="562.75" x2="-3357.1" y2="542.92" xlink:href="#linear-gradient-4"/><linearGradient id="linear-gradient-109" x1="-3353.94" y1="549.93" x2="-3352.87" y2="545.62" xlink:href="#linear-gradient-4"/><linearGradient id="linear-gradient-110" x1="-3367.5" y1="557.76" x2="-3366.43" y2="553.45" xlink:href="#linear-gradient-4"/><linearGradient id="linear-gradient-111" x1="-3352.94" y1="552.15" x2="-3351.88" y2="547.84" xlink:href="#linear-gradient-4"/><linearGradient id="linear-gradient-112" x1="-3366.5" y1="559.98" x2="-3365.44" y2="555.67" xlink:href="#linear-gradient-4"/><linearGradient id="New_Gradient_Swatch_copy-8" x1="-2294.94" y1="153.81" x2="-2206.45" y2="153.81" gradientTransform="matrix(-1, 0, 0, 1, -1784.18, 0)" xlink:href="#New_Gradient_Swatch_copy"/><linearGradient id="New_Gradient_Swatch_copy-9" x1="-2294.94" y1="129.81" x2="-2206.45" y2="129.81" gradientTransform="matrix(-1, 0, 0, 1, -1784.18, 0)" xlink:href="#New_Gradient_Swatch_copy"/><linearGradient id="linear-gradient-113" x1="-1699.69" y1="67.77" x2="-1652.96" y2="67.77" gradientTransform="translate(2232.58)" gradientUnits="userSpaceOnUse"><stop offset="0" stop-color="#39e6e0"/><stop offset="1" stop-color="#232329"/></linearGradient><linearGradient id="linear-gradient-114" x1="-1691.33" y1="27.72" x2="-1661.32" y2="27.72" xlink:href="#linear-gradient-113"/><linearGradient id="New_Gradient_Swatch_copy-10" x1="495.9" y1="222.32" x2="185.11" y2="222.32" xlink:href="#New_Gradient_Swatch_copy"/><linearGradient id="New_Gradient_Swatch_copy-11" x1="341.01" y1="311.82" x2="341.01" y2="311.82" xlink:href="#New_Gradient_Swatch_copy"/><linearGradient id="New_Gradient_Swatch_copy-12" x1="340.51" y1="288.04" x2="340.51" y2="108.6" xlink:href="#New_Gradient_Swatch_copy"/><linearGradient id="New_Gradient_Swatch-4" x1="289.17" y1="197.61" x2="348.05" y2="197.61" xlink:href="#New_Gradient_Swatch"/><linearGradient id="New_Gradient_Swatch-5" x1="289.17" y1="186.77" x2="348.05" y2="186.77" xlink:href="#New_Gradient_Swatch"/><linearGradient id="New_Gradient_Swatch-6" x1="342.9" y1="179.89" x2="294.32" y2="179.89" xlink:href="#New_Gradient_Swatch"/><linearGradient id="linear-gradient-115" x1="-3152.04" y1="465" x2="-3147.14" y2="445.16" xlink:href="#linear-gradient-4"/><linearGradient id="linear-gradient-116" x1="-3143.98" y1="452.17" x2="-3142.91" y2="447.86" xlink:href="#linear-gradient-4"/><linearGradient id="linear-gradient-117" x1="-3157.54" y1="460" x2="-3156.47" y2="455.69" xlink:href="#linear-gradient-4"/><linearGradient id="linear-gradient-118" x1="-3142.98" y1="454.39" x2="-3141.92" y2="450.09" xlink:href="#linear-gradient-4"/><linearGradient id="linear-gradient-119" x1="-3156.54" y1="462.22" x2="-3155.48" y2="457.92" xlink:href="#linear-gradient-4"/></defs><title>imagen1_2.2</title><g id="Layer_2" data-name="Layer 2"><g id="ilus"><polygon class="cls-1" points="311.4 90.35 155.51 0.35 0.6 89.78 0.6 137.78 156.49 227.78 311.4 138.35 311.4 90.35"/><path class="cls-2" d="M156.48,228.13l-.15-.09L.3,138V89.61l.15-.09L155.51,0l.15.09,156,90.09v48.35l-.15.09ZM.9,137.61l155.58,89.83L311.1,138.17V90.52L155.51.69.9,90Z"/><path class="cls-3" d="M.5,137.87a.3.3,0,0,1-.3-.3v-48a.3.3,0,1,1,.6,0v48A.3.3,0,0,1,.5,137.87Z"/><line class="cls-4" x1="156.5" y1="179.57" x2="156.5" y2="227.57"/><rect class="cls-5" x="156.2" y="179.57" width="0.6" height="48"/><path class="cls-6" d="M311.5,138.87a.3.3,0,0,1-.3-.3v-48a.3.3,0,0,1,.6,0v48A.3.3,0,0,1,311.5,138.87Z"/><polygon class="cls-7" points="156.49 179.78 0.6 89.78 155.51 0.35 311.4 90.35 156.49 179.78"/><path class="cls-8" d="M156.48,180.13l-.15-.09L0,89.78l.45-.26L155.51,0l.15.09L312,90.35l-.45.26ZM1.2,89.78l155.28,89.65L310.8,90.35,155.51.69Z"/><path class="cls-9" d="M121.06,76.3l2.14-1.23,14,8.06L135,84.36Z"/><path class="cls-9" d="M146,90.66q-4-2.33-3.42-5.43t4.78-5.51A21.66,21.66,0,0,1,156.86,77a16.27,16.27,0,0,1,9.41,2q4,2.31,3.4,5.42t-4.76,5.52a21.59,21.59,0,0,1-9.56,2.75A16.3,16.3,0,0,1,146,90.66Zm-.07-5.33q-.75,2.43,2.17,4.12a11.58,11.58,0,0,0,7.13,1.25,18.17,18.17,0,0,0,7.3-2.22,7.73,7.73,0,0,0,3.84-4.22q.75-2.43-2.17-4.12A11.58,11.58,0,0,0,157,78.9a18.17,18.17,0,0,0-7.3,2.22A7.73,7.73,0,0,0,145.89,85.33Z"/><path class="cls-9" d="M166.78,102.67q-3.46-2-4-4.07t2.7-4l2.3,1.33q-2.48,1.43-1.84,2.88t3.4,3a10.06,10.06,0,0,0,4.18,1.31,6.9,6.9,0,0,0,4.17-.9q1.49-.86,1.12-2.06A5.68,5.68,0,0,0,177,97.79q-1.39-1.24-2.67-2.51A4,4,0,0,1,173,92.62q-.07-1.38,1.92-2.53a9.53,9.53,0,0,1,6-1.12,16,16,0,0,1,6.17,2q3,1.75,3.68,3.55T189.15,98l-2.23-1.29q2.55-2.14-1.71-4.6a11,11,0,0,0-3.91-1.36,5.69,5.69,0,0,0-3.79.66q-1.3.75-.81,1.89a7.26,7.26,0,0,0,1.83,2.38q1.35,1.24,2.6,2.56a4,4,0,0,1,1.26,2.73q0,1.41-1.94,2.54a10.88,10.88,0,0,1-6.79,1.48A17.55,17.55,0,0,1,166.78,102.67Z"/><g class="cls-10"><polygon class="cls-11" points="311.4 90.39 155.51 0.39 0.6 89.83 0.6 137.83 156.48 227.83 311.4 138.39 311.4 90.39"/><path class="cls-12" d="M156.48,228.13a.3.3,0,0,1-.15,0L.45,138.09a.3.3,0,0,1-.15-.26v-48a.3.3,0,0,1,.15-.26L155.36.13a.3.3,0,0,1,.3,0l155.88,90a.3.3,0,0,1,.15.26v48a.3.3,0,0,1-.15.26L156.63,228.09A.3.3,0,0,1,156.48,228.13ZM.9,137.66l155.58,89.83L311.1,138.22V90.57L155.51.74.9,90Z"/><line class="cls-13" x1="156.5" y1="179.61" x2="156.5" y2="227.61"/><path class="cls-12" d="M156.5,227.91a.3.3,0,0,1-.3-.3v-48a.3.3,0,1,1,.6,0v48A.3.3,0,0,1,156.5,227.91Z"/><path class="cls-12" d="M156.48,180.13a.3.3,0,0,1-.15,0L.45,90.09a.3.3,0,0,1,0-.52L155.36.13a.3.3,0,0,1,.3,0l155.88,90a.3.3,0,0,1,0,.52L156.63,180.09A.3.3,0,0,1,156.48,180.13ZM1.2,89.83l155.28,89.65L310.8,90.39,155.51.74Z"/><polygon class="cls-12" points="121.06 76.35 135.03 84.41 137.16 83.17 123.2 75.11 121.06 76.35"/><path class="cls-12" d="M169.66,84.4q.6-3.12-3.4-5.42a16.27,16.27,0,0,0-9.41-2,21.65,21.65,0,0,0-9.54,2.76q-4.16,2.4-4.78,5.51T146,90.7a16.3,16.3,0,0,0,9.39,2,21.59,21.59,0,0,0,9.56-2.75Q169.07,87.52,169.66,84.4Zm-14.48,6.34a11.58,11.58,0,0,1-7.13-1.25q-2.92-1.69-2.17-4.12a7.73,7.73,0,0,1,3.84-4.22,18.18,18.18,0,0,1,7.3-2.22,11.58,11.58,0,0,1,7.13,1.25q2.92,1.68,2.17,4.12a7.73,7.73,0,0,1-3.84,4.22A18.17,18.17,0,0,1,155.19,90.74Z"/><path class="cls-12" d="M190.8,94.57q-.64-1.8-3.68-3.55a16,16,0,0,0-6.17-2,9.53,9.53,0,0,0-6,1.12q-2,1.15-1.92,2.53a4,4,0,0,0,1.35,2.66q1.29,1.27,2.67,2.51a5.68,5.68,0,0,1,1.76,2.45q.37,1.21-1.12,2.06a6.9,6.9,0,0,1-4.17.9,10.05,10.05,0,0,1-4.18-1.31q-2.77-1.6-3.4-3T167.74,96l-2.3-1.33q-3.28,1.9-2.7,4t4,4.07a17.55,17.55,0,0,0,6.88,2.32,10.88,10.88,0,0,0,6.79-1.48q1.95-1.12,1.94-2.54a4,4,0,0,0-1.26-2.73q-1.25-1.32-2.6-2.56a7.26,7.26,0,0,1-1.83-2.38q-.49-1.14.81-1.89a5.69,5.69,0,0,1,3.79-.66,11,11,0,0,1,3.91,1.36q4.26,2.46,1.71,4.6l2.23,1.29Q191.44,96.38,190.8,94.57Z"/><polygon class="cls-12" points="18.56 128.12 16.29 116.66 13.83 115.23 17.52 131.56 19.59 132.75 23.25 120.67 20.8 119.25 18.56 128.12"/><polygon class="cls-12" points="27.15 120.69 27.15 123.37 30.64 123.79 30.64 139.14 33.01 140.51 33.01 121.33 32.7 121.16 27.15 120.69"/><path class="cls-12" d="M41.59,142.1q-.65-.38-1-.08a1.31,1.31,0,0,0-.36,1.06,3.07,3.07,0,0,0,.37,1.46,2.61,2.61,0,0,0,1,1.07c.44.26.79.29,1,.1a1.25,1.25,0,0,0,.36-1,3.22,3.22,0,0,0-.36-1.47A2.59,2.59,0,0,0,41.59,142.1Z"/><path class="cls-12" d="M56.08,145.72A8.48,8.48,0,0,0,54.3,143a2,2,0,0,0,1.58-.8,3.26,3.26,0,0,0,.61-2.07,9.35,9.35,0,0,0-1.22-4.7,8.9,8.9,0,0,0-3.35-3.37,4.14,4.14,0,0,0-2.33-.67,2,2,0,0,0-1.62.95,4.15,4.15,0,0,0-.58,2.34L49.77,136a1.74,1.74,0,0,1,.61-1.58,1.49,1.49,0,0,1,1.58.17,4,4,0,0,1,1.63,1.69,5.35,5.35,0,0,1,.53,2.43c0,.94-.22,1.54-.64,1.8a1.73,1.73,0,0,1-1.74-.24l-1.45-.84V142l1.4.81a5.12,5.12,0,0,1,2,2,5.49,5.49,0,0,1,.66,2.7c0,1-.21,1.64-.63,1.92s-1,.21-1.74-.21a4.46,4.46,0,0,1-1.7-1.77,5,5,0,0,1-.63-2.41l-2.37-1.37a9.06,9.06,0,0,0,1.31,4.67,9.25,9.25,0,0,0,3.36,3.41q2.14,1.24,3.46.47t1.31-3.34A8.21,8.21,0,0,0,56.08,145.72Z"/><path class="cls-12" d="M154.49,122.12h0c-1.34,0-2.69-.06-4-.13a.5.5,0,0,1-.47-.53.49.49,0,0,1,.53-.47c1.32.07,2.65.12,4,.13a.5.5,0,0,1,0,1Zm5-.07a.5.5,0,0,1,0-1c1.32-.05,2.66-.14,4-.25a.49.49,0,0,1,.54.46.5.5,0,0,1-.46.54c-1.33.11-2.68.19-4,.25Zm-14-.46h-.05c-1.33-.14-2.67-.32-4-.52a.5.5,0,0,1,.15-1c1.3.2,2.63.37,3.95.52a.5.5,0,0,1-.05,1Zm22.94-.34a.5.5,0,0,1-.07-1c1.31-.18,2.63-.4,3.92-.63a.5.5,0,1,1,.18,1c-1.31.24-2.64.46-4,.64Zm-31.83-1.09h-.11c-1.32-.28-2.64-.6-3.92-.94a.5.5,0,0,1,.26-1c1.26.34,2.56.65,3.87.93a.5.5,0,0,1-.1,1Zm40.66-.61a.5.5,0,0,1-.12-1c1.29-.32,2.58-.68,3.83-1.05a.5.5,0,1,1,.29,1c-1.27.38-2.57.74-3.88,1.07Zm-49.34-1.79-.16,0c-1.28-.44-2.55-.92-3.77-1.42a.5.5,0,0,1,.38-.92c1.2.49,2.45,1,3.72,1.4a.5.5,0,0,1-.16,1Zm57.92-.89a.5.5,0,0,1-.18-1c1.25-.48,2.48-1,3.66-1.53a.5.5,0,0,1,.41.91c-1.2.55-2.45,1.07-3.72,1.55A.51.51,0,0,1,185.87,116.88Zm-66.21-2.6a.5.5,0,0,1-.23-.06c-.82-.42-1.64-.86-2.42-1.32l-1.1-.65a.5.5,0,0,1,.52-.85l1.08.64c.77.44,1.57.88,2.38,1.29a.5.5,0,0,1-.23.94Zm74.36-1.2a.5.5,0,0,1-.24-.94l.44-.25c1-.59,2-1.2,2.92-1.82a.5.5,0,0,1,.56.83c-.94.64-1.95,1.26-3,1.86l-.46.26A.5.5,0,0,1,194,113.08Zm-82-3.58a.5.5,0,0,1-.31-.1,37.53,37.53,0,0,1-3.06-2.65.5.5,0,0,1,.7-.72,36.57,36.57,0,0,0,3,2.58.5.5,0,0,1-.31.9Zm89.34-1.55a.5.5,0,0,1-.33-.88,33.86,33.86,0,0,0,2.83-2.74.5.5,0,1,1,.74.67,34.87,34.87,0,0,1-2.91,2.82A.5.5,0,0,1,201.39,107.95Zm-95.66-4.81a.5.5,0,0,1-.4-.2,25,25,0,0,1-2.15-3.46.5.5,0,1,1,.89-.45,24,24,0,0,0,2.06,3.32.5.5,0,0,1-.4.8Zm101.57-1.93a.5.5,0,0,1-.42-.77A22.5,22.5,0,0,0,208.67,97a.5.5,0,1,1,.93.38,23.47,23.47,0,0,1-1.87,3.63A.5.5,0,0,1,207.3,101.21ZM101.9,95.06a.5.5,0,0,1-.49-.39,19.15,19.15,0,0,1-.5-4.07.5.5,0,0,1,.49-.51.49.49,0,0,1,.51.49,18.14,18.14,0,0,0,.48,3.85.5.5,0,0,1-.37.6Zm108.53-2.22h-.07a.5.5,0,0,1-.43-.56,17.91,17.91,0,0,0,.16-2.39q0-.75-.06-1.49a.5.5,0,1,1,1-.08q.07.79.07,1.58a18.93,18.93,0,0,1-.17,2.52A.5.5,0,0,1,210.43,92.84ZM102,86.16l-.13,0a.5.5,0,0,1-.36-.61,21.31,21.31,0,0,1,1.41-3.84.5.5,0,1,1,.9.43,20.24,20.24,0,0,0-1.34,3.66A.5.5,0,0,1,102,86.16ZM209.46,84a.5.5,0,0,1-.47-.33,21.51,21.51,0,0,0-1.65-3.53.5.5,0,0,1,.86-.5,22.58,22.58,0,0,1,1.73,3.7.5.5,0,0,1-.47.67ZM106,78.15a.5.5,0,0,1-.4-.8,31,31,0,0,1,2.67-3.07.5.5,0,1,1,.71.7,29.85,29.85,0,0,0-2.58,3A.5.5,0,0,1,106,78.15Zm98.86-1.83a.5.5,0,0,1-.38-.17,32.28,32.28,0,0,0-2.76-2.8.5.5,0,1,1,.67-.74,33.38,33.38,0,0,1,2.85,2.89.5.5,0,0,1-.38.83Zm-92.48-4.48a.5.5,0,0,1-.31-.9c1-.8,2.15-1.58,3.31-2.32a.5.5,0,1,1,.54.84c-1.14.73-2.23,1.49-3.24,2.27A.5.5,0,0,1,112.36,71.84Zm85.75-1.46a.5.5,0,0,1-.28-.09c-1-.73-2.17-1.44-3.34-2.11a.5.5,0,1,1,.5-.87c1.19.69,2.34,1.42,3.41,2.16a.5.5,0,0,1-.29.91Zm-4.66-2.85a.5.5,0,0,1-.24-.06c-1.14-.62-2.33-1.21-3.55-1.76a.5.5,0,0,1,.41-.91c1.24.56,2.46,1.17,3.61,1.79a.5.5,0,0,1-.24.94ZM120,67.07a.5.5,0,0,1-.23-.95c1.17-.6,2.39-1.17,3.65-1.72a.5.5,0,1,1,.4.92c-1.23.53-2.44,1.1-3.59,1.69A.5.5,0,0,1,120,67.07Zm65.26-3.2a.51.51,0,0,1-.17,0c-1.22-.44-2.49-.86-3.77-1.25a.5.5,0,1,1,.29-1c1.3.39,2.58.81,3.82,1.27a.5.5,0,0,1-.17,1Zm-57-.3a.5.5,0,0,1-.16-1c1.25-.43,2.54-.84,3.84-1.21a.5.5,0,1,1,.27,1c-1.28.37-2.56.77-3.79,1.19Zm48.35-2.23h-.11c-1.27-.29-2.58-.56-3.9-.8a.5.5,0,0,1,.18-1c1.33.24,2.66.51,3.94.81a.5.5,0,0,1-.11,1Zm-39.69-.19a.5.5,0,0,1-.11-1c1.29-.28,2.62-.54,3.95-.77a.5.5,0,0,1,.17,1c-1.31.22-2.63.48-3.9.76Zm30.83-1.37h-.06c-1.31-.16-2.64-.29-4-.4a.5.5,0,1,1,.08-1c1.34.11,2.68.24,4,.4a.5.5,0,0,1-.06,1Zm-22-.09a.5.5,0,0,1-.06-1c1.32-.15,2.67-.27,4-.37a.51.51,0,0,1,.53.46.5.5,0,0,1-.46.53c-1.32.09-2.65.21-4,.36Zm13-.56h0q-2-.05-4,0a.5.5,0,1,1,0-1q2,0,4,0a.5.5,0,0,1,0,1Z"/></g><path class="cls-14" d="M104.71,78.71s0,3.63,0,4.56c-.11,4.41,2.74,8.83,8.55,12.19,11.46,6.61,30.1,6.58,41.63-.08,5.77-3.33,8.67-7.69,8.7-12,0-1.46,0-4.62,0-4.62Z"/><path class="cls-15" d="M133.94,100.5c-7.53,0-15-1.65-20.75-4.94s-8.73-7.64-8.61-12.3c0-.92,0-4.52,0-4.55v-.13h59.13v.12s0,3.18,0,4.62c0,4.59-3.14,8.9-8.76,12.14C149.15,98.83,141.54,100.5,133.94,100.5ZM104.84,78.83c0,.65,0,3.61,0,4.43-.11,4.56,2.9,8.85,8.48,12.08,11.4,6.58,30,6.55,41.51-.08,5.54-3.2,8.61-7.44,8.63-11.93,0-1.28,0-3.9,0-4.5Z"/><path class="cls-16" d="M155,66.65c-11.46-6.61-30.1-6.58-41.63.08s-11.6,17.42-.15,24,30.1,6.58,41.63-.08S166.5,73.26,155,66.65Z"/><path class="cls-15" d="M133.94,95.82c-7.53,0-15-1.65-20.75-4.94-5.55-3.21-8.61-7.49-8.61-12s3.11-8.94,8.76-12.2c11.55-6.67,30.29-6.71,41.76-.08,5.55,3.21,8.61,7.49,8.61,12s-3.11,8.94-8.76,12.2C149.15,94.14,141.54,95.82,133.94,95.82Zm.41-34c-7.55,0-15.12,1.67-20.89,5-5.57,3.21-8.63,7.47-8.63,12s3,8.67,8.49,11.83c11.4,6.58,30,6.55,41.51-.08,5.57-3.21,8.63-7.47,8.63-12s-3-8.67-8.49-11.83C149.3,63.48,141.84,61.84,134.36,61.84Z"/><path class="cls-17" d="M151.39,68.75c-9.45-5.46-24.84-5.43-34.36.07s-9.57,14.38-.12,19.84,24.84,5.43,34.36-.07S160.84,74.21,151.39,68.75Z"/><path class="cls-15" d="M134,92.85c-6.22,0-12.42-1.36-17.13-4.08s-7.12-6.19-7.12-10,2.57-7.4,7.24-10.09c9.54-5.51,25-5.54,34.48-.07,4.59,2.65,7.12,6.19,7.12,10S156,86,151.33,88.7,140.25,92.85,134,92.85Zm.34-28c-6.23,0-12.47,1.37-17.23,4.12-4.59,2.65-7.11,6.15-7.11,9.87s2.48,7.14,7,9.75c9.4,5.43,24.76,5.4,34.23-.07,4.59-2.65,7.11-6.15,7.11-9.87s-2.48-7.14-7-9.75h0C146.65,66.16,140.49,64.81,134.32,64.81Z"/><path class="cls-18" d="M117,68.82c-4.86,2.81-7.25,6.5-7.17,10.17.12-3.51,2.51-7,7.16-9.7,9.52-5.5,24.9-5.53,34.36-.07,4.62,2.67,7,6.16,7,9.67.13-3.67-2.22-7.35-7-10.14C141.93,63.3,126.55,63.33,117,68.82Z"/><path class="cls-15" d="M110,79h-.25c-.09-3.88,2.48-7.53,7.23-10.28l.06.11-.06-.11c9.54-5.51,25-5.54,34.48-.07,4.72,2.72,7.24,6.36,7.11,10.25h-.25c-.08-3.61-2.56-7-7-9.57-9.41-5.43-24.76-5.4-34.23.07C112.64,72,110.11,75.38,110,79Zm24.33-14.18c-6.23,0-12.47,1.37-17.23,4.12a15.74,15.74,0,0,0-5.81,5.35,16.36,16.36,0,0,1,5.68-5.1c9.54-5.51,25-5.54,34.48-.07a15.94,15.94,0,0,1,5.64,5.11,15.33,15.33,0,0,0-5.77-5.36C146.65,66.16,140.49,64.81,134.32,64.81Z"/><polygon class="cls-19" points="146.54 77.68 153.47 76.13 138.7 67.61 133.9 70.38 141.73 74.9 115.07 80.86 119.89 83.64 130.13 89.55 134.96 86.76 126.85 82.08 146.54 77.68"/><path class="cls-15" d="M130.13,89.69l-15.4-8.89,26.66-6-7.74-4.47,5.05-2.92,15.11,8.72-26.62,5.95,8,4.63Zm-14.72-8.79,14.72,8.5,4.58-2.64L126.51,82l.31-.07,26.31-5.88L138.7,67.75l-4.55,2.63L142.07,75Z"/><polygon class="cls-20" points="142.54 82.72 145.22 82.12 141.8 80.14 139.12 80.74 142.54 82.72"/><path class="cls-15" d="M142.52,82.85l-3.74-2.16,3-.68,3.74,2.16Zm-3.06-2.06,3.1,1.79,2.32-.52-3.1-1.79Z"/><polygon class="cls-21" points="133.47 75.34 130.05 73.36 127.37 73.96 130.79 75.94 133.47 75.34"/><path class="cls-15" d="M130.77,76.07,127,73.91l3-.68,3.74,2.16ZM127.71,74l3.1,1.79,2.32-.52L130,73.5Z"/><polygon class="cls-22" points="141.18 83.02 137.76 81.05 135.09 81.64 138.51 83.62 141.18 83.02"/><path class="cls-15" d="M138.49,83.75l-3.74-2.16,3-.68,3.74,2.16Zm-3.06-2.06,3.1,1.79,2.31-.52-3.1-1.79Z"/><polygon class="cls-23" points="126.02 74.27 123.35 74.86 126.77 76.84 129.44 76.24 126.02 74.27"/><path class="cls-15" d="M126.75,77,123,74.81l3-.68,3.74,2.16Zm-3.06-2.06,3.1,1.79,2.31-.52L126,74.4Z"/><path class="cls-24" d="M104.71,74s0,3.63,0,4.56c-.11,4.41,2.74,8.83,8.55,12.19,11.46,6.61,30.1,6.58,41.63-.08,5.77-3.33,8.67-7.69,8.7-12,0-1.46,0-4.62,0-4.62Z"/><path class="cls-15" d="M133.94,95.82c-7.53,0-15-1.65-20.75-4.94s-8.73-7.64-8.61-12.3c0-.92,0-4.52,0-4.55V73.9h59.13V74s0,3.18,0,4.62c0,4.59-3.14,8.9-8.76,12.14C149.15,94.14,141.54,95.82,133.94,95.82ZM104.84,74.15c0,.65,0,3.61,0,4.43-.11,4.56,2.9,8.85,8.48,12.07,11.4,6.58,30,6.55,41.51-.08,5.54-3.2,8.61-7.43,8.63-11.93,0-1.28,0-3.9,0-4.5Z"/><path class="cls-25" d="M155,62c-11.46-6.61-30.1-6.58-41.63.08s-11.6,17.42-.15,24,30.1,6.58,41.63-.08S166.5,68.58,155,62Z"/><path class="cls-15" d="M133.94,91.14c-7.53,0-15-1.65-20.75-4.94-5.55-3.21-8.61-7.49-8.61-12.05s3.11-8.94,8.76-12.2c11.55-6.67,30.29-6.71,41.76-.08,5.55,3.21,8.61,7.49,8.61,12.05s-3.11,8.94-8.76,12.2C149.15,89.46,141.54,91.14,133.94,91.14Zm.41-34c-7.55,0-15.12,1.67-20.89,5-5.57,3.21-8.63,7.47-8.63,12s3,8.67,8.49,11.83c11.4,6.58,30,6.55,41.51-.08,5.57-3.21,8.63-7.47,8.63-12s-3-8.67-8.49-11.83C149.3,58.79,141.84,57.16,134.36,57.16Z"/><path class="cls-17" d="M151.39,64.07c-9.45-5.46-24.84-5.43-34.36.07s-9.57,14.38-.12,19.84,24.84,5.43,34.36-.07S160.84,69.53,151.39,64.07Z"/><path class="cls-15" d="M134,88.17c-6.22,0-12.42-1.36-17.13-4.08s-7.12-6.19-7.12-10S112.3,66.73,117,64c9.54-5.51,25-5.54,34.48-.07,4.59,2.65,7.12,6.19,7.12,10S156,81.32,151.33,84,140.25,88.17,134,88.17Zm.34-28c-6.23,0-12.47,1.37-17.23,4.12C112.51,66.9,110,70.4,110,74.12s2.48,7.14,7,9.75c9.4,5.43,24.76,5.4,34.23-.07,4.59-2.65,7.11-6.16,7.11-9.87s-2.48-7.14-7-9.75C146.65,61.48,140.49,60.13,134.32,60.13Z"/><path class="cls-26" d="M117,64.14c-4.86,2.81-7.25,6.5-7.17,10.17.12-3.51,2.51-7,7.16-9.7,9.52-5.5,24.9-5.53,34.36-.07,4.62,2.67,7,6.16,7,9.67.13-3.67-2.22-7.35-7-10.14C141.93,58.61,126.55,58.64,117,64.14Z"/><path class="cls-15" d="M110,74.31h-.25c-.09-3.88,2.48-7.53,7.23-10.28l.06.11L117,64c9.54-5.51,25-5.54,34.48-.07,4.72,2.72,7.24,6.36,7.11,10.25h-.25c-.08-3.61-2.56-7-7-9.56-9.41-5.43-24.76-5.4-34.23.07C112.64,67.29,110.11,70.69,110,74.31Zm24.33-14.18c-6.23,0-12.47,1.37-17.23,4.12a15.75,15.75,0,0,0-5.81,5.34A16.36,16.36,0,0,1,117,64.5c9.54-5.51,25-5.54,34.48-.07a15.94,15.94,0,0,1,5.64,5.11,15.33,15.33,0,0,0-5.76-5.36C146.65,61.48,140.49,60.13,134.32,60.13Z"/><polygon class="cls-27" points="146.54 72.99 153.47 71.45 138.7 62.92 133.9 65.69 141.73 70.22 115.07 76.17 119.89 78.96 130.13 84.86 134.96 82.08 126.85 77.4 146.54 72.99"/><path class="cls-15" d="M130.13,85l-15.4-8.89,26.66-6-7.74-4.47,5.05-2.92,15.11,8.72-26.62,5.95,8,4.63Zm-14.72-8.79,14.72,8.5,4.58-2.64-8.19-4.73.31-.07,26.31-5.88L138.7,63.07l-4.55,2.63,7.92,4.57Z"/><polygon class="cls-28" points="142.54 78.04 145.22 77.44 141.8 75.46 139.12 76.06 142.54 78.04"/><path class="cls-15" d="M142.52,78.17,138.78,76l3-.68,3.74,2.16Zm-3.06-2.06,3.1,1.79,2.32-.52-3.1-1.79Z"/><polygon class="cls-29" points="133.47 70.66 130.05 68.68 127.37 69.28 130.79 71.25 133.47 70.66"/><path class="cls-15" d="M130.77,71.39,127,69.23l3-.68,3.74,2.16Zm-3.06-2.06,3.1,1.79,2.32-.52L130,68.81Z"/><polygon class="cls-30" points="141.18 78.34 137.76 76.36 135.09 76.96 138.51 78.94 141.18 78.34"/><path class="cls-15" d="M138.49,79.07l-3.74-2.16,3-.68,3.74,2.16ZM135.43,77l3.1,1.79,2.31-.52-3.1-1.79Z"/><polygon class="cls-31" points="126.02 69.58 123.35 70.18 126.77 72.16 129.44 71.56 126.02 69.58"/><path class="cls-15" d="M126.75,72.29,123,70.13l3-.68,3.74,2.16Zm-3.06-2.06,3.1,1.79,2.31-.52L126,69.72Z"/><path class="cls-32" d="M104.71,69.34s0,3.63,0,4.56c-.11,4.41,2.74,8.83,8.55,12.19,11.46,6.61,30.1,6.58,41.63-.08,5.77-3.33,8.67-7.69,8.7-12,0-1.46,0-4.62,0-4.62Z"/><path class="cls-15" d="M133.94,91.14c-7.53,0-15-1.65-20.75-4.94s-8.73-7.64-8.61-12.3c0-.92,0-4.52,0-4.55v-.13h59.13v.12s0,3.18,0,4.62c0,4.59-3.14,8.9-8.76,12.14C149.15,89.46,141.54,91.14,133.94,91.14ZM104.84,69.47c0,.65,0,3.61,0,4.43-.11,4.56,2.9,8.85,8.48,12.07,11.4,6.58,30,6.55,41.51-.08,5.54-3.2,8.61-7.44,8.63-11.93,0-1.28,0-3.9,0-4.5Z"/><path class="cls-33" d="M155,57.28c-11.46-6.61-30.1-6.58-41.63.08s-11.6,17.42-.15,24,30.1,6.58,41.63-.08S166.5,63.89,155,57.28Z"/><path class="cls-15" d="M133.94,86.45c-7.53,0-15-1.65-20.75-4.94-5.55-3.21-8.61-7.49-8.61-12.05s3.11-8.94,8.76-12.2c11.55-6.67,30.29-6.71,41.76-.08,5.55,3.21,8.61,7.49,8.61,12s-3.11,8.94-8.76,12.2C149.15,84.78,141.54,86.45,133.94,86.45Zm.41-34c-7.55,0-15.12,1.67-20.89,5-5.57,3.21-8.63,7.47-8.63,12s3,8.67,8.49,11.83c11.4,6.58,30,6.55,41.51-.08,5.57-3.21,8.63-7.47,8.63-12s-3-8.67-8.49-11.83C149.3,54.11,141.84,52.47,134.36,52.47Z"/><path class="cls-17" d="M151.39,59.39c-9.45-5.46-24.84-5.43-34.36.07s-9.57,14.38-.12,19.84,24.84,5.43,34.36-.07S160.84,64.85,151.39,59.39Z"/><path class="cls-15" d="M134,83.48c-6.22,0-12.42-1.36-17.13-4.08s-7.12-6.19-7.12-10S112.3,62,117,59.35c9.54-5.51,25-5.54,34.48-.07,4.59,2.65,7.12,6.19,7.12,10s-2.57,7.4-7.24,10.09S140.25,83.48,134,83.48Zm.34-28c-6.23,0-12.47,1.37-17.23,4.12-4.59,2.65-7.11,6.16-7.11,9.87s2.48,7.14,7,9.75c9.4,5.43,24.76,5.4,34.23-.07,4.59-2.65,7.11-6.15,7.11-9.87s-2.48-7.14-7-9.75h0C146.65,56.79,140.49,55.44,134.32,55.44Z"/><path class="cls-34" d="M117,59.46c-4.86,2.81-7.25,6.5-7.17,10.17.12-3.51,2.51-7,7.16-9.7,9.52-5.5,24.9-5.53,34.36-.07,4.62,2.67,7,6.16,7,9.67.13-3.67-2.22-7.35-7-10.14C141.93,53.93,126.55,54,117,59.46Z"/><path class="cls-15" d="M110,69.63h-.25c-.09-3.89,2.48-7.54,7.23-10.28,9.54-5.51,25-5.54,34.48-.07,4.72,2.72,7.24,6.36,7.11,10.25h-.25c-.08-3.61-2.56-7-7-9.57-9.41-5.43-24.76-5.4-34.23.07C112.64,62.6,110.11,66,110,69.63Zm7-10.17.06.11a15.74,15.74,0,0,0-5.81,5.35,16.36,16.36,0,0,1,5.68-5.1c9.54-5.51,25-5.54,34.48-.07a15.94,15.94,0,0,1,5.64,5.11,15.32,15.32,0,0,0-5.77-5.36c-9.41-5.43-24.76-5.4-34.23.07Z"/><polygon class="cls-35" points="146.54 68.31 153.47 66.77 138.7 58.24 133.9 61.01 141.73 65.53 115.07 71.49 119.89 74.27 130.13 80.18 134.96 77.39 126.85 72.72 146.54 68.31"/><path class="cls-15" d="M130.13,80.33l-15.4-8.89,26.66-6L133.65,61l5.05-2.92,15.11,8.72-26.62,5.95,8,4.63Zm-14.72-8.79L130.13,80l4.58-2.64-8.19-4.73.31-.07,26.31-5.88L138.7,58.38,134.15,61l7.92,4.57Z"/><polygon class="cls-36" points="142.54 73.35 145.22 72.75 141.8 70.78 139.12 71.38 142.54 73.35"/><path class="cls-15" d="M142.52,73.48l-3.74-2.16,3-.68,3.74,2.16Zm-3.06-2.06,3.1,1.79,2.32-.52-3.1-1.79Z"/><polygon class="cls-37" points="133.47 65.97 130.05 64 127.37 64.6 130.79 66.57 133.47 65.97"/><path class="cls-15" d="M130.77,66.7,127,64.54l3-.68L133.81,66Zm-3.06-2.06,3.1,1.79,2.32-.52L130,64.13Z"/><polygon class="cls-38" points="141.18 73.66 137.76 71.68 135.09 72.28 138.51 74.25 141.18 73.66"/><path class="cls-15" d="M138.49,74.39l-3.74-2.16,3-.68,3.74,2.16Zm-3.06-2.06,3.1,1.79,2.31-.52-3.1-1.79Z"/><polygon class="cls-39" points="126.02 64.9 123.35 65.5 126.77 67.47 129.44 66.87 126.02 64.9"/><path class="cls-15" d="M126.75,67.6,123,65.44l3-.68,3.74,2.16Zm-3.06-2.06,3.1,1.79,2.31-.52L126,65Z"/><path class="cls-40" d="M104.71,64.66s0,3.63,0,4.56c-.11,4.41,2.74,8.83,8.55,12.19,11.46,6.61,30.1,6.58,41.63-.08,5.77-3.33,8.67-7.69,8.7-12,0-1.46,0-4.62,0-4.62Z"/><path class="cls-15" d="M133.94,86.45c-7.53,0-15-1.65-20.75-4.94s-8.73-7.64-8.61-12.3c0-.92,0-4.52,0-4.55v-.13h59.13v.12s0,3.18,0,4.62c0,4.59-3.14,8.9-8.76,12.14C149.15,84.78,141.54,86.45,133.94,86.45ZM104.84,64.78c0,.65,0,3.61,0,4.43-.11,4.56,2.9,8.85,8.48,12.08,11.4,6.58,30,6.55,41.51-.08,5.54-3.2,8.61-7.44,8.63-11.93,0-1.28,0-3.9,0-4.5Z"/><path class="cls-41" d="M155,52.6c-11.46-6.61-30.1-6.58-41.63.08s-11.6,17.42-.15,24,30.1,6.58,41.63-.08S166.5,59.21,155,52.6Z"/><path class="cls-15" d="M133.94,81.77c-7.53,0-15-1.65-20.75-4.94-5.55-3.21-8.61-7.49-8.61-12s3.11-8.94,8.76-12.2c11.55-6.67,30.29-6.71,41.76-.08,5.55,3.21,8.61,7.49,8.61,12s-3.11,8.94-8.76,12.2C149.15,80.09,141.54,81.77,133.94,81.77Zm.41-34c-7.55,0-15.12,1.67-20.89,5-5.57,3.21-8.63,7.47-8.63,12s3,8.67,8.49,11.83c11.4,6.58,30,6.55,41.51-.08,5.57-3.21,8.63-7.47,8.63-12s-3-8.67-8.49-11.83C149.3,49.43,141.84,47.79,134.36,47.79Z"/><path class="cls-17" d="M151.39,54.7c-9.45-5.46-24.84-5.43-34.36.07s-9.57,14.38-.12,19.84,24.84,5.43,34.36-.07S160.84,60.16,151.39,54.7Z"/><path class="cls-15" d="M134,78.8c-6.22,0-12.42-1.36-17.13-4.08s-7.12-6.19-7.12-10,2.57-7.4,7.24-10.09c9.54-5.51,25-5.54,34.48-.07,4.59,2.65,7.12,6.19,7.12,10S156,72,151.33,74.65,140.25,78.8,134,78.8Zm.34-28c-6.23,0-12.47,1.37-17.23,4.12C112.51,57.53,110,61,110,64.75s2.48,7.14,7,9.75c9.4,5.43,24.76,5.4,34.23-.07,4.59-2.65,7.11-6.15,7.11-9.87s-2.48-7.14-7-9.75h0C146.65,52.11,140.49,50.76,134.32,50.76Z"/><path class="cls-42" d="M117,54.77c-4.86,2.81-7.25,6.5-7.17,10.17.12-3.51,2.51-7,7.16-9.7,9.52-5.5,24.9-5.53,34.36-.07,4.62,2.67,7,6.16,7,9.67.13-3.67-2.22-7.35-7-10.14C141.93,49.24,126.55,49.28,117,54.77Z"/><path class="cls-15" d="M110,64.94h-.25c-.09-3.88,2.48-7.53,7.23-10.28l.06.11-.06-.11c9.54-5.51,25-5.54,34.48-.07,4.72,2.72,7.24,6.36,7.11,10.25h-.25c-.08-3.61-2.56-7-7-9.57-9.41-5.43-24.76-5.4-34.23.07C112.64,57.92,110.11,61.33,110,64.94Zm24.33-14.18c-6.23,0-12.47,1.37-17.23,4.12h0a15.74,15.74,0,0,0-5.81,5.35,16.36,16.36,0,0,1,5.68-5.1c9.54-5.51,25-5.54,34.48-.07a15.94,15.94,0,0,1,5.64,5.11,15.33,15.33,0,0,0-5.77-5.36C146.65,52.11,140.49,50.76,134.32,50.76Z"/><polygon class="cls-43" points="146.54 63.63 153.47 62.08 138.7 53.55 133.9 56.33 141.73 60.85 115.07 66.8 119.89 69.59 130.13 75.5 134.96 72.71 126.85 68.03 146.54 63.63"/><path class="cls-15" d="M130.13,75.64l-15.4-8.89,26.66-6-7.74-4.47,5.05-2.92,15.11,8.72-26.62,5.95,8,4.63Zm-14.72-8.79,14.72,8.5,4.58-2.64L126.51,68l.31-.07L153.13,62,138.7,53.7l-4.55,2.63,7.92,4.57Z"/><polygon class="cls-44" points="142.54 68.67 145.22 68.07 141.8 66.09 139.12 66.69 142.54 68.67"/><path class="cls-15" d="M142.52,68.8l-3.74-2.16,3-.68,3.74,2.16Zm-3.06-2.06,3.1,1.79,2.32-.52-3.1-1.79Z"/><polygon class="cls-45" points="133.47 61.29 130.05 59.31 127.37 59.91 130.79 61.89 133.47 61.29"/><path class="cls-15" d="M130.77,62,127,59.86l3-.68,3.74,2.16ZM127.71,60l3.1,1.79,2.32-.52L130,59.45Z"/><polygon class="cls-46" points="141.18 68.97 137.76 67 135.09 67.59 138.51 69.57 141.18 68.97"/><path class="cls-15" d="M138.49,69.7l-3.74-2.16,3-.68L141.52,69Zm-3.06-2.06,3.1,1.79,2.31-.52-3.1-1.79Z"/><polygon class="cls-47" points="126.02 60.22 123.35 60.81 126.77 62.79 129.44 62.19 126.02 60.22"/><path class="cls-15" d="M126.75,62.92,123,60.76l3-.68,3.74,2.16Zm-3.06-2.06,3.1,1.79,2.31-.52L126,60.35Z"/><path class="cls-48" d="M104.71,60s0,3.63,0,4.56c-.11,4.41,2.74,8.83,8.55,12.19,11.46,6.61,30.1,6.58,41.63-.08,5.77-3.33,8.67-7.69,8.7-12,0-1.46,0-4.62,0-4.62Z"/><path class="cls-15" d="M133.94,81.79c-7.53,0-15-1.65-20.75-4.94s-8.73-7.64-8.61-12.3c0-.92,0-4.52,0-4.55v-.13h59.13V60s0,3.18,0,4.62c0,4.59-3.14,8.9-8.76,12.14C149.15,80.12,141.54,81.79,133.94,81.79ZM104.84,60.12c0,.65,0,3.61,0,4.43-.11,4.56,2.9,8.85,8.48,12.07,11.4,6.58,30,6.55,41.51-.08,5.54-3.2,8.61-7.44,8.63-11.93,0-1.28,0-3.9,0-4.5Z"/><path class="cls-49" d="M155,47.94c-11.46-6.61-30.1-6.58-41.63.08s-11.6,17.42-.15,24,30.1,6.58,41.63-.08S166.5,54.55,155,47.94Z"/><path class="cls-15" d="M133.94,77.11c-7.53,0-15-1.65-20.75-4.94-5.55-3.21-8.61-7.49-8.61-12.05s3.11-8.94,8.76-12.2c11.55-6.67,30.29-6.71,41.76-.08,5.55,3.21,8.61,7.49,8.61,12.05s-3.11,8.94-8.76,12.2C149.15,75.43,141.54,77.11,133.94,77.11Zm.41-34c-7.55,0-15.12,1.67-20.89,5-5.57,3.21-8.63,7.47-8.63,12s3,8.67,8.49,11.83c11.4,6.58,30,6.55,41.51-.08,5.57-3.21,8.63-7.47,8.63-12S160.45,51.2,155,48C149.3,44.77,141.84,43.13,134.36,43.13Z"/><path class="cls-17" d="M151.39,50c-9.45-5.46-24.84-5.43-34.36.07s-9.57,14.38-.12,19.84,24.84,5.43,34.36-.07S160.84,55.5,151.39,50Z"/><path class="cls-15" d="M134,74.14c-6.22,0-12.42-1.36-17.13-4.08s-7.12-6.19-7.12-10S112.3,52.7,117,50c9.54-5.51,25-5.54,34.48-.07,4.59,2.65,7.12,6.19,7.12,10S156,67.29,151.33,70,140.25,74.14,134,74.14Zm.34-28c-6.23,0-12.47,1.37-17.23,4.12-4.59,2.65-7.11,6.15-7.11,9.87s2.48,7.14,7,9.75c9.4,5.43,24.76,5.4,34.23-.07,4.59-2.65,7.11-6.16,7.11-9.87s-2.48-7.14-7-9.75C146.65,47.45,140.49,46.1,134.32,46.1Z"/><path class="cls-50" d="M117,50.11c-4.86,2.81-7.25,6.5-7.17,10.17.12-3.51,2.51-7,7.16-9.7,9.52-5.5,24.9-5.53,34.36-.07,4.62,2.67,7,6.16,7,9.67.13-3.67-2.22-7.35-7-10.14C141.93,44.59,126.55,44.62,117,50.11Z"/><path class="cls-15" d="M110,60.28h-.25c-.09-3.88,2.48-7.53,7.23-10.28l.06.11L117,50c9.54-5.51,25-5.54,34.48-.07,4.72,2.72,7.24,6.36,7.11,10.25h-.25c-.08-3.61-2.56-7-7-9.56-9.41-5.43-24.76-5.4-34.23.07C112.64,53.26,110.11,56.67,110,60.28ZM134.32,46.1c-6.23,0-12.47,1.37-17.23,4.12h0a15.74,15.74,0,0,0-5.81,5.35,16.36,16.36,0,0,1,5.68-5.1c9.54-5.51,25-5.54,34.48-.07a15.94,15.94,0,0,1,5.64,5.11,15.33,15.33,0,0,0-5.76-5.36C146.65,47.45,140.49,46.1,134.32,46.1Z"/><polygon class="cls-51" points="146.54 58.97 153.47 57.42 138.7 48.9 133.9 51.67 141.73 56.19 115.07 62.15 119.89 64.93 130.13 70.84 134.96 68.05 126.85 63.37 146.54 58.97"/><path class="cls-15" d="M130.13,71l-15.4-8.89,26.66-6-7.74-4.47,5.05-2.92,15.11,8.72-26.62,5.95,8,4.63ZM115.41,62.2l14.72,8.5,4.58-2.64-8.19-4.73.31-.07,26.31-5.88L138.7,49l-4.55,2.63,7.92,4.57Z"/><polygon class="cls-52" points="142.54 64.01 145.22 63.41 141.8 61.44 139.12 62.03 142.54 64.01"/><path class="cls-15" d="M142.52,64.14,138.78,62l3-.68,3.74,2.16Zm-3.06-2.06,3.1,1.79,2.32-.52-3.1-1.79Z"/><polygon class="cls-53" points="133.47 56.63 130.05 54.65 127.37 55.25 130.79 57.23 133.47 56.63"/><path class="cls-15" d="M130.77,57.36,127,55.2l3-.68,3.74,2.16Zm-3.06-2.06,3.1,1.79,2.32-.52L130,54.79Z"/><polygon class="cls-54" points="141.18 64.31 137.76 62.34 135.09 62.93 138.51 64.91 141.18 64.31"/><path class="cls-15" d="M138.49,65l-3.74-2.16,3-.68,3.74,2.16ZM135.43,63l3.1,1.79,2.31-.52-3.1-1.79Z"/><polygon class="cls-55" points="126.02 55.56 123.35 56.15 126.77 58.13 129.44 57.53 126.02 55.56"/><path class="cls-15" d="M126.75,58.26,123,56.1l3-.68,3.74,2.16Zm-3.06-2.06,3.1,1.79,2.31-.52L126,55.69Z"/><path class="cls-56" d="M104.71,55.31s0,3.63,0,4.56c-.11,4.41,2.74,8.83,8.55,12.19,11.46,6.61,30.1,6.58,41.63-.08,5.77-3.33,8.67-7.69,8.7-12,0-1.46,0-4.62,0-4.62Z"/><path class="cls-15" d="M133.94,77.11c-7.53,0-15-1.65-20.75-4.94s-8.73-7.64-8.61-12.3c0-.92,0-4.52,0-4.55v-.13h59.13v.12s0,3.18,0,4.62c0,4.59-3.14,8.9-8.76,12.14C149.15,75.43,141.54,77.11,133.94,77.11ZM104.84,55.44c0,.65,0,3.61,0,4.43-.11,4.56,2.9,8.85,8.48,12.07,11.4,6.58,30,6.55,41.51-.08,5.54-3.2,8.61-7.44,8.63-11.93,0-1.28,0-3.9,0-4.5Z"/><path class="cls-57" d="M155,43.25c-11.46-6.61-30.1-6.58-41.63.08s-11.6,17.42-.15,24,30.1,6.58,41.63-.08S166.5,49.87,155,43.25Z"/><path class="cls-15" d="M133.94,72.43c-7.53,0-15-1.65-20.75-4.94-5.55-3.21-8.61-7.49-8.61-12.05s3.11-8.94,8.76-12.2c11.55-6.67,30.29-6.71,41.76-.08,5.55,3.21,8.61,7.49,8.61,12S160.6,64.14,155,67.4C149.15,70.75,141.54,72.43,133.94,72.43Zm.41-34c-7.55,0-15.12,1.67-20.89,5-5.57,3.21-8.63,7.47-8.63,12s3,8.67,8.49,11.83c11.4,6.58,30,6.55,41.51-.08,5.57-3.21,8.63-7.47,8.63-12s-3-8.67-8.49-11.83C149.3,40.08,141.84,38.45,134.36,38.45Z"/><path class="cls-17" d="M151.39,45.36c-9.45-5.46-24.84-5.43-34.36.07s-9.57,14.38-.12,19.84,24.84,5.43,34.36-.07S160.84,50.82,151.39,45.36Z"/><path class="cls-15" d="M134,69.46c-6.22,0-12.42-1.36-17.13-4.08s-7.12-6.19-7.12-10S112.3,48,117,45.32c9.54-5.51,25-5.54,34.48-.07,4.59,2.65,7.12,6.19,7.12,10s-2.57,7.4-7.24,10.09S140.25,69.46,134,69.46Zm.34-28c-6.23,0-12.47,1.38-17.23,4.12-4.59,2.65-7.11,6.15-7.11,9.87s2.48,7.14,7,9.75c9.4,5.43,24.76,5.4,34.23-.07,4.59-2.65,7.11-6.15,7.11-9.87s-2.48-7.14-7-9.75h0C146.65,42.77,140.49,41.42,134.32,41.42Z"/><path class="cls-58" d="M117,45.43c-4.86,2.81-7.25,6.5-7.17,10.17.12-3.51,2.51-7,7.16-9.7,9.52-5.5,24.9-5.53,34.36-.07,4.62,2.67,7,6.16,7,9.67.13-3.67-2.22-7.35-7-10.14C141.93,39.9,126.55,39.93,117,45.43Z"/><path class="cls-15" d="M110,55.6h-.25c-.09-3.89,2.48-7.54,7.23-10.28,9.54-5.51,25-5.54,34.48-.07,4.72,2.72,7.24,6.36,7.11,10.25h-.25c-.08-3.61-2.56-7-7-9.56-9.41-5.43-24.76-5.4-34.23.07C112.64,48.58,110.11,52,110,55.6Zm24.33-14.18c-6.23,0-12.47,1.38-17.23,4.12h0a15.74,15.74,0,0,0-5.81,5.35,16.36,16.36,0,0,1,5.68-5.1c9.54-5.51,25-5.54,34.48-.07a15.94,15.94,0,0,1,5.64,5.11,15.33,15.33,0,0,0-5.76-5.36C146.65,42.77,140.49,41.42,134.32,41.42Z"/><polygon class="cls-59" points="146.54 54.28 153.47 52.74 138.7 44.21 133.9 46.98 141.73 51.51 115.07 57.46 119.89 60.25 130.13 66.16 134.96 63.37 126.85 58.69 146.54 54.28"/><path class="cls-15" d="M130.13,66.3l-15.4-8.89,26.66-6L133.65,47l5.05-2.92,15.11,8.72-26.62,5.95,8,4.63Zm-14.72-8.79L130.13,66l4.58-2.64-8.19-4.73.31-.07,26.31-5.88L138.7,44.36,134.15,47l7.92,4.57Z"/><polygon class="cls-60" points="142.54 59.33 145.22 58.73 141.8 56.75 139.12 57.35 142.54 59.33"/><path class="cls-15" d="M142.52,59.46l-3.74-2.16,3-.68,3.74,2.16Zm-3.06-2.06,3.1,1.79,2.32-.52-3.1-1.79Z"/><polygon class="cls-61" points="133.47 51.94 130.05 49.97 127.37 50.57 130.79 52.55 133.47 51.94"/><path class="cls-15" d="M130.77,52.68,127,50.52l3-.68L133.81,52Zm-3.06-2.06,3.1,1.79,2.32-.52L130,50.1Z"/><polygon class="cls-62" points="141.18 59.63 137.76 57.65 135.09 58.25 138.51 60.23 141.18 59.63"/><path class="cls-15" d="M138.49,60.36l-3.74-2.16,3-.68,3.74,2.16Zm-3.06-2.06,3.1,1.79,2.31-.52-3.1-1.79Z"/><polygon class="cls-63" points="126.02 50.87 123.35 51.47 126.77 53.45 129.44 52.85 126.02 50.87"/><path class="cls-15" d="M126.75,53.58,123,51.42l3-.68,3.74,2.16Zm-3.06-2.06,3.1,1.79,2.31-.52L126,51Z"/><path class="cls-64" d="M104.71,50.63s0,3.63,0,4.56c-.11,4.41,2.74,8.83,8.55,12.19,11.46,6.61,30.1,6.58,41.63-.08,5.77-3.33,8.67-7.69,8.7-12,0-1.46,0-4.62,0-4.62Z"/><path class="cls-15" d="M133.94,72.43c-7.53,0-15-1.65-20.75-4.94s-8.73-7.64-8.61-12.3c0-.92,0-4.52,0-4.55v-.13h59.13v.12s0,3.18,0,4.62c0,4.59-3.14,8.9-8.76,12.14C149.15,70.75,141.54,72.43,133.94,72.43ZM104.84,50.76c0,.65,0,3.61,0,4.44-.11,4.56,2.9,8.85,8.48,12.07,11.4,6.58,30,6.55,41.51-.08,5.54-3.2,8.61-7.44,8.63-11.93,0-1.28,0-3.9,0-4.5Z"/><path class="cls-65" d="M155,38.57c-11.46-6.61-30.1-6.58-41.63.08s-11.6,17.42-.15,24,30.1,6.58,41.63-.08S166.5,45.18,155,38.57Z"/><path class="cls-15" d="M133.94,67.74c-7.53,0-15-1.65-20.75-4.94-5.55-3.21-8.61-7.49-8.61-12s3.11-8.94,8.76-12.2c11.55-6.67,30.29-6.71,41.76-.08,5.55,3.21,8.61,7.49,8.61,12s-3.11,8.94-8.76,12.2C149.15,66.06,141.54,67.74,133.94,67.74Zm.41-34c-7.55,0-15.12,1.67-20.89,5-5.57,3.21-8.63,7.47-8.63,12s3,8.67,8.49,11.83c11.4,6.58,30,6.55,41.51-.08,5.57-3.21,8.63-7.47,8.63-12s-3-8.67-8.49-11.83C149.3,35.4,141.84,33.76,134.36,33.76Z"/><path class="cls-17" d="M151.39,40.68c-9.45-5.46-24.84-5.43-34.36.07s-9.57,14.38-.12,19.84,24.84,5.43,34.36-.07S160.84,46.14,151.39,40.68Z"/><path class="cls-15" d="M134,64.77c-6.22,0-12.42-1.36-17.13-4.08s-7.12-6.19-7.12-10,2.57-7.4,7.24-10.09c9.54-5.51,25-5.54,34.48-.07,4.59,2.65,7.12,6.19,7.12,10s-2.57,7.4-7.24,10.09S140.25,64.77,134,64.77Zm.34-28c-6.23,0-12.47,1.37-17.23,4.12C112.51,43.5,110,47,110,50.73s2.48,7.14,7,9.75c9.4,5.43,24.76,5.4,34.23-.07,4.59-2.65,7.11-6.15,7.11-9.87s-2.48-7.14-7-9.75h0C146.65,38.08,140.49,36.73,134.32,36.73Z"/><path class="cls-66" d="M117,40.75c-4.86,2.81-7.25,6.5-7.17,10.17.12-3.51,2.51-7,7.16-9.7,9.52-5.5,24.9-5.53,34.36-.07,4.62,2.67,7,6.16,7,9.67.13-3.67-2.22-7.35-7-10.14C141.93,35.22,126.55,35.25,117,40.75Z"/><path class="cls-15" d="M110,50.92h-.25c-.09-3.88,2.48-7.53,7.23-10.28,9.54-5.51,25-5.54,34.48-.07,4.72,2.72,7.24,6.36,7.11,10.25h-.25c-.08-3.61-2.56-7-7-9.57-9.41-5.43-24.76-5.4-34.23.07C112.64,43.89,110.11,47.3,110,50.92Zm7-10.17.06.11a15.74,15.74,0,0,0-5.81,5.35A16.36,16.36,0,0,1,117,41.1c9.54-5.51,25-5.54,34.48-.07a15.94,15.94,0,0,1,5.64,5.11,15.33,15.33,0,0,0-5.77-5.36c-9.41-5.43-24.76-5.4-34.23.07Z"/><polygon class="cls-67" points="146.54 49.6 153.47 48.06 138.7 39.53 133.9 42.3 141.73 46.82 115.07 52.78 119.89 55.56 130.13 61.47 134.96 58.68 126.85 54.01 146.54 49.6"/><path class="cls-15" d="M130.13,61.62l-15.4-8.89,26.66-6-7.74-4.47,5.05-2.92,15.11,8.72-26.62,5.95,8,4.63Zm-14.72-8.79,14.72,8.5,4.58-2.64L126.51,54l.31-.07L153.13,48,138.7,39.67l-4.55,2.63,7.92,4.57Z"/><polygon class="cls-68" points="142.54 54.64 145.22 54.04 141.8 52.07 139.12 52.67 142.54 54.64"/><path class="cls-15" d="M142.52,54.77l-3.74-2.16,3-.68,3.74,2.16Zm-3.06-2.06,3.1,1.79,2.32-.52-3.1-1.79Z"/><polygon class="cls-69" points="133.47 47.26 130.05 45.29 127.37 45.89 130.79 47.86 133.47 47.26"/><path class="cls-15" d="M130.77,48,127,45.83l3-.68,3.74,2.16Zm-3.06-2.06,3.1,1.79,2.32-.52L130,45.42Z"/><polygon class="cls-70" points="141.18 54.94 137.76 52.97 135.09 53.56 138.51 55.54 141.18 54.94"/><path class="cls-15" d="M138.49,55.67l-3.74-2.16,3-.68L141.52,55Zm-3.06-2.06,3.1,1.79,2.31-.52-3.1-1.79Z"/><polygon class="cls-71" points="126.02 46.19 123.35 46.78 126.77 48.76 129.44 48.16 126.02 46.19"/><path class="cls-15" d="M126.75,48.89,123,46.73l3-.68,3.74,2.16Zm-3.06-2.06,3.1,1.79,2.31-.52L126,46.32Z"/><path class="cls-72" d="M104.71,45.95s0,3.63,0,4.56c-.11,4.41,2.74,8.83,8.55,12.19,11.46,6.61,30.1,6.58,41.63-.08,5.77-3.33,8.67-7.69,8.7-12,0-1.46,0-4.62,0-4.62Z"/><path class="cls-15" d="M133.94,67.74c-7.53,0-15-1.65-20.75-4.94s-8.73-7.64-8.61-12.3c0-.92,0-4.52,0-4.55v-.13h59.13v.12s0,3.18,0,4.62c0,4.59-3.14,8.9-8.76,12.14C149.15,66.06,141.54,67.74,133.94,67.74ZM104.84,46.07c0,.65,0,3.61,0,4.43-.11,4.56,2.9,8.85,8.48,12.07,11.4,6.58,30,6.55,41.51-.08,5.54-3.2,8.61-7.44,8.63-11.93,0-1.28,0-3.9,0-4.5Z"/><path class="cls-73" d="M155,33.88c-11.46-6.61-30.1-6.58-41.63.08s-11.6,17.42-.15,24,30.1,6.58,41.63-.08S166.5,40.5,155,33.88Z"/><path class="cls-15" d="M133.94,63.06c-7.53,0-15-1.65-20.75-4.94-5.55-3.21-8.61-7.49-8.61-12.05s3.11-8.94,8.76-12.2c11.55-6.67,30.29-6.71,41.76-.08,5.55,3.21,8.61,7.49,8.61,12S160.6,54.77,155,58C149.15,61.38,141.54,63.06,133.94,63.06Zm.41-34c-7.55,0-15.12,1.67-20.89,5-5.57,3.21-8.63,7.47-8.63,12s3,8.67,8.49,11.83c11.4,6.58,30,6.55,41.51-.08,5.57-3.21,8.63-7.47,8.63-12s-3-8.67-8.49-11.83C149.3,30.72,141.84,29.08,134.36,29.08Z"/><path class="cls-17" d="M151.39,36c-9.45-5.46-24.84-5.43-34.36.07s-9.57,14.38-.12,19.84,24.84,5.43,34.36-.07S160.84,41.45,151.39,36Z"/><path class="cls-15" d="M134,60.09c-6.22,0-12.42-1.36-17.13-4.08s-7.12-6.19-7.12-10S112.3,38.65,117,36c9.54-5.51,25-5.54,34.48-.07,4.59,2.65,7.12,6.19,7.12,10s-2.57,7.4-7.24,10.09S140.25,60.09,134,60.09Zm.34-28c-6.23,0-12.47,1.37-17.23,4.12C112.51,38.82,110,42.33,110,46s2.48,7.14,7,9.75c9.4,5.43,24.76,5.4,34.23-.07,4.59-2.65,7.11-6.16,7.11-9.87s-2.48-7.14-7-9.75C146.65,33.4,140.49,32,134.32,32Z"/><path class="cls-74" d="M117,36.06c-4.86,2.81-7.25,6.5-7.17,10.17.12-3.51,2.51-7,7.16-9.7,9.52-5.5,24.9-5.53,34.36-.07,4.62,2.67,7,6.16,7,9.67.13-3.67-2.22-7.35-7-10.14C141.93,30.53,126.55,30.56,117,36.06Z"/><path class="cls-15" d="M110,46.23h-.25c-.09-3.88,2.48-7.53,7.23-10.28l.06.11L117,36c9.54-5.51,25-5.54,34.48-.07,4.72,2.72,7.24,6.36,7.11,10.25h-.25c-.08-3.62-2.56-7-7-9.57-9.41-5.43-24.76-5.4-34.23.07C112.64,39.21,110.11,42.62,110,46.23ZM134.32,32c-6.23,0-12.47,1.37-17.23,4.12a15.74,15.74,0,0,0-5.81,5.35,16.36,16.36,0,0,1,5.68-5.1c9.54-5.51,25-5.54,34.48-.07a15.94,15.94,0,0,1,5.64,5.11,15.33,15.33,0,0,0-5.76-5.36C146.65,33.4,140.49,32,134.32,32Z"/><polygon class="cls-75" points="146.54 44.91 153.47 43.37 138.7 34.84 133.9 37.62 141.73 42.14 115.07 48.09 119.89 50.88 130.13 56.79 134.96 54 126.85 49.32 146.54 44.91"/><path class="cls-15" d="M130.13,56.93,114.73,48l26.66-6-7.74-4.47,5.05-2.92,15.11,8.72-26.62,5.95,8,4.63Zm-14.72-8.79,14.72,8.5L134.71,54l-8.19-4.73.31-.07,26.31-5.88L138.7,35l-4.55,2.63,7.92,4.57Z"/><polygon class="cls-76" points="142.54 49.96 145.22 49.36 141.8 47.38 139.12 47.98 142.54 49.96"/><path class="cls-15" d="M142.52,50.09l-3.74-2.16,3-.68,3.74,2.16ZM139.46,48l3.1,1.79,2.32-.52-3.1-1.79Z"/><polygon class="cls-77" points="133.47 42.58 130.05 40.6 127.37 41.2 130.79 43.18 133.47 42.58"/><path class="cls-15" d="M130.77,43.31,127,41.15l3-.68,3.74,2.16Zm-3.06-2.06,3.1,1.79,2.32-.52L130,40.74Z"/><polygon class="cls-78" points="141.18 50.26 137.76 48.28 135.09 48.88 138.51 50.86 141.18 50.26"/><path class="cls-15" d="M138.49,51l-3.74-2.16,3-.68,3.74,2.16Zm-3.06-2.06,3.1,1.79,2.31-.52-3.1-1.79Z"/><polygon class="cls-79" points="126.02 41.51 123.35 42.1 126.77 44.08 129.44 43.48 126.02 41.51"/><path class="cls-15" d="M126.75,44.21,123,42l3-.68,3.74,2.16Zm-3.06-2.06,3.1,1.79,2.31-.52L126,41.64Z"/><path class="cls-80" d="M148.4,101.79s0,3.63,0,4.56c-.11,4.41,2.74,8.83,8.55,12.19,11.46,6.61,30.1,6.58,41.63-.08,5.77-3.33,8.67-7.69,8.7-12,0-1.46,0-4.62,0-4.62Z"/><path class="cls-15" d="M177.64,123.59c-7.53,0-15-1.65-20.75-4.94s-8.72-7.64-8.61-12.3c0-.92,0-4.52,0-4.55v-.13h59.13v.12s0,3.18,0,4.62c0,4.59-3.14,8.9-8.76,12.14C192.85,121.91,185.23,123.59,177.64,123.59Zm-29.11-21.67c0,.65,0,3.61,0,4.44-.11,4.56,2.9,8.85,8.48,12.07,11.4,6.58,30,6.55,41.51-.08,5.54-3.2,8.61-7.43,8.63-11.93,0-1.28,0-3.9,0-4.5Z"/><path class="cls-81" d="M198.73,89.73c-11.46-6.61-30.1-6.58-41.63.08s-11.6,17.42-.15,24,30.1,6.58,41.63-.08S210.19,96.35,198.73,89.73Z"/><path class="cls-15" d="M177.64,118.91c-7.53,0-15-1.65-20.75-4.94-5.55-3.21-8.61-7.49-8.61-12.05S151.39,93,157,89.71C168.59,83,187.32,83,198.8,89.62c5.55,3.21,8.61,7.49,8.61,12.05s-3.11,8.94-8.76,12.2C192.85,117.23,185.23,118.91,177.64,118.91Zm.41-34c-7.55,0-15.12,1.67-20.89,5-5.57,3.21-8.63,7.47-8.63,12s3,8.67,8.49,11.83c11.4,6.58,30,6.55,41.51-.08,5.57-3.21,8.63-7.47,8.63-12s-3-8.67-8.49-11.83C193,86.56,185.53,84.93,178,84.93Z"/><path class="cls-17" d="M195.08,91.84c-9.45-5.46-24.84-5.43-34.36.07s-9.57,14.38-.12,19.84,24.84,5.43,34.36-.07S204.54,97.3,195.08,91.84Z"/><path class="cls-15" d="M177.67,115.94c-6.22,0-12.42-1.36-17.13-4.08s-7.12-6.19-7.12-10,2.57-7.4,7.24-10.09c9.54-5.51,25-5.54,34.48-.07,4.59,2.65,7.12,6.19,7.12,10s-2.57,7.4-7.24,10.09S183.95,115.94,177.67,115.94Zm.34-28c-6.23,0-12.47,1.37-17.23,4.12-4.59,2.65-7.11,6.16-7.11,9.87s2.48,7.14,7,9.75c9.41,5.43,24.76,5.4,34.23-.07,4.59-2.65,7.11-6.15,7.11-9.87s-2.48-7.14-7-9.75h0C190.34,89.25,184.18,87.9,178,87.9Z"/><path class="cls-82" d="M160.72,91.91c-4.86,2.81-7.25,6.5-7.17,10.17.12-3.51,2.51-7,7.16-9.7,9.52-5.5,24.9-5.53,34.36-.07,4.62,2.67,7,6.16,7,9.67.13-3.67-2.22-7.35-7-10.14C185.63,86.38,170.24,86.41,160.72,91.91Z"/><path class="cls-15" d="M153.68,102.08h-.25c-.09-3.88,2.48-7.53,7.23-10.28h0c9.54-5.51,25-5.54,34.48-.07,4.72,2.72,7.24,6.36,7.11,10.25H202c-.08-3.61-2.56-7-7-9.57-9.41-5.43-24.76-5.4-34.23.07C156.33,95.06,153.81,98.46,153.68,102.08Zm7-10.17.06.11A15.74,15.74,0,0,0,155,97.36a16.36,16.36,0,0,1,5.68-5.1c9.54-5.51,25-5.54,34.48-.07a15.94,15.94,0,0,1,5.65,5.11A15.33,15.33,0,0,0,195,91.95c-9.41-5.43-24.76-5.4-34.23.07Z"/><polygon class="cls-83" points="190.23 100.76 197.16 99.22 182.4 90.69 177.59 93.47 185.42 97.99 158.76 103.94 163.59 106.73 173.82 112.64 178.65 109.85 170.55 105.17 190.23 100.76"/><path class="cls-15" d="M173.82,112.78l-15.4-8.89,26.66-6-7.74-4.47,5.05-2.92,15.11,8.72-26.62,5.95,8,4.63ZM159.11,104l14.72,8.5,4.58-2.64-8.19-4.73.31-.07,26.31-5.88-14.43-8.33-4.55,2.63L185.76,98Z"/><polygon class="cls-84" points="186.23 105.81 188.91 105.2 185.49 103.23 182.81 103.83 186.23 105.81"/><path class="cls-15" d="M186.21,105.94l-3.74-2.16,3-.68,3.74,2.16Zm-3.06-2.06,3.1,1.79,2.32-.52-3.1-1.79Z"/><polygon class="cls-85" points="177.17 98.42 173.75 96.45 171.06 97.05 174.49 99.02 177.17 98.42"/><path class="cls-15" d="M174.47,99.16,170.72,97l3-.68,3.74,2.16Zm-3.06-2.06,3.1,1.79,2.32-.52-3.1-1.79Z"/><polygon class="cls-86" points="184.88 106.11 181.46 104.13 178.78 104.73 182.21 106.7 184.88 106.11"/><path class="cls-15" d="M182.19,106.84l-3.74-2.16,3-.68,3.74,2.16Zm-3.06-2.06,3.1,1.79,2.31-.52-3.1-1.79Z"/><polygon class="cls-87" points="169.71 97.35 167.04 97.95 170.46 99.92 173.13 99.33 169.71 97.35"/><path class="cls-15" d="M170.44,100.06,166.7,97.9l3-.68,3.74,2.16ZM167.38,98l3.1,1.79,2.31-.52-3.1-1.79Z"/><path class="cls-88" d="M148.4,97.11s0,3.63,0,4.56c-.11,4.41,2.74,8.83,8.55,12.19,11.46,6.61,30.1,6.58,41.63-.08,5.77-3.33,8.67-7.69,8.7-12,0-1.46,0-4.62,0-4.62Z"/><path class="cls-15" d="M177.64,118.91c-7.53,0-15-1.65-20.75-4.94s-8.72-7.64-8.61-12.3c0-.92,0-4.52,0-4.55V97h59.13v.12s0,3.18,0,4.62c0,4.59-3.14,8.9-8.76,12.14C192.85,117.23,185.23,118.91,177.64,118.91ZM148.53,97.24c0,.65,0,3.61,0,4.43-.11,4.56,2.9,8.85,8.48,12.08,11.4,6.58,30,6.55,41.51-.08,5.54-3.2,8.61-7.43,8.63-11.93,0-1.28,0-3.9,0-4.5Z"/><path class="cls-89" d="M198.73,85c-11.46-6.61-30.1-6.58-41.63.08s-11.6,17.42-.15,24,30.1,6.58,41.63-.08S210.19,91.66,198.73,85Z"/><path class="cls-15" d="M177.64,114.22c-7.53,0-15-1.65-20.75-4.94-5.55-3.21-8.61-7.49-8.61-12S151.39,88.29,157,85c11.55-6.67,30.29-6.71,41.76-.08,5.55,3.21,8.61,7.49,8.61,12s-3.11,8.94-8.76,12.2C192.85,112.54,185.23,114.22,177.64,114.22Zm.41-34c-7.55,0-15.12,1.67-20.89,5-5.57,3.21-8.63,7.47-8.63,12s3,8.67,8.49,11.83c11.4,6.58,30,6.55,41.51-.08,5.57-3.21,8.63-7.47,8.63-12s-3-8.67-8.49-11.83C193,81.88,185.53,80.24,178,80.24Z"/><path class="cls-17" d="M195.08,87.16c-9.45-5.46-24.84-5.43-34.36.07s-9.57,14.38-.12,19.84,24.84,5.43,34.36-.07S204.54,92.61,195.08,87.16Z"/><path class="cls-15" d="M177.67,111.25c-6.22,0-12.42-1.36-17.13-4.08s-7.12-6.19-7.12-10,2.57-7.4,7.24-10.09c9.54-5.51,25-5.54,34.48-.07,4.59,2.65,7.12,6.19,7.12,10s-2.57,7.4-7.24,10.09S183.95,111.25,177.67,111.25Zm.34-28c-6.23,0-12.47,1.37-17.23,4.12-4.59,2.65-7.11,6.15-7.11,9.87s2.48,7.14,7,9.75c9.41,5.43,24.76,5.4,34.23-.07,4.59-2.65,7.11-6.15,7.11-9.87s-2.48-7.14-7-9.75h0C190.34,84.56,184.18,83.21,178,83.21Z"/><path class="cls-90" d="M160.72,87.23c-4.86,2.81-7.25,6.5-7.17,10.17.12-3.51,2.51-7,7.16-9.7,9.52-5.5,24.9-5.53,34.36-.07,4.62,2.67,7,6.16,7,9.67.13-3.67-2.22-7.35-7-10.14C185.63,81.7,170.24,81.73,160.72,87.23Z"/><path class="cls-15" d="M153.68,97.4h-.25c-.09-3.88,2.48-7.53,7.23-10.28l.06.11-.06-.11c9.54-5.51,25-5.54,34.48-.07,4.72,2.72,7.24,6.36,7.11,10.25H202c-.08-3.61-2.56-7-7-9.57-9.41-5.43-24.76-5.4-34.23.07C156.33,90.37,153.81,93.78,153.68,97.4ZM178,83.21c-6.23,0-12.47,1.37-17.23,4.12h0A15.74,15.74,0,0,0,155,92.68a16.36,16.36,0,0,1,5.68-5.1c9.54-5.51,25-5.54,34.48-.07a15.94,15.94,0,0,1,5.64,5.11A15.33,15.33,0,0,0,195,87.26C190.34,84.56,184.18,83.21,178,83.21Z"/><polygon class="cls-91" points="190.23 96.08 197.16 94.54 182.4 86.01 177.59 88.78 185.42 93.3 158.76 99.26 163.59 102.04 173.82 107.95 178.65 105.16 170.55 100.48 190.23 96.08"/><path class="cls-15" d="M173.82,108.1l-15.4-8.89,26.66-6-7.74-4.47,5.05-2.92,15.11,8.72-26.62,5.95,8,4.63Zm-14.72-8.79,14.72,8.5,4.58-2.64-8.19-4.73.31-.07,26.31-5.88-14.43-8.33-4.55,2.63,7.92,4.57Z"/><polygon class="cls-92" points="186.23 101.12 188.91 100.52 185.49 98.55 182.81 99.15 186.23 101.12"/><path class="cls-15" d="M186.21,101.25l-3.74-2.16,3-.68,3.74,2.16Zm-3.06-2.06,3.1,1.79,2.32-.52-3.1-1.79Z"/><polygon class="cls-93" points="177.17 93.74 173.75 91.77 171.06 92.37 174.49 94.34 177.17 93.74"/><path class="cls-15" d="M174.47,94.47l-3.74-2.16,3-.68,3.74,2.16Zm-3.06-2.06,3.1,1.79,2.32-.52-3.1-1.79Z"/><polygon class="cls-94" points="184.88 101.42 181.46 99.45 178.78 100.05 182.21 102.02 184.88 101.42"/><path class="cls-15" d="M182.19,102.15,178.44,100l3-.68,3.74,2.16Zm-3.06-2.06,3.1,1.79,2.31-.52-3.1-1.79Z"/><polygon class="cls-95" points="169.71 92.67 167.04 93.27 170.46 95.24 173.13 94.64 169.71 92.67"/><path class="cls-15" d="M170.44,95.37l-3.74-2.16,3-.68,3.74,2.16Zm-3.06-2.06,3.1,1.79,2.31-.52-3.1-1.79Z"/><path class="cls-96" d="M148.4,92.43s0,3.63,0,4.56c-.11,4.41,2.74,8.83,8.55,12.19,11.46,6.61,30.1,6.58,41.63-.08,5.77-3.33,8.67-7.69,8.7-12,0-1.46,0-4.62,0-4.62Z"/><path class="cls-15" d="M177.64,114.22c-7.53,0-15-1.65-20.75-4.94s-8.72-7.64-8.61-12.3c0-.92,0-4.52,0-4.55V92.3h59.13v.12s0,3.18,0,4.62c0,4.59-3.14,8.9-8.76,12.14C192.85,112.54,185.23,114.22,177.64,114.22ZM148.53,92.55c0,.65,0,3.61,0,4.43-.11,4.56,2.9,8.85,8.48,12.07,11.4,6.58,30,6.55,41.51-.08,5.54-3.2,8.61-7.43,8.63-11.93,0-1.28,0-3.9,0-4.5Z"/><path class="cls-97" d="M198.73,80.36c-11.46-6.61-30.1-6.58-41.63.08s-11.6,17.42-.15,24,30.1,6.58,41.63-.08S210.19,87,198.73,80.36Z"/><path class="cls-15" d="M177.64,109.54c-7.53,0-15-1.65-20.75-4.94-5.55-3.21-8.61-7.49-8.61-12s3.11-8.94,8.76-12.2c11.55-6.67,30.29-6.71,41.76-.08,5.55,3.21,8.61,7.49,8.61,12.05s-3.11,8.94-8.76,12.2C192.85,107.86,185.23,109.54,177.64,109.54Zm.41-34c-7.55,0-15.12,1.67-20.89,5-5.57,3.21-8.63,7.47-8.63,12s3,8.67,8.49,11.83c11.4,6.58,30,6.55,41.51-.08,5.57-3.21,8.63-7.47,8.63-12s-3-8.67-8.49-11.83C193,77.2,185.53,75.56,178,75.56Z"/><path class="cls-17" d="M195.08,82.47c-9.45-5.46-24.84-5.43-34.36.07s-9.57,14.38-.12,19.84,24.84,5.43,34.36-.07S204.54,87.93,195.08,82.47Z"/><path class="cls-15" d="M177.67,106.57c-6.22,0-12.42-1.36-17.13-4.08s-7.12-6.19-7.12-10,2.57-7.4,7.24-10.09c9.54-5.51,25-5.54,34.48-.07,4.59,2.65,7.12,6.19,7.12,10s-2.57,7.4-7.24,10.09S183.95,106.57,177.67,106.57Zm.34-28c-6.23,0-12.47,1.37-17.23,4.12-4.59,2.65-7.11,6.15-7.11,9.87s2.48,7.14,7,9.75c9.41,5.43,24.76,5.4,34.23-.07C199.49,99.55,202,96,202,92.33s-2.48-7.14-7-9.75C190.34,79.88,184.18,78.53,178,78.53Z"/><path class="cls-98" d="M160.72,82.54c-4.86,2.81-7.25,6.5-7.17,10.17.12-3.51,2.51-7,7.16-9.7,9.52-5.5,24.9-5.53,34.36-.07,4.62,2.67,7,6.16,7,9.67.13-3.67-2.22-7.35-7-10.14C185.63,77,170.24,77,160.72,82.54Z"/><path class="cls-15" d="M153.68,92.71h-.25c-.09-3.88,2.48-7.53,7.23-10.28l.06.11-.06-.11c9.54-5.51,25-5.54,34.48-.07,4.72,2.72,7.24,6.36,7.11,10.25H202c-.08-3.62-2.56-7-7-9.56-9.41-5.43-24.76-5.4-34.23.07C156.33,85.69,153.81,89.1,153.68,92.71ZM178,78.53c-6.23,0-12.47,1.37-17.23,4.12h0A15.75,15.75,0,0,0,155,88a16.36,16.36,0,0,1,5.68-5.09c9.54-5.51,25-5.54,34.48-.07a15.94,15.94,0,0,1,5.64,5.11A15.33,15.33,0,0,0,195,82.58C190.34,79.88,184.18,78.53,178,78.53Z"/><polygon class="cls-99" points="190.23 91.39 197.16 89.85 182.4 81.33 177.59 84.1 185.42 88.62 158.76 94.57 163.59 97.36 173.82 103.27 178.65 100.48 170.55 95.8 190.23 91.39"/><path class="cls-15" d="M173.82,103.41l-15.4-8.89,26.66-6-7.74-4.47,5.05-2.92,15.11,8.72-26.62,5.95,8,4.63Zm-14.72-8.79,14.72,8.5,4.58-2.64-8.19-4.73.31-.07,26.31-5.88-14.43-8.33-4.55,2.63,7.92,4.57Z"/><polygon class="cls-100" points="186.23 96.44 188.91 95.84 185.49 93.86 182.81 94.46 186.23 96.44"/><path class="cls-15" d="M186.21,96.57l-3.74-2.16,3-.68,3.74,2.16Zm-3.06-2.06,3.1,1.79,2.32-.52L185.47,94Z"/><polygon class="cls-101" points="177.17 89.06 173.75 87.08 171.06 87.68 174.49 89.66 177.17 89.06"/><path class="cls-15" d="M174.47,89.79l-3.74-2.16,3-.68,3.74,2.16Zm-3.06-2.06,3.1,1.79,2.32-.52-3.1-1.79Z"/><polygon class="cls-102" points="184.88 96.74 181.46 94.77 178.78 95.36 182.21 97.34 184.88 96.74"/><path class="cls-15" d="M182.19,97.47l-3.74-2.16,3-.68,3.74,2.16Zm-3.06-2.06,3.1,1.79,2.31-.52-3.1-1.79Z"/><polygon class="cls-103" points="169.71 87.98 167.04 88.58 170.46 90.56 173.13 89.96 169.71 87.98"/><path class="cls-15" d="M170.44,90.69l-3.74-2.16,3-.68L173.47,90Zm-3.06-2.06,3.1,1.79,2.31-.52-3.1-1.79Z"/><path class="cls-104" d="M148.4,87.74s0,3.63,0,4.56c-.11,4.41,2.74,8.83,8.55,12.19,11.46,6.61,30.1,6.58,41.63-.08,5.77-3.33,8.67-7.69,8.7-12,0-1.46,0-4.62,0-4.62Z"/><path class="cls-15" d="M177.64,109.54c-7.53,0-15-1.65-20.75-4.94s-8.72-7.64-8.61-12.3c0-.92,0-4.52,0-4.55v-.13h59.13v.12s0,3.18,0,4.62c0,4.59-3.14,8.9-8.76,12.14C192.85,107.86,185.23,109.54,177.64,109.54ZM148.53,87.87c0,.65,0,3.61,0,4.43-.11,4.56,2.9,8.85,8.48,12.07,11.4,6.58,30,6.55,41.51-.08,5.54-3.2,8.61-7.43,8.63-11.93,0-1.28,0-3.9,0-4.5Z"/><path class="cls-105" d="M198.73,75.68c-11.46-6.61-30.1-6.58-41.63.08s-11.6,17.42-.15,24,30.1,6.58,41.63-.08S210.19,82.3,198.73,75.68Z"/><path class="cls-15" d="M177.64,104.85c-7.53,0-15-1.65-20.75-4.94-5.55-3.21-8.61-7.49-8.61-12.05s3.11-8.94,8.76-12.2c11.55-6.67,30.29-6.71,41.76-.08,5.55,3.21,8.61,7.49,8.61,12.05s-3.11,8.94-8.76,12.2C192.85,103.18,185.23,104.85,177.64,104.85Zm.41-34c-7.55,0-15.12,1.67-20.89,5-5.57,3.21-8.63,7.47-8.63,12s3,8.67,8.49,11.83c11.4,6.58,30,6.55,41.51-.08,5.57-3.21,8.63-7.47,8.63-12s-3-8.67-8.49-11.83C193,72.51,185.53,70.88,178,70.88Z"/><path class="cls-17" d="M195.08,77.79c-9.45-5.46-24.84-5.43-34.36.07s-9.57,14.38-.12,19.84,24.84,5.43,34.36-.07S204.54,83.25,195.08,77.79Z"/><path class="cls-15" d="M177.67,101.89c-6.22,0-12.42-1.36-17.13-4.08s-7.12-6.19-7.12-10,2.57-7.4,7.24-10.09c9.54-5.51,25-5.54,34.48-.07,4.59,2.65,7.12,6.19,7.12,10S199.69,95,195,97.73,183.95,101.88,177.67,101.89Zm.34-28c-6.23,0-12.47,1.37-17.23,4.12-4.59,2.65-7.11,6.16-7.11,9.87s2.48,7.14,7,9.75c9.41,5.43,24.76,5.4,34.23-.07,4.59-2.65,7.11-6.15,7.11-9.87s-2.48-7.14-7-9.75h0C190.34,75.19,184.18,73.84,178,73.84Z"/><path class="cls-106" d="M160.72,77.86c-4.86,2.81-7.25,6.5-7.17,10.17.12-3.51,2.51-7,7.16-9.7,9.52-5.5,24.9-5.53,34.36-.07,4.62,2.67,7,6.16,7,9.67.13-3.67-2.22-7.35-7-10.14C185.63,72.33,170.24,72.36,160.72,77.86Z"/><path class="cls-15" d="M153.68,88h-.25c-.09-3.89,2.48-7.54,7.23-10.28h0c9.54-5.51,25-5.54,34.48-.07,4.72,2.72,7.24,6.36,7.11,10.25H202c-.08-3.61-2.56-7-7-9.57-9.41-5.43-24.76-5.4-34.23.07C156.33,81,153.81,84.41,153.68,88Zm7-10.17.06.11A15.74,15.74,0,0,0,155,83.31a16.36,16.36,0,0,1,5.68-5.1c9.54-5.51,25-5.54,34.48-.07a15.94,15.94,0,0,1,5.65,5.11A15.33,15.33,0,0,0,195,77.9c-9.41-5.43-24.76-5.4-34.23.07Z"/><polygon class="cls-107" points="190.23 86.71 197.16 85.17 182.4 76.64 177.59 79.41 185.42 83.94 158.76 89.89 163.59 92.67 173.82 98.58 178.65 95.8 170.55 91.12 190.23 86.71"/><path class="cls-15" d="M173.82,98.73l-15.4-8.89,26.66-6-7.74-4.47,5.05-2.92,15.11,8.72-26.62,5.95,8,4.63Zm-14.72-8.79,14.72,8.5,4.58-2.64-8.19-4.73.31-.07,26.31-5.88-14.43-8.33-4.55,2.63L185.76,84Z"/><polygon class="cls-108" points="186.23 91.75 188.91 91.15 185.49 89.18 182.81 89.78 186.23 91.75"/><path class="cls-15" d="M186.21,91.89l-3.74-2.16,3-.68,3.74,2.16Zm-3.06-2.06,3.1,1.79,2.32-.52-3.1-1.79Z"/><polygon class="cls-109" points="177.17 84.37 173.75 82.4 171.06 83 174.49 84.97 177.17 84.37"/><path class="cls-15" d="M174.47,85.11l-3.74-2.16,3-.68,3.74,2.16Zm-3.06-2.06,3.1,1.79,2.32-.52-3.1-1.79Z"/><polygon class="cls-110" points="184.88 92.06 181.46 90.08 178.78 90.68 182.21 92.65 184.88 92.06"/><path class="cls-15" d="M182.19,92.79l-3.74-2.16,3-.68,3.74,2.16Zm-3.06-2.06,3.1,1.79,2.31-.52-3.1-1.79Z"/><polygon class="cls-111" points="169.71 83.3 167.04 83.9 170.46 85.87 173.13 85.28 169.71 83.3"/><path class="cls-15" d="M170.44,86l-3.74-2.16,3-.68,3.74,2.16Zm-3.06-2.06,3.1,1.79,2.31-.52-3.1-1.79Z"/><path class="cls-112" d="M148.4,83.08s0,3.63,0,4.56c-.11,4.41,2.74,8.83,8.55,12.19,11.46,6.61,30.1,6.58,41.63-.08,5.77-3.33,8.67-7.69,8.7-12,0-1.46,0-4.62,0-4.62Z"/><path class="cls-15" d="M177.64,104.88c-7.53,0-15-1.65-20.75-4.94s-8.72-7.64-8.61-12.3c0-.92,0-4.52,0-4.55V83h59.13v.12s0,3.18,0,4.62c0,4.59-3.14,8.9-8.76,12.14C192.85,103.2,185.23,104.88,177.64,104.88ZM148.53,83.21c0,.65,0,3.61,0,4.43-.11,4.56,2.9,8.85,8.48,12.08,11.4,6.58,30,6.55,41.51-.08,5.54-3.2,8.61-7.43,8.63-11.93,0-1.28,0-3.9,0-4.5Z"/><path class="cls-113" d="M198.73,71c-11.46-6.61-30.1-6.58-41.63.08s-11.6,17.42-.15,24,30.1,6.58,41.63-.08S210.19,77.64,198.73,71Z"/><path class="cls-15" d="M177.64,100.19c-7.53,0-15-1.65-20.75-4.94-5.55-3.21-8.61-7.49-8.61-12S151.39,74.26,157,71c11.55-6.67,30.29-6.71,41.76-.08,5.55,3.21,8.61,7.49,8.61,12s-3.11,8.94-8.76,12.2C192.85,98.52,185.23,100.19,177.64,100.19Zm.41-34c-7.55,0-15.12,1.67-20.89,5-5.57,3.21-8.63,7.47-8.63,12s3,8.67,8.49,11.83c11.4,6.58,30,6.55,41.51-.08,5.57-3.21,8.63-7.47,8.63-12s-3-8.67-8.49-11.83C193,67.85,185.53,66.22,178,66.22Z"/><path class="cls-17" d="M195.08,73.13c-9.45-5.46-24.84-5.43-34.36.07S151.15,87.58,160.6,93,185.44,98.46,195,93,204.54,78.59,195.08,73.13Z"/><path class="cls-15" d="M177.67,97.23c-6.22,0-12.42-1.36-17.13-4.08s-7.12-6.19-7.12-10,2.57-7.4,7.24-10.09c9.54-5.51,25-5.54,34.48-.07,4.59,2.65,7.12,6.19,7.12,10s-2.57,7.4-7.24,10.09S183.95,97.23,177.67,97.23Zm.34-28c-6.23,0-12.47,1.37-17.23,4.12-4.59,2.65-7.11,6.16-7.11,9.87s2.48,7.14,7,9.75c9.41,5.43,24.76,5.4,34.23-.07C199.49,90.21,202,86.7,202,83s-2.48-7.14-7-9.75h0C190.34,70.54,184.18,69.19,178,69.19Z"/><path class="cls-114" d="M160.72,73.2c-4.86,2.81-7.25,6.5-7.17,10.17.12-3.51,2.51-7,7.16-9.7,9.52-5.5,24.9-5.53,34.36-.07,4.62,2.67,7,6.16,7,9.67.13-3.67-2.22-7.35-7-10.14C185.63,67.67,170.24,67.7,160.72,73.2Z"/><path class="cls-15" d="M153.68,83.37h-.25c-.09-3.88,2.48-7.53,7.23-10.28h0c9.54-5.51,25-5.54,34.48-.07,4.72,2.72,7.24,6.36,7.11,10.25H202c-.08-3.61-2.56-7-7-9.57-9.41-5.43-24.76-5.4-34.23.07C156.33,76.35,153.81,79.75,153.68,83.37Zm7-10.17.06.11A15.74,15.74,0,0,0,155,78.65a16.36,16.36,0,0,1,5.68-5.1c9.54-5.51,25-5.54,34.48-.07a15.94,15.94,0,0,1,5.64,5.11A15.33,15.33,0,0,0,195,73.24c-9.41-5.43-24.76-5.4-34.23.07Z"/><polygon class="cls-115" points="190.23 82.05 197.16 80.51 182.4 71.98 177.59 74.75 185.42 79.28 158.76 85.23 163.59 88.02 173.82 93.92 178.65 91.14 170.55 86.46 190.23 82.05"/><path class="cls-15" d="M173.82,94.07l-15.4-8.89,26.66-6-7.74-4.47,5.05-2.92,15.11,8.72-26.62,5.95,8,4.63Zm-14.72-8.79,14.72,8.5,4.58-2.64-8.19-4.73.31-.07,26.31-5.88-14.43-8.33-4.55,2.63,7.92,4.57Z"/><polygon class="cls-116" points="186.23 87.09 188.91 86.49 185.49 84.52 182.81 85.12 186.23 87.09"/><path class="cls-15" d="M186.21,87.23l-3.74-2.16,3-.68,3.74,2.16Zm-3.06-2.06,3.1,1.79,2.32-.52-3.1-1.79Z"/><polygon class="cls-117" points="177.17 79.71 173.75 77.74 171.06 78.34 174.49 80.31 177.17 79.71"/><path class="cls-15" d="M174.47,80.45l-3.74-2.16,3-.68,3.74,2.16Zm-3.06-2.06,3.1,1.79,2.32-.52-3.1-1.79Z"/><polygon class="cls-118" points="184.88 87.4 181.46 85.42 178.78 86.02 182.21 88 184.88 87.4"/><path class="cls-15" d="M182.19,88.13,178.44,86l3-.68,3.74,2.16Zm-3.06-2.06,3.1,1.79,2.31-.52-3.1-1.79Z"/><polygon class="cls-119" points="169.71 78.64 167.04 79.24 170.46 81.21 173.13 80.62 169.71 78.64"/><path class="cls-15" d="M170.44,81.35l-3.74-2.16,3-.68,3.74,2.16Zm-3.06-2.06,3.1,1.79,2.31-.52-3.1-1.79Z"/><path class="cls-120" d="M148.4,78.4s0,3.63,0,4.56c-.11,4.41,2.74,8.83,8.55,12.19,11.46,6.61,30.1,6.58,41.63-.08,5.77-3.33,8.67-7.69,8.7-12,0-1.46,0-4.62,0-4.62Z"/><path class="cls-15" d="M177.64,100.19c-7.53,0-15-1.65-20.75-4.94s-8.72-7.64-8.61-12.3c0-.92,0-4.52,0-4.55v-.13h59.13v.12s0,3.18,0,4.62c0,4.59-3.14,8.9-8.76,12.14C192.85,98.52,185.23,100.19,177.64,100.19ZM148.53,78.53c0,.65,0,3.61,0,4.43-.11,4.56,2.9,8.85,8.48,12.07,11.4,6.58,30,6.55,41.51-.08,5.54-3.2,8.61-7.43,8.63-11.93,0-1.28,0-3.9,0-4.5Z"/><path class="cls-121" d="M198.73,66.34c-11.46-6.61-30.1-6.58-41.63.08s-11.6,17.42-.15,24,30.1,6.58,41.63-.08S210.19,73,198.73,66.34Z"/><path class="cls-15" d="M177.64,95.51c-7.53,0-15-1.65-20.75-4.94-5.55-3.21-8.61-7.49-8.61-12s3.11-8.94,8.76-12.2c11.55-6.67,30.29-6.71,41.76-.08,5.55,3.21,8.61,7.49,8.61,12.05s-3.11,8.94-8.76,12.2C192.85,93.83,185.23,95.51,177.64,95.51Zm.41-34c-7.55,0-15.12,1.67-20.89,5-5.57,3.21-8.63,7.47-8.63,12s3,8.67,8.49,11.83c11.4,6.58,30,6.55,41.51-.08,5.57-3.21,8.63-7.47,8.63-12s-3-8.67-8.49-11.83C193,63.17,185.53,61.53,178,61.53Z"/><path class="cls-17" d="M195.08,68.45c-9.45-5.46-24.84-5.43-34.36.07s-9.57,14.38-.12,19.84,24.84,5.43,34.36-.07S204.54,73.9,195.08,68.45Z"/><path class="cls-15" d="M177.67,92.54c-6.22,0-12.42-1.36-17.13-4.08s-7.12-6.19-7.12-10,2.57-7.4,7.24-10.09c9.54-5.51,25-5.54,34.48-.07,4.59,2.65,7.12,6.19,7.12,10s-2.57,7.4-7.24,10.09S183.94,92.54,177.67,92.54Zm.34-28c-6.23,0-12.47,1.37-17.23,4.12-4.59,2.65-7.11,6.15-7.11,9.87s2.48,7.14,7,9.75c9.41,5.43,24.76,5.4,34.23-.07C199.49,85.53,202,82,202,78.3s-2.48-7.14-7-9.75C190.34,65.85,184.18,64.5,178,64.5Z"/><path class="cls-122" d="M160.72,68.52c-4.86,2.81-7.25,6.5-7.17,10.17.12-3.51,2.51-7,7.16-9.7,9.52-5.5,24.9-5.53,34.36-.07,4.62,2.67,7,6.16,7,9.67.13-3.67-2.22-7.35-7-10.14C185.63,63,170.24,63,160.72,68.52Z"/><path class="cls-15" d="M153.68,78.69h-.25c-.09-3.88,2.48-7.53,7.23-10.28l.06.11-.06-.11c9.54-5.51,25-5.54,34.48-.07,4.72,2.72,7.24,6.36,7.11,10.25H202c-.08-3.62-2.56-7-7-9.56-9.41-5.43-24.76-5.4-34.23.07C156.33,71.66,153.81,75.07,153.68,78.69ZM178,64.5c-6.23,0-12.47,1.37-17.23,4.12A15.74,15.74,0,0,0,155,74a16.36,16.36,0,0,1,5.68-5.1c9.54-5.51,25-5.54,34.48-.07a15.94,15.94,0,0,1,5.64,5.11A15.33,15.33,0,0,0,195,68.55C190.34,65.85,184.18,64.5,178,64.5Z"/><polygon class="cls-123" points="190.23 77.37 197.16 75.83 182.4 67.3 177.59 70.07 185.42 74.59 158.76 80.55 163.59 83.33 173.82 89.24 178.65 86.45 170.55 81.78 190.23 77.37"/><path class="cls-15" d="M173.82,89.38l-15.4-8.89,26.66-6-7.74-4.47,5.05-2.92,15.11,8.72-26.62,5.95,8,4.63ZM159.11,80.6l14.72,8.5,4.58-2.64-8.19-4.73.31-.07,26.31-5.88-14.43-8.33-4.55,2.63,7.92,4.57Z"/><polygon class="cls-124" points="186.23 82.41 188.91 81.81 185.49 79.84 182.81 80.44 186.23 82.41"/><path class="cls-15" d="M186.21,82.54l-3.74-2.16,3-.68,3.74,2.16Zm-3.06-2.06,3.1,1.79,2.32-.52L185.47,80Z"/><polygon class="cls-125" points="177.17 75.03 173.75 73.06 171.06 73.66 174.49 75.63 177.17 75.03"/><path class="cls-15" d="M174.47,75.76l-3.74-2.16,3-.68,3.74,2.16Zm-3.06-2.06,3.1,1.79,2.32-.52-3.1-1.79Z"/><polygon class="cls-126" points="184.88 82.71 181.46 80.74 178.78 81.33 182.21 83.31 184.88 82.71"/><path class="cls-15" d="M182.19,83.44l-3.74-2.16,3-.68,3.74,2.16Zm-3.06-2.06,3.1,1.79,2.31-.52-3.1-1.79Z"/><polygon class="cls-127" points="169.71 73.96 167.04 74.55 170.46 76.53 173.13 75.93 169.71 73.96"/><path class="cls-15" d="M170.44,76.66,166.7,74.5l3-.68L173.47,76Zm-3.06-2.06,3.1,1.79,2.31-.52-3.1-1.79Z"/><path class="cls-128" d="M490.2,77.72c-.34-10,6-20,19.16-27.57,25.72-14.85,67.57-14.77,93.47.19,13.11,7.57,19.61,17.5,19.51,27.38,0,0-.16,14.88,0,23,.2,9.87-6.19,19.75-19.18,27.25-25.72,14.85-67.57,14.77-93.47-.19-13-7.49-19.48-17.28-19.52-27.06C490.13,92.59,490.2,77.72,490.2,77.72Z"/><path class="cls-129" d="M556.72,139.32c-17.06,0-34.15-3.77-47.18-11.29-12.64-7.3-19.63-17-19.67-27.32,0-8,0-22.64,0-23-.36-10.55,6.5-20.44,19.31-27.84C535,35,577,35.09,603,50.07c12.79,7.38,19.77,17.2,19.66,27.65,0,.15-.16,15,0,23,.21,10.43-6.66,20.2-19.33,27.51S573.62,139.32,556.72,139.32Zm-.93-99.95c-16.79,0-33.54,3.67-46.28,11s-19.37,17-19,27.3h0c0,.15-.06,15,0,23,0,10.1,6.92,19.61,19.37,26.8,25.78,14.88,67.57,15,93.17.19,12.47-7.2,19.23-16.78,19-27-.16-8,0-22.86,0-23,.11-10.22-6.77-19.85-19.36-27.12C589.73,43.12,572.74,39.37,555.79,39.37Z"/><path class="cls-130" d="M490.2,77.72c-.34-10,6-20,19.16-27.57,25.72-14.85,67.57-14.77,93.47.19,13.11,7.57,19.61,17.5,19.51,27.38,0,0-.16,14.88,0,23,.2,9.87-6.19,19.75-19.18,27.25-25.72,14.85-67.57,14.77-93.47-.19-13-7.49-19.48-17.28-19.52-27.06C490.13,92.59,490.2,77.72,490.2,77.72Z"/><polygon class="cls-128" points="420.76 180.22 510.76 128.22 510.76 104.22 420.76 156.22 420.76 180.22"/><path class="cls-129" d="M420.76,180.52a.3.3,0,0,1-.3-.3v-24a.3.3,0,0,1,.15-.26l90-52a.3.3,0,0,1,.45.26v24a.3.3,0,0,1-.15.26l-90,52A.3.3,0,0,1,420.76,180.52Zm.3-24.13V179.7L510.46,128V104.74Z"/><line class="cls-131" x1="510.76" y1="128.22" x2="422.27" y2="179.41"/><path class="cls-129" d="M422.27,179.71a.3.3,0,0,1-.15-.56L510.61,128a.3.3,0,1,1,.3.52l-88.49,51.19A.3.3,0,0,1,422.27,179.71Z"/><path class="cls-129" d="M421,180.41l6-9,.69.32a7.18,7.18,0,0,1,4.16,7.2l-.07.76Z"/><polygon class="cls-130" points="420.76 180.22 510.76 128.22 510.76 104.22 420.76 156.22 420.76 180.22"/><path class="cls-128" d="M509.36,50.14c-25.72,14.85-25.57,39,.33,54s67.75,15,93.47.19,25.57-39-.33-54S535.08,35.29,509.36,50.14Z"/><path class="cls-129" d="M556.72,115.65c-17.06,0-34.15-3.77-47.18-11.29C496.85,97,489.86,87.31,489.86,77s6.87-19.87,19.34-27.07l.15.26-.15-.26C535,35,577,35.09,603,50.07c12.68,7.32,19.67,17.06,19.67,27.41s-6.87,19.87-19.34,27.07C590.48,112,573.62,115.65,556.72,115.65Zm-.93-76.28c-16.79,0-33.54,3.67-46.28,11-12.28,7.09-19,16.52-19,26.55s6.88,19.68,19.37,26.9c25.78,14.88,67.57,15,93.17.19,12.28-7.09,19-16.52,19-26.55s-6.88-19.68-19.37-26.89C589.73,43.12,572.74,39.37,555.79,39.37Z"/><line class="cls-132" x1="510.76" y1="104.22" x2="422.27" y2="155.41"/><path class="cls-129" d="M422.27,155.71a.3.3,0,0,1-.15-.56L510.61,104a.3.3,0,1,1,.3.52l-88.49,51.19A.3.3,0,0,1,422.27,155.71Z"/><path class="cls-129" d="M421,156.41l6-9,.69.32a7.18,7.18,0,0,1,4.16,7.2l-.07.76Z"/><path class="cls-128" d="M543.8,46.47a19.54,19.54,0,0,0,24.92,0c0-.2,10.88,29,10.91,29.13h0c0,3.46-2.22,6.93-6.79,9.56-9.09,5.25-23.87,5.22-33-.06-4.55-2.63-6.85-6.07-6.89-9.5h0C532.92,75.44,543.75,46.27,543.8,46.47Z"/><path class="cls-129" d="M556.42,89.37c-6.06,0-12.13-1.34-16.76-4-4.45-2.57-6.95-6-7-9.65a.27.27,0,0,1,0-.17c0-.15,4.05-11,5.43-14.67,5.48-14.7,5.48-14.7,5.76-14.7a.35.35,0,0,1,.21.08,19.25,19.25,0,0,0,24.51,0,.48.48,0,0,1,.21-.08c.28,0,.28,0,5.76,14.7,1.38,3.71,5.41,14.52,5.43,14.67a.29.29,0,0,1,0,.09c0,3.72-2.44,7.19-6.93,9.79S562.43,89.37,556.42,89.37Zm-23.2-13.8v0c0,3.48,2.43,6.76,6.74,9.25,9,5.22,23.73,5.25,32.72.06,4.3-2.48,6.66-5.77,6.64-9.27-.29-.8-9.4-25.36-10.71-28.66a19.95,19.95,0,0,1-24.7,0C542.62,50.2,533.9,73.7,533.22,75.57Z"/><circle class="cls-128" cx="556.26" cy="27.72" r="15"/><path class="cls-129" d="M556.26,43a15.3,15.3,0,1,1,15.3-15.3A15.32,15.32,0,0,1,556.26,43Zm0-30A14.71,14.71,0,1,0,571,27.72,14.72,14.72,0,0,0,556.26,13Z"/><g class="cls-133"><path class="cls-134" d="M568.71,46.47a19.54,19.54,0,0,1-24.92,0c0-.2-10.88,29-10.91,29.13h0c0,3.46,2.22,6.93,6.79,9.56,9.09,5.25,23.87,5.22,33-.06,4.55-2.63,6.85-6.07,6.89-9.5h0C579.59,75.44,568.76,46.27,568.71,46.47Z"/><circle class="cls-135" cx="556.26" cy="27.72" r="15"/></g><polygon class="cls-136" points="495.9 198.6 340.02 108.6 185.11 198.04 185.11 246.04 340.99 336.04 495.9 246.6 495.9 198.6"/><path class="cls-129" d="M341,336.34a.3.3,0,0,1-.15,0L185,246.3a.3.3,0,0,1-.15-.26V198a.3.3,0,0,1,.15-.26l154.91-89.44a.3.3,0,0,1,.3,0l155.88,90a.3.3,0,0,1,.15.26v48a.3.3,0,0,1-.15.26L341.14,336.3A.3.3,0,0,1,341,336.34ZM185.41,245.87,341,335.69,495.6,246.43V198.78L340,108.95,185.41,198.21Z"/><line class="cls-137" x1="341.01" y1="287.82" x2="341.01" y2="335.82"/><path class="cls-129" d="M341,336.12a.3.3,0,0,1-.3-.3v-48a.3.3,0,1,1,.6,0v48A.3.3,0,0,1,341,336.12Z"/><polygon class="cls-138" points="340.99 288.04 185.11 198.04 340.02 108.6 495.9 198.6 340.99 288.04"/><path class="cls-129" d="M341,288.34a.3.3,0,0,1-.15,0L185,198.3a.3.3,0,0,1,0-.52l154.91-89.44a.3.3,0,0,1,.3,0l155.88,90a.3.3,0,0,1,0,.52L341.14,288.3A.3.3,0,0,1,341,288.34ZM185.71,198,341,287.69,495.3,198.6,340,108.95Z"/><polygon class="cls-129" points="305.57 184.56 319.53 192.62 321.67 191.38 307.71 183.32 305.57 184.56"/><path class="cls-129" d="M354.17,192.61q.6-3.12-3.4-5.42a16.27,16.27,0,0,0-9.41-2,21.65,21.65,0,0,0-9.54,2.76q-4.16,2.4-4.78,5.51t3.42,5.43a16.3,16.3,0,0,0,9.39,2,21.59,21.59,0,0,0,9.56-2.75Q353.58,195.73,354.17,192.61ZM339.7,199a11.58,11.58,0,0,1-7.13-1.25q-2.92-1.69-2.17-4.12a7.73,7.73,0,0,1,3.84-4.22,18.17,18.17,0,0,1,7.3-2.22,11.58,11.58,0,0,1,7.13,1.25q2.92,1.68,2.17,4.12a7.73,7.73,0,0,1-3.84,4.22A18.17,18.17,0,0,1,339.7,199Z"/><path class="cls-129" d="M375.3,202.78q-.64-1.8-3.68-3.55a16,16,0,0,0-6.17-2,9.53,9.53,0,0,0-6,1.12q-2,1.15-1.92,2.53a4,4,0,0,0,1.35,2.66q1.29,1.27,2.67,2.51a5.68,5.68,0,0,1,1.76,2.45q.37,1.21-1.12,2.06a6.9,6.9,0,0,1-4.17.9,10.06,10.06,0,0,1-4.18-1.31q-2.77-1.6-3.4-3t1.84-2.88l-2.3-1.33q-3.28,1.9-2.7,4t4,4.07a17.55,17.55,0,0,0,6.88,2.32,10.88,10.88,0,0,0,6.79-1.48q1.95-1.12,1.94-2.54a4,4,0,0,0-1.26-2.73q-1.25-1.32-2.6-2.56a7.25,7.25,0,0,1-1.83-2.38q-.49-1.14.81-1.89a5.69,5.69,0,0,1,3.79-.66,11,11,0,0,1,3.91,1.36q4.26,2.46,1.71,4.6l2.23,1.29Q375.94,204.59,375.3,202.78Z"/><polygon class="cls-129" points="203.18 235.44 200.98 224.28 198.58 222.89 202.17 238.79 204.18 239.95 207.75 228.19 205.36 226.81 203.18 235.44"/><polygon class="cls-129" points="211.56 228.21 211.56 230.82 214.95 231.22 214.95 246.17 217.26 247.5 217.26 228.83 216.96 228.66 211.56 228.21"/><path class="cls-129" d="M225.61,249.05c-.42-.25-.75-.27-1-.08a1.27,1.27,0,0,0-.35,1,3,3,0,0,0,.36,1.42,2.54,2.54,0,0,0,1,1c.43.25.76.28,1,.1a1.22,1.22,0,0,0,.35-1,3.14,3.14,0,0,0-.35-1.44A2.52,2.52,0,0,0,225.61,249.05Z"/><path class="cls-129" d="M239.24,253.56v-12l-2.39-1.38-6,9.12.07,1.93,6,3.46v4.14l2.31,1.33V256l1.72,1v-2.49Zm-2.31-1.33-3.63-2.1,3.45-5.37.17-.31Z"/><path class="cls-129" d="M339,230.33h0c-1.34,0-2.69-.06-4-.13a.5.5,0,0,1,.05-1c1.32.07,2.65.12,4,.13a.5.5,0,0,1,0,1Zm5-.07a.5.5,0,0,1,0-1c1.32-.05,2.66-.14,4-.25a.49.49,0,0,1,.54.46.5.5,0,0,1-.46.54c-1.33.11-2.68.19-4,.25Zm-14-.46H330c-1.33-.14-2.67-.32-4-.52a.5.5,0,1,1,.15-1c1.3.2,2.63.37,3.95.52a.5.5,0,0,1-.05,1Zm22.94-.33a.5.5,0,0,1-.07-1c1.31-.18,2.63-.4,3.92-.63a.5.5,0,1,1,.18,1c-1.31.24-2.64.46-4,.64Zm-31.83-1.09H321c-1.32-.28-2.64-.6-3.92-.94a.5.5,0,1,1,.26-1c1.26.34,2.56.65,3.87.93a.5.5,0,0,1-.1,1Zm40.66-.6a.5.5,0,0,1-.12-1c1.3-.32,2.59-.68,3.83-1.05a.5.5,0,0,1,.29,1c-1.26.38-2.56.74-3.88,1.07ZM312.46,226l-.16,0c-1.28-.44-2.55-.92-3.77-1.42a.5.5,0,0,1,.38-.92c1.2.49,2.45,1,3.72,1.4a.5.5,0,0,1-.16,1Zm57.92-.89a.5.5,0,0,1-.18-1c1.25-.48,2.48-1,3.66-1.53a.5.5,0,1,1,.41.91c-1.2.55-2.45,1.07-3.72,1.55A.5.5,0,0,1,370.38,225.09Zm-66.21-2.6a.5.5,0,0,1-.23-.05c-.82-.42-1.63-.86-2.42-1.32l-1.1-.65a.5.5,0,0,1,.52-.85l1.08.64c.77.45,1.57.88,2.38,1.29a.5.5,0,0,1-.23.95Zm74.36-1.2a.5.5,0,0,1-.25-.94l.44-.25c1-.59,2-1.2,2.92-1.82a.5.5,0,1,1,.56.83c-.94.64-1.95,1.26-3,1.86l-.46.26A.49.49,0,0,1,378.52,221.29Zm-82-3.58a.5.5,0,0,1-.31-.1,37.53,37.53,0,0,1-3.06-2.65.5.5,0,0,1,.7-.72,36.57,36.57,0,0,0,3,2.58.5.5,0,0,1-.31.9Zm89.34-1.55a.5.5,0,0,1-.33-.88,33.86,33.86,0,0,0,2.83-2.74.5.5,0,1,1,.74.67,34.87,34.87,0,0,1-2.91,2.82A.5.5,0,0,1,385.9,216.16Zm-95.66-4.82a.5.5,0,0,1-.4-.2,25,25,0,0,1-2.15-3.46.5.5,0,1,1,.89-.45,24,24,0,0,0,2.06,3.32.5.5,0,0,1-.4.8Zm101.57-1.93a.5.5,0,0,1-.42-.77,22.5,22.5,0,0,0,1.79-3.47.5.5,0,1,1,.93.38,23.47,23.47,0,0,1-1.87,3.63A.5.5,0,0,1,391.81,209.42Zm-105.4-6.14a.5.5,0,0,1-.49-.39,19.15,19.15,0,0,1-.5-4.07.5.5,0,0,1,.49-.51.54.54,0,0,1,.51.49,18.14,18.14,0,0,0,.48,3.85.5.5,0,0,1-.37.6Zm108.53-2.22h-.07a.5.5,0,0,1-.43-.56,17.91,17.91,0,0,0,.16-2.39q0-.75-.06-1.49a.5.5,0,0,1,1-.08q.07.79.07,1.58a18.93,18.93,0,0,1-.17,2.52A.5.5,0,0,1,394.94,201.05Zm-108.42-6.69-.13,0a.5.5,0,0,1-.36-.61,21.31,21.31,0,0,1,1.41-3.84.5.5,0,0,1,.9.43A20.24,20.24,0,0,0,287,194,.5.5,0,0,1,286.51,194.36ZM394,192.2a.5.5,0,0,1-.47-.33,21.51,21.51,0,0,0-1.65-3.53.5.5,0,1,1,.86-.5,22.58,22.58,0,0,1,1.73,3.7.5.5,0,0,1-.47.67Zm-103.47-5.83a.5.5,0,0,1-.4-.8,30.86,30.86,0,0,1,2.67-3.06.5.5,0,1,1,.71.7,29.86,29.86,0,0,0-2.58,3A.5.5,0,0,1,290.49,186.36Zm98.86-1.83a.5.5,0,0,1-.38-.17,32.28,32.28,0,0,0-2.76-2.8.5.5,0,0,1,.67-.74,33.38,33.38,0,0,1,2.85,2.89.5.5,0,0,1-.38.83ZM296.87,180a.5.5,0,0,1-.31-.9c1-.8,2.15-1.58,3.31-2.32a.5.5,0,0,1,.54.84c-1.14.73-2.23,1.49-3.24,2.27A.5.5,0,0,1,296.87,180Zm85.75-1.46a.5.5,0,0,1-.28-.09c-1-.73-2.17-1.44-3.34-2.11a.5.5,0,1,1,.5-.87c1.19.69,2.34,1.42,3.41,2.16a.5.5,0,0,1-.29.91ZM378,175.74a.5.5,0,0,1-.24-.06c-1.14-.62-2.33-1.21-3.55-1.76a.5.5,0,1,1,.41-.91c1.24.56,2.46,1.17,3.61,1.79a.5.5,0,0,1-.24.94Zm-73.48-.46a.5.5,0,0,1-.23-.95c1.17-.6,2.39-1.17,3.65-1.72a.5.5,0,0,1,.4.92c-1.23.53-2.44,1.1-3.59,1.69A.5.5,0,0,1,304.49,175.28Zm65.26-3.2a.51.51,0,0,1-.17,0c-1.22-.44-2.49-.86-3.77-1.25a.5.5,0,0,1,.29-1c1.3.39,2.58.81,3.82,1.27a.5.5,0,0,1-.17,1Zm-57-.3a.5.5,0,0,1-.16-1c1.25-.43,2.54-.84,3.84-1.21a.5.5,0,0,1,.27,1c-1.28.37-2.56.77-3.79,1.19Zm48.35-2.23H361c-1.27-.29-2.58-.56-3.9-.8a.5.5,0,1,1,.18-1c1.33.24,2.66.51,3.94.81a.5.5,0,0,1-.11,1Zm-39.69-.19a.5.5,0,0,1-.11-1c1.29-.28,2.62-.54,3.95-.77a.5.5,0,0,1,.17,1c-1.31.22-2.63.48-3.9.76ZM352.26,168h-.06c-1.31-.16-2.64-.29-4-.4a.5.5,0,0,1,.08-1c1.34.11,2.68.24,4,.4a.5.5,0,0,1-.06,1Zm-22-.09a.5.5,0,0,1-.06-1c1.32-.15,2.67-.27,4-.37a.51.51,0,0,1,.53.46.5.5,0,0,1-.46.53c-1.32.09-2.65.21-4,.36Zm13-.56h0q-2,0-4,0a.49.49,0,0,1-.51-.49.5.5,0,0,1,.49-.51q2,0,4,0a.5.5,0,0,1,0,1Z"/><path class="cls-12" d="M377.81,156a.5.5,0,0,1-.5-.5v-4a.5.5,0,1,1,1,0v4A.5.5,0,0,1,377.81,156Zm0-9a.5.5,0,0,1-.5-.5v-4a.5.5,0,1,1,1,0v4A.5.5,0,0,1,377.81,147Zm0-9a.5.5,0,0,1-.5-.5v-4a.5.5,0,1,1,1,0v4A.5.5,0,0,1,377.81,138Zm0-9a.5.5,0,0,1-.5-.5v-4a.5.5,0,1,1,1,0v4A.5.5,0,0,1,377.81,129Zm-.18-9a.5.5,0,0,1-.5-.45,33.72,33.72,0,0,0-.63-3.89.5.5,0,0,1,1-.22,34.85,34.85,0,0,1,.65,4,.5.5,0,0,1-.45.55Zm-2.07-8.73a.5.5,0,0,1-.47-.32,33.76,33.76,0,0,0-1.62-3.59.5.5,0,0,1,.89-.46,34.7,34.7,0,0,1,1.67,3.7.5.5,0,0,1-.47.68Zm-4.28-7.89a.5.5,0,0,1-.4-.21,34,34,0,0,0-2.5-3,.5.5,0,1,1,.73-.68,35.08,35.08,0,0,1,2.57,3.13.5.5,0,0,1-.4.79Zm-6.19-6.5a.5.5,0,0,1-.31-.11,33.67,33.67,0,0,0-3.21-2.29.5.5,0,1,1,.53-.85,34.6,34.6,0,0,1,3.3,2.35.5.5,0,0,1-.31.89ZM357.55,92a.5.5,0,0,1-.25-.07l-3.44-2a.5.5,0,0,1,.51-.86l3.44,2a.5.5,0,0,1-.25.93ZM349.8,87.4a.5.5,0,0,1-.25-.07l-3.44-2a.5.5,0,0,1,.51-.86l3.44,2a.5.5,0,0,1-.25.93Zm-7.75-4.58a.5.5,0,0,1-.25-.07l-3.44-2a.5.5,0,0,1,.51-.86l3.44,2a.5.5,0,0,1-.25.93Zm-7.75-4.58a.5.5,0,0,1-.25-.07l-3.44-2a.5.5,0,0,1,.51-.86l3.44,2a.5.5,0,0,1-.25.93Zm-7.75-4.58a.5.5,0,0,1-.25-.07l-3.44-2a.5.5,0,0,1,.51-.86l3.44,2a.5.5,0,0,1-.25.93Zm-7.75-4.58a.5.5,0,0,1-.25-.07l-3.44-2a.5.5,0,0,1,.51-.86l3.44,2a.5.5,0,0,1-.25.93Zm-124.74-.75a.5.5,0,0,1-.5-.5V65.07a.5.5,0,0,1,1,0v2.76A.5.5,0,0,1,194.07,68.34Zm117-3.83a.5.5,0,0,1-.25-.07l-3.44-2a.5.5,0,1,1,.51-.86l3.44,2a.5.5,0,0,1-.25.93Zm-117-3.93a.5.5,0,0,1-.5-.5v-4a.5.5,0,0,1,1,0v4A.5.5,0,0,1,194.07,60.57Zm109.25-.65a.5.5,0,0,1-.25-.07l-3.44-2a.5.5,0,1,1,.51-.86l3.44,2a.5.5,0,0,1-.25.93Zm-7.75-4.58a.5.5,0,0,1-.25-.07l-3.44-2a.5.5,0,1,1,.51-.86l3.44,2a.5.5,0,0,1-.25.93Zm-101.5-3.77a.5.5,0,0,1-.5-.5v-4a.5.5,0,0,1,1,0v4A.5.5,0,0,1,194.07,51.57Zm93.75-.81a.5.5,0,0,1-.25-.07l-3.44-2a.5.5,0,1,1,.51-.86l3.44,2a.5.5,0,0,1-.25.93Zm-7.75-4.58a.5.5,0,0,1-.25-.07l-3.44-2a.5.5,0,0,1,.51-.86l3.44,2a.5.5,0,0,1-.25.93Zm-86-3.61a.5.5,0,0,1-.5-.5v-4a.5.5,0,0,1,1,0v4A.5.5,0,0,1,194.07,42.57Zm78.26-1a.5.5,0,0,1-.25-.07l-3.44-2a.5.5,0,1,1,.51-.86l3.44,2a.5.5,0,0,1-.25.93ZM264.58,37a.5.5,0,0,1-.25-.07l-3.44-2a.5.5,0,0,1,.51-.86l3.44,2a.5.5,0,0,1-.25.93Zm-70.51-3.45a.5.5,0,0,1-.5-.5v-4a.5.5,0,0,1,1,0v4A.5.5,0,0,1,194.07,33.57Zm62.76-1.13a.5.5,0,0,1-.25-.07l-3.44-2a.5.5,0,0,1,.51-.86l3.44,2a.5.5,0,0,1-.25.93Zm-7.75-4.58a.5.5,0,0,1-.25-.07l-3.44-2a.5.5,0,0,1,.51-.86l3.44,2a.5.5,0,0,1-.25.93Zm-55-3.29a.5.5,0,0,1-.5-.5v-4a.5.5,0,0,1,1,0v4A.5.5,0,0,1,194.07,24.57Zm47.26-1.29a.5.5,0,0,1-.25-.07l-3.44-2a.5.5,0,0,1,.51-.86l3.44,2a.5.5,0,0,1-.25.93Zm-7.75-4.58a.5.5,0,0,1-.25-.07l-3.44-2a.5.5,0,0,1,.51-.86l3.44,2a.5.5,0,0,1-.25.93Zm-39.46-3.13h0a.5.5,0,0,1-.45-.55,12.61,12.61,0,0,1,1.07-4,.5.5,0,1,1,.91.41,11.62,11.62,0,0,0-1,3.69A.5.5,0,0,1,194.13,15.58Zm31.71-1.45a.5.5,0,0,1-.25-.07l-3.44-2a.5.5,0,0,1,.51-.86l3.44,2a.5.5,0,0,1-.25.93Zm-7.75-4.58a.5.5,0,0,1-.25-.07l-3.44-2a.5.5,0,1,1,.51-.86l3.44,2a.5.5,0,0,1-.25.93Zm-20-1.82a.5.5,0,0,1-.33-.87,13,13,0,0,1,3.48-2.24.5.5,0,0,1,.4.92,12,12,0,0,0-3.22,2.07A.5.5,0,0,1,198.1,7.73ZM210.23,5.2l-.16,0a11.47,11.47,0,0,0-3.73-.62.52.52,0,0,1-.52-.5.48.48,0,0,1,.48-.5,12.53,12.53,0,0,1,4.09.68.5.5,0,0,1-.16,1Z"/><path class="cls-12" d="M377.81,155.41,373,145.68l.62-.44a7.18,7.18,0,0,1,8.31,0l.62.44Z"/><path class="cls-139" d="M289.17,186.77s0,3.63,0,4.56c-.11,4.41,2.74,8.83,8.55,12.19,11.46,6.61,30.1,6.58,41.63-.08,5.77-3.33,8.67-7.69,8.7-12,0-1.46,0-4.62,0-4.62Z"/><path class="cls-15" d="M318.4,208.56c-7.53,0-15-1.65-20.75-4.94s-8.72-7.64-8.61-12.3c0-.92,0-4.52,0-4.55v-.13h59.13v.12s0,3.16,0,4.62c0,4.59-3.14,8.9-8.76,12.14C333.61,206.88,326,208.56,318.4,208.56ZM289.3,186.89c0,.65,0,3.61,0,4.43-.11,4.56,2.9,8.85,8.48,12.07,11.4,6.58,30,6.55,41.51-.08,5.54-3.2,8.61-7.43,8.63-11.93,0-1.29,0-3.9,0-4.5Z"/><path class="cls-140" d="M339.5,174.7c-11.46-6.61-30.1-6.58-41.63.08s-11.6,17.42-.15,24,30.1,6.58,41.63-.08S351,181.32,339.5,174.7Z"/><path class="cls-15" d="M318.4,203.88c-7.53,0-15-1.65-20.75-4.94-5.55-3.21-8.61-7.49-8.61-12.05s3.11-8.94,8.76-12.2c11.55-6.67,30.29-6.71,41.76-.08,5.55,3.21,8.61,7.49,8.61,12.05s-3.11,8.94-8.76,12.2C333.61,202.2,326,203.88,318.4,203.88Zm.41-34c-7.55,0-15.12,1.67-20.89,5-5.57,3.21-8.63,7.47-8.63,12s3,8.67,8.49,11.83c11.4,6.58,30,6.55,41.51-.08,5.57-3.21,8.63-7.47,8.63-12s-3-8.67-8.49-11.83C333.76,171.54,326.3,169.9,318.82,169.9Z"/><path class="cls-17" d="M335.85,176.81c-9.45-5.46-24.84-5.43-34.36.07s-9.57,14.38-.12,19.84,24.84,5.43,34.36-.07S345.3,182.27,335.85,176.81Z"/><path class="cls-15" d="M318.44,200.91c-6.22,0-12.42-1.36-17.13-4.08s-7.12-6.19-7.12-10,2.57-7.4,7.24-10.09c9.54-5.51,25-5.54,34.48-.07,4.59,2.65,7.12,6.19,7.12,10s-2.57,7.4-7.24,10.09S324.71,200.91,318.44,200.91Zm.34-28c-6.23,0-12.47,1.37-17.23,4.12-4.59,2.65-7.11,6.15-7.11,9.87s2.48,7.14,7,9.75c9.41,5.43,24.76,5.4,34.23-.07,4.59-2.65,7.11-6.16,7.11-9.87s-2.48-7.14-7-9.75C331.11,174.22,325,172.87,318.78,172.87Z"/><path class="cls-141" d="M301.49,176.88c-4.86,2.81-7.25,6.5-7.17,10.17.12-3.51,2.51-7,7.16-9.7,9.52-5.5,24.9-5.53,34.36-.07,4.62,2.67,7,6.16,7,9.67.13-3.67-2.22-7.35-7-10.14C326.4,171.35,311,171.38,301.49,176.88Z"/><path class="cls-15" d="M294.45,187.05h-.25c-.09-3.88,2.48-7.53,7.23-10.28,9.54-5.51,25-5.54,34.48-.07,4.72,2.72,7.24,6.36,7.11,10.25h-.25c-.08-3.62-2.56-7-7-9.56-9.4-5.43-24.76-5.4-34.23.07C297.1,180,294.57,183.44,294.45,187.05Zm7.1-10.06a15.74,15.74,0,0,0-5.81,5.34,16.35,16.35,0,0,1,5.68-5.09c9.54-5.51,25-5.54,34.48-.07a15.94,15.94,0,0,1,5.64,5.11,15.33,15.33,0,0,0-5.76-5.36c-9.4-5.43-24.76-5.4-34.23.07Z"/><polygon class="cls-142" points="331 185.74 337.93 184.19 323.16 175.66 318.36 178.44 326.19 182.96 299.53 188.91 304.36 191.7 314.59 197.61 319.42 194.82 311.31 190.14 331 185.74"/><path class="cls-15" d="M314.59,197.75l-15.4-8.89,26.66-6-7.74-4.47,5.05-2.92,15.11,8.72-26.62,5.95,8,4.63ZM299.87,189l14.72,8.5,4.58-2.64L311,190.09l.31-.07,26.31-5.88-14.43-8.33-4.55,2.63,7.92,4.57Z"/><polygon class="cls-143" points="327 190.78 329.68 190.18 326.26 188.2 323.58 188.8 327 190.78"/><path class="cls-15" d="M327,190.91l-3.74-2.16,3-.68,3.74,2.16Zm-3.06-2.06,3.1,1.79,2.32-.52-3.1-1.79Z"/><polygon class="cls-144" points="317.94 183.4 314.51 181.42 311.83 182.02 315.25 184 317.94 183.4"/><path class="cls-15" d="M315.23,184.13,311.49,182l3-.68,3.74,2.16Zm-3.06-2.06,3.1,1.79,2.32-.52-3.1-1.79Z"/><polygon class="cls-145" points="325.64 191.08 322.22 189.1 319.55 189.7 322.98 191.68 325.64 191.08"/><path class="cls-15" d="M323,191.81l-3.74-2.16,3-.68,3.74,2.16Zm-3.06-2.06,3.1,1.79,2.31-.52-3.1-1.79Z"/><polygon class="cls-146" points="310.48 182.32 307.81 182.92 311.23 184.9 313.9 184.3 310.48 182.32"/><path class="cls-15" d="M311.21,185l-3.74-2.16,3-.68,3.74,2.16ZM308.15,183l3.1,1.79,2.31-.52-3.1-1.79Z"/></g></g></svg>