<svg xmlns="http://www.w3.org/2000/svg" xmlns:xlink="http://www.w3.org/1999/xlink" viewBox="0 0 622.35 336.25"><defs><style>.cls-1{fill:url(#New_Gradient_Swatch_copy);}.cls-2{fill:#57aff7;}.cls-3{fill:url(#New_Gradient_Swatch_copy-2);}.cls-4{fill:url(#linear-gradient);}.cls-5{fill:#424b4f;opacity:0.5;}.cls-6{fill:url(#linear-gradient-2);}.cls-7{fill:#f5ffff;}.cls-8{fill:url(#linear-gradient-3);}.cls-9{fill:url(#linear-gradient-4);}.cls-10{fill:url(#linear-gradient-5);}.cls-11{fill:url(#linear-gradient-6);}.cls-12{fill:url(#linear-gradient-7);}.cls-13{fill:url(#linear-gradient-8);}.cls-14{fill:url(#linear-gradient-9);}.cls-15{fill:url(#linear-gradient-10);}.cls-16{fill:url(#linear-gradient-11);}.cls-17{fill:url(#linear-gradient-12);}.cls-18{fill:url(#linear-gradient-13);}.cls-19{fill:url(#linear-gradient-14);}.cls-20{fill:url(#linear-gradient-15);}.cls-21{fill:url(#linear-gradient-16);}.cls-22{fill:url(#linear-gradient-17);}.cls-23{fill:url(#linear-gradient-18);}.cls-24{fill:url(#linear-gradient-19);}.cls-25{fill:url(#linear-gradient-20);}.cls-26{fill:url(#linear-gradient-21);}.cls-27{fill:url(#linear-gradient-22);}.cls-28{fill:url(#linear-gradient-23);}.cls-29{fill:url(#linear-gradient-24);}.cls-30{fill:url(#linear-gradient-25);}.cls-31{fill:url(#linear-gradient-26);}.cls-32{fill:url(#linear-gradient-27);}.cls-33{fill:url(#linear-gradient-28);}.cls-34{fill:url(#linear-gradient-29);}.cls-35{fill:url(#linear-gradient-30);}.cls-36{fill:url(#linear-gradient-31);}.cls-37{fill:url(#linear-gradient-32);}.cls-38{fill:url(#linear-gradient-33);}.cls-39{fill:url(#linear-gradient-34);}.cls-40{fill:url(#linear-gradient-35);}.cls-41{fill:url(#linear-gradient-36);}.cls-42{fill:url(#linear-gradient-37);}.cls-43{fill:url(#linear-gradient-38);}.cls-44{fill:url(#linear-gradient-39);}.cls-45{fill:url(#linear-gradient-40);}.cls-46{fill:url(#linear-gradient-41);}.cls-47{fill:url(#linear-gradient-42);}.cls-48{fill:url(#linear-gradient-43);}.cls-49{fill:url(#linear-gradient-44);}.cls-50{fill:url(#linear-gradient-45);}.cls-51{fill:url(#linear-gradient-46);}.cls-52{fill:url(#linear-gradient-47);}.cls-53{fill:url(#linear-gradient-48);}.cls-54{fill:url(#linear-gradient-49);}.cls-55{fill:url(#linear-gradient-50);}.cls-56{fill:url(#linear-gradient-51);}.cls-57{fill:url(#linear-gradient-52);}.cls-58{fill:url(#linear-gradient-53);}.cls-59{fill:url(#linear-gradient-54);}.cls-60{fill:url(#linear-gradient-55);}.cls-61{fill:url(#linear-gradient-56);}.cls-62{fill:#272c34;}.cls-63,.cls-64{fill:#67eaec;}.cls-64{opacity:0.09;}.cls-65{fill:url(#New_Gradient_Swatch_copy-3);}.cls-66{fill:url(#New_Gradient_Swatch_copy-4);}.cls-67{opacity:0.4;}.cls-68{fill:url(#linear-gradient-57);}.cls-69{fill:url(#linear-gradient-58);}.cls-70{fill:url(#New_Gradient_Swatch_copy-5);}.cls-71{fill:url(#New_Gradient_Swatch_copy-6);}.cls-72{fill:url(#New_Gradient_Swatch_copy-7);}.cls-73{fill:url(#New_Gradient_Swatch);}.cls-74{fill:url(#New_Gradient_Swatch-2);}.cls-75{fill:url(#New_Gradient_Swatch-3);}.cls-76{fill:url(#linear-gradient-59);}.cls-77{fill:url(#linear-gradient-60);}.cls-78{fill:url(#linear-gradient-61);}.cls-79{fill:url(#linear-gradient-62);}.cls-80{fill:url(#linear-gradient-63);}.cls-81{fill:url(#New_Gradient_Swatch-4);}.cls-82{fill:url(#New_Gradient_Swatch-5);}.cls-83{fill:url(#New_Gradient_Swatch-6);}.cls-84{fill:url(#linear-gradient-64);}.cls-85{fill:url(#linear-gradient-65);}.cls-86{fill:url(#linear-gradient-66);}.cls-87{fill:url(#linear-gradient-67);}.cls-88{fill:url(#linear-gradient-68);}.cls-89{fill:url(#New_Gradient_Swatch-7);}.cls-90{fill:url(#New_Gradient_Swatch-8);}.cls-91{fill:url(#New_Gradient_Swatch-9);}.cls-92{fill:url(#linear-gradient-69);}.cls-93{fill:url(#linear-gradient-70);}.cls-94{fill:url(#linear-gradient-71);}.cls-95{fill:url(#linear-gradient-72);}.cls-96{fill:url(#linear-gradient-73);}.cls-97{fill:url(#New_Gradient_Swatch-10);}.cls-98{fill:url(#New_Gradient_Swatch-11);}.cls-99{fill:url(#New_Gradient_Swatch-12);}.cls-100{fill:url(#linear-gradient-74);}.cls-101{fill:url(#linear-gradient-75);}.cls-102{fill:url(#linear-gradient-76);}.cls-103{fill:url(#linear-gradient-77);}.cls-104{fill:url(#linear-gradient-78);}.cls-105{fill:url(#New_Gradient_Swatch-13);}.cls-106{fill:url(#New_Gradient_Swatch-14);}.cls-107{fill:url(#New_Gradient_Swatch-15);}.cls-108{fill:url(#linear-gradient-79);}.cls-109{fill:url(#linear-gradient-80);}.cls-110{fill:url(#linear-gradient-81);}.cls-111{fill:url(#linear-gradient-82);}.cls-112{fill:url(#linear-gradient-83);}.cls-113{fill:url(#New_Gradient_Swatch-16);}.cls-114{fill:url(#New_Gradient_Swatch-17);}.cls-115{fill:url(#New_Gradient_Swatch-18);}.cls-116{fill:url(#linear-gradient-84);}.cls-117{fill:url(#linear-gradient-85);}.cls-118{fill:url(#linear-gradient-86);}.cls-119{fill:url(#linear-gradient-87);}.cls-120{fill:url(#linear-gradient-88);}</style><linearGradient id="New_Gradient_Swatch_copy" x1="311.1" y1="114.02" x2="0.3" y2="114.02" gradientUnits="userSpaceOnUse"><stop offset="0" stop-color="#2e3d4a"/><stop offset="1" stop-color="#232329"/></linearGradient><linearGradient id="New_Gradient_Swatch_copy-2" x1="156.2" y1="203.52" x2="156.2" y2="203.52" xlink:href="#New_Gradient_Swatch_copy"/><linearGradient id="linear-gradient" x1="104.41" y1="89.46" x2="163.29" y2="89.46" gradientUnits="userSpaceOnUse"><stop offset="0" stop-color="#5c8ee4"/><stop offset="1" stop-color="#65d5ea"/></linearGradient><linearGradient id="linear-gradient-2" x1="104.41" y1="78.61" x2="163.29" y2="78.61" xlink:href="#linear-gradient"/><linearGradient id="linear-gradient-3" x1="158.14" y1="71.74" x2="109.56" y2="71.74" xlink:href="#linear-gradient"/><linearGradient id="linear-gradient-4" x1="-4366.31" y1="-6.33" x2="-4361.4" y2="-26.17" gradientTransform="matrix(-0.14, 0.58, -1.75, 0.14, -524.41, 2626.41)" gradientUnits="userSpaceOnUse"><stop offset="0" stop-color="#5fa5e6"/><stop offset="1" stop-color="#67eaec"/></linearGradient><linearGradient id="linear-gradient-5" x1="-4358.24" y1="-19.16" x2="-4357.18" y2="-23.47" xlink:href="#linear-gradient-4"/><linearGradient id="linear-gradient-6" x1="-4371.8" y1="-11.33" x2="-4370.74" y2="-15.64" xlink:href="#linear-gradient-4"/><linearGradient id="linear-gradient-7" x1="-4357.25" y1="-16.94" x2="-4356.18" y2="-21.24" xlink:href="#linear-gradient-4"/><linearGradient id="linear-gradient-8" x1="-4370.81" y1="-9.11" x2="-4369.74" y2="-13.41" xlink:href="#linear-gradient-4"/><linearGradient id="linear-gradient-9" x1="104.41" y1="84.77" x2="163.29" y2="84.77" xlink:href="#linear-gradient"/><linearGradient id="linear-gradient-10" x1="104.41" y1="73.93" x2="163.29" y2="73.93" xlink:href="#linear-gradient"/><linearGradient id="linear-gradient-11" x1="158.14" y1="67.06" x2="109.56" y2="67.06" xlink:href="#linear-gradient"/><linearGradient id="linear-gradient-12" x1="-4374.51" y1="-5.66" x2="-4369.6" y2="-25.49" xlink:href="#linear-gradient-4"/><linearGradient id="linear-gradient-13" x1="-4366.44" y1="-18.48" x2="-4365.37" y2="-22.79" xlink:href="#linear-gradient-4"/><linearGradient id="linear-gradient-14" x1="-4380" y1="-10.65" x2="-4378.94" y2="-14.96" xlink:href="#linear-gradient-4"/><linearGradient id="linear-gradient-15" x1="-4365.44" y1="-16.26" x2="-4364.38" y2="-20.57" xlink:href="#linear-gradient-4"/><linearGradient id="linear-gradient-16" x1="-4379.01" y1="-8.43" x2="-4377.94" y2="-12.74" xlink:href="#linear-gradient-4"/><linearGradient id="linear-gradient-17" x1="104.41" y1="80.09" x2="163.29" y2="80.09" xlink:href="#linear-gradient"/><linearGradient id="linear-gradient-18" x1="104.41" y1="69.25" x2="163.29" y2="69.25" xlink:href="#linear-gradient"/><linearGradient id="linear-gradient-19" x1="158.14" y1="62.38" x2="109.56" y2="62.38" xlink:href="#linear-gradient"/><linearGradient id="linear-gradient-20" x1="-4382.7" y1="-4.98" x2="-4377.8" y2="-24.81" xlink:href="#linear-gradient-4"/><linearGradient id="linear-gradient-21" x1="-4374.64" y1="-17.81" x2="-4373.57" y2="-22.11" xlink:href="#linear-gradient-4"/><linearGradient id="linear-gradient-22" x1="-4388.2" y1="-9.98" x2="-4387.13" y2="-14.28" xlink:href="#linear-gradient-4"/><linearGradient id="linear-gradient-23" x1="-4373.64" y1="-15.59" x2="-4372.58" y2="-19.89" xlink:href="#linear-gradient-4"/><linearGradient id="linear-gradient-24" x1="-4387.2" y1="-7.76" x2="-4386.14" y2="-12.06" xlink:href="#linear-gradient-4"/><linearGradient id="linear-gradient-25" x1="104.41" y1="75.4" x2="163.29" y2="75.4" xlink:href="#linear-gradient"/><linearGradient id="linear-gradient-26" x1="104.41" y1="64.56" x2="163.29" y2="64.56" xlink:href="#linear-gradient"/><linearGradient id="linear-gradient-27" x1="158.14" y1="57.69" x2="109.56" y2="57.69" xlink:href="#linear-gradient"/><linearGradient id="linear-gradient-28" x1="-4390.9" y1="-4.31" x2="-4385.99" y2="-24.14" xlink:href="#linear-gradient-4"/><linearGradient id="linear-gradient-29" x1="-4382.83" y1="-17.13" x2="-4381.77" y2="-21.44" xlink:href="#linear-gradient-4"/><linearGradient id="linear-gradient-30" x1="-4396.39" y1="-9.3" x2="-4395.33" y2="-13.61" xlink:href="#linear-gradient-4"/><linearGradient id="linear-gradient-31" x1="-4381.84" y1="-14.91" x2="-4380.77" y2="-19.22" xlink:href="#linear-gradient-4"/><linearGradient id="linear-gradient-32" x1="-4395.4" y1="-7.08" x2="-4394.33" y2="-11.39" xlink:href="#linear-gradient-4"/><linearGradient id="linear-gradient-33" x1="148.1" y1="112.54" x2="206.99" y2="112.54" xlink:href="#linear-gradient"/><linearGradient id="linear-gradient-34" x1="148.1" y1="101.7" x2="206.98" y2="101.7" xlink:href="#linear-gradient"/><linearGradient id="linear-gradient-35" x1="201.83" y1="94.83" x2="153.25" y2="94.83" xlink:href="#linear-gradient"/><linearGradient id="linear-gradient-36" x1="-4319.6" y1="-35.15" x2="-4314.7" y2="-54.99" xlink:href="#linear-gradient-4"/><linearGradient id="linear-gradient-37" x1="-4311.54" y1="-47.98" x2="-4310.47" y2="-52.29" xlink:href="#linear-gradient-4"/><linearGradient id="linear-gradient-38" x1="-4325.1" y1="-40.15" x2="-4324.03" y2="-44.46" xlink:href="#linear-gradient-4"/><linearGradient id="linear-gradient-39" x1="-4310.54" y1="-45.76" x2="-4309.48" y2="-50.06" xlink:href="#linear-gradient-4"/><linearGradient id="linear-gradient-40" x1="-4324.1" y1="-37.93" x2="-4323.04" y2="-42.23" xlink:href="#linear-gradient-4"/><linearGradient id="linear-gradient-41" x1="148.1" y1="107.86" x2="206.99" y2="107.86" xlink:href="#linear-gradient"/><linearGradient id="linear-gradient-42" x1="148.1" y1="97.02" x2="206.98" y2="97.02" xlink:href="#linear-gradient"/><linearGradient id="linear-gradient-43" x1="201.83" y1="90.14" x2="153.25" y2="90.14" xlink:href="#linear-gradient"/><linearGradient id="linear-gradient-44" x1="-4327.8" y1="-34.48" x2="-4322.89" y2="-54.31" xlink:href="#linear-gradient-4"/><linearGradient id="linear-gradient-45" x1="-4319.73" y1="-47.3" x2="-4318.67" y2="-51.61" xlink:href="#linear-gradient-4"/><linearGradient id="linear-gradient-46" x1="-4333.29" y1="-39.47" x2="-4332.23" y2="-43.78" xlink:href="#linear-gradient-4"/><linearGradient id="linear-gradient-47" x1="-4318.74" y1="-45.08" x2="-4317.67" y2="-49.39" xlink:href="#linear-gradient-4"/><linearGradient id="linear-gradient-48" x1="-4332.3" y1="-37.25" x2="-4331.23" y2="-41.56" xlink:href="#linear-gradient-4"/><linearGradient id="linear-gradient-49" x1="148.1" y1="103.17" x2="206.99" y2="103.17" xlink:href="#linear-gradient"/><linearGradient id="linear-gradient-50" x1="148.1" y1="92.33" x2="206.98" y2="92.33" xlink:href="#linear-gradient"/><linearGradient id="linear-gradient-51" x1="201.83" y1="85.46" x2="153.25" y2="85.46" xlink:href="#linear-gradient"/><linearGradient id="linear-gradient-52" x1="-4336" y1="-33.8" x2="-4331.09" y2="-53.63" xlink:href="#linear-gradient-4"/><linearGradient id="linear-gradient-53" x1="-4327.93" y1="-46.63" x2="-4326.86" y2="-50.93" xlink:href="#linear-gradient-4"/><linearGradient id="linear-gradient-54" x1="-4341.49" y1="-38.8" x2="-4340.43" y2="-43.11" xlink:href="#linear-gradient-4"/><linearGradient id="linear-gradient-55" x1="-4326.93" y1="-44.41" x2="-4325.87" y2="-48.71" xlink:href="#linear-gradient-4"/><linearGradient id="linear-gradient-56" x1="-4340.5" y1="-36.58" x2="-4339.43" y2="-40.88" xlink:href="#linear-gradient-4"/><linearGradient id="New_Gradient_Swatch_copy-3" x1="-4477.82" y1="153.72" x2="-4389.34" y2="153.72" gradientTransform="matrix(-1, 0, 0, 1, -3967.37, 0)" xlink:href="#New_Gradient_Swatch_copy"/><linearGradient id="New_Gradient_Swatch_copy-4" x1="-4477.82" y1="129.72" x2="-4389.34" y2="129.72" gradientTransform="matrix(-1, 0, 0, 1, -3967.37, 0)" xlink:href="#New_Gradient_Swatch_copy"/><linearGradient id="linear-gradient-57" x1="-1699.99" y1="67.68" x2="-1653.26" y2="67.68" gradientTransform="translate(2232.58)" gradientUnits="userSpaceOnUse"><stop offset="0" stop-color="#39e6e0"/><stop offset="1" stop-color="#232329"/></linearGradient><linearGradient id="linear-gradient-58" x1="-1691.63" y1="27.63" x2="-1661.62" y2="27.63" xlink:href="#linear-gradient-57"/><linearGradient id="New_Gradient_Swatch_copy-5" x1="495.6" y1="222.23" x2="184.81" y2="222.23" xlink:href="#New_Gradient_Swatch_copy"/><linearGradient id="New_Gradient_Swatch_copy-6" x1="340.71" y1="311.73" x2="340.71" y2="311.73" xlink:href="#New_Gradient_Swatch_copy"/><linearGradient id="New_Gradient_Swatch_copy-7" x1="340.21" y1="287.95" x2="340.21" y2="108.51" xlink:href="#New_Gradient_Swatch_copy"/><linearGradient id="New_Gradient_Swatch" x1="289.02" y1="197.51" x2="347.9" y2="197.51" gradientUnits="userSpaceOnUse"><stop offset="0" stop-color="#5c8ee4"/><stop offset="1" stop-color="#67eaec"/></linearGradient><linearGradient id="New_Gradient_Swatch-2" x1="289.02" y1="186.67" x2="347.9" y2="186.67" xlink:href="#New_Gradient_Swatch"/><linearGradient id="New_Gradient_Swatch-3" x1="342.75" y1="179.8" x2="294.17" y2="179.8" xlink:href="#New_Gradient_Swatch"/><linearGradient id="linear-gradient-59" x1="-4150.56" y1="-129.62" x2="-4145.66" y2="-149.45" xlink:href="#linear-gradient-4"/><linearGradient id="linear-gradient-60" x1="-4142.5" y1="-142.45" x2="-4141.43" y2="-146.75" xlink:href="#linear-gradient-4"/><linearGradient id="linear-gradient-61" x1="-4156.06" y1="-134.62" x2="-4154.99" y2="-138.92" xlink:href="#linear-gradient-4"/><linearGradient id="linear-gradient-62" x1="-4141.5" y1="-140.23" x2="-4140.44" y2="-144.53" xlink:href="#linear-gradient-4"/><linearGradient id="linear-gradient-63" x1="-4155.06" y1="-132.4" x2="-4154" y2="-136.7" xlink:href="#linear-gradient-4"/><linearGradient id="New_Gradient_Swatch-4" x1="289.02" y1="192.83" x2="347.9" y2="192.83" xlink:href="#New_Gradient_Swatch"/><linearGradient id="New_Gradient_Swatch-5" x1="289.02" y1="181.99" x2="347.9" y2="181.99" xlink:href="#New_Gradient_Swatch"/><linearGradient id="New_Gradient_Swatch-6" x1="342.75" y1="175.12" x2="294.17" y2="175.12" xlink:href="#New_Gradient_Swatch"/><linearGradient id="linear-gradient-64" x1="-4158.76" y1="-128.94" x2="-4153.85" y2="-148.78" xlink:href="#linear-gradient-4"/><linearGradient id="linear-gradient-65" x1="-4150.69" y1="-141.77" x2="-4149.63" y2="-146.08" xlink:href="#linear-gradient-4"/><linearGradient id="linear-gradient-66" x1="-4164.25" y1="-133.94" x2="-4163.19" y2="-138.25" xlink:href="#linear-gradient-4"/><linearGradient id="linear-gradient-67" x1="-4149.7" y1="-139.55" x2="-4148.63" y2="-143.85" xlink:href="#linear-gradient-4"/><linearGradient id="linear-gradient-68" x1="-4163.26" y1="-131.72" x2="-4162.19" y2="-136.03" xlink:href="#linear-gradient-4"/><linearGradient id="New_Gradient_Swatch-7" x1="289.02" y1="188.15" x2="347.9" y2="188.15" xlink:href="#New_Gradient_Swatch"/><linearGradient id="New_Gradient_Swatch-8" x1="289.02" y1="177.31" x2="347.9" y2="177.31" xlink:href="#New_Gradient_Swatch"/><linearGradient id="New_Gradient_Swatch-9" x1="342.75" y1="170.43" x2="294.17" y2="170.43" xlink:href="#New_Gradient_Swatch"/><linearGradient id="linear-gradient-69" x1="-4166.96" y1="-128.27" x2="-4162.05" y2="-148.1" xlink:href="#linear-gradient-4"/><linearGradient id="linear-gradient-70" x1="-4158.89" y1="-141.09" x2="-4157.82" y2="-145.4" xlink:href="#linear-gradient-4"/><linearGradient id="linear-gradient-71" x1="-4172.45" y1="-133.26" x2="-4171.38" y2="-137.57" xlink:href="#linear-gradient-4"/><linearGradient id="linear-gradient-72" x1="-4157.89" y1="-138.87" x2="-4156.83" y2="-143.18" xlink:href="#linear-gradient-4"/><linearGradient id="linear-gradient-73" x1="-4171.45" y1="-131.05" x2="-4170.39" y2="-135.35" xlink:href="#linear-gradient-4"/><linearGradient id="New_Gradient_Swatch-10" x1="289.02" y1="183.46" x2="347.9" y2="183.46" xlink:href="#New_Gradient_Swatch"/><linearGradient id="New_Gradient_Swatch-11" x1="289.02" y1="172.62" x2="347.9" y2="172.62" xlink:href="#New_Gradient_Swatch"/><linearGradient id="New_Gradient_Swatch-12" x1="342.75" y1="165.75" x2="294.17" y2="165.75" xlink:href="#New_Gradient_Swatch"/><linearGradient id="linear-gradient-74" x1="-4175.15" y1="-127.59" x2="-4170.24" y2="-147.42" xlink:href="#linear-gradient-4"/><linearGradient id="linear-gradient-75" x1="-4167.09" y1="-140.42" x2="-4166.02" y2="-144.73" xlink:href="#linear-gradient-4"/><linearGradient id="linear-gradient-76" x1="-4180.65" y1="-132.59" x2="-4179.58" y2="-136.9" xlink:href="#linear-gradient-4"/><linearGradient id="linear-gradient-77" x1="-4166.09" y1="-138.2" x2="-4165.02" y2="-142.5" xlink:href="#linear-gradient-4"/><linearGradient id="linear-gradient-78" x1="-4179.65" y1="-130.37" x2="-4178.59" y2="-134.67" xlink:href="#linear-gradient-4"/><linearGradient id="New_Gradient_Swatch-13" x1="332.71" y1="220.6" x2="391.6" y2="220.6" xlink:href="#New_Gradient_Swatch"/><linearGradient id="New_Gradient_Swatch-14" x1="332.71" y1="209.76" x2="391.59" y2="209.76" xlink:href="#New_Gradient_Swatch"/><linearGradient id="New_Gradient_Swatch-15" x1="386.44" y1="202.89" x2="337.87" y2="202.89" xlink:href="#New_Gradient_Swatch"/><linearGradient id="linear-gradient-79" x1="-4103.86" y1="-158.44" x2="-4098.95" y2="-178.27" xlink:href="#linear-gradient-4"/><linearGradient id="linear-gradient-80" x1="-4095.79" y1="-171.27" x2="-4094.72" y2="-175.57" xlink:href="#linear-gradient-4"/><linearGradient id="linear-gradient-81" x1="-4109.35" y1="-163.44" x2="-4108.28" y2="-167.74" xlink:href="#linear-gradient-4"/><linearGradient id="linear-gradient-82" x1="-4094.79" y1="-169.05" x2="-4093.73" y2="-173.35" xlink:href="#linear-gradient-4"/><linearGradient id="linear-gradient-83" x1="-4108.35" y1="-161.22" x2="-4107.29" y2="-165.52" xlink:href="#linear-gradient-4"/><linearGradient id="New_Gradient_Swatch-16" x1="332.71" y1="215.92" x2="391.6" y2="215.92" xlink:href="#New_Gradient_Swatch"/><linearGradient id="New_Gradient_Swatch-17" x1="332.71" y1="205.07" x2="391.59" y2="205.07" xlink:href="#New_Gradient_Swatch"/><linearGradient id="New_Gradient_Swatch-18" x1="386.44" y1="198.2" x2="337.87" y2="198.2" xlink:href="#New_Gradient_Swatch"/><linearGradient id="linear-gradient-84" x1="-4112.05" y1="-157.76" x2="-4107.15" y2="-177.6" xlink:href="#linear-gradient-4"/><linearGradient id="linear-gradient-85" x1="-4103.99" y1="-170.59" x2="-4102.92" y2="-174.9" xlink:href="#linear-gradient-4"/><linearGradient id="linear-gradient-86" x1="-4117.55" y1="-162.76" x2="-4116.48" y2="-167.07" xlink:href="#linear-gradient-4"/><linearGradient id="linear-gradient-87" x1="-4102.99" y1="-168.37" x2="-4101.93" y2="-172.67" xlink:href="#linear-gradient-4"/><linearGradient id="linear-gradient-88" x1="-4116.55" y1="-160.54" x2="-4115.49" y2="-164.85" xlink:href="#linear-gradient-4"/></defs><title>imagen1_2.4</title><g id="Layer_2" data-name="Layer 2"><g id="ilus"><polygon class="cls-1" points="311.1 90.3 155.21 0.3 0.3 89.74 0.3 137.74 156.18 227.74 311.1 138.3 311.1 90.3"/><path class="cls-2" d="M156.18,228a.3.3,0,0,1-.15,0L.15,138a.3.3,0,0,1-.15-.26v-48a.3.3,0,0,1,.15-.26L155.06,0a.3.3,0,0,1,.3,0L311.25,90a.3.3,0,0,1,.15.26v48a.3.3,0,0,1-.15.26L156.33,228A.3.3,0,0,1,156.18,228ZM.6,137.56l155.58,89.83L310.8,138.13V90.47L155.21.65.6,89.91Z"/><line class="cls-3" x1="156.2" y1="179.52" x2="156.2" y2="227.52"/><path class="cls-2" d="M156.2,227.82a.3.3,0,0,1-.3-.3v-48a.3.3,0,0,1,.6,0v48A.3.3,0,0,1,156.2,227.82Z"/><path class="cls-2" d="M156.18,180a.3.3,0,0,1-.15,0L.15,90a.3.3,0,0,1,0-.52L155.06,0a.3.3,0,0,1,.3,0L311.25,90a.3.3,0,0,1,0,.52L156.33,180A.3.3,0,0,1,156.18,180ZM.9,89.74l155.28,89.65L310.5,90.3,155.21.65Z"/><polygon class="cls-2" points="120.76 76.25 134.72 84.32 136.86 83.08 122.9 75.02 120.76 76.25"/><path class="cls-2" d="M169.36,84.31q.6-3.12-3.4-5.42a16.27,16.27,0,0,0-9.41-2A21.65,21.65,0,0,0,147,79.67q-4.16,2.4-4.78,5.51t3.42,5.43a16.3,16.3,0,0,0,9.39,2,21.59,21.59,0,0,0,9.56-2.75Q168.77,87.43,169.36,84.31Zm-14.48,6.34a11.58,11.58,0,0,1-7.13-1.25q-2.92-1.69-2.17-4.12a7.73,7.73,0,0,1,3.84-4.22,18.18,18.18,0,0,1,7.3-2.22,11.58,11.58,0,0,1,7.13,1.25q2.92,1.68,2.17,4.12a7.73,7.73,0,0,1-3.84,4.22A18.17,18.17,0,0,1,154.89,90.65Z"/><path class="cls-2" d="M190.5,94.48q-.64-1.8-3.68-3.55a16,16,0,0,0-6.17-2,9.53,9.53,0,0,0-6,1.12q-2,1.15-1.92,2.53A4,4,0,0,0,174,95.23q1.29,1.27,2.67,2.51a5.68,5.68,0,0,1,1.76,2.45q.37,1.21-1.12,2.06a6.9,6.9,0,0,1-4.17.9,10.05,10.05,0,0,1-4.18-1.31q-2.77-1.6-3.4-3t1.84-2.88l-2.3-1.33q-3.28,1.9-2.7,4t4,4.07a17.55,17.55,0,0,0,6.88,2.32,10.88,10.88,0,0,0,6.79-1.48q1.95-1.12,1.94-2.54a4,4,0,0,0-1.26-2.73q-1.25-1.32-2.6-2.56a7.26,7.26,0,0,1-1.83-2.38q-.49-1.14.81-1.89a5.69,5.69,0,0,1,3.79-.66,11,11,0,0,1,3.91,1.36q4.26,2.46,1.71,4.6L188.85,98Q191.14,96.28,190.5,94.48Z"/><polygon class="cls-2" points="18.26 128.03 15.99 116.56 13.53 115.14 17.22 131.47 19.29 132.66 22.95 120.58 20.5 119.16 18.26 128.03"/><polygon class="cls-2" points="26.85 120.6 26.85 123.28 30.34 123.7 30.34 139.05 32.71 140.41 32.71 121.24 32.41 121.07 26.85 120.6"/><path class="cls-2" d="M41.29,142q-.65-.38-1-.08a1.31,1.31,0,0,0-.36,1.06,3.07,3.07,0,0,0,.37,1.46,2.61,2.61,0,0,0,1,1.07c.44.26.79.29,1,.1a1.25,1.25,0,0,0,.36-1,3.22,3.22,0,0,0-.36-1.47A2.59,2.59,0,0,0,41.29,142Z"/><path class="cls-2" d="M55.78,145.62A8.48,8.48,0,0,0,54,142.9a2,2,0,0,0,1.58-.8,3.26,3.26,0,0,0,.61-2.07,9.35,9.35,0,0,0-1.22-4.7A8.9,8.9,0,0,0,51.62,132a4.14,4.14,0,0,0-2.33-.67,2,2,0,0,0-1.62.95,4.15,4.15,0,0,0-.58,2.34L49.47,136a1.74,1.74,0,0,1,.61-1.58,1.49,1.49,0,0,1,1.58.17,4,4,0,0,1,1.63,1.69,5.35,5.35,0,0,1,.53,2.43c0,.94-.22,1.54-.64,1.8a1.73,1.73,0,0,1-1.74-.24L50,139.38v2.52l1.4.81a5.12,5.12,0,0,1,2,2,5.49,5.49,0,0,1,.66,2.7c0,1-.21,1.64-.63,1.92s-1,.21-1.74-.21A4.46,4.46,0,0,1,50,147.3a5,5,0,0,1-.63-2.41L47,143.52a9.06,9.06,0,0,0,1.31,4.67,9.25,9.25,0,0,0,3.36,3.41q2.14,1.24,3.46.47t1.31-3.34A8.21,8.21,0,0,0,55.78,145.62Z"/><path class="cls-2" d="M154.19,122h0c-1.34,0-2.69-.06-4-.13a.5.5,0,0,1-.47-.53.49.49,0,0,1,.53-.47c1.32.07,2.65.12,4,.13a.5.5,0,0,1,0,1Zm5-.07a.5.5,0,0,1,0-1c1.32-.05,2.66-.14,4-.25a.49.49,0,0,1,.54.46.5.5,0,0,1-.46.54c-1.33.11-2.68.19-4,.25Zm-14-.46h-.05c-1.33-.14-2.67-.32-4-.52a.5.5,0,0,1,.15-1c1.3.2,2.63.37,3.95.52a.5.5,0,0,1-.05,1Zm22.94-.34a.5.5,0,0,1-.07-1c1.31-.18,2.63-.4,3.92-.63a.5.5,0,1,1,.18,1c-1.31.24-2.64.46-4,.64Zm-31.83-1.09h-.11c-1.32-.28-2.64-.6-3.92-.94a.5.5,0,1,1,.26-1c1.26.34,2.56.65,3.87.93a.5.5,0,0,1-.1,1Zm40.66-.61a.5.5,0,0,1-.12-1c1.29-.32,2.58-.68,3.83-1.05a.5.5,0,1,1,.29,1c-1.27.38-2.57.74-3.88,1.07Zm-49.34-1.79-.16,0c-1.28-.44-2.55-.92-3.77-1.42a.5.5,0,0,1,.38-.92c1.2.49,2.45,1,3.72,1.4a.5.5,0,0,1-.16,1Zm57.92-.89a.5.5,0,0,1-.18-1c1.25-.48,2.48-1,3.66-1.53a.5.5,0,0,1,.41.91c-1.2.55-2.45,1.07-3.72,1.55A.51.51,0,0,1,185.57,116.79Zm-66.21-2.6a.5.5,0,0,1-.23-.06c-.82-.42-1.64-.86-2.42-1.32l-1.1-.65a.5.5,0,0,1,.52-.85l1.08.64c.77.44,1.57.88,2.38,1.29a.5.5,0,0,1-.23.94Zm74.36-1.2a.5.5,0,0,1-.24-.94l.44-.25c1-.59,2-1.2,2.92-1.82a.5.5,0,0,1,.56.83c-.94.64-1.95,1.26-3,1.86l-.46.26A.5.5,0,0,1,193.72,113Zm-82-3.58a.5.5,0,0,1-.31-.1,37.53,37.53,0,0,1-3.06-2.65.5.5,0,0,1,.7-.72,36.57,36.57,0,0,0,3,2.58.5.5,0,0,1-.31.9Zm89.34-1.55a.5.5,0,0,1-.33-.88,33.86,33.86,0,0,0,2.83-2.74.5.5,0,1,1,.74.67,34.87,34.87,0,0,1-2.91,2.82A.5.5,0,0,1,201.09,107.86ZM105.43,103a.5.5,0,0,1-.4-.2,25,25,0,0,1-2.15-3.46.5.5,0,0,1,.89-.45,24,24,0,0,0,2.06,3.32.5.5,0,0,1-.4.8ZM207,101.11a.5.5,0,0,1-.42-.77,22.5,22.5,0,0,0,1.79-3.47.5.5,0,0,1,.93.38,23.47,23.47,0,0,1-1.87,3.63A.5.5,0,0,1,207,101.11ZM101.6,95a.5.5,0,0,1-.49-.39,19.15,19.15,0,0,1-.5-4.07.5.5,0,0,1,.49-.51.49.49,0,0,1,.51.49,18.14,18.14,0,0,0,.48,3.85.5.5,0,0,1-.37.6Zm108.53-2.22h-.07a.5.5,0,0,1-.43-.56,17.91,17.91,0,0,0,.16-2.39q0-.75-.06-1.49a.5.5,0,1,1,1-.08q.07.79.07,1.58a18.93,18.93,0,0,1-.17,2.52A.5.5,0,0,1,210.13,92.75ZM101.71,86.06l-.13,0a.5.5,0,0,1-.36-.61,21.31,21.31,0,0,1,1.41-3.84.5.5,0,1,1,.9.43,20.24,20.24,0,0,0-1.34,3.66A.5.5,0,0,1,101.71,86.06Zm107.45-2.17a.5.5,0,0,1-.47-.33A21.51,21.51,0,0,0,207,80a.5.5,0,1,1,.86-.5,22.58,22.58,0,0,1,1.73,3.7.5.5,0,0,1-.47.67ZM105.69,78.06a.5.5,0,0,1-.4-.8A31,31,0,0,1,108,74.19a.5.5,0,0,1,.71.7,29.85,29.85,0,0,0-2.58,3A.5.5,0,0,1,105.69,78.06Zm98.86-1.83a.5.5,0,0,1-.38-.17,32.28,32.28,0,0,0-2.76-2.8.5.5,0,1,1,.67-.74,33.38,33.38,0,0,1,2.85,2.89.5.5,0,0,1-.38.83Zm-92.48-4.48a.5.5,0,0,1-.31-.9c1-.8,2.15-1.58,3.31-2.32a.5.5,0,0,1,.54.84c-1.14.73-2.23,1.49-3.24,2.27A.5.5,0,0,1,112.06,71.75Zm85.75-1.46a.5.5,0,0,1-.28-.09c-1-.73-2.17-1.44-3.34-2.11a.5.5,0,1,1,.5-.87c1.19.69,2.34,1.42,3.41,2.16a.5.5,0,0,1-.29.91Zm-4.66-2.85a.5.5,0,0,1-.24-.06c-1.14-.62-2.33-1.21-3.55-1.76a.5.5,0,0,1,.41-.91c1.24.56,2.46,1.17,3.61,1.79a.5.5,0,0,1-.24.94ZM119.68,67a.5.5,0,0,1-.23-.95c1.17-.6,2.39-1.17,3.65-1.72a.5.5,0,1,1,.4.92c-1.23.53-2.44,1.1-3.59,1.69A.5.5,0,0,1,119.68,67Zm65.26-3.2a.51.51,0,0,1-.17,0c-1.22-.44-2.49-.86-3.77-1.25a.5.5,0,0,1,.29-1c1.3.39,2.58.81,3.82,1.27a.5.5,0,0,1-.17,1Zm-57-.3a.5.5,0,0,1-.16-1c1.25-.43,2.54-.84,3.84-1.21a.5.5,0,0,1,.27,1c-1.28.37-2.56.77-3.79,1.19Zm48.35-2.23h-.11c-1.27-.29-2.58-.56-3.9-.8a.5.5,0,0,1,.18-1c1.33.24,2.66.51,3.94.81a.5.5,0,0,1-.11,1Zm-39.69-.19a.5.5,0,0,1-.11-1c1.29-.28,2.62-.54,3.95-.77a.5.5,0,0,1,.17,1c-1.31.22-2.63.48-3.9.76Zm30.83-1.37h-.06c-1.31-.16-2.64-.29-4-.4a.5.5,0,1,1,.08-1c1.34.11,2.68.24,4,.4a.5.5,0,0,1-.06,1Zm-22-.09a.5.5,0,0,1-.06-1c1.32-.15,2.67-.27,4-.37a.51.51,0,0,1,.53.46.5.5,0,0,1-.46.53c-1.32.09-2.65.21-4,.36Zm13-.56h0q-2-.05-4,0a.5.5,0,1,1,0-1q2,0,4,0a.5.5,0,0,1,0,1Z"/><path class="cls-4" d="M104.41,78.62s0,3.63,0,4.56c-.11,4.41,2.74,8.83,8.55,12.19,11.46,6.61,30.1,6.58,41.63-.08,5.77-3.33,8.67-7.69,8.7-12,0-1.46,0-4.62,0-4.62Z"/><path class="cls-5" d="M133.64,100.41c-7.53,0-15-1.65-20.75-4.94s-8.73-7.64-8.61-12.3c0-.92,0-4.52,0-4.55v-.13h59.13v.12s0,3.18,0,4.62c0,4.59-3.14,8.9-8.76,12.14C148.85,98.73,141.24,100.41,133.64,100.41ZM104.54,78.74c0,.65,0,3.61,0,4.43-.11,4.56,2.9,8.85,8.48,12.08,11.4,6.58,30,6.55,41.51-.08,5.54-3.2,8.61-7.44,8.63-11.93,0-1.28,0-3.9,0-4.5Z"/><path class="cls-6" d="M154.74,66.55c-11.46-6.61-30.1-6.58-41.63.08s-11.6,17.42-.15,24,30.1,6.58,41.63-.08S166.2,73.17,154.74,66.55Z"/><path class="cls-5" d="M133.64,95.73c-7.53,0-15-1.65-20.75-4.94-5.55-3.21-8.61-7.49-8.61-12s3.11-8.94,8.76-12.2c11.55-6.67,30.29-6.71,41.76-.08,5.55,3.21,8.61,7.49,8.61,12s-3.11,8.94-8.76,12.2C148.85,94,141.24,95.73,133.64,95.73Zm.41-34c-7.55,0-15.12,1.67-20.89,5-5.57,3.21-8.63,7.47-8.63,12s3,8.67,8.49,11.83c11.4,6.58,30,6.55,41.51-.08,5.57-3.21,8.63-7.47,8.63-12s-3-8.67-8.49-11.83C149,63.39,141.54,61.75,134.06,61.75Z"/><path class="cls-7" d="M151.09,68.66c-9.45-5.46-24.84-5.43-34.36.07s-9.57,14.38-.12,19.84S141.45,94,151,88.5,160.54,74.12,151.09,68.66Z"/><path class="cls-5" d="M133.68,92.76c-6.22,0-12.42-1.36-17.13-4.08s-7.12-6.19-7.12-10,2.57-7.4,7.24-10.09c9.54-5.51,25-5.54,34.48-.07,4.59,2.65,7.12,6.19,7.12,10s-2.57,7.4-7.24,10.09S140,92.76,133.68,92.76Zm.34-28c-6.23,0-12.47,1.37-17.23,4.12-4.59,2.65-7.11,6.15-7.11,9.87s2.48,7.14,7,9.75c9.4,5.43,24.76,5.4,34.23-.07,4.59-2.65,7.11-6.15,7.11-9.87s-2.48-7.14-7-9.75h0C146.35,66.07,140.19,64.72,134,64.72Z"/><path class="cls-8" d="M116.73,68.73c-4.86,2.81-7.25,6.5-7.17,10.17.12-3.51,2.51-7,7.16-9.7,9.52-5.5,24.9-5.53,34.36-.07,4.62,2.67,7,6.16,7,9.67.13-3.67-2.22-7.35-7-10.14C141.63,63.2,126.25,63.23,116.73,68.73Z"/><path class="cls-5" d="M109.69,78.9h-.25c-.09-3.88,2.48-7.53,7.23-10.28l.06.11-.06-.11c9.54-5.51,25-5.54,34.48-.07,4.72,2.72,7.24,6.36,7.11,10.25H158c-.08-3.61-2.56-7-7-9.57-9.41-5.43-24.76-5.4-34.23.07C112.33,71.88,109.81,75.29,109.69,78.9ZM134,64.72c-6.23,0-12.47,1.37-17.23,4.12A15.74,15.74,0,0,0,111,74.19a16.36,16.36,0,0,1,5.68-5.1c9.54-5.51,25-5.54,34.48-.07a15.94,15.94,0,0,1,5.64,5.11A15.33,15.33,0,0,0,151,68.77C146.35,66.07,140.19,64.72,134,64.72Z"/><polygon class="cls-9" points="146.24 77.58 153.17 76.04 138.4 67.51 133.6 70.29 141.43 74.81 114.77 80.76 119.59 83.55 129.83 89.46 134.66 86.67 126.55 81.99 146.24 77.58"/><path class="cls-5" d="M129.83,89.6l-15.4-8.89,26.66-6-7.74-4.47,5.05-2.92,15.11,8.72L126.89,82l8,4.63Zm-14.72-8.79,14.72,8.5,4.58-2.64-8.19-4.73.31-.07L152.83,76,138.4,67.66l-4.55,2.63,7.92,4.57Z"/><polygon class="cls-10" points="142.24 82.63 144.92 82.03 141.5 80.05 138.81 80.65 142.24 82.63"/><path class="cls-5" d="M142.22,82.76l-3.74-2.16,3-.68,3.74,2.16Zm-3.06-2.06,3.1,1.79,2.32-.52-3.1-1.79Z"/><polygon class="cls-11" points="133.17 75.25 129.75 73.27 127.07 73.87 130.49 75.85 133.17 75.25"/><path class="cls-5" d="M130.47,76l-3.74-2.16,3-.68,3.74,2.16Zm-3.06-2.06,3.1,1.79,2.32-.52-3.1-1.79Z"/><polygon class="cls-12" points="140.88 82.93 137.46 80.95 134.79 81.55 138.21 83.53 140.88 82.93"/><path class="cls-5" d="M138.19,83.66l-3.74-2.16,3-.68L141.22,83Zm-3.06-2.06,3.1,1.79,2.31-.52-3.1-1.79Z"/><polygon class="cls-13" points="125.72 74.17 123.05 74.77 126.47 76.75 129.14 76.15 125.72 74.17"/><path class="cls-5" d="M126.45,76.88l-3.74-2.16,3-.68,3.74,2.16Zm-3.06-2.06,3.1,1.79,2.31-.52-3.1-1.79Z"/><path class="cls-14" d="M104.41,73.93s0,3.63,0,4.56c-.11,4.41,2.74,8.83,8.55,12.19,11.46,6.61,30.1,6.58,41.63-.08,5.77-3.33,8.67-7.69,8.7-12,0-1.46,0-4.62,0-4.62Z"/><path class="cls-5" d="M133.64,95.73c-7.53,0-15-1.65-20.75-4.94s-8.73-7.64-8.61-12.3c0-.92,0-4.52,0-4.55v-.13h59.13v.12s0,3.18,0,4.62c0,4.59-3.14,8.9-8.76,12.14C148.85,94,141.24,95.73,133.64,95.73ZM104.54,74.06c0,.65,0,3.61,0,4.43-.11,4.56,2.9,8.85,8.48,12.07,11.4,6.58,30,6.55,41.51-.08,5.54-3.2,8.61-7.43,8.63-11.93,0-1.28,0-3.9,0-4.5Z"/><path class="cls-15" d="M154.74,61.87c-11.46-6.61-30.1-6.58-41.63.08S101.5,79.38,113,86s30.1,6.58,41.63-.08S166.2,68.49,154.74,61.87Z"/><path class="cls-5" d="M133.64,91c-7.53,0-15-1.65-20.75-4.94-5.55-3.21-8.61-7.49-8.61-12.05s3.11-8.94,8.76-12.2c11.55-6.67,30.29-6.71,41.76-.08,5.55,3.21,8.61,7.49,8.61,12.05s-3.11,8.94-8.76,12.2C148.85,89.37,141.24,91,133.64,91Zm.41-34c-7.55,0-15.12,1.67-20.89,5-5.57,3.21-8.63,7.47-8.63,12s3,8.67,8.49,11.83c11.4,6.58,30,6.55,41.51-.08,5.57-3.21,8.63-7.47,8.63-12s-3-8.67-8.49-11.83C149,58.7,141.54,57.07,134.06,57.07Z"/><path class="cls-7" d="M151.09,64c-9.45-5.46-24.84-5.43-34.36.07s-9.57,14.38-.12,19.84,24.84,5.43,34.36-.07S160.54,69.44,151.09,64Z"/><path class="cls-5" d="M133.68,88.07c-6.22,0-12.42-1.36-17.13-4.08s-7.12-6.19-7.12-10,2.57-7.4,7.24-10.09c9.54-5.51,25-5.54,34.48-.07,4.59,2.65,7.12,6.19,7.12,10s-2.57,7.4-7.24,10.09S140,88.07,133.68,88.07ZM134,60c-6.23,0-12.47,1.37-17.23,4.12-4.59,2.65-7.11,6.15-7.11,9.87s2.48,7.14,7,9.75c9.4,5.43,24.76,5.4,34.23-.07,4.59-2.65,7.11-6.16,7.11-9.87s-2.48-7.14-7-9.75C146.35,61.38,140.19,60,134,60Z"/><path class="cls-16" d="M116.73,64c-4.86,2.81-7.25,6.5-7.17,10.17.12-3.51,2.51-7,7.16-9.7,9.52-5.5,24.9-5.53,34.36-.07,4.62,2.67,7,6.16,7,9.67.13-3.67-2.22-7.35-7-10.14C141.63,58.52,126.25,58.55,116.73,64Z"/><path class="cls-5" d="M109.69,74.22h-.25c-.09-3.88,2.48-7.53,7.23-10.28l.06.11-.06-.11c9.54-5.51,25-5.54,34.48-.07,4.72,2.72,7.24,6.36,7.11,10.25H158c-.08-3.61-2.56-7-7-9.56-9.41-5.43-24.76-5.4-34.23.07C112.33,67.19,109.81,70.6,109.69,74.22ZM134,60c-6.23,0-12.47,1.37-17.23,4.12A15.75,15.75,0,0,0,111,69.5a16.36,16.36,0,0,1,5.68-5.09c9.54-5.51,25-5.54,34.48-.07a15.94,15.94,0,0,1,5.64,5.11A15.33,15.33,0,0,0,151,64.09C146.35,61.38,140.19,60,134,60Z"/><polygon class="cls-17" points="146.24 72.9 153.17 71.36 138.4 62.83 133.6 65.6 141.43 70.12 114.77 76.08 119.59 78.86 129.83 84.77 134.66 81.99 126.55 77.31 146.24 72.9"/><path class="cls-5" d="M129.83,84.92,114.43,76l26.66-6-7.74-4.47,5.05-2.92,15.11,8.72-26.62,5.95,8,4.63Zm-14.72-8.79,14.72,8.5L134.41,82l-8.19-4.73.31-.07,26.31-5.88L138.4,63l-4.55,2.63,7.92,4.57Z"/><polygon class="cls-18" points="142.24 77.94 144.92 77.34 141.5 75.37 138.81 75.97 142.24 77.94"/><path class="cls-5" d="M142.22,78.08l-3.74-2.16,3-.68,3.74,2.16ZM139.16,76l3.1,1.79,2.32-.52-3.1-1.79Z"/><polygon class="cls-19" points="133.17 70.56 129.75 68.59 127.07 69.19 130.49 71.16 133.17 70.56"/><path class="cls-5" d="M130.47,71.3l-3.74-2.16,3-.68,3.74,2.16Zm-3.06-2.06,3.1,1.79,2.32-.52-3.1-1.79Z"/><polygon class="cls-20" points="140.88 78.25 137.46 76.27 134.79 76.87 138.21 78.84 140.88 78.25"/><path class="cls-5" d="M138.19,79l-3.74-2.16,3-.68,3.74,2.16Zm-3.06-2.06,3.1,1.79,2.31-.52-3.1-1.79Z"/><polygon class="cls-21" points="125.72 69.49 123.05 70.09 126.47 72.06 129.14 71.47 125.72 69.49"/><path class="cls-5" d="M126.45,72.2,122.71,70l3-.68,3.74,2.16Zm-3.06-2.06,3.1,1.79,2.31-.52-3.1-1.79Z"/><path class="cls-22" d="M104.41,69.25s0,3.63,0,4.56c-.11,4.41,2.74,8.83,8.55,12.19,11.46,6.61,30.1,6.58,41.63-.08,5.77-3.33,8.67-7.69,8.7-12,0-1.46,0-4.62,0-4.62Z"/><path class="cls-5" d="M133.64,91c-7.53,0-15-1.65-20.75-4.94s-8.73-7.64-8.61-12.3c0-.92,0-4.52,0-4.55v-.13h59.13v.12s0,3.18,0,4.62c0,4.59-3.14,8.9-8.76,12.14C148.85,89.37,141.24,91,133.64,91ZM104.54,69.37c0,.65,0,3.61,0,4.43-.11,4.56,2.9,8.85,8.48,12.07,11.4,6.58,30,6.55,41.51-.08,5.54-3.2,8.61-7.44,8.63-11.93,0-1.28,0-3.9,0-4.5Z"/><path class="cls-23" d="M154.74,57.19c-11.46-6.61-30.1-6.58-41.63.08s-11.6,17.42-.15,24,30.1,6.58,41.63-.08S166.2,63.8,154.74,57.19Z"/><path class="cls-5" d="M133.64,86.36c-7.53,0-15-1.65-20.75-4.94-5.55-3.21-8.61-7.49-8.61-12.05s3.11-8.94,8.76-12.2c11.55-6.67,30.29-6.71,41.76-.08,5.55,3.21,8.61,7.49,8.61,12s-3.11,8.94-8.76,12.2C148.85,84.68,141.24,86.36,133.64,86.36Zm.41-34c-7.55,0-15.12,1.67-20.89,5-5.57,3.21-8.63,7.47-8.63,12s3,8.67,8.49,11.83c11.4,6.58,30,6.55,41.51-.08,5.57-3.21,8.63-7.47,8.63-12s-3-8.67-8.49-11.83C149,54,141.54,52.38,134.06,52.38Z"/><path class="cls-7" d="M151.09,59.29c-9.45-5.46-24.84-5.43-34.36.07s-9.57,14.38-.12,19.84,24.84,5.43,34.36-.07S160.54,64.75,151.09,59.29Z"/><path class="cls-5" d="M133.68,83.39c-6.22,0-12.42-1.36-17.13-4.08s-7.12-6.19-7.12-10S112,62,116.67,59.26c9.54-5.51,25-5.54,34.48-.07,4.59,2.65,7.12,6.19,7.12,10s-2.57,7.4-7.24,10.09S140,83.39,133.68,83.39Zm.34-28c-6.23,0-12.47,1.37-17.23,4.12-4.59,2.65-7.11,6.16-7.11,9.87s2.48,7.14,7,9.75c9.4,5.43,24.76,5.4,34.23-.07,4.59-2.65,7.11-6.15,7.11-9.87s-2.48-7.14-7-9.75h0C146.35,56.7,140.19,55.35,134,55.35Z"/><path class="cls-24" d="M116.73,59.36c-4.86,2.81-7.25,6.5-7.17,10.17.12-3.51,2.51-7,7.16-9.7,9.52-5.5,24.9-5.53,34.36-.07,4.62,2.67,7,6.16,7,9.67.13-3.67-2.22-7.35-7-10.14C141.63,53.84,126.25,53.87,116.73,59.36Z"/><path class="cls-5" d="M109.69,69.53h-.25c-.09-3.89,2.48-7.54,7.23-10.28,9.54-5.51,25-5.54,34.48-.07,4.72,2.72,7.24,6.36,7.11,10.25H158c-.08-3.61-2.56-7-7-9.57-9.41-5.43-24.76-5.4-34.23.07C112.33,62.51,109.81,65.92,109.69,69.53Zm7-10.17.06.11A15.74,15.74,0,0,0,111,64.82a16.36,16.36,0,0,1,5.68-5.1c9.54-5.51,25-5.54,34.48-.07a15.94,15.94,0,0,1,5.64,5.11A15.32,15.32,0,0,0,151,59.4c-9.41-5.43-24.76-5.4-34.23.07Z"/><polygon class="cls-25" points="146.24 68.22 153.17 66.67 138.4 58.15 133.6 60.92 141.43 65.44 114.77 71.39 119.59 74.18 129.83 80.09 134.66 77.3 126.55 72.62 146.24 68.22"/><path class="cls-5" d="M129.83,80.23l-15.4-8.89,26.66-6-7.74-4.47L138.4,58l15.11,8.72-26.62,5.95,8,4.63Zm-14.72-8.79,14.72,8.5,4.58-2.64-8.19-4.73.31-.07,26.31-5.88L138.4,58.29l-4.55,2.63,7.92,4.57Z"/><polygon class="cls-26" points="142.24 73.26 144.92 72.66 141.5 70.69 138.81 71.28 142.24 73.26"/><path class="cls-5" d="M142.22,73.39l-3.74-2.16,3-.68,3.74,2.16Zm-3.06-2.06,3.1,1.79,2.32-.52-3.1-1.79Z"/><polygon class="cls-27" points="133.17 65.88 129.75 63.9 127.07 64.5 130.49 66.48 133.17 65.88"/><path class="cls-5" d="M130.47,66.61l-3.74-2.16,3-.68,3.74,2.16Zm-3.06-2.06,3.1,1.79,2.32-.52L129.73,64Z"/><polygon class="cls-28" points="140.88 73.56 137.46 71.59 134.79 72.18 138.21 74.16 140.88 73.56"/><path class="cls-5" d="M138.19,74.29l-3.74-2.16,3-.68,3.74,2.16Zm-3.06-2.06,3.1,1.79,2.31-.52-3.1-1.79Z"/><polygon class="cls-29" points="125.72 64.81 123.05 65.4 126.47 67.38 129.14 66.78 125.72 64.81"/><path class="cls-5" d="M126.45,67.51l-3.74-2.16,3-.68,3.74,2.16Zm-3.06-2.06,3.1,1.79,2.31-.52-3.1-1.79Z"/><path class="cls-30" d="M104.41,64.57s0,3.63,0,4.56c-.11,4.41,2.74,8.83,8.55,12.19,11.46,6.61,30.1,6.58,41.63-.08,5.77-3.33,8.67-7.69,8.7-12,0-1.46,0-4.62,0-4.62Z"/><path class="cls-5" d="M133.64,86.36c-7.53,0-15-1.65-20.75-4.94s-8.73-7.64-8.61-12.3c0-.92,0-4.52,0-4.55v-.13h59.13v.12s0,3.18,0,4.62c0,4.59-3.14,8.9-8.76,12.14C148.85,84.68,141.24,86.36,133.64,86.36ZM104.54,64.69c0,.65,0,3.61,0,4.43-.11,4.56,2.9,8.85,8.48,12.08,11.4,6.58,30,6.55,41.51-.08,5.54-3.2,8.61-7.44,8.63-11.93,0-1.28,0-3.9,0-4.5Z"/><path class="cls-31" d="M154.74,52.5c-11.46-6.61-30.1-6.58-41.63.08S101.5,70,113,76.62s30.1,6.58,41.63-.08S166.2,59.12,154.74,52.5Z"/><path class="cls-5" d="M133.64,81.68c-7.53,0-15-1.65-20.75-4.94-5.55-3.21-8.61-7.49-8.61-12s3.11-8.94,8.76-12.2c11.55-6.67,30.29-6.71,41.76-.08,5.55,3.21,8.61,7.49,8.61,12s-3.11,8.94-8.76,12.2C148.85,80,141.24,81.68,133.64,81.68Zm.41-34c-7.55,0-15.12,1.67-20.89,5-5.57,3.21-8.63,7.47-8.63,12s3,8.67,8.49,11.83c11.4,6.58,30,6.55,41.51-.08,5.57-3.21,8.63-7.47,8.63-12s-3-8.67-8.49-11.83C149,49.33,141.54,47.7,134.06,47.7Z"/><path class="cls-7" d="M151.09,54.61c-9.45-5.46-24.84-5.43-34.36.07s-9.57,14.38-.12,19.84,24.84,5.43,34.36-.07S160.54,60.07,151.09,54.61Z"/><path class="cls-5" d="M133.68,78.71c-6.22,0-12.42-1.36-17.13-4.08s-7.12-6.19-7.12-10,2.57-7.4,7.24-10.09c9.54-5.51,25-5.54,34.48-.07,4.59,2.65,7.12,6.19,7.12,10s-2.57,7.4-7.24,10.09S140,78.71,133.68,78.71Zm.34-28c-6.23,0-12.47,1.37-17.23,4.12-4.59,2.65-7.11,6.15-7.11,9.87s2.48,7.14,7,9.75c9.4,5.43,24.76,5.4,34.23-.07,4.59-2.65,7.11-6.15,7.11-9.87s-2.48-7.14-7-9.75h0C146.35,52,140.19,50.67,134,50.67Z"/><path class="cls-32" d="M116.73,54.68c-4.86,2.81-7.25,6.5-7.17,10.17.12-3.51,2.51-7,7.16-9.7,9.52-5.5,24.9-5.53,34.36-.07,4.62,2.67,7,6.16,7,9.67.13-3.67-2.22-7.35-7-10.14C141.63,49.15,126.25,49.18,116.73,54.68Z"/><path class="cls-5" d="M109.69,64.85h-.25c-.09-3.88,2.48-7.53,7.23-10.28l.06.11-.06-.11c9.54-5.51,25-5.54,34.48-.07,4.72,2.72,7.24,6.36,7.11,10.25H158c-.08-3.61-2.56-7-7-9.57-9.41-5.43-24.76-5.4-34.23.07C112.33,57.83,109.81,61.23,109.69,64.85ZM134,50.67c-6.23,0-12.47,1.37-17.23,4.12h0A15.74,15.74,0,0,0,111,60.13a16.36,16.36,0,0,1,5.68-5.1c9.54-5.51,25-5.54,34.48-.07a15.94,15.94,0,0,1,5.64,5.11A15.33,15.33,0,0,0,151,54.72C146.35,52,140.19,50.67,134,50.67Z"/><polygon class="cls-33" points="146.24 63.53 153.17 61.99 138.4 53.46 133.6 56.23 141.43 60.76 114.77 66.71 119.59 69.5 129.83 75.41 134.66 72.62 126.55 67.94 146.24 63.53"/><path class="cls-5" d="M129.83,75.55l-15.4-8.89,26.66-6-7.74-4.47,5.05-2.92L153.51,62,126.89,68l8,4.63Zm-14.72-8.79,14.72,8.5,4.58-2.64-8.19-4.73.31-.07,26.31-5.88L138.4,53.61l-4.55,2.63,7.92,4.57Z"/><polygon class="cls-34" points="142.24 68.58 144.92 67.98 141.5 66 138.81 66.6 142.24 68.58"/><path class="cls-5" d="M142.22,68.71l-3.74-2.16,3-.68L145.26,68Zm-3.06-2.06,3.1,1.79,2.32-.52-3.1-1.79Z"/><polygon class="cls-35" points="133.17 61.2 129.75 59.22 127.07 59.82 130.49 61.8 133.17 61.2"/><path class="cls-5" d="M130.47,61.93l-3.74-2.16,3-.68,3.74,2.16Zm-3.06-2.06,3.1,1.79,2.32-.52-3.1-1.79Z"/><polygon class="cls-36" points="140.88 68.88 137.46 66.9 134.79 67.5 138.21 69.48 140.88 68.88"/><path class="cls-5" d="M138.19,69.61l-3.74-2.16,3-.68,3.74,2.16Zm-3.06-2.06,3.1,1.79,2.31-.52L137.44,67Z"/><polygon class="cls-37" points="125.72 60.12 123.05 60.72 126.47 62.7 129.14 62.1 125.72 60.12"/><path class="cls-5" d="M126.45,62.83l-3.74-2.16,3-.68,3.74,2.16Zm-3.06-2.06,3.1,1.79L128.8,62l-3.1-1.79Z"/><path class="cls-38" d="M148.1,101.7s0,3.63,0,4.56c-.11,4.41,2.74,8.83,8.55,12.19,11.46,6.61,30.1,6.58,41.63-.08,5.77-3.33,8.67-7.69,8.7-12,0-1.46,0-4.62,0-4.62Z"/><path class="cls-5" d="M177.34,123.5c-7.53,0-15-1.65-20.75-4.94s-8.72-7.64-8.61-12.3c0-.92,0-4.52,0-4.55v-.13h59.13v.12s0,3.18,0,4.62c0,4.59-3.14,8.9-8.76,12.14C192.55,121.82,184.93,123.5,177.34,123.5Zm-29.11-21.67c0,.65,0,3.61,0,4.44-.11,4.56,2.9,8.85,8.48,12.07,11.4,6.58,30,6.55,41.51-.08,5.54-3.2,8.61-7.43,8.63-11.93,0-1.28,0-3.9,0-4.5Z"/><path class="cls-39" d="M198.43,89.64c-11.46-6.61-30.1-6.58-41.63.08s-11.6,17.42-.15,24,30.1,6.58,41.63-.08S209.89,96.25,198.43,89.64Z"/><path class="cls-5" d="M177.34,118.81c-7.53,0-15-1.65-20.75-4.94-5.55-3.21-8.61-7.49-8.61-12.05s3.11-8.94,8.76-12.2c11.55-6.67,30.29-6.71,41.76-.08,5.55,3.21,8.61,7.49,8.61,12.05s-3.11,8.94-8.76,12.2C192.55,117.14,184.93,118.81,177.34,118.81Zm.41-34c-7.55,0-15.12,1.67-20.89,5-5.57,3.21-8.63,7.47-8.63,12s3,8.67,8.49,11.83c11.4,6.58,30,6.55,41.51-.08,5.57-3.21,8.63-7.47,8.63-12s-3-8.67-8.49-11.83C192.69,86.47,185.23,84.83,177.75,84.83Z"/><path class="cls-7" d="M194.78,91.75c-9.45-5.46-24.84-5.43-34.36.07s-9.57,14.38-.12,19.84,24.84,5.43,34.36-.07S204.24,97.21,194.78,91.75Z"/><path class="cls-5" d="M177.37,115.84c-6.22,0-12.42-1.36-17.13-4.08s-7.12-6.19-7.12-10,2.57-7.4,7.24-10.09c9.54-5.51,25-5.54,34.48-.07,4.59,2.65,7.12,6.19,7.12,10s-2.57,7.4-7.24,10.09S183.65,115.84,177.37,115.84Zm.34-28c-6.23,0-12.47,1.37-17.23,4.12-4.59,2.65-7.11,6.16-7.11,9.87s2.48,7.14,7,9.75c9.41,5.43,24.76,5.4,34.23-.07,4.59-2.65,7.11-6.15,7.11-9.87s-2.48-7.14-7-9.75h0C190,89.15,183.88,87.8,177.71,87.8Z"/><path class="cls-40" d="M160.42,91.82c-4.86,2.81-7.25,6.5-7.17,10.17.12-3.51,2.51-7,7.16-9.7,9.52-5.5,24.9-5.53,34.36-.07,4.62,2.67,7,6.16,7,9.67.13-3.67-2.22-7.35-7-10.14C185.33,86.29,169.94,86.32,160.42,91.82Z"/><path class="cls-5" d="M153.38,102h-.25c-.09-3.88,2.48-7.53,7.23-10.28h0c9.54-5.51,25-5.54,34.48-.07,4.72,2.72,7.24,6.36,7.11,10.25h-.25c-.08-3.61-2.56-7-7-9.57-9.41-5.43-24.76-5.4-34.23.07C156,95,153.51,98.37,153.38,102Zm7-10.17.06.11a15.74,15.74,0,0,0-5.81,5.35,16.36,16.36,0,0,1,5.68-5.1c9.54-5.51,25-5.54,34.48-.07a15.94,15.94,0,0,1,5.65,5.11,15.33,15.33,0,0,0-5.77-5.36c-9.41-5.43-24.76-5.4-34.23.07Z"/><polygon class="cls-41" points="189.93 100.67 196.87 99.13 182.09 90.6 177.29 93.37 185.12 97.89 158.47 103.85 163.29 106.63 173.52 112.54 178.35 109.75 170.25 105.08 189.93 100.67"/><path class="cls-5" d="M173.52,112.69l-15.4-8.89,26.66-6L177,93.37l5.05-2.92,15.11,8.72-26.62,5.95,8,4.63Zm-14.72-8.79,14.72,8.5,4.58-2.64L169.91,105l.31-.07,26.31-5.88-14.43-8.33-4.55,2.63,7.92,4.57Z"/><polygon class="cls-42" points="185.93 105.71 188.61 105.11 185.19 103.14 182.51 103.74 185.93 105.71"/><path class="cls-5" d="M185.91,105.85l-3.74-2.16,3-.68,3.74,2.16Zm-3.06-2.06,3.1,1.79,2.32-.52-3.1-1.79Z"/><polygon class="cls-43" points="176.87 98.33 173.45 96.36 170.76 96.96 174.19 98.93 176.87 98.33"/><path class="cls-5" d="M174.17,99.06l-3.74-2.16,3-.68,3.74,2.16ZM171.11,97l3.1,1.79,2.32-.52-3.1-1.79Z"/><polygon class="cls-44" points="184.58 106.02 181.16 104.04 178.49 104.64 181.91 106.61 184.58 106.02"/><path class="cls-5" d="M181.89,106.75l-3.74-2.16,3-.68,3.74,2.16Zm-3.06-2.06,3.1,1.79,2.31-.52-3.1-1.79Z"/><polygon class="cls-45" points="169.41 97.26 166.74 97.86 170.16 99.83 172.83 99.23 169.41 97.26"/><path class="cls-5" d="M170.14,100,166.4,97.8l3-.68,3.74,2.16Zm-3.06-2.06,3.1,1.79,2.31-.52-3.1-1.79Z"/><path class="cls-46" d="M148.1,97s0,3.63,0,4.56c-.11,4.41,2.74,8.83,8.55,12.19,11.46,6.61,30.1,6.58,41.63-.08,5.77-3.33,8.67-7.69,8.7-12,0-1.46,0-4.62,0-4.62Z"/><path class="cls-5" d="M177.34,118.81c-7.53,0-15-1.65-20.75-4.94s-8.72-7.64-8.61-12.3c0-.92,0-4.52,0-4.55v-.13h59.13V97s0,3.18,0,4.62c0,4.59-3.14,8.9-8.76,12.14C192.55,117.14,184.93,118.81,177.34,118.81ZM148.23,97.14c0,.65,0,3.61,0,4.43-.11,4.56,2.9,8.85,8.48,12.08,11.4,6.58,30,6.55,41.51-.08,5.54-3.2,8.61-7.43,8.63-11.93,0-1.28,0-3.9,0-4.5Z"/><path class="cls-47" d="M198.43,85c-11.46-6.61-30.1-6.58-41.63.08s-11.6,17.42-.15,24,30.1,6.58,41.63-.08S209.89,91.57,198.43,85Z"/><path class="cls-5" d="M177.34,114.13c-7.53,0-15-1.65-20.75-4.94C151,106,148,101.7,148,97.14s3.11-8.94,8.76-12.2c11.55-6.67,30.29-6.71,41.76-.08,5.55,3.21,8.61,7.49,8.61,12s-3.11,8.94-8.76,12.2C192.55,112.45,184.93,114.13,177.34,114.13Zm.41-34c-7.55,0-15.12,1.67-20.89,5-5.57,3.21-8.63,7.47-8.63,12s3,8.67,8.49,11.83c11.4,6.58,30,6.55,41.51-.08,5.57-3.21,8.63-7.47,8.63-12s-3-8.67-8.49-11.83C192.69,81.79,185.23,80.15,177.75,80.15Z"/><path class="cls-7" d="M194.78,87.06c-9.45-5.46-24.84-5.43-34.36.07s-9.57,14.38-.12,19.84,24.84,5.43,34.36-.07S204.24,92.52,194.78,87.06Z"/><path class="cls-5" d="M177.37,111.16c-6.22,0-12.42-1.36-17.13-4.08s-7.12-6.19-7.12-10,2.57-7.4,7.24-10.09c9.54-5.51,25-5.54,34.48-.07,4.59,2.65,7.12,6.19,7.12,10s-2.57,7.4-7.24,10.09S183.65,111.16,177.37,111.16Zm.34-28c-6.23,0-12.47,1.37-17.23,4.12-4.59,2.65-7.11,6.15-7.11,9.87s2.48,7.14,7,9.75c9.41,5.43,24.76,5.4,34.23-.07,4.59-2.65,7.11-6.15,7.11-9.87s-2.48-7.14-7-9.75h0C190,84.47,183.88,83.12,177.71,83.12Z"/><path class="cls-48" d="M160.42,87.13c-4.86,2.81-7.25,6.5-7.17,10.17.12-3.51,2.51-7,7.16-9.7,9.52-5.5,24.9-5.53,34.36-.07,4.62,2.67,7,6.16,7,9.67.13-3.67-2.22-7.35-7-10.14C185.33,81.61,169.94,81.64,160.42,87.13Z"/><path class="cls-5" d="M153.38,97.3h-.25c-.09-3.88,2.48-7.53,7.23-10.28l.06.11-.06-.11c9.54-5.51,25-5.54,34.48-.07,4.72,2.72,7.24,6.36,7.11,10.25h-.25c-.08-3.61-2.56-7-7-9.57-9.41-5.43-24.76-5.4-34.23.07C156,90.28,153.51,93.69,153.38,97.3Zm24.33-14.18c-6.23,0-12.47,1.37-17.23,4.12h0a15.74,15.74,0,0,0-5.81,5.35,16.36,16.36,0,0,1,5.68-5.1c9.54-5.51,25-5.54,34.48-.07a15.94,15.94,0,0,1,5.64,5.11,15.33,15.33,0,0,0-5.77-5.36C190,84.47,183.88,83.12,177.71,83.12Z"/><polygon class="cls-49" points="189.93 95.99 196.87 94.44 182.09 85.92 177.29 88.69 185.12 93.21 158.47 99.17 163.29 101.95 173.52 107.86 178.35 105.07 170.25 100.39 189.93 95.99"/><path class="cls-5" d="M173.52,108l-15.4-8.89,26.66-6L177,88.69l5.05-2.92,15.11,8.72-26.62,5.95,8,4.63Zm-14.72-8.79,14.72,8.5,4.58-2.64-8.19-4.73.31-.07,26.31-5.88-14.43-8.33-4.55,2.63,7.92,4.57Z"/><polygon class="cls-50" points="185.93 101.03 188.61 100.43 185.19 98.45 182.51 99.05 185.93 101.03"/><path class="cls-5" d="M185.91,101.16,182.17,99l3-.68,3.74,2.16Zm-3.06-2.06,3.1,1.79,2.32-.52-3.1-1.79Z"/><polygon class="cls-51" points="176.87 93.65 173.45 91.67 170.76 92.27 174.19 94.25 176.87 93.65"/><path class="cls-5" d="M174.17,94.38l-3.74-2.16,3-.68,3.74,2.16Zm-3.06-2.06,3.1,1.79,2.32-.52-3.1-1.79Z"/><polygon class="cls-52" points="184.58 101.33 181.16 99.36 178.49 99.95 181.91 101.93 184.58 101.33"/><path class="cls-5" d="M181.89,102.06l-3.74-2.16,3-.68,3.74,2.16ZM178.83,100l3.1,1.79,2.31-.52-3.1-1.79Z"/><polygon class="cls-53" points="169.41 92.58 166.74 93.17 170.16 95.15 172.83 94.55 169.41 92.58"/><path class="cls-5" d="M170.14,95.28l-3.74-2.16,3-.68,3.74,2.16Zm-3.06-2.06,3.1,1.79,2.31-.52-3.1-1.79Z"/><path class="cls-54" d="M148.1,92.33s0,3.63,0,4.56c-.11,4.41,2.74,8.83,8.55,12.19,11.46,6.61,30.1,6.58,41.63-.08,5.77-3.33,8.67-7.69,8.7-12,0-1.46,0-4.62,0-4.62Z"/><path class="cls-5" d="M177.34,114.13c-7.53,0-15-1.65-20.75-4.94s-8.72-7.64-8.61-12.3c0-.92,0-4.52,0-4.55v-.13h59.13v.12s0,3.18,0,4.62c0,4.59-3.14,8.9-8.76,12.14C192.55,112.45,184.93,114.13,177.34,114.13ZM148.23,92.46c0,.65,0,3.61,0,4.43-.11,4.56,2.9,8.85,8.48,12.07,11.4,6.58,30,6.55,41.51-.08,5.54-3.2,8.61-7.43,8.63-11.93,0-1.28,0-3.9,0-4.5Z"/><path class="cls-55" d="M198.43,80.27c-11.46-6.61-30.1-6.58-41.63.08s-11.6,17.42-.15,24,30.1,6.58,41.63-.08S209.89,86.89,198.43,80.27Z"/><path class="cls-5" d="M177.34,109.45c-7.53,0-15-1.65-20.75-4.94C151,101.3,148,97,148,92.45s3.11-8.94,8.76-12.2c11.55-6.67,30.29-6.71,41.76-.08,5.55,3.21,8.61,7.49,8.61,12.05s-3.11,8.94-8.76,12.2C192.55,107.77,184.93,109.45,177.34,109.45Zm.41-34c-7.55,0-15.12,1.67-20.89,5-5.57,3.21-8.63,7.47-8.63,12s3,8.67,8.49,11.83c11.4,6.58,30,6.55,41.51-.08,5.57-3.21,8.63-7.47,8.63-12s-3-8.67-8.49-11.83C192.69,77.1,185.23,75.47,177.75,75.47Z"/><path class="cls-7" d="M194.78,82.38c-9.45-5.46-24.84-5.43-34.36.07s-9.57,14.38-.12,19.84,24.84,5.43,34.36-.07S204.24,87.84,194.78,82.38Z"/><path class="cls-5" d="M177.37,106.48c-6.22,0-12.42-1.36-17.13-4.08s-7.12-6.19-7.12-10,2.57-7.4,7.24-10.09c9.54-5.51,25-5.54,34.48-.07,4.59,2.65,7.12,6.19,7.12,10s-2.57,7.4-7.24,10.09S183.65,106.48,177.37,106.48Zm.34-28c-6.23,0-12.47,1.37-17.23,4.12-4.59,2.65-7.11,6.15-7.11,9.87s2.48,7.14,7,9.75c9.41,5.43,24.76,5.4,34.23-.07,4.59-2.65,7.11-6.16,7.11-9.87s-2.48-7.14-7-9.75C190,79.79,183.88,78.44,177.71,78.44Z"/><path class="cls-56" d="M160.42,82.45c-4.86,2.81-7.25,6.5-7.17,10.17.12-3.51,2.51-7,7.16-9.7,9.52-5.5,24.9-5.53,34.36-.07,4.62,2.67,7,6.16,7,9.67.13-3.67-2.22-7.35-7-10.14C185.33,76.92,169.94,77,160.42,82.45Z"/><path class="cls-5" d="M153.38,92.62h-.25c-.09-3.88,2.48-7.53,7.23-10.28l.06.11-.06-.11c9.54-5.51,25-5.54,34.48-.07,4.72,2.72,7.24,6.36,7.11,10.25h-.25c-.08-3.62-2.56-7-7-9.56-9.41-5.43-24.76-5.4-34.23.07C156,85.6,153.51,89,153.38,92.62Zm24.33-14.18c-6.23,0-12.47,1.37-17.23,4.12h0a15.75,15.75,0,0,0-5.81,5.34,16.36,16.36,0,0,1,5.68-5.09c9.54-5.51,25-5.54,34.48-.07a15.94,15.94,0,0,1,5.64,5.11,15.33,15.33,0,0,0-5.76-5.36C190,79.79,183.88,78.44,177.71,78.44Z"/><polygon class="cls-57" points="189.93 91.3 196.87 89.76 182.09 81.23 177.29 84 185.12 88.53 158.47 94.48 163.29 97.27 173.52 103.17 178.35 100.39 170.25 95.71 189.93 91.3"/><path class="cls-5" d="M173.52,103.32l-15.4-8.89,26.66-6L177,84l5.05-2.92,15.11,8.72-26.62,5.95,8,4.63Zm-14.72-8.79,14.72,8.5,4.58-2.64-8.19-4.73.31-.07,26.31-5.88-14.43-8.33L177.54,84l7.92,4.57Z"/><polygon class="cls-58" points="185.93 96.34 188.61 95.75 185.19 93.77 182.51 94.37 185.93 96.34"/><path class="cls-5" d="M185.91,96.48l-3.74-2.16,3-.68L189,95.8Zm-3.06-2.06,3.1,1.79,2.32-.52-3.1-1.79Z"/><polygon class="cls-59" points="176.87 88.96 173.45 86.99 170.76 87.59 174.19 89.56 176.87 88.96"/><path class="cls-5" d="M174.17,89.7l-3.74-2.16,3-.68L177.21,89Zm-3.06-2.06,3.1,1.79,2.32-.52-3.1-1.79Z"/><polygon class="cls-60" points="184.58 96.65 181.16 94.67 178.49 95.27 181.91 97.25 184.58 96.65"/><path class="cls-5" d="M181.89,97.38l-3.74-2.16,3-.68,3.74,2.16Zm-3.06-2.06,3.1,1.79,2.31-.52-3.1-1.79Z"/><polygon class="cls-61" points="169.41 87.89 166.74 88.49 170.16 90.47 172.83 89.87 169.41 87.89"/><path class="cls-5" d="M170.14,90.6l-3.74-2.16,3-.68,3.74,2.16Zm-3.06-2.06,3.1,1.79,2.31-.52L169.39,88Z"/><path class="cls-62" d="M489.89,77.62c-.34-10,6-20,19.16-27.57,25.72-14.85,67.57-14.77,93.47.19,13.11,7.57,19.61,17.5,19.51,27.38,0,0-.16,14.88,0,23,.2,9.87-6.19,19.75-19.18,27.25-25.72,14.85-67.57,14.77-93.47-.19-13-7.49-19.48-17.28-19.52-27.06C489.83,92.5,489.89,77.62,489.89,77.62Z"/><path class="cls-63" d="M556.42,139.23c-17.06,0-34.15-3.77-47.18-11.29-12.64-7.3-19.63-17-19.67-27.32,0-8,0-22.64,0-23-.36-10.55,6.5-20.44,19.31-27.84C534.67,34.92,576.73,35,602.68,50c12.79,7.38,19.77,17.2,19.66,27.65,0,.15-.16,15,0,23,.21,10.43-6.66,20.2-19.33,27.51S573.32,139.23,556.42,139.23Zm-.93-99.95c-16.79,0-33.54,3.67-46.28,11s-19.37,17-19,27.3h0c0,.15-.06,15,0,23,0,10.1,6.92,19.61,19.37,26.8,25.78,14.88,67.57,15,93.17.19,12.47-7.2,19.23-16.78,19-27-.16-8,0-22.86,0-23,.11-10.22-6.77-19.85-19.36-27.12C589.43,43,572.44,39.28,555.49,39.28Z"/><path class="cls-64" d="M489.89,77.62c-.34-10,6-20,19.16-27.57,25.72-14.85,67.57-14.77,93.47.19,13.11,7.57,19.61,17.5,19.51,27.38,0,0-.16,14.88,0,23,.2,9.87-6.19,19.75-19.18,27.25-25.72,14.85-67.57,14.77-93.47-.19-13-7.49-19.48-17.28-19.52-27.06C489.83,92.5,489.89,77.62,489.89,77.62Z"/><polygon class="cls-62" points="420.46 180.12 510.46 128.12 510.46 104.12 420.46 156.12 420.46 180.12"/><path class="cls-63" d="M420.46,180.42a.3.3,0,0,1-.3-.3v-24a.3.3,0,0,1,.15-.26l90-52a.3.3,0,0,1,.45.26v24a.3.3,0,0,1-.15.26l-90,52A.3.3,0,0,1,420.46,180.42Zm.3-24.13V179.6L510.16,128V104.64Z"/><line class="cls-65" x1="510.46" y1="128.12" x2="421.97" y2="179.31"/><path class="cls-63" d="M422,179.61a.3.3,0,0,1-.15-.56l88.49-51.19a.3.3,0,1,1,.3.52l-88.49,51.19A.3.3,0,0,1,422,179.61Z"/><path class="cls-63" d="M420.74,180.32l6-9,.69.32a7.18,7.18,0,0,1,4.16,7.2l-.07.76Z"/><polygon class="cls-64" points="420.46 180.12 510.46 128.12 510.46 104.12 420.46 156.12 420.46 180.12"/><path class="cls-62" d="M509.06,50.05c-25.72,14.85-25.57,39,.33,54s67.75,15,93.47.19,25.57-39-.33-54S534.78,35.2,509.06,50.05Z"/><path class="cls-63" d="M556.42,115.56c-17.06,0-34.15-3.77-47.18-11.29-12.69-7.32-19.67-17.06-19.67-27.41S496.44,57,508.91,49.79l.15.26-.15-.26C534.67,34.92,576.73,35,602.68,50,615.36,57.3,622.35,67,622.35,77.39S615.48,97.26,603,104.46C590.18,111.86,573.32,115.56,556.42,115.56Zm-.93-76.28c-16.79,0-33.54,3.67-46.28,11-12.28,7.09-19,16.52-19,26.55s6.88,19.68,19.37,26.9c25.78,14.88,67.57,15,93.17.19,12.28-7.09,19-16.52,19-26.55s-6.88-19.68-19.37-26.89C589.43,43,572.44,39.28,555.49,39.28Z"/><line class="cls-66" x1="510.46" y1="104.12" x2="421.97" y2="155.31"/><path class="cls-63" d="M422,155.61a.3.3,0,0,1-.15-.56l88.49-51.19a.3.3,0,1,1,.3.52l-88.49,51.19A.3.3,0,0,1,422,155.61Z"/><path class="cls-63" d="M420.74,156.32l6-9,.69.32a7.18,7.18,0,0,1,4.16,7.2l-.07.76Z"/><path class="cls-62" d="M543.5,46.38a19.54,19.54,0,0,0,24.92,0c0-.2,10.88,29,10.91,29.13h0c0,3.46-2.22,6.93-6.79,9.56-9.09,5.25-23.87,5.22-33-.06-4.55-2.63-6.85-6.07-6.89-9.5h0C532.62,75.35,543.45,46.18,543.5,46.38Z"/><path class="cls-63" d="M556.12,89.28c-6.06,0-12.13-1.34-16.76-4-4.45-2.57-6.95-6-7-9.65a.27.27,0,0,1,0-.17c0-.15,4.05-11,5.43-14.67,5.48-14.7,5.48-14.7,5.76-14.7a.35.35,0,0,1,.21.08,19.25,19.25,0,0,0,24.51,0,.48.48,0,0,1,.21-.08c.28,0,.28,0,5.76,14.7,1.38,3.71,5.41,14.52,5.43,14.67a.29.29,0,0,1,0,.09c0,3.72-2.44,7.19-6.93,9.79S562.13,89.28,556.12,89.28Zm-23.2-13.8v0c0,3.48,2.43,6.76,6.74,9.25,9,5.22,23.73,5.25,32.72.06,4.3-2.48,6.66-5.77,6.64-9.27-.29-.8-9.4-25.36-10.71-28.66a19.95,19.95,0,0,1-24.7,0C542.32,50.1,533.6,73.6,532.92,75.47Z"/><circle class="cls-62" cx="555.96" cy="27.63" r="15"/><path class="cls-63" d="M556,42.93a15.3,15.3,0,1,1,15.3-15.3A15.32,15.32,0,0,1,556,42.93Zm0-30a14.71,14.71,0,1,0,14.71,14.71A14.72,14.72,0,0,0,556,12.92Z"/><g class="cls-67"><path class="cls-68" d="M568.41,46.38a19.54,19.54,0,0,1-24.92,0c0-.2-10.88,29-10.91,29.13h0c0,3.46,2.22,6.93,6.79,9.56,9.09,5.25,23.87,5.22,33-.06,4.55-2.63,6.85-6.07,6.89-9.5h0C579.29,75.35,568.46,46.18,568.41,46.38Z"/><circle class="cls-69" cx="555.96" cy="27.63" r="15"/></g><polygon class="cls-70" points="495.6 198.51 339.72 108.51 184.81 197.95 184.81 245.95 340.69 335.95 495.6 246.51 495.6 198.51"/><path class="cls-63" d="M340.69,336.25a.3.3,0,0,1-.15,0l-155.88-90a.3.3,0,0,1-.15-.26v-48a.3.3,0,0,1,.15-.26l154.91-89.44a.3.3,0,0,1,.3,0l155.88,90a.3.3,0,0,1,.15.26v48a.3.3,0,0,1-.15.26L340.84,336.21A.3.3,0,0,1,340.69,336.25ZM185.11,245.77,340.69,335.6,495.3,246.34V198.68L339.72,108.86,185.11,198.12Z"/><line class="cls-71" x1="340.71" y1="287.73" x2="340.71" y2="335.73"/><path class="cls-63" d="M340.71,336a.3.3,0,0,1-.3-.3v-48a.3.3,0,1,1,.6,0v48A.3.3,0,0,1,340.71,336Z"/><polygon class="cls-72" points="340.69 287.95 184.81 197.95 339.72 108.51 495.6 198.51 340.69 287.95"/><path class="cls-63" d="M340.69,288.25a.3.3,0,0,1-.15,0l-155.88-90a.3.3,0,0,1,0-.52l154.91-89.44a.3.3,0,0,1,.3,0l155.88,90a.3.3,0,0,1,0,.52L340.84,288.21A.3.3,0,0,1,340.69,288.25Zm-155.28-90.3L340.69,287.6,495,198.51,339.72,108.86Z"/><polygon class="cls-63" points="305.27 184.46 319.23 192.53 321.37 191.29 307.41 183.23 305.27 184.46"/><path class="cls-63" d="M353.87,192.52q.6-3.12-3.4-5.42a16.27,16.27,0,0,0-9.41-2,21.65,21.65,0,0,0-9.54,2.76q-4.16,2.4-4.78,5.51t3.42,5.43a16.3,16.3,0,0,0,9.39,2,21.59,21.59,0,0,0,9.56-2.75Q353.28,195.64,353.87,192.52Zm-14.48,6.34a11.58,11.58,0,0,1-7.13-1.25q-2.92-1.69-2.17-4.12a7.73,7.73,0,0,1,3.84-4.22,18.17,18.17,0,0,1,7.3-2.22,11.58,11.58,0,0,1,7.13,1.25q2.92,1.68,2.17,4.12a7.73,7.73,0,0,1-3.84,4.22A18.17,18.17,0,0,1,339.4,198.86Z"/><path class="cls-63" d="M375,202.69q-.64-1.8-3.68-3.55a16,16,0,0,0-6.17-2,9.53,9.53,0,0,0-6,1.12q-2,1.15-1.92,2.53a4,4,0,0,0,1.35,2.66q1.29,1.27,2.67,2.51A5.68,5.68,0,0,1,363,208.4q.37,1.21-1.12,2.06a6.9,6.9,0,0,1-4.17.9,10.06,10.06,0,0,1-4.18-1.31q-2.77-1.6-3.4-3t1.84-2.88l-2.3-1.33q-3.28,1.9-2.7,4t4,4.07a17.55,17.55,0,0,0,6.88,2.32,10.88,10.88,0,0,0,6.79-1.48q1.95-1.12,1.94-2.54a4,4,0,0,0-1.26-2.73q-1.25-1.32-2.6-2.56a7.25,7.25,0,0,1-1.83-2.38q-.49-1.14.81-1.89a5.69,5.69,0,0,1,3.79-.66,11,11,0,0,1,3.91,1.36q4.26,2.46,1.71,4.6l2.23,1.29Q375.64,204.49,375,202.69Z"/><polygon class="cls-63" points="202.88 235.35 200.68 224.18 198.28 222.8 201.87 238.7 203.88 239.86 207.45 228.09 205.06 226.71 202.88 235.35"/><polygon class="cls-63" points="211.25 228.12 211.25 230.72 214.65 231.13 214.65 246.08 216.96 247.41 216.96 228.74 216.66 228.57 211.25 228.12"/><path class="cls-63" d="M225.31,249c-.42-.25-.75-.27-1-.08a1.27,1.27,0,0,0-.35,1,3,3,0,0,0,.36,1.42,2.54,2.54,0,0,0,1,1c.43.25.76.28,1,.1a1.22,1.22,0,0,0,.35-1,3.14,3.14,0,0,0-.35-1.44A2.52,2.52,0,0,0,225.31,249Z"/><path class="cls-63" d="M238.94,253.46v-12l-2.39-1.38-6,9.12.07,1.93,6,3.46v4.14l2.31,1.33V256l1.72,1v-2.49Zm-2.31-1.33L233,250l3.45-5.37.17-.31Z"/><path class="cls-63" d="M338.7,230.24h0c-1.34,0-2.69-.06-4-.13a.5.5,0,0,1,.05-1c1.32.07,2.65.12,4,.13a.5.5,0,0,1,0,1Zm5-.07a.5.5,0,0,1,0-1c1.32-.05,2.66-.14,4-.25a.49.49,0,0,1,.54.46.5.5,0,0,1-.46.54c-1.33.11-2.68.19-4,.25Zm-14-.46h-.05c-1.33-.14-2.67-.32-4-.52a.5.5,0,0,1,.15-1c1.3.2,2.63.37,3.95.52a.5.5,0,0,1-.05,1Zm22.94-.33a.5.5,0,0,1-.07-1c1.31-.18,2.63-.4,3.92-.63a.5.5,0,0,1,.18,1c-1.31.24-2.64.46-4,.64Zm-31.83-1.09h-.11c-1.32-.28-2.64-.6-3.92-.94a.5.5,0,1,1,.26-1c1.26.34,2.56.65,3.87.93a.5.5,0,0,1-.1,1Zm40.66-.6a.5.5,0,0,1-.12-1c1.3-.32,2.59-.68,3.83-1.05a.5.5,0,0,1,.29,1c-1.26.38-2.56.74-3.88,1.07Zm-49.34-1.79-.16,0c-1.28-.44-2.55-.92-3.77-1.42a.5.5,0,0,1,.38-.92c1.2.49,2.45,1,3.72,1.4a.5.5,0,0,1-.16,1Zm57.92-.89a.5.5,0,0,1-.18-1c1.25-.48,2.48-1,3.66-1.53a.5.5,0,1,1,.41.91c-1.2.55-2.45,1.07-3.72,1.55A.5.5,0,0,1,370.08,225Zm-66.21-2.6a.5.5,0,0,1-.23-.05c-.82-.42-1.63-.86-2.42-1.32l-1.1-.65a.5.5,0,0,1,.52-.85l1.08.64c.77.45,1.57.88,2.38,1.29a.5.5,0,0,1-.23.95Zm74.36-1.2a.5.5,0,0,1-.25-.94l.44-.25c1-.59,2-1.2,2.92-1.82a.5.5,0,1,1,.56.83c-.94.64-1.95,1.26-3,1.86l-.46.26A.49.49,0,0,1,378.22,221.2Zm-82-3.58a.5.5,0,0,1-.31-.1,37.53,37.53,0,0,1-3.06-2.65.5.5,0,1,1,.7-.72,36.57,36.57,0,0,0,3,2.58.5.5,0,0,1-.31.9Zm89.34-1.55a.5.5,0,0,1-.33-.88,33.86,33.86,0,0,0,2.83-2.74.5.5,0,0,1,.74.67,34.87,34.87,0,0,1-2.91,2.82A.5.5,0,0,1,385.6,216.07Zm-95.66-4.82a.5.5,0,0,1-.4-.2,25,25,0,0,1-2.15-3.46.5.5,0,1,1,.89-.45,24,24,0,0,0,2.06,3.32.5.5,0,0,1-.4.8Zm101.57-1.93a.5.5,0,0,1-.42-.77,22.5,22.5,0,0,0,1.79-3.47.5.5,0,0,1,.93.38,23.47,23.47,0,0,1-1.87,3.63A.5.5,0,0,1,391.51,209.32Zm-105.4-6.14a.5.5,0,0,1-.49-.39,19.15,19.15,0,0,1-.5-4.07.5.5,0,0,1,.49-.51.54.54,0,0,1,.51.49,18.14,18.14,0,0,0,.48,3.85.5.5,0,0,1-.37.6ZM394.64,201h-.07a.5.5,0,0,1-.43-.56,17.91,17.91,0,0,0,.16-2.39q0-.75-.06-1.49a.5.5,0,0,1,1-.08q.07.79.07,1.58a18.93,18.93,0,0,1-.17,2.52A.5.5,0,0,1,394.64,201Zm-108.42-6.69-.13,0a.5.5,0,0,1-.36-.61,21.31,21.31,0,0,1,1.41-3.84.5.5,0,0,1,.9.43,20.24,20.24,0,0,0-1.34,3.66A.5.5,0,0,1,286.21,194.27Zm107.45-2.17a.5.5,0,0,1-.47-.33,21.51,21.51,0,0,0-1.65-3.53.5.5,0,1,1,.86-.5,22.58,22.58,0,0,1,1.73,3.7.5.5,0,0,1-.47.67Zm-103.47-5.83a.5.5,0,0,1-.4-.8,30.86,30.86,0,0,1,2.67-3.06.5.5,0,1,1,.71.7,29.86,29.86,0,0,0-2.58,3A.5.5,0,0,1,290.19,186.27Zm98.86-1.83a.5.5,0,0,1-.38-.17,32.28,32.28,0,0,0-2.76-2.8.5.5,0,0,1,.67-.74,33.38,33.38,0,0,1,2.85,2.89.5.5,0,0,1-.38.83ZM296.57,180a.5.5,0,0,1-.31-.9c1-.8,2.15-1.58,3.31-2.32a.5.5,0,0,1,.54.84c-1.14.73-2.23,1.49-3.24,2.27A.5.5,0,0,1,296.57,180Zm85.75-1.46a.5.5,0,0,1-.28-.09c-1-.73-2.17-1.44-3.34-2.11a.5.5,0,0,1,.5-.87c1.19.69,2.34,1.42,3.41,2.16a.5.5,0,0,1-.29.91Zm-4.66-2.85a.5.5,0,0,1-.24-.06c-1.14-.62-2.33-1.21-3.55-1.76a.5.5,0,1,1,.41-.91c1.24.56,2.46,1.17,3.61,1.79a.5.5,0,0,1-.24.94Zm-73.48-.46a.5.5,0,0,1-.23-.95c1.17-.6,2.39-1.17,3.65-1.72a.5.5,0,0,1,.4.92c-1.23.53-2.44,1.1-3.59,1.69A.5.5,0,0,1,304.19,175.19Zm65.26-3.2a.51.51,0,0,1-.17,0c-1.22-.44-2.49-.86-3.77-1.25a.5.5,0,1,1,.29-1c1.3.39,2.58.81,3.82,1.27a.5.5,0,0,1-.17,1Zm-57-.3a.5.5,0,0,1-.16-1c1.25-.43,2.54-.84,3.84-1.21a.5.5,0,1,1,.27,1c-1.28.37-2.56.77-3.79,1.19Zm48.35-2.23h-.11c-1.27-.29-2.58-.56-3.9-.8a.5.5,0,0,1,.18-1c1.33.24,2.66.51,3.94.81a.5.5,0,0,1-.11,1Zm-39.69-.19a.5.5,0,0,1-.11-1c1.29-.28,2.62-.54,3.95-.77a.5.5,0,0,1,.17,1c-1.31.22-2.63.48-3.9.76ZM352,167.9h-.06c-1.31-.16-2.64-.29-4-.4a.5.5,0,0,1,.08-1c1.34.11,2.68.24,4,.4a.5.5,0,0,1-.06,1Zm-22-.09a.5.5,0,0,1-.06-1c1.32-.15,2.67-.27,4-.37a.51.51,0,0,1,.53.46.5.5,0,0,1-.46.53c-1.32.09-2.65.21-4,.36Zm13-.56h0q-2,0-4,0a.49.49,0,0,1-.51-.49.5.5,0,0,1,.49-.51q2,0,4,0a.5.5,0,0,1,0,1Z"/><path class="cls-73" d="M289,186.67s0,3.63,0,4.56c-.11,4.41,2.74,8.83,8.55,12.19,11.46,6.61,30.1,6.58,41.63-.08,5.77-3.33,8.67-7.69,8.7-12,0-1.46,0-4.62,0-4.62Z"/><path class="cls-5" d="M318.25,208.47c-7.53,0-15-1.65-20.75-4.94s-8.72-7.64-8.61-12.3c0-.92,0-4.52,0-4.55v-.13H348v.12s0,3.16,0,4.62c0,4.59-3.14,8.9-8.76,12.14C333.46,206.79,325.85,208.47,318.25,208.47ZM289.15,186.8c0,.65,0,3.61,0,4.43-.11,4.56,2.9,8.85,8.48,12.07,11.4,6.58,30,6.55,41.51-.08,5.54-3.2,8.61-7.43,8.63-11.93,0-1.29,0-3.9,0-4.5Z"/><path class="cls-74" d="M339.35,174.61c-11.46-6.61-30.1-6.58-41.63.08s-11.6,17.42-.15,24,30.1,6.58,41.63-.08S350.81,181.23,339.35,174.61Z"/><path class="cls-5" d="M318.25,203.79c-7.53,0-15-1.65-20.75-4.94-5.55-3.21-8.61-7.49-8.61-12.05s3.11-8.94,8.76-12.2c11.55-6.67,30.29-6.71,41.76-.08C345,177.71,348,182,348,186.55s-3.11,8.94-8.76,12.2C333.46,202.11,325.85,203.79,318.25,203.79Zm.41-34c-7.55,0-15.12,1.67-20.89,5-5.57,3.21-8.63,7.47-8.63,12s3,8.67,8.49,11.83c11.4,6.58,30,6.55,41.51-.08,5.57-3.21,8.63-7.47,8.63-12s-3-8.67-8.49-11.83C333.61,171.44,326.15,169.81,318.67,169.81Z"/><path class="cls-7" d="M335.7,176.72c-9.45-5.46-24.84-5.43-34.36.07s-9.57,14.38-.12,19.84,24.84,5.43,34.36-.07S345.15,182.18,335.7,176.72Z"/><path class="cls-5" d="M318.29,200.82c-6.22,0-12.42-1.36-17.13-4.08s-7.12-6.19-7.12-10,2.57-7.4,7.24-10.09c9.54-5.51,25-5.54,34.48-.07,4.59,2.65,7.12,6.19,7.12,10s-2.57,7.4-7.24,10.09S324.56,200.82,318.29,200.82Zm.34-28c-6.23,0-12.47,1.37-17.23,4.12-4.59,2.65-7.11,6.15-7.11,9.87s2.48,7.14,7,9.75c9.41,5.43,24.76,5.4,34.23-.07,4.59-2.65,7.11-6.16,7.11-9.87s-2.48-7.14-7-9.75C331,174.13,324.8,172.78,318.63,172.78Z"/><path class="cls-75" d="M301.34,176.79c-4.86,2.81-7.25,6.5-7.17,10.17.12-3.51,2.51-7,7.16-9.7,9.52-5.5,24.9-5.53,34.36-.07,4.62,2.67,7,6.16,7,9.67.13-3.67-2.22-7.35-7-10.14C326.25,171.26,310.86,171.29,301.34,176.79Z"/><path class="cls-5" d="M294.3,187H294c-.09-3.88,2.48-7.53,7.23-10.28,9.54-5.51,25-5.54,34.48-.07,4.72,2.72,7.24,6.36,7.11,10.25h-.25c-.08-3.62-2.56-7-7-9.56-9.4-5.43-24.76-5.4-34.23.07C296.95,179.94,294.42,183.34,294.3,187Zm7.1-10.06a15.74,15.74,0,0,0-5.81,5.34,16.35,16.35,0,0,1,5.68-5.09c9.54-5.51,25-5.54,34.48-.07a15.94,15.94,0,0,1,5.64,5.11,15.33,15.33,0,0,0-5.76-5.36c-9.4-5.43-24.76-5.4-34.23.07Z"/><polygon class="cls-76" points="330.85 185.64 337.78 184.1 323.01 175.57 318.21 178.34 326.04 182.87 299.38 188.82 304.21 191.61 314.44 197.51 319.27 194.73 311.16 190.05 330.85 185.64"/><path class="cls-5" d="M314.44,197.66,299,188.77l26.66-6L318,178.34l5.05-2.92,15.11,8.72L311.5,190.1l8,4.63Zm-14.72-8.79,14.72,8.5,4.58-2.64L310.82,190l.31-.07L337.44,184,323,175.72l-4.55,2.63,7.92,4.57Z"/><polygon class="cls-77" points="326.85 190.69 329.53 190.09 326.11 188.11 323.43 188.71 326.85 190.69"/><path class="cls-5" d="M326.83,190.82l-3.74-2.16,3-.68,3.74,2.16Zm-3.06-2.06,3.1,1.79,2.32-.52-3.1-1.79Z"/><polygon class="cls-78" points="317.79 183.3 314.37 181.33 311.68 181.93 315.1 183.9 317.79 183.3"/><path class="cls-5" d="M315.08,184l-3.74-2.16,3-.68,3.74,2.16ZM312,182l3.1,1.79,2.32-.52-3.1-1.79Z"/><polygon class="cls-79" points="325.49 190.99 322.07 189.01 319.4 189.61 322.83 191.59 325.49 190.99"/><path class="cls-5" d="M322.81,191.72l-3.74-2.16,3-.68,3.74,2.16Zm-3.06-2.06,3.1,1.79,2.31-.52-3.1-1.79Z"/><polygon class="cls-80" points="310.33 182.23 307.66 182.83 311.08 184.81 313.75 184.21 310.33 182.23"/><path class="cls-5" d="M311.06,184.94l-3.74-2.16,3-.68,3.74,2.16ZM308,182.88l3.1,1.79,2.31-.52-3.1-1.79Z"/><path class="cls-81" d="M289,182s0,3.63,0,4.56c-.11,4.41,2.74,8.83,8.55,12.19,11.46,6.61,30.1,6.58,41.63-.08,5.77-3.33,8.67-7.69,8.7-12,0-1.46,0-4.62,0-4.62Z"/><path class="cls-5" d="M318.25,203.79c-7.53,0-15-1.65-20.75-4.94s-8.72-7.64-8.61-12.3c0-.92,0-4.52,0-4.55v-.13H348V182s0,3.16,0,4.62c0,4.59-3.14,8.9-8.76,12.14C333.46,202.11,325.85,203.79,318.25,203.79Zm-29.11-21.67c0,.65,0,3.61,0,4.44-.11,4.56,2.9,8.85,8.48,12.07,11.4,6.58,30,6.55,41.51-.08,5.54-3.2,8.61-7.43,8.63-11.93,0-1.29,0-3.9,0-4.5Z"/><path class="cls-82" d="M339.35,169.93c-11.46-6.61-30.1-6.58-41.63.08s-11.6,17.42-.15,24,30.1,6.58,41.63-.08S350.81,176.54,339.35,169.93Z"/><path class="cls-5" d="M318.25,199.1c-7.53,0-15-1.65-20.75-4.94-5.55-3.21-8.61-7.49-8.61-12.05s3.11-8.94,8.76-12.2c11.55-6.67,30.29-6.71,41.76-.08C345,173,348,177.31,348,181.87s-3.11,8.94-8.76,12.2C333.46,197.42,325.85,199.1,318.25,199.1Zm.41-34c-7.55,0-15.12,1.67-20.89,5-5.57,3.21-8.63,7.47-8.63,12s3,8.67,8.49,11.83c11.4,6.58,30,6.55,41.51-.08,5.57-3.21,8.63-7.47,8.63-12s-3-8.67-8.49-11.83C333.61,166.76,326.15,165.12,318.67,165.12Z"/><path class="cls-7" d="M335.7,172c-9.45-5.46-24.84-5.43-34.36.07s-9.57,14.38-.12,19.84,24.84,5.43,34.36-.07S345.15,177.49,335.7,172Z"/><path class="cls-5" d="M318.29,196.13c-6.22,0-12.42-1.36-17.13-4.08s-7.12-6.19-7.12-10,2.57-7.4,7.24-10.09c9.54-5.51,25-5.54,34.48-.07,4.59,2.65,7.12,6.19,7.12,10s-2.57,7.4-7.24,10.09S324.56,196.13,318.29,196.13Zm.34-28c-6.23,0-12.47,1.37-17.23,4.12-4.59,2.65-7.11,6.16-7.11,9.87s2.48,7.14,7,9.75c9.41,5.43,24.76,5.4,34.23-.07,4.59-2.65,7.11-6.15,7.11-9.87s-2.48-7.14-7-9.75h0C331,169.44,324.8,168.09,318.63,168.09Z"/><path class="cls-83" d="M301.34,172.11c-4.86,2.81-7.25,6.5-7.17,10.17.12-3.51,2.51-7,7.16-9.7,9.52-5.5,24.9-5.53,34.36-.07,4.62,2.67,7,6.16,7,9.67.13-3.67-2.22-7.35-7-10.14C326.25,166.58,310.86,166.61,301.34,172.11Z"/><path class="cls-5" d="M294.3,182.28H294c-.09-3.88,2.48-7.53,7.23-10.28h0c9.54-5.51,25-5.54,34.48-.07,4.72,2.72,7.24,6.36,7.11,10.25h-.25c-.08-3.61-2.56-7-7-9.57-9.4-5.43-24.76-5.4-34.23.07C296.95,175.25,294.42,178.66,294.3,182.28Zm7.1-10.06a15.74,15.74,0,0,0-5.81,5.35,16.35,16.35,0,0,1,5.68-5.1c9.54-5.51,25-5.54,34.48-.07a15.94,15.94,0,0,1,5.65,5.11,15.33,15.33,0,0,0-5.77-5.36c-9.4-5.43-24.76-5.4-34.23.07Z"/><polygon class="cls-84" points="330.85 180.96 337.78 179.42 323.01 170.89 318.21 173.66 326.04 178.18 299.38 184.14 304.21 186.92 314.44 192.83 319.27 190.04 311.16 185.37 330.85 180.96"/><path class="cls-5" d="M314.44,193,299,184.08l26.66-6L318,173.66l5.05-2.92,15.11,8.72-26.62,5.95,8,4.63Zm-14.72-8.79,14.72,8.5L319,190l-8.19-4.73.31-.07,26.31-5.88L323,171l-4.55,2.63,7.92,4.57Z"/><polygon class="cls-85" points="326.85 186 329.53 185.4 326.11 183.43 323.43 184.03 326.85 186"/><path class="cls-5" d="M326.83,186.13,323.09,184l3-.68,3.74,2.16Zm-3.06-2.06,3.1,1.79,2.32-.52-3.1-1.79Z"/><polygon class="cls-86" points="317.79 178.62 314.37 176.65 311.68 177.25 315.1 179.22 317.79 178.62"/><path class="cls-5" d="M315.08,179.35l-3.74-2.16,3-.68,3.74,2.16ZM312,177.3l3.1,1.79,2.32-.52-3.1-1.79Z"/><polygon class="cls-87" points="325.49 186.3 322.07 184.33 319.4 184.93 322.83 186.9 325.49 186.3"/><path class="cls-5" d="M322.81,187l-3.74-2.16,3-.68,3.74,2.16ZM319.74,185l3.1,1.79,2.31-.52-3.1-1.79Z"/><polygon class="cls-88" points="310.33 177.55 307.66 178.14 311.08 180.12 313.75 179.52 310.33 177.55"/><path class="cls-5" d="M311.06,180.25l-3.74-2.16,3-.68,3.74,2.16ZM308,178.2l3.1,1.79,2.31-.52-3.1-1.79Z"/><path class="cls-89" d="M289,177.31s0,3.63,0,4.56c-.11,4.41,2.74,8.83,8.55,12.19,11.46,6.61,30.1,6.58,41.63-.08,5.77-3.33,8.67-7.69,8.7-12,0-1.46,0-4.62,0-4.62Z"/><path class="cls-5" d="M318.25,199.1c-7.53,0-15-1.65-20.75-4.94s-8.72-7.64-8.61-12.3c0-.92,0-4.52,0-4.55v-.13H348v.12s0,3.16,0,4.62c0,4.59-3.14,8.9-8.76,12.14C333.46,197.42,325.85,199.1,318.25,199.1Zm-29.11-21.67c0,.65,0,3.61,0,4.43-.11,4.56,2.9,8.85,8.48,12.08,11.4,6.58,30,6.55,41.51-.08,5.54-3.2,8.61-7.43,8.63-11.93,0-1.29,0-3.9,0-4.5Z"/><path class="cls-90" d="M339.35,165.24c-11.46-6.61-30.1-6.58-41.63.08s-11.6,17.42-.15,24,30.1,6.58,41.63-.08S350.81,171.86,339.35,165.24Z"/><path class="cls-5" d="M318.25,194.42c-7.53,0-15-1.65-20.75-4.94-5.55-3.21-8.61-7.49-8.61-12s3.11-8.94,8.76-12.2c11.55-6.67,30.29-6.71,41.76-.08,5.55,3.21,8.61,7.49,8.61,12s-3.11,8.94-8.76,12.2C333.46,192.74,325.85,194.42,318.25,194.42Zm.41-34c-7.55,0-15.12,1.67-20.89,5-5.57,3.21-8.63,7.47-8.63,12s3,8.67,8.49,11.83c11.4,6.58,30,6.55,41.51-.08,5.57-3.21,8.63-7.47,8.63-12s-3-8.67-8.49-11.83C333.61,162.08,326.15,160.44,318.67,160.44Z"/><path class="cls-7" d="M335.7,167.35c-9.45-5.46-24.84-5.43-34.36.07s-9.57,14.38-.12,19.84,24.84,5.43,34.36-.07S345.15,172.81,335.7,167.35Z"/><path class="cls-5" d="M318.29,191.45c-6.22,0-12.42-1.36-17.13-4.08s-7.12-6.19-7.12-10,2.57-7.4,7.24-10.09c9.54-5.51,25-5.54,34.48-.07,4.59,2.65,7.12,6.19,7.12,10s-2.57,7.4-7.24,10.09S324.56,191.45,318.29,191.45Zm.34-28c-6.23,0-12.47,1.37-17.23,4.12-4.59,2.65-7.11,6.15-7.11,9.87s2.48,7.14,7,9.75c9.41,5.43,24.76,5.4,34.23-.07,4.59-2.65,7.11-6.15,7.11-9.87s-2.48-7.14-7-9.75C331,164.76,324.8,163.41,318.63,163.41Z"/><path class="cls-91" d="M301.34,167.42c-4.86,2.81-7.25,6.5-7.17,10.17.12-3.51,2.51-7,7.16-9.7,9.52-5.5,24.9-5.53,34.36-.07,4.62,2.67,7,6.16,7,9.67.13-3.67-2.22-7.35-7-10.14C326.25,161.89,310.86,161.92,301.34,167.42Z"/><path class="cls-5" d="M294.3,177.59H294c-.09-3.88,2.48-7.53,7.23-10.28,9.54-5.51,25-5.54,34.48-.07,4.72,2.72,7.24,6.36,7.11,10.25h-.25c-.08-3.61-2.56-7-7-9.57-9.4-5.43-24.76-5.4-34.23.07C296.95,170.57,294.42,174,294.3,177.59Zm7.1-10.06h0a15.74,15.74,0,0,0-5.81,5.35,16.35,16.35,0,0,1,5.68-5.1c9.54-5.51,25-5.54,34.48-.07a15.94,15.94,0,0,1,5.64,5.11,15.33,15.33,0,0,0-5.77-5.36c-9.4-5.43-24.76-5.4-34.23.07Z"/><polygon class="cls-92" points="330.85 176.28 337.78 174.73 323.01 166.21 318.21 168.98 326.04 173.5 299.38 179.45 304.21 182.24 314.44 188.15 319.27 185.36 311.16 180.68 330.85 176.28"/><path class="cls-5" d="M314.44,188.29,299,179.4l26.66-6L318,169l5.05-2.92,15.11,8.72-26.62,5.95,8,4.63Zm-14.72-8.79,14.72,8.5,4.58-2.64-8.19-4.73.31-.07,26.31-5.88L323,166.35,318.46,169l7.92,4.57Z"/><polygon class="cls-93" points="326.85 181.32 329.53 180.72 326.11 178.74 323.43 179.34 326.85 181.32"/><path class="cls-5" d="M326.83,181.45l-3.74-2.16,3-.68,3.74,2.16Zm-3.06-2.06,3.1,1.79,2.32-.52-3.1-1.79Z"/><polygon class="cls-94" points="317.79 173.94 314.37 171.96 311.68 172.56 315.1 174.54 317.79 173.94"/><path class="cls-5" d="M315.08,174.67l-3.74-2.16,3-.68,3.74,2.16ZM312,172.61l3.1,1.79,2.32-.52-3.1-1.79Z"/><polygon class="cls-95" points="325.49 181.62 322.07 179.65 319.4 180.24 322.83 182.22 325.49 181.62"/><path class="cls-5" d="M322.81,182.35l-3.74-2.16,3-.68,3.74,2.16Zm-3.06-2.06,3.1,1.79,2.31-.52-3.1-1.79Z"/><polygon class="cls-96" points="310.33 172.86 307.66 173.46 311.08 175.44 313.75 174.84 310.33 172.86"/><path class="cls-5" d="M311.06,175.57l-3.74-2.16,3-.68,3.74,2.16ZM308,173.51l3.1,1.79,2.31-.52-3.1-1.79Z"/><path class="cls-97" d="M289,172.62s0,3.63,0,4.56c-.11,4.41,2.74,8.83,8.55,12.19,11.46,6.61,30.1,6.58,41.63-.08,5.77-3.33,8.67-7.69,8.7-12,0-1.46,0-4.62,0-4.62Z"/><path class="cls-5" d="M318.25,194.42c-7.53,0-15-1.65-20.75-4.94s-8.72-7.64-8.61-12.3c0-.92,0-4.52,0-4.55v-.13H348v.12s0,3.16,0,4.62c0,4.59-3.14,8.9-8.76,12.14C333.46,192.74,325.85,194.42,318.25,194.42Zm-29.11-21.67c0,.65,0,3.61,0,4.43-.11,4.56,2.9,8.85,8.48,12.07,11.4,6.58,30,6.55,41.51-.08,5.54-3.2,8.61-7.43,8.63-11.93,0-1.29,0-3.9,0-4.5Z"/><path class="cls-98" d="M339.35,160.56c-11.46-6.61-30.1-6.58-41.63.08s-11.6,17.42-.15,24,30.1,6.58,41.63-.08S350.81,167.18,339.35,160.56Z"/><path class="cls-5" d="M318.25,189.73c-7.53,0-15-1.65-20.75-4.94-5.55-3.21-8.61-7.49-8.61-12.05s3.11-8.94,8.76-12.2c11.55-6.67,30.29-6.71,41.76-.08,5.55,3.21,8.61,7.49,8.61,12.05s-3.11,8.94-8.76,12.2C333.46,188.06,325.85,189.73,318.25,189.73Zm.41-34c-7.55,0-15.12,1.67-20.89,5-5.57,3.21-8.63,7.47-8.63,12s3,8.67,8.49,11.83c11.4,6.58,30,6.55,41.51-.08,5.57-3.21,8.63-7.47,8.63-12s-3-8.67-8.49-11.83C333.61,157.39,326.15,155.76,318.67,155.76Z"/><path class="cls-7" d="M335.7,162.67c-9.45-5.46-24.84-5.43-34.36.07s-9.57,14.38-.12,19.84,24.84,5.43,34.36-.07S345.15,168.13,335.7,162.67Z"/><path class="cls-5" d="M318.29,186.76c-6.22,0-12.42-1.36-17.13-4.08s-7.12-6.19-7.12-10,2.57-7.4,7.24-10.09c9.54-5.51,25-5.54,34.48-.07,4.59,2.65,7.12,6.19,7.12,10s-2.57,7.4-7.24,10.09S324.56,186.76,318.29,186.76Zm.34-28c-6.23,0-12.47,1.37-17.23,4.12-4.59,2.65-7.11,6.15-7.11,9.87s2.48,7.14,7,9.75c9.41,5.43,24.76,5.4,34.23-.07,4.59-2.65,7.11-6.16,7.11-9.87s-2.48-7.14-7-9.75C331,160.07,324.8,158.72,318.63,158.72Z"/><path class="cls-99" d="M301.34,162.74c-4.86,2.81-7.25,6.5-7.17,10.17.12-3.51,2.51-7,7.16-9.7,9.52-5.5,24.9-5.53,34.36-.07,4.62,2.67,7,6.16,7,9.67.13-3.67-2.22-7.35-7-10.14C326.25,157.21,310.86,157.24,301.34,162.74Z"/><path class="cls-5" d="M294.3,172.91H294c-.09-3.88,2.48-7.53,7.23-10.28,9.54-5.51,25-5.54,34.48-.07,4.72,2.72,7.24,6.36,7.11,10.25h-.25c-.08-3.62-2.56-7-7-9.56-9.4-5.43-24.76-5.4-34.23.07C296.95,165.88,294.42,169.29,294.3,172.91Zm7.1-10.06h0a15.74,15.74,0,0,0-5.81,5.34,16.35,16.35,0,0,1,5.68-5.09c9.54-5.51,25-5.54,34.48-.07a15.94,15.94,0,0,1,5.64,5.11,15.33,15.33,0,0,0-5.76-5.36c-9.4-5.43-24.76-5.4-34.23.07Z"/><polygon class="cls-100" points="330.85 171.59 337.78 170.05 323.01 161.52 318.21 164.29 326.04 168.81 299.38 174.77 304.21 177.56 314.44 183.46 319.27 180.68 311.16 176 330.85 171.59"/><path class="cls-5" d="M314.44,183.61,299,174.72l26.66-6L318,164.29l5.05-2.92,15.11,8.72L311.5,176l8,4.63Zm-14.72-8.79,14.72,8.5,4.58-2.64-8.19-4.73.31-.07L337.44,170,323,161.67l-4.55,2.63,7.92,4.57Z"/><polygon class="cls-101" points="326.85 176.63 329.53 176.03 326.11 174.06 323.43 174.66 326.85 176.63"/><path class="cls-5" d="M326.83,176.77l-3.74-2.16,3-.68,3.74,2.16Zm-3.06-2.06,3.1,1.79,2.32-.52-3.1-1.79Z"/><polygon class="cls-102" points="317.79 169.25 314.37 167.28 311.68 167.88 315.1 169.85 317.79 169.25"/><path class="cls-5" d="M315.08,170l-3.74-2.16,3-.68,3.74,2.16ZM312,167.93l3.1,1.79,2.32-.52-3.1-1.79Z"/><polygon class="cls-103" points="325.49 176.94 322.07 174.96 319.4 175.56 322.83 177.53 325.49 176.94"/><path class="cls-5" d="M322.81,177.67l-3.74-2.16,3-.68,3.74,2.16Zm-3.06-2.06,3.1,1.79,2.31-.52-3.1-1.79Z"/><polygon class="cls-104" points="310.33 168.18 307.66 168.78 311.08 170.75 313.75 170.16 310.33 168.18"/><path class="cls-5" d="M311.06,170.89l-3.74-2.16,3-.68,3.74,2.16ZM308,168.83l3.1,1.79,2.31-.52-3.1-1.79Z"/><path class="cls-105" d="M332.72,209.76s0,3.63,0,4.56c-.11,4.41,2.74,8.83,8.55,12.19,11.46,6.61,30.1,6.58,41.63-.08,5.77-3.33,8.67-7.69,8.7-12,0-1.46,0-4.62,0-4.62Z"/><path class="cls-5" d="M361.95,231.55c-7.53,0-15-1.65-20.75-4.94s-8.72-7.64-8.61-12.3c0-.92,0-4.52,0-4.55v-.13h59.13v.12s0,3.16,0,4.62c0,4.59-3.14,8.9-8.76,12.14C377.16,229.88,369.54,231.55,361.95,231.55Zm-29.11-21.67c0,.65,0,3.61,0,4.43-.11,4.56,2.9,8.85,8.48,12.08,11.4,6.58,30,6.55,41.51-.08,5.54-3.2,8.61-7.43,8.63-11.93,0-1.29,0-3.9,0-4.5Z"/><path class="cls-106" d="M383,197.7c-11.46-6.61-30.1-6.58-41.63.08s-11.6,17.42-.15,24,30.1,6.58,41.63-.08S394.5,204.31,383,197.7Z"/><path class="cls-5" d="M361.95,226.87c-7.53,0-15-1.65-20.75-4.94-5.55-3.21-8.61-7.49-8.61-12s3.11-8.94,8.76-12.2c11.55-6.67,30.29-6.71,41.76-.08,5.55,3.21,8.61,7.49,8.61,12s-3.11,8.94-8.76,12.2C377.16,225.19,369.54,226.87,361.95,226.87Zm.41-34c-7.55,0-15.12,1.67-20.89,5-5.57,3.21-8.63,7.47-8.63,12s3,8.67,8.49,11.83c11.4,6.58,30,6.55,41.51-.08,5.57-3.21,8.63-7.47,8.63-12s-3-8.67-8.49-11.83C377.31,194.53,369.84,192.89,362.36,192.89Z"/><path class="cls-7" d="M379.39,199.81c-9.45-5.46-24.84-5.43-34.36.07s-9.57,14.38-.12,19.84,24.84,5.43,34.36-.07S388.85,205.26,379.39,199.81Z"/><path class="cls-5" d="M362,223.9c-6.22,0-12.42-1.36-17.13-4.08s-7.12-6.19-7.12-10,2.57-7.4,7.24-10.09c9.54-5.51,25-5.54,34.48-.07,4.59,2.65,7.12,6.19,7.12,10s-2.57,7.4-7.24,10.09S368.26,223.9,362,223.9Zm.34-28c-6.23,0-12.47,1.37-17.23,4.12-4.59,2.65-7.11,6.15-7.11,9.87s2.48,7.14,7,9.75c9.41,5.43,24.76,5.4,34.23-.07,4.59-2.65,7.11-6.16,7.11-9.87s-2.48-7.14-7-9.75C374.65,197.21,368.49,195.86,362.32,195.86Z"/><path class="cls-107" d="M345,199.87c-4.86,2.81-7.25,6.5-7.17,10.17.12-3.51,2.51-7,7.16-9.7,9.52-5.5,24.9-5.53,34.36-.07,4.62,2.67,7,6.16,7,9.67.13-3.67-2.22-7.35-7-10.14C369.94,194.35,354.56,194.38,345,199.87Z"/><path class="cls-5" d="M338,210h-.25c-.09-3.88,2.48-7.53,7.23-10.28,9.54-5.51,25-5.54,34.48-.07,4.72,2.72,7.24,6.36,7.11,10.25h-.25c-.08-3.61-2.56-7-7-9.57-9.41-5.43-24.76-5.4-34.23.07C340.64,203,338.12,206.43,338,210ZM345.1,200h0a15.74,15.74,0,0,0-5.81,5.35,16.36,16.36,0,0,1,5.68-5.1c9.54-5.51,25-5.54,34.48-.07a15.93,15.93,0,0,1,5.65,5.11,15.32,15.32,0,0,0-5.77-5.36c-9.4-5.43-24.76-5.4-34.23.07Z"/><polygon class="cls-108" points="374.54 208.73 381.48 207.19 366.71 198.66 361.9 201.43 369.74 205.95 343.08 211.91 347.9 214.69 358.13 220.6 362.96 217.81 354.86 213.13 374.54 208.73"/><path class="cls-5" d="M358.13,220.74l-15.4-8.89,26.66-6-7.74-4.47,5.05-2.92,15.11,8.72-26.62,5.95,8,4.63ZM343.42,212l14.72,8.5,4.58-2.64-8.19-4.73.31-.07,26.31-5.88-14.43-8.33-4.55,2.63,7.92,4.57Z"/><polygon class="cls-109" points="370.54 213.77 373.22 213.17 369.8 211.2 367.12 211.79 370.54 213.77"/><path class="cls-5" d="M370.52,213.9l-3.74-2.16,3-.68,3.74,2.16Zm-3.06-2.06,3.1,1.79,2.32-.52-3.1-1.79Z"/><polygon class="cls-110" points="361.48 206.39 358.06 204.42 355.38 205.01 358.8 206.99 361.48 206.39"/><path class="cls-5" d="M358.78,207.12,355,205l3-.68,3.74,2.16Zm-3.06-2.06,3.1,1.79,2.32-.52-3.1-1.79Z"/><polygon class="cls-111" points="369.19 214.07 365.77 212.1 363.1 212.69 366.52 214.67 369.19 214.07"/><path class="cls-5" d="M366.5,214.8l-3.74-2.16,3-.68,3.74,2.16Zm-3.06-2.06,3.1,1.79,2.31-.52-3.1-1.79Z"/><polygon class="cls-112" points="354.02 205.32 351.35 205.91 354.77 207.89 357.44 207.29 354.02 205.32"/><path class="cls-5" d="M354.75,208,351,205.86l3-.68,3.74,2.16ZM351.69,206l3.1,1.79,2.31-.52-3.1-1.79Z"/><path class="cls-113" d="M332.72,205.08s0,3.63,0,4.56c-.11,4.41,2.74,8.83,8.55,12.19,11.46,6.61,30.1,6.58,41.63-.08,5.77-3.33,8.67-7.69,8.7-12,0-1.46,0-4.62,0-4.62Z"/><path class="cls-5" d="M361.95,226.87c-7.53,0-15-1.65-20.75-4.94s-8.72-7.64-8.61-12.3c0-.92,0-4.52,0-4.55V205h59.13v.12s0,3.16,0,4.62c0,4.59-3.14,8.9-8.76,12.14C377.16,225.19,369.54,226.87,361.95,226.87ZM332.84,205.2c0,.65,0,3.61,0,4.43-.11,4.56,2.9,8.85,8.48,12.07,11.4,6.58,30,6.55,41.51-.08,5.54-3.2,8.61-7.43,8.63-11.93,0-1.29,0-3.9,0-4.5Z"/><path class="cls-114" d="M383,193c-11.46-6.61-30.1-6.58-41.63.08s-11.6,17.42-.15,24,30.1,6.58,41.63-.08S394.5,199.63,383,193Z"/><path class="cls-5" d="M361.95,222.19c-7.53,0-15-1.65-20.75-4.94-5.55-3.21-8.61-7.49-8.61-12.05s3.11-8.94,8.76-12.2c11.55-6.67,30.29-6.71,41.76-.08h0c5.55,3.21,8.61,7.49,8.61,12.05s-3.11,8.94-8.76,12.2C377.16,220.51,369.54,222.19,361.95,222.19Zm.41-34c-7.55,0-15.12,1.67-20.89,5-5.57,3.21-8.63,7.47-8.63,12s3,8.67,8.49,11.83c11.4,6.58,30,6.55,41.51-.08,5.57-3.21,8.63-7.47,8.63-12s-3-8.67-8.49-11.83h0C377.31,189.85,369.84,188.21,362.36,188.21Z"/><path class="cls-7" d="M379.39,195.12c-9.45-5.46-24.84-5.43-34.36.07s-9.57,14.38-.12,19.84,24.84,5.43,34.36-.07S388.85,200.58,379.39,195.12Z"/><path class="cls-5" d="M362,219.22c-6.22,0-12.42-1.36-17.13-4.08s-7.12-6.19-7.12-10,2.57-7.4,7.24-10.09c9.54-5.51,25-5.54,34.48-.07,4.59,2.65,7.12,6.19,7.12,10s-2.57,7.4-7.24,10.09S368.26,219.22,362,219.22Zm.34-28c-6.23,0-12.47,1.37-17.23,4.12-4.59,2.65-7.11,6.15-7.11,9.87s2.48,7.14,7,9.75c9.41,5.43,24.76,5.4,34.23-.07,4.59-2.65,7.11-6.16,7.11-9.87s-2.48-7.14-7-9.75C374.65,192.53,368.49,191.18,362.32,191.18Z"/><path class="cls-115" d="M345,195.19c-4.86,2.81-7.25,6.5-7.17,10.17.12-3.51,2.51-7,7.16-9.7,9.52-5.5,24.9-5.53,34.36-.07,4.62,2.67,7,6.16,7,9.67.13-3.67-2.22-7.35-7-10.14C369.94,189.66,354.56,189.69,345,195.19Z"/><path class="cls-5" d="M338,205.36h-.25c-.09-3.88,2.48-7.53,7.23-10.28,9.54-5.51,25-5.54,34.48-.07,4.72,2.72,7.24,6.36,7.11,10.25h-.25c-.08-3.62-2.56-7-7-9.56-9.4-5.43-24.76-5.4-34.23.07C340.64,198.34,338.12,201.75,338,205.36Zm7.1-10.06h0a15.74,15.74,0,0,0-5.81,5.34,16.35,16.35,0,0,1,5.68-5.09c9.54-5.51,25-5.54,34.48-.07a15.94,15.94,0,0,1,5.64,5.11,15.33,15.33,0,0,0-5.77-5.36c-9.4-5.43-24.76-5.4-34.23.07Z"/><polygon class="cls-116" points="374.54 204.04 381.48 202.5 366.71 193.97 361.9 196.75 369.74 201.27 343.08 207.22 347.9 210.01 358.13 215.92 362.96 213.13 354.86 208.45 374.54 204.04"/><path class="cls-5" d="M358.13,216.06l-15.4-8.89,26.66-6-7.74-4.47,5.05-2.92,15.11,8.72L355.2,208.5l8,4.63Zm-14.72-8.79,14.72,8.5,4.58-2.64-8.19-4.73.31-.07,26.31-5.88-14.43-8.33-4.55,2.63,7.92,4.57Z"/><polygon class="cls-117" points="370.54 209.09 373.22 208.49 369.8 206.51 367.12 207.11 370.54 209.09"/><path class="cls-5" d="M370.52,209.22l-3.74-2.16,3-.68,3.74,2.16Zm-3.06-2.06,3.1,1.79,2.32-.52-3.1-1.79Z"/><polygon class="cls-118" points="361.48 201.71 358.06 199.73 355.38 200.33 358.8 202.31 361.48 201.71"/><path class="cls-5" d="M358.78,202.44,355,200.28l3-.68,3.74,2.16Zm-3.06-2.06,3.1,1.79,2.32-.52-3.1-1.79Z"/><polygon class="cls-119" points="369.19 209.39 365.77 207.41 363.1 208.01 366.52 209.99 369.19 209.39"/><path class="cls-5" d="M366.5,210.12,362.76,208l3-.68,3.74,2.16Zm-3.06-2.06,3.1,1.79,2.31-.52-3.1-1.79Z"/><polygon class="cls-120" points="354.02 200.63 351.35 201.23 354.77 203.21 357.44 202.61 354.02 200.63"/><path class="cls-5" d="M354.75,203.34,351,201.18l3-.68,3.74,2.16Zm-3.06-2.06,3.1,1.79,2.31-.52-3.1-1.79Z"/><path class="cls-2" d="M377.51,155.88a.5.5,0,0,1-.5-.5v-4a.5.5,0,1,1,1,0v4A.5.5,0,0,1,377.51,155.88Zm0-9a.5.5,0,0,1-.5-.5v-4a.5.5,0,1,1,1,0v4A.5.5,0,0,1,377.51,146.88Zm0-9a.5.5,0,0,1-.5-.5v-4a.5.5,0,1,1,1,0v4A.5.5,0,0,1,377.51,137.88Zm0-9a.5.5,0,0,1-.5-.5v-4a.5.5,0,0,1,1,0v4A.5.5,0,0,1,377.51,128.88Zm-.18-9a.5.5,0,0,1-.5-.45,33.72,33.72,0,0,0-.63-3.89.5.5,0,0,1,1-.22,34.85,34.85,0,0,1,.65,4,.5.5,0,0,1-.45.55Zm-2.07-8.73a.5.5,0,0,1-.47-.32,33.76,33.76,0,0,0-1.62-3.59.5.5,0,0,1,.89-.46,34.7,34.7,0,0,1,1.67,3.7.5.5,0,0,1-.47.68ZM371,103.27a.5.5,0,0,1-.4-.21,34,34,0,0,0-2.5-3,.5.5,0,0,1,.73-.68,35.08,35.08,0,0,1,2.57,3.13.5.5,0,0,1-.4.79Zm-6.19-6.5a.5.5,0,0,1-.31-.11,33.67,33.67,0,0,0-3.21-2.29.5.5,0,1,1,.53-.85,34.6,34.6,0,0,1,3.3,2.35.5.5,0,0,1-.31.89Zm-7.55-4.87a.5.5,0,0,1-.25-.07l-3.44-2a.5.5,0,1,1,.51-.86l3.44,2a.5.5,0,0,1-.25.93Zm-7.75-4.58a.5.5,0,0,1-.25-.07l-3.44-2a.5.5,0,0,1,.51-.86l3.44,2a.5.5,0,0,1-.25.93Zm-7.75-4.58a.5.5,0,0,1-.25-.07l-3.44-2a.5.5,0,0,1,.51-.86l3.44,2a.5.5,0,0,1-.25.93ZM334,78.15a.5.5,0,0,1-.25-.07l-3.44-2a.5.5,0,0,1,.51-.86l3.44,2a.5.5,0,0,1-.25.93Zm-7.75-4.58a.5.5,0,0,1-.25-.07l-3.44-2a.5.5,0,0,1,.51-.86l3.44,2a.5.5,0,0,1-.25.93ZM318.51,69a.5.5,0,0,1-.25-.07l-3.44-2a.5.5,0,0,1,.51-.86l3.44,2a.5.5,0,0,1-.25.93Zm-124.74-.75a.5.5,0,0,1-.5-.5V65a.5.5,0,0,1,1,0v2.76A.5.5,0,0,1,193.77,68.24Zm117-3.83a.5.5,0,0,1-.25-.07l-3.44-2a.5.5,0,0,1,.51-.86l3.44,2a.5.5,0,0,1-.25.93Zm-117-3.93a.5.5,0,0,1-.5-.5V56a.5.5,0,0,1,1,0v4A.5.5,0,0,1,193.77,60.48ZM303,59.83a.5.5,0,0,1-.25-.07l-3.44-2a.5.5,0,0,1,.51-.86l3.44,2a.5.5,0,0,1-.25.93Zm-7.75-4.58a.5.5,0,0,1-.25-.07l-3.44-2a.5.5,0,0,1,.51-.86l3.44,2a.5.5,0,0,1-.25.93Zm-101.5-3.77a.5.5,0,0,1-.5-.5V47a.5.5,0,0,1,1,0v4A.5.5,0,0,1,193.77,51.48Zm93.75-.81a.5.5,0,0,1-.25-.07l-3.44-2a.5.5,0,1,1,.51-.86l3.44,2a.5.5,0,0,1-.25.93Zm-7.75-4.58a.5.5,0,0,1-.25-.07l-3.44-2a.5.5,0,1,1,.51-.86l3.44,2a.5.5,0,0,1-.25.93Zm-86-3.61a.5.5,0,0,1-.5-.5V38a.5.5,0,0,1,1,0v4A.5.5,0,0,1,193.77,42.48Zm78.26-1a.5.5,0,0,1-.25-.07l-3.44-2a.5.5,0,1,1,.51-.86l3.44,2a.5.5,0,0,1-.25.93Zm-7.75-4.58a.5.5,0,0,1-.25-.07l-3.44-2a.5.5,0,0,1,.51-.86l3.44,2a.5.5,0,0,1-.25.93Zm-70.51-3.45a.5.5,0,0,1-.5-.5V29a.5.5,0,0,1,1,0v4A.5.5,0,0,1,193.77,33.48Zm62.76-1.13a.5.5,0,0,1-.25-.07l-3.44-2a.5.5,0,1,1,.51-.86l3.44,2a.5.5,0,0,1-.25.93Zm-7.75-4.58a.5.5,0,0,1-.25-.07l-3.44-2a.5.5,0,0,1,.51-.86l3.44,2a.5.5,0,0,1-.25.93Zm-55-3.29a.5.5,0,0,1-.5-.5V20a.5.5,0,0,1,1,0v4A.5.5,0,0,1,193.77,24.48ZM241,23.19a.5.5,0,0,1-.25-.07l-3.44-2a.5.5,0,0,1,.51-.86l3.44,2a.5.5,0,0,1-.25.93Zm-7.75-4.58a.5.5,0,0,1-.25-.07l-3.44-2a.5.5,0,0,1,.51-.86l3.44,2a.5.5,0,0,1-.25.93Zm-39.46-3.13h0a.5.5,0,0,1-.45-.55,12.61,12.61,0,0,1,1.07-4,.5.5,0,0,1,.91.41,11.62,11.62,0,0,0-1,3.69A.5.5,0,0,1,193.83,15.48ZM225.54,14a.5.5,0,0,1-.25-.07l-3.44-2a.5.5,0,0,1,.51-.86l3.44,2a.5.5,0,0,1-.25.93Zm-7.75-4.58a.5.5,0,0,1-.25-.07l-3.44-2a.5.5,0,0,1,.51-.86l3.44,2a.5.5,0,0,1-.25.93Zm-20-1.82a.5.5,0,0,1-.33-.87,13,13,0,0,1,3.48-2.24.5.5,0,0,1,.4.92,12,12,0,0,0-3.22,2.07A.5.5,0,0,1,197.8,7.64Zm12.13-2.53-.16,0A11.47,11.47,0,0,0,206,4.46a.52.52,0,0,1-.52-.5.48.48,0,0,1,.48-.5,12.53,12.53,0,0,1,4.09.68.5.5,0,0,1-.16,1Z"/><path class="cls-2" d="M377.51,155.31l-4.77-9.73.62-.44a7.18,7.18,0,0,1,8.31,0l.62.44Z"/></g></g></svg>