<svg xmlns="http://www.w3.org/2000/svg" xmlns:xlink="http://www.w3.org/1999/xlink" viewBox="0 0 622.35 336.29"><defs><style>.cls-1{fill:#272c34;}.cls-2,.cls-3{fill:#67eaec;}.cls-3{opacity:0.09;}.cls-4{fill:url(#New_Gradient_Swatch_copy);}.cls-5{fill:url(#New_Gradient_Swatch_copy-2);}.cls-6{fill:url(#New_Gradient_Swatch_copy-3);}.cls-7{fill:#57aff7;}.cls-8{fill:url(#New_Gradient_Swatch_copy-4);}.cls-9{fill:url(#New_Gradient_Swatch_copy-5);}.cls-10{fill:url(#New_Gradient_Swatch);}.cls-11,.cls-37{fill:#424b4f;}.cls-11{opacity:0.5;}.cls-12{fill:url(#New_Gradient_Swatch-2);}.cls-13{fill:#f5ffff;}.cls-14{fill:url(#New_Gradient_Swatch-3);}.cls-15{fill:url(#linear-gradient);}.cls-16{fill:url(#linear-gradient-2);}.cls-17{fill:url(#linear-gradient-3);}.cls-18{fill:url(#linear-gradient-4);}.cls-19{fill:url(#linear-gradient-5);}.cls-20{fill:url(#New_Gradient_Swatch-4);}.cls-21{fill:url(#New_Gradient_Swatch-5);}.cls-22{fill:url(#New_Gradient_Swatch-6);}.cls-23{fill:url(#linear-gradient-6);}.cls-24{fill:url(#linear-gradient-7);}.cls-25{fill:url(#linear-gradient-8);}.cls-26{fill:url(#linear-gradient-9);}.cls-27{fill:url(#linear-gradient-10);}.cls-28{fill:url(#New_Gradient_Swatch-7);}.cls-29{fill:url(#New_Gradient_Swatch_copy-6);}.cls-30{fill:url(#New_Gradient_Swatch_copy-7);}.cls-31{fill:url(#New_Gradient_Swatch-8);}.cls-32{fill:url(#New_Gradient_Swatch_copy-8);}.cls-33{fill:url(#New_Gradient_Swatch_copy-9);}.cls-34{fill:url(#New_Gradient_Swatch-9);}.cls-35{fill:url(#New_Gradient_Swatch_copy-10);}.cls-36{fill:#fff;}.cls-38{fill:url(#New_Gradient_Swatch-10);}.cls-39{fill:url(#New_Gradient_Swatch-11);}.cls-40{fill:url(#New_Gradient_Swatch-12);}.cls-41{fill:url(#linear-gradient-11);}.cls-42{fill:url(#linear-gradient-12);}.cls-43{fill:url(#linear-gradient-13);}.cls-44{fill:url(#linear-gradient-14);}.cls-45{fill:url(#linear-gradient-15);}.cls-46{fill:url(#New_Gradient_Swatch-13);}.cls-47{fill:url(#New_Gradient_Swatch-14);}.cls-48{fill:url(#New_Gradient_Swatch-15);}.cls-49{fill:url(#linear-gradient-16);}.cls-50{fill:url(#linear-gradient-17);}.cls-51{fill:url(#linear-gradient-18);}.cls-52{fill:url(#linear-gradient-19);}.cls-53{fill:url(#linear-gradient-20);}.cls-54{fill:url(#New_Gradient_Swatch-16);}.cls-55{fill:url(#New_Gradient_Swatch-17);}.cls-56{fill:url(#New_Gradient_Swatch-18);}.cls-57{fill:url(#linear-gradient-21);}.cls-58{fill:url(#linear-gradient-22);}.cls-59{fill:url(#linear-gradient-23);}.cls-60{fill:url(#linear-gradient-24);}.cls-61{fill:url(#linear-gradient-25);}.cls-62{fill:url(#New_Gradient_Swatch-19);}.cls-63{fill:url(#New_Gradient_Swatch-20);}.cls-64{fill:url(#New_Gradient_Swatch-21);}.cls-65{fill:url(#linear-gradient-26);}.cls-66{fill:url(#linear-gradient-27);}.cls-67{fill:url(#linear-gradient-28);}.cls-68{fill:url(#linear-gradient-29);}.cls-69{fill:url(#linear-gradient-30);}.cls-70{fill:url(#New_Gradient_Swatch-22);}.cls-71{fill:url(#New_Gradient_Swatch-23);}.cls-72{fill:url(#New_Gradient_Swatch-24);}.cls-73{fill:url(#linear-gradient-31);}.cls-74{fill:url(#linear-gradient-32);}.cls-75{fill:url(#linear-gradient-33);}.cls-76{fill:url(#linear-gradient-34);}.cls-77{fill:url(#linear-gradient-35);}.cls-78{fill:url(#New_Gradient_Swatch-25);}.cls-79{fill:url(#New_Gradient_Swatch-26);}.cls-80{fill:url(#New_Gradient_Swatch-27);}.cls-81{fill:url(#linear-gradient-36);}.cls-82{fill:url(#linear-gradient-37);}.cls-83{fill:url(#linear-gradient-38);}.cls-84{fill:url(#linear-gradient-39);}.cls-85{fill:url(#linear-gradient-40);}.cls-86{fill:url(#New_Gradient_Swatch-28);}.cls-87{fill:url(#New_Gradient_Swatch-29);}.cls-88{fill:url(#New_Gradient_Swatch-30);}.cls-89{fill:url(#linear-gradient-41);}.cls-90{fill:url(#linear-gradient-42);}.cls-91{fill:url(#linear-gradient-43);}.cls-92{fill:url(#linear-gradient-44);}.cls-93{fill:url(#linear-gradient-45);}.cls-94{fill:url(#New_Gradient_Swatch-31);}.cls-95{fill:url(#New_Gradient_Swatch-32);}.cls-96{fill:url(#New_Gradient_Swatch-33);}.cls-97{fill:url(#linear-gradient-46);}.cls-98{fill:url(#linear-gradient-47);}.cls-99{fill:url(#linear-gradient-48);}.cls-100{fill:url(#linear-gradient-49);}.cls-101{fill:url(#linear-gradient-50);}.cls-102{fill:url(#New_Gradient_Swatch-34);}.cls-103{fill:url(#New_Gradient_Swatch-35);}.cls-104{fill:url(#New_Gradient_Swatch-36);}.cls-105{fill:url(#linear-gradient-51);}.cls-106{fill:url(#linear-gradient-52);}.cls-107{fill:url(#linear-gradient-53);}.cls-108{fill:url(#linear-gradient-54);}.cls-109{fill:url(#linear-gradient-55);}.cls-110{fill:url(#New_Gradient_Swatch-37);}.cls-111{fill:url(#New_Gradient_Swatch-38);}.cls-112{fill:url(#New_Gradient_Swatch-39);}.cls-113{fill:url(#linear-gradient-56);}.cls-114{fill:url(#linear-gradient-57);}.cls-115{fill:url(#linear-gradient-58);}.cls-116{fill:url(#linear-gradient-59);}.cls-117{fill:url(#linear-gradient-60);}.cls-118{fill:url(#New_Gradient_Swatch-40);}.cls-119{fill:url(#New_Gradient_Swatch-41);}.cls-120{fill:url(#New_Gradient_Swatch-42);}.cls-121{fill:url(#linear-gradient-61);}.cls-122{fill:url(#linear-gradient-62);}.cls-123{fill:url(#linear-gradient-63);}.cls-124{fill:url(#linear-gradient-64);}.cls-125{fill:url(#linear-gradient-65);}.cls-126{fill:url(#New_Gradient_Swatch-43);}.cls-127{fill:url(#New_Gradient_Swatch-44);}.cls-128{fill:url(#New_Gradient_Swatch-45);}.cls-129{fill:url(#linear-gradient-66);}.cls-130{fill:url(#linear-gradient-67);}.cls-131{fill:url(#linear-gradient-68);}.cls-132{fill:url(#linear-gradient-69);}.cls-133{fill:url(#linear-gradient-70);}.cls-134{opacity:0.4;}.cls-135{fill:url(#linear-gradient-71);}.cls-136{fill:url(#linear-gradient-72);}</style><linearGradient id="New_Gradient_Swatch_copy" x1="-3358.45" y1="153.72" x2="-3269.97" y2="153.72" gradientTransform="matrix(-1, 0, 0, 1, -2848, 0)" gradientUnits="userSpaceOnUse"><stop offset="0" stop-color="#2e3d4a"/><stop offset="1" stop-color="#232329"/></linearGradient><linearGradient id="New_Gradient_Swatch_copy-2" x1="-3358.45" y1="129.72" x2="-3269.97" y2="129.72" xlink:href="#New_Gradient_Swatch_copy"/><linearGradient id="New_Gradient_Swatch_copy-3" x1="311.1" y1="114.02" x2="0.3" y2="114.02" gradientTransform="matrix(1, 0, 0, 1, 0, 0)" xlink:href="#New_Gradient_Swatch_copy"/><linearGradient id="New_Gradient_Swatch_copy-4" x1="156.2" y1="203.52" x2="156.2" y2="203.52" gradientTransform="matrix(1, 0, 0, 1, 0, 0)" xlink:href="#New_Gradient_Swatch_copy"/><linearGradient id="New_Gradient_Swatch_copy-5" x1="155.7" y1="179.74" x2="155.7" y2="0.3" gradientTransform="matrix(1, 0, 0, 1, 0, 0)" xlink:href="#New_Gradient_Swatch_copy"/><linearGradient id="New_Gradient_Swatch" x1="104.41" y1="89.3" x2="163.29" y2="89.3" gradientUnits="userSpaceOnUse"><stop offset="0" stop-color="#5c8ee4"/><stop offset="1" stop-color="#67eaec"/></linearGradient><linearGradient id="New_Gradient_Swatch-2" x1="104.41" y1="78.46" x2="163.29" y2="78.46" xlink:href="#New_Gradient_Swatch"/><linearGradient id="New_Gradient_Swatch-3" x1="158.14" y1="71.59" x2="109.56" y2="71.59" xlink:href="#New_Gradient_Swatch"/><linearGradient id="linear-gradient" x1="-3208.59" y1="-123.89" x2="-3203.68" y2="-143.72" gradientTransform="matrix(-0.14, 0.58, -1.75, 0.14, -563.03, 1967.89)" gradientUnits="userSpaceOnUse"><stop offset="0" stop-color="#5fa5e6"/><stop offset="1" stop-color="#67eaec"/></linearGradient><linearGradient id="linear-gradient-2" x1="-3200.52" y1="-136.71" x2="-3199.46" y2="-141.02" xlink:href="#linear-gradient"/><linearGradient id="linear-gradient-3" x1="-3214.09" y1="-128.88" x2="-3213.02" y2="-133.19" xlink:href="#linear-gradient"/><linearGradient id="linear-gradient-4" x1="-3199.53" y1="-134.49" x2="-3198.46" y2="-138.8" xlink:href="#linear-gradient"/><linearGradient id="linear-gradient-5" x1="-3213.09" y1="-126.66" x2="-3212.03" y2="-130.97" xlink:href="#linear-gradient"/><linearGradient id="New_Gradient_Swatch-4" x1="104.41" y1="84.62" x2="163.29" y2="84.62" xlink:href="#New_Gradient_Swatch"/><linearGradient id="New_Gradient_Swatch-5" x1="104.41" y1="73.78" x2="163.29" y2="73.78" xlink:href="#New_Gradient_Swatch"/><linearGradient id="New_Gradient_Swatch-6" x1="158.14" y1="66.91" x2="109.56" y2="66.91" xlink:href="#New_Gradient_Swatch"/><linearGradient id="linear-gradient-6" x1="-3216.79" y1="-123.21" x2="-3211.88" y2="-143.04" xlink:href="#linear-gradient"/><linearGradient id="linear-gradient-7" x1="-3208.72" y1="-136.04" x2="-3207.66" y2="-140.34" xlink:href="#linear-gradient"/><linearGradient id="linear-gradient-8" x1="-3222.28" y1="-128.21" x2="-3221.22" y2="-132.51" xlink:href="#linear-gradient"/><linearGradient id="linear-gradient-9" x1="-3207.73" y1="-133.82" x2="-3206.66" y2="-138.12" xlink:href="#linear-gradient"/><linearGradient id="linear-gradient-10" x1="-3221.29" y1="-125.99" x2="-3220.22" y2="-130.29" xlink:href="#linear-gradient"/><linearGradient id="New_Gradient_Swatch-7" x1="213.14" y1="148.87" x2="467.27" y2="295.59" xlink:href="#New_Gradient_Swatch"/><linearGradient id="New_Gradient_Swatch_copy-6" x1="184.51" y1="222.23" x2="495.9" y2="222.23" gradientTransform="matrix(1, 0, 0, 1, 0, 0)" xlink:href="#New_Gradient_Swatch_copy"/><linearGradient id="New_Gradient_Swatch_copy-7" x1="184.41" y1="221.73" x2="185" y2="221.73" gradientTransform="matrix(1, 0, 0, 1, 0, 0)" xlink:href="#New_Gradient_Swatch_copy"/><linearGradient id="New_Gradient_Swatch-8" x1="340.71" y1="311.73" x2="340.71" y2="311.73" xlink:href="#New_Gradient_Swatch"/><linearGradient id="New_Gradient_Swatch_copy-8" x1="340.41" y1="311.73" x2="341" y2="311.73" gradientTransform="matrix(1, 0, 0, 1, 0, 0)" xlink:href="#New_Gradient_Swatch_copy"/><linearGradient id="New_Gradient_Swatch_copy-9" x1="495.41" y1="222.73" x2="496" y2="222.73" gradientTransform="matrix(1, 0, 0, 1, 0, 0)" xlink:href="#New_Gradient_Swatch_copy"/><linearGradient id="New_Gradient_Swatch-9" x1="223.54" y1="130.87" x2="456.88" y2="265.59" xlink:href="#New_Gradient_Swatch"/><linearGradient id="New_Gradient_Swatch_copy-10" x1="184.21" y1="198.23" x2="496.2" y2="198.23" gradientTransform="matrix(1, 0, 0, 1, 0, 0)" xlink:href="#New_Gradient_Swatch_copy"/><linearGradient id="New_Gradient_Swatch-10" x1="288.92" y1="197.51" x2="347.8" y2="197.51" xlink:href="#New_Gradient_Swatch"/><linearGradient id="New_Gradient_Swatch-11" x1="288.92" y1="186.67" x2="347.8" y2="186.67" xlink:href="#New_Gradient_Swatch"/><linearGradient id="New_Gradient_Swatch-12" x1="342.65" y1="179.8" x2="294.07" y2="179.8" xlink:href="#New_Gradient_Swatch"/><linearGradient id="linear-gradient-11" x1="-2992.59" y1="-247.14" x2="-2987.69" y2="-266.97" xlink:href="#linear-gradient"/><linearGradient id="linear-gradient-12" x1="-2984.53" y1="-259.96" x2="-2983.46" y2="-264.27" xlink:href="#linear-gradient"/><linearGradient id="linear-gradient-13" x1="-2998.09" y1="-252.13" x2="-2997.02" y2="-256.44" xlink:href="#linear-gradient"/><linearGradient id="linear-gradient-14" x1="-2983.53" y1="-257.74" x2="-2982.47" y2="-262.05" xlink:href="#linear-gradient"/><linearGradient id="linear-gradient-15" x1="-2997.09" y1="-249.91" x2="-2996.03" y2="-254.22" xlink:href="#linear-gradient"/><linearGradient id="New_Gradient_Swatch-13" x1="288.92" y1="192.83" x2="347.8" y2="192.83" xlink:href="#New_Gradient_Swatch"/><linearGradient id="New_Gradient_Swatch-14" x1="288.92" y1="181.99" x2="347.8" y2="181.99" xlink:href="#New_Gradient_Swatch"/><linearGradient id="New_Gradient_Swatch-15" x1="342.65" y1="175.12" x2="294.07" y2="175.12" xlink:href="#New_Gradient_Swatch"/><linearGradient id="linear-gradient-16" x1="-3000.79" y1="-246.46" x2="-2995.88" y2="-266.29" xlink:href="#linear-gradient"/><linearGradient id="linear-gradient-17" x1="-2992.72" y1="-259.28" x2="-2991.66" y2="-263.59" xlink:href="#linear-gradient"/><linearGradient id="linear-gradient-18" x1="-3006.28" y1="-251.45" x2="-3005.22" y2="-255.76" xlink:href="#linear-gradient"/><linearGradient id="linear-gradient-19" x1="-2991.73" y1="-257.07" x2="-2990.66" y2="-261.37" xlink:href="#linear-gradient"/><linearGradient id="linear-gradient-20" x1="-3005.29" y1="-249.24" x2="-3004.22" y2="-253.54" xlink:href="#linear-gradient"/><linearGradient id="New_Gradient_Swatch-16" x1="288.92" y1="188.15" x2="347.8" y2="188.15" xlink:href="#New_Gradient_Swatch"/><linearGradient id="New_Gradient_Swatch-17" x1="288.92" y1="177.31" x2="347.8" y2="177.31" xlink:href="#New_Gradient_Swatch"/><linearGradient id="New_Gradient_Swatch-18" x1="342.65" y1="170.43" x2="294.07" y2="170.43" xlink:href="#New_Gradient_Swatch"/><linearGradient id="linear-gradient-21" x1="-3008.99" y1="-245.78" x2="-3004.08" y2="-265.61" xlink:href="#linear-gradient"/><linearGradient id="linear-gradient-22" x1="-3000.92" y1="-258.61" x2="-2999.85" y2="-262.92" xlink:href="#linear-gradient"/><linearGradient id="linear-gradient-23" x1="-3014.48" y1="-250.78" x2="-3013.41" y2="-255.09" xlink:href="#linear-gradient"/><linearGradient id="linear-gradient-24" x1="-2999.92" y1="-256.39" x2="-2998.86" y2="-260.69" xlink:href="#linear-gradient"/><linearGradient id="linear-gradient-25" x1="-3013.48" y1="-248.56" x2="-3012.42" y2="-252.86" xlink:href="#linear-gradient"/><linearGradient id="New_Gradient_Swatch-19" x1="288.92" y1="183.46" x2="347.8" y2="183.46" xlink:href="#New_Gradient_Swatch"/><linearGradient id="New_Gradient_Swatch-20" x1="288.92" y1="172.62" x2="347.8" y2="172.62" xlink:href="#New_Gradient_Swatch"/><linearGradient id="New_Gradient_Swatch-21" x1="342.65" y1="165.75" x2="294.07" y2="165.75" xlink:href="#New_Gradient_Swatch"/><linearGradient id="linear-gradient-26" x1="-3017.18" y1="-245.11" x2="-3012.28" y2="-264.94" xlink:href="#linear-gradient"/><linearGradient id="linear-gradient-27" x1="-3009.12" y1="-257.93" x2="-3008.05" y2="-262.24" xlink:href="#linear-gradient"/><linearGradient id="linear-gradient-28" x1="-3022.68" y1="-250.1" x2="-3021.61" y2="-254.41" xlink:href="#linear-gradient"/><linearGradient id="linear-gradient-29" x1="-3008.12" y1="-255.71" x2="-3007.06" y2="-260.02" xlink:href="#linear-gradient"/><linearGradient id="linear-gradient-30" x1="-3021.68" y1="-247.88" x2="-3020.62" y2="-252.19" xlink:href="#linear-gradient"/><linearGradient id="New_Gradient_Swatch-22" x1="288.92" y1="178.8" x2="347.8" y2="178.8" xlink:href="#New_Gradient_Swatch"/><linearGradient id="New_Gradient_Swatch-23" x1="288.92" y1="167.96" x2="347.8" y2="167.96" xlink:href="#New_Gradient_Swatch"/><linearGradient id="New_Gradient_Swatch-24" x1="342.65" y1="161.09" x2="294.07" y2="161.09" xlink:href="#New_Gradient_Swatch"/><linearGradient id="linear-gradient-31" x1="-3025.34" y1="-244.43" x2="-3020.43" y2="-264.27" xlink:href="#linear-gradient"/><linearGradient id="linear-gradient-32" x1="-3017.27" y1="-257.26" x2="-3016.2" y2="-261.57" xlink:href="#linear-gradient"/><linearGradient id="linear-gradient-33" x1="-3030.83" y1="-249.43" x2="-3029.77" y2="-253.74" xlink:href="#linear-gradient"/><linearGradient id="linear-gradient-34" x1="-3016.27" y1="-255.04" x2="-3015.21" y2="-259.34" xlink:href="#linear-gradient"/><linearGradient id="linear-gradient-35" x1="-3029.84" y1="-247.21" x2="-3028.77" y2="-251.51" xlink:href="#linear-gradient"/><linearGradient id="New_Gradient_Swatch-25" x1="332.61" y1="220.6" x2="391.49" y2="220.6" xlink:href="#New_Gradient_Swatch"/><linearGradient id="New_Gradient_Swatch-26" x1="332.61" y1="209.76" x2="391.49" y2="209.76" xlink:href="#New_Gradient_Swatch"/><linearGradient id="New_Gradient_Swatch-27" x1="386.34" y1="202.89" x2="337.76" y2="202.89" xlink:href="#New_Gradient_Swatch"/><linearGradient id="linear-gradient-36" x1="-2945.89" y1="-275.96" x2="-2940.98" y2="-295.79" xlink:href="#linear-gradient"/><linearGradient id="linear-gradient-37" x1="-2937.82" y1="-288.78" x2="-2936.75" y2="-293.09" xlink:href="#linear-gradient"/><linearGradient id="linear-gradient-38" x1="-2951.38" y1="-280.95" x2="-2950.32" y2="-285.26" xlink:href="#linear-gradient"/><linearGradient id="linear-gradient-39" x1="-2936.82" y1="-286.56" x2="-2935.76" y2="-290.87" xlink:href="#linear-gradient"/><linearGradient id="linear-gradient-40" x1="-2950.39" y1="-278.73" x2="-2949.32" y2="-283.04" xlink:href="#linear-gradient"/><linearGradient id="New_Gradient_Swatch-28" x1="332.61" y1="215.92" x2="391.49" y2="215.92" xlink:href="#New_Gradient_Swatch"/><linearGradient id="New_Gradient_Swatch-29" x1="332.61" y1="205.07" x2="391.49" y2="205.07" xlink:href="#New_Gradient_Swatch"/><linearGradient id="New_Gradient_Swatch-30" x1="386.34" y1="198.2" x2="337.76" y2="198.2" xlink:href="#New_Gradient_Swatch"/><linearGradient id="linear-gradient-41" x1="-2954.08" y1="-275.28" x2="-2949.18" y2="-295.11" xlink:href="#linear-gradient"/><linearGradient id="linear-gradient-42" x1="-2946.02" y1="-288.1" x2="-2944.95" y2="-292.41" xlink:href="#linear-gradient"/><linearGradient id="linear-gradient-43" x1="-2959.58" y1="-280.27" x2="-2958.51" y2="-284.58" xlink:href="#linear-gradient"/><linearGradient id="linear-gradient-44" x1="-2945.02" y1="-285.89" x2="-2943.96" y2="-290.19" xlink:href="#linear-gradient"/><linearGradient id="linear-gradient-45" x1="-2958.58" y1="-278.06" x2="-2957.52" y2="-282.36" xlink:href="#linear-gradient"/><linearGradient id="New_Gradient_Swatch-31" x1="332.61" y1="211.23" x2="391.49" y2="211.23" xlink:href="#New_Gradient_Swatch"/><linearGradient id="New_Gradient_Swatch-32" x1="332.61" y1="200.39" x2="391.49" y2="200.39" xlink:href="#New_Gradient_Swatch"/><linearGradient id="New_Gradient_Swatch-33" x1="386.34" y1="193.52" x2="337.76" y2="193.52" xlink:href="#New_Gradient_Swatch"/><linearGradient id="linear-gradient-46" x1="-2962.28" y1="-274.6" x2="-2957.37" y2="-294.44" xlink:href="#linear-gradient"/><linearGradient id="linear-gradient-47" x1="-2954.21" y1="-287.43" x2="-2953.15" y2="-291.74" xlink:href="#linear-gradient"/><linearGradient id="linear-gradient-48" x1="-2967.77" y1="-279.6" x2="-2966.71" y2="-283.91" xlink:href="#linear-gradient"/><linearGradient id="linear-gradient-49" x1="-2953.22" y1="-285.21" x2="-2952.15" y2="-289.51" xlink:href="#linear-gradient"/><linearGradient id="linear-gradient-50" x1="-2966.78" y1="-277.38" x2="-2965.71" y2="-281.68" xlink:href="#linear-gradient"/><linearGradient id="New_Gradient_Swatch-34" x1="332.61" y1="206.55" x2="391.49" y2="206.55" xlink:href="#New_Gradient_Swatch"/><linearGradient id="New_Gradient_Swatch-35" x1="332.61" y1="195.71" x2="391.49" y2="195.71" xlink:href="#New_Gradient_Swatch"/><linearGradient id="New_Gradient_Swatch-36" x1="386.34" y1="188.84" x2="337.76" y2="188.84" xlink:href="#New_Gradient_Swatch"/><linearGradient id="linear-gradient-51" x1="-2970.48" y1="-273.93" x2="-2965.57" y2="-293.76" xlink:href="#linear-gradient"/><linearGradient id="linear-gradient-52" x1="-2962.41" y1="-286.75" x2="-2961.34" y2="-291.06" xlink:href="#linear-gradient"/><linearGradient id="linear-gradient-53" x1="-2975.97" y1="-278.92" x2="-2974.9" y2="-283.23" xlink:href="#linear-gradient"/><linearGradient id="linear-gradient-54" x1="-2961.41" y1="-284.53" x2="-2960.35" y2="-288.84" xlink:href="#linear-gradient"/><linearGradient id="linear-gradient-55" x1="-2974.98" y1="-276.7" x2="-2973.91" y2="-281.01" xlink:href="#linear-gradient"/><linearGradient id="New_Gradient_Swatch-37" x1="332.61" y1="201.89" x2="391.49" y2="201.89" xlink:href="#New_Gradient_Swatch"/><linearGradient id="New_Gradient_Swatch-38" x1="332.61" y1="191.05" x2="391.49" y2="191.05" xlink:href="#New_Gradient_Swatch"/><linearGradient id="New_Gradient_Swatch-39" x1="386.34" y1="184.18" x2="337.76" y2="184.18" xlink:href="#New_Gradient_Swatch"/><linearGradient id="linear-gradient-56" x1="-2978.63" y1="-273.25" x2="-2973.72" y2="-293.09" xlink:href="#linear-gradient"/><linearGradient id="linear-gradient-57" x1="-2970.56" y1="-286.08" x2="-2969.5" y2="-290.39" xlink:href="#linear-gradient"/><linearGradient id="linear-gradient-58" x1="-2984.12" y1="-278.25" x2="-2983.06" y2="-282.56" xlink:href="#linear-gradient"/><linearGradient id="linear-gradient-59" x1="-2969.57" y1="-283.86" x2="-2968.5" y2="-288.16" xlink:href="#linear-gradient"/><linearGradient id="linear-gradient-60" x1="-2983.13" y1="-276.03" x2="-2982.06" y2="-280.34" xlink:href="#linear-gradient"/><linearGradient id="New_Gradient_Swatch-40" x1="332.61" y1="197.21" x2="391.49" y2="197.21" xlink:href="#New_Gradient_Swatch"/><linearGradient id="New_Gradient_Swatch-41" x1="332.61" y1="186.36" x2="391.49" y2="186.36" xlink:href="#New_Gradient_Swatch"/><linearGradient id="New_Gradient_Swatch-42" x1="386.34" y1="179.49" x2="337.76" y2="179.49" xlink:href="#New_Gradient_Swatch"/><linearGradient id="linear-gradient-61" x1="-2986.83" y1="-272.58" x2="-2981.92" y2="-292.41" xlink:href="#linear-gradient"/><linearGradient id="linear-gradient-62" x1="-2978.76" y1="-285.4" x2="-2977.69" y2="-289.71" xlink:href="#linear-gradient"/><linearGradient id="linear-gradient-63" x1="-2992.32" y1="-277.57" x2="-2991.26" y2="-281.88" xlink:href="#linear-gradient"/><linearGradient id="linear-gradient-64" x1="-2977.76" y1="-283.18" x2="-2976.7" y2="-287.49" xlink:href="#linear-gradient"/><linearGradient id="linear-gradient-65" x1="-2991.33" y1="-275.36" x2="-2990.26" y2="-279.66" xlink:href="#linear-gradient"/><linearGradient id="New_Gradient_Swatch-43" x1="332.61" y1="192.52" x2="391.49" y2="192.52" xlink:href="#New_Gradient_Swatch"/><linearGradient id="New_Gradient_Swatch-44" x1="332.61" y1="181.68" x2="391.49" y2="181.68" xlink:href="#New_Gradient_Swatch"/><linearGradient id="New_Gradient_Swatch-45" x1="386.34" y1="174.81" x2="337.76" y2="174.81" xlink:href="#New_Gradient_Swatch"/><linearGradient id="linear-gradient-66" x1="-2995.02" y1="-271.9" x2="-2990.12" y2="-291.73" xlink:href="#linear-gradient"/><linearGradient id="linear-gradient-67" x1="-2986.96" y1="-284.73" x2="-2985.89" y2="-289.04" xlink:href="#linear-gradient"/><linearGradient id="linear-gradient-68" x1="-3000.52" y1="-276.9" x2="-2999.45" y2="-281.21" xlink:href="#linear-gradient"/><linearGradient id="linear-gradient-69" x1="-2985.96" y1="-282.51" x2="-2984.9" y2="-286.81" xlink:href="#linear-gradient"/><linearGradient id="linear-gradient-70" x1="-2999.52" y1="-274.68" x2="-2998.46" y2="-278.98" xlink:href="#linear-gradient"/><linearGradient id="linear-gradient-71" x1="-1699.99" y1="67.68" x2="-1653.26" y2="67.68" gradientTransform="translate(2232.58)" gradientUnits="userSpaceOnUse"><stop offset="0" stop-color="#39e6e0"/><stop offset="1" stop-color="#232329"/></linearGradient><linearGradient id="linear-gradient-72" x1="-1691.63" y1="27.63" x2="-1661.62" y2="27.63" xlink:href="#linear-gradient-71"/></defs><title>04_1</title><g id="Layer_2" data-name="Layer 2"><g id="ilus"><path class="cls-1" d="M489.89,77.62c-.34-10,6-20,19.16-27.57,25.72-14.85,67.57-14.77,93.47.19,13.11,7.57,19.61,17.5,19.51,27.38,0,0-.16,14.88,0,23,.2,9.87-6.19,19.75-19.18,27.25-25.72,14.85-67.57,14.77-93.47-.19-13-7.49-19.48-17.28-19.52-27.06C489.83,92.5,489.89,77.62,489.89,77.62Z"/><path class="cls-2" d="M556.42,139.23c-17.06,0-34.15-3.77-47.18-11.29-12.64-7.3-19.62-17-19.67-27.32,0-8,0-22.64,0-23-.36-10.55,6.5-20.44,19.31-27.84C534.67,34.92,576.73,35,602.68,50c12.78,7.38,19.77,17.2,19.66,27.65,0,.15-.16,15,0,23,.21,10.43-6.66,20.2-19.33,27.51S573.32,139.23,556.42,139.23Zm-.93-99.95c-16.79,0-33.54,3.67-46.28,11s-19.37,17-19,27.3h0c0,.15-.06,15,0,23,0,10.1,6.92,19.61,19.37,26.8,25.78,14.88,67.57,15,93.17.19,12.47-7.2,19.23-16.78,19-27-.16-8,0-22.86,0-23,.11-10.22-6.77-19.85-19.36-27.12C589.43,43,572.44,39.28,555.49,39.28Z"/><path class="cls-3" d="M489.89,77.62c-.34-10,6-20,19.16-27.57,25.72-14.85,67.57-14.77,93.47.19,13.11,7.57,19.61,17.5,19.51,27.38,0,0-.16,14.88,0,23,.2,9.87-6.19,19.75-19.18,27.25-25.72,14.85-67.57,14.77-93.47-.19-13-7.49-19.48-17.28-19.52-27.06C489.83,92.5,489.89,77.62,489.89,77.62Z"/><polygon class="cls-1" points="420.45 180.12 510.45 128.12 510.45 104.12 420.45 156.12 420.45 180.12"/><path class="cls-2" d="M420.46,180.42a.3.3,0,0,1-.3-.3v-24a.3.3,0,0,1,.15-.26l90-52a.3.3,0,0,1,.45.26v24a.3.3,0,0,1-.15.26l-90,52A.3.3,0,0,1,420.46,180.42Zm.3-24.13V179.6L510.16,128V104.64Z"/><line class="cls-4" x1="510.46" y1="128.12" x2="421.97" y2="179.31"/><path class="cls-2" d="M422,179.61a.3.3,0,0,1-.15-.56l88.49-51.19a.3.3,0,1,1,.3.52l-88.49,51.19A.3.3,0,0,1,422,179.61Z"/><path class="cls-2" d="M420.74,180.32l6-9,.69.32a7.18,7.18,0,0,1,4.16,7.2l-.07.76Z"/><polygon class="cls-3" points="420.45 180.12 510.45 128.12 510.45 104.12 420.45 156.12 420.45 180.12"/><path class="cls-1" d="M509.06,50.05c-25.72,14.85-25.57,39,.33,54s67.75,15,93.47.19,25.57-39-.33-54S534.78,35.2,509.06,50.05Z"/><path class="cls-2" d="M556.42,115.56c-17.06,0-34.15-3.77-47.18-11.29-12.68-7.32-19.67-17.06-19.67-27.42S496.43,57,508.91,49.79C534.67,34.92,576.73,35,602.68,50,615.36,57.3,622.35,67,622.35,77.39S615.48,97.26,603,104.46C590.18,111.86,573.32,115.56,556.42,115.56ZM509.06,50.05l.15.26c-12.28,7.09-19,16.52-19,26.55s6.88,19.68,19.37,26.9c25.77,14.88,67.57,15,93.17.19,12.28-7.09,19-16.52,19-26.55s-6.88-19.68-19.37-26.89c-25.78-14.88-67.57-15-93.17-.19Z"/><line class="cls-5" x1="510.46" y1="104.12" x2="421.97" y2="155.31"/><path class="cls-2" d="M422,155.61a.3.3,0,0,1-.15-.56l88.49-51.19a.3.3,0,1,1,.3.52l-88.49,51.19A.3.3,0,0,1,422,155.61Z"/><path class="cls-2" d="M420.74,156.32l6-9,.69.32a7.18,7.18,0,0,1,4.16,7.2l-.07.76Z"/><path class="cls-1" d="M543.5,46.38a19.54,19.54,0,0,0,24.92,0c0-.2,10.88,29,10.91,29.13h0c0,3.46-2.22,6.93-6.79,9.56-9.09,5.25-23.87,5.22-33-.06-4.55-2.63-6.85-6.07-6.89-9.5h0C532.62,75.35,543.45,46.18,543.5,46.38Z"/><path class="cls-2" d="M556.12,89.28c-6.06,0-12.13-1.34-16.76-4-4.45-2.57-6.95-6-7-9.65a.27.27,0,0,1,0-.17c0-.15,4.05-11,5.43-14.67,5.48-14.7,5.48-14.7,5.76-14.7a.32.32,0,0,1,.21.08,19.25,19.25,0,0,0,24.51,0,.55.55,0,0,1,.21-.08c.28,0,.28,0,5.76,14.7,1.38,3.71,5.41,14.52,5.43,14.67a.31.31,0,0,1,0,.09c0,3.71-2.44,7.19-6.94,9.78S562.13,89.28,556.12,89.28Zm-23.2-13.8v0c0,3.48,2.43,6.76,6.74,9.25,9,5.22,23.73,5.25,32.72.06C576.69,82.32,579,79,579,75.54c-.31-.85-9.4-25.36-10.71-28.66a19.95,19.95,0,0,1-24.7,0C542.32,50.1,533.61,73.6,532.92,75.47Z"/><circle class="cls-1" cx="555.96" cy="27.63" r="15"/><path class="cls-2" d="M556,42.93a15.3,15.3,0,1,1,15.3-15.3A15.32,15.32,0,0,1,556,42.93Zm0-30a14.71,14.71,0,1,0,14.71,14.71A14.72,14.72,0,0,0,556,12.92Z"/><polygon class="cls-6" points="311.1 90.3 155.21 0.3 0.3 89.74 0.3 137.74 156.18 227.74 311.1 138.3 311.1 90.3"/><path class="cls-7" d="M156.18,228a.3.3,0,0,1-.15,0L.15,138a.3.3,0,0,1-.15-.26v-48a.3.3,0,0,1,.15-.26L155.06,0a.3.3,0,0,1,.3,0L311.25,90a.3.3,0,0,1,.15.26v48a.3.3,0,0,1-.15.26L156.33,228A.3.3,0,0,1,156.18,228ZM.6,137.56l155.58,89.83L310.8,138.13V90.47L155.21.65.6,89.91Z"/><line class="cls-8" x1="156.2" y1="179.52" x2="156.2" y2="227.52"/><path class="cls-7" d="M156.2,227.82a.3.3,0,0,1-.3-.3v-48a.3.3,0,0,1,.6,0v48A.3.3,0,0,1,156.2,227.82Z"/><polygon class="cls-9" points="156.18 179.74 0.3 89.74 155.21 0.3 311.1 90.3 156.18 179.74"/><path class="cls-7" d="M156.18,180a.3.3,0,0,1-.15,0L.15,90a.3.3,0,0,1,0-.52L155.06,0a.3.3,0,0,1,.3,0L311.25,90a.3.3,0,0,1,0,.52L156.33,180A.3.3,0,0,1,156.18,180ZM.9,89.74l155.28,89.65L310.5,90.3,155.21.65Z"/><polygon class="cls-7" points="120.76 76.25 134.72 84.32 136.86 83.08 122.9 75.02 120.76 76.25"/><path class="cls-7" d="M169.36,84.31q.6-3.12-3.4-5.42a16.27,16.27,0,0,0-9.41-2A21.65,21.65,0,0,0,147,79.67q-4.16,2.4-4.78,5.51t3.42,5.43a16.3,16.3,0,0,0,9.39,2,21.59,21.59,0,0,0,9.56-2.75Q168.77,87.43,169.36,84.31Zm-14.48,6.34a11.58,11.58,0,0,1-7.13-1.25q-2.92-1.69-2.17-4.12a7.73,7.73,0,0,1,3.84-4.22,18.18,18.18,0,0,1,7.3-2.22,11.58,11.58,0,0,1,7.13,1.25q2.92,1.68,2.17,4.12a7.73,7.73,0,0,1-3.84,4.22A18.17,18.17,0,0,1,154.89,90.65Z"/><path class="cls-7" d="M190.49,94.48q-.64-1.8-3.68-3.55a16,16,0,0,0-6.17-2,9.53,9.53,0,0,0-6,1.12q-2,1.15-1.92,2.53A4,4,0,0,0,174,95.23q1.29,1.27,2.67,2.51a5.68,5.68,0,0,1,1.76,2.45q.37,1.21-1.12,2.06a6.9,6.9,0,0,1-4.17.9,10.05,10.05,0,0,1-4.18-1.31q-2.77-1.6-3.4-3t1.84-2.88l-2.3-1.33q-3.28,1.9-2.7,4t4,4.07a17.55,17.55,0,0,0,6.88,2.32,10.88,10.88,0,0,0,6.79-1.48q1.95-1.12,1.94-2.54a4,4,0,0,0-1.26-2.73q-1.25-1.32-2.6-2.56a7.26,7.26,0,0,1-1.83-2.38q-.49-1.14.81-1.89a5.69,5.69,0,0,1,3.79-.66,11,11,0,0,1,3.91,1.36q4.26,2.46,1.71,4.6L188.85,98Q191.14,96.28,190.49,94.48Z"/><polygon class="cls-7" points="18.26 128.03 15.99 116.56 13.53 115.14 17.22 131.47 19.29 132.66 22.95 120.58 20.49 119.16 18.26 128.03"/><polygon class="cls-7" points="26.85 120.6 26.85 123.28 30.34 123.7 30.34 139.05 32.71 140.41 32.71 121.24 32.41 121.07 26.85 120.6"/><path class="cls-7" d="M41.29,142q-.65-.38-1-.08a1.31,1.31,0,0,0-.36,1.06,3.07,3.07,0,0,0,.37,1.46,2.61,2.61,0,0,0,1,1.07c.44.26.79.29,1,.1a1.25,1.25,0,0,0,.36-1,3.22,3.22,0,0,0-.36-1.47A2.59,2.59,0,0,0,41.29,142Z"/><path class="cls-7" d="M55.78,145.62A8.48,8.48,0,0,0,54,142.9a2,2,0,0,0,1.58-.8,3.26,3.26,0,0,0,.61-2.07,9.35,9.35,0,0,0-1.22-4.7A8.9,8.9,0,0,0,51.62,132a4.14,4.14,0,0,0-2.33-.67,2,2,0,0,0-1.62.95,4.15,4.15,0,0,0-.58,2.34L49.46,136a1.74,1.74,0,0,1,.61-1.58,1.49,1.49,0,0,1,1.58.17,4,4,0,0,1,1.63,1.69,5.35,5.35,0,0,1,.53,2.43c0,.94-.22,1.54-.64,1.8a1.73,1.73,0,0,1-1.74-.24L50,139.38v2.52l1.4.81a5.12,5.12,0,0,1,2,2,5.49,5.49,0,0,1,.66,2.7c0,1-.21,1.64-.63,1.92s-1,.21-1.74-.21A4.46,4.46,0,0,1,50,147.3a5,5,0,0,1-.63-2.41L47,143.52a9.06,9.06,0,0,0,1.31,4.67,9.25,9.25,0,0,0,3.36,3.41q2.14,1.24,3.46.47t1.31-3.34A8.21,8.21,0,0,0,55.78,145.62Z"/><path class="cls-10" d="M104.41,78.46s0,3.63,0,4.56c-.11,4.41,2.74,8.83,8.55,12.19,11.46,6.61,30.1,6.58,41.63-.08,5.77-3.33,8.67-7.69,8.7-12,0-1.46,0-4.62,0-4.62Z"/><path class="cls-11" d="M133.64,100.26c-7.53,0-15-1.65-20.75-4.94s-8.72-7.64-8.61-12.3c0-.92,0-4.52,0-4.55v-.13h59.13v.12s0,3.16,0,4.62c0,4.59-3.14,8.9-8.76,12.14C148.85,98.58,141.24,100.26,133.64,100.26ZM104.54,78.59c0,.65,0,3.61,0,4.43-.11,4.56,2.9,8.85,8.48,12.08,11.4,6.58,30,6.55,41.51-.08,5.54-3.2,8.61-7.43,8.63-11.93,0-1.29,0-3.9,0-4.5Z"/><path class="cls-12" d="M154.74,66.4c-11.46-6.61-30.1-6.58-41.63.08s-11.6,17.42-.15,24,30.1,6.58,41.63-.08S166.2,73,154.74,66.4Z"/><path class="cls-11" d="M133.64,95.58c-7.53,0-15-1.65-20.75-4.94-5.55-3.21-8.61-7.49-8.61-12s3.11-8.94,8.76-12.2c11.55-6.67,30.29-6.71,41.76-.08,5.55,3.21,8.61,7.49,8.61,12s-3.11,8.94-8.76,12.2C148.85,93.9,141.24,95.57,133.64,95.58Zm.41-34c-7.55,0-15.12,1.67-20.89,5-5.57,3.21-8.63,7.47-8.63,12s3,8.67,8.49,11.83c11.4,6.58,30,6.55,41.51-.08,5.57-3.21,8.63-7.47,8.63-12s-3-8.67-8.49-11.83C149,63.23,141.54,61.6,134.05,61.6Z"/><path class="cls-13" d="M151.09,68.51c-9.45-5.46-24.84-5.43-34.36.07s-9.57,14.38-.12,19.84,24.84,5.43,34.36-.07S160.54,74,151.09,68.51Z"/><path class="cls-11" d="M133.68,92.61c-6.22,0-12.42-1.36-17.13-4.08s-7.12-6.19-7.12-10,2.57-7.4,7.24-10.09c9.54-5.51,25-5.54,34.48-.07h0c4.59,2.65,7.12,6.19,7.12,10s-2.57,7.4-7.24,10.09S140,92.61,133.68,92.61Zm.34-28c-6.23,0-12.47,1.37-17.23,4.12-4.59,2.65-7.11,6.15-7.11,9.87s2.48,7.14,7,9.75c9.41,5.43,24.76,5.4,34.23-.07,4.59-2.65,7.11-6.15,7.11-9.87s-2.48-7.14-7-9.75h0C146.34,65.92,140.19,64.57,134,64.57Z"/><path class="cls-14" d="M116.73,68.58c-4.86,2.81-7.25,6.5-7.17,10.17.12-3.51,2.51-7,7.16-9.7,9.52-5.5,24.9-5.53,34.36-.07,4.62,2.67,7,6.16,7,9.67.13-3.67-2.22-7.35-7-10.14C141.63,63.05,126.25,63.08,116.73,68.58Z"/><path class="cls-11" d="M109.69,78.75h-.25c-.09-3.88,2.48-7.53,7.23-10.28,9.54-5.51,25-5.54,34.48-.07,4.72,2.72,7.24,6.36,7.11,10.25H158c-.08-3.62-2.56-7-7-9.57-9.4-5.43-24.76-5.4-34.23.07C112.33,71.73,109.81,75.13,109.69,78.75Zm7.11-10.06A15.74,15.74,0,0,0,111,74a16.36,16.36,0,0,1,5.68-5.09c9.54-5.51,25-5.54,34.48-.07A15.93,15.93,0,0,1,156.8,74,15.32,15.32,0,0,0,151,68.62c-9.4-5.43-24.76-5.4-34.23.07Z"/><polygon class="cls-15" points="146.24 77.43 153.17 75.89 138.4 67.36 133.6 70.14 141.43 74.66 114.77 80.61 119.59 83.4 129.83 89.31 134.66 86.52 126.55 81.84 146.24 77.43"/><path class="cls-11" d="M129.83,89.45l-15.4-8.89,26.66-6-7.74-4.47,5.05-2.92,15.11,8.72-7.25,1.61-19.37,4.34,8,4.63Zm-14.72-8.79,14.72,8.5,4.58-2.64-8.19-4.73.31-.07,26.3-5.88L138.4,67.51l-4.55,2.63,7.92,4.57Z"/><polygon class="cls-16" points="142.24 82.47 144.92 81.88 141.5 79.9 138.81 80.5 142.24 82.47"/><path class="cls-11" d="M142.22,82.61l-3.74-2.16,3-.68,3.74,2.16Zm-3.06-2.06,3.1,1.79,2.32-.52L141.48,80Z"/><polygon class="cls-17" points="133.17 75.09 129.75 73.12 127.07 73.72 130.49 75.69 133.17 75.09"/><path class="cls-11" d="M130.47,75.83l-3.74-2.16,3-.68,3.74,2.16Zm-3.06-2.06,3.1,1.79,2.32-.52-3.1-1.79Z"/><polygon class="cls-18" points="140.88 82.78 137.46 80.8 134.79 81.4 138.21 83.38 140.88 82.78"/><path class="cls-11" d="M138.19,83.51l-3.74-2.16,3-.68,3.74,2.16Zm-3.06-2.06,3.1,1.79,2.31-.52-3.1-1.79Z"/><polygon class="cls-19" points="125.72 74.02 123.05 74.62 126.47 76.59 129.14 76 125.72 74.02"/><path class="cls-11" d="M126.45,76.73l-3.74-2.16,3-.68L129.48,76Zm-3.06-2.06,3.1,1.79,2.31-.52-3.1-1.79Z"/><path class="cls-20" d="M104.41,73.78s0,3.63,0,4.56c-.11,4.41,2.74,8.83,8.55,12.19,11.46,6.61,30.1,6.58,41.63-.08,5.77-3.33,8.67-7.69,8.7-12,0-1.46,0-4.62,0-4.62Z"/><path class="cls-11" d="M133.64,95.58c-7.53,0-15-1.65-20.75-4.94s-8.72-7.64-8.61-12.3c0-.92,0-4.52,0-4.55v-.13h59.13v.12s0,3.16,0,4.62c0,4.59-3.14,8.9-8.76,12.14C148.85,93.9,141.24,95.58,133.64,95.58ZM104.54,73.91c0,.65,0,3.61,0,4.43-.11,4.56,2.9,8.85,8.48,12.07,11.4,6.58,30,6.55,41.51-.08,5.54-3.2,8.61-7.43,8.63-11.93,0-1.29,0-3.9,0-4.5Z"/><path class="cls-21" d="M154.74,61.72c-11.46-6.61-30.1-6.58-41.63.08s-11.6,17.42-.15,24,30.1,6.58,41.63-.08S166.2,68.33,154.74,61.72Z"/><path class="cls-11" d="M133.64,90.89c-7.53,0-15-1.65-20.75-4.94-5.55-3.21-8.61-7.49-8.61-12S107.39,65,113,61.69C124.59,55,143.33,55,154.8,61.61c5.55,3.21,8.61,7.49,8.61,12.05s-3.11,8.94-8.76,12.2C148.85,89.21,141.24,90.89,133.64,90.89Zm.41-34c-7.55,0-15.12,1.67-20.89,5-5.57,3.21-8.63,7.47-8.63,12s3,8.67,8.49,11.83c11.4,6.58,30,6.55,41.51-.08,5.57-3.21,8.63-7.47,8.63-12s-3-8.67-8.49-11.83C149,58.55,141.54,56.91,134.05,56.91Z"/><path class="cls-13" d="M151.09,63.83c-9.45-5.46-24.84-5.43-34.36.07s-9.57,14.38-.12,19.84,24.84,5.43,34.36-.07S160.54,69.29,151.09,63.83Z"/><path class="cls-11" d="M133.68,87.92c-6.22,0-12.42-1.36-17.13-4.08s-7.12-6.19-7.12-10,2.57-7.4,7.24-10.09c9.54-5.51,25-5.54,34.48-.07h0c4.59,2.65,7.12,6.19,7.12,10s-2.57,7.4-7.24,10.09S140,87.92,133.68,87.92Zm.34-28c-6.23,0-12.47,1.37-17.23,4.12-4.59,2.65-7.11,6.15-7.11,9.87s2.48,7.14,7,9.75c9.41,5.43,24.76,5.4,34.23-.07,4.59-2.65,7.11-6.16,7.11-9.87s-2.48-7.14-7-9.75C146.34,61.23,140.19,59.88,134,59.88Z"/><path class="cls-22" d="M116.73,63.9c-4.86,2.81-7.25,6.5-7.17,10.17.12-3.51,2.51-7,7.16-9.7,9.52-5.5,24.9-5.53,34.36-.07,4.62,2.67,7,6.16,7,9.67.13-3.67-2.22-7.35-7-10.14C141.63,58.37,126.25,58.4,116.73,63.9Z"/><path class="cls-11" d="M109.69,74.07h-.25c-.09-3.88,2.48-7.53,7.23-10.28,9.54-5.51,25-5.54,34.48-.07,4.72,2.72,7.24,6.36,7.11,10.25H158c-.08-3.62-2.56-7-7-9.56-9.4-5.43-24.76-5.4-34.23.07C112.33,67,109.81,70.45,109.69,74.07ZM116.79,64a15.76,15.76,0,0,0-5.8,5.33,16.37,16.37,0,0,1,5.67-5.08c9.54-5.51,25-5.54,34.48-.07a15.93,15.93,0,0,1,5.65,5.12A15.32,15.32,0,0,0,151,63.93c-9.4-5.43-24.76-5.4-34.23.07Z"/><polygon class="cls-23" points="146.24 72.75 153.17 71.21 138.4 62.68 133.6 65.45 141.43 69.97 114.77 75.93 119.59 78.71 129.83 84.62 134.66 81.83 126.55 77.16 146.24 72.75"/><path class="cls-11" d="M129.83,84.77l-15.4-8.89,26.66-6-7.74-4.47,5.05-2.92,15.11,8.72-7.25,1.61-19.37,4.34,8,4.63ZM115.11,76l14.72,8.5,4.58-2.64-8.19-4.73.31-.07,26.3-5.88L138.4,62.82l-4.55,2.63L141.77,70Z"/><polygon class="cls-24" points="142.24 77.79 144.92 77.19 141.5 75.22 138.81 75.82 142.24 77.79"/><path class="cls-11" d="M142.22,77.92l-3.74-2.16,3-.68,3.74,2.16Zm-3.06-2.06,3.1,1.79,2.32-.52-3.1-1.79Z"/><polygon class="cls-25" points="133.17 70.41 129.75 68.44 127.07 69.04 130.49 71.01 133.17 70.41"/><path class="cls-11" d="M130.47,71.14,126.73,69l3-.68,3.74,2.16Zm-3.06-2.06,3.1,1.79,2.32-.52-3.1-1.79Z"/><polygon class="cls-26" points="140.88 78.09 137.46 76.12 134.79 76.72 138.21 78.69 140.88 78.09"/><path class="cls-11" d="M138.19,78.82l-3.74-2.16,3-.68,3.74,2.16Zm-3.06-2.06,3.1,1.79,2.31-.52-3.1-1.79Z"/><polygon class="cls-27" points="125.72 69.34 123.05 69.94 126.47 71.91 129.14 71.31 125.72 69.34"/><path class="cls-11" d="M126.45,72l-3.74-2.16,3-.68,3.74,2.16ZM123.39,70l3.1,1.79,2.31-.52-3.1-1.79Z"/><polygon class="cls-28" points="495.6 198.51 339.72 108.51 184.81 197.95 184.81 245.95 340.69 335.95 495.6 246.51 495.6 198.51"/><path class="cls-29" d="M340.69,336.29l-.15-.09-156-90.09V197.77l.15-.09,155.06-89.52.15.09,156,90.09v48.35l-.15.09ZM185.11,245.77,340.69,335.6,495.3,246.34V198.68L339.72,108.86,185.11,198.12Z"/><path class="cls-30" d="M184.71,246a.3.3,0,0,1-.3-.3v-48a.3.3,0,0,1,.6,0v48A.3.3,0,0,1,184.71,246Z"/><line class="cls-31" x1="340.71" y1="287.73" x2="340.71" y2="335.73"/><rect class="cls-32" x="340.41" y="287.73" width="0.6" height="48"/><path class="cls-33" d="M495.71,247a.3.3,0,0,1-.3-.3v-48a.3.3,0,1,1,.6,0v48A.3.3,0,0,1,495.71,247Z"/><polygon class="cls-34" points="340.69 287.95 184.81 197.95 339.72 108.51 495.6 198.51 340.69 287.95"/><path class="cls-35" d="M340.69,288.29l-.15-.09L184.21,197.95l.45-.26,155.06-89.52.15.09L496.2,198.51l-.45.26ZM185.41,197.95,340.69,287.6,495,198.51,339.72,108.86Z"/><path class="cls-36" d="M305.27,184.46l2.14-1.23,14,8.06-2.14,1.23Z"/><path class="cls-36" d="M330.17,198.82q-4-2.33-3.42-5.43t4.78-5.51a21.66,21.66,0,0,1,9.54-2.76,16.27,16.27,0,0,1,9.41,2q4,2.31,3.4,5.42T349.12,198a21.59,21.59,0,0,1-9.56,2.75A16.3,16.3,0,0,1,330.17,198.82Zm-.07-5.33q-.75,2.43,2.17,4.12a11.58,11.58,0,0,0,7.13,1.25,18.17,18.17,0,0,0,7.3-2.22,7.73,7.73,0,0,0,3.84-4.22q.75-2.43-2.17-4.12a11.58,11.58,0,0,0-7.13-1.25,18.17,18.17,0,0,0-7.3,2.22A7.73,7.73,0,0,0,330.1,193.49Z"/><path class="cls-36" d="M351,210.84q-3.46-2-4-4.07t2.7-4l2.3,1.33q-2.48,1.43-1.84,2.88t3.4,3a10.06,10.06,0,0,0,4.18,1.31,6.9,6.9,0,0,0,4.17-.9q1.49-.86,1.12-2.06a5.68,5.68,0,0,0-1.76-2.45q-1.39-1.24-2.67-2.51a4,4,0,0,1-1.35-2.66q-.07-1.38,1.92-2.53a9.53,9.53,0,0,1,6-1.12,16,16,0,0,1,6.17,2q3,1.75,3.68,3.55t-1.65,3.48l-2.23-1.29q2.55-2.14-1.71-4.6a11,11,0,0,0-3.91-1.36,5.69,5.69,0,0,0-3.79.66q-1.3.75-.81,1.89a7.26,7.26,0,0,0,1.83,2.38q1.35,1.24,2.6,2.56a4,4,0,0,1,1.26,2.73q0,1.41-1.94,2.54a10.88,10.88,0,0,1-6.79,1.48A17.55,17.55,0,0,1,351,210.84Z"/><polygon class="cls-37" points="202.88 235.35 200.68 224.18 198.28 222.8 201.87 238.7 203.88 239.86 207.45 228.09 205.06 226.71 202.88 235.35"/><polygon class="cls-37" points="211.25 228.12 211.25 230.72 214.65 231.13 214.65 246.08 216.96 247.41 216.96 228.74 216.66 228.57 211.25 228.12"/><path class="cls-37" d="M225.31,249c-.42-.25-.75-.27-1-.08a1.27,1.27,0,0,0-.35,1,3,3,0,0,0,.36,1.42,2.54,2.54,0,0,0,1,1c.43.25.76.28,1,.1a1.22,1.22,0,0,0,.35-1,3.14,3.14,0,0,0-.35-1.44A2.52,2.52,0,0,0,225.31,249Z"/><path class="cls-37" d="M238.93,253.46v-12l-2.39-1.38-6,9.12.07,1.93,6,3.46v4.14l2.31,1.33V256l1.72,1v-2.49Zm-2.31-1.33L233,250l3.45-5.37.17-.31Z"/><path class="cls-38" d="M288.92,186.67s0,3.63,0,4.56c-.11,4.41,2.74,8.83,8.55,12.19,11.46,6.61,30.1,6.58,41.63-.08,5.77-3.33,8.67-7.69,8.7-12,0-1.46,0-4.62,0-4.62Z"/><path class="cls-11" d="M318.15,208.47c-7.53,0-15-1.65-20.75-4.94s-8.72-7.64-8.61-12.3c0-.92,0-4.52,0-4.55v-.13h59.13v.12s0,3.18,0,4.62c0,4.59-3.14,8.9-8.76,12.14C333.36,206.79,325.75,208.47,318.15,208.47ZM289,186.8c0,.65,0,3.61,0,4.43-.11,4.56,2.9,8.85,8.48,12.07,11.41,6.58,30,6.55,41.51-.08,5.54-3.2,8.61-7.43,8.63-11.93,0-1.28,0-3.9,0-4.5Z"/><path class="cls-39" d="M339.25,174.61c-11.46-6.61-30.1-6.58-41.63.08s-11.6,17.42-.15,24,30.1,6.58,41.63-.08S350.7,181.23,339.25,174.61Z"/><path class="cls-11" d="M318.15,203.79c-7.53,0-15-1.65-20.75-4.94-5.55-3.21-8.61-7.49-8.61-12s3.11-8.94,8.76-12.2c11.55-6.67,30.29-6.71,41.76-.08,5.55,3.21,8.61,7.49,8.61,12.05s-3.11,8.94-8.76,12.2C333.36,202.11,325.75,203.79,318.15,203.79Zm.41-34c-7.55,0-15.12,1.67-20.89,5-5.57,3.21-8.63,7.47-8.63,12s3,8.67,8.49,11.83c11.41,6.58,30,6.55,41.51-.08,5.57-3.21,8.63-7.47,8.63-12s-3-8.67-8.49-11.83C333.51,171.44,326,169.81,318.56,169.81Z"/><path class="cls-13" d="M335.6,176.72c-9.45-5.46-24.84-5.43-34.36.07s-9.57,14.38-.12,19.84,24.84,5.43,34.36-.07S345.05,182.18,335.6,176.72Z"/><path class="cls-11" d="M318.19,200.82c-6.22,0-12.42-1.36-17.13-4.08s-7.12-6.19-7.12-10,2.57-7.4,7.24-10.09c9.54-5.51,25-5.54,34.48-.07,4.59,2.65,7.12,6.19,7.12,10s-2.57,7.4-7.24,10.09S324.46,200.82,318.19,200.82Zm.34-28c-6.23,0-12.47,1.37-17.23,4.12-4.59,2.65-7.11,6.15-7.11,9.87s2.48,7.14,7,9.75c9.41,5.43,24.76,5.4,34.23-.07,4.59-2.65,7.11-6.16,7.11-9.87s-2.48-7.14-7-9.75C330.85,174.13,324.7,172.78,318.53,172.78Z"/><path class="cls-40" d="M301.24,176.79c-4.86,2.81-7.25,6.5-7.17,10.17.12-3.51,2.51-7,7.16-9.7,9.52-5.5,24.9-5.53,34.36-.07,4.62,2.67,7,6.16,7,9.67.13-3.67-2.22-7.35-7-10.14C326.14,171.26,310.76,171.29,301.24,176.79Z"/><path class="cls-11" d="M294.2,187h-.25c-.09-3.88,2.48-7.53,7.23-10.28,9.54-5.51,25-5.54,34.48-.07,4.72,2.72,7.24,6.36,7.11,10.25h-.25c-.08-3.61-2.56-7-7-9.56-9.4-5.43-24.76-5.4-34.23.07C296.84,179.94,294.32,183.34,294.2,187Zm7.1-10.06a15.76,15.76,0,0,0-5.8,5.33,16.37,16.37,0,0,1,5.67-5.08c9.54-5.51,25-5.54,34.48-.07a15.94,15.94,0,0,1,5.64,5.11,15.33,15.33,0,0,0-5.76-5.36c-9.4-5.43-24.76-5.4-34.23.07Z"/><polygon class="cls-41" points="330.75 185.64 337.68 184.1 322.91 175.57 318.11 178.34 325.94 182.87 299.28 188.82 304.1 191.61 314.34 197.51 319.16 194.73 311.06 190.05 330.75 185.64"/><path class="cls-11" d="M314.34,197.66l-15.4-8.89,26.66-6-7.74-4.47,5.05-2.92L338,184.15l-7.25,1.61L311.4,190.1l8,4.63Zm-14.72-8.79,14.72,8.5,4.58-2.64L310.72,190l.31-.07,26.3-5.88-14.43-8.33-4.55,2.63,7.92,4.57Z"/><polygon class="cls-42" points="326.74 190.69 329.43 190.09 326.01 188.11 323.32 188.71 326.74 190.69"/><path class="cls-11" d="M326.72,190.82,323,188.66l3-.68,3.74,2.16Zm-3.06-2.06,3.1,1.79,2.32-.52-3.1-1.79Z"/><polygon class="cls-43" points="317.68 183.3 314.26 181.33 311.58 181.93 315 183.9 317.68 183.3"/><path class="cls-11" d="M315,184l-3.74-2.16,3-.68,3.74,2.16ZM311.92,182l3.1,1.79,2.32-.52-3.1-1.79Z"/><polygon class="cls-44" points="325.39 190.99 321.97 189.01 319.3 189.61 322.72 191.59 325.39 190.99"/><path class="cls-11" d="M322.7,191.72,319,189.56l3-.68,3.74,2.16Zm-3.06-2.06,3.1,1.79,2.31-.52-3.1-1.79Z"/><polygon class="cls-45" points="310.22 182.23 307.55 182.83 310.98 184.81 313.65 184.21 310.22 182.23"/><path class="cls-11" d="M311,184.94l-3.74-2.16,3-.68,3.74,2.16Zm-3.06-2.06,3.1,1.79,2.31-.52-3.1-1.79Z"/><path class="cls-46" d="M288.92,182s0,3.63,0,4.56c-.11,4.41,2.74,8.83,8.55,12.19,11.46,6.61,30.1,6.58,41.63-.08,5.77-3.33,8.67-7.69,8.7-12,0-1.46,0-4.62,0-4.62Z"/><path class="cls-11" d="M318.15,203.79c-7.53,0-15-1.65-20.75-4.94s-8.72-7.64-8.61-12.3c0-.92,0-4.52,0-4.55v-.13h59.13V182s0,3.18,0,4.62c0,4.59-3.14,8.9-8.76,12.14C333.36,202.11,325.75,203.79,318.15,203.79ZM289,182.12c0,.65,0,3.61,0,4.44-.11,4.56,2.9,8.85,8.48,12.07,11.41,6.58,30,6.55,41.51-.08,5.54-3.2,8.61-7.43,8.63-11.93,0-1.28,0-3.9,0-4.5Z"/><path class="cls-47" d="M339.25,169.93c-11.46-6.61-30.1-6.58-41.63.08s-11.6,17.42-.15,24,30.1,6.58,41.63-.08S350.7,176.54,339.25,169.93Z"/><path class="cls-11" d="M318.15,199.1c-7.53,0-15-1.65-20.75-4.94-5.55-3.21-8.61-7.49-8.61-12.05s3.11-8.94,8.76-12.2c11.55-6.67,30.29-6.71,41.76-.08,5.55,3.21,8.61,7.49,8.61,12.05s-3.11,8.94-8.76,12.2C333.36,197.42,325.75,199.1,318.15,199.1Zm.41-34c-7.55,0-15.12,1.67-20.89,5-5.57,3.21-8.63,7.47-8.63,12s3,8.67,8.49,11.83c11.41,6.58,30,6.55,41.51-.08,5.57-3.21,8.63-7.47,8.63-12s-3-8.67-8.49-11.83h0C333.51,166.76,326,165.12,318.56,165.12Z"/><path class="cls-13" d="M335.6,172c-9.45-5.46-24.84-5.43-34.36.07s-9.57,14.38-.12,19.84,24.84,5.43,34.36-.07S345.05,177.49,335.6,172Z"/><path class="cls-11" d="M318.19,196.13c-6.22,0-12.42-1.36-17.13-4.08s-7.12-6.19-7.12-10,2.57-7.4,7.24-10.09c9.54-5.51,25-5.54,34.48-.07h0c4.59,2.65,7.12,6.19,7.12,10s-2.57,7.4-7.24,10.09S324.46,196.13,318.19,196.13Zm.34-28c-6.23,0-12.47,1.37-17.23,4.12-4.59,2.65-7.11,6.16-7.11,9.87s2.48,7.14,7,9.75c9.41,5.43,24.76,5.4,34.23-.07,4.59-2.65,7.11-6.15,7.11-9.87s-2.48-7.14-7-9.75h0C330.85,169.44,324.7,168.09,318.53,168.09Z"/><path class="cls-48" d="M301.24,172.11c-4.86,2.81-7.25,6.5-7.17,10.17.12-3.51,2.51-7,7.16-9.7,9.52-5.5,24.9-5.53,34.36-.07,4.62,2.67,7,6.16,7,9.67.13-3.67-2.22-7.35-7-10.14C326.14,166.58,310.76,166.61,301.24,172.11Z"/><path class="cls-11" d="M294.2,182.28h-.25c-.09-3.88,2.48-7.53,7.23-10.28h0c9.54-5.51,25-5.54,34.48-.07,4.72,2.72,7.24,6.36,7.11,10.25h-.25c-.08-3.61-2.56-7-7-9.57-9.4-5.43-24.76-5.4-34.23.07C296.84,175.25,294.32,178.66,294.2,182.28Zm7.1-10.06a15.75,15.75,0,0,0-5.8,5.34,16.36,16.36,0,0,1,5.68-5.09c9.54-5.51,25-5.54,34.48-.07a15.94,15.94,0,0,1,5.64,5.11,15.32,15.32,0,0,0-5.77-5.36c-9.4-5.43-24.76-5.4-34.23.07Z"/><polygon class="cls-49" points="330.75 180.96 337.68 179.42 322.91 170.89 318.11 173.66 325.94 178.18 299.28 184.14 304.1 186.92 314.34 192.83 319.16 190.04 311.06 185.37 330.75 180.96"/><path class="cls-11" d="M314.34,193l-15.4-8.89,26.66-6-7.74-4.47,5.05-2.92L338,179.47l-7.25,1.61-19.37,4.34,8,4.63Zm-14.72-8.79,14.72,8.5,4.58-2.64-8.19-4.73.31-.07,26.3-5.88L322.91,171l-4.55,2.63,7.92,4.57Z"/><polygon class="cls-50" points="326.74 186 329.43 185.4 326.01 183.43 323.32 184.03 326.74 186"/><path class="cls-11" d="M326.72,186.13,323,184l3-.68,3.74,2.16Zm-3.06-2.06,3.1,1.79,2.32-.52-3.1-1.79Z"/><polygon class="cls-51" points="317.68 178.62 314.26 176.65 311.58 177.25 315 179.22 317.68 178.62"/><path class="cls-11" d="M315,179.35l-3.74-2.16,3-.68,3.74,2.16Zm-3.06-2.06,3.1,1.79,2.32-.52-3.1-1.79Z"/><polygon class="cls-52" points="325.39 186.3 321.97 184.33 319.3 184.93 322.72 186.9 325.39 186.3"/><path class="cls-11" d="M322.7,187,319,184.87l3-.68,3.74,2.16ZM319.64,185l3.1,1.79,2.31-.52-3.1-1.79Z"/><polygon class="cls-53" points="310.22 177.55 307.55 178.14 310.98 180.12 313.65 179.52 310.22 177.55"/><path class="cls-11" d="M311,180.25l-3.74-2.16,3-.68,3.74,2.16Zm-3.06-2.06L311,180l2.31-.52-3.1-1.79Z"/><path class="cls-54" d="M288.92,177.31s0,3.63,0,4.56c-.11,4.41,2.74,8.83,8.55,12.19,11.46,6.61,30.1,6.58,41.63-.08,5.77-3.33,8.67-7.69,8.7-12,0-1.46,0-4.62,0-4.62Z"/><path class="cls-11" d="M318.15,199.1c-7.53,0-15-1.65-20.75-4.94s-8.72-7.64-8.61-12.3c0-.92,0-4.52,0-4.55v-.13h59.13v.12s0,3.18,0,4.62c0,4.59-3.14,8.9-8.76,12.14C333.36,197.42,325.75,199.1,318.15,199.1ZM289,177.43c0,.65,0,3.61,0,4.43-.11,4.56,2.9,8.85,8.48,12.08,11.41,6.58,30,6.55,41.51-.08,5.54-3.2,8.61-7.43,8.63-11.93,0-1.28,0-3.9,0-4.5Z"/><path class="cls-55" d="M339.25,165.24c-11.46-6.61-30.1-6.58-41.63.08s-11.6,17.42-.15,24,30.1,6.58,41.63-.08S350.7,171.86,339.25,165.24Z"/><path class="cls-11" d="M318.15,194.42c-7.53,0-15-1.65-20.75-4.94-5.55-3.21-8.61-7.49-8.61-12s3.11-8.94,8.76-12.2c11.55-6.67,30.29-6.71,41.76-.08,5.55,3.21,8.61,7.49,8.61,12.05s-3.11,8.94-8.76,12.2C333.36,192.74,325.75,194.42,318.15,194.42Zm.41-34c-7.55,0-15.12,1.67-20.89,5-5.57,3.21-8.63,7.47-8.63,12s3,8.67,8.49,11.83c11.41,6.58,30,6.55,41.51-.08,5.57-3.21,8.63-7.47,8.63-12s-3-8.67-8.49-11.83h0C333.51,162.08,326,160.44,318.56,160.44Z"/><path class="cls-13" d="M335.6,167.35c-9.45-5.46-24.84-5.43-34.36.07s-9.57,14.38-.12,19.84,24.84,5.43,34.36-.07S345.05,172.81,335.6,167.35Z"/><path class="cls-11" d="M318.19,191.45c-6.22,0-12.42-1.36-17.13-4.08s-7.12-6.19-7.12-10,2.57-7.4,7.24-10.09c9.54-5.51,25-5.54,34.48-.07,4.59,2.65,7.12,6.19,7.12,10s-2.57,7.4-7.24,10.09S324.46,191.45,318.19,191.45Zm.34-28c-6.23,0-12.47,1.37-17.23,4.12-4.59,2.65-7.11,6.15-7.11,9.87s2.48,7.14,7,9.75c9.41,5.43,24.76,5.4,34.23-.07,4.59-2.65,7.11-6.15,7.11-9.87s-2.48-7.14-7-9.75C330.85,164.76,324.7,163.41,318.53,163.41Z"/><path class="cls-56" d="M301.24,167.42c-4.86,2.81-7.25,6.5-7.17,10.17.12-3.51,2.51-7,7.16-9.7,9.52-5.5,24.9-5.53,34.36-.07,4.62,2.67,7,6.16,7,9.67.13-3.67-2.22-7.35-7-10.14C326.14,161.89,310.76,161.92,301.24,167.42Z"/><path class="cls-11" d="M294.2,177.59h-.25c-.09-3.88,2.48-7.53,7.23-10.28,9.54-5.51,25-5.54,34.48-.07,4.72,2.72,7.24,6.36,7.11,10.25h-.25c-.08-3.61-2.56-7-7-9.57-9.4-5.43-24.76-5.4-34.23.07C296.84,170.57,294.32,174,294.2,177.59Zm7.1-10.06a15.75,15.75,0,0,0-5.8,5.34,16.37,16.37,0,0,1,5.68-5.09c9.54-5.51,25-5.54,34.48-.07a15.94,15.94,0,0,1,5.64,5.11,15.33,15.33,0,0,0-5.77-5.36c-9.4-5.43-24.76-5.4-34.23.07Z"/><polygon class="cls-57" points="330.75 176.28 337.68 174.73 322.91 166.21 318.11 168.98 325.94 173.5 299.28 179.45 304.1 182.24 314.34 188.15 319.16 185.36 311.06 180.68 330.75 176.28"/><path class="cls-11" d="M314.34,188.29l-15.4-8.89,26.66-6L317.86,169l5.05-2.92L338,174.78l-7.25,1.61-19.37,4.34,8,4.63Zm-14.72-8.79,14.72,8.5,4.58-2.64-8.19-4.73.31-.07,26.3-5.88-14.43-8.33L318.36,169l7.92,4.57Z"/><polygon class="cls-58" points="326.74 181.32 329.43 180.72 326.01 178.74 323.32 179.34 326.74 181.32"/><path class="cls-11" d="M326.72,181.45,323,179.29l3-.68,3.74,2.16Zm-3.06-2.06,3.1,1.79,2.32-.52-3.1-1.79Z"/><polygon class="cls-59" points="317.68 173.94 314.26 171.96 311.58 172.56 315 174.54 317.68 173.94"/><path class="cls-11" d="M315,174.67l-3.74-2.16,3-.68L318,174Zm-3.06-2.06,3.1,1.79,2.32-.52-3.1-1.79Z"/><polygon class="cls-60" points="325.39 181.62 321.97 179.65 319.3 180.24 322.72 182.22 325.39 181.62"/><path class="cls-11" d="M322.7,182.35,319,180.19l3-.68,3.74,2.16Zm-3.06-2.06,3.1,1.79,2.31-.52-3.1-1.79Z"/><polygon class="cls-61" points="310.22 172.86 307.55 173.46 310.98 175.44 313.65 174.84 310.22 172.86"/><path class="cls-11" d="M311,175.57l-3.74-2.16,3-.68,3.74,2.16Zm-3.06-2.06,3.1,1.79,2.31-.52L310.2,173Z"/><path class="cls-62" d="M288.92,172.62s0,3.63,0,4.56c-.11,4.41,2.74,8.83,8.55,12.19,11.46,6.61,30.1,6.58,41.63-.08,5.77-3.33,8.67-7.69,8.7-12,0-1.46,0-4.62,0-4.62Z"/><path class="cls-11" d="M318.15,194.42c-7.53,0-15-1.65-20.75-4.94s-8.72-7.64-8.61-12.3c0-.92,0-4.52,0-4.55v-.13h59.13v.12s0,3.18,0,4.62c0,4.59-3.14,8.9-8.76,12.14C333.36,192.74,325.75,194.42,318.15,194.42ZM289,172.75c0,.65,0,3.61,0,4.43-.11,4.56,2.9,8.85,8.48,12.07,11.41,6.58,30,6.55,41.51-.08,5.54-3.2,8.61-7.43,8.63-11.93,0-1.28,0-3.9,0-4.5Z"/><path class="cls-63" d="M339.25,160.56c-11.46-6.61-30.1-6.58-41.63.08s-11.6,17.42-.15,24,30.1,6.58,41.63-.08S350.7,167.18,339.25,160.56Z"/><path class="cls-11" d="M318.15,189.73c-7.53,0-15-1.65-20.75-4.94-5.55-3.21-8.61-7.49-8.61-12s3.11-8.94,8.76-12.2c11.55-6.67,30.29-6.71,41.76-.08,5.55,3.21,8.61,7.49,8.61,12.05s-3.11,8.94-8.76,12.2C333.36,188.06,325.75,189.73,318.15,189.73Zm.41-34c-7.55,0-15.12,1.67-20.89,5-5.57,3.21-8.63,7.47-8.63,12s3,8.67,8.49,11.83c11.41,6.58,30,6.55,41.51-.08,5.57-3.21,8.63-7.47,8.63-12s-3-8.67-8.49-11.83C333.51,157.39,326,155.76,318.56,155.76Z"/><path class="cls-13" d="M335.6,162.67c-9.45-5.46-24.84-5.43-34.36.07s-9.57,14.38-.12,19.84,24.84,5.43,34.36-.07S345.05,168.13,335.6,162.67Z"/><path class="cls-11" d="M318.19,186.76c-6.22,0-12.42-1.36-17.13-4.08s-7.12-6.19-7.12-10,2.57-7.4,7.24-10.09c9.54-5.51,25-5.54,34.48-.07,4.59,2.65,7.12,6.19,7.12,10s-2.57,7.4-7.24,10.09S324.46,186.76,318.19,186.76Zm.34-28c-6.23,0-12.47,1.37-17.23,4.12-4.59,2.65-7.11,6.15-7.11,9.87s2.48,7.14,7,9.75c9.41,5.43,24.76,5.4,34.23-.07,4.59-2.65,7.11-6.16,7.11-9.87s-2.48-7.14-7-9.75C330.85,160.07,324.7,158.72,318.53,158.72Z"/><path class="cls-64" d="M301.24,162.74c-4.86,2.81-7.25,6.5-7.17,10.17.12-3.51,2.51-7,7.16-9.7,9.52-5.5,24.9-5.53,34.36-.07,4.62,2.67,7,6.16,7,9.67.13-3.67-2.22-7.35-7-10.14C326.14,157.21,310.76,157.24,301.24,162.74Z"/><path class="cls-11" d="M294.2,172.91h-.25c-.09-3.88,2.48-7.53,7.23-10.28,9.54-5.51,25-5.54,34.48-.07,4.72,2.72,7.24,6.36,7.11,10.25h-.25c-.08-3.61-2.56-7-7-9.56-9.4-5.43-24.76-5.4-34.23.07C296.84,165.88,294.32,169.29,294.2,172.91Zm7.1-10.06a15.76,15.76,0,0,0-5.8,5.33,16.37,16.37,0,0,1,5.67-5.08c9.54-5.51,25-5.54,34.48-.07a16,16,0,0,1,5.64,5.11,15.33,15.33,0,0,0-5.76-5.36c-9.4-5.43-24.76-5.4-34.23.07Z"/><polygon class="cls-65" points="330.75 171.59 337.68 170.05 322.91 161.52 318.11 164.29 325.94 168.81 299.28 174.77 304.1 177.56 314.34 183.46 319.16 180.68 311.06 176 330.75 171.59"/><path class="cls-11" d="M314.34,183.61l-15.4-8.89,26.66-6-7.74-4.47,5.05-2.92L338,170.1l-7.25,1.61L311.4,176l8,4.63Zm-14.72-8.79,14.72,8.5,4.58-2.64-8.19-4.73.31-.07,26.3-5.88-14.43-8.33-4.55,2.63,7.92,4.57Z"/><polygon class="cls-66" points="326.74 176.63 329.43 176.03 326.01 174.06 323.32 174.66 326.74 176.63"/><path class="cls-11" d="M326.72,176.77,323,174.61l3-.68,3.74,2.16Zm-3.06-2.06,3.1,1.79,2.32-.52-3.1-1.79Z"/><polygon class="cls-67" points="317.68 169.25 314.26 167.28 311.58 167.88 315 169.85 317.68 169.25"/><path class="cls-11" d="M315,170l-3.74-2.16,3-.68L318,169.3Zm-3.06-2.06,3.1,1.79,2.32-.52-3.1-1.79Z"/><polygon class="cls-68" points="325.39 176.94 321.97 174.96 319.3 175.56 322.72 177.53 325.39 176.94"/><path class="cls-11" d="M322.7,177.67,319,175.51l3-.68,3.74,2.16Zm-3.06-2.06,3.1,1.79,2.31-.52-3.1-1.79Z"/><polygon class="cls-69" points="310.22 168.18 307.55 168.78 310.98 170.75 313.65 170.16 310.22 168.18"/><path class="cls-11" d="M311,170.89l-3.74-2.16,3-.68,3.74,2.16Zm-3.06-2.06,3.1,1.79,2.31-.52-3.1-1.79Z"/><path class="cls-70" d="M288.92,168s0,3.63,0,4.56c-.11,4.41,2.74,8.83,8.55,12.19,11.46,6.61,30.1,6.58,41.63-.08,5.77-3.33,8.67-7.69,8.7-12,0-1.46,0-4.62,0-4.62Z"/><path class="cls-11" d="M318.15,189.76c-7.53,0-15-1.65-20.75-4.94s-8.72-7.64-8.61-12.3c0-.92,0-4.52,0-4.55v-.13h59.13V168s0,3.18,0,4.62c0,4.59-3.14,8.9-8.76,12.14C333.36,188.08,325.75,189.76,318.15,189.76ZM289,168.09c0,.65,0,3.61,0,4.43-.11,4.56,2.9,8.85,8.48,12.07,11.41,6.58,30,6.55,41.51-.08,5.54-3.2,8.61-7.43,8.63-11.93,0-1.28,0-3.9,0-4.5Z"/><path class="cls-71" d="M339.25,155.9c-11.46-6.61-30.1-6.58-41.63.08s-11.6,17.42-.15,24,30.1,6.58,41.63-.08S350.7,162.52,339.25,155.9Z"/><path class="cls-11" d="M318.15,185.07c-7.53,0-15-1.65-20.75-4.94-5.55-3.21-8.61-7.49-8.61-12s3.11-8.94,8.76-12.2c11.55-6.67,30.29-6.71,41.76-.08,5.55,3.21,8.61,7.49,8.61,12.05s-3.11,8.94-8.76,12.2C333.36,183.4,325.75,185.07,318.15,185.07Zm.41-34c-7.55,0-15.12,1.67-20.89,5-5.57,3.21-8.63,7.47-8.63,12s3,8.67,8.49,11.83c11.41,6.58,30,6.55,41.51-.08,5.57-3.21,8.63-7.47,8.63-12s-3-8.67-8.49-11.83h0C333.51,152.73,326,151.1,318.56,151.1Z"/><path class="cls-13" d="M335.6,158c-9.45-5.46-24.84-5.43-34.36.07s-9.57,14.38-.12,19.84,24.84,5.43,34.36-.07S345.05,163.47,335.6,158Z"/><path class="cls-11" d="M318.19,182.11c-6.22,0-12.42-1.36-17.13-4.08s-7.12-6.19-7.12-10,2.57-7.4,7.24-10.09c9.54-5.51,25-5.54,34.48-.07h0c4.59,2.65,7.12,6.19,7.12,10s-2.57,7.4-7.24,10.09S324.46,182.11,318.19,182.11Zm.34-28c-6.23,0-12.47,1.38-17.23,4.12-4.59,2.65-7.11,6.15-7.11,9.87s2.48,7.14,7,9.75c9.41,5.43,24.76,5.4,34.23-.07,4.59-2.65,7.11-6.15,7.11-9.87s-2.48-7.14-7-9.75h0C330.85,155.42,324.7,154.07,318.53,154.07Z"/><path class="cls-72" d="M301.24,158.08c-4.86,2.81-7.25,6.5-7.17,10.17.12-3.51,2.51-7,7.16-9.7,9.52-5.5,24.9-5.53,34.36-.07,4.62,2.67,7,6.16,7,9.67.13-3.67-2.22-7.35-7-10.14C326.14,152.55,310.76,152.58,301.24,158.08Z"/><path class="cls-11" d="M294.2,168.25h-.25c-.09-3.89,2.48-7.54,7.23-10.28h0c9.54-5.51,25-5.54,34.48-.07,4.72,2.72,7.24,6.36,7.11,10.25h-.25c-.08-3.61-2.56-7-7-9.56-9.4-5.43-24.76-5.4-34.23.07C296.84,161.23,294.32,164.63,294.2,168.25Zm7.1-10.06a15.75,15.75,0,0,0-5.8,5.34,16.36,16.36,0,0,1,5.68-5.09c9.54-5.51,25-5.54,34.48-.07a16,16,0,0,1,5.64,5.11,15.33,15.33,0,0,0-5.76-5.36c-9.4-5.43-24.76-5.4-34.23.07Z"/><polygon class="cls-73" points="330.75 166.93 337.68 165.39 322.91 156.86 318.11 159.63 325.94 164.16 299.28 170.11 304.1 172.9 314.34 178.8 319.16 176.02 311.06 171.34 330.75 166.93"/><path class="cls-11" d="M314.34,178.95l-15.4-8.89,26.66-6-7.74-4.47,5.05-2.92L338,165.44l-7.25,1.61-19.37,4.34,8,4.63Zm-14.72-8.79,14.72,8.5,4.58-2.64-8.19-4.73.31-.07,26.3-5.88L322.91,157l-4.55,2.63,7.92,4.57Z"/><polygon class="cls-74" points="326.74 171.97 329.43 171.37 326.01 169.4 323.32 170 326.74 171.97"/><path class="cls-11" d="M326.72,172.11,323,169.95l3-.68,3.74,2.16Zm-3.06-2.06,3.1,1.79,2.32-.52-3.1-1.79Z"/><polygon class="cls-75" points="317.68 164.59 314.26 162.62 311.58 163.22 315 165.19 317.68 164.59"/><path class="cls-11" d="M315,165.33l-3.74-2.16,3-.68,3.74,2.16Zm-3.06-2.06,3.1,1.79,2.32-.52-3.1-1.79Z"/><polygon class="cls-76" points="325.39 172.28 321.97 170.3 319.3 170.9 322.72 172.88 325.39 172.28"/><path class="cls-11" d="M322.7,173,319,170.85l3-.68,3.74,2.16ZM319.64,171l3.1,1.79,2.31-.52-3.1-1.79Z"/><polygon class="cls-77" points="310.22 163.52 307.55 164.12 310.98 166.09 313.65 165.5 310.22 163.52"/><path class="cls-11" d="M311,166.23l-3.74-2.16,3-.68,3.74,2.16Zm-3.06-2.06L311,166l2.31-.52-3.1-1.79Z"/><path class="cls-78" d="M332.61,209.76s0,3.63,0,4.56c-.11,4.41,2.74,8.83,8.55,12.19,11.46,6.61,30.1,6.58,41.63-.08,5.77-3.33,8.67-7.69,8.7-12,0-1.46,0-4.62,0-4.62Z"/><path class="cls-11" d="M361.84,231.55c-7.53,0-15-1.65-20.75-4.94s-8.72-7.64-8.61-12.3c0-.92,0-4.52,0-4.55v-.13h59.13v.12s0,3.16,0,4.62c0,4.59-3.14,8.9-8.76,12.14C377.05,229.88,369.44,231.55,361.84,231.55Zm-29.11-21.67c0,.65,0,3.61,0,4.43-.11,4.56,2.9,8.85,8.49,12.08,11.4,6.58,30,6.55,41.51-.08,5.54-3.2,8.61-7.43,8.63-11.93,0-1.29,0-3.9,0-4.5Z"/><path class="cls-79" d="M382.94,197.7c-11.46-6.61-30.1-6.58-41.63.08s-11.6,17.42-.15,24,30.1,6.58,41.63-.08S394.4,204.31,382.94,197.7Z"/><path class="cls-11" d="M361.84,226.87c-7.53,0-15-1.65-20.75-4.94-5.55-3.21-8.61-7.49-8.61-12s3.11-8.94,8.76-12.21C352.8,191,371.53,191,383,197.59c5.55,3.21,8.61,7.49,8.61,12s-3.11,8.94-8.76,12.2C377.05,225.19,369.44,226.87,361.84,226.87Zm.41-34c-7.55,0-15.12,1.67-20.89,5-5.57,3.21-8.63,7.47-8.63,12s3,8.67,8.49,11.83c11.4,6.58,30,6.55,41.51-.08,5.57-3.21,8.63-7.47,8.63-12s-3-8.67-8.49-11.83C377.2,194.53,369.74,192.89,362.26,192.89Z"/><path class="cls-13" d="M379.29,199.81c-9.45-5.46-24.84-5.43-34.36.07s-9.57,14.38-.12,19.84,24.84,5.43,34.36-.07S388.74,205.26,379.29,199.81Z"/><path class="cls-11" d="M361.88,223.9c-6.22,0-12.42-1.36-17.13-4.08s-7.12-6.19-7.12-10,2.57-7.4,7.24-10.09c9.54-5.51,25-5.54,34.48-.07h0c4.59,2.65,7.12,6.19,7.12,10s-2.57,7.4-7.24,10.09S368.15,223.9,361.88,223.9Zm.34-28c-6.23,0-12.47,1.37-17.23,4.12-4.59,2.65-7.11,6.15-7.11,9.87s2.48,7.14,7,9.75c9.4,5.43,24.76,5.4,34.23-.07,4.59-2.65,7.11-6.16,7.11-9.87s-2.48-7.14-7-9.75C374.55,197.21,368.39,195.86,362.22,195.86Z"/><path class="cls-80" d="M344.93,199.87c-4.86,2.81-7.25,6.5-7.17,10.17.12-3.51,2.51-7,7.16-9.7,9.52-5.5,24.9-5.53,34.36-.07,4.62,2.67,7,6.16,7,9.67.13-3.67-2.22-7.35-7-10.14C369.84,194.35,354.45,194.38,344.93,199.87Z"/><path class="cls-11" d="M337.89,210h-.25c-.09-3.88,2.48-7.53,7.23-10.28h0c9.54-5.51,25-5.54,34.48-.07,4.72,2.72,7.24,6.36,7.11,10.25h-.25c-.08-3.62-2.56-7-7-9.57-9.4-5.43-24.76-5.4-34.23.07C340.54,203,338,206.43,337.89,210Zm24.33-14.18c-6.23,0-12.47,1.37-17.23,4.12h0a15.74,15.74,0,0,0-5.81,5.35,16.35,16.35,0,0,1,5.69-5.1c9.54-5.51,25-5.54,34.48-.07a15.93,15.93,0,0,1,5.65,5.11,15.32,15.32,0,0,0-5.77-5.36C374.55,197.21,368.39,195.86,362.22,195.86Z"/><polygon class="cls-81" points="374.44 208.73 381.37 207.19 366.6 198.66 361.8 201.43 369.63 205.95 342.97 211.91 347.8 214.69 358.03 220.6 362.86 217.81 354.75 213.13 374.44 208.73"/><path class="cls-11" d="M358,220.74l-15.4-8.89,26.66-6-7.74-4.47,5.05-2.92,15.11,8.72-7.25,1.61-19.37,4.34,8,4.63ZM343.31,212l14.72,8.5,4.58-2.64-8.19-4.73.31-.07,26.3-5.88L366.6,198.8,362,201.43,370,206Z"/><polygon class="cls-82" points="370.44 213.77 373.12 213.17 369.7 211.2 367.02 211.79 370.44 213.77"/><path class="cls-11" d="M370.42,213.9l-3.74-2.16,3-.68,3.74,2.16Zm-3.06-2.06,3.1,1.79,2.32-.52-3.1-1.79Z"/><polygon class="cls-83" points="361.38 206.39 357.95 204.42 355.27 205.01 358.69 206.99 361.38 206.39"/><path class="cls-11" d="M358.67,207.12,354.93,205l3-.68,3.74,2.16Zm-3.06-2.06,3.1,1.79,2.32-.52-3.1-1.79Z"/><polygon class="cls-84" points="369.08 214.07 365.66 212.1 362.99 212.69 366.42 214.67 369.08 214.07"/><path class="cls-11" d="M366.4,214.8l-3.74-2.16,3-.68,3.74,2.16Zm-3.06-2.06,3.1,1.79,2.31-.52-3.1-1.79Z"/><polygon class="cls-85" points="353.92 205.32 351.25 205.91 354.67 207.89 357.34 207.29 353.92 205.32"/><path class="cls-11" d="M354.65,208l-3.74-2.16,3-.68,3.74,2.16ZM351.59,206l3.1,1.79,2.31-.52-3.1-1.79Z"/><path class="cls-86" d="M332.61,205.08s0,3.63,0,4.56c-.11,4.41,2.74,8.83,8.55,12.19,11.46,6.61,30.1,6.58,41.63-.08,5.77-3.33,8.67-7.69,8.7-12,0-1.46,0-4.62,0-4.62Z"/><path class="cls-11" d="M361.84,226.87c-7.53,0-15-1.65-20.75-4.94s-8.72-7.64-8.61-12.3c0-.92,0-4.52,0-4.55V205h59.13v.12s0,3.16,0,4.62c0,4.59-3.14,8.9-8.76,12.14C377.05,225.19,369.44,226.87,361.84,226.87ZM332.74,205.2c0,.65,0,3.61,0,4.43-.11,4.56,2.9,8.85,8.49,12.07,11.4,6.58,30,6.55,41.51-.08,5.54-3.2,8.61-7.43,8.63-11.93,0-1.29,0-3.9,0-4.5Z"/><path class="cls-87" d="M382.94,193c-11.46-6.61-30.1-6.58-41.63.08s-11.6,17.42-.15,24,30.1,6.58,41.63-.08S394.4,199.63,382.94,193Z"/><path class="cls-11" d="M361.84,222.19c-7.53,0-15-1.65-20.75-4.94-5.55-3.21-8.61-7.49-8.61-12s3.11-8.94,8.76-12.2c11.55-6.67,30.29-6.71,41.76-.08,5.55,3.21,8.61,7.49,8.61,12s-3.11,8.94-8.76,12.2C377.05,220.51,369.44,222.19,361.84,222.19Zm.41-34c-7.55,0-15.12,1.67-20.89,5-5.57,3.21-8.63,7.47-8.63,12s3,8.67,8.49,11.83c11.4,6.58,30,6.55,41.51-.08,5.57-3.21,8.63-7.47,8.63-12s-3-8.67-8.49-11.83C377.2,189.85,369.74,188.21,362.26,188.21Z"/><path class="cls-13" d="M379.29,195.12c-9.45-5.46-24.84-5.43-34.36.07s-9.57,14.38-.12,19.84,24.84,5.43,34.36-.07S388.74,200.58,379.29,195.12Z"/><path class="cls-11" d="M361.88,219.22c-6.22,0-12.42-1.36-17.13-4.08s-7.12-6.19-7.12-10,2.57-7.4,7.24-10.09c9.54-5.51,25-5.54,34.48-.07h0c4.59,2.65,7.12,6.19,7.12,10s-2.57,7.4-7.24,10.09S368.15,219.22,361.88,219.22Zm.34-28c-6.23,0-12.47,1.37-17.23,4.12-4.59,2.65-7.11,6.15-7.11,9.87s2.48,7.14,7,9.75c9.41,5.43,24.76,5.4,34.23-.07,4.59-2.65,7.11-6.16,7.11-9.87s-2.48-7.14-7-9.75C374.55,192.53,368.39,191.18,362.22,191.18Z"/><path class="cls-88" d="M344.93,195.19c-4.86,2.81-7.25,6.5-7.17,10.17.12-3.51,2.51-7,7.16-9.7,9.52-5.5,24.9-5.53,34.36-.07,4.62,2.67,7,6.16,7,9.67.13-3.67-2.22-7.35-7-10.14C369.84,189.66,354.45,189.69,344.93,195.19Z"/><path class="cls-11" d="M337.89,205.36h-.25c-.09-3.88,2.48-7.53,7.23-10.28h0c9.54-5.51,25-5.54,34.48-.07,4.72,2.72,7.24,6.36,7.11,10.25h-.25c-.08-3.62-2.56-7-7-9.56-9.4-5.43-24.76-5.4-34.23.07C340.54,198.34,338,201.75,337.89,205.36Zm24.33-14.18c-6.23,0-12.47,1.37-17.23,4.12h0a15.73,15.73,0,0,0-5.81,5.35,16.34,16.34,0,0,1,5.68-5.1c9.54-5.51,25-5.54,34.48-.07a15.94,15.94,0,0,1,5.64,5.11,15.34,15.34,0,0,0-5.77-5.36C374.55,192.53,368.39,191.18,362.22,191.18Z"/><polygon class="cls-89" points="374.44 204.04 381.37 202.5 366.6 193.97 361.8 196.75 369.63 201.27 342.97 207.22 347.8 210.01 358.03 215.92 362.86 213.13 354.75 208.45 374.44 204.04"/><path class="cls-11" d="M358,216.06l-15.4-8.89,26.66-6-7.74-4.47,5.05-2.92,15.11,8.72-7.25,1.61-19.37,4.34,8,4.63Zm-14.72-8.79,14.72,8.5,4.58-2.64-8.19-4.73.31-.07,26.3-5.88-14.43-8.33L362,196.75l7.92,4.57Z"/><polygon class="cls-90" points="370.44 209.09 373.12 208.49 369.7 206.51 367.02 207.11 370.44 209.09"/><path class="cls-11" d="M370.42,209.22l-3.74-2.16,3-.68,3.74,2.16Zm-3.06-2.06,3.1,1.79,2.32-.52-3.1-1.79Z"/><polygon class="cls-91" points="361.38 201.71 357.95 199.73 355.27 200.33 358.69 202.31 361.38 201.71"/><path class="cls-11" d="M358.67,202.44l-3.74-2.16,3-.68,3.74,2.16Zm-3.06-2.06,3.1,1.79,2.32-.52-3.1-1.79Z"/><polygon class="cls-92" points="369.08 209.39 365.66 207.41 362.99 208.01 366.42 209.99 369.08 209.39"/><path class="cls-11" d="M366.4,210.12,362.65,208l3-.68,3.74,2.16Zm-3.06-2.06,3.1,1.79,2.31-.52-3.1-1.79Z"/><polygon class="cls-93" points="353.92 200.63 351.25 201.23 354.67 203.21 357.34 202.61 353.92 200.63"/><path class="cls-11" d="M354.65,203.34l-3.74-2.16,3-.68,3.74,2.16Zm-3.06-2.06,3.1,1.79,2.31-.52-3.1-1.79Z"/><path class="cls-94" d="M332.61,200.39s0,3.63,0,4.56c-.11,4.41,2.74,8.83,8.55,12.19,11.46,6.61,30.1,6.58,41.63-.08,5.77-3.33,8.67-7.69,8.7-12,0-1.46,0-4.62,0-4.62Z"/><path class="cls-11" d="M361.84,222.19c-7.53,0-15-1.65-20.75-4.94s-8.72-7.64-8.61-12.3c0-.92,0-4.52,0-4.55v-.13h59.13v.12s0,3.16,0,4.62c0,4.59-3.14,8.9-8.76,12.14C377.05,220.51,369.44,222.19,361.84,222.19Zm-29.11-21.67c0,.65,0,3.61,0,4.44-.11,4.56,2.9,8.85,8.49,12.07,11.4,6.58,30,6.55,41.51-.08,5.54-3.2,8.61-7.43,8.63-11.93,0-1.29,0-3.9,0-4.5Z"/><path class="cls-95" d="M382.94,188.33c-11.46-6.61-30.1-6.58-41.63.08s-11.6,17.42-.15,24,30.1,6.58,41.63-.08S394.4,194.94,382.94,188.33Z"/><path class="cls-11" d="M361.84,217.5c-7.53,0-15-1.65-20.75-4.94-5.55-3.21-8.61-7.49-8.61-12.05s3.11-8.94,8.76-12.2c11.55-6.67,30.29-6.71,41.76-.08,5.55,3.21,8.61,7.49,8.61,12s-3.11,8.94-8.76,12.2C377.05,215.83,369.44,217.5,361.84,217.5Zm.41-34c-7.55,0-15.12,1.67-20.89,5-5.57,3.21-8.63,7.47-8.63,12s3,8.67,8.49,11.83c11.4,6.58,30,6.55,41.51-.08,5.57-3.21,8.63-7.47,8.63-12s-3-8.67-8.49-11.83C377.2,185.16,369.74,183.53,362.26,183.53Z"/><path class="cls-13" d="M379.29,190.44c-9.45-5.46-24.84-5.43-34.36.07s-9.57,14.38-.12,19.84,24.84,5.43,34.36-.07S388.74,195.9,379.29,190.44Z"/><path class="cls-11" d="M361.88,214.53c-6.22,0-12.42-1.36-17.13-4.08s-7.12-6.19-7.12-10,2.57-7.4,7.24-10.09c9.54-5.51,25-5.54,34.48-.07,4.59,2.65,7.12,6.19,7.12,10s-2.57,7.4-7.24,10.09S368.15,214.53,361.88,214.53Zm.34-28c-6.23,0-12.47,1.37-17.23,4.12-4.59,2.65-7.11,6.16-7.11,9.87s2.48,7.14,7,9.75c9.41,5.43,24.76,5.4,34.23-.07,4.59-2.65,7.11-6.15,7.11-9.87s-2.48-7.14-7-9.75C374.55,187.84,368.39,186.49,362.22,186.49Z"/><path class="cls-96" d="M344.93,190.51c-4.86,2.81-7.25,6.5-7.17,10.17.12-3.51,2.51-7,7.16-9.7,9.52-5.5,24.9-5.53,34.36-.07,4.62,2.67,7,6.16,7,9.67.13-3.67-2.22-7.35-7-10.14C369.84,185,354.45,185,344.93,190.51Z"/><path class="cls-11" d="M337.89,200.68h-.25c-.09-3.88,2.48-7.53,7.23-10.28h0c9.54-5.51,25-5.54,34.48-.07,4.72,2.72,7.24,6.36,7.11,10.25h-.25c-.08-3.62-2.56-7-7-9.57-9.4-5.43-24.76-5.4-34.23.07C340.54,193.65,338,197.06,337.89,200.68Zm24.33-14.18c-6.23,0-12.47,1.37-17.23,4.12a15.74,15.74,0,0,0-5.81,5.35,16.34,16.34,0,0,1,5.69-5.1c9.54-5.51,25-5.54,34.48-.07a15.94,15.94,0,0,1,5.65,5.12,15.33,15.33,0,0,0-5.77-5.36C374.55,187.84,368.39,186.49,362.22,186.49Z"/><polygon class="cls-97" points="374.44 199.36 381.37 197.82 366.6 189.29 361.8 192.06 369.63 196.58 342.97 202.54 347.8 205.32 358.03 211.23 362.86 208.44 354.75 203.77 374.44 199.36"/><path class="cls-11" d="M358,211.38l-15.4-8.89,26.66-6-7.74-4.47,5.05-2.92,15.11,8.72-7.25,1.61-19.37,4.34,8,4.63Zm-14.72-8.79,14.72,8.5,4.58-2.64-8.19-4.73.31-.07,26.3-5.88-14.43-8.33L362,192.06l7.92,4.57Z"/><polygon class="cls-98" points="370.44 204.4 373.12 203.8 369.7 201.83 367.02 202.43 370.44 204.4"/><path class="cls-11" d="M370.42,204.54l-3.74-2.16,3-.68,3.74,2.16Zm-3.06-2.06,3.1,1.79,2.32-.52-3.1-1.79Z"/><polygon class="cls-99" points="361.38 197.02 357.95 195.05 355.27 195.65 358.69 197.62 361.38 197.02"/><path class="cls-11" d="M358.67,197.76l-3.74-2.16,3-.68,3.74,2.16Zm-3.06-2.06,3.1,1.79L361,197l-3.1-1.79Z"/><polygon class="cls-100" points="369.08 204.71 365.66 202.73 362.99 203.33 366.42 205.3 369.08 204.71"/><path class="cls-11" d="M366.4,205.44l-3.74-2.16,3-.68,3.74,2.16Zm-3.06-2.06,3.1,1.79,2.31-.52-3.1-1.79Z"/><polygon class="cls-101" points="353.92 195.95 351.25 196.55 354.67 198.52 357.34 197.93 353.92 195.95"/><path class="cls-11" d="M354.65,198.66l-3.74-2.16,3-.68,3.74,2.16Zm-3.06-2.06,3.1,1.79,2.31-.52-3.1-1.79Z"/><path class="cls-102" d="M332.61,195.71s0,3.63,0,4.56c-.11,4.41,2.74,8.83,8.55,12.19,11.46,6.61,30.1,6.58,41.63-.08,5.77-3.33,8.67-7.69,8.7-12,0-1.46,0-4.62,0-4.62Z"/><path class="cls-11" d="M361.84,217.5c-7.53,0-15-1.65-20.75-4.94s-8.72-7.64-8.61-12.3c0-.92,0-4.52,0-4.55v-.13h59.13v.12s0,3.16,0,4.62c0,4.59-3.14,8.9-8.76,12.14C377.05,215.83,369.44,217.5,361.84,217.5Zm-29.11-21.67c0,.65,0,3.61,0,4.43-.11,4.56,2.9,8.85,8.49,12.08,11.4,6.58,30,6.55,41.51-.08,5.54-3.2,8.61-7.43,8.63-11.93,0-1.29,0-3.9,0-4.5Z"/><path class="cls-103" d="M382.94,183.65c-11.46-6.61-30.1-6.58-41.63.08s-11.6,17.42-.15,24,30.1,6.58,41.63-.08S394.4,190.26,382.94,183.65Z"/><path class="cls-11" d="M361.84,212.82c-7.53,0-15-1.65-20.75-4.94-5.55-3.21-8.61-7.49-8.61-12s3.11-8.94,8.76-12.2c11.55-6.67,30.29-6.71,41.76-.08,5.55,3.21,8.61,7.49,8.61,12s-3.11,8.94-8.76,12.2C377.05,211.14,369.44,212.82,361.84,212.82Zm.41-34c-7.55,0-15.12,1.67-20.89,5-5.57,3.21-8.63,7.47-8.63,12s3,8.67,8.49,11.83c11.4,6.58,30,6.55,41.51-.08,5.57-3.21,8.63-7.47,8.63-12s-3-8.67-8.49-11.83C377.2,180.48,369.74,178.84,362.26,178.84Z"/><path class="cls-13" d="M379.29,185.75c-9.45-5.46-24.84-5.43-34.36.07s-9.57,14.38-.12,19.84,24.84,5.43,34.36-.07S388.74,191.21,379.29,185.75Z"/><path class="cls-11" d="M361.88,209.85c-6.22,0-12.42-1.36-17.13-4.08s-7.12-6.19-7.12-10,2.57-7.4,7.24-10.09c9.54-5.51,25-5.54,34.48-.07h0c4.59,2.65,7.12,6.19,7.12,10s-2.57,7.4-7.24,10.09S368.15,209.85,361.88,209.85Zm.34-28c-6.23,0-12.47,1.37-17.23,4.12-4.59,2.65-7.11,6.15-7.11,9.87s2.48,7.14,7,9.75c9.41,5.43,24.76,5.4,34.23-.07,4.59-2.65,7.11-6.15,7.11-9.87s-2.48-7.14-7-9.75h0C374.55,183.16,368.39,181.81,362.22,181.81Z"/><path class="cls-104" d="M344.93,185.82c-4.86,2.81-7.25,6.5-7.17,10.17.12-3.51,2.51-7,7.16-9.7,9.52-5.5,24.9-5.53,34.36-.07,4.62,2.67,7,6.16,7,9.67.13-3.67-2.22-7.35-7-10.14C369.84,180.3,354.45,180.33,344.93,185.82Z"/><path class="cls-11" d="M337.89,196h-.25c-.09-3.88,2.48-7.53,7.23-10.28h0c9.54-5.51,25-5.54,34.48-.07,4.72,2.72,7.24,6.36,7.11,10.25h-.25c-.08-3.62-2.56-7-7-9.57-9.4-5.43-24.76-5.4-34.23.07C340.54,189,338,192.38,337.89,196Zm24.33-14.18c-6.23,0-12.47,1.37-17.23,4.12a15.74,15.74,0,0,0-5.81,5.35,16.36,16.36,0,0,1,5.69-5.1c9.54-5.51,25-5.54,34.48-.07a15.93,15.93,0,0,1,5.65,5.11,15.32,15.32,0,0,0-5.77-5.36C374.55,183.16,368.39,181.81,362.22,181.81Z"/><polygon class="cls-105" points="374.44 194.68 381.37 193.13 366.6 184.61 361.8 187.38 369.63 191.9 342.97 197.85 347.8 200.64 358.03 206.55 362.86 203.76 354.75 199.08 374.44 194.68"/><path class="cls-11" d="M358,206.69l-15.4-8.89,26.66-6-7.74-4.47,5.05-2.92,15.11,8.72-7.25,1.61-19.37,4.34,8,4.63Zm-14.72-8.79L358,206.4l4.58-2.64L354.42,199l.31-.07,26.3-5.88-14.43-8.33L362,187.38,370,192Z"/><polygon class="cls-106" points="370.44 199.72 373.12 199.12 369.7 197.15 367.02 197.74 370.44 199.72"/><path class="cls-11" d="M370.42,199.85l-3.74-2.16,3-.68,3.74,2.16Zm-3.06-2.06,3.1,1.79,2.32-.52-3.1-1.79Z"/><polygon class="cls-107" points="361.38 192.34 357.95 190.36 355.27 190.96 358.69 192.94 361.38 192.34"/><path class="cls-11" d="M358.67,193.07l-3.74-2.16,3-.68,3.74,2.16ZM355.61,191l3.1,1.79,2.32-.52-3.1-1.79Z"/><polygon class="cls-108" points="369.08 200.02 365.66 198.05 362.99 198.64 366.42 200.62 369.08 200.02"/><path class="cls-11" d="M366.4,200.75l-3.74-2.16,3-.68,3.74,2.16Zm-3.06-2.06,3.1,1.79,2.31-.52-3.1-1.79Z"/><polygon class="cls-109" points="353.92 191.27 351.25 191.86 354.67 193.84 357.34 193.24 353.92 191.27"/><path class="cls-11" d="M354.65,194l-3.74-2.16,3-.68,3.74,2.16Zm-3.06-2.06,3.1,1.79,2.31-.52-3.1-1.79Z"/><path class="cls-110" d="M332.61,191s0,3.63,0,4.56c-.11,4.41,2.74,8.83,8.55,12.19,11.46,6.61,30.1,6.58,41.63-.08,5.77-3.33,8.67-7.69,8.7-12,0-1.46,0-4.62,0-4.62Z"/><path class="cls-11" d="M361.84,212.84c-7.53,0-15-1.65-20.75-4.94s-8.72-7.64-8.61-12.3c0-.92,0-4.52,0-4.55v-.13h59.13V191s0,3.16,0,4.62c0,4.59-3.14,8.9-8.76,12.14C377.05,211.17,369.44,212.84,361.84,212.84Zm-29.11-21.67c0,.65,0,3.61,0,4.43-.11,4.56,2.9,8.85,8.49,12.07,11.4,6.58,30,6.55,41.51-.08,5.54-3.2,8.61-7.43,8.63-11.93,0-1.29,0-3.9,0-4.5Z"/><path class="cls-111" d="M382.94,179c-11.46-6.61-30.1-6.58-41.63.08s-11.6,17.42-.15,24,30.1,6.58,41.63-.08S394.4,185.6,382.94,179Z"/><path class="cls-11" d="M361.84,208.16c-7.53,0-15-1.65-20.75-4.94-5.55-3.21-8.61-7.49-8.61-12s3.11-8.94,8.76-12.2c11.55-6.67,30.29-6.71,41.76-.08,5.55,3.21,8.61,7.49,8.61,12.05s-3.11,8.94-8.76,12.2C377.05,206.48,369.44,208.16,361.84,208.16Zm.41-34c-7.55,0-15.12,1.67-20.89,5-5.57,3.21-8.63,7.47-8.63,12s3,8.67,8.49,11.83c11.4,6.58,30,6.55,41.51-.08,5.57-3.21,8.63-7.47,8.63-12s-3-8.67-8.49-11.83C377.2,175.82,369.74,174.18,362.26,174.18Z"/><path class="cls-13" d="M379.29,181.09c-9.45-5.46-24.84-5.43-34.36.07s-9.57,14.38-.12,19.84,24.84,5.43,34.36-.07S388.74,186.55,379.29,181.09Z"/><path class="cls-11" d="M361.88,205.19c-6.22,0-12.42-1.36-17.13-4.08s-7.12-6.19-7.12-10,2.57-7.4,7.24-10.09c9.54-5.51,25-5.54,34.48-.07h0c4.59,2.65,7.12,6.19,7.12,10s-2.57,7.4-7.24,10.09S368.15,205.19,361.88,205.19Zm.34-28c-6.23,0-12.47,1.37-17.23,4.12-4.59,2.65-7.11,6.15-7.11,9.87s2.48,7.14,7,9.75c9.41,5.43,24.76,5.4,34.23-.07,4.59-2.65,7.11-6.16,7.11-9.87s-2.48-7.14-7-9.75C374.55,178.5,368.39,177.15,362.22,177.15Z"/><path class="cls-112" d="M344.93,181.16c-4.86,2.81-7.25,6.5-7.17,10.17.12-3.51,2.51-7,7.16-9.7,9.52-5.5,24.9-5.53,34.36-.07,4.62,2.67,7,6.16,7,9.67.13-3.67-2.22-7.35-7-10.14C369.84,175.64,354.45,175.67,344.93,181.16Z"/><path class="cls-11" d="M337.89,191.33h-.25c-.09-3.88,2.48-7.53,7.23-10.28h0c9.54-5.51,25-5.54,34.48-.07,4.72,2.72,7.24,6.36,7.11,10.25h-.25c-.08-3.62-2.56-7-7-9.56-9.4-5.43-24.76-5.4-34.23.07C340.54,184.31,338,187.72,337.89,191.33Zm24.33-14.18c-6.23,0-12.47,1.37-17.23,4.12a15.74,15.74,0,0,0-5.81,5.35,16.36,16.36,0,0,1,5.69-5.1c9.54-5.51,25-5.54,34.48-.07a15.94,15.94,0,0,1,5.64,5.11,15.34,15.34,0,0,0-5.77-5.36C374.55,178.5,368.39,177.15,362.22,177.15Z"/><polygon class="cls-113" points="374.44 190.02 381.37 188.47 366.6 179.95 361.8 182.72 369.63 187.24 342.97 193.2 347.8 195.98 358.03 201.89 362.86 199.1 354.75 194.42 374.44 190.02"/><path class="cls-11" d="M358,202l-15.4-8.89,26.66-6-7.74-4.47,5.05-2.92,15.11,8.72-7.25,1.61-19.37,4.34,8,4.63Zm-14.72-8.79,14.72,8.5,4.58-2.64-8.19-4.73.31-.07,26.3-5.88-14.43-8.33L362,182.72l7.92,4.57Z"/><polygon class="cls-114" points="370.44 195.06 373.12 194.46 369.7 192.49 367.02 193.09 370.44 195.06"/><path class="cls-11" d="M370.42,195.19,366.68,193l3-.68,3.74,2.16Zm-3.06-2.06,3.1,1.79,2.32-.52-3.1-1.79Z"/><polygon class="cls-115" points="361.38 187.68 357.95 185.71 355.27 186.3 358.69 188.28 361.38 187.68"/><path class="cls-11" d="M358.67,188.41l-3.74-2.16,3-.68,3.74,2.16Zm-3.06-2.06,3.1,1.79,2.32-.52-3.1-1.79Z"/><polygon class="cls-116" points="369.08 195.36 365.66 193.39 362.99 193.98 366.42 195.96 369.08 195.36"/><path class="cls-11" d="M366.4,196.09l-3.74-2.16,3-.68,3.74,2.16ZM363.33,194l3.1,1.79,2.31-.52-3.1-1.79Z"/><polygon class="cls-117" points="353.92 186.61 351.25 187.2 354.67 189.18 357.34 188.58 353.92 186.61"/><path class="cls-11" d="M354.65,189.31l-3.74-2.16,3-.68,3.74,2.16Zm-3.06-2.06,3.1,1.79,2.31-.52-3.1-1.79Z"/><path class="cls-118" d="M332.61,186.37s0,3.63,0,4.56c-.11,4.41,2.74,8.83,8.55,12.19,11.46,6.61,30.1,6.58,41.63-.08,5.77-3.33,8.67-7.69,8.7-12,0-1.46,0-4.62,0-4.62Z"/><path class="cls-11" d="M361.84,208.16c-7.53,0-15-1.65-20.75-4.94s-8.72-7.64-8.61-12.3c0-.92,0-4.52,0-4.55v-.13h59.13v.12s0,3.16,0,4.62c0,4.59-3.14,8.9-8.76,12.14C377.05,206.48,369.44,208.16,361.84,208.16Zm-29.11-21.67c0,.65,0,3.61,0,4.43-.11,4.56,2.9,8.85,8.49,12.07,11.4,6.58,30,6.55,41.51-.08,5.54-3.2,8.61-7.43,8.63-11.93,0-1.29,0-3.9,0-4.5Z"/><path class="cls-119" d="M382.94,174.3c-11.46-6.61-30.1-6.58-41.63.08s-11.6,17.42-.15,24,30.1,6.58,41.63-.08S394.4,180.92,382.94,174.3Z"/><path class="cls-11" d="M361.84,203.48c-7.53,0-15-1.65-20.75-4.94-5.55-3.21-8.61-7.49-8.61-12s3.11-8.94,8.76-12.2c11.55-6.67,30.29-6.71,41.76-.08,5.55,3.21,8.61,7.49,8.61,12s-3.11,8.94-8.76,12.2C377.05,201.8,369.44,203.48,361.84,203.48Zm.41-34c-7.55,0-15.12,1.67-20.89,5-5.57,3.21-8.63,7.47-8.63,12s3,8.67,8.49,11.83c11.4,6.58,30,6.55,41.51-.08,5.57-3.21,8.63-7.47,8.63-12s-3-8.67-8.49-11.83C377.2,171.14,369.74,169.5,362.26,169.5Z"/><path class="cls-13" d="M379.29,176.41c-9.45-5.46-24.84-5.43-34.36.07s-9.57,14.38-.12,19.84,24.84,5.43,34.36-.07S388.74,181.87,379.29,176.41Z"/><path class="cls-11" d="M361.88,200.51c-6.22,0-12.42-1.36-17.13-4.08s-7.12-6.19-7.12-10,2.57-7.4,7.24-10.09c9.54-5.51,25-5.54,34.48-.07,4.59,2.65,7.12,6.19,7.12,10s-2.57,7.4-7.24,10.09S368.15,200.51,361.88,200.51Zm.34-28c-6.23,0-12.47,1.37-17.23,4.12-4.59,2.65-7.11,6.16-7.11,9.87s2.48,7.14,7,9.75c9.41,5.43,24.76,5.4,34.23-.07,4.59-2.65,7.11-6.15,7.11-9.87s-2.48-7.14-7-9.75C374.55,173.82,368.39,172.47,362.22,172.47Z"/><path class="cls-120" d="M344.93,176.48c-4.86,2.81-7.25,6.5-7.17,10.17.12-3.51,2.51-7,7.16-9.7,9.52-5.5,24.9-5.53,34.36-.07,4.62,2.67,7,6.16,7,9.67.13-3.67-2.22-7.35-7-10.14C369.84,171,354.45,171,344.93,176.48Z"/><path class="cls-11" d="M337.89,186.65h-.25c-.09-3.89,2.48-7.54,7.23-10.28h0c9.54-5.51,25-5.54,34.48-.07,4.72,2.72,7.24,6.36,7.11,10.25h-.25c-.08-3.62-2.56-7-7-9.56-9.4-5.43-24.76-5.4-34.23.07C340.54,179.63,338,183,337.89,186.65Zm24.33-14.18c-6.23,0-12.47,1.37-17.23,4.12a15.74,15.74,0,0,0-5.81,5.35,16.34,16.34,0,0,1,5.69-5.1c9.54-5.51,25-5.54,34.48-.07a15.94,15.94,0,0,1,5.64,5.11,15.34,15.34,0,0,0-5.77-5.36C374.55,173.82,368.39,172.47,362.22,172.47Z"/><polygon class="cls-121" points="374.44 185.33 381.37 183.79 366.6 175.26 361.8 178.04 369.63 182.56 342.97 188.51 347.8 191.3 358.03 197.21 362.86 194.42 354.75 189.74 374.44 185.33"/><path class="cls-11" d="M358,197.35l-15.4-8.89,26.66-6L361.55,178l5.05-2.92,15.11,8.72-7.25,1.61-19.37,4.34,8,4.63Zm-14.72-8.79,14.72,8.5,4.58-2.64-8.19-4.73.31-.07,26.3-5.88-14.43-8.33L362,178l7.92,4.57Z"/><polygon class="cls-122" points="370.44 190.38 373.12 189.78 369.7 187.8 367.02 188.4 370.44 190.38"/><path class="cls-11" d="M370.42,190.51l-3.74-2.16,3-.68,3.74,2.16Zm-3.06-2.06,3.1,1.79,2.32-.52-3.1-1.79Z"/><polygon class="cls-123" points="361.38 183 357.95 181.02 355.27 181.62 358.69 183.6 361.38 183"/><path class="cls-11" d="M358.67,183.73l-3.74-2.16,3-.68,3.74,2.16Zm-3.06-2.06,3.1,1.79,2.32-.52-3.1-1.79Z"/><polygon class="cls-124" points="369.08 190.68 365.66 188.7 362.99 189.3 366.42 191.28 369.08 190.68"/><path class="cls-11" d="M366.4,191.41l-3.74-2.16,3-.68,3.74,2.16Zm-3.06-2.06,3.1,1.79,2.31-.52-3.1-1.79Z"/><polygon class="cls-125" points="353.92 181.92 351.25 182.52 354.67 184.5 357.34 183.9 353.92 181.92"/><path class="cls-11" d="M354.65,184.63l-3.74-2.16,3-.68,3.74,2.16Zm-3.06-2.06,3.1,1.79,2.31-.52-3.1-1.79Z"/><path class="cls-126" d="M332.61,181.68s0,3.63,0,4.56c-.11,4.41,2.74,8.83,8.55,12.19,11.46,6.61,30.1,6.58,41.63-.08,5.77-3.33,8.67-7.69,8.7-12,0-1.46,0-4.62,0-4.62Z"/><path class="cls-11" d="M361.84,203.48c-7.53,0-15-1.65-20.75-4.94s-8.72-7.64-8.61-12.3c0-.92,0-4.52,0-4.55v-.13h59.13v.12s0,3.16,0,4.62c0,4.59-3.14,8.9-8.76,12.14C377.05,201.8,369.44,203.48,361.84,203.48Zm-29.11-21.67c0,.65,0,3.61,0,4.43-.11,4.56,2.9,8.85,8.49,12.08,11.4,6.58,30,6.55,41.51-.08,5.54-3.2,8.61-7.43,8.63-11.93,0-1.29,0-3.9,0-4.5Z"/><path class="cls-127" d="M382.94,169.62c-11.46-6.61-30.1-6.58-41.63.08s-11.6,17.42-.15,24,30.1,6.58,41.63-.08S394.4,176.23,382.94,169.62Z"/><path class="cls-11" d="M361.84,198.79c-7.53,0-15-1.65-20.75-4.94-5.55-3.21-8.61-7.49-8.61-12s3.11-8.94,8.76-12.2c11.55-6.67,30.29-6.71,41.76-.08,5.55,3.21,8.61,7.49,8.61,12s-3.11,8.94-8.76,12.21C377.05,197.12,369.44,198.79,361.84,198.79Zm.41-34c-7.55,0-15.12,1.67-20.89,5-5.57,3.21-8.63,7.47-8.63,12s3,8.67,8.49,11.83c11.4,6.58,30,6.55,41.51-.08,5.57-3.21,8.63-7.47,8.63-12s-3-8.67-8.49-11.83C377.2,166.45,369.74,164.81,362.26,164.81Z"/><path class="cls-13" d="M379.29,171.73c-9.45-5.46-24.84-5.43-34.36.07s-9.57,14.38-.12,19.84,24.84,5.43,34.36-.07S388.74,177.19,379.29,171.73Z"/><path class="cls-11" d="M361.88,195.82c-6.22,0-12.42-1.36-17.13-4.08s-7.12-6.19-7.12-10,2.57-7.4,7.24-10.09c9.54-5.51,25-5.54,34.48-.07h0c4.59,2.65,7.12,6.19,7.12,10s-2.57,7.4-7.24,10.09S368.15,195.82,361.88,195.82Zm.34-28c-6.23,0-12.47,1.37-17.23,4.12-4.59,2.65-7.11,6.16-7.11,9.87s2.48,7.14,7,9.75c9.41,5.43,24.76,5.4,34.23-.07,4.59-2.65,7.11-6.15,7.11-9.87s-2.48-7.14-7-9.75h0C374.55,169.13,368.39,167.78,362.22,167.78Z"/><path class="cls-128" d="M344.93,171.8c-4.86,2.81-7.25,6.5-7.17,10.17.12-3.51,2.51-7,7.16-9.7,9.52-5.5,24.9-5.53,34.36-.07,4.62,2.67,7,6.16,7,9.67.13-3.67-2.22-7.35-7-10.14C369.84,166.27,354.45,166.3,344.93,171.8Z"/><path class="cls-11" d="M337.89,182h-.25c-.09-3.88,2.48-7.53,7.23-10.28h0c9.54-5.51,25-5.54,34.48-.07,4.72,2.72,7.24,6.36,7.11,10.25h-.25c-.08-3.62-2.56-7-7-9.57-9.4-5.43-24.76-5.4-34.23.07C340.54,174.94,338,178.35,337.89,182Zm24.33-14.18c-6.23,0-12.47,1.37-17.23,4.12h0a15.74,15.74,0,0,0-5.81,5.35,16.35,16.35,0,0,1,5.69-5.1c9.54-5.51,25-5.54,34.48-.07A15.93,15.93,0,0,1,385,177.2a15.32,15.32,0,0,0-5.77-5.36C374.55,169.13,368.39,167.78,362.22,167.78Z"/><polygon class="cls-129" points="374.44 180.65 381.37 179.11 366.6 170.58 361.8 173.35 369.63 177.87 342.97 183.83 347.8 186.61 358.03 192.52 362.86 189.74 354.75 185.06 374.44 180.65"/><path class="cls-11" d="M358,192.67l-15.4-8.89,26.66-6-7.74-4.47,5.05-2.92,15.11,8.72-7.25,1.61-19.37,4.34,8,4.63Zm-14.72-8.79,14.72,8.5,4.58-2.64L354.42,185l.31-.07,26.3-5.88-14.43-8.33L362,173.35l7.92,4.57Z"/><polygon class="cls-130" points="370.44 185.69 373.12 185.09 369.7 183.12 367.02 183.72 370.44 185.69"/><path class="cls-11" d="M370.42,185.83l-3.74-2.16,3-.68,3.74,2.16Zm-3.06-2.06,3.1,1.79,2.32-.52-3.1-1.79Z"/><polygon class="cls-131" points="361.38 178.31 357.95 176.34 355.27 176.94 358.69 178.91 361.38 178.31"/><path class="cls-11" d="M358.67,179l-3.74-2.16,3-.68,3.74,2.16ZM355.61,177l3.1,1.79,2.32-.52-3.1-1.79Z"/><polygon class="cls-132" points="369.08 186 365.66 184.02 362.99 184.62 366.42 186.59 369.08 186"/><path class="cls-11" d="M366.4,186.73l-3.74-2.16,3-.68,3.74,2.16Zm-3.06-2.06,3.1,1.79,2.31-.52-3.1-1.79Z"/><polygon class="cls-133" points="353.92 177.24 351.25 177.84 354.67 179.81 357.34 179.22 353.92 177.24"/><path class="cls-11" d="M354.65,179.95l-3.74-2.16,3-.68,3.74,2.16Zm-3.06-2.06,3.1,1.79,2.31-.52-3.1-1.79Z"/><g class="cls-134"><path class="cls-135" d="M568.41,46.38a19.54,19.54,0,0,1-24.92,0c0-.2-10.88,29-10.91,29.13h0c0,3.46,2.22,6.93,6.79,9.56,9.09,5.25,23.87,5.22,33-.06,4.55-2.63,6.85-6.07,6.89-9.5h0C579.29,75.35,568.46,46.18,568.41,46.38Z"/><circle class="cls-136" cx="555.96" cy="27.63" r="15"/></g></g></g></svg>