<?xml version="1.0" encoding="utf-8"?>
<!-- Generator: Adobe Illustrator 21.1.0, SVG Export Plug-In . SVG Version: 6.00 Build 0)  -->
<svg version="1.1" id="Layer_1" xmlns="http://www.w3.org/2000/svg" xmlns:xlink="http://www.w3.org/1999/xlink" x="0px" y="0px"
	 viewBox="0 0 622.7 336.3" style="enable-background:new 0 0 622.7 336.3;" xml:space="preserve">
<style type="text/css">
	.st0{fill:url(#SVGID_1_);}
	.st1{fill:url(#SVGID_2_);}
	.st2{fill:url(#SVGID_3_);}
	.st3{fill:none;}
	.st4{fill:url(#SVGID_4_);}
	.st5{fill:url(#SVGID_5_);}
	.st6{fill:url(#SVGID_6_);}
	.st7{fill:url(#SVGID_7_);}
	.st8{fill:#FFFFFF;}
	.st9{fill:#272C34;}
	.st10{fill:#67EAEC;}
	.st11{opacity:9.000000e-02;fill:#67EAEC;enable-background:new    ;}
	.st12{opacity:0.3;}
	.st13{fill:url(#SVGID_8_);}
	.st14{fill:url(#SVGID_9_);}
	.st15{fill:url(#SVGID_10_);}
	.st16{fill:url(#SVGID_11_);}
	.st17{fill:url(#SVGID_12_);}
	.st18{opacity:0.5;fill:#424B4F;enable-background:new    ;}
	.st19{fill:url(#SVGID_13_);}
	.st20{fill:#F5FFFF;}
	.st21{fill:url(#SVGID_14_);}
	.st22{fill:url(#SVGID_15_);}
	.st23{fill:url(#SVGID_16_);}
	.st24{fill:url(#SVGID_17_);}
	.st25{fill:url(#SVGID_18_);}
	.st26{fill:url(#SVGID_19_);}
	.st27{fill:url(#SVGID_20_);}
	.st28{fill:url(#SVGID_21_);}
	.st29{fill:url(#SVGID_22_);}
	.st30{fill:url(#SVGID_23_);}
	.st31{fill:url(#SVGID_24_);}
	.st32{fill:url(#SVGID_25_);}
	.st33{fill:url(#SVGID_26_);}
	.st34{fill:url(#SVGID_27_);}
	.st35{fill:url(#SVGID_28_);}
	.st36{fill:url(#SVGID_29_);}
	.st37{fill:url(#SVGID_30_);}
	.st38{fill:url(#SVGID_31_);}
	.st39{fill:url(#SVGID_32_);}
	.st40{fill:url(#SVGID_33_);}
	.st41{fill:url(#SVGID_34_);}
	.st42{fill:url(#SVGID_35_);}
	.st43{fill:url(#SVGID_36_);}
	.st44{fill:url(#SVGID_37_);}
	.st45{fill:url(#SVGID_38_);}
	.st46{fill:url(#SVGID_39_);}
	.st47{fill:url(#SVGID_40_);}
	.st48{fill:url(#SVGID_41_);}
	.st49{fill:url(#SVGID_42_);}
	.st50{fill:url(#SVGID_43_);}
	.st51{fill:url(#SVGID_44_);}
	.st52{fill:url(#SVGID_45_);}
	.st53{fill:url(#SVGID_46_);}
	.st54{fill:url(#SVGID_47_);}
	.st55{fill:url(#SVGID_48_);}
	.st56{fill:url(#SVGID_49_);}
	.st57{fill:url(#SVGID_50_);}
	.st58{fill:url(#SVGID_51_);}
	.st59{fill:url(#SVGID_52_);}
	.st60{fill:url(#SVGID_53_);}
	.st61{fill:url(#SVGID_54_);}
	.st62{fill:url(#SVGID_55_);}
	.st63{fill:url(#SVGID_56_);}
	.st64{fill:url(#SVGID_57_);}
	.st65{fill:url(#SVGID_58_);}
	.st66{fill:url(#SVGID_59_);}
	.st67{fill:url(#SVGID_60_);}
	.st68{fill:url(#SVGID_61_);}
	.st69{fill:url(#SVGID_62_);}
	.st70{fill:url(#SVGID_63_);}
	.st71{fill:url(#SVGID_64_);}
	.st72{fill:url(#SVGID_65_);}
	.st73{fill:url(#SVGID_66_);}
	.st74{fill:url(#SVGID_67_);}
	.st75{fill:url(#SVGID_68_);}
	.st76{fill:url(#SVGID_69_);}
	.st77{fill:url(#SVGID_70_);}
	.st78{fill:url(#SVGID_71_);}
	.st79{fill:url(#SVGID_72_);}
	.st80{fill:url(#SVGID_73_);}
	.st81{fill:url(#SVGID_74_);}
	.st82{fill:url(#SVGID_75_);}
	.st83{fill:url(#SVGID_76_);}
	.st84{fill:url(#SVGID_77_);}
	.st85{fill:url(#SVGID_78_);}
	.st86{fill:url(#SVGID_79_);}
	.st87{fill:url(#SVGID_80_);}
	.st88{fill:url(#SVGID_81_);}
	.st89{fill:url(#SVGID_82_);}
	.st90{fill:url(#SVGID_83_);}
	.st91{fill:url(#SVGID_84_);}
	.st92{fill:url(#SVGID_85_);}
	.st93{fill:url(#SVGID_86_);}
	.st94{fill:url(#SVGID_87_);}
	.st95{fill:url(#SVGID_88_);}
	.st96{fill:url(#SVGID_89_);}
	.st97{fill:url(#SVGID_90_);}
	.st98{fill:url(#SVGID_91_);}
	.st99{fill:url(#SVGID_92_);}
	.st100{fill:url(#SVGID_93_);}
	.st101{fill:url(#SVGID_94_);}
	.st102{fill:url(#SVGID_95_);}
	.st103{fill:url(#SVGID_96_);}
	.st104{fill:url(#SVGID_97_);}
	.st105{fill:url(#SVGID_98_);}
	.st106{fill:url(#SVGID_99_);}
	.st107{fill:url(#SVGID_100_);}
	.st108{fill:url(#SVGID_101_);}
	.st109{fill:url(#SVGID_102_);}
	.st110{fill:url(#SVGID_103_);}
	.st111{fill:url(#SVGID_104_);}
	.st112{fill:url(#SVGID_105_);}
	.st113{fill:url(#SVGID_106_);}
	.st114{fill:url(#SVGID_107_);}
	.st115{fill:url(#SVGID_108_);}
	.st116{fill:url(#SVGID_109_);}
	.st117{fill:url(#SVGID_110_);}
	.st118{fill:url(#SVGID_111_);}
	.st119{fill:url(#SVGID_112_);}
	.st120{fill:url(#SVGID_113_);}
	.st121{fill:url(#SVGID_114_);}
	.st122{fill:url(#SVGID_115_);}
	.st123{fill:url(#SVGID_116_);}
	.st124{fill:url(#SVGID_117_);}
	.st125{fill:url(#SVGID_118_);}
	.st126{fill:url(#SVGID_119_);}
	.st127{fill:url(#SVGID_120_);}
	.st128{fill:url(#SVGID_121_);}
	.st129{fill:url(#SVGID_122_);}
	.st130{fill:url(#SVGID_123_);}
	.st131{fill:#424B4F;}
</style>
<title>02_1</title>
<g id="Layer_2">
	<g id="ilus">
		
			<linearGradient id="SVGID_1_" gradientUnits="userSpaceOnUse" x1="28.932" y1="297.2946" x2="283.068" y2="150.5754" gradientTransform="matrix(1 0 0 -1 0 338)">
			<stop  offset="0" style="stop-color:#5C8EE4"/>
			<stop  offset="1" style="stop-color:#67EAEC"/>
		</linearGradient>
		<polygon class="st0" points="311.4,90.3 155.5,0.3 0.6,89.8 0.6,137.8 156.5,227.8 311.4,138.4 		"/>
		
			<linearGradient id="SVGID_2_" gradientUnits="userSpaceOnUse" x1="0.3" y1="223.935" x2="311.66" y2="223.935" gradientTransform="matrix(1 0 0 -1 0 338)">
			<stop  offset="0" style="stop-color:#2E3D4A"/>
			<stop  offset="1" style="stop-color:#232329"/>
		</linearGradient>
		<path class="st1" d="M156.5,228.1l-0.1-0.1l-156-90V89.6l0.2-0.1L155.5,0l0.1,0.1l156,90.1v48.4l-0.1,0.1L156.5,228.1z M0.9,137.6
			l155.6,89.8l154.6-89.3V90.5L155.5,0.7L0.9,90V137.6z"/>
		
			<linearGradient id="SVGID_3_" gradientUnits="userSpaceOnUse" x1="0.2" y1="224.43" x2="0.8" y2="224.43" gradientTransform="matrix(1 0 0 -1 0 338)">
			<stop  offset="0" style="stop-color:#2E3D4A"/>
			<stop  offset="1" style="stop-color:#232329"/>
		</linearGradient>
		<path class="st2" d="M0.5,137.9c-0.2,0-0.3-0.1-0.3-0.3l0,0v-48c0-0.2,0.1-0.3,0.3-0.3s0.3,0.1,0.3,0.3v48
			C0.8,137.7,0.7,137.9,0.5,137.9C0.5,137.9,0.5,137.9,0.5,137.9z"/>
		<line class="st3" x1="156.5" y1="179.6" x2="156.5" y2="227.6"/>
		
			<linearGradient id="SVGID_4_" gradientUnits="userSpaceOnUse" x1="156.2" y1="134.43" x2="156.8" y2="134.43" gradientTransform="matrix(1 0 0 -1 0 338)">
			<stop  offset="0" style="stop-color:#2E3D4A"/>
			<stop  offset="1" style="stop-color:#232329"/>
		</linearGradient>
		<rect x="156.2" y="179.6" class="st4" width="0.6" height="48"/>
		
			<linearGradient id="SVGID_5_" gradientUnits="userSpaceOnUse" x1="311.2" y1="223.43" x2="311.8" y2="223.43" gradientTransform="matrix(1 0 0 -1 0 338)">
			<stop  offset="0" style="stop-color:#2E3D4A"/>
			<stop  offset="1" style="stop-color:#232329"/>
		</linearGradient>
		<path class="st5" d="M311.5,138.9c-0.2,0-0.3-0.1-0.3-0.3v-48c0-0.2,0.1-0.3,0.3-0.3c0.2,0,0.3,0.1,0.3,0.3v48
			C311.8,138.7,311.7,138.9,311.5,138.9C311.5,138.9,311.5,138.9,311.5,138.9z"/>
		
			<linearGradient id="SVGID_6_" gradientUnits="userSpaceOnUse" x1="39.3227" y1="315.2942" x2="272.6772" y2="180.5758" gradientTransform="matrix(1 0 0 -1 0 338)">
			<stop  offset="0" style="stop-color:#5C8EE4"/>
			<stop  offset="1" style="stop-color:#67EAEC"/>
		</linearGradient>
		<polygon class="st6" points="156.5,179.8 0.6,89.8 155.5,0.3 311.4,90.3 		"/>
		
			<linearGradient id="SVGID_7_" gradientUnits="userSpaceOnUse" x1="0" y1="247.935" x2="312" y2="247.935" gradientTransform="matrix(1 0 0 -1 0 338)">
			<stop  offset="0" style="stop-color:#2E3D4A"/>
			<stop  offset="1" style="stop-color:#232329"/>
		</linearGradient>
		<path class="st7" d="M156.5,180.1l-0.1-0.1L0,89.8l0.4-0.3L155.5,0l0.1,0.1L312,90.3l-0.5,0.3L156.5,180.1z M1.2,89.8l155.3,89.6
			l154.3-89.1L155.5,0.7L1.2,89.8z"/>
		<path class="st8" d="M121.1,76.3l2.1-1.2l14,8.1l-2.2,1.2L121.1,76.3z"/>
		<path class="st8" d="M146,90.7c-2.7-1.6-3.8-3.4-3.4-5.4c0.4-2.1,2-3.9,4.8-5.5c2.9-1.6,6.2-2.6,9.5-2.7c3.3-0.3,6.5,0.4,9.4,2
			c2.7,1.5,3.8,3.3,3.4,5.4c-0.4,2.1-2,3.9-4.8,5.5c-2.9,1.6-6.2,2.6-9.6,2.8C152.1,93,148.8,92.3,146,90.7z M145.9,85.3
			c-0.5,1.6,0.2,3,2.2,4.1c2.2,1.2,4.7,1.6,7.1,1.2c2.6-0.2,5.1-1,7.3-2.2c1.8-0.9,3.1-2.4,3.8-4.2c0.5-1.6-0.2-3-2.2-4.1
			c-2.2-1.2-4.7-1.6-7.2-1.2c-2.6,0.2-5.1,1-7.3,2.2C147.9,82,146.6,83.5,145.9,85.3L145.9,85.3z"/>
		<path class="st8" d="M166.8,102.7c-2.3-1.3-3.6-2.7-4-4.1c-0.4-1.4,0.5-2.7,2.7-4l2.3,1.3c-1.7,1-2.3,1.9-1.8,2.9s1.6,2,3.4,3
			c1.3,0.7,2.7,1.2,4.2,1.3c1.5,0.1,2.9-0.2,4.2-0.9c1-0.6,1.4-1.3,1.1-2.1c-0.4-0.9-1-1.8-1.8-2.4c-0.9-0.8-1.8-1.7-2.7-2.5
			c-0.8-0.7-1.2-1.6-1.3-2.7c0-0.9,0.6-1.8,1.9-2.5c1.8-1,3.9-1.4,6-1.1c2.2,0.2,4.3,0.9,6.2,2c2,1.2,3.2,2.4,3.7,3.6
			c0.5,1.2-0.1,2.4-1.6,3.5l-2.2-1.3c1.7-1.4,1.1-3-1.7-4.6c-1.2-0.7-2.5-1.2-3.9-1.4c-1.3-0.2-2.6,0-3.8,0.7
			c-0.9,0.5-1.1,1.1-0.8,1.9c0.4,0.9,1.1,1.7,1.8,2.4c0.9,0.8,1.8,1.7,2.6,2.6c0.8,0.7,1.2,1.7,1.3,2.7c0,0.9-0.6,1.8-1.9,2.5
			c-2,1.2-4.4,1.7-6.8,1.5C171.2,104.7,168.9,103.9,166.8,102.7z"/>
		<path class="st9" d="M490.2,77.7c-0.3-10,6-20,19.2-27.6c25.7-14.8,67.6-14.8,93.5,0.2c13.1,7.6,19.6,17.5,19.5,27.4
			c0,0-0.2,14.9,0,23c0.2,9.9-6.2,19.8-19.2,27.2c-25.7,14.9-67.6,14.8-93.5-0.2c-13-7.5-19.5-17.3-19.5-27.1
			C490.1,92.6,490.2,77.7,490.2,77.7z"/>
		<path class="st10" d="M556.7,139.3c-17.1,0-34.2-3.8-47.2-11.3c-12.6-7.3-19.6-17-19.7-27.3c0-8,0-22.6,0-23
			c-0.4-10.6,6.5-20.4,19.3-27.8C535,35,577,35,603,50c12.8,7.4,19.8,17.2,19.7,27.7c0,0.2-0.2,15,0,23c0.2,10.4-6.7,20.2-19.3,27.5
			S573.6,139.3,556.7,139.3z M555.8,39.3c-16.8,0-33.5,3.7-46.3,11s-19.4,17-19,27.3l0,0c0,0.2-0.1,15,0,23
			c0,10.1,6.9,19.6,19.4,26.8c25.8,14.9,67.6,15,93.2,0.2c12.5-7.2,19.2-16.8,19-27c-0.2-8,0-22.9,0-23c0.1-10.2-6.8-19.8-19.4-27.1
			C589.7,43.1,572.7,39.3,555.8,39.3z"/>
		<path class="st11" d="M490.2,77.7c-0.3-10,6-20,19.2-27.6c25.7-14.8,67.6-14.8,93.5,0.2c13.1,7.6,19.6,17.5,19.5,27.4
			c0,0-0.2,14.9,0,23c0.2,9.9-6.2,19.8-19.2,27.2c-25.7,14.9-67.6,14.8-93.5-0.2c-13-7.5-19.5-17.3-19.5-27.1
			C490.1,92.6,490.2,77.7,490.2,77.7z"/>
		<polygon class="st9" points="420.8,180.2 510.8,128.2 510.8,104.2 420.8,156.2 		"/>
		<path class="st10" d="M420.8,180.5c-0.2,0-0.3-0.1-0.3-0.3v-24c0-0.1,0.1-0.2,0.1-0.3l90-52c0.1-0.1,0.3,0,0.4,0.1
			c0,0,0,0.1,0,0.2v24c0,0.1-0.1,0.2-0.1,0.3l-90,52C420.9,180.5,420.8,180.5,420.8,180.5z M421.1,156.3v23.3l89.4-51.6v-23.3
			L421.1,156.3z"/>
		<line class="st3" x1="510.8" y1="128.2" x2="422.3" y2="179.4"/>
		<path class="st10" d="M422.3,179.7c-0.2,0-0.3-0.1-0.3-0.3c0-0.1,0.1-0.2,0.2-0.3l88.5-51.2c0.1-0.1,0.3,0,0.4,0.1
			c0.1,0.1,0,0.3-0.1,0.4l0,0l-88.5,51.2C422.4,179.6,422.3,179.7,422.3,179.7z"/>
		<path class="st10" d="M421,180.4l6-9l0.7,0.3c2.8,1.3,4.4,4.2,4.2,7.2l-0.1,0.8L421,180.4z"/>
		<polygon class="st11" points="420.8,180.2 510.8,128.2 510.8,104.2 420.8,156.2 		"/>
		<path class="st9" d="M509.4,50.1c-25.7,14.8-25.6,39,0.3,54s67.7,15,93.5,0.2s25.6-39-0.3-54S535.1,35.2,509.4,50.1z"/>
		<path class="st10" d="M556.7,115.6c-17.1,0-34.2-3.8-47.2-11.3c-12.7-7.3-19.7-17.1-19.7-27.4s6.9-19.9,19.3-27.1l0.1,0.3
			l-0.1-0.3C535,35,577,35,603,50c12.7,7.3,19.7,17.1,19.7,27.4s-6.9,19.9-19.3,27.1C590.5,111.9,573.6,115.6,556.7,115.6z
			 M555.8,39.3c-16.8,0-33.5,3.7-46.3,11c-12.3,7.1-19,16.5-19,26.6s6.9,19.7,19.4,26.9c25.8,14.9,67.6,15,93.2,0.2
			c12.3-7.1,19-16.5,19-26.5s-6.9-19.7-19.4-26.9C589.7,43.1,572.7,39.3,555.8,39.3z"/>
		<line class="st3" x1="510.8" y1="104.2" x2="422.3" y2="155.4"/>
		<path class="st10" d="M422.3,155.7c-0.2,0-0.3-0.1-0.3-0.3c0-0.1,0.1-0.2,0.2-0.3l88.5-51.2c0.1-0.1,0.3,0,0.4,0.1
			c0.1,0.1,0,0.3-0.1,0.4l0,0l-88.5,51.2C422.4,155.6,422.3,155.7,422.3,155.7z"/>
		<path class="st10" d="M421,156.4l6-9l0.7,0.3c2.8,1.3,4.4,4.2,4.2,7.2l-0.1,0.8L421,156.4z"/>
		<path class="st9" d="M543.8,46.4c7.2,6,17.7,6,24.9,0c0-0.2,10.9,29,10.9,29.1l0,0c0,3.5-2.2,6.9-6.8,9.6
			c-9.1,5.2-23.9,5.2-33-0.1c-4.5-2.6-6.8-6.1-6.9-9.5l0,0C532.9,75.4,543.8,46.2,543.8,46.4z"/>
		<path class="st10" d="M556.4,89.3c-6.1,0-12.1-1.3-16.8-4c-4.5-2.6-7-6-7-9.7c0-0.1,0-0.1,0-0.2c0-0.2,4-11,5.4-14.7
			c5.5-14.7,5.5-14.7,5.8-14.7c0.1,0,0.2,0,0.2,0.1c7.1,5.9,17.4,5.9,24.5,0c0.1,0,0.1-0.1,0.2-0.1c0.3,0,0.3,0,5.8,14.7
			c1.4,3.7,5.4,14.5,5.4,14.7c0,0,0,0.1,0,0.1c0,3.7-2.4,7.2-6.9,9.8S562.4,89.3,556.4,89.3z M533.2,75.5L533.2,75.5
			c0,3.5,2.4,6.8,6.7,9.2c9,5.2,23.7,5.2,32.7,0.1c4.3-2.5,6.7-5.8,6.6-9.3c-0.3-0.8-9.4-25.4-10.7-28.7c-7.2,5.7-17.5,5.7-24.7,0
			C542.6,50.2,533.9,73.7,533.2,75.5z"/>
		<circle class="st9" cx="556.3" cy="27.7" r="15"/>
		<path class="st10" d="M556.3,43c-8.4,0-15.3-6.9-15.3-15.3c0-8.4,6.9-15.3,15.3-15.3c8.4,0,15.3,6.9,15.3,15.3
			C571.6,36.1,564.7,43,556.3,43z M556.3,13c-8.1,0-14.7,6.6-14.7,14.7s6.6,14.7,14.7,14.7c8.1,0,14.7-6.6,14.7-14.7c0,0,0,0,0,0
			C571,19.6,564.4,13,556.3,13z"/>
		<g class="st12">
			
				<linearGradient id="SVGID_8_" gradientUnits="userSpaceOnUse" x1="-551.53" y1="270.2761" x2="-504.8" y2="270.2761" gradientTransform="matrix(1 0 0 -1 1084.4799 338)">
				<stop  offset="0" style="stop-color:#39E6E0"/>
				<stop  offset="1" style="stop-color:#232329"/>
			</linearGradient>
			<path class="st13" d="M579.6,75.5L579.6,75.5c0,3.4-2.3,6.9-6.9,9.5c-9.1,5.3-23.9,5.3-33,0.1c-4.6-2.6-6.8-6.1-6.8-9.6l0,0
				c0-0.1,10.9-29.3,10.9-29.1c7.2,6,17.7,6,24.9,0C568.8,46.2,579.7,75.4,579.6,75.5z"/>
			
				<linearGradient id="SVGID_9_" gradientUnits="userSpaceOnUse" x1="-543.16" y1="310.33" x2="-513.16" y2="310.33" gradientTransform="matrix(1 0 0 -1 1084.4799 338)">
				<stop  offset="0" style="stop-color:#39E6E0"/>
				<stop  offset="1" style="stop-color:#232329"/>
			</linearGradient>
			<circle class="st14" cx="556.3" cy="27.7" r="15"/>
		</g>
		
			<linearGradient id="SVGID_10_" gradientUnits="userSpaceOnUse" x1="495.9" y1="115.725" x2="185.11" y2="115.725" gradientTransform="matrix(1 0 0 -1 0 338)">
			<stop  offset="0" style="stop-color:#2E3D4A"/>
			<stop  offset="1" style="stop-color:#232329"/>
		</linearGradient>
		<polygon class="st15" points="495.9,198.6 340,108.6 185.1,198 185.1,246 341,336 495.9,246.6 		"/>
		<path class="st10" d="M341,336.3c0,0-0.1,0-0.1,0l-155.9-90c-0.1-0.1-0.2-0.2-0.1-0.3v-48c0-0.1,0.1-0.2,0.1-0.3l154.9-89.4
			c0.1-0.1,0.2-0.1,0.3,0l155.9,90c0.1,0.1,0.2,0.2,0.1,0.3v48c0,0.1-0.1,0.2-0.1,0.3l-154.9,89.4C341.1,336.3,341,336.3,341,336.3z
			 M185.4,245.8L341,335.6l154.6-89.3v-47.7L340,108.9l-154.6,89.3V245.8z"/>
		<line class="st3" x1="341" y1="287.8" x2="341" y2="335.8"/>
		<path class="st10" d="M341,336.1c-0.2,0-0.3-0.1-0.3-0.3v-48c0-0.2,0.1-0.3,0.3-0.3c0.2,0,0.3,0.1,0.3,0.3l0,0v48
			C341.3,335.9,341.2,336.1,341,336.1L341,336.1z"/>
		
			<linearGradient id="SVGID_11_" gradientUnits="userSpaceOnUse" x1="340.505" y1="50.01" x2="340.505" y2="229.44" gradientTransform="matrix(1 0 0 -1 0 338)">
			<stop  offset="0" style="stop-color:#2E3D4A"/>
			<stop  offset="1" style="stop-color:#232329"/>
		</linearGradient>
		<polygon class="st16" points="341,288 185.1,198 340,108.6 495.9,198.6 		"/>
		<path class="st10" d="M341,288.3c0,0-0.1,0-0.1,0l-155.9-90c-0.1-0.1-0.2-0.3-0.1-0.4c0,0,0.1-0.1,0.1-0.1l154.9-89.4
			c0.1-0.1,0.2-0.1,0.3,0l155.9,90c0.1,0.1,0.2,0.3,0.1,0.4c0,0-0.1,0.1-0.1,0.1l-154.9,89.4C341.1,288.3,341,288.3,341,288.3z
			 M185.7,198L341,287.6l154.3-89.1L340,108.9L185.7,198z"/>
		<path class="st10" d="M305.6,184.5l2.1-1.2l14,8.1l-2.1,1.2L305.6,184.5z"/>
		<path class="st10" d="M330.5,198.9c-2.7-1.6-3.8-3.4-3.4-5.4s2-3.9,4.8-5.5c2.9-1.6,6.2-2.6,9.5-2.8c3.3-0.3,6.5,0.4,9.4,2
			c2.7,1.5,3.8,3.3,3.4,5.4s-2,3.9-4.8,5.5c-2.9,1.6-6.2,2.6-9.6,2.8C336.6,201.2,333.3,200.5,330.5,198.9z M330.4,193.5
			c-0.5,1.6,0.2,3,2.2,4.1c2.2,1.2,4.7,1.6,7.1,1.2c2.6-0.2,5.1-1,7.3-2.2c1.8-0.9,3.1-2.4,3.8-4.2c0.5-1.6-0.2-3-2.2-4.1
			c-2.2-1.2-4.7-1.6-7.1-1.2c-2.6,0.2-5.1,1-7.3,2.2C332.5,190.2,331.1,191.7,330.4,193.5z"/>
		<path class="st10" d="M351.3,210.9c-2.3-1.3-3.6-2.7-4-4.1c-0.4-1.4,0.5-2.7,2.7-4l2.3,1.3c-1.7,1-2.3,1.9-1.8,2.9
			c0.4,1,1.6,2,3.4,3c1.3,0.7,2.7,1.2,4.2,1.3c1.5,0.1,2.9-0.2,4.2-0.9c1-0.6,1.4-1.3,1.1-2.1c-0.4-1-1-1.8-1.8-2.4
			c-0.9-0.8-1.8-1.7-2.7-2.5c-0.8-0.7-1.3-1.6-1.4-2.7c0-0.9,0.6-1.8,1.9-2.5c1.8-1,3.9-1.4,6-1.1c2.2,0.2,4.3,0.9,6.2,2
			c2,1.2,3.2,2.4,3.7,3.6c0.5,1.2-0.1,2.4-1.6,3.5l-2.2-1.3c1.7-1.4,1.1-3-1.7-4.6c-1.2-0.7-2.5-1.2-3.9-1.4c-1.3-0.2-2.6,0-3.8,0.7
			c-0.9,0.5-1.1,1.1-0.8,1.9c0.4,0.9,1,1.8,1.8,2.5c0.9,0.8,1.8,1.7,2.6,2.6c0.8,0.7,1.2,1.7,1.3,2.7c0,0.9-0.6,1.8-1.9,2.5
			c-2,1.2-4.4,1.7-6.8,1.5C355.7,212.9,353.4,212.1,351.3,210.9z"/>
		<polygon class="st10" points="203.2,235.4 201,224.2 198.6,222.8 202.2,238.7 204.2,239.9 207.8,228.1 205.4,226.8 		"/>
		<polygon class="st10" points="211.6,228.2 211.6,230.8 214.9,231.2 214.9,246.1 217.3,247.5 217.3,228.8 217,228.6 		"/>
		<path class="st10" d="M225.6,249c-0.4-0.2-0.8-0.3-1-0.1c-0.3,0.3-0.4,0.6-0.4,1c0,0.5,0.1,1,0.4,1.4c0.2,0.4,0.6,0.8,1,1
			c0.4,0.2,0.8,0.3,1,0.1c0.3-0.3,0.4-0.6,0.4-1c0-0.5-0.1-1-0.4-1.4C226.4,249.6,226,249.2,225.6,249z"/>
		<path class="st10" d="M239.2,253.5v-12l-2.4-1.4l-6,9.1l0.1,1.9l6,3.5v4.1l2.3,1.3V256l1.7,1v-2.5L239.2,253.5z M236.9,252.2
			l-3.6-2.1l3.4-5.4l0.2-0.3L236.9,252.2z"/>
		
			<linearGradient id="SVGID_12_" gradientUnits="userSpaceOnUse" x1="104.7069" y1="248.6468" x2="163.59" y2="248.6468" gradientTransform="matrix(1 0 0 -1 0 338)">
			<stop  offset="0" style="stop-color:#5C8EE4"/>
			<stop  offset="1" style="stop-color:#65D5EA"/>
		</linearGradient>
		<path class="st17" d="M104.7,78.5c0,0,0,3.6,0,4.6c-0.1,4.4,2.7,8.8,8.6,12.2c11.5,6.6,30.1,6.6,41.6-0.1c5.8-3.3,8.7-7.7,8.7-12
			c0-1.5,0-4.6,0-4.6L104.7,78.5z"/>
		<path class="st18" d="M133.9,100.3c-7.5,0-15-1.7-20.8-4.9s-8.7-7.6-8.6-12.3c0-0.9,0-4.5,0-4.6v-0.1h59.1v0.1c0,0,0,3.2,0,4.6
			c0,4.6-3.1,8.9-8.8,12.1C149.1,98.6,141.5,100.3,133.9,100.3z M104.8,78.6c0,0.7,0,3.6,0,4.4c-0.1,4.6,2.9,8.8,8.5,12.1
			c11.4,6.6,30,6.6,41.5-0.1c5.5-3.2,8.6-7.4,8.6-11.9c0-1.3,0-3.9,0-4.5H104.8z"/>
		
			<linearGradient id="SVGID_13_" gradientUnits="userSpaceOnUse" x1="104.6773" y1="259.5157" x2="163.5615" y2="259.5157" gradientTransform="matrix(1 0 0 -1 0 338)">
			<stop  offset="0" style="stop-color:#5C8EE4"/>
			<stop  offset="1" style="stop-color:#65D5EA"/>
		</linearGradient>
		<path class="st19" d="M155,66.4c-11.5-6.6-30.1-6.6-41.6,0.1s-11.6,17.4-0.2,24s30.1,6.6,41.6-0.1S166.5,73.1,155,66.4z"/>
		<path class="st18" d="M133.9,95.6c-7.5,0-15-1.7-20.8-4.9c-5.6-3.2-8.6-7.5-8.6-12s3.1-8.9,8.8-12.2c11.6-6.7,30.3-6.7,41.8-0.1
			c5.6,3.2,8.6,7.5,8.6,12s-3.1,8.9-8.8,12.2C149.1,93.9,141.5,95.6,133.9,95.6z M134.4,61.6c-7.6,0-15.1,1.7-20.9,5
			c-5.6,3.2-8.6,7.5-8.6,12s3,8.7,8.5,11.8c11.4,6.6,30,6.6,41.5-0.1c5.6-3.2,8.6-7.5,8.6-12s-3-8.7-8.5-11.8
			C149.3,63.3,141.8,61.6,134.4,61.6L134.4,61.6z"/>
		<path class="st20" d="M151.4,68.6c-9.4-5.5-24.8-5.4-34.4,0.1s-9.6,14.4-0.1,19.8s24.8,5.4,34.4-0.1S160.8,74,151.4,68.6z"/>
		<path class="st18" d="M134,92.7c-6.2,0-12.4-1.4-17.1-4.1s-7.1-6.2-7.1-10s2.6-7.4,7.2-10.1c9.5-5.5,25-5.5,34.5-0.1
			c4.6,2.7,7.1,6.2,7.1,10s-2.6,7.4-7.2,10.1S140.2,92.7,134,92.7z M134.3,64.7c-6.2,0-12.5,1.4-17.2,4.1c-4.6,2.7-7.1,6.2-7.1,9.9
			s2.5,7.1,7,9.8c9.4,5.4,24.8,5.4,34.2-0.1c4.6-2.7,7.1-6.2,7.1-9.9s-2.5-7.1-7-9.8l0,0C146.6,66,140.5,64.6,134.3,64.7L134.3,64.7
			z"/>
		
			<linearGradient id="SVGID_14_" gradientUnits="userSpaceOnUse" x1="158.44" y1="266.3575" x2="109.86" y2="266.3575" gradientTransform="matrix(1 0 0 -1 0 338)">
			<stop  offset="0" style="stop-color:#5C8EE4"/>
			<stop  offset="1" style="stop-color:#65D5EA"/>
		</linearGradient>
		<path class="st21" d="M117,68.6c-4.9,2.8-7.2,6.5-7.2,10.2c0.1-3.5,2.5-7,7.2-9.7c9.5-5.5,24.9-5.5,34.4-0.1c4.6,2.7,7,6.2,7,9.7
			c0.1-3.7-2.2-7.3-7-10.1C141.9,63.1,126.6,63.1,117,68.6z"/>
		<path class="st18" d="M110,78.8h-0.2c-0.1-3.9,2.5-7.5,7.2-10.3l0.1,0.1l-0.1-0.1c9.5-5.5,25-5.5,34.5-0.1
			c4.7,2.7,7.2,6.4,7.1,10.2h-0.2c-0.1-3.6-2.6-7-7-9.6c-9.4-5.4-24.8-5.4-34.2,0.1C112.6,71.8,110.1,75.2,110,78.8z M134.3,64.6
			c-6.2,0-12.5,1.4-17.2,4.1c-2.4,1.3-4.4,3.1-5.8,5.3c1.5-2.1,3.4-3.9,5.7-5.1c9.5-5.5,25-5.5,34.5-0.1c2.2,1.2,4.2,3,5.6,5.1
			c-1.4-2.3-3.4-4.1-5.8-5.4C146.6,66,140.5,64.6,134.3,64.6L134.3,64.6z"/>
		
			<linearGradient id="SVGID_15_" gradientUnits="userSpaceOnUse" x1="-1224.6285" y1="115.3832" x2="-1219.7185" y2="135.2131" gradientTransform="matrix(-0.14 0.58 1.75 -0.14 -261.83 804.77)">
			<stop  offset="0" style="stop-color:#5FA5E6"/>
			<stop  offset="1" style="stop-color:#67EAEC"/>
		</linearGradient>
		<polygon class="st22" points="146.5,77.5 153.5,75.9 138.7,67.4 133.9,70.2 141.7,74.7 115.1,80.7 119.9,83.4 130.1,89.3 
			135,86.6 126.8,81.9 		"/>
		<path class="st18" d="M130.1,89.5l-15.4-8.9l26.7-6l-7.7-4.5l5.1-2.9l15.1,8.8l-26.6,5.9l8,4.6L130.1,89.5z M115.4,80.7l14.7,8.5
			l4.6-2.6l-8.2-4.7l0.3-0.1l26.3-5.9l-14.4-8.3l-4.6,2.6l7.9,4.6L115.4,80.7z"/>
		
			<linearGradient id="SVGID_16_" gradientUnits="userSpaceOnUse" x1="-1216.5632" y1="128.2139" x2="-1215.4933" y2="132.5239" gradientTransform="matrix(-0.14 0.58 1.75 -0.14 -261.83 804.77)">
			<stop  offset="0" style="stop-color:#5FA5E6"/>
			<stop  offset="1" style="stop-color:#67EAEC"/>
		</linearGradient>
		<polygon class="st23" points="142.5,82.5 145.2,81.9 141.8,79.9 139.1,80.6 		"/>
		<path class="st18" d="M142.5,82.7l-3.7-2.2l3-0.7l3.8,2.2L142.5,82.7z M139.5,80.6l3.1,1.8l2.3-0.5l-3.1-1.8L139.5,80.6z"/>
		
			<linearGradient id="SVGID_17_" gradientUnits="userSpaceOnUse" x1="-1230.142" y1="120.3886" x2="-1229.072" y2="124.6986" gradientTransform="matrix(-0.14 0.58 1.75 -0.14 -261.83 804.77)">
			<stop  offset="0" style="stop-color:#5FA5E6"/>
			<stop  offset="1" style="stop-color:#67EAEC"/>
		</linearGradient>
		<polygon class="st24" points="133.5,75.1 130.1,73.2 127.4,73.8 130.8,75.7 		"/>
		<path class="st18" d="M130.8,75.9l-3.8-2.2l3-0.7l3.7,2.2L130.8,75.9z M127.7,73.8l3.1,1.8l2.3-0.5l-3.1-1.8L127.7,73.8z"/>
		
			<linearGradient id="SVGID_18_" gradientUnits="userSpaceOnUse" x1="-1215.5508" y1="125.9927" x2="-1214.4808" y2="130.2927" gradientTransform="matrix(-0.14 0.58 1.75 -0.14 -261.83 804.77)">
			<stop  offset="0" style="stop-color:#5FA5E6"/>
			<stop  offset="1" style="stop-color:#67EAEC"/>
		</linearGradient>
		<polygon class="st25" points="141.2,82.8 137.8,80.8 135.1,81.4 138.5,83.4 		"/>
		<path class="st18" d="M138.5,83.6l-3.7-2.2l3-0.7l3.7,2.2L138.5,83.6z M135.4,81.5l3.1,1.8l2.3-0.5l-3.1-1.8L135.4,81.5z"/>
		
			<linearGradient id="SVGID_19_" gradientUnits="userSpaceOnUse" x1="-1229.1195" y1="118.1574" x2="-1228.0594" y2="122.4574" gradientTransform="matrix(-0.14 0.58 1.75 -0.14 -261.83 804.77)">
			<stop  offset="0" style="stop-color:#5FA5E6"/>
			<stop  offset="1" style="stop-color:#67EAEC"/>
		</linearGradient>
		<polygon class="st26" points="126,74.1 123.3,74.7 126.8,76.6 129.4,76 		"/>
		<path class="st18" d="M126.8,76.8l-3.8-2.2l3-0.7l3.7,2.2L126.8,76.8z M123.7,74.7l3.1,1.8l2.3-0.5l-3.1-1.8L123.7,74.7z"/>
		
			<linearGradient id="SVGID_20_" gradientUnits="userSpaceOnUse" x1="104.7069" y1="253.3268" x2="163.59" y2="253.3268" gradientTransform="matrix(1 0 0 -1 0 338)">
			<stop  offset="0" style="stop-color:#5C8EE4"/>
			<stop  offset="1" style="stop-color:#65D5EA"/>
		</linearGradient>
		<path class="st27" d="M104.7,73.8c0,0,0,3.6,0,4.6c-0.1,4.4,2.7,8.8,8.6,12.2c11.5,6.6,30.1,6.6,41.6-0.1c5.8-3.3,8.7-7.7,8.7-12
			c0-1.5,0-4.6,0-4.6L104.7,73.8z"/>
		<path class="st18" d="M133.9,95.6c-7.5,0-15-1.7-20.8-4.9s-8.7-7.6-8.6-12.3c0-0.9,0-4.5,0-4.6v-0.1h59.1v0.1c0,0,0,3.2,0,4.6
			c0,4.6-3.1,8.9-8.8,12.1C149.1,93.9,141.5,95.6,133.9,95.6z M104.8,74c0,0.7,0,3.6,0,4.4c-0.1,4.6,2.9,8.8,8.5,12.1
			c11.4,6.6,30,6.6,41.5-0.1c5.5-3.2,8.6-7.4,8.6-11.9c0-1.3,0-3.9,0-4.5L104.8,74z"/>
		
			<linearGradient id="SVGID_21_" gradientUnits="userSpaceOnUse" x1="104.6773" y1="264.2057" x2="163.5615" y2="264.2057" gradientTransform="matrix(1 0 0 -1 0 338)">
			<stop  offset="0" style="stop-color:#5C8EE4"/>
			<stop  offset="1" style="stop-color:#65D5EA"/>
		</linearGradient>
		<path class="st28" d="M155,61.8c-11.5-6.6-30.1-6.6-41.6,0.1s-11.6,17.4-0.2,24s30.1,6.6,41.6-0.1S166.5,68.4,155,61.8z"/>
		<path class="st18" d="M133.9,90.9c-7.5,0-15-1.7-20.8-4.9c-5.6-3.2-8.6-7.5-8.6-12.1s3.1-8.9,8.8-12.2c11.6-6.7,30.3-6.7,41.8-0.1
			c5.6,3.2,8.6,7.5,8.6,12s-3.1,8.9-8.8,12.2C149.1,89.3,141.5,90.9,133.9,90.9z M134.4,56.9c-7.6,0-15.1,1.7-20.9,5
			c-5.6,3.2-8.6,7.5-8.6,12s3,8.7,8.5,11.8c11.4,6.6,30,6.6,41.5-0.1c5.6-3.2,8.6-7.5,8.6-12s-3-8.7-8.5-11.8
			C149.3,58.6,141.8,57,134.4,56.9L134.4,56.9z"/>
		<path class="st20" d="M151.4,63.9c-9.4-5.5-24.8-5.4-34.4,0.1s-9.6,14.4-0.1,19.8s24.8,5.4,34.4-0.1S160.8,69.3,151.4,63.9z"/>
		<path class="st18" d="M134,88c-6.2,0-12.4-1.4-17.1-4.1s-7.1-6.2-7.1-10s2.6-7.4,7.2-10.1c9.5-5.5,25-5.5,34.5-0.1
			c4.6,2.6,7.1,6.2,7.1,10s-2.6,7.4-7.2,10.1S140.2,88,134,88z M134.3,60c-6.2,0-12.5,1.4-17.2,4.1c-4.6,2.7-7.1,6.2-7.1,9.9
			s2.5,7.1,7,9.8c9.4,5.4,24.8,5.4,34.2-0.1c4.6-2.7,7.1-6.2,7.1-9.9s-2.5-7.1-7-9.8C146.6,61.3,140.5,59.9,134.3,60L134.3,60z"/>
		
			<linearGradient id="SVGID_22_" gradientUnits="userSpaceOnUse" x1="158.44" y1="271.0475" x2="109.86" y2="271.0475" gradientTransform="matrix(1 0 0 -1 0 338)">
			<stop  offset="0" style="stop-color:#5C8EE4"/>
			<stop  offset="1" style="stop-color:#65D5EA"/>
		</linearGradient>
		<path class="st29" d="M117,63.9c-4.9,2.8-7.2,6.5-7.2,10.2c0.1-3.5,2.5-7,7.2-9.7c9.5-5.5,24.9-5.5,34.4-0.1c4.6,2.7,7,6.2,7,9.7
			c0.1-3.7-2.2-7.3-7-10.1C141.9,58.4,126.6,58.4,117,63.9z"/>
		<path class="st18" d="M110,74.1h-0.2c-0.1-3.9,2.5-7.5,7.2-10.3l0.1,0.1l-0.1-0.1c9.5-5.5,25-5.5,34.5-0.1
			c4.7,2.7,7.2,6.4,7.1,10.2h-0.2c-0.1-3.6-2.6-7-7-9.6c-9.4-5.4-24.8-5.4-34.2,0.1C112.6,67.1,110.1,70.5,110,74.1z M134.3,59.9
			c-6.2,0-12.5,1.4-17.2,4.1c-2.4,1.3-4.4,3.1-5.8,5.3c1.5-2.1,3.4-3.9,5.7-5.1c9.5-5.5,25-5.5,34.5-0.1c2.3,1.2,4.2,3,5.6,5.1
			c-1.4-2.3-3.4-4.1-5.8-5.3C146.6,61.3,140.5,59.9,134.3,59.9L134.3,59.9z"/>
		
			<linearGradient id="SVGID_23_" gradientUnits="userSpaceOnUse" x1="-1232.8574" y1="114.7203" x2="-1227.9475" y2="134.5503" gradientTransform="matrix(-0.14 0.58 1.75 -0.14 -261.83 804.77)">
			<stop  offset="0" style="stop-color:#5FA5E6"/>
			<stop  offset="1" style="stop-color:#67EAEC"/>
		</linearGradient>
		<polygon class="st30" points="146.5,72.8 153.5,71.2 138.7,62.7 133.9,65.5 141.7,70 115.1,76 119.9,78.8 130.1,84.7 135,81.9 
			126.8,77.2 		"/>
		<path class="st18" d="M130.1,84.8l-15.4-8.9l26.7-6l-7.7-4.5l5.1-2.9l15.1,8.7l-26.6,5.9l8,4.6L130.1,84.8z M115.4,76l14.7,8.5
			l4.6-2.6l-8.2-4.7l0.3-0.1l26.3-5.9l-14.4-8.3l-4.6,2.6l7.9,4.6L115.4,76z"/>
		
			<linearGradient id="SVGID_24_" gradientUnits="userSpaceOnUse" x1="-1224.7921" y1="127.536" x2="-1223.7321" y2="131.846" gradientTransform="matrix(-0.14 0.58 1.75 -0.14 -261.83 804.77)">
			<stop  offset="0" style="stop-color:#5FA5E6"/>
			<stop  offset="1" style="stop-color:#67EAEC"/>
		</linearGradient>
		<polygon class="st31" points="142.5,77.8 145.2,77.2 141.8,75.3 139.1,75.9 		"/>
		<path class="st18" d="M142.5,78l-3.7-2.2l3-0.7l3.7,2.2L142.5,78z M139.5,75.9l3.1,1.8l2.3-0.5l-3.1-1.8L139.5,75.9z"/>
		
			<linearGradient id="SVGID_25_" gradientUnits="userSpaceOnUse" x1="-1238.3706" y1="119.7105" x2="-1237.3107" y2="124.0205" gradientTransform="matrix(-0.14 0.58 1.75 -0.14 -261.83 804.77)">
			<stop  offset="0" style="stop-color:#5FA5E6"/>
			<stop  offset="1" style="stop-color:#67EAEC"/>
		</linearGradient>
		<polygon class="st32" points="133.5,70.5 130.1,68.5 127.4,69.1 130.8,71.1 		"/>
		<path class="st18" d="M130.8,71.2L127,69l3-0.7l3.7,2.2L130.8,71.2z M127.7,69.1l3.1,1.8l2.3-0.5l-3.1-1.8L127.7,69.1z"/>
		
			<linearGradient id="SVGID_26_" gradientUnits="userSpaceOnUse" x1="-1223.7798" y1="125.3181" x2="-1222.7097" y2="129.6281" gradientTransform="matrix(-0.14 0.58 1.75 -0.14 -261.83 804.77)">
			<stop  offset="0" style="stop-color:#5FA5E6"/>
			<stop  offset="1" style="stop-color:#67EAEC"/>
		</linearGradient>
		<polygon class="st33" points="141.2,78.1 137.8,76.2 135.1,76.8 138.5,78.7 		"/>
		<path class="st18" d="M138.5,78.9l-3.7-2.2l3-0.7l3.7,2.2L138.5,78.9z M135.4,76.8l3.1,1.8l2.3-0.5l-3.1-1.8L135.4,76.8z"/>
		
			<linearGradient id="SVGID_27_" gradientUnits="userSpaceOnUse" x1="-1237.3665" y1="117.4947" x2="-1236.2965" y2="121.8046" gradientTransform="matrix(-0.14 0.58 1.75 -0.14 -261.83 804.77)">
			<stop  offset="0" style="stop-color:#5FA5E6"/>
			<stop  offset="1" style="stop-color:#67EAEC"/>
		</linearGradient>
		<polygon class="st34" points="126,69.4 123.3,70 126.8,72 129.4,71.4 		"/>
		<path class="st18" d="M126.8,72.1l-3.8-2.2l3-0.7l3.7,2.2L126.8,72.1z M123.7,70l3.1,1.8l2.3-0.5l-3.1-1.8L123.7,70z"/>
		
			<linearGradient id="SVGID_28_" gradientUnits="userSpaceOnUse" x1="104.7069" y1="258.0168" x2="163.59" y2="258.0168" gradientTransform="matrix(1 0 0 -1 0 338)">
			<stop  offset="0" style="stop-color:#5C8EE4"/>
			<stop  offset="1" style="stop-color:#65D5EA"/>
		</linearGradient>
		<path class="st35" d="M104.7,69.1c0,0,0,3.6,0,4.6c-0.1,4.4,2.7,8.8,8.6,12.2c11.5,6.6,30.1,6.6,41.6-0.1c5.8-3.3,8.7-7.7,8.7-12
			c0-1.5,0-4.6,0-4.6L104.7,69.1z"/>
		<path class="st18" d="M133.9,90.9c-7.5,0-15-1.7-20.8-4.9s-8.7-7.6-8.6-12.3c0-0.9,0-4.5,0-4.6V69h59.1v0.1c0,0,0,3.2,0,4.6
			c0,4.6-3.1,8.9-8.8,12.1C149.1,89.3,141.5,90.9,133.9,90.9z M104.8,69.3c0,0.7,0,3.6,0,4.4c-0.1,4.6,2.9,8.8,8.5,12.1
			c11.4,6.6,30,6.6,41.5-0.1c5.5-3.2,8.6-7.4,8.6-11.9c0-1.3,0-3.9,0-4.5L104.8,69.3z"/>
		
			<linearGradient id="SVGID_29_" gradientUnits="userSpaceOnUse" x1="104.6773" y1="268.8857" x2="163.5615" y2="268.8857" gradientTransform="matrix(1 0 0 -1 0 338)">
			<stop  offset="0" style="stop-color:#5C8EE4"/>
			<stop  offset="1" style="stop-color:#65D5EA"/>
		</linearGradient>
		<path class="st36" d="M155,57.1c-11.5-6.6-30.1-6.6-41.6,0.1s-11.6,17.4-0.2,24s30.1,6.6,41.6-0.1S166.5,63.7,155,57.1z"/>
		<path class="st18" d="M133.9,86.2c-7.5,0-15-1.7-20.8-4.9c-5.6-3.2-8.6-7.5-8.6-12.1s3.1-8.9,8.8-12.2c11.6-6.7,30.3-6.7,41.8-0.1
			c5.6,3.2,8.6,7.5,8.6,12s-3.1,9-8.7,12.3C149.1,84.6,141.5,86.2,133.9,86.2z M134.4,52.2c-7.6,0-15.1,1.7-20.9,5
			c-5.6,3.2-8.6,7.5-8.6,12s3,8.7,8.5,11.8c11.4,6.6,30,6.6,41.5-0.1c5.6-3.2,8.6-7.5,8.6-12s-3-8.7-8.5-11.8
			C149.3,53.9,141.8,52.3,134.4,52.2L134.4,52.2z"/>
		<path class="st20" d="M151.4,59.2c-9.4-5.5-24.8-5.4-34.4,0.1s-9.6,14.4-0.1,19.8s24.8,5.4,34.4-0.1S160.8,64.7,151.4,59.2z"/>
		<path class="st18" d="M134,83.3c-6.2,0-12.4-1.4-17.1-4.1s-7.1-6.2-7.1-10s2.6-7.4,7.2-10.1c9.5-5.5,25-5.5,34.5-0.1
			c4.6,2.7,7.1,6.2,7.1,10s-2.6,7.4-7.2,10.1S140.2,83.3,134,83.3z M134.3,55.3c-6.2,0-12.5,1.4-17.2,4.1c-4.6,2.6-7.1,6.1-7.1,9.8
			s2.5,7.1,7,9.8c9.4,5.4,24.8,5.4,34.2-0.1c4.6-2.7,7.1-6.2,7.1-9.9s-2.5-7.1-7-9.8l0,0C146.6,56.6,140.5,55.2,134.3,55.3
			L134.3,55.3z"/>
		
			<linearGradient id="SVGID_30_" gradientUnits="userSpaceOnUse" x1="158.44" y1="275.7275" x2="109.86" y2="275.7275" gradientTransform="matrix(1 0 0 -1 0 338)">
			<stop  offset="0" style="stop-color:#5C8EE4"/>
			<stop  offset="1" style="stop-color:#65D5EA"/>
		</linearGradient>
		<path class="st37" d="M117,59.3c-4.9,2.8-7.2,6.5-7.2,10.2c0.1-3.5,2.5-7,7.2-9.7c9.5-5.5,24.9-5.5,34.4-0.1c4.6,2.7,7,6.2,7,9.7
			c0.1-3.7-2.2-7.3-7-10.1C141.9,53.7,126.6,53.8,117,59.3z"/>
		<path class="st18" d="M110,69.4h-0.2c-0.1-3.9,2.5-7.5,7.2-10.3c9.5-5.5,25-5.5,34.5-0.1c4.7,2.7,7.2,6.4,7.1,10.2h-0.2
			c-0.1-3.6-2.6-7-7-9.6c-9.4-5.4-24.8-5.4-34.2,0.1C112.6,62.4,110.1,65.8,110,69.4z M117,59.3l0.1,0.1c-2.4,1.3-4.4,3.1-5.8,5.3
			c1.5-2.1,3.4-3.9,5.7-5.1c9.5-5.5,25-5.5,34.5-0.1c2.3,1.2,4.2,3,5.6,5.1c-1.4-2.3-3.4-4.1-5.8-5.4c-9.4-5.4-24.8-5.4-34.2,0.1
			L117,59.3z"/>
		
			<linearGradient id="SVGID_31_" gradientUnits="userSpaceOnUse" x1="-1241.1051" y1="114.0521" x2="-1236.1951" y2="133.8821" gradientTransform="matrix(-0.14 0.58 1.75 -0.14 -261.83 804.77)">
			<stop  offset="0" style="stop-color:#5FA5E6"/>
			<stop  offset="1" style="stop-color:#67EAEC"/>
		</linearGradient>
		<polygon class="st38" points="146.5,68.1 153.5,66.6 138.7,58 133.9,60.8 141.7,65.3 115.1,71.3 119.9,74.1 130.1,80 135,77.2 
			126.8,72.5 		"/>
		<path class="st18" d="M130.1,80.1l-15.4-8.9l26.7-6l-7.7-4.5l5.1-2.9l15.1,8.7l-26.6,5.9l8,4.6L130.1,80.1z M115.4,71.3l14.7,8.5
			l4.6-2.6l-8.2-4.7l0.3-0.1l26.3-5.9l-14.4-8.3l-4.6,2.6l7.9,4.6L115.4,71.3z"/>
		
			<linearGradient id="SVGID_32_" gradientUnits="userSpaceOnUse" x1="-1233.0417" y1="126.8878" x2="-1231.9718" y2="131.1878" gradientTransform="matrix(-0.14 0.58 1.75 -0.14 -261.83 804.77)">
			<stop  offset="0" style="stop-color:#5FA5E6"/>
			<stop  offset="1" style="stop-color:#67EAEC"/>
		</linearGradient>
		<polygon class="st39" points="142.5,73.2 145.2,72.6 141.8,70.6 139.1,71.2 		"/>
		<path class="st18" d="M142.5,73.3l-3.7-2.2l3-0.7l3.7,2.2L142.5,73.3z M139.5,71.2l3.1,1.8l2.3-0.5l-3.1-1.8L139.5,71.2z"/>
		
			<linearGradient id="SVGID_33_" gradientUnits="userSpaceOnUse" x1="-1246.6206" y1="119.0626" x2="-1245.5505" y2="123.3625" gradientTransform="matrix(-0.14 0.58 1.75 -0.14 -261.83 804.77)">
			<stop  offset="0" style="stop-color:#5FA5E6"/>
			<stop  offset="1" style="stop-color:#67EAEC"/>
		</linearGradient>
		<polygon class="st40" points="133.5,65.8 130.1,63.8 127.4,64.4 130.8,66.4 		"/>
		<path class="st18" d="M130.8,66.5l-3.8-2.2l3-0.7l3.7,2.2L130.8,66.5z M127.7,64.5l3.1,1.8l2.3-0.5l-3.1-1.8L127.7,64.5z"/>
		
			<linearGradient id="SVGID_34_" gradientUnits="userSpaceOnUse" x1="-1232.0166" y1="124.6538" x2="-1230.9567" y2="128.9539" gradientTransform="matrix(-0.14 0.58 1.75 -0.14 -261.83 804.77)">
			<stop  offset="0" style="stop-color:#5FA5E6"/>
			<stop  offset="1" style="stop-color:#67EAEC"/>
		</linearGradient>
		<polygon class="st41" points="141.2,73.5 137.8,71.5 135.1,72.1 138.5,74.1 		"/>
		<path class="st18" d="M138.5,74.2l-3.7-2.2l3-0.7l3.7,2.2L138.5,74.2z M135.4,72.1l3.1,1.8l2.3-0.5l-3.1-1.8L135.4,72.1z"/>
		
			<linearGradient id="SVGID_35_" gradientUnits="userSpaceOnUse" x1="-1245.5955" y1="116.8286" x2="-1244.5354" y2="121.1286" gradientTransform="matrix(-0.14 0.58 1.75 -0.14 -261.83 804.77)">
			<stop  offset="0" style="stop-color:#5FA5E6"/>
			<stop  offset="1" style="stop-color:#67EAEC"/>
		</linearGradient>
		<polygon class="st42" points="126,64.7 123.3,65.3 126.8,67.3 129.4,66.7 		"/>
		<path class="st18" d="M126.8,67.4l-3.8-2.2l3-0.7l3.7,2.2L126.8,67.4z M123.7,65.4l3.1,1.8l2.3-0.5l-3.1-1.8L123.7,65.4z"/>
		
			<linearGradient id="SVGID_36_" gradientUnits="userSpaceOnUse" x1="104.7069" y1="262.6968" x2="163.59" y2="262.6968" gradientTransform="matrix(1 0 0 -1 0 338)">
			<stop  offset="0" style="stop-color:#5C8EE4"/>
			<stop  offset="1" style="stop-color:#65D5EA"/>
		</linearGradient>
		<path class="st43" d="M104.7,64.5c0,0,0,3.6,0,4.6c-0.1,4.4,2.7,8.8,8.6,12.2c11.5,6.6,30.1,6.6,41.6-0.1c5.8-3.3,8.7-7.7,8.7-12
			c0-1.5,0-4.6,0-4.6L104.7,64.5z"/>
		<path class="st18" d="M133.9,86.2c-7.5,0-15-1.7-20.8-4.9s-8.7-7.6-8.6-12.3c0-0.9,0-4.5,0-4.6v-0.1h59.1v0.1c0,0,0,3.2,0,4.6
			c0,4.6-3.1,8.9-8.8,12.1C149.1,84.6,141.5,86.2,133.9,86.2z M104.8,64.6c0,0.7,0,3.6,0,4.4c-0.1,4.6,2.9,8.8,8.5,12.1
			c11.4,6.6,30,6.6,41.5-0.1c5.5-3.2,8.6-7.4,8.6-11.9c0-1.3,0-3.9,0-4.5H104.8z"/>
		
			<linearGradient id="SVGID_37_" gradientUnits="userSpaceOnUse" x1="104.6773" y1="273.5656" x2="163.5615" y2="273.5656" gradientTransform="matrix(1 0 0 -1 0 338)">
			<stop  offset="0" style="stop-color:#5C8EE4"/>
			<stop  offset="1" style="stop-color:#65D5EA"/>
		</linearGradient>
		<path class="st44" d="M155,52.4c-11.5-6.6-30.1-6.6-41.6,0.1s-11.6,17.4-0.2,24s30.1,6.6,41.6-0.1S166.5,59,155,52.4z"/>
		<path class="st18" d="M133.9,81.6c-7.5,0-15-1.7-20.8-4.9c-5.6-3.2-8.6-7.5-8.6-12s3.1-8.9,8.8-12.2c11.6-6.7,30.3-6.7,41.8-0.1
			c5.6,3.2,8.6,7.5,8.6,12s-3.1,8.9-8.8,12.2C149.1,79.9,141.5,81.6,133.9,81.6z M134.4,47.6c-7.6,0-15.1,1.7-20.9,5
			c-5.6,3.2-8.6,7.5-8.6,12s3,8.7,8.5,11.8c11.4,6.6,30,6.6,41.5-0.1c5.6-3.2,8.6-7.5,8.6-12s-3-8.7-8.5-11.8
			C149.3,49.2,141.8,47.6,134.4,47.6L134.4,47.6z"/>
		<path class="st20" d="M151.4,54.5c-9.4-5.5-24.8-5.4-34.4,0.1s-9.6,14.4-0.1,19.8s24.8,5.4,34.4-0.1S160.8,60,151.4,54.5z"/>
		<path class="st18" d="M134,78.6c-6.2,0-12.4-1.4-17.1-4.1s-7.1-6.2-7.1-10s2.6-7.4,7.2-10.1c9.5-5.5,25-5.5,34.5-0.1
			c4.6,2.7,7.1,6.2,7.1,10s-2.6,7.4-7.2,10.1S140.2,78.6,134,78.6z M134.3,50.6c-6.2,0-12.5,1.4-17.2,4.1c-4.6,2.7-7.1,6.2-7.1,9.9
			c0,3.7,2.5,7.1,7,9.8c9.4,5.4,24.8,5.4,34.2-0.1c4.6-2.7,7.1-6.2,7.1-9.9s-2.5-7.1-7-9.8l0,0C146.6,51.9,140.5,50.6,134.3,50.6
			L134.3,50.6z"/>
		
			<linearGradient id="SVGID_38_" gradientUnits="userSpaceOnUse" x1="158.44" y1="280.4232" x2="109.86" y2="280.4232" gradientTransform="matrix(1 0 0 -1 0 338)">
			<stop  offset="0" style="stop-color:#5C8EE4"/>
			<stop  offset="1" style="stop-color:#65D5EA"/>
		</linearGradient>
		<path class="st45" d="M117,54.6c-4.9,2.8-7.2,6.5-7.2,10.2c0.1-3.5,2.5-7,7.2-9.7c9.5-5.5,24.9-5.5,34.4-0.1c4.6,2.7,7,6.2,7,9.7
			c0.1-3.7-2.2-7.3-7-10.1C141.9,49,126.6,49.1,117,54.6z"/>
		<path class="st18" d="M110,64.7h-0.2c-0.1-3.9,2.5-7.5,7.2-10.3l0.1,0.1l-0.1-0.1c9.5-5.5,25-5.5,34.5-0.1
			c4.7,2.7,7.2,6.4,7.1,10.2h-0.2c-0.1-3.6-2.6-7-7-9.6c-9.4-5.4-24.8-5.4-34.2,0.1C112.6,57.7,110.1,61.1,110,64.7z M134.3,50.6
			c-6.2,0-12.5,1.4-17.2,4.1l0,0c-2.4,1.3-4.4,3.1-5.8,5.3c1.5-2.1,3.4-3.9,5.7-5.1c9.5-5.5,25-5.5,34.5-0.1c2.3,1.2,4.2,3,5.6,5.2
			c-1.4-2.3-3.4-4.1-5.8-5.4C146.6,51.9,140.5,50.6,134.3,50.6L134.3,50.6z"/>
		
			<linearGradient id="SVGID_39_" gradientUnits="userSpaceOnUse" x1="-1249.3342" y1="113.3814" x2="-1244.4243" y2="133.2214" gradientTransform="matrix(-0.14 0.58 1.75 -0.14 -261.83 804.77)">
			<stop  offset="0" style="stop-color:#5FA5E6"/>
			<stop  offset="1" style="stop-color:#67EAEC"/>
		</linearGradient>
		<polygon class="st46" points="146.5,63.4 153.5,61.9 138.7,53.4 133.9,56.1 141.7,60.7 115.1,66.6 119.9,69.4 130.1,75.3 
			135,72.5 126.8,67.8 		"/>
		<path class="st18" d="M130.1,75.4l-15.4-8.9l26.7-6l-7.7-4.5l5.1-2.9l15.1,8.7l-26.6,5.9l8,4.6L130.1,75.4z M115.4,66.7l14.7,8.5
			l4.6-2.6l-8.2-4.7l0.3-0.1l26.3-5.9l-14.4-8.3l-4.6,2.6l7.9,4.6L115.4,66.7z"/>
		
			<linearGradient id="SVGID_40_" gradientUnits="userSpaceOnUse" x1="-1241.26" y1="126.2052" x2="-1240.2" y2="130.5152" gradientTransform="matrix(-0.14 0.58 1.75 -0.14 -261.83 804.77)">
			<stop  offset="0" style="stop-color:#5FA5E6"/>
			<stop  offset="1" style="stop-color:#67EAEC"/>
		</linearGradient>
		<polygon class="st47" points="142.5,68.5 145.2,67.9 141.8,65.9 139.1,66.5 		"/>
		<path class="st18" d="M142.5,68.6l-3.7-2.2l3-0.7l3.7,2.2L142.5,68.6z M139.5,66.5l3.1,1.8l2.3-0.5l-3.1-1.8L139.5,66.5z"/>
		
			<linearGradient id="SVGID_41_" gradientUnits="userSpaceOnUse" x1="-1254.8492" y1="118.3877" x2="-1253.7793" y2="122.6977" gradientTransform="matrix(-0.14 0.58 1.75 -0.14 -261.83 804.77)">
			<stop  offset="0" style="stop-color:#5FA5E6"/>
			<stop  offset="1" style="stop-color:#67EAEC"/>
		</linearGradient>
		<polygon class="st48" points="133.5,61.1 130.1,59.1 127.4,59.7 130.8,61.7 		"/>
		<path class="st18" d="M130.8,61.8l-3.8-2.2l3-0.7l3.7,2.2L130.8,61.8z M127.7,59.8l3.1,1.8l2.3-0.5l-3.1-1.8L127.7,59.8z"/>
		
			<linearGradient id="SVGID_42_" gradientUnits="userSpaceOnUse" x1="-1240.2582" y1="123.992" x2="-1239.1881" y2="128.292" gradientTransform="matrix(-0.14 0.58 1.75 -0.14 -261.83 804.77)">
			<stop  offset="0" style="stop-color:#5FA5E6"/>
			<stop  offset="1" style="stop-color:#67EAEC"/>
		</linearGradient>
		<polygon class="st49" points="141.2,68.8 137.8,66.8 135.1,67.4 138.5,69.4 		"/>
		<path class="st18" d="M138.5,69.5l-3.7-2.2l3-0.7l3.7,2.2L138.5,69.5z M135.4,67.4l3.1,1.8l2.3-0.5l-3.1-1.8L135.4,67.4z"/>
		
			<linearGradient id="SVGID_43_" gradientUnits="userSpaceOnUse" x1="-1253.8241" y1="116.1537" x2="-1252.7642" y2="120.4637" gradientTransform="matrix(-0.14 0.58 1.75 -0.14 -261.83 804.77)">
			<stop  offset="0" style="stop-color:#5FA5E6"/>
			<stop  offset="1" style="stop-color:#67EAEC"/>
		</linearGradient>
		<polygon class="st50" points="126,60 123.3,60.6 126.8,62.6 129.4,62 		"/>
		<path class="st18" d="M126.8,62.7l-3.8-2.2l3-0.7l3.8,2.1L126.8,62.7z M123.7,60.7l3.1,1.8l2.3-0.5l-3.1-1.8L123.7,60.7z"/>
		
			<linearGradient id="SVGID_44_" gradientUnits="userSpaceOnUse" x1="104.7069" y1="267.3568" x2="163.59" y2="267.3568" gradientTransform="matrix(1 0 0 -1 0 338)">
			<stop  offset="0" style="stop-color:#5C8EE4"/>
			<stop  offset="1" style="stop-color:#65D5EA"/>
		</linearGradient>
		<path class="st51" d="M104.7,59.8c0,0,0,3.6,0,4.6c-0.1,4.4,2.7,8.8,8.6,12.2c11.5,6.6,30.1,6.6,41.6-0.1c5.8-3.3,8.7-7.7,8.7-12
			c0-1.5,0-4.6,0-4.6L104.7,59.8z"/>
		<path class="st18" d="M133.9,81.6c-7.5,0-15-1.7-20.8-4.9s-8.7-7.6-8.6-12.3c0-0.9,0-4.5,0-4.5v-0.1h59.1v0.1c0,0,0,3.2,0,4.6
			c0,4.6-3.1,8.9-8.8,12.1C149.1,79.9,141.5,81.6,133.9,81.6z M104.8,59.9c0,0.7,0,3.6,0,4.4c-0.1,4.6,2.9,8.8,8.5,12.1
			c11.4,6.6,30,6.6,41.5-0.1c5.5-3.2,8.6-7.4,8.6-11.9c0-1.3,0-3.9,0-4.5L104.8,59.9z"/>
		
			<linearGradient id="SVGID_45_" gradientUnits="userSpaceOnUse" x1="104.6773" y1="278.2256" x2="163.5615" y2="278.2256" gradientTransform="matrix(1 0 0 -1 0 338)">
			<stop  offset="0" style="stop-color:#5C8EE4"/>
			<stop  offset="1" style="stop-color:#65D5EA"/>
		</linearGradient>
		<path class="st52" d="M155,47.7c-11.5-6.6-30.1-6.6-41.6,0.1s-11.6,17.4-0.2,24s30.1,6.6,41.6-0.1S166.5,54.3,155,47.7z"/>
		<path class="st18" d="M133.9,76.9c-7.5,0-15-1.7-20.8-4.9c-5.6-3.2-8.6-7.5-8.6-12s3.1-8.9,8.8-12.2c11.6-6.7,30.3-6.7,41.8-0.1
			c5.6,3.2,8.6,7.5,8.6,12s-3.1,8.9-8.8,12.2C149.1,75.2,141.5,76.9,133.9,76.9z M134.4,42.9c-7.6,0-15.1,1.7-20.9,5
			c-5.6,3.2-8.6,7.5-8.6,12s3,8.7,8.5,11.8c11.4,6.6,30,6.6,41.5-0.1c5.6-3.2,8.6-7.5,8.6-12s-3-8.7-8.5-11.8
			C149.3,44.6,141.8,42.9,134.4,42.9L134.4,42.9z"/>
		<path class="st20" d="M151.4,49.8c-9.4-5.5-24.8-5.4-34.4,0.1s-9.6,14.4-0.1,19.8s24.8,5.4,34.4-0.1S160.8,55.3,151.4,49.8z"/>
		<path class="st18" d="M134,73.9c-6.2,0-12.4-1.4-17.1-4.1s-7.1-6.2-7.1-10s2.6-7.4,7.2-10.1c9.5-5.5,25-5.5,34.5-0.1
			c4.6,2.7,7.1,6.2,7.1,10s-2.6,7.4-7.2,10.1S140.2,73.9,134,73.9z M134.3,45.9c-6.2,0-12.5,1.4-17.2,4.1c-4.6,2.7-7.1,6.2-7.1,9.9
			s2.5,7.1,7,9.8c9.4,5.4,24.8,5.4,34.2-0.1c4.6-2.7,7.1-6.2,7.1-9.9s-2.5-7.1-7-9.8C146.6,47.2,140.5,45.9,134.3,45.9L134.3,45.9z"
			/>
		
			<linearGradient id="SVGID_46_" gradientUnits="userSpaceOnUse" x1="158.44" y1="285.0738" x2="109.86" y2="285.0738" gradientTransform="matrix(1 0 0 -1 0 338)">
			<stop  offset="0" style="stop-color:#5C8EE4"/>
			<stop  offset="1" style="stop-color:#65D5EA"/>
		</linearGradient>
		<path class="st53" d="M117,49.9c-4.9,2.8-7.2,6.5-7.2,10.2c0.1-3.5,2.5-7,7.2-9.7c9.5-5.5,24.9-5.5,34.4-0.1c4.6,2.7,7,6.2,7,9.7
			c0.1-3.7-2.2-7.3-7-10.1C141.9,44.4,126.6,44.4,117,49.9z"/>
		<path class="st18" d="M110,60.1h-0.2c-0.1-3.9,2.5-7.5,7.2-10.3l0.1,0.1l-0.1-0.1c9.5-5.5,25-5.5,34.5-0.1
			c4.7,2.7,7.2,6.4,7.1,10.2h-0.2c-0.1-3.6-2.6-7-7-9.6c-9.4-5.4-24.8-5.4-34.2,0.1C112.6,53.1,110.1,56.5,110,60.1z M134.3,45.9
			c-6.2,0-12.5,1.4-17.2,4.1l0,0c-2.4,1.3-4.4,3.1-5.8,5.3c1.5-2.1,3.4-3.9,5.7-5.1c9.5-5.5,25-5.5,34.5-0.1c2.3,1.2,4.2,3,5.6,5.1
			c-1.4-2.2-3.4-4.1-5.8-5.3C146.6,47.2,140.5,45.9,134.3,45.9z"/>
		
			<linearGradient id="SVGID_47_" gradientUnits="userSpaceOnUse" x1="-1257.53" y1="112.7207" x2="-1252.62" y2="132.5507" gradientTransform="matrix(-0.14 0.58 1.75 -0.14 -261.83 804.77)">
			<stop  offset="0" style="stop-color:#5FA5E6"/>
			<stop  offset="1" style="stop-color:#67EAEC"/>
		</linearGradient>
		<polygon class="st54" points="146.5,58.8 153.5,57.2 138.7,48.7 133.9,51.5 141.7,56 115.1,62 119.9,64.7 130.1,70.6 135,67.8 
			126.8,63.2 		"/>
		<path class="st18" d="M130.1,70.8l-15.4-8.9l26.7-6l-7.7-4.5l5.1-2.9l15.1,8.7l-26.6,6l8,4.6L130.1,70.8z M115.4,62l14.7,8.5
			l4.6-2.6l-8.2-4.7l0.3-0.1l26.3-5.9l-14.4-8.3l-4.6,2.6l7.9,4.5L115.4,62z"/>
		
			<linearGradient id="SVGID_48_" gradientUnits="userSpaceOnUse" x1="-1249.4668" y1="125.5566" x2="-1248.3967" y2="129.8566" gradientTransform="matrix(-0.14 0.58 1.75 -0.14 -261.83 804.77)">
			<stop  offset="0" style="stop-color:#5FA5E6"/>
			<stop  offset="1" style="stop-color:#67EAEC"/>
		</linearGradient>
		<polygon class="st55" points="142.5,63.8 145.2,63.2 141.8,61.2 139.1,61.8 		"/>
		<path class="st18" d="M142.5,63.9l-3.7-2.2l3-0.7l3.7,2.2L142.5,63.9z M139.5,61.9l3.1,1.8l2.3-0.5l-3.1-1.8L139.5,61.9z"/>
		
			<linearGradient id="SVGID_49_" gradientUnits="userSpaceOnUse" x1="-1263.0428" y1="117.7285" x2="-1261.9729" y2="122.0385" gradientTransform="matrix(-0.14 0.58 1.75 -0.14 -261.83 804.77)">
			<stop  offset="0" style="stop-color:#5FA5E6"/>
			<stop  offset="1" style="stop-color:#67EAEC"/>
		</linearGradient>
		<polygon class="st56" points="133.5,56.4 130.1,54.5 127.4,55 130.8,57 		"/>
		<path class="st18" d="M130.8,57.2L127,55l3-0.7l3.7,2.2L130.8,57.2z M127.7,55.1l3.1,1.8l2.3-0.5l-3.1-1.8L127.7,55.1z"/>
		
			<linearGradient id="SVGID_50_" gradientUnits="userSpaceOnUse" x1="-1248.4417" y1="123.3225" x2="-1247.3816" y2="127.6224" gradientTransform="matrix(-0.14 0.58 1.75 -0.14 -261.83 804.77)">
			<stop  offset="0" style="stop-color:#5FA5E6"/>
			<stop  offset="1" style="stop-color:#67EAEC"/>
		</linearGradient>
		<polygon class="st57" points="141.2,64.1 137.8,62.1 135.1,62.7 138.5,64.7 		"/>
		<path class="st18" d="M138.5,64.8l-3.7-2.2l3-0.7l3.7,2.2L138.5,64.8z M135.4,62.8l3.1,1.8l2.3-0.5l-3.1-1.8L135.4,62.8z"/>
		
			<linearGradient id="SVGID_51_" gradientUnits="userSpaceOnUse" x1="-1262.0203" y1="115.4969" x2="-1260.9603" y2="119.797" gradientTransform="matrix(-0.14 0.58 1.75 -0.14 -261.83 804.77)">
			<stop  offset="0" style="stop-color:#5FA5E6"/>
			<stop  offset="1" style="stop-color:#67EAEC"/>
		</linearGradient>
		<polygon class="st58" points="126,55.4 123.3,56 126.8,57.9 129.4,57.3 		"/>
		<path class="st18" d="M126.8,58.1l-3.8-2.2l3-0.7l3.7,2.2L126.8,58.1z M123.7,56l3.1,1.8l2.3-0.5l-3.1-1.8L123.7,56z"/>
		
			<linearGradient id="SVGID_52_" gradientUnits="userSpaceOnUse" x1="104.7069" y1="272.0368" x2="163.59" y2="272.0368" gradientTransform="matrix(1 0 0 -1 0 338)">
			<stop  offset="0" style="stop-color:#5C8EE4"/>
			<stop  offset="1" style="stop-color:#65D5EA"/>
		</linearGradient>
		<path class="st59" d="M104.7,55.1c0,0,0,3.6,0,4.6c-0.1,4.4,2.7,8.8,8.6,12.2c11.5,6.6,30.1,6.6,41.6-0.1c5.8-3.3,8.7-7.7,8.7-12
			c0-1.5,0-4.6,0-4.6L104.7,55.1z"/>
		<path class="st18" d="M133.9,76.9c-7.5,0-15-1.7-20.8-4.9s-8.7-7.6-8.6-12.3c0-0.9,0-4.5,0-4.5V55h59.1v0.1c0,0,0,3.2,0,4.6
			c0,4.6-3.1,8.9-8.8,12.1C149.1,75.2,141.5,76.9,133.9,76.9z M104.8,55.2c0,0.7,0,3.6,0,4.4c-0.1,4.6,2.9,8.9,8.5,12.1
			c11.4,6.6,30,6.6,41.5-0.1c5.5-3.2,8.6-7.4,8.6-11.9c0-1.3,0-3.9,0-4.5L104.8,55.2z"/>
		
			<linearGradient id="SVGID_53_" gradientUnits="userSpaceOnUse" x1="104.6773" y1="282.9156" x2="163.5615" y2="282.9156" gradientTransform="matrix(1 0 0 -1 0 338)">
			<stop  offset="0" style="stop-color:#5C8EE4"/>
			<stop  offset="1" style="stop-color:#65D5EA"/>
		</linearGradient>
		<path class="st60" d="M155,43c-11.5-6.6-30.1-6.6-41.6,0.1s-11.6,17.4-0.2,24s30.1,6.6,41.6-0.1S166.5,49.7,155,43z"/>
		<path class="st18" d="M133.9,72.2c-7.5,0-15-1.7-20.8-4.9c-5.6-3.2-8.6-7.5-8.6-12s3.1-8.9,8.8-12.2c11.6-6.7,30.3-6.7,41.8-0.1
			c5.6,3.2,8.6,7.5,8.6,12s-3.1,9-8.7,12.2C149.1,70.6,141.5,72.2,133.9,72.2z M134.4,38.2c-7.6,0-15.1,1.7-20.9,5
			c-5.6,3.2-8.6,7.5-8.6,12s3,8.7,8.5,11.8c11.4,6.6,30,6.6,41.5-0.1c5.6-3.2,8.6-7.5,8.6-12s-3-8.7-8.5-11.8
			C149.3,39.9,141.8,38.2,134.4,38.2L134.4,38.2z"/>
		<path class="st20" d="M151.4,45.2c-9.4-5.5-24.8-5.4-34.4,0.1s-9.6,14.4-0.1,19.8s24.8,5.4,34.4-0.1S160.8,50.6,151.4,45.2z"/>
		<path class="st18" d="M134,69.3c-6.2,0-12.4-1.4-17.1-4.1s-7.1-6.2-7.1-10s2.6-7.4,7.2-10.1c9.5-5.5,25-5.5,34.5-0.1
			c4.6,2.7,7.1,6.2,7.1,10s-2.6,7.4-7.2,10.1C146.7,67.8,140.2,69.3,134,69.3z M134.3,41.3c-6.2,0-12.5,1.4-17.2,4.1
			c-4.6,2.6-7.1,6.1-7.1,9.8s2.5,7.1,7,9.8c9.4,5.4,24.8,5.4,34.2-0.1c4.6-2.7,7.1-6.2,7.1-9.9s-2.5-7.1-7-9.8l0,0
			C146.6,42.6,140.5,41.2,134.3,41.3L134.3,41.3z"/>
		
			<linearGradient id="SVGID_54_" gradientUnits="userSpaceOnUse" x1="158.44" y1="289.7575" x2="109.86" y2="289.7575" gradientTransform="matrix(1 0 0 -1 0 338)">
			<stop  offset="0" style="stop-color:#5C8EE4"/>
			<stop  offset="1" style="stop-color:#65D5EA"/>
		</linearGradient>
		<path class="st61" d="M117,45.2c-4.9,2.8-7.2,6.5-7.2,10.2c0.1-3.5,2.5-7,7.2-9.7c9.5-5.5,24.9-5.5,34.4-0.1c4.6,2.7,7,6.2,7,9.7
			c0.1-3.7-2.2-7.3-7-10.1C141.9,39.7,126.6,39.7,117,45.2z"/>
		<path class="st18" d="M110,55.4h-0.2c-0.1-3.9,2.5-7.5,7.2-10.3c9.5-5.5,25-5.5,34.5-0.1c4.7,2.7,7.2,6.4,7.1,10.2h-0.2
			c-0.1-3.6-2.6-7-7-9.6c-9.4-5.4-24.8-5.4-34.2,0.1C112.6,48.4,110.1,51.8,110,55.4z M134.3,41.2c-6.2,0-12.5,1.4-17.2,4.1l0,0
			c-2.4,1.3-4.4,3.1-5.8,5.3c1.5-2.1,3.4-3.9,5.7-5.1c9.5-5.5,25-5.5,34.5-0.1c2.3,1.2,4.2,3,5.6,5.1c-1.4-2.3-3.4-4.1-5.8-5.4
			C146.6,42.6,140.5,41.2,134.3,41.2L134.3,41.2z"/>
		
			<linearGradient id="SVGID_55_" gradientUnits="userSpaceOnUse" x1="-1265.7665" y1="112.0622" x2="-1260.8566" y2="131.8921" gradientTransform="matrix(-0.14 0.58 1.75 -0.14 -261.83 804.77)">
			<stop  offset="0" style="stop-color:#5FA5E6"/>
			<stop  offset="1" style="stop-color:#67EAEC"/>
		</linearGradient>
		<polygon class="st62" points="146.5,54.1 153.5,52.5 138.7,44 133.9,46.8 141.7,51.3 115.1,57.3 119.9,60 130.1,66 135,63.2 
			126.8,58.5 		"/>
		<path class="st18" d="M130.1,66.1l-15.4-8.9l26.7-6l-7.7-4.5l5.1-2.9l15.1,8.7l-26.6,6l8,4.6L130.1,66.1z M115.4,57.3l14.7,8.5
			l4.6-2.6l-8.2-4.7l0.3-0.1l26.3-5.9l-14.4-8.3l-4.6,2.6l7.9,4.6L115.4,57.3z"/>
		
			<linearGradient id="SVGID_56_" gradientUnits="userSpaceOnUse" x1="-1257.7037" y1="124.8838" x2="-1256.6337" y2="129.1937" gradientTransform="matrix(-0.14 0.58 1.75 -0.14 -261.83 804.77)">
			<stop  offset="0" style="stop-color:#5FA5E6"/>
			<stop  offset="1" style="stop-color:#67EAEC"/>
		</linearGradient>
		<polygon class="st63" points="142.5,59.1 145.2,58.5 141.8,56.5 139.1,57.2 		"/>
		<path class="st18" d="M142.5,59.3l-3.7-2.2l3-0.7l3.7,2.2L142.5,59.3z M139.5,57.2l3.1,1.8l2.3-0.5l-3.1-1.8L139.5,57.2z"/>
		
			<linearGradient id="SVGID_57_" gradientUnits="userSpaceOnUse" x1="-1271.2823" y1="117.0583" x2="-1270.2124" y2="121.3683" gradientTransform="matrix(-0.14 0.58 1.75 -0.14 -261.83 804.77)">
			<stop  offset="0" style="stop-color:#5FA5E6"/>
			<stop  offset="1" style="stop-color:#67EAEC"/>
		</linearGradient>
		<polygon class="st64" points="133.5,51.8 130.1,49.8 127.4,50.4 130.8,52.3 		"/>
		<path class="st18" d="M130.8,52.5l-3.8-2.2l3-0.7l3.7,2.2L130.8,52.5z M127.7,50.4l3.1,1.8l2.3-0.5l-3.1-1.8L127.7,50.4z"/>
		
			<linearGradient id="SVGID_58_" gradientUnits="userSpaceOnUse" x1="-1256.6887" y1="122.6601" x2="-1255.6187" y2="126.9701" gradientTransform="matrix(-0.14 0.58 1.75 -0.14 -261.83 804.77)">
			<stop  offset="0" style="stop-color:#5FA5E6"/>
			<stop  offset="1" style="stop-color:#67EAEC"/>
		</linearGradient>
		<polygon class="st65" points="141.2,59.4 137.8,57.5 135.1,58 138.5,60 		"/>
		<path class="st18" d="M138.5,60.2l-3.7-2.2l3-0.7l3.7,2.2L138.5,60.2z M135.4,58.1l3.1,1.8l2.3-0.5l-3.1-1.8L135.4,58.1z"/>
		
			<linearGradient id="SVGID_59_" gradientUnits="userSpaceOnUse" x1="-1270.2572" y1="114.8241" x2="-1269.1973" y2="119.1341" gradientTransform="matrix(-0.14 0.58 1.75 -0.14 -261.83 804.77)">
			<stop  offset="0" style="stop-color:#5FA5E6"/>
			<stop  offset="1" style="stop-color:#67EAEC"/>
		</linearGradient>
		<polygon class="st66" points="126,50.7 123.3,51.3 126.8,53.2 129.4,52.7 		"/>
		<path class="st18" d="M126.8,53.4l-3.8-2.2l3-0.7l3.7,2.2L126.8,53.4z M123.7,51.3l3.1,1.8l2.3-0.5l-3.1-1.8L123.7,51.3z"/>
		
			<linearGradient id="SVGID_60_" gradientUnits="userSpaceOnUse" x1="104.7069" y1="276.7268" x2="163.59" y2="276.7268" gradientTransform="matrix(1 0 0 -1 0 338)">
			<stop  offset="0" style="stop-color:#5C8EE4"/>
			<stop  offset="1" style="stop-color:#65D5EA"/>
		</linearGradient>
		<path class="st67" d="M104.7,50.4c0,0,0,3.6,0,4.6c-0.1,4.4,2.7,8.8,8.6,12.2c11.5,6.6,30.1,6.6,41.6-0.1c5.8-3.3,8.7-7.7,8.7-12
			c0-1.5,0-4.6,0-4.6L104.7,50.4z"/>
		<path class="st18" d="M133.9,72.2c-7.5,0-15-1.7-20.8-4.9s-8.7-7.6-8.6-12.3c0-0.9,0-4.5,0-4.5v-0.1h59.1v0.1c0,0,0,3.2,0,4.6
			c0,4.6-3.1,8.9-8.8,12.1C149.1,70.6,141.5,72.2,133.9,72.2z M104.8,50.6c0,0.7,0,3.6,0,4.4c-0.1,4.6,2.9,8.8,8.5,12.1
			c11.4,6.6,30,6.6,41.5-0.1c5.5-3.2,8.6-7.4,8.6-11.9c0-1.3,0-3.9,0-4.5L104.8,50.6z"/>
		
			<linearGradient id="SVGID_61_" gradientUnits="userSpaceOnUse" x1="104.6773" y1="287.5956" x2="163.5615" y2="287.5956" gradientTransform="matrix(1 0 0 -1 0 338)">
			<stop  offset="0" style="stop-color:#5C8EE4"/>
			<stop  offset="1" style="stop-color:#65D5EA"/>
		</linearGradient>
		<path class="st68" d="M155,38.4c-11.5-6.6-30.1-6.6-41.6,0.1s-11.6,17.4-0.2,24s30.1,6.6,41.6-0.1S166.5,45,155,38.4z"/>
		<path class="st18" d="M133.9,67.5c-7.5,0-15-1.7-20.8-4.9c-5.6-3.2-8.6-7.5-8.6-12s3.1-8.9,8.8-12.2c11.6-6.7,30.3-6.7,41.8-0.1
			c5.6,3.2,8.6,7.5,8.6,12s-3.1,8.9-8.8,12.2C149.1,65.9,141.5,67.5,133.9,67.5z M134.4,33.5c-7.6,0-15.1,1.7-20.9,5
			c-5.6,3.2-8.6,7.5-8.6,12s3,8.7,8.5,11.8c11.4,6.6,30,6.6,41.5-0.1c5.6-3.2,8.6-7.5,8.6-12s-3-8.7-8.5-11.8
			C149.3,35.2,141.8,33.6,134.4,33.5L134.4,33.5z"/>
		<path class="st20" d="M151.4,40.5c-9.4-5.5-24.8-5.4-34.4,0.1s-9.6,14.4-0.1,19.8s24.8,5.4,34.4-0.1S160.8,45.9,151.4,40.5z"/>
		<path class="st18" d="M134,64.6c-6.2,0-12.4-1.4-17.1-4.1s-7.1-6.2-7.1-10s2.6-7.4,7.2-10.1c9.5-5.5,25-5.5,34.5-0.1
			c4.6,2.7,7.1,6.2,7.1,10s-2.6,7.4-7.2,10.1S140.2,64.6,134,64.6z M134.3,36.6c-6.2,0-12.5,1.4-17.2,4.1c-4.6,2.7-7.1,6.2-7.1,9.9
			s2.5,7.1,7,9.8c9.4,5.4,24.8,5.4,34.2-0.1c4.6-2.7,7.1-6.2,7.1-9.9s-2.5-7.1-7-9.8l0,0C146.6,37.9,140.5,36.5,134.3,36.6
			L134.3,36.6z"/>
		
			<linearGradient id="SVGID_62_" gradientUnits="userSpaceOnUse" x1="158.44" y1="294.4413" x2="109.86" y2="294.4413" gradientTransform="matrix(1 0 0 -1 0 338)">
			<stop  offset="0" style="stop-color:#5C8EE4"/>
			<stop  offset="1" style="stop-color:#65D5EA"/>
		</linearGradient>
		<path class="st69" d="M117,40.5c-4.9,2.8-7.2,6.5-7.2,10.2c0.1-3.5,2.5-7,7.2-9.7c9.5-5.5,24.9-5.5,34.4-0.1c4.6,2.7,7,6.2,7,9.7
			c0.1-3.7-2.2-7.3-7-10.1C141.9,35,126.6,35,117,40.5z"/>
		<path class="st18" d="M110,50.7h-0.2c-0.1-3.9,2.5-7.5,7.2-10.3c9.5-5.5,25-5.5,34.5-0.1c4.7,2.7,7.2,6.4,7.1,10.2h-0.2
			c-0.1-3.6-2.6-7-7-9.6c-9.4-5.4-24.8-5.4-34.2,0.1C112.6,43.7,110.1,47.1,110,50.7z M117,40.6l0.1,0.1c-2.3,1.3-4.3,3.1-5.8,5.3
			c1.5-2.1,3.4-3.9,5.7-5.1c9.5-5.5,25-5.5,34.5-0.1c2.3,1.2,4.2,3,5.6,5.1c-1.4-2.3-3.4-4.1-5.8-5.4
			C141.9,35.2,126.5,35.2,117,40.6L117,40.6z"/>
		
			<linearGradient id="SVGID_63_" gradientUnits="userSpaceOnUse" x1="-1274.006" y1="111.3919" x2="-1269.0959" y2="131.2219" gradientTransform="matrix(-0.14 0.58 1.75 -0.14 -261.83 804.77)">
			<stop  offset="0" style="stop-color:#5FA5E6"/>
			<stop  offset="1" style="stop-color:#67EAEC"/>
		</linearGradient>
		<polygon class="st70" points="146.5,49.4 153.5,47.9 138.7,39.3 133.9,42.1 141.7,46.6 115.1,52.6 119.9,55.4 130.1,61.3 
			135,58.5 126.8,53.8 		"/>
		<path class="st18" d="M130.1,61.4l-15.4-8.9l26.7-6l-7.7-4.5l5.1-2.9l15.1,8.7l-26.6,6l8,4.6L130.1,61.4z M115.4,52.6l14.7,8.5
			l4.6-2.6l-8.2-4.7l0.3-0.1l26.3-5.9l-14.4-8.3l-4.6,2.6l7.9,4.6L115.4,52.6z"/>
		
			<linearGradient id="SVGID_64_" gradientUnits="userSpaceOnUse" x1="-1265.9324" y1="124.2052" x2="-1264.8724" y2="128.5152" gradientTransform="matrix(-0.14 0.58 1.75 -0.14 -261.83 804.77)">
			<stop  offset="0" style="stop-color:#5FA5E6"/>
			<stop  offset="1" style="stop-color:#67EAEC"/>
		</linearGradient>
		<polygon class="st71" points="142.5,54.4 145.2,53.8 141.8,51.9 139.1,52.5 		"/>
		<path class="st18" d="M142.5,54.6l-3.7-2.2l3-0.7l3.7,2.2L142.5,54.6z M139.5,52.5l3.1,1.8l2.3-0.5l-3.1-1.8L139.5,52.5z"/>
		
			<linearGradient id="SVGID_65_" gradientUnits="userSpaceOnUse" x1="-1279.5114" y1="116.3919" x2="-1278.4513" y2="120.692" gradientTransform="matrix(-0.14 0.58 1.75 -0.14 -261.83 804.77)">
			<stop  offset="0" style="stop-color:#5FA5E6"/>
			<stop  offset="1" style="stop-color:#67EAEC"/>
		</linearGradient>
		<polygon class="st72" points="133.5,47.1 130.1,45.1 127.4,45.7 130.8,47.7 		"/>
		<path class="st18" d="M130.8,47.8l-3.8-2.2l3-0.7l3.7,2.2L130.8,47.8z M127.7,45.7l3.1,1.8l2.3-0.5l-3.1-1.8L127.7,45.7z"/>
		
			<linearGradient id="SVGID_66_" gradientUnits="userSpaceOnUse" x1="-1264.9282" y1="122.0018" x2="-1263.8583" y2="126.3018" gradientTransform="matrix(-0.14 0.58 1.75 -0.14 -261.83 804.77)">
			<stop  offset="0" style="stop-color:#5FA5E6"/>
			<stop  offset="1" style="stop-color:#67EAEC"/>
		</linearGradient>
		<polygon class="st73" points="141.2,54.8 137.8,52.8 135.1,53.4 138.5,55.3 		"/>
		<path class="st18" d="M138.5,55.5l-3.7-2.2l3-0.7l3.7,2.2L138.5,55.5z M135.4,53.4l3.1,1.8l2.3-0.5l-3.1-1.8L135.4,53.4z"/>
		
			<linearGradient id="SVGID_67_" gradientUnits="userSpaceOnUse" x1="-1278.5071" y1="114.1766" x2="-1277.437" y2="118.4765" gradientTransform="matrix(-0.14 0.58 1.75 -0.14 -261.83 804.77)">
			<stop  offset="0" style="stop-color:#5FA5E6"/>
			<stop  offset="1" style="stop-color:#67EAEC"/>
		</linearGradient>
		<polygon class="st74" points="126,46 123.3,46.6 126.8,48.6 129.4,48 		"/>
		<path class="st18" d="M126.8,48.7l-3.8-2.2l3-0.7l3.8,2.2L126.8,48.7z M123.7,46.6l3.1,1.8l2.3-0.5l-3.1-1.8L123.7,46.6z"/>
		
			<linearGradient id="SVGID_68_" gradientUnits="userSpaceOnUse" x1="104.7069" y1="281.4068" x2="163.59" y2="281.4068" gradientTransform="matrix(1 0 0 -1 0 338)">
			<stop  offset="0" style="stop-color:#5C8EE4"/>
			<stop  offset="1" style="stop-color:#65D5EA"/>
		</linearGradient>
		<path class="st75" d="M104.7,45.8c0,0,0,3.6,0,4.6c-0.1,4.4,2.7,8.8,8.6,12.2c11.5,6.6,30.1,6.6,41.6-0.1c5.8-3.3,8.7-7.7,8.7-12
			c0-1.5,0-4.6,0-4.6L104.7,45.8z"/>
		<path class="st18" d="M133.9,67.5c-7.5,0-15-1.7-20.8-4.9s-8.7-7.6-8.6-12.3c0-0.9,0-4.5,0-4.5v-0.1h59.1v0.1c0,0,0,3.2,0,4.6
			c0,4.6-3.1,8.9-8.8,12.1C149.1,65.9,141.5,67.5,133.9,67.5z M104.8,45.9c0,0.7,0,3.6,0,4.4c-0.1,4.6,2.9,8.9,8.5,12.1
			c11.4,6.6,30,6.5,41.5-0.1c5.5-3.2,8.6-7.4,8.6-11.9c0-1.3,0-3.9,0-4.5L104.8,45.9z"/>
		
			<linearGradient id="SVGID_69_" gradientUnits="userSpaceOnUse" x1="104.6773" y1="292.2756" x2="163.5615" y2="292.2756" gradientTransform="matrix(1 0 0 -1 0 338)">
			<stop  offset="0" style="stop-color:#5C8EE4"/>
			<stop  offset="1" style="stop-color:#65D5EA"/>
		</linearGradient>
		<path class="st76" d="M155,33.7c-11.5-6.6-30.1-6.6-41.6,0.1s-11.6,17.4-0.2,24s30.1,6.6,41.6-0.1S166.5,40.3,155,33.7z"/>
		<path class="st18" d="M133.9,62.9c-7.5,0-15-1.7-20.8-4.9c-5.6-3.2-8.6-7.5-8.6-12s3.1-8.9,8.8-12.2c11.6-6.7,30.3-6.7,41.8-0.1
			c5.6,3.2,8.6,7.5,8.6,12s-3.1,8.9-8.8,12.2C149.1,61.2,141.5,62.9,133.9,62.9z M134.4,28.9c-7.6,0-15.1,1.7-20.9,5
			c-5.6,3.2-8.6,7.5-8.6,12s3,8.7,8.5,11.8c11.4,6.6,30,6.6,41.5-0.1c5.6-3.2,8.6-7.5,8.6-12s-3-8.6-8.5-11.8
			C149.3,30.5,141.8,28.9,134.4,28.9L134.4,28.9z"/>
		<path class="st20" d="M151.4,35.8c-9.4-5.5-24.8-5.4-34.4,0.1s-9.6,14.4-0.1,19.8s24.8,5.4,34.4-0.1S160.8,41.2,151.4,35.8z"/>
		<path class="st18" d="M134,59.9c-6.2,0-12.4-1.4-17.1-4.1s-7.1-6.2-7.1-10s2.6-7.4,7.2-10.1c9.5-5.5,25-5.5,34.5-0.1
			c4.6,2.7,7.1,6.2,7.1,10s-2.6,7.4-7.3,10.1S140.2,59.9,134,59.9z M134.3,31.9c-6.2,0-12.5,1.4-17.2,4.1c-4.6,2.7-7.1,6.2-7.1,9.9
			s2.5,7.1,7,9.8c9.4,5.4,24.8,5.4,34.2-0.1c4.6-2.7,7.1-6.2,7.1-9.9s-2.5-7.1-7-9.8C146.6,33.2,140.5,31.9,134.3,31.9L134.3,31.9z"
			/>
		
			<linearGradient id="SVGID_70_" gradientUnits="userSpaceOnUse" x1="158.44" y1="299.1238" x2="109.86" y2="299.1238" gradientTransform="matrix(1 0 0 -1 0 338)">
			<stop  offset="0" style="stop-color:#5C8EE4"/>
			<stop  offset="1" style="stop-color:#65D5EA"/>
		</linearGradient>
		<path class="st77" d="M117,35.9c-4.9,2.8-7.2,6.5-7.2,10.2c0.1-3.5,2.5-7,7.2-9.7c9.5-5.5,24.9-5.5,34.4-0.1c4.6,2.7,7,6.2,7,9.7
			c0.1-3.7-2.2-7.3-7-10.1C141.9,30.3,126.6,30.4,117,35.9z"/>
		<path class="st18" d="M110,46h-0.2c-0.1-3.9,2.5-7.5,7.2-10.3l0.1,0.1l-0.1-0.1c9.5-5.5,25-5.5,34.5-0.1c4.7,2.7,7.2,6.4,7.1,10.2
			h-0.2c-0.1-3.6-2.6-7-7-9.6c-9.4-5.4-24.8-5.4-34.2,0.1C112.6,39,110.1,42.4,110,46z M134.3,31.8c-6.2,0-12.5,1.4-17.2,4.1
			c-2.4,1.3-4.4,3.1-5.8,5.3c1.5-2.1,3.4-3.9,5.7-5.1c9.5-5.5,25-5.5,34.5-0.1c2.3,1.2,4.2,3,5.6,5.1c-1.4-2.3-3.4-4.1-5.8-5.4
			C146.6,33.2,140.5,31.9,134.3,31.8L134.3,31.8z"/>
		
			<linearGradient id="SVGID_71_" gradientUnits="userSpaceOnUse" x1="-1282.2357" y1="110.7188" x2="-1277.3258" y2="130.5589" gradientTransform="matrix(-0.14 0.58 1.75 -0.14 -261.83 804.77)">
			<stop  offset="0" style="stop-color:#5FA5E6"/>
			<stop  offset="1" style="stop-color:#67EAEC"/>
		</linearGradient>
		<polygon class="st78" points="146.5,44.7 153.5,43.2 138.7,34.7 133.9,37.4 141.7,41.9 115.1,47.9 119.9,50.7 130.1,56.6 
			135,53.8 126.8,49.1 		"/>
		<path class="st18" d="M130.1,56.7l-15.4-8.9l26.7-6l-7.7-4.5l5.1-2.9l15.1,8.7l-26.6,6l8,4.6L130.1,56.7z M115.4,47.9l14.7,8.5
			l4.6-2.6l-8.2-4.7l0.3-0.1l26.3-5.9l-14.4-8.3l-4.6,2.6l7.9,4.6L115.4,47.9z"/>
		
			<linearGradient id="SVGID_72_" gradientUnits="userSpaceOnUse" x1="-1274.1715" y1="123.5531" x2="-1273.1014" y2="127.8631" gradientTransform="matrix(-0.14 0.58 1.75 -0.14 -261.83 804.77)">
			<stop  offset="0" style="stop-color:#5FA5E6"/>
			<stop  offset="1" style="stop-color:#67EAEC"/>
		</linearGradient>
		<polygon class="st79" points="142.5,49.8 145.2,49.2 141.8,47.2 139.1,47.8 		"/>
		<path class="st18" d="M142.5,49.9l-3.7-2.2l3-0.7l3.7,2.2L142.5,49.9z M139.5,47.8l3.1,1.8l2.3-0.5l-3.1-1.8L139.5,47.8z"/>
		
			<linearGradient id="SVGID_73_" gradientUnits="userSpaceOnUse" x1="-1287.7583" y1="115.7296" x2="-1286.6884" y2="120.0396" gradientTransform="matrix(-0.14 0.58 1.75 -0.14 -261.83 804.77)">
			<stop  offset="0" style="stop-color:#5FA5E6"/>
			<stop  offset="1" style="stop-color:#67EAEC"/>
		</linearGradient>
		<polygon class="st80" points="133.5,42.4 130.1,40.4 127.4,41 130.8,43 		"/>
		<path class="st18" d="M130.8,43.1L127,41l3-0.7l3.7,2.2L130.8,43.1z M127.7,41l3.1,1.8l2.3-0.5l-3.1-1.8L127.7,41z"/>
		
			<linearGradient id="SVGID_74_" gradientUnits="userSpaceOnUse" x1="-1273.1489" y1="121.3214" x2="-1272.0889" y2="125.6214" gradientTransform="matrix(-0.14 0.58 1.75 -0.14 -261.83 804.77)">
			<stop  offset="0" style="stop-color:#5FA5E6"/>
			<stop  offset="1" style="stop-color:#67EAEC"/>
		</linearGradient>
		<polygon class="st81" points="141.2,50.1 137.8,48.1 135.1,48.7 138.5,50.7 		"/>
		<path class="st18" d="M138.5,50.8l-3.7-2.2l3-0.7l3.7,2.2L138.5,50.8z M135.4,48.7l3.1,1.8l2.3-0.5l-3.1-1.8L135.4,48.7z"/>
		
			<linearGradient id="SVGID_75_" gradientUnits="userSpaceOnUse" x1="-1286.7275" y1="113.4959" x2="-1285.6676" y2="117.7959" gradientTransform="matrix(-0.14 0.58 1.75 -0.14 -261.83 804.77)">
			<stop  offset="0" style="stop-color:#5FA5E6"/>
			<stop  offset="1" style="stop-color:#67EAEC"/>
		</linearGradient>
		<polygon class="st82" points="126,41.3 123.3,41.9 126.8,43.9 129.4,43.3 		"/>
		<path class="st18" d="M126.8,44l-3.8-2.2l3-0.7l3.7,2.2L126.8,44z M123.7,42l3.1,1.8l2.3-0.5l-3.1-1.8L123.7,42z"/>
		
			<linearGradient id="SVGID_76_" gradientUnits="userSpaceOnUse" x1="148.3969" y1="225.5568" x2="207.28" y2="225.5568" gradientTransform="matrix(1 0 0 -1 0 338)">
			<stop  offset="0" style="stop-color:#5C8EE4"/>
			<stop  offset="1" style="stop-color:#65D5EA"/>
		</linearGradient>
		<path class="st83" d="M148.4,101.6c0,0,0,3.6,0,4.6c-0.1,4.4,2.7,8.8,8.6,12.2c11.5,6.6,30.1,6.6,41.6-0.1c5.8-3.3,8.7-7.7,8.7-12
			c0-1.5,0-4.6,0-4.6L148.4,101.6z"/>
		<path class="st18" d="M177.6,123.4c-7.5,0-15-1.7-20.8-4.9s-8.7-7.6-8.6-12.3c0-0.9,0-4.5,0-4.6v-0.1h59.1v0.1c0,0,0,3.2,0,4.6
			c0,4.6-3.1,8.9-8.8,12.1C192.9,121.7,185.2,123.4,177.6,123.4z M148.5,101.7c0,0.7,0,3.6,0,4.4c-0.1,4.6,2.9,8.8,8.5,12.1
			c11.4,6.6,30,6.6,41.5-0.1c5.5-3.2,8.6-7.4,8.6-11.9c0-1.3,0-3.9,0-4.5H148.5z"/>
		
			<linearGradient id="SVGID_77_" gradientUnits="userSpaceOnUse" x1="148.4073" y1="236.4356" x2="207.2765" y2="236.4356" gradientTransform="matrix(1 0 0 -1 0 338)">
			<stop  offset="0" style="stop-color:#5C8EE4"/>
			<stop  offset="1" style="stop-color:#65D5EA"/>
		</linearGradient>
		<path class="st84" d="M198.7,89.5c-11.5-6.6-30.1-6.6-41.6,0.1s-11.6,17.4-0.1,24s30.1,6.6,41.6-0.1S210.2,96.2,198.7,89.5z"/>
		<path class="st18" d="M177.6,118.7c-7.5,0-15-1.7-20.8-4.9c-5.6-3.2-8.6-7.5-8.6-12.1s3.1-8.9,8.8-12.2
			c11.6-6.7,30.3-6.7,41.8-0.1c5.6,3.2,8.6,7.5,8.6,12.1s-3.1,8.9-8.8,12.2C192.9,117,185.2,118.7,177.6,118.7z M178.1,84.7
			c-7.6,0-15.1,1.7-20.9,5c-5.6,3.2-8.6,7.5-8.6,12s3,8.7,8.5,11.8c11.4,6.6,30,6.6,41.5-0.1c5.6-3.2,8.6-7.5,8.6-12
			s-3-8.7-8.5-11.8C193,86.4,185.5,84.7,178.1,84.7L178.1,84.7z"/>
		<path class="st20" d="M195.1,91.6c-9.4-5.5-24.8-5.4-34.4,0.1s-9.6,14.4-0.1,19.8s24.8,5.4,34.4-0.1S204.5,97.1,195.1,91.6z"/>
		<path class="st18" d="M177.7,115.7c-6.2,0-12.4-1.4-17.1-4.1s-7.1-6.2-7.1-10s2.6-7.4,7.2-10.1c9.5-5.5,25-5.5,34.5-0.1
			c4.6,2.7,7.1,6.2,7.1,10s-2.6,7.4-7.2,10.1S183.9,115.7,177.7,115.7z M178,87.7c-6.2,0-12.5,1.4-17.2,4.1
			c-4.6,2.7-7.1,6.2-7.1,9.9s2.5,7.1,7,9.8c9.4,5.4,24.8,5.4,34.2-0.1c4.6-2.7,7.1-6.2,7.1-9.9s-2.5-7.1-7-9.8l0,0
			C190.3,89,184.2,87.7,178,87.7L178,87.7z"/>
		
			<linearGradient id="SVGID_78_" gradientUnits="userSpaceOnUse" x1="202.13" y1="243.2775" x2="153.55" y2="243.2775" gradientTransform="matrix(1 0 0 -1 0 338)">
			<stop  offset="0" style="stop-color:#5C8EE4"/>
			<stop  offset="1" style="stop-color:#65D5EA"/>
		</linearGradient>
		<path class="st85" d="M160.7,91.7c-4.9,2.8-7.2,6.5-7.2,10.2c0.1-3.5,2.5-7,7.2-9.7c9.5-5.5,24.9-5.5,34.4-0.1
			c4.6,2.7,7,6.2,7,9.7c0.1-3.7-2.2-7.3-7-10.1C185.6,86.2,170.2,86.2,160.7,91.7z"/>
		<path class="st18" d="M153.7,101.9h-0.2c-0.1-3.9,2.5-7.5,7.2-10.3l0,0c9.5-5.5,25-5.5,34.5-0.1c4.7,2.7,7.2,6.4,7.1,10.2H202
			c-0.1-3.6-2.6-7-7-9.6c-9.4-5.4-24.8-5.4-34.2,0.1C156.3,94.9,153.8,98.3,153.7,101.9z M160.7,91.7l0.1,0.1
			c-2.3,1.3-4.3,3.1-5.7,5.3c1.5-2.1,3.4-3.9,5.7-5.1c9.5-5.5,25-5.5,34.5-0.1c2.3,1.2,4.2,3,5.6,5.1c-1.4-2.3-3.4-4.1-5.8-5.4
			c-9.4-5.4-24.8-5.4-34.2,0.1L160.7,91.7z"/>
		
			<linearGradient id="SVGID_79_" gradientUnits="userSpaceOnUse" x1="-1177.8729" y1="144.1893" x2="-1172.9629" y2="164.0194" gradientTransform="matrix(-0.14 0.58 1.75 -0.14 -261.83 804.77)">
			<stop  offset="0" style="stop-color:#5FA5E6"/>
			<stop  offset="1" style="stop-color:#67EAEC"/>
		</linearGradient>
		<polygon class="st86" points="190.2,100.6 197.2,99 182.4,90.5 177.6,93.3 185.4,97.8 158.8,103.7 163.6,106.5 173.8,112.4 
			178.6,109.7 170.6,105 		"/>
		<path class="st18" d="M173.8,112.6l-15.4-8.9l26.7-6l-7.7-4.5l5.1-2.9l15.1,8.7l-26.6,6l8,4.6L173.8,112.6z M159.1,103.8l14.7,8.5
			l4.6-2.6l-8.2-4.7l0.3-0.1l26.3-5.8l-14.4-8.4l-4.6,2.6l7.9,4.6L159.1,103.8z"/>
		
			<linearGradient id="SVGID_80_" gradientUnits="userSpaceOnUse" x1="-1169.807" y1="157.0224" x2="-1168.7371" y2="161.3324" gradientTransform="matrix(-0.14 0.58 1.75 -0.14 -261.83 804.77)">
			<stop  offset="0" style="stop-color:#5FA5E6"/>
			<stop  offset="1" style="stop-color:#67EAEC"/>
		</linearGradient>
		<polygon class="st87" points="186.2,105.6 188.9,105 185.5,103 182.8,103.6 		"/>
		<path class="st18" d="M186.2,105.7l-3.7-2.2l3-0.7l3.7,2.2L186.2,105.7z M183.2,103.7l3.1,1.8l2.3-0.5l-3.1-1.8L183.2,103.7z"/>
		
			<linearGradient id="SVGID_81_" gradientUnits="userSpaceOnUse" x1="-1183.3859" y1="149.1972" x2="-1182.3158" y2="153.5072" gradientTransform="matrix(-0.14 0.58 1.75 -0.14 -261.83 804.77)">
			<stop  offset="0" style="stop-color:#5FA5E6"/>
			<stop  offset="1" style="stop-color:#67EAEC"/>
		</linearGradient>
		<polygon class="st88" points="177.2,98.2 173.8,96.2 171.1,96.8 174.5,98.8 		"/>
		<path class="st18" d="M174.5,99l-3.7-2.2l3-0.7l3.7,2.2L174.5,99z M171.4,96.9l3.1,1.8l2.3-0.5l-3.1-1.8L171.4,96.9z"/>
		
			<linearGradient id="SVGID_82_" gradientUnits="userSpaceOnUse" x1="-1168.7845" y1="154.7914" x2="-1167.7255" y2="159.0882" gradientTransform="matrix(-0.14 0.58 1.75 -0.14 -261.83 804.77)">
			<stop  offset="0" style="stop-color:#5FA5E6"/>
			<stop  offset="1" style="stop-color:#67EAEC"/>
		</linearGradient>
		<polygon class="st89" points="184.9,105.9 181.5,103.9 178.8,104.5 182.2,106.5 		"/>
		<path class="st18" d="M182.2,106.6l-3.7-2.2l3-0.7l3.7,2.2L182.2,106.6z M179.1,104.6l3.1,1.8l2.3-0.5l-3.1-1.8L179.1,104.6z"/>
		
			<linearGradient id="SVGID_83_" gradientUnits="userSpaceOnUse" x1="-1182.3634" y1="146.966" x2="-1181.3033" y2="151.266" gradientTransform="matrix(-0.14 0.58 1.75 -0.14 -261.83 804.77)">
			<stop  offset="0" style="stop-color:#5FA5E6"/>
			<stop  offset="1" style="stop-color:#67EAEC"/>
		</linearGradient>
		<polygon class="st90" points="169.7,97.2 167,97.8 170.5,99.7 173.1,99.1 		"/>
		<path class="st18" d="M170.4,99.9l-3.7-2.2l3-0.7l3.7,2.2L170.4,99.9z M167.4,97.8l3.1,1.8l2.3-0.5l-3.1-1.8L167.4,97.8z"/>
		
			<linearGradient id="SVGID_84_" gradientUnits="userSpaceOnUse" x1="148.3969" y1="230.2468" x2="207.28" y2="230.2468" gradientTransform="matrix(1 0 0 -1 0 338)">
			<stop  offset="0" style="stop-color:#5C8EE4"/>
			<stop  offset="1" style="stop-color:#65D5EA"/>
		</linearGradient>
		<path class="st91" d="M148.4,96.9c0,0,0,3.6,0,4.6c-0.1,4.4,2.7,8.8,8.6,12.2c11.5,6.6,30.1,6.6,41.6-0.1c5.8-3.3,8.7-7.7,8.7-12
			c0-1.5,0-4.6,0-4.6L148.4,96.9z"/>
		<path class="st18" d="M177.6,118.7c-7.5,0-15-1.7-20.8-4.9s-8.7-7.6-8.6-12.3c0-0.9,0-4.5,0-4.6v-0.1h59.1v0.1c0,0,0,3.2,0,4.6
			c0,4.6-3.1,8.9-8.8,12.1C192.9,117,185.2,118.7,177.6,118.7z M148.5,97c0,0.7,0,3.6,0,4.4c-0.1,4.6,2.9,8.8,8.5,12.1
			c11.4,6.6,30,6.6,41.5-0.1c5.5-3.2,8.6-7.4,8.6-11.9c0-1.3,0-3.9,0-4.5H148.5z"/>
		
			<linearGradient id="SVGID_85_" gradientUnits="userSpaceOnUse" x1="148.4073" y1="241.1156" x2="207.2765" y2="241.1156" gradientTransform="matrix(1 0 0 -1 0 338)">
			<stop  offset="0" style="stop-color:#5C8EE4"/>
			<stop  offset="1" style="stop-color:#65D5EA"/>
		</linearGradient>
		<path class="st92" d="M198.7,84.8c-11.5-6.6-30.1-6.6-41.6,0.1s-11.6,17.4-0.1,24s30.1,6.6,41.6-0.1S210.2,91.5,198.7,84.8z"/>
		<path class="st18" d="M177.6,114c-7.5,0-15-1.7-20.8-4.9c-5.6-3.2-8.6-7.5-8.6-12s3.1-8.9,8.8-12.2c11.6-6.7,30.3-6.7,41.8-0.1
			c5.6,3.2,8.6,7.5,8.6,12s-3.1,8.9-8.8,12.2C192.9,112.3,185.2,114,177.6,114z M178,80c-7.6,0-15.1,1.7-20.9,5
			c-5.6,3.2-8.6,7.5-8.6,12s3,8.7,8.5,11.8c11.4,6.6,30,6.6,41.5-0.1c5.6-3.2,8.6-7.5,8.6-12s-3-8.7-8.5-11.8
			C193,81.7,185.5,80,178,80z"/>
		<path class="st20" d="M195.1,87c-9.4-5.5-24.8-5.4-34.4,0.1s-9.6,14.4-0.1,19.8s24.8,5.4,34.4-0.1S204.5,92.4,195.1,87z"/>
		<path class="st18" d="M177.7,111.1c-6.2,0-12.4-1.4-17.1-4.1s-7.1-6.2-7.1-10s2.6-7.4,7.2-10.1c9.5-5.5,25-5.5,34.5-0.1
			c4.6,2.7,7.1,6.2,7.1,10s-2.6,7.4-7.2,10.1S183.9,111.1,177.7,111.1z M178,83c-6.2,0-12.5,1.4-17.2,4.1c-4.6,2.7-7.1,6.2-7.1,9.9
			s2.5,7.1,7,9.8c9.4,5.4,24.8,5.4,34.2-0.1c4.6-2.7,7.1-6.2,7.1-9.9s-2.5-7.1-7-9.8l0,0C190.3,84.4,184.2,83,178,83z"/>
		
			<linearGradient id="SVGID_86_" gradientUnits="userSpaceOnUse" x1="202.13" y1="247.9763" x2="153.55" y2="247.9763" gradientTransform="matrix(1 0 0 -1 0 338)">
			<stop  offset="0" style="stop-color:#5C8EE4"/>
			<stop  offset="1" style="stop-color:#65D5EA"/>
		</linearGradient>
		<path class="st93" d="M160.7,87c-4.9,2.8-7.2,6.5-7.2,10.2c0.1-3.5,2.5-7,7.2-9.7c9.5-5.5,24.9-5.5,34.4-0.1c4.6,2.7,7,6.2,7,9.7
			c0.1-3.7-2.2-7.3-7-10.1C185.6,81.5,170.2,81.5,160.7,87z"/>
		<path class="st18" d="M153.7,97.2h-0.2c-0.1-3.9,2.5-7.5,7.2-10.3l0.1,0.1l-0.1-0.1c9.5-5.5,25-5.5,34.5-0.1
			c4.7,2.7,7.2,6.4,7.1,10.2H202c-0.1-3.6-2.6-7-7-9.6c-9.4-5.4-24.8-5.4-34.2,0.1C156.3,90.2,153.8,93.6,153.7,97.2z M178,83
			c-6.2,0-12.5,1.4-17.2,4.1l0,0c-2.3,1.3-4.3,3.1-5.8,5.4c1.5-2.1,3.4-3.9,5.7-5.1c9.5-5.5,25-5.5,34.5-0.1c2.3,1.2,4.2,3,5.6,5.1
			c-1.4-2.3-3.4-4.1-5.8-5.4C190.3,84.4,184.2,83,178,83z"/>
		
			<linearGradient id="SVGID_87_" gradientUnits="userSpaceOnUse" x1="-1186.1095" y1="143.5309" x2="-1181.1995" y2="163.3609" gradientTransform="matrix(-0.14 0.58 1.75 -0.14 -261.83 804.77)">
			<stop  offset="0" style="stop-color:#5FA5E6"/>
			<stop  offset="1" style="stop-color:#67EAEC"/>
		</linearGradient>
		<polygon class="st94" points="190.2,95.9 197.2,94.3 182.4,85.8 177.6,88.6 185.4,93.1 158.8,99.1 163.6,101.8 173.8,107.8 
			178.6,105 170.6,100.3 		"/>
		<path class="st18" d="M173.8,107.9L158.4,99l26.7-6l-7.7-4.5l5.1-2.9l15.1,8.7l-26.6,5.9l8,4.6L173.8,107.9z M159.1,99.1l14.7,8.5
			l4.6-2.6l-8.2-4.7l0.3-0.1l26.3-5.9L182.4,86l-4.6,2.6l7.9,4.6L159.1,99.1z"/>
		
			<linearGradient id="SVGID_88_" gradientUnits="userSpaceOnUse" x1="-1178.0466" y1="156.3523" x2="-1176.9766" y2="160.6623" gradientTransform="matrix(-0.14 0.58 1.75 -0.14 -261.83 804.77)">
			<stop  offset="0" style="stop-color:#5FA5E6"/>
			<stop  offset="1" style="stop-color:#67EAEC"/>
		</linearGradient>
		<polygon class="st95" points="186.2,100.9 188.9,100.3 185.5,98.3 182.8,98.9 		"/>
		<path class="st18" d="M186.2,101.1l-3.7-2.2l3-0.7l3.7,2.2L186.2,101.1z M183.1,99l3.1,1.8l2.3-0.5l-3.1-1.8L183.1,99z"/>
		
			<linearGradient id="SVGID_89_" gradientUnits="userSpaceOnUse" x1="-1191.6252" y1="148.5269" x2="-1190.5553" y2="152.8369" gradientTransform="matrix(-0.14 0.58 1.75 -0.14 -261.83 804.77)">
			<stop  offset="0" style="stop-color:#5FA5E6"/>
			<stop  offset="1" style="stop-color:#67EAEC"/>
		</linearGradient>
		<polygon class="st96" points="177.2,93.5 173.8,91.6 171.1,92.2 174.5,94.1 		"/>
		<path class="st18" d="M174.5,94.3l-3.7-2.2l3-0.7l3.7,2.2L174.5,94.3z M171.4,92.2l3.1,1.8l2.3-0.5l-3.1-1.8L171.4,92.2z"/>
		
			<linearGradient id="SVGID_90_" gradientUnits="userSpaceOnUse" x1="-1177.0316" y1="154.1286" x2="-1175.9615" y2="158.4386" gradientTransform="matrix(-0.14 0.58 1.75 -0.14 -261.83 804.77)">
			<stop  offset="0" style="stop-color:#5FA5E6"/>
			<stop  offset="1" style="stop-color:#67EAEC"/>
		</linearGradient>
		<polygon class="st97" points="184.9,101.2 181.5,99.2 178.8,99.8 182.2,101.8 		"/>
		<path class="st18" d="M182.2,102l-3.7-2.2l3-0.7l3.7,2.2L182.2,102z M179.1,99.9l3.1,1.8l2.3-0.5l-3.1-1.8L179.1,99.9z"/>
		
			<linearGradient id="SVGID_91_" gradientUnits="userSpaceOnUse" x1="-1190.6002" y1="146.2932" x2="-1189.5403" y2="150.6032" gradientTransform="matrix(-0.14 0.58 1.75 -0.14 -261.83 804.77)">
			<stop  offset="0" style="stop-color:#5FA5E6"/>
			<stop  offset="1" style="stop-color:#67EAEC"/>
		</linearGradient>
		<polygon class="st98" points="169.7,92.5 167,93.1 170.5,95 173.1,94.4 		"/>
		<path class="st18" d="M170.4,95.2l-3.7-2.2l3-0.7l3.7,2.2L170.4,95.2z M167.4,93.1l3.1,1.8l2.3-0.5l-3.1-1.8L167.4,93.1z"/>
		
			<linearGradient id="SVGID_92_" gradientUnits="userSpaceOnUse" x1="148.3969" y1="234.9268" x2="207.28" y2="234.9268" gradientTransform="matrix(1 0 0 -1 0 338)">
			<stop  offset="0" style="stop-color:#5C8EE4"/>
			<stop  offset="1" style="stop-color:#65D5EA"/>
		</linearGradient>
		<path class="st99" d="M148.4,92.2c0,0,0,3.6,0,4.6c-0.1,4.4,2.7,8.8,8.6,12.2c11.5,6.6,30.1,6.6,41.6-0.1c5.8-3.3,8.7-7.7,8.7-12
			c0-1.5,0-4.6,0-4.6L148.4,92.2z"/>
		<path class="st18" d="M177.6,114c-7.5,0-15-1.7-20.8-4.9s-8.7-7.6-8.6-12.3c0-0.9,0-4.5,0-4.6v-0.1h59.1v0.1c0,0,0,3.2,0,4.6
			c0,4.6-3.1,8.9-8.8,12.1C192.9,112.3,185.2,114,177.6,114z M148.5,92.3c0,0.7,0,3.6,0,4.4c-0.1,4.6,2.9,8.8,8.5,12.1
			c11.4,6.6,30,6.6,41.5-0.1c5.5-3.2,8.6-7.4,8.6-11.9c0-1.3,0-3.9,0-4.5L148.5,92.3z"/>
		
			<linearGradient id="SVGID_93_" gradientUnits="userSpaceOnUse" x1="148.4073" y1="245.7956" x2="207.2765" y2="245.7956" gradientTransform="matrix(1 0 0 -1 0 338)">
			<stop  offset="0" style="stop-color:#5C8EE4"/>
			<stop  offset="1" style="stop-color:#65D5EA"/>
		</linearGradient>
		<path class="st100" d="M198.7,80.2c-11.5-6.6-30.1-6.6-41.6,0.1s-11.6,17.4-0.1,24s30.1,6.6,41.6-0.1S210.2,86.8,198.7,80.2z"/>
		<path class="st18" d="M177.6,109.3c-7.5,0-15-1.7-20.8-4.9c-5.6-3.2-8.6-7.5-8.6-12s3.1-8.9,8.8-12.2c11.6-6.7,30.3-6.7,41.8-0.1
			c5.6,3.2,8.6,7.5,8.6,12.1s-3.1,8.9-8.8,12.2C192.9,107.7,185.2,109.3,177.6,109.3z M178.1,75.3c-7.6,0-15.1,1.7-20.9,5
			c-5.6,3.2-8.6,7.5-8.6,12s3,8.7,8.5,11.8c11.4,6.6,30,6.6,41.5-0.1c5.6-3.2,8.6-7.5,8.6-12s-3-8.7-8.5-11.8
			C193,77,185.5,75.4,178.1,75.3L178.1,75.3z"/>
		<path class="st20" d="M195.1,82.3c-9.4-5.5-24.8-5.4-34.4,0.1s-9.6,14.4-0.1,19.8s24.8,5.4,34.4-0.1S204.5,87.7,195.1,82.3z"/>
		<path class="st18" d="M177.7,106.4c-6.2,0-12.4-1.4-17.1-4.1s-7.1-6.2-7.1-10s2.6-7.4,7.2-10.1c9.5-5.5,25-5.5,34.5-0.1
			c4.6,2.7,7.1,6.2,7.1,10s-2.6,7.4-7.2,10.1S183.9,106.4,177.7,106.4z M178,78.4c-6.2,0-12.5,1.4-17.2,4.1
			c-4.6,2.7-7.1,6.2-7.1,9.9s2.5,7.1,7,9.8c9.4,5.4,24.8,5.4,34.2-0.1c4.6-2.7,7.1-6.2,7.1-9.9s-2.5-7.1-7-9.8
			C190.3,79.7,184.2,78.3,178,78.4L178,78.4z"/>
		
			<linearGradient id="SVGID_94_" gradientUnits="userSpaceOnUse" x1="202.13" y1="252.6438" x2="153.55" y2="252.6438" gradientTransform="matrix(1 0 0 -1 0 338)">
			<stop  offset="0" style="stop-color:#5C8EE4"/>
			<stop  offset="1" style="stop-color:#65D5EA"/>
		</linearGradient>
		<path class="st101" d="M160.7,82.3c-4.9,2.8-7.2,6.5-7.2,10.2c0.1-3.5,2.5-7,7.2-9.7c9.5-5.5,24.9-5.5,34.4-0.1
			c4.6,2.7,7,6.2,7,9.7c0.1-3.7-2.2-7.3-7-10.1C185.6,76.8,170.2,76.8,160.7,82.3z"/>
		<path class="st18" d="M153.7,92.5h-0.2c-0.1-3.9,2.5-7.5,7.2-10.3l0.1,0.1l-0.1-0.1c9.5-5.5,25-5.5,34.5-0.1
			c4.7,2.7,7.2,6.4,7.1,10.2H202c-0.1-3.6-2.6-7-7-9.6c-9.4-5.4-24.8-5.4-34.2,0.1C156.3,85.5,153.8,88.9,153.7,92.5z M178,78.3
			c-6.2,0-12.5,1.4-17.2,4.1l0,0c-2.3,1.3-4.3,3.1-5.8,5.3c1.5-2.1,3.4-3.9,5.7-5.1c9.5-5.5,25-5.5,34.5-0.1c2.3,1.2,4.2,3,5.6,5.1
			c-1.4-2.3-3.4-4.1-5.8-5.4C190.3,79.7,184.2,78.3,178,78.3z"/>
		
			<linearGradient id="SVGID_95_" gradientUnits="userSpaceOnUse" x1="-1194.3407" y1="142.8586" x2="-1189.4308" y2="162.6886" gradientTransform="matrix(-0.14 0.58 1.75 -0.14 -261.83 804.77)">
			<stop  offset="0" style="stop-color:#5FA5E6"/>
			<stop  offset="1" style="stop-color:#67EAEC"/>
		</linearGradient>
		<polygon class="st102" points="190.2,91.2 197.2,89.7 182.4,81.1 177.6,83.9 185.4,88.4 158.8,94.4 163.6,97.2 173.8,103.1 
			178.6,100.3 170.6,95.6 		"/>
		<path class="st18" d="M173.8,103.2l-15.4-8.9l26.7-6l-7.7-4.5l5.1-2.8l15.1,8.7l-26.6,5.9l8,4.6L173.8,103.2z M159.1,94.4
			l14.7,8.5l4.6-2.6l-8.2-4.7l0.3-0.1l26.3-5.9l-14.4-8.3l-4.6,2.6l7.9,4.6L159.1,94.4z"/>
		
			<linearGradient id="SVGID_96_" gradientUnits="userSpaceOnUse" x1="-1186.2676" y1="155.6843" x2="-1185.2083" y2="159.9813" gradientTransform="matrix(-0.14 0.58 1.75 -0.14 -261.83 804.77)">
			<stop  offset="0" style="stop-color:#5FA5E6"/>
			<stop  offset="1" style="stop-color:#67EAEC"/>
		</linearGradient>
		<polygon class="st103" points="186.2,96.2 188.9,95.6 185.5,93.7 182.8,94.3 		"/>
		<path class="st18" d="M186.2,96.4l-3.7-2.2l3-0.7l3.7,2.2L186.2,96.4z M183.2,94.3l3.1,1.8l2.3-0.5l-3.1-1.8L183.2,94.3z"/>
		
			<linearGradient id="SVGID_97_" gradientUnits="userSpaceOnUse" x1="-1199.8544" y1="147.8609" x2="-1198.7936" y2="152.1637" gradientTransform="matrix(-0.14 0.58 1.75 -0.14 -261.83 804.77)">
			<stop  offset="0" style="stop-color:#5FA5E6"/>
			<stop  offset="1" style="stop-color:#67EAEC"/>
		</linearGradient>
		<polygon class="st104" points="177.2,88.9 173.8,86.9 171.1,87.5 174.5,89.5 		"/>
		<path class="st18" d="M174.5,89.6l-3.7-2.2l3-0.7l3.7,2.2L174.5,89.6z M171.4,87.5l3.1,1.8l2.3-0.5l-3.1-1.8L171.4,87.5z"/>
		
			<linearGradient id="SVGID_98_" gradientUnits="userSpaceOnUse" x1="-1185.2631" y1="153.4683" x2="-1184.1932" y2="157.7677" gradientTransform="matrix(-0.14 0.58 1.75 -0.14 -261.83 804.77)">
			<stop  offset="0" style="stop-color:#5FA5E6"/>
			<stop  offset="1" style="stop-color:#67EAEC"/>
		</linearGradient>
		<polygon class="st105" points="184.9,96.5 181.5,94.6 178.8,95.2 182.2,97.1 		"/>
		<path class="st18" d="M182.2,97.3l-3.7-2.2l3-0.7l3.7,2.2L182.2,97.3z M179.1,95.2l3.1,1.8l2.3-0.5l-3.1-1.8L179.1,95.2z"/>
		
			<linearGradient id="SVGID_99_" gradientUnits="userSpaceOnUse" x1="-1198.8417" y1="145.6429" x2="-1197.7717" y2="149.9429" gradientTransform="matrix(-0.14 0.58 1.75 -0.14 -261.83 804.77)">
			<stop  offset="0" style="stop-color:#5FA5E6"/>
			<stop  offset="1" style="stop-color:#67EAEC"/>
		</linearGradient>
		<polygon class="st106" points="169.7,87.8 167,88.4 170.5,90.4 173.1,89.8 		"/>
		<path class="st18" d="M170.4,90.5l-3.7-2.2l3-0.7l3.7,2.2L170.4,90.5z M167.4,88.4l3.1,1.8l2.3-0.5l-3.1-1.8L167.4,88.4z"/>
		
			<linearGradient id="SVGID_100_" gradientUnits="userSpaceOnUse" x1="148.3969" y1="239.6068" x2="207.28" y2="239.6068" gradientTransform="matrix(1 0 0 -1 0 338)">
			<stop  offset="0" style="stop-color:#5C8EE4"/>
			<stop  offset="1" style="stop-color:#65D5EA"/>
		</linearGradient>
		<path class="st107" d="M148.4,87.6c0,0,0,3.6,0,4.6c-0.1,4.4,2.7,8.8,8.6,12.2c11.5,6.6,30.1,6.6,41.6-0.1c5.8-3.3,8.7-7.7,8.7-12
			c0-1.5,0-4.6,0-4.6L148.4,87.6z"/>
		<path class="st18" d="M177.6,109.3c-7.5,0-15-1.7-20.8-4.9s-8.7-7.6-8.6-12.3c0-0.9,0-4.5,0-4.6v-0.1h59.1v0.1c0,0,0,3.2,0,4.6
			c0,4.6-3.1,8.9-8.8,12.1C192.9,107.7,185.2,109.3,177.6,109.3z M148.5,87.7c0,0.7,0,3.6,0,4.4c-0.1,4.6,2.9,8.8,8.5,12.1
			c11.4,6.6,30,6.6,41.5-0.1c5.5-3.2,8.6-7.4,8.6-11.9c0-1.3,0-3.9,0-4.5L148.5,87.7z"/>
		
			<linearGradient id="SVGID_101_" gradientUnits="userSpaceOnUse" x1="148.4136" y1="250.4619" x2="207.3013" y2="250.4619" gradientTransform="matrix(1 0 0 -1 0 338)">
			<stop  offset="0" style="stop-color:#5C8EE4"/>
			<stop  offset="1" style="stop-color:#65D5EA"/>
		</linearGradient>
		<path class="st108" d="M198.7,75.5c-11.5-6.6-30.1-6.6-41.6,0.1s-11.6,17.4-0.1,24s30.1,6.6,41.6-0.1S210.2,82.1,198.7,75.5z"/>
		<path class="st18" d="M177.6,104.7c-7.5,0-15-1.7-20.8-4.9c-5.6-3.2-8.6-7.5-8.6-12.1s3.1-8.9,8.8-12.2
			c11.6-6.7,30.3-6.7,41.8-0.1c5.6,3.2,8.6,7.5,8.6,12.1s-3.1,8.9-8.8,12.2C192.9,103,185.2,104.7,177.6,104.7z M178.1,70.7
			c-7.6,0-15.1,1.7-20.9,5c-5.6,3.2-8.6,7.5-8.6,12s3,8.7,8.5,11.8c11.4,6.6,30,6.6,41.5-0.1c5.6-3.2,8.6-7.5,8.6-12
			s-3-8.7-8.5-11.8C193,72.3,185.5,70.7,178.1,70.7L178.1,70.7z"/>
		<path class="st20" d="M195.1,77.6c-9.4-5.5-24.8-5.4-34.4,0.1s-9.6,14.3-0.1,19.8s24.8,5.4,34.4-0.1S204.5,83,195.1,77.6z"/>
		<path class="st18" d="M177.7,101.7c-6.2,0-12.4-1.4-17.1-4.1s-7.1-6.2-7.1-10s2.6-7.4,7.2-10.1c9.5-5.5,25-5.5,34.5-0.1
			c4.6,2.7,7.1,6.2,7.1,10s-2.6,7.4-7.2,10.1S183.9,101.7,177.7,101.7z M178,73.7c-6.2,0-12.5,1.4-17.2,4.1
			c-4.6,2.7-7.1,6.2-7.1,9.9s2.5,7.1,7,9.8c9.4,5.4,24.8,5.4,34.2-0.1c4.6-2.7,7.1-6.2,7.1-9.9s-2.5-7.1-7-9.8l0,0
			C190.3,75,184.2,73.7,178,73.7L178,73.7z"/>
		
			<linearGradient id="SVGID_102_" gradientUnits="userSpaceOnUse" x1="202.13" y1="257.3275" x2="153.55" y2="257.3275" gradientTransform="matrix(1 0 0 -1 0 338)">
			<stop  offset="0" style="stop-color:#5C8EE4"/>
			<stop  offset="1" style="stop-color:#65D5EA"/>
		</linearGradient>
		<path class="st109" d="M160.7,77.7c-4.9,2.8-7.2,6.5-7.2,10.2c0.1-3.5,2.5-7,7.2-9.7c9.5-5.5,24.9-5.5,34.4-0.1
			c4.6,2.7,7,6.2,7,9.7c0.1-3.7-2.2-7.3-7-10.1C185.6,72.1,170.2,72.2,160.7,77.7z"/>
		<path class="st18" d="M153.7,87.8h-0.2c-0.1-3.9,2.5-7.5,7.2-10.3l0,0c9.5-5.5,25-5.5,34.5-0.1c4.7,2.7,7.2,6.4,7.1,10.2H202
			c-0.1-3.6-2.6-7-7-9.6c-9.4-5.4-24.8-5.4-34.2,0.1C156.3,80.8,153.8,84.2,153.7,87.8z M160.7,77.7l0.1,0.1
			c-2.3,1.3-4.3,3.1-5.7,5.3c1.5-2.1,3.4-3.9,5.7-5.1c9.5-5.5,25-5.5,34.5-0.1c2.3,1.2,4.2,3,5.6,5.1c-1.4-2.3-3.4-4.1-5.8-5.4
			c-9.4-5.4-24.8-5.4-34.2,0.1L160.7,77.7z"/>
		
			<linearGradient id="SVGID_103_" gradientUnits="userSpaceOnUse" x1="-1202.5787" y1="142.1877" x2="-1197.6687" y2="162.0277" gradientTransform="matrix(-0.14 0.58 1.75 -0.14 -261.83 804.77)">
			<stop  offset="0" style="stop-color:#5FA5E6"/>
			<stop  offset="1" style="stop-color:#67EAEC"/>
		</linearGradient>
		<polygon class="st110" points="190.2,86.5 197.2,85 182.4,76.4 177.6,79.2 185.4,83.7 158.8,89.7 163.6,92.5 173.8,98.4 
			178.6,95.6 170.6,90.9 		"/>
		<path class="st18" d="M173.8,98.5l-15.4-8.9l26.7-6l-7.7-4.5l5.1-2.9l15.1,8.8l-26.6,6l8,4.6L173.8,98.5z M159.1,89.7l14.7,8.5
			l4.6-2.6l-8.2-4.7l0.3-0.1l26.3-5.9l-14.4-8.3l-4.6,2.6l7.9,4.6L159.1,89.7z"/>
		
			<linearGradient id="SVGID_104_" gradientUnits="userSpaceOnUse" x1="-1194.5143" y1="155.0216" x2="-1193.4443" y2="159.3316" gradientTransform="matrix(-0.14 0.58 1.75 -0.14 -261.83 804.77)">
			<stop  offset="0" style="stop-color:#5FA5E6"/>
			<stop  offset="1" style="stop-color:#67EAEC"/>
		</linearGradient>
		<polygon class="st111" points="186.2,91.6 188.9,90.9 185.5,89 182.8,89.6 		"/>
		<path class="st18" d="M186.2,91.7l-3.7-2.2l3-0.7l3.8,2.2L186.2,91.7z M183.2,89.6l3.1,1.8l2.3-0.5l-3.1-1.8L183.2,89.6z"/>
		
			<linearGradient id="SVGID_105_" gradientUnits="userSpaceOnUse" x1="-1208.0931" y1="147.1963" x2="-1207.0231" y2="151.5063" gradientTransform="matrix(-0.14 0.58 1.75 -0.14 -261.83 804.77)">
			<stop  offset="0" style="stop-color:#5FA5E6"/>
			<stop  offset="1" style="stop-color:#67EAEC"/>
		</linearGradient>
		<polygon class="st112" points="177.2,84.2 173.8,82.2 171.1,82.8 174.5,84.8 		"/>
		<path class="st18" d="M174.5,84.9l-3.7-2.2l3-0.7l3.7,2.2L174.5,84.9z M171.4,82.9l3.1,1.8l2.3-0.5l-3.1-1.8L171.4,82.9z"/>
		
			<linearGradient id="SVGID_106_" gradientUnits="userSpaceOnUse" x1="-1193.4919" y1="152.7902" x2="-1192.4327" y2="157.0871" gradientTransform="matrix(-0.14 0.58 1.75 -0.14 -261.83 804.77)">
			<stop  offset="0" style="stop-color:#5FA5E6"/>
			<stop  offset="1" style="stop-color:#67EAEC"/>
		</linearGradient>
		<polygon class="st113" points="184.9,91.9 181.5,89.9 178.8,90.5 182.2,92.5 		"/>
		<path class="st18" d="M182.2,92.6l-3.7-2.2l3-0.7l3.7,2.2L182.2,92.6z M179.1,90.5l3.1,1.8l2.3-0.5l-3.1-1.8L179.1,90.5z"/>
		
			<linearGradient id="SVGID_107_" gradientUnits="userSpaceOnUse" x1="-1207.0763" y1="144.9644" x2="-1206.0162" y2="149.2745" gradientTransform="matrix(-0.14 0.58 1.75 -0.14 -261.83 804.77)">
			<stop  offset="0" style="stop-color:#5FA5E6"/>
			<stop  offset="1" style="stop-color:#67EAEC"/>
		</linearGradient>
		<polygon class="st114" points="169.7,83.1 167,83.7 170.5,85.7 173.1,85.1 		"/>
		<path class="st18" d="M170.4,85.8l-3.7-2.2l3-0.7l3.7,2.2L170.4,85.8z M167.4,83.8l3.1,1.8l2.3-0.5l-3.1-1.8L167.4,83.8z"/>
		
			<linearGradient id="SVGID_108_" gradientUnits="userSpaceOnUse" x1="148.3969" y1="244.2668" x2="207.28" y2="244.2668" gradientTransform="matrix(1 0 0 -1 0 338)">
			<stop  offset="0" style="stop-color:#5C8EE4"/>
			<stop  offset="1" style="stop-color:#65D5EA"/>
		</linearGradient>
		<path class="st115" d="M148.4,82.9c0,0,0,3.6,0,4.6c-0.1,4.4,2.7,8.8,8.6,12.2c11.5,6.6,30.1,6.6,41.6-0.1c5.8-3.3,8.7-7.7,8.7-12
			c0-1.5,0-4.6,0-4.6L148.4,82.9z"/>
		<path class="st18" d="M177.6,104.7c-7.5,0-15-1.7-20.8-4.9s-8.7-7.6-8.6-12.3c0-0.9,0-4.5,0-4.6v-0.1h59.1v0.1c0,0,0,3.2,0,4.6
			c0,4.6-3.1,8.9-8.8,12.1C192.9,103,185.2,104.7,177.6,104.7z M148.5,83c0,0.7,0,3.6,0,4.4c-0.1,4.6,2.9,8.8,8.5,12.1
			c11.4,6.6,30,6.6,41.5-0.1c5.5-3.2,8.6-7.4,8.6-11.9c0-1.3,0-3.9,0-4.5H148.5z"/>
		
			<linearGradient id="SVGID_109_" gradientUnits="userSpaceOnUse" x1="148.4073" y1="255.1456" x2="207.2765" y2="255.1456" gradientTransform="matrix(1 0 0 -1 0 338)">
			<stop  offset="0" style="stop-color:#5C8EE4"/>
			<stop  offset="1" style="stop-color:#65D5EA"/>
		</linearGradient>
		<path class="st116" d="M198.7,70.8c-11.5-6.6-30.1-6.6-41.6,0.1s-11.6,17.4-0.1,24s30.1,6.6,41.6-0.1S210.2,77.4,198.7,70.8z"/>
		<path class="st18" d="M177.6,100c-7.5,0-15-1.7-20.8-4.9c-5.6-3.2-8.6-7.5-8.6-12s3.1-8.9,8.8-12.2c11.6-6.7,30.3-6.7,41.8-0.1
			c5.6,3.2,8.6,7.5,8.6,12s-3.1,8.9-8.8,12.2C192.9,98.3,185.2,100,177.6,100z M178,66c-7.6,0-15.1,1.7-20.9,5
			c-5.6,3.2-8.6,7.5-8.6,12s3,8.7,8.5,11.8c11.4,6.6,30,6.6,41.5-0.1c5.6-3.2,8.6-7.5,8.6-12s-3-8.7-8.5-11.8
			C193,67.7,185.5,66,178,66z"/>
		<path class="st20" d="M195.1,72.9c-9.4-5.5-24.8-5.4-34.4,0.1s-9.6,14.4-0.1,19.8s24.8,5.4,34.4-0.1S204.5,78.4,195.1,72.9z"/>
		<path class="st18" d="M177.7,97c-6.2,0-12.4-1.4-17.1-4.1s-7.1-6.2-7.1-10s2.6-7.4,7.2-10.1c9.5-5.5,25-5.5,34.5-0.1
			c4.6,2.7,7.1,6.2,7.1,10s-2.6,7.4-7.2,10.1S183.9,97,177.7,97z M178,69c-6.2,0-12.5,1.4-17.2,4.1c-4.6,2.7-7.1,6.2-7.1,9.9
			s2.5,7.1,7,9.8c9.4,5.4,24.8,5.4,34.2-0.1c4.6-2.7,7.1-6.2,7.1-9.9s-2.5-7.1-7-9.8l0,0C190.3,70.3,184.2,69,178,69z"/>
		
			<linearGradient id="SVGID_110_" gradientUnits="userSpaceOnUse" x1="202.13" y1="261.9875" x2="153.55" y2="261.9875" gradientTransform="matrix(1 0 0 -1 0 338)">
			<stop  offset="0" style="stop-color:#5C8EE4"/>
			<stop  offset="1" style="stop-color:#65D5EA"/>
		</linearGradient>
		<path class="st117" d="M160.7,73c-4.9,2.8-7.2,6.5-7.2,10.2c0.1-3.5,2.5-7,7.2-9.7c9.5-5.5,24.9-5.5,34.4-0.1c4.6,2.7,7,6.2,7,9.7
			c0.1-3.7-2.2-7.3-7-10.1C185.6,67.5,170.2,67.5,160.7,73z"/>
		<path class="st18" d="M153.7,83.2h-0.2c-0.1-3.9,2.5-7.5,7.2-10.3l0,0c9.5-5.5,25-5.5,34.5-0.1c4.7,2.7,7.2,6.4,7.1,10.2H202
			c-0.1-3.6-2.6-7-7-9.6c-9.4-5.4-24.8-5.4-34.2,0.1C156.3,76.2,153.8,79.6,153.7,83.2z M160.7,73l0.1,0.1c-2.3,1.3-4.3,3.1-5.7,5.3
			c1.5-2.1,3.4-3.9,5.7-5.1c9.5-5.5,25-5.5,34.5-0.1c2.3,1.2,4.2,3,5.6,5.1c-1.4-2.3-3.4-4.1-5.8-5.4
			C185.6,67.6,170.2,67.6,160.7,73L160.7,73z"/>
		
			<linearGradient id="SVGID_111_" gradientUnits="userSpaceOnUse" x1="-1210.7739" y1="141.5292" x2="-1205.8639" y2="161.3592" gradientTransform="matrix(-0.14 0.58 1.75 -0.14 -261.83 804.77)">
			<stop  offset="0" style="stop-color:#5FA5E6"/>
			<stop  offset="1" style="stop-color:#67EAEC"/>
		</linearGradient>
		<polygon class="st118" points="190.2,81.8 197.2,80.3 182.4,71.8 177.6,74.6 185.4,79.1 158.8,85 163.6,87.8 173.8,93.7 
			178.6,90.9 170.6,86.3 		"/>
		<path class="st18" d="M173.8,93.9L158.4,85l26.7-6l-7.7-4.5l5.1-2.9l15.1,8.7l-26.6,5.9l8,4.6L173.8,93.9z M159.1,85.1l14.7,8.5
			l4.6-2.6l-8.2-4.7l0.3-0.1l26.3-5.9l-14.4-8.3l-4.6,2.6l7.9,4.6L159.1,85.1z"/>
		
			<linearGradient id="SVGID_112_" gradientUnits="userSpaceOnUse" x1="-1202.7004" y1="154.3546" x2="-1201.6414" y2="158.6515" gradientTransform="matrix(-0.14 0.58 1.75 -0.14 -261.83 804.77)">
			<stop  offset="0" style="stop-color:#5FA5E6"/>
			<stop  offset="1" style="stop-color:#67EAEC"/>
		</linearGradient>
		<polygon class="st119" points="186.2,86.9 188.9,86.3 185.5,84.3 182.8,84.9 		"/>
		<path class="st18" d="M186.2,87l-3.7-2.2l3-0.7l3.7,2.2L186.2,87z M183.1,85l3.1,1.8l2.3-0.5l-3.1-1.8L183.1,85z"/>
		
			<linearGradient id="SVGID_113_" gradientUnits="userSpaceOnUse" x1="-1216.2769" y1="146.5269" x2="-1215.2168" y2="150.8369" gradientTransform="matrix(-0.14 0.58 1.75 -0.14 -261.83 804.77)">
			<stop  offset="0" style="stop-color:#5FA5E6"/>
			<stop  offset="1" style="stop-color:#67EAEC"/>
		</linearGradient>
		<polygon class="st120" points="177.2,79.5 173.8,77.5 171.1,78.1 174.5,80.1 		"/>
		<path class="st18" d="M174.5,80.2l-3.7-2.2l3-0.7l3.7,2.2L174.5,80.2z M171.4,78.2l3.1,1.8l2.3-0.5l-3.1-1.8L171.4,78.2z"/>
		
			<linearGradient id="SVGID_114_" gradientUnits="userSpaceOnUse" x1="-1201.696" y1="152.1389" x2="-1200.6262" y2="156.4383" gradientTransform="matrix(-0.14 0.58 1.75 -0.14 -261.83 804.77)">
			<stop  offset="0" style="stop-color:#5FA5E6"/>
			<stop  offset="1" style="stop-color:#67EAEC"/>
		</linearGradient>
		<polygon class="st121" points="184.9,87.2 181.5,85.2 178.8,85.8 182.2,87.8 		"/>
		<path class="st18" d="M182.2,87.9l-3.7-2.2l3-0.7l3.7,2.2L182.2,87.9z M179.1,85.9l3.1,1.8l2.3-0.5l-3.1-1.8L179.1,85.9z"/>
		
			<linearGradient id="SVGID_115_" gradientUnits="userSpaceOnUse" x1="-1215.2749" y1="144.3136" x2="-1214.2048" y2="148.6136" gradientTransform="matrix(-0.14 0.58 1.75 -0.14 -261.83 804.77)">
			<stop  offset="0" style="stop-color:#5FA5E6"/>
			<stop  offset="1" style="stop-color:#67EAEC"/>
		</linearGradient>
		<polygon class="st122" points="169.7,78.4 167,79 170.5,81 173.1,80.4 		"/>
		<path class="st18" d="M170.4,81.2l-3.7-2.2l3-0.7l3.7,2.2L170.4,81.2z M167.4,79.1l3.1,1.8l2.3-0.5l-3.1-1.8L167.4,79.1z"/>
		
			<linearGradient id="SVGID_116_" gradientUnits="userSpaceOnUse" x1="148.3969" y1="248.9568" x2="207.28" y2="248.9568" gradientTransform="matrix(1 0 0 -1 0 338)">
			<stop  offset="0" style="stop-color:#5C8EE4"/>
			<stop  offset="1" style="stop-color:#65D5EA"/>
		</linearGradient>
		<path class="st123" d="M148.4,78.2c0,0,0,3.6,0,4.6c-0.1,4.4,2.7,8.8,8.6,12.2c11.5,6.6,30.1,6.6,41.6-0.1c5.8-3.3,8.7-7.7,8.7-12
			c0-1.5,0-4.6,0-4.6L148.4,78.2z"/>
		<path class="st18" d="M177.6,100c-7.5,0-15-1.7-20.8-4.9s-8.7-7.6-8.6-12.3c0-0.9,0-4.5,0-4.6v-0.1h59.1v0.1c0,0,0,3.2,0,4.6
			c0,4.6-3.1,8.9-8.8,12.1C192.9,98.3,185.2,100,177.6,100z M148.5,78.3c0,0.7,0,3.6,0,4.4c-0.1,4.6,2.9,8.8,8.5,12.1
			c11.4,6.6,30,6.6,41.5-0.1c5.5-3.2,8.6-7.4,8.6-11.9c0-1.3,0-3.9,0-4.5L148.5,78.3z"/>
		
			<linearGradient id="SVGID_117_" gradientUnits="userSpaceOnUse" x1="148.4073" y1="259.8257" x2="207.2765" y2="259.8257" gradientTransform="matrix(1 0 0 -1 0 338)">
			<stop  offset="0" style="stop-color:#5C8EE4"/>
			<stop  offset="1" style="stop-color:#65D5EA"/>
		</linearGradient>
		<path class="st124" d="M198.7,66.1c-11.5-6.6-30.1-6.6-41.6,0.1s-11.6,17.4-0.1,24s30.1,6.6,41.6-0.1S210.2,72.8,198.7,66.1z"/>
		<path class="st18" d="M177.6,95.3c-7.5,0-15-1.7-20.8-4.9c-5.6-3.2-8.6-7.5-8.6-12s3.1-8.9,8.8-12.2c11.6-6.7,30.3-6.7,41.8-0.1
			c5.6,3.2,8.6,7.5,8.6,12.1s-3.1,8.9-8.8,12.2C192.9,93.6,185.2,95.3,177.6,95.3z M178.1,61.3c-7.6,0-15.1,1.7-20.9,5
			c-5.6,3.2-8.6,7.5-8.6,12s3,8.7,8.5,11.8c11.4,6.6,30,6.6,41.5-0.1c5.6-3.2,8.6-7.5,8.6-12s-3-8.7-8.5-11.8
			C193,63,185.5,61.3,178.1,61.3L178.1,61.3z"/>
		<path class="st20" d="M195.1,68.2c-9.4-5.5-24.8-5.4-34.4,0.1s-9.6,14.4-0.1,19.8s24.8,5.4,34.4-0.1S204.5,73.7,195.1,68.2z"/>
		<path class="st18" d="M177.7,92.3c-6.2,0-12.4-1.4-17.1-4.1s-7.1-6.2-7.1-10s2.6-7.4,7.2-10.1c9.5-5.5,25-5.5,34.5-0.1
			c4.6,2.7,7.1,6.2,7.1,10s-2.6,7.4-7.2,10.1S183.9,92.3,177.7,92.3z M178,64.3c-6.2,0-12.5,1.4-17.2,4.1c-4.6,2.7-7.1,6.2-7.1,9.9
			s2.5,7.1,7,9.8c9.4,5.4,24.8,5.4,34.2-0.1c4.6-2.7,7.1-6.2,7.1-9.9s-2.5-7.1-7-9.8C190.3,65.7,184.2,64.3,178,64.3L178,64.3z"/>
		
			<linearGradient id="SVGID_118_" gradientUnits="userSpaceOnUse" x1="202.13" y1="266.6675" x2="153.55" y2="266.6675" gradientTransform="matrix(1 0 0 -1 0 338)">
			<stop  offset="0" style="stop-color:#5C8EE4"/>
			<stop  offset="1" style="stop-color:#65D5EA"/>
		</linearGradient>
		<path class="st125" d="M160.7,68.3c-4.9,2.8-7.2,6.5-7.2,10.2c0.1-3.5,2.5-7,7.2-9.7c9.5-5.5,24.9-5.5,34.4-0.1
			c4.6,2.7,7,6.2,7,9.7c0.1-3.7-2.2-7.3-7-10.1C185.6,62.8,170.2,62.8,160.7,68.3z"/>
		<path class="st18" d="M153.7,78.5h-0.2c-0.1-3.9,2.5-7.5,7.2-10.3l0.1,0.1l-0.1-0.1c9.5-5.5,25-5.5,34.5-0.1
			c4.7,2.7,7.2,6.4,7.1,10.2H202c-0.1-3.6-2.6-7-7-9.6c-9.4-5.4-24.8-5.4-34.2,0.1C156.3,71.5,153.8,74.9,153.7,78.5z M178,64.3
			c-6.2,0-12.5,1.4-17.2,4.1c-2.3,1.3-4.3,3.1-5.8,5.3c1.5-2.1,3.4-3.9,5.7-5.1c9.5-5.5,25-5.5,34.5-0.1c2.3,1.2,4.2,3,5.6,5.1
			c-1.4-2.3-3.4-4.1-5.8-5.3C190.3,65.7,184.2,64.3,178,64.3z"/>
		
			<linearGradient id="SVGID_119_" gradientUnits="userSpaceOnUse" x1="-1219.011" y1="140.8684" x2="-1214.101" y2="160.6984" gradientTransform="matrix(-0.14 0.58 1.75 -0.14 -261.83 804.77)">
			<stop  offset="0" style="stop-color:#5FA5E6"/>
			<stop  offset="1" style="stop-color:#67EAEC"/>
		</linearGradient>
		<polygon class="st126" points="190.2,77.2 197.2,75.6 182.4,67.1 177.6,69.9 185.4,74.4 158.8,80.3 163.6,83.1 173.8,89 
			178.6,86.2 170.6,81.6 		"/>
		<path class="st18" d="M173.8,89.2l-15.4-8.9l26.7-6l-7.7-4.5l5.1-2.8l15.1,8.7l-26.6,5.9l8,4.6L173.8,89.2z M159.1,80.4l14.7,8.5
			l4.6-2.6l-8.2-4.7l0.3-0.1l26.3-5.9l-14.4-8.3l-4.6,2.6l7.9,4.6L159.1,80.4z"/>
		
			<linearGradient id="SVGID_120_" gradientUnits="userSpaceOnUse" x1="-1210.9475" y1="153.6923" x2="-1209.8774" y2="158.0023" gradientTransform="matrix(-0.14 0.58 1.75 -0.14 -261.83 804.77)">
			<stop  offset="0" style="stop-color:#5FA5E6"/>
			<stop  offset="1" style="stop-color:#67EAEC"/>
		</linearGradient>
		<polygon class="st127" points="186.2,82.2 188.9,81.6 185.5,79.6 182.8,80.2 		"/>
		<path class="st18" d="M186.2,82.3l-3.7-2.2l3-0.7l3.7,2.2L186.2,82.3z M183.2,80.3l3.1,1.8l2.3-0.5l-3.1-1.8L183.2,80.3z"/>
		
			<linearGradient id="SVGID_121_" gradientUnits="userSpaceOnUse" x1="-1224.5261" y1="145.8669" x2="-1223.4562" y2="150.1768" gradientTransform="matrix(-0.14 0.58 1.75 -0.14 -261.83 804.77)">
			<stop  offset="0" style="stop-color:#5FA5E6"/>
			<stop  offset="1" style="stop-color:#67EAEC"/>
		</linearGradient>
		<polygon class="st128" points="177.2,74.8 173.8,72.9 171.1,73.5 174.5,75.4 		"/>
		<path class="st18" d="M174.5,75.6l-3.7-2.2l3-0.7l3.7,2.2L174.5,75.6z M171.4,73.5l3.1,1.8l2.3-0.5l-3.1-1.8L171.4,73.5z"/>
		
			<linearGradient id="SVGID_122_" gradientUnits="userSpaceOnUse" x1="-1209.9226" y1="151.4583" x2="-1208.8625" y2="155.7683" gradientTransform="matrix(-0.14 0.58 1.75 -0.14 -261.83 804.77)">
			<stop  offset="0" style="stop-color:#5FA5E6"/>
			<stop  offset="1" style="stop-color:#67EAEC"/>
		</linearGradient>
		<polygon class="st129" points="184.9,82.5 181.5,80.5 178.8,81.1 182.2,83.1 		"/>
		<path class="st18" d="M182.2,83.2l-3.7-2.2l3-0.7l3.7,2.2L182.2,83.2z M179.1,81.2l3.1,1.8l2.3-0.5l-3.1-1.8L179.1,81.2z"/>
		
			<linearGradient id="SVGID_123_" gradientUnits="userSpaceOnUse" x1="-1223.5012" y1="143.6328" x2="-1222.4413" y2="147.9428" gradientTransform="matrix(-0.14 0.58 1.75 -0.14 -261.83 804.77)">
			<stop  offset="0" style="stop-color:#5FA5E6"/>
			<stop  offset="1" style="stop-color:#67EAEC"/>
		</linearGradient>
		<polygon class="st130" points="169.7,73.8 167,74.4 170.5,76.3 173.1,75.7 		"/>
		<path class="st18" d="M170.4,76.5l-3.7-2.2l3-0.7l3.7,2.2L170.4,76.5z M167.4,74.4l3.1,1.8l2.3-0.5l-3.1-1.8L167.4,74.4z"/>
		<polygon class="st131" points="18.6,128.1 16.3,116.6 13.8,115.2 17.5,131.5 19.6,132.7 23.2,120.6 20.8,119.2 		"/>
		<polygon class="st131" points="27.1,120.7 27.1,123.3 30.6,123.7 30.6,139.1 33,140.5 33,121.3 32.7,121.1 		"/>
		<path class="st131" d="M41.6,142.1c-0.4-0.3-0.8-0.3-1-0.1c-0.3,0.3-0.4,0.7-0.4,1.1c0,0.5,0.1,1,0.4,1.5c0.2,0.4,0.6,0.8,1,1.1
			c0.4,0.3,0.8,0.3,1,0.1c0.3-0.3,0.4-0.6,0.4-1c0-0.5-0.1-1-0.4-1.5C42.4,142.7,42,142.3,41.6,142.1z"/>
		<path class="st131" d="M56.1,145.7c-0.4-1-1-1.9-1.8-2.7c0.6,0,1.2-0.3,1.6-0.8c0.4-0.6,0.6-1.3,0.6-2.1c0-1.6-0.4-3.3-1.2-4.7
			c-0.8-1.4-1.9-2.6-3.3-3.4c-0.7-0.5-1.5-0.7-2.3-0.7c-0.7,0-1.3,0.4-1.6,0.9c-0.4,0.7-0.6,1.5-0.6,2.3l2.4,1.4
			c-0.1-0.6,0.1-1.2,0.6-1.6c0.5-0.3,1.1-0.2,1.6,0.2c0.7,0.4,1.3,1,1.6,1.7c0.4,0.8,0.5,1.6,0.5,2.4c0,0.9-0.2,1.5-0.6,1.8
			c-0.6,0.2-1.2,0.2-1.7-0.2l-1.5-0.8v2.5l1.4,0.8c0.8,0.5,1.5,1.2,2,2c0.4,0.8,0.7,1.8,0.7,2.7c0,1-0.2,1.6-0.6,1.9s-1,0.2-1.7-0.2
			c-0.7-0.4-1.3-1-1.7-1.8c-0.4-0.7-0.6-1.6-0.6-2.4l-2.4-1.4c0,1.6,0.5,3.3,1.3,4.7c0.8,1.4,2,2.6,3.4,3.4c1.4,0.8,2.6,1,3.5,0.5
			c0.9-0.5,1.3-1.6,1.3-3.3C56.7,147.7,56.5,146.7,56.1,145.7z"/>
	</g>
</g>
</svg>
