<?xml version="1.0" encoding="UTF-8"?>
<svg width="25px" height="25px" viewBox="0 0 25 25" version="1.1" xmlns="http://www.w3.org/2000/svg" xmlns:xlink="http://www.w3.org/1999/xlink">
    <!-- Generator: Sketch 51.2 (57519) - http://www.bohemiancoding.com/sketch -->
    <title>blog</title>
    <desc>Created with Sketch.</desc>
    <defs>
        <polygon id="path-1" points="0 0 26 0 26 26 0 26"></polygon>
    </defs>
    <g id="Page-1" stroke="none" stroke-width="1" fill="none" fill-rule="evenodd">
        <g id="zOS-TOKEN" transform="translate(-752.000000, -465.000000)">
            <g id="blog" transform="translate(752.000000, 464.000000)">
                <mask id="mask-2" fill="white">
                    <use xlink:href="#path-1"></use>
                </mask>
                <g id="Clip-2"></g>
                <path d="M8.75,7.25 L21.25,7.25 L21.25,4.75 L8.75,4.75 L8.75,7.25 Z M8.75,12.25 L21.25,12.25 L21.25,9.75 L8.75,9.75 L8.75,12.25 Z M8.75,17.25 L16.25,17.25 L16.25,14.75 L8.75,14.75 L8.75,17.25 Z M5,2.36363636 L5,19.6363636 C5,20.3894792 5.6105208,21 6.36363636,21 L23.6363636,21 C24.3894792,21 25,20.3894792 25,19.6363636 L25,2.36363636 C25,1.6105208 24.3894792,1 23.6363636,1 L6.36363636,1 C5.6105208,1 5,1.6105208 5,2.36363636 Z" id="Fill-1" fill="#FFFFFF" mask="url(#mask-2)"></path>
                <path d="M2.00016803,5 L0,5 L5.51137358e-15,23.3999885 C5.51137358e-15,24.8299948 1.16998965,26 2.59997701,26 L21,26 L21,24.000084 L3.00015918,24.000084 L3.00015918,24.000084 C2.44787932,24.000084 2.00016803,23.5523727 2.00016803,23.0000929 L2.00016803,23.0000796 L2.00016803,5 Z" id="Fill-3" fill="#FFFFFF" mask="url(#mask-2)"></path>
            </g>
        </g>
    </g>
</svg>