<?xml version="1.0" encoding="utf-8"?>
<!-- Generator: Adobe Illustrator 21.1.0, SVG Export Plug-In . SVG Version: 6.00 Build 0)  -->
<svg version="1.1" id="Layer_1" xmlns="http://www.w3.org/2000/svg" xmlns:xlink="http://www.w3.org/1999/xlink" x="0px" y="0px"
	 viewBox="0 0 26 26" style="enable-background:new 0 0 26 26;" xml:space="preserve">
<style type="text/css">
	.st0{fill:#FFFFFF;}
</style>
<title>github</title>
<desc>Created with Sketch.</desc>
<g>
	<path class="st0" d="M0.5,25.5c0-0.1,0-0.1,0-0.1c0-4.2,0-8.4,0-12.6c0-1.8,0.4-3.4,1.1-5.1c0.7-1.5,1.7-2.8,3-3.9
		C6,2.5,7.6,1.6,9.4,1c1-0.3,2-0.5,3-0.5c1.2-0.1,2.4,0.1,3.6,0.3C17,1.1,18,1.5,19,2c0.9,0.5,1.7,1.1,2.4,1.8
		c1.1,0.9,1.9,2,2.6,3.3c0.6,1.1,1.1,2.4,1.3,3.6c0.2,0.9,0.3,1.9,0.2,2.8c-0.1,1.4-0.4,2.8-0.9,4.1c-0.8,1.9-1.9,3.5-3.4,4.8
		c-1,0.9-2,1.5-3.2,2c-1,0.5-2,0.7-3.1,0.9c-0.7,0.1-1.3,0.1-1.9,0.1c-4.1,0-8.2,0-12.3,0C0.6,25.5,0.6,25.5,0.5,25.5z M5.4,20.6
		c0.1,0,0.1,0,0.1,0c1.4-0.3,2.9-0.7,4.3-1.1c0.1,0,0.1,0,0.1,0c0.7,0.3,1.5,0.5,2.3,0.6c0.7,0.1,1.4,0.1,2.1-0.1
		c1.2-0.3,2.2-0.8,3.2-1.6c0.7-0.6,1.2-1.3,1.7-2.2c0.5-0.9,0.7-1.8,0.8-2.8c0.1-0.7,0-1.4-0.1-2c-0.2-0.9-0.6-1.8-1.1-2.6
		c-0.7-0.9-1.4-1.6-2.4-2.2c-0.9-0.5-1.8-0.8-2.8-0.9c-0.7-0.1-1.4,0-2.1,0.1c-1.2,0.3-2.2,0.8-3.1,1.5C7.1,8.7,6.3,10,6,11.7
		c-0.1,0.8-0.1,1.6-0.1,2.4c0.1,0.8,0.4,1.5,0.7,2.2c0,0.1,0,0.1,0,0.1C6.2,17.8,5.8,19.2,5.4,20.6C5.4,20.5,5.4,20.6,5.4,20.6z"/>
</g>
</svg>
