<?xml version="1.0" encoding="UTF-8"?>
<svg width="26px" height="26px" viewBox="0 0 26 26" version="1.1" xmlns="http://www.w3.org/2000/svg" xmlns:xlink="http://www.w3.org/1999/xlink">
    <!-- Generator: Sketch 51.2 (57519) - http://www.bohemiancoding.com/sketch -->
    <title>github</title>
    <desc>Created with Sketch.</desc>
    <defs></defs>
    <g id="Page-1" stroke="none" stroke-width="1" fill="none" fill-rule="evenodd">
        <g id="zOS-web" transform="translate(-798.000000, -464.000000)" fill="#FFFFFF" fill-rule="nonzero">
            <g id="github" transform="translate(798.034682, 464.866667)">
                <path d="M12.980428,0 C5.81203732,0 0,5.76758425 0,12.8811478 C0,18.5732566 3.71889261,23.4005422 8.87729436,25.103445 C9.5261637,25.221388 9.76305646,24.8235568 9.76305646,24.4839172 C9.76305646,24.1772855 9.75116623,23.1615365 9.7448281,22.086011 C6.1352804,22.8643393 5.37232532,20.5670671 5.37232532,20.5670671 C4.78131021,19.0795713 3.93119359,18.683325 3.93119359,18.683325 C2.75152115,17.8845429 4.02068756,17.900267 4.02068756,17.900267 C5.32395294,17.9898815 6.01009025,19.2273774 6.01009025,19.2273774 C7.16839061,21.1960294 9.04920901,20.6268185 9.78759761,20.2966133 C9.90558769,19.466383 10.2415069,18.8971721 10.6115506,18.5764014 C7.73009836,18.250926 4.69891492,17.1455122 4.69891492,12.209718 C4.69891492,10.8024022 5.20517696,9.65457126 6.0338708,8.75279025 C5.90155664,8.42572985 5.45472062,7.11512338 6.16220465,5.34225479 C6.16220465,5.34225479 7.25078593,4.99632552 9.73212659,6.66307561 C10.7668086,6.37611785 11.8767874,6.23460134 12.9804026,6.22987154 C14.0832319,6.23460134 15.1939712,6.37767768 16.2302758,6.66463543 C18.7069009,4.99632552 19.7970541,5.34381462 19.7970541,5.34381462 C20.5069212,7.11826817 20.0600852,8.42728967 19.9269851,8.75279025 C20.758848,9.65457126 21.2611551,10.8024274 21.2611551,12.209718 C21.2611551,17.1580915 18.2252054,18.247756 15.3334601,18.5669669 C15.8009076,18.966358 16.2144559,19.7494161 16.2144559,20.9507341 C16.2144559,22.6725309 16.1970135,24.0609526 16.1970135,24.4855022 C16.1970135,24.8282866 16.433095,25.2292375 17.0906855,25.103445 C22.2451577,23.3973974 25.9608559,18.5701118 25.9608559,12.8811478 C25.9608559,5.76758425 20.1488186,0 12.980428,0 Z" id="Shape"></path>
            </g>
        </g>
    </g>
</svg>