<?xml version="1.0" encoding="UTF-8"?>
<svg width="26px" height="26px" viewBox="0 0 26 26" version="1.1" xmlns="http://www.w3.org/2000/svg" xmlns:xlink="http://www.w3.org/1999/xlink">
    <!-- Generator: Sketch 51.2 (57519) - http://www.bohemiancoding.com/sketch -->
    <title>instagram</title>
    <desc>Created with Sketch.</desc>
    <defs>
        <polygon id="path-1" points="2.5038631e-05 0.00796375139 25.2309778 0.00796375139 25.2309778 25.2277228 2.5038631e-05 25.2277228"></polygon>
    </defs>
    <g id="Page-1" stroke="none" stroke-width="1" fill="none" fill-rule="evenodd">
        <g id="zOS-web" transform="translate(-844.000000, -464.000000)">
            <g id="instagram" transform="translate(843.988439, 464.000000)">
                <g id="Group-3" transform="translate(0.535441, 0.042096)">
                    <g id="Fill-1-Clipped">
                        <mask id="mask-2" fill="white">
                            <use xlink:href="#path-1"></use>
                        </mask>
                        <g id="path-1"></g>
                        <path d="M12.6154889,0.00796375139 C9.18935289,0.00796375139 8.75968996,0.022479703 7.41416402,0.08384714 C6.07134221,0.145064412 5.15432739,0.35824868 4.35183926,0.669991254 C3.52230942,0.992195324 2.81872389,1.42336914 2.11739184,2.1243895 C1.4160097,2.8254599 0.984694241,3.52868268 0.662296829,4.35784384 C0.350415642,5.1599753 0.13718666,6.07658256 0.0758920903,7.4188075 C0.0144973673,8.76378555 2.5038631e-05,9.19315735 2.5038631e-05,12.6178207 C2.5038631e-05,16.0424841 0.0144973673,16.471906 0.0758920903,17.816884 C0.13718666,19.1590589 0.350415642,20.0757162 0.662296829,20.8777976 C0.984694241,21.7069588 1.4160097,22.4102316 2.11739184,23.1112519 C2.81872389,23.8123224 3.52230942,24.2434461 4.35183926,24.5657503 C5.15432739,24.8774429 6.07134221,25.0906271 7.41416402,25.1518944 C8.75968996,25.2132118 9.18935289,25.2277278 12.6154889,25.2277278 C16.041675,25.2277278 16.4712378,25.2132118 17.8168138,25.1518944 C19.1596355,25.0906271 20.0766504,24.8774429 20.8791385,24.5657503 C21.7087184,24.2434461 22.4122539,23.8123224 23.113586,23.1112519 C23.8149681,22.4102316 24.2462835,21.7070088 24.568681,20.8777976 C24.8805621,20.0757162 25.0938412,19.1590589 25.1550857,17.816884 C25.2164804,16.471906 25.2310028,16.0424841 25.2310028,12.6178207 C25.2310028,9.1932074 25.2164804,8.76378555 25.1550857,7.4188075 C25.0938412,6.07658256 24.8805621,5.1599753 24.568681,4.35784384 C24.2462835,3.52868268 23.8149681,2.8254599 23.113586,2.1243895 C22.4122539,1.42336914 21.7087184,0.992195324 20.8791385,0.669991254 C20.0766504,0.35824868 19.1596355,0.145064412 17.8168138,0.08384714 C16.4712378,0.022479703 16.041675,0.00796375139 12.6154889,0.00796375139 M12.6154889,2.2800105 C15.983986,2.2800105 16.3829516,2.29282459 17.713204,2.35349126 C18.9432017,2.40960292 19.6111822,2.61502866 20.0557181,2.78771843 C20.6445767,3.01646981 21.0648751,3.28972008 21.5063061,3.73095495 C21.9477372,4.17223988 22.221109,4.59230149 22.4500121,5.1808983 C22.6227286,5.62523658 22.8282457,6.2929203 22.8843823,7.52237135 C22.9450259,8.85203251 22.9578957,9.25087078 22.9578957,12.6178207 C22.9578957,15.9848207 22.9450259,16.383659 22.8843823,17.7132701 C22.8282457,18.9427713 22.6227286,19.6104549 22.4500121,20.0547932 C22.221109,20.64334 21.9477372,21.0634516 21.5063061,21.5046865 C21.0648751,21.9459715 20.6445767,22.2192217 20.0557181,22.4479731 C19.6111822,22.6206128 18.9432017,22.8260886 17.713204,22.8821502 C16.3831519,22.9428169 15.9842364,22.955681 12.6154889,22.955681 C9.2467414,22.955681 8.84782594,22.9428169 7.51777384,22.8821502 C6.28777614,22.8260886 5.61974546,22.6206128 5.17520961,22.4479731 C4.58640116,22.2192217 4.1661027,21.9459715 3.72467163,21.5046865 C3.28324057,21.0634516 3.00981872,20.64334 2.78096564,20.0547932 C2.60824915,19.6104549 2.40273207,18.9427713 2.34659546,17.7133202 C2.28590182,16.383659 2.27308204,15.9848207 2.27308204,12.6178207 C2.27308204,9.25087078 2.28590182,8.85203251 2.34659546,7.52237135 C2.40273207,6.2929203 2.60824915,5.62523658 2.78096564,5.1808983 C3.00981872,4.59230149 3.28324057,4.17223988 3.72467163,3.73100501 C4.1661027,3.28972008 4.58640116,3.01646981 5.17520961,2.78771843 C5.61974546,2.61502866 6.28777614,2.40960292 7.51772377,2.35349126 C8.84802623,2.29282459 9.24699176,2.2800105 12.6154889,2.2800105" id="Fill-1" fill="#FFFFFF" fill-rule="nonzero" mask="url(#mask-2)"></path>
                    </g>
                </g>
                <path d="M13.1509303,16.863236 C10.8284972,16.863236 8.94574234,14.981318 8.94574234,12.659917 C8.94574234,10.338516 10.8284972,8.45664806 13.1509303,8.45664806 C15.4733636,8.45664806 17.3561184,10.338516 17.3561184,12.659917 C17.3561184,14.981318 15.4733636,16.863236 13.1509303,16.863236 M13.1509303,6.18460127 C9.57311033,6.18460127 6.67268536,9.08368709 6.67268536,12.659917 C6.67268536,16.236197 9.57311033,19.1352828 13.1509303,19.1352828 C16.7287504,19.1352828 19.6291253,16.236197 19.6291253,12.659917 C19.6291253,9.08368709 16.7287504,6.18460127 13.1509303,6.18460127" id="Fill-4" fill="#FFFFFF" fill-rule="nonzero"></path>
                <path d="M21.3989609,5.92876012 C21.3989609,6.76447849 20.7212152,7.44192294 19.8851253,7.44192294 C19.0490353,7.44192294 18.3712396,6.76447849 18.3712396,5.92876012 C18.3712396,5.09304175 19.0490353,4.4155973 19.8851253,4.4155973 C20.7212152,4.4155973 21.3989609,5.09304175 21.3989609,5.92876012" id="Fill-6" fill="#FFFFFF" fill-rule="nonzero"></path>
            </g>
        </g>
    </g>
</svg>