<?xml version="1.0" encoding="UTF-8"?>
<svg width="27px" height="22px" viewBox="0 0 27 22" version="1.1" xmlns="http://www.w3.org/2000/svg" xmlns:xlink="http://www.w3.org/1999/xlink">
    <!-- Generator: Sketch 51.2 (57519) - http://www.bohemiancoding.com/sketch -->
    <title>medium</title>
    <desc>Created with Sketch.</desc>
    <defs></defs>
    <g id="Page-1" stroke="none" stroke-width="1" fill="none" fill-rule="evenodd">
        <g id="zOS-web" transform="translate(-752.000000, -466.000000)" fill="#FFFFFF" fill-rule="nonzero">
            <g id="medium" transform="translate(752.947977, 466.600000)">
                <path d="M3.08445484,4.2431592 C3.11682037,3.92156229 2.99490359,3.60376535 2.75662975,3.38716743 L0.327825089,0.440195768 L0.327825089,0 L7.86899352,0 L13.6979658,12.8762762 L18.8226404,0 L26.0115607,0 L26.0115607,0.440195768 L23.9350042,2.44557649 C23.7559017,2.58317516 23.6671447,2.80897299 23.7042757,3.03257084 L23.7042757,17.7674292 C23.6671447,17.991027 23.7559017,18.2168248 23.9350042,18.3542235 L25.9631117,20.3596042 L25.9631117,20.8 L15.7624101,20.8 L15.7624101,20.3596042 L17.8631911,18.305424 C18.0696951,18.097426 18.0696951,18.0362266 18.0696951,17.7182296 L18.0696951,5.80834415 L12.2286105,20.7510005 L11.4393284,20.7510005 L4.63879451,5.80834415 L4.63879451,15.8230478 C4.58200591,16.2440438 4.72099898,16.6680397 5.01526717,16.9724368 L7.74747383,20.3106047 L7.74747383,20.7510005 L0,20.7510005 L0,20.3106047 L2.73240524,16.9724368 C3.02448925,16.6676398 3.15514275,16.2408438 3.08445484,15.8230478 L3.08445484,4.2431592 Z" id="Fill-1"></path>
            </g>
        </g>
    </g>
</svg>