<?xml version="1.0" encoding="UTF-8"?>
<svg width="26px" height="26px" viewBox="0 0 26 26" version="1.1" xmlns="http://www.w3.org/2000/svg" xmlns:xlink="http://www.w3.org/1999/xlink">
    <!-- Generator: Sketch 51.2 (57519) - http://www.bohemiancoding.com/sketch -->
    <title>Slack</title>
    <desc>Created with Sketch.</desc>
    <defs></defs>
    <g id="Page-1" stroke="none" stroke-width="1" fill="none" fill-rule="evenodd">
        <g id="zOS-web" transform="translate(-707.000000, -464.000000)" fill="#FFFFFF" fill-rule="nonzero">
            <g id="Slack" transform="translate(706.994220, 464.000000)">
                <path d="M19.0590672,8.32380728 C19.5753129,9.90898132 20.1259858,11.5998898 20.6432686,13.188315 L22.9778443,12.4312241 C24.1954979,12.037123 25.5025653,12.7004454 25.8976118,13.9151851 C26.2926583,15.1299247 25.6277446,16.4338642 24.410091,16.8279653 C24.410091,16.8279653 23.4960298,17.1242377 22.0749728,17.5848516 C22.5477454,19.0367651 22.8542571,19.9782647 22.8575574,19.9888732 C23.2509781,21.193882 22.4999021,22.4961996 21.2708686,22.8497554 C20.0906063,23.187093 18.8631985,22.5497196 18.4518949,21.4160706 L17.6690556,19.0129845 C16.0798751,19.5281096 14.3846087,20.0776323 12.7920789,20.5938728 C13.2649107,22.0457485 13.5714672,22.9871022 13.5747676,22.9973456 C13.9681884,24.2023544 13.2171124,25.5046721 11.9880789,25.8582278 C10.8078165,26.1955655 9.58040873,25.558192 9.16910519,24.4245431 L8.38641116,22.0221148 C6.92985995,22.4943498 5.98522734,22.8006949 5.9745884,22.8043547 C4.76668907,23.196834 3.46124739,22.4475553 3.10684354,21.221463 C2.76869677,20.0440251 3.40759909,18.8195545 4.54396739,18.4092352 L6.95466362,17.6274589 L5.36920463,12.7609959 C3.9132404,13.2328925 2.96916979,13.5388641 2.95889925,13.5421574 C1.75099991,13.9330149 0.445558229,13.1853581 0.0911543872,11.9592657 C-0.248618105,10.7818278 0.390284235,9.55735724 1.52827823,9.14703798 L3.93732648,8.36593911 L3.17837968,6.03640131 C2.78170749,4.82166165 3.44987253,3.51934398 4.66590038,3.12362105 C5.88192825,2.72789811 7.18899565,3.39284239 7.58566784,4.60758204 C7.58566784,4.60758204 7.88264217,5.51942919 8.3443314,6.93703187 L13.2201396,5.35612202 L12.4611694,3.02630705 C12.0661229,1.81156741 12.7310365,0.507627913 13.9486901,0.113526796 C15.1663437,-0.28057432 16.4734111,0.384369949 16.8684575,1.59748779 C16.8684575,1.59748779 17.1654656,2.50943838 17.6271997,3.92719686 L19.9605295,3.17064862 C21.178183,2.77654751 22.4852504,3.43986997 22.8802969,4.65460962 C23.2753434,5.86934928 22.6104298,7.17328877 21.3927762,7.56738988 C21.3927762,7.56738988 20.4793115,7.86346886 19.0590672,8.32380728 Z M14.6305293,9.73089174 C13.0415673,10.2459132 11.3465452,10.7953096 9.75423421,11.3114115 C10.2706411,12.8970317 10.8215143,14.5884853 11.3389667,16.1773314 L16.2153856,14.5959339 L14.6305293,9.73089174 Z" id="Combined-Shape"></path>
            </g>
        </g>
    </g>
</svg>