<?xml version="1.0" encoding="UTF-8"?>
<svg width="24px" height="24px" viewBox="0 0 24 24" version="1.1" xmlns="http://www.w3.org/2000/svg" xmlns:xlink="http://www.w3.org/1999/xlink">
    <!-- Generator: Sketch 51.2 (57519) - http://www.bohemiancoding.com/sketch -->
    <title>Telegram</title>
    <desc>Created with Sketch.</desc>
    <defs></defs>
    <g id="Page-1" stroke="none" stroke-width="1" fill="none" fill-rule="evenodd">
        <g id="zOS-web" transform="translate(-617.000000, -465.000000)">
            <g id="Telegram" transform="translate(615.953757, 464.866667)">
                <rect id="Rectangle-path" x="0.378349974" y="0.0465432099" width="25.4440357" height="24.8540741"></rect>
                <path d="M23.9779296,7.67962963 C24.5927483,9.12246914 24.9238045,10.6118519 24.9238045,12.194321 C24.9238045,13.7767901 24.5927483,15.2661728 23.9779296,16.7090123 C23.3631109,18.1518519 22.5118234,19.3619753 21.471361,20.4324691 C20.4308986,21.4564198 19.1539674,22.2941975 17.6878613,22.8992593 C16.2217551,23.504321 14.7083552,23.8301235 13.1003678,23.8301235 C11.4923805,23.8301235 9.97898056,23.504321 8.51287441,22.8992593 C7.04676826,22.2941975 5.81713085,21.4564198 4.72937467,20.4324691 C3.68891224,19.4085185 2.8376248,18.1518519 2.2228061,16.7090123 C1.60798739,15.2661728 1.27693116,13.7767901 1.27693116,12.194321 C1.27693116,10.6118519 1.60798739,9.12246914 2.2228061,7.67962963 C2.8376248,6.23679012 3.68891224,5.02666667 4.72937467,3.95617284 C5.7698371,2.93222222 7.04676826,2.09444444 8.51287441,1.48938272 C9.97898056,0.884320988 11.4923805,0.558518519 13.1003678,0.558518519 C14.7083552,0.558518519 16.2217551,0.884320988 17.6878613,1.48938272 C19.1539674,2.09444444 20.3836048,2.93222222 21.471361,3.95617284 C22.5118234,5.02666667 23.3158171,6.28333333 23.9779296,7.67962963 Z M17.8288559,17.7436064 L20.009863,7.44103206 C20.1162536,7.01398235 20.0630583,6.69369506 19.8502771,6.48017021 C19.637496,6.26664535 19.4247148,6.26664535 19.105543,6.37340778 L6.2854764,11.3378607 C6.01949991,11.4446231 5.80671872,11.5513855 5.70032813,11.7115292 C5.59393754,11.8716728 5.59393754,11.9784352 5.64713283,12.0851977 C5.70032813,12.1919601 5.85991402,12.2987225 6.12589051,12.3521037 L9.42399892,13.3663468 L17.0309264,8.56203755 C17.2437076,8.40189391 17.4032935,8.40189391 17.5096841,8.45527512 C17.5628794,8.50865634 17.5628794,8.56203755 17.4564888,8.66879998 L11.2858343,14.3272087 L11.0198578,17.7436064 C11.232639,17.7436064 11.4454202,17.6368439 11.7113967,17.4233191 L13.3072556,15.8752639 L16.605364,18.3307997 C17.2969029,18.7044682 17.66927,18.4909434 17.8288559,17.7436064 Z" id="Shape" fill="#FFFFFF" fill-rule="nonzero"></path>
            </g>
        </g>
    </g>
</svg>