<?xml version="1.0" encoding="UTF-8"?>
<svg width="26px" height="22px" viewBox="0 0 26 22" version="1.1" xmlns="http://www.w3.org/2000/svg" xmlns:xlink="http://www.w3.org/1999/xlink">
    <!-- Generator: Sketch 51.2 (57519) - http://www.bohemiancoding.com/sketch -->
    <title>twitter</title>
    <desc>Created with Sketch.</desc>
    <defs></defs>
    <g id="Page-1" stroke="none" stroke-width="1" fill="none" fill-rule="evenodd">
        <g id="zOS-web" transform="translate(-570.000000, -466.000000)" fill="#FFFFFF" fill-rule="nonzero">
            <g id="twitter" transform="translate(570.000000, 466.600000)">
                <path d="M25.4658636,2.4624 C24.5188518,2.88 23.509767,3.1568 22.4577085,3.2912 C23.5400077,2.6416 24.3660567,1.6208 24.754411,0.3904 C23.7453262,0.995199997 22.6311947,1.4224 21.4438488,1.6608 C20.4856957,0.635199998 19.1200887,0 17.6303357,0 C14.7399602,0 12.4130169,2.3584 12.4130169,5.2496 C12.4130169,5.6656 12.4480325,6.06560002 12.5339798,6.4464 C8.19364162,6.23360002 4.35307106,4.1424 1.77306075,0.9568 C1.32263329,1.7424 1.05842496,2.6416 1.05842496,3.6096 C1.05842496,5.4272 1.9895206,7.03839998 3.37741016,7.97119999 C2.53862828,7.95519997 1.71576256,7.71040002 1.01863454,7.32479999 C1.01863454,7.3408 1.01863454,7.3616 1.01863454,7.3824 C1.01863454,9.93280003 2.82830248,12.0512 5.20140264,12.5392 C4.77644104,12.656 4.31328065,12.712 3.83261247,12.712 C3.49837302,12.712 3.16095032,12.6928 2.84421864,12.6224 C3.52065565,14.7008 5.44014511,16.2288 7.72252313,16.2784 C5.94627913,17.6752 3.69095861,18.5168 1.24941893,18.5168 C0.821274102,18.5168 0.410637051,18.4976 -5.68434189e-14,18.4448 C2.31261874,19.944 5.05338231,20.8 8.0090141,20.8 C17.6160111,20.8 22.8683455,12.8 22.8683455,5.8656 C22.8683455,5.6336 22.8603875,5.4096 22.8492461,5.1872 C23.8853884,4.448 24.7560026,3.5248 25.4658636,2.4624 Z" id="Shape"></path>
            </g>
        </g>
    </g>
</svg>