<?xml version="1.0" encoding="UTF-8"?>
<svg width="27px" height="26px" viewBox="0 0 27 26" version="1.1" xmlns="http://www.w3.org/2000/svg" xmlns:xlink="http://www.w3.org/1999/xlink">
    <!-- Generator: Sketch 51.2 (57519) - http://www.bohemiancoding.com/sketch -->
    <title>wechat</title>
    <desc>Created with Sketch.</desc>
    <defs></defs>
    <g id="Page-1" stroke="none" stroke-width="1" fill="none" fill-rule="evenodd">
        <g id="zOS-web" transform="translate(-661.000000, -464.000000)" fill="#FFFFFF" fill-rule="nonzero">
            <g id="wechat" transform="translate(661.040462, 464.000000)">
                <path d="M26.0115607,22.1 C26.0115607,24.2539105 24.2646948,26 22.1098266,26 L3.9017341,26 C1.74686586,26 2.6389525e-16,24.2539105 0,22.1 L0,3.9 C-2.6389525e-16,1.74608948 1.74686586,3.95666944e-16 3.9017341,0 L22.1098266,0 C24.2646948,1.31888981e-16 26.0115607,1.74608948 26.0115607,3.9 L26.0115607,22.1 Z M17.4104046,9.69626667 C17.3042279,8.490064 16.8506821,7.34044815 16.1046243,6.38646667 C14.067052,3.72753333 10.3031792,2.61213333 6.95289017,3.70586667 C4.49913295,4.50666667 2.69219653,6.045 1.95693642,8.58 C1.16184971,11.3169333 2.22398844,13.9784667 4.74537572,15.7577333 C5.13728324,16.0350667 5.19710983,16.2725333 5.06878613,16.6980667 C4.89450867,17.277 4.79653179,17.8793333 4.64393064,18.5674667 C5.47283237,18.0492 6.17254335,17.5846667 6.90260116,17.173 C7.1472114,17.0552709 7.42011807,17.0090055 7.68988439,17.0395333 C8.4416185,17.1028 9.18901734,17.2146 10.0092486,17.316 C9.82283237,15.1103333 10.5060694,13.3310667 12.0034682,11.8794 C13.4852601,10.4416 15.3112717,9.80633333 17.4104046,9.69626667 Z M22.1271676,22.7786 C22.082948,22.6018 22.0742775,22.425 21.9962428,22.2846 C21.5809249,21.528 21.8141618,21.0556667 22.4609827,20.4819333 C24.6979769,18.499 24.9130058,15.3651333 23.0809249,13.0043333 C20.9809249,10.2986 16.6144509,9.6486 13.6369942,11.5986 C10.2884393,13.793 9.87398844,17.8975333 12.7699422,20.5746667 C14.2924855,21.9821333 16.1393064,22.5558667 18.200289,22.3452667 C18.8765896,22.2759333 19.5537572,21.9032667 20.2031792,21.9708667 C20.8526012,22.0384667 21.4621387,22.4830667 22.1271676,22.7786 Z" id="Combined-Shape"></path>
                <path d="M7.74884393,8.84 C7.76791908,8.33906667 7.33352601,7.88666667 6.81763006,7.87193333 C6.56720537,7.86186618 6.32311401,7.95209735 6.13950247,8.12261098 C5.95589092,8.29312462 5.84793966,8.52982314 5.83959538,8.7802 C5.82923396,9.03201197 5.92175887,9.27721024 6.09591163,9.45945816 C6.27006439,9.64170607 6.51087171,9.74533432 6.76300578,9.74653333 C7.28434542,9.76468538 7.72355157,9.36081075 7.74884393,8.84 Z M12.7898844,7.87193333 C12.2693507,7.88397139 11.8513072,8.30489036 11.8430636,8.82526667 C11.8487351,9.07659987 11.9543981,9.3153069 12.1366607,9.48854202 C12.3189232,9.66177714 12.56275,9.75524978 12.8141618,9.74826667 C13.1496404,9.74377704 13.4572392,9.56073229 13.6210886,9.26808362 C13.784938,8.97543495 13.7801455,8.61764264 13.6085164,8.32948361 C13.4368872,8.04132457 13.1244959,7.86657702 12.7890173,7.87106667 L12.7898844,7.87193333 Z" id="Shape"></path>
                <path d="M14.5604046,15.4552667 C14.8391957,15.4561956 15.097305,15.3083867 15.2375054,15.0675183 C15.3777057,14.8266499 15.3786973,14.5293156 15.2401065,14.2875183 C15.1015158,14.045721 14.844398,13.8961956 14.5656069,13.8952667 C14.2868159,13.8943378 14.0287065,14.0421466 13.8885062,14.283015 C13.7483058,14.5238834 13.7473143,14.8212177 13.885905,15.063015 C14.0244958,15.3048123 14.2816136,15.4543378 14.5604046,15.4552667 Z M19.4384393,13.8952667 C19.0196894,13.8949128 18.6753076,14.2249899 18.6580925,14.6432 C18.6486057,14.9563362 18.8295421,15.2441036 19.1159349,15.3713682 C19.4023277,15.4986327 19.7372814,15.4401117 19.9635035,15.2232863 C20.1897255,15.0064609 20.2622741,14.6744061 20.1470808,14.3830532 C20.0318875,14.0917003 19.7518369,13.8989302 19.4384393,13.8952667 Z" id="Shape"></path>
            </g>
        </g>
    </g>
</svg>