<?xml version="1.0" standalone="no"?>
<!DOCTYPE svg PUBLIC "-//W3C//DTD SVG 1.1//EN" "http://www.w3.org/Graphics/SVG/1.1/DTD/svg11.dtd" >
<svg>
<metadata>
Created by FontForge 20090622 at Sun Oct 29 20:36:39 2017
 By deploy user
Copyright (c) 2014 by Alfredo Marco Pradil. All rights reserved.
</metadata>
<defs>
<font id="Gen-Light" horiz-adv-x="577" >
  <font-face 
    font-family="Gen Light"
    font-weight="300"
    font-stretch="normal"
    units-per-em="1000"
    panose-1="0 0 4 0 0 0 0 0 0 0"
    ascent="800"
    descent="-200"
    x-height="502"
    cap-height="722"
    bbox="-330 -250 981 957"
    underline-thickness="50"
    underline-position="-50"
    unicode-range="U+000D-U+FB02"
  />
<missing-glyph horiz-adv-x="500" 
d="M50 0v672h400v-672h-400zM100 50h300v572h-300v-572z" />
    <glyph glyph-name=".notdef" horiz-adv-x="500" 
d="M50 0v672h400v-672h-400zM100 50h300v572h-300v-572z" />
    <glyph glyph-name=".null" horiz-adv-x="0" 
 />
    <glyph glyph-name="nonmarkingreturn" horiz-adv-x="333" 
 />
    <glyph glyph-name="CR" unicode="&#xd;" horiz-adv-x="0" 
 />
    <glyph glyph-name="space" unicode=" " horiz-adv-x="280" 
 />
    <glyph glyph-name="exclam" unicode="!" horiz-adv-x="404" 
d="M177 171l-13 551h81l-13 -551h-55zM165 0v86h79v-86h-79z" />
    <glyph glyph-name="quotedbl" unicode="&#x22;" horiz-adv-x="282" 
d="M63 496v226h51v-226h-51zM171 496v226h51v-226h-51z" />
    <glyph glyph-name="numbersign" unicode="#" horiz-adv-x="574" 
d="M153 0v201h-94v54h94v212h-94v54h94v201h49v-201h174v201h51v-201h94v-54h-94v-212h94v-54h-94v-201h-51v201h-174v-201h-49zM202 255h174v212h-174v-212z" />
    <glyph glyph-name="dollar" unicode="$" horiz-adv-x="636" 
d="M564 184q0 -103 -61.5 -150.5t-166.5 -48.5v-62h-40v63q-194 17 -217 202h68q18 -131 149 -144v298q-46 16 -75 29t-61.5 36.5t-48.5 57.5t-16 79q0 88 56.5 137t144.5 55v64h40v-63q198 -8 211 -172h-64q-10 110 -147 116v-287q109 -38 146 -63q82 -53 82 -147zM164 551
q0 -54 34 -86t98 -57v272q-59 -6 -95.5 -37.5t-36.5 -91.5zM336 42q159 2 159 142q0 57 -40.5 87.5t-118.5 57.5v-287z" />
    <glyph glyph-name="percent" unicode="%" horiz-adv-x="1005" 
d="M289 329q-73 0 -114.5 56t-41.5 133t41.5 133t114.5 56t114.5 -56t41.5 -133t-41.5 -133t-114.5 -56zM275 0l382 707h57l-382 -707h-57zM289 374q51 0 76.5 44t25.5 100t-25.5 100t-76.5 44t-76.5 -44t-25.5 -100t25.5 -100t76.5 -44zM726 -15q-73 0 -114.5 56t-41.5 133
t41.5 133t114.5 56t114.5 -56t41.5 -133t-41.5 -133t-114.5 -56zM726 30q51 0 76.5 44t25.5 100t-25.5 100t-76.5 44t-76.5 -44t-25.5 -100t25.5 -100t76.5 -44z" />
    <glyph glyph-name="ampersand" unicode="&#x26;" horiz-adv-x="717" 
d="M262 -15q-77 0 -136.5 57.5t-59.5 135.5l174 244q-4 4 -18 20.5t-19 23l-16 21.5t-16 24.5t-11.5 23.5t-9 28t-2.5 28q0 61 47 103.5t108 42.5t109 -42t48 -104l-129 -172l155 -171l151 254h72l-183 -298l189 -204h-91l-131 150q-56 -85 -80 -109q-57 -56 -151 -56z
M293 461l99 130q0 34 -28.5 60t-62.5 26q-35 0 -60 -25.5t-25 -60.5q0 -11 2 -21.5t8 -21.5t9.5 -18.5t13.5 -19.5l13.5 -16l16 -17.5t14.5 -15.5zM270 44q26 0 50 10.5t40 22t36.5 37t29 38l27.5 42.5l-172 187l-147 -202q0 -54 41.5 -94.5t94.5 -40.5z" />
    <glyph glyph-name="quotesingle" unicode="'" horiz-adv-x="289" 
d="M120 496v226h51v-226h-51z" />
    <glyph glyph-name="parenleft" unicode="(" horiz-adv-x="283" 
d="M187 -96l-11 17t-25.5 49.5t-32 82t-25 114t-11.5 146.5q0 78 11 148.5t26.5 116t31 79.5t26.5 49l11 16h49l-9 -12t-21 -41t-26 -74.5t-20.5 -117t-9.5 -164.5q0 -84 9 -157.5t21.5 -117.5t25 -76t21.5 -45l9 -13h-50z" />
    <glyph glyph-name="parenright" unicode=")" horiz-adv-x="282" 
d="M48 -96q4 4 9.5 13.5t20.5 44t26.5 77t21 116.5t9.5 158q0 89 -9 164t-21.5 118t-25.5 73.5t-22 41.5l-9 12h49q4 -5 11.5 -15.5t25.5 -48.5t32 -81.5t25.5 -114.5t11.5 -149q0 -76 -11 -145.5t-26.5 -115.5t-30.5 -81t-26 -51l-11 -16h-50z" />
    <glyph glyph-name="asterisk" unicode="*" horiz-adv-x="561" 
d="M226 398q-6 -15 -24 -15q-11 0 -18.5 7.5t-7.5 18.5q0 7 5 15l51 74q11 16 5.5 25t-24.5 8l-77 -7q-11 -2 -20 6t-9 20t9.5 20t20.5 6l75 -9q19 -2 24.5 8.5t-5.5 25.5l-51 70q-6 8 -6 16q0 11 8 19t19 8q19 0 25 -16l36 -79q8 -17 19 -17t19 17l36 79q7 16 24 16
q11 0 19 -7.5t8 -18.5q0 -8 -5 -16l-51 -71q-11 -15 -5 -25.5t25 -8.5l74 9q11 1 20 -7t9 -19t-9 -19t-20 -7l-74 8q-19 2 -25 -8.5t5 -25.5l50 -73q4 -7 4 -15q0 -11 -7.5 -18.5t-18.5 -7.5q-18 0 -24 16l-35 79q-8 18 -19 18t-19 -18z" />
    <glyph glyph-name="plus" unicode="+" horiz-adv-x="670" 
d="M306 0v221h-216v60h216v221h58v-221h216v-60h-216v-221h-58z" />
    <glyph glyph-name="comma" unicode="," horiz-adv-x="225" 
d="M64 -124l42 205h79l-70 -205h-51z" />
    <glyph glyph-name="hyphen" unicode="-" horiz-adv-x="277" 
d="M15 237v60h247v-60h-247z" />
    <glyph glyph-name="period" unicode="." horiz-adv-x="238" 
d="M80 0v86h78v-86h-78z" />
    <glyph glyph-name="slash" unicode="/" horiz-adv-x="272" 
d="M-23 -96l254 818h64l-256 -818h-62z" />
    <glyph glyph-name="zero" unicode="0" horiz-adv-x="556" 
d="M281 -15q-225 0 -225 361t225 361q55 0 97 -23t66 -58.5t39 -86t19.5 -96t4.5 -97.5t-4.5 -97.5t-19.5 -96t-39 -86t-66 -58.5t-97 -23zM281 45q157 0 157 301t-157 301t-157 -301t157 -301z" />
    <glyph glyph-name="one" unicode="1" horiz-adv-x="416" 
d="M204 0v622l-153 -124v75l156 119h61v-692h-64z" />
    <glyph glyph-name="two" unicode="2" horiz-adv-x="558" 
d="M58 0v79l70 68.5l80.5 79.5t71.5 77t67 82.5t41 74t18 72.5q0 52 -38.5 83t-94.5 31q-64 0 -102.5 -40t-37.5 -98h-69q0 90 59.5 144t153.5 54q86 0 142 -45.5t56 -124.5q0 -29 -9 -60t-20.5 -56.5t-37.5 -61.5l-42.5 -58t-54.5 -62l-55 -57.5l-62.5 -62.5l-59.5 -59h350
v-60h-426z" />
    <glyph glyph-name="three" unicode="3" horiz-adv-x="556" 
d="M268 -15q-95 0 -158.5 52.5t-65.5 145.5h69q0 -61 46 -99.5t108 -38.5q72 0 118 38.5t46 109.5q0 136 -198 136v63q50 0 88.5 9.5t68.5 40t30 80.5q0 59 -44 92t-105 33q-63 0 -102 -32t-46 -94h-69q0 83 61.5 134.5t146.5 51.5q95 0 161 -48t66 -141q0 -60 -39 -103
t-99 -55q67 -15 108 -61.5t41 -113.5q0 -91 -69.5 -145.5t-162.5 -54.5z" />
    <glyph glyph-name="four" unicode="4" horiz-adv-x="554" 
d="M347 0v161h-318v63l298 468h84v-477h109v-54h-109v-161h-64zM82 215h265v412h-2z" />
    <glyph glyph-name="five" unicode="5" horiz-adv-x="557" 
d="M290 -15q-93 0 -155.5 46t-64.5 139h69q2 -60 43 -92.5t101 -32.5q76 0 116 51.5t40 131.5q0 77 -39 122.5t-113 45.5q-50 0 -88 -28.5t-49 -76.5h-66v401h389v-60h-323v-247l2 -2q62 73 149 73q93 0 150 -67.5t57 -163.5q0 -102 -60 -171t-158 -69z" />
    <glyph glyph-name="six" unicode="6" horiz-adv-x="556" 
d="M288 -15q-66 0 -113 27.5t-73 77.5t-37.5 108.5t-11.5 129.5q0 49 5 94.5t20.5 99.5t41 93t71.5 65.5t106 26.5q85 0 139 -50.5t54 -126.5h-64q0 50 -35.5 83.5t-96.5 33.5q-173 0 -173 -311q22 54 71.5 83.5t111.5 29.5q95 0 150 -65t55 -164q0 -101 -57.5 -168
t-163.5 -67zM290 45q69 0 110 49t41 126q0 71 -36 122.5t-109 51.5q-75 0 -119 -53t-44 -126q0 -72 43.5 -121t113.5 -49z" />
    <glyph glyph-name="seven" unicode="7" horiz-adv-x="491" 
d="M117 0l271 631l-365 1v60h432v-61l-264 -631h-74z" />
    <glyph glyph-name="eight" unicode="8" horiz-adv-x="556" 
d="M281 -15q-97 0 -163.5 54t-66.5 149q0 65 41 111t107 60v2q-59 6 -99 53t-40 107q0 87 65.5 136.5t155.5 49.5t155 -49.5t65 -136.5q0 -60 -38 -103t-98 -57v-1q66 -17 106 -61.5t40 -110.5q0 -95 -66.5 -149t-163.5 -54zM281 391q67 0 112 32.5t45 97.5q0 63 -46 97
t-111 34t-111 -34t-46 -97q0 -65 45 -97.5t112 -32.5zM281 45q70 0 116 37.5t46 105.5t-46 105.5t-116 37.5t-116 -37.5t-46 -105.5t46 -105.5t116 -37.5z" />
    <glyph glyph-name="nine" unicode="9" horiz-adv-x="556" 
d="M273 -15q-83 0 -142 51t-59 126h65q0 -50 35 -83.5t98 -33.5q172 0 172 311q-22 -54 -71.5 -83.5t-109.5 -29.5q-97 0 -152 64.5t-55 164.5t57.5 167.5t155.5 67.5q68 0 117.5 -27.5t76 -76t38 -103t11.5 -119.5q0 -396 -237 -396zM264 298q78 0 122 52t44 131
q0 67 -43.5 116.5t-109.5 49.5q-73 0 -114 -48.5t-41 -122.5t35.5 -126t106.5 -52z" />
    <glyph glyph-name="colon" unicode=":" horiz-adv-x="287" 
d="M106 416v86h78v-86h-78zM106 0v86h78v-86h-78z" />
    <glyph glyph-name="semicolon" unicode=";" horiz-adv-x="285" 
d="M112 416v86h79v-86h-79zM84 -124l42 205h80l-71 -205h-51z" />
    <glyph glyph-name="less" unicode="&#x3c;" horiz-adv-x="663" 
d="M580 -10l-490 235v53l490 223v-64l-412 -186l412 -197v-64z" />
    <glyph glyph-name="equal" unicode="=" horiz-adv-x="663" 
d="M90 318v60h490v-60h-490zM90 124v60h490v-60h-490z" />
    <glyph glyph-name="greater" unicode="&#x3e;" horiz-adv-x="663" 
d="M90 1v64l413 186l-413 197v64l490 -235v-53z" />
    <glyph glyph-name="question" unicode="?" horiz-adv-x="500" 
d="M176 169v148q0 35 28.5 67.5t62.5 54.5t62.5 53.5t28.5 65.5q0 63 -37.5 91t-98.5 28q-36 0 -63 -10t-39.5 -24.5t-20 -29t-9.5 -24.5l-1 -10h-67q0 6 1.5 17t13.5 38t31.5 48t61 38t96.5 17q86 0 141 -45.5t55 -133.5q0 -40 -19.5 -72.5t-47 -54l-54.5 -42.5t-46.5 -48
t-19.5 -60v-112h-59zM166 0v86h79v-86h-79z" />
    <glyph glyph-name="at" unicode="@" horiz-adv-x="797" 
d="M418 -15q-153 0 -260.5 111t-107.5 268q0 152 107.5 262.5t256.5 110.5q137 0 236.5 -88t99.5 -225q0 -62 -28.5 -128.5t-82.5 -114t-116 -47.5q-28 0 -51 13t-32 39q-50 -50 -117 -50q-61 0 -97.5 43t-36.5 106q0 68 29 136.5t86 116t126 47.5q35 0 64.5 -17t44.5 -48
l15 46h64q-1 -4 -33.5 -99.5t-54 -165t-21.5 -86.5q0 -26 28 -26q44 0 81 43.5t55 97.5t18 97q0 115 -80.5 187.5t-194.5 72.5q-132 0 -219.5 -97t-87.5 -233q0 -134 89 -228t220 -94q76 0 145.5 36t112.5 99h57q-45 -86 -131.5 -135.5t-183.5 -49.5zM338 196q44 0 82.5 49
t58.5 107.5t20 101.5q0 30 -19 50.5t-48 20.5q-49 0 -89.5 -40t-60 -93.5t-19.5 -101.5q0 -38 20 -66t55 -28z" />
    <glyph glyph-name="A" unicode="A" horiz-adv-x="682" 
d="M26 0l281 722h74l282 -722h-69l-76 195h-351l-75 -195h-66zM187 255h309l-153 407z" />
    <glyph glyph-name="B" unicode="B" horiz-adv-x="651" 
d="M121 0v722h205q101 0 164 -44.5t63 -128.5q0 -64 -36 -110t-93 -59v-2q89 -7 133 -57.5t44 -128.5q0 -97 -63.5 -144.5t-162.5 -47.5h-254zM185 404h117q86 0 134 27.5t48 102.5q0 128 -158 128h-141v-258zM185 60h151q40 0 71.5 5.5t62 19.5t47 43t16.5 72q0 39 -15 67
t-36.5 42.5t-56 22.5t-60.5 10t-63 2h-117v-284z" />
    <glyph glyph-name="C" unicode="C" horiz-adv-x="687" 
d="M385 -15q-78 0 -137.5 31t-95 84t-53.5 119t-18 142q0 75 18 141t54 119.5t95.5 84.5t136.5 31q92 0 160.5 -47.5t75.5 -136.5h-69q-8 61 -56 92.5t-111 31.5q-51 0 -91.5 -18t-67 -48.5t-44.5 -72t-25.5 -85.5t-7.5 -92t7.5 -92t25.5 -85.5t44.5 -72t67 -48.5t91.5 -18
q63 0 111 31.5t56 92.5h69q-7 -89 -75.5 -136.5t-160.5 -47.5z" />
    <glyph glyph-name="D" unicode="D" horiz-adv-x="745" 
d="M112 0v722h192q175 0 269.5 -91.5t94.5 -269.5t-94.5 -269.5t-269.5 -91.5h-192zM176 60h143q141 0 211 78t70 223q0 301 -324 301h-100v-602z" />
    <glyph glyph-name="E" unicode="E" horiz-adv-x="636" 
d="M123 0v722h420v-60h-356v-259h343v-60h-343v-283h371v-60h-435z" />
    <glyph glyph-name="F" unicode="F" horiz-adv-x="580" 
d="M115 0v722h400v-60h-336v-255h324v-60h-324v-347h-64z" />
    <glyph glyph-name="G" unicode="G" horiz-adv-x="744" 
d="M435 -19q-185 0 -268 94.5t-83 285.5q0 95 31.5 178.5t102 140.5t168.5 57q94 0 167.5 -51.5t81.5 -141.5h-73q-9 64 -59 98.5t-117 34.5q-61 0 -107.5 -29t-73 -76t-40 -101t-13.5 -110q0 -156 67 -238t218 -82q64 0 137 13v253h-205v60h266v-367q-114 -19 -200 -19z
" />
    <glyph glyph-name="H" unicode="H" horiz-adv-x="747" 
d="M120 0v722h64v-317h386v317h64v-722h-64v345h-386v-345h-64z" />
    <glyph glyph-name="I" unicode="I" horiz-adv-x="308" 
d="M124 0v722h64v-722h-64z" />
    <glyph glyph-name="J" unicode="J" horiz-adv-x="520" 
d="M210 -15q-80 0 -126 54t-56 139h69q5 -58 41 -95.5t93 -37.5q44 0 73 29.5t40 68t11 82.5v497h64v-487q0 -112 -51 -181t-158 -69z" />
    <glyph glyph-name="K" unicode="K" horiz-adv-x="633" 
d="M128 0v722h62l1 -338l317 338h80l-318 -346l348 -376h-88l-339 357l-1 -357h-62z" />
    <glyph glyph-name="L" unicode="L" horiz-adv-x="579" 
d="M121 0v722h63v-662h356v-60h-419z" />
    <glyph glyph-name="M" unicode="M" horiz-adv-x="967" 
d="M121 0v722h102l265 -629l272 629h97v-722h-64v667h-2l-270 -667h-64l-271 664h-2v-664h-63z" />
    <glyph glyph-name="N" unicode="N" horiz-adv-x="746" 
d="M113 0v722h73l390 -635h2v635h63v-722h-80l-382 624h-2v-624h-64z" />
    <glyph glyph-name="O" unicode="O" horiz-adv-x="799" 
d="M403 -15q-104 0 -177 52.5t-105.5 135.5t-32.5 188t32.5 188t105.5 135.5t177 52.5q155 0 235.5 -106.5t80.5 -269.5t-80.5 -269.5t-235.5 -106.5zM403 45q83 0 141 47.5t82 116.5t24 152t-24 152t-82 116.5t-141 47.5q-63 0 -111.5 -27t-77.5 -72.5t-43.5 -100.5
t-14.5 -116t14.5 -116t43.5 -100.5t77.5 -72.5t111.5 -27z" />
    <glyph glyph-name="P" unicode="P" horiz-adv-x="634" 
d="M121 0v722h187q49 0 85.5 -4t75 -16.5t63 -34t40.5 -59.5t16 -90q0 -53 -20 -92t-49.5 -60.5t-74 -33.5t-83 -15.5t-88.5 -3.5q-14 0 -43.5 0.5t-44.5 0.5v-314h-64zM185 374h155q179 0 179 144q0 84 -46 114t-133 30h-155v-288z" />
    <glyph glyph-name="Q" unicode="Q" horiz-adv-x="797" 
d="M661 -39l-78 78q-76 -54 -181 -54q-155 0 -235.5 106.5t-80.5 269.5t80.5 269.5t235.5 106.5q104 0 177 -52.5t105.5 -135.5t32.5 -188q0 -179 -91 -282l118 -118h-83zM402 45q79 0 134 41l-102 105h83l62 -63q70 89 70 233q0 83 -24 152t-82 116.5t-141 47.5t-141 -47.5
t-82 -116.5t-24 -152t24 -152t82 -116.5t141 -47.5z" />
    <glyph glyph-name="R" unicode="R" horiz-adv-x="672" 
d="M121 0v722h188q49 0 85.5 -4t75 -16.5t63 -34t40 -59.5t15.5 -90q0 -146 -142 -188l179 -330h-70l-170 313h-200v-313h-64zM185 374h155q179 0 179 144q0 85 -45 114.5t-134 29.5h-155v-288z" />
    <glyph glyph-name="S" unicode="S" horiz-adv-x="636" 
d="M334 -15q-230 0 -255 203h68q20 -146 184 -146t164 142q0 39 -22 67.5t-57.5 45.5t-78 31t-85 30.5t-78 38t-57.5 59t-22 88.5q0 93 63 143t159 50q216 0 230 -172h-64q-11 116 -163 116q-68 0 -112 -32t-44 -98q0 -41 22 -71t57.5 -48t78 -32.5t85 -31t78 -38t57.5 -59
t22 -87.5q0 -104 -62 -151.5t-168 -47.5z" />
    <glyph glyph-name="T" unicode="T" horiz-adv-x="572" 
d="M260 0l-1 662h-229v60h518v-60h-225l-1 -662h-62z" />
    <glyph glyph-name="U" unicode="U" horiz-adv-x="747" 
d="M377 -15q-121 0 -190 73t-69 196v468h64v-467q0 -94 52 -152t143 -58t143 58t52 152v467h64v-468q0 -123 -69 -196t-190 -73z" />
    <glyph glyph-name="V" unicode="V" horiz-adv-x="626" 
d="M281 0l-258 722h69l228 -657h2l224 657h64l-256 -722h-73z" />
    <glyph glyph-name="W" unicode="W" horiz-adv-x="1002" 
d="M206 0l-185 722h68l165 -657h3l205 657h78l205 -657h3l165 657h68l-185 -722h-90l-203 655h-4l-203 -655h-90z" />
    <glyph glyph-name="X" unicode="X" horiz-adv-x="626" 
d="M25 0l252 372l-240 350h84l200 -304l207 304h72l-245 -350l253 -372h-82l-214 323l-215 -323h-72z" />
    <glyph glyph-name="Y" unicode="Y" horiz-adv-x="626" 
d="M285 0v312l-260 410h81l217 -349l216 349h69l-259 -408v-314h-64z" />
    <glyph glyph-name="Z" unicode="Z" horiz-adv-x="575" 
d="M56 0v60l393 602h-393v60h469v-60l-394 -602h394v-60h-469z" />
    <glyph glyph-name="bracketleft" unicode="[" horiz-adv-x="284" 
d="M92 -96v818h134v-50h-71v-718h71v-50h-134z" />
    <glyph glyph-name="backslash" unicode="\" horiz-adv-x="270" 
d="M253 0l-296 722h64l296 -722h-64z" />
    <glyph glyph-name="bracketright" unicode="]" horiz-adv-x="283" 
d="M61 -96v50h70v718h-70v50h134v-818h-134z" />
    <glyph glyph-name="asciicircum" unicode="^" horiz-adv-x="662" 
d="M84 239l225 453h51l227 -453h-56l-197 392l-193 -392h-57z" />
    <glyph glyph-name="underscore" unicode="_" horiz-adv-x="495" 
d="M5 -124v56h490v-56h-490z" />
    <glyph glyph-name="a" unicode="a" horiz-adv-x="521" 
d="M216 -15q-70 0 -117 42t-47 113q0 152 219 152h103v68q0 40 -29.5 71t-87.5 31q-65 0 -95 -29.5t-29 -85.5h-63q0 78 50 124t138 46q73 0 123.5 -41.5t50.5 -124.5v-351h-57v74h-2q-18 -43 -63 -66t-94 -23zM216 40q59 0 108.5 34t49.5 91v79h-85q-29 0 -56 -4t-55 -14.5
t-45 -32.5t-17 -53q0 -46 27.5 -73t72.5 -27z" />
    <glyph glyph-name="b" unicode="b" horiz-adv-x="578" 
d="M321 -15q-109 0 -171 93h-2v-78h-59v722h59v-296h2q25 43 71 67t97 24q69 0 116.5 -40t66.5 -97.5t19 -126.5q0 -50 -11 -95.5t-34 -85t-62.5 -63.5t-91.5 -24zM315 40q53 0 86.5 37t44 82.5t10.5 98.5q0 84 -36.5 144t-113.5 60q-79 0 -118.5 -58t-39.5 -143
q0 -62 14 -109t53 -79.5t100 -32.5z" />
    <glyph glyph-name="c" unicode="c" horiz-adv-x="520" 
d="M279 -15q-101 0 -158.5 79.5t-57.5 186.5q0 103 59 184.5t157 81.5q77 0 132.5 -46.5t59.5 -123.5h-64q-4 57 -42 86t-92 29q-49 0 -83.5 -35t-48.5 -81t-14 -94q0 -49 14 -95t48.5 -81.5t83.5 -35.5q51 0 90.5 34.5t43.5 85.5h64q-10 -80 -62 -127.5t-130 -47.5z" />
    <glyph glyph-name="d" unicode="d" 
d="M265 -15q-68 0 -115.5 41.5t-67 100t-19.5 126.5q0 69 19 126.5t66.5 97.5t116.5 40q51 0 97 -24t72 -67h2v296h59v-722h-59v78h-2q-61 -93 -169 -93zM266 40q89 0 128.5 63t39.5 160q0 84 -40 141.5t-119 57.5q-77 0 -112.5 -59t-35.5 -143q0 -38 6.5 -73.5t21 -70
t43 -55.5t68.5 -21z" />
    <glyph glyph-name="e" unicode="e" 
d="M288 -15q-75 0 -127 40t-73 97.5t-21 126.5q0 115 56 191.5t164 76.5q225 0 225 -275v-5h-381q2 -88 40.5 -142.5t123.5 -54.5q55 0 96 31t50 79h62q-16 -80 -71 -122.5t-144 -42.5zM133 288h315q0 81 -40.5 127.5t-119.5 46.5q-74 0 -114.5 -50.5t-40.5 -123.5z" />
    <glyph glyph-name="f" unicode="f" horiz-adv-x="353" 
d="M135 0v447h-99v55h99v94q0 64 25.5 101t93.5 37q28 0 56 -12v-46q-29 10 -53 10q-63 0 -63 -83v-101h112v-55h-112v-447h-59z" />
    <glyph glyph-name="g" unicode="g" 
d="M279 -192q-85 0 -140 38t-55 97h64q5 -37 40.5 -60t90.5 -23q65 0 111 40.5t46 101.5v94h-2q-21 -44 -65.5 -69t-94.5 -25q-105 0 -158.5 71t-53.5 182q0 72 20.5 129t69 95t120.5 38q51 0 95 -26.5t67 -64.5l2 2v74h59v-502q0 -83 -61 -137.5t-155 -54.5zM280 57
q54 0 90.5 31.5t51 76t14.5 97.5q0 78 -42 139t-116 61q-50 0 -86 -32t-51 -76t-15 -94q0 -79 40 -141t114 -62z" />
    <glyph glyph-name="h" unicode="h" horiz-adv-x="580" 
d="M99 0v722h59v-296h2q23 43 64 67t90 24q87 0 130 -55.5t43 -147.5v-314h-59v324q0 64 -33.5 101t-95.5 37q-68 0 -104.5 -50.5t-36.5 -122.5v-289h-59z" />
    <glyph glyph-name="i" unicode="i" horiz-adv-x="250" 
d="M82 637v86h78v-86h-78zM97 0v502h58v-502h-58z" />
    <glyph glyph-name="j" unicode="j" horiz-adv-x="244" 
d="M82 637v86h78v-86h-78zM47 -192h-2h-35v54h32q32 0 41 18t9 54l-1 568h59v-568q0 -60 -21.5 -93t-81.5 -33z" />
    <glyph glyph-name="k" unicode="k" horiz-adv-x="507" 
d="M105 0v722h59v-445l234 225h80l-252 -237l271 -265h-78l-255 252v-252h-59z" />
    <glyph glyph-name="l" unicode="l" horiz-adv-x="250" 
d="M97 0v722h58v-722h-58z" />
    <glyph glyph-name="m" unicode="m" horiz-adv-x="910" 
d="M101 0v502h59v-74l2 -2q21 45 61.5 68t92.5 23q56 0 99 -28.5t61 -81.5q18 52 64.5 81t104.5 29q89 0 131.5 -55.5t42.5 -147.5v-314h-59v324q0 64 -33.5 101t-95.5 37q-69 0 -105 -50t-36 -123v-289h-59v324q0 64 -33.5 101t-96.5 37q-69 0 -105 -50.5t-36 -122.5v-289
h-59z" />
    <glyph glyph-name="n" unicode="n" 
d="M99 0v502h59v-74l2 -2q46 91 154 91q85 0 129 -57t44 -146v-314h-59v324q0 62 -34.5 100t-94.5 38q-67 0 -104 -51t-37 -122v-289h-59z" />
    <glyph glyph-name="o" unicode="o" horiz-adv-x="576" 
d="M291 -15q-105 0 -167 78.5t-62 187.5t62 187.5t167 78.5q104 0 166.5 -78.5t62.5 -187.5t-62.5 -187.5t-166.5 -78.5zM291 40q76 0 121 65t45 146t-45 146t-121 65t-121 -65t-45 -146t45 -146t121 -65z" />
    <glyph glyph-name="p" unicode="p" 
d="M88 -192v694h59v-76h2q50 91 157 91q100 0 156.5 -78t56.5 -184q0 -105 -57 -187.5t-156 -82.5q-53 0 -89.5 22.5t-67.5 70.5h-2v-270h-59zM306 40q74 0 112.5 66t38.5 147q0 80 -38.5 144.5t-112.5 64.5q-78 0 -120.5 -63.5t-42.5 -147.5t42.5 -147.5t120.5 -63.5z" />
    <glyph glyph-name="q" unicode="q" 
d="M436 -191v269h-2q-63 -93 -165 -93q-95 0 -150.5 80.5t-55.5 189.5q0 106 55 184t151 78q51 0 95.5 -23.5t69.5 -65.5h2v74h59v-693h-59zM269 40q78 0 123.5 63t45.5 149q0 85 -45.5 147.5t-123.5 62.5q-69 0 -106 -63.5t-37 -151.5q0 -81 40.5 -144t102.5 -63z" />
    <glyph glyph-name="r" unicode="r" horiz-adv-x="348" 
d="M97 0v502h59v-74h2q11 37 40.5 63t66.5 26q38 0 63 -16v-53h-3q-23 14 -50 14q-56 0 -87.5 -50t-31.5 -110v-302h-59z" />
    <glyph glyph-name="s" unicode="s" horiz-adv-x="507" 
d="M257 -15q-90 0 -144.5 39.5t-54.5 125.5h60q0 -65 41 -89.5t113 -24.5q50 0 84 25t34 75q0 39 -32 61.5t-78 32.5t-91.5 22t-77.5 42.5t-32 82.5q0 69 53.5 104.5t125.5 35.5q79 0 128 -32.5t57 -100.5h-58q-15 82 -126 82q-47 0 -81.5 -20.5t-34.5 -64.5q0 -34 32 -53.5
t77.5 -30t91.5 -24t78 -45.5t32 -83q0 -85 -55 -122.5t-142 -37.5z" />
    <glyph glyph-name="t" unicode="t" horiz-adv-x="343" 
d="M135 0v447h-98v55h98v133h59v-133h112v-55h-112v-447h-59z" />
    <glyph glyph-name="u" unicode="u" horiz-adv-x="571" 
d="M263 -15q-84 0 -128.5 57.5t-44.5 145.5v314h59v-324q0 -62 34.5 -100t94.5 -38q66 0 103.5 51.5t37.5 121.5v289h59v-502h-59v74l-2 2q-22 -42 -64 -66.5t-90 -24.5z" />
    <glyph glyph-name="v" unicode="v" horiz-adv-x="517" 
d="M231 0l-201 502h64l170 -419l164 419h64l-195 -502h-66z" />
    <glyph glyph-name="w" unicode="w" horiz-adv-x="847" 
d="M216 0l-181 502h65l147 -423h2l149 423h70l145 -419h2l142 419h64l-183 -502h-56l-151 433h-2l-154 -433h-59z" />
    <glyph glyph-name="x" unicode="x" horiz-adv-x="517" 
d="M33 0q31 36 62.5 78l69.5 97l58 82l-181 245h78l144 -202l148 202h62l-176 -243l192 -259h-78l-158 218l-154 -218h-67z" />
    <glyph glyph-name="y" unicode="y" horiz-adv-x="517" 
d="M153 -192l74 192l-204 502h72l166 -420l164 420h64l-271 -694h-65z" />
    <glyph glyph-name="z" unicode="z" horiz-adv-x="465" 
d="M56 0v55l287 392h-287v55h357v-55l-285 -392h285v-55h-357z" />
    <glyph glyph-name="braceleft" unicode="{" horiz-adv-x="279" 
d="M199 -96q-37 0 -61.5 35t-24.5 74v143q0 22 -0.5 35t-4.5 31.5t-11 29.5t-20.5 20t-33.5 12v55q24 3 39.5 15t21.5 33t7.5 37.5t1.5 44.5v144q0 34 17 62t47 41q15 6 22 6h49v-50h-21h-11q-8 0 -14 -6q-25 -15 -25 -69v-143q0 -75 -44 -123q-6 -7 -20 -19
q31 -20 47.5 -60t16.5 -81v-142q0 -54 25 -69q6 -6 14 -6h11h21v-50h-49z" />
    <glyph glyph-name="bar" unicode="|" horiz-adv-x="230" 
d="M87 -250v1000h58v-1000h-58z" />
    <glyph glyph-name="braceright" unicode="}" horiz-adv-x="279" 
d="M34 -96v50h22h10q6 0 15 6q25 16 25 69v143q0 74 43 123l20 19q-31 20 -47 60t-16 81v142q0 53 -25 69q-9 6 -15 6h-10h-22v50h49q8 0 23 -6q63 -28 63 -103v-143q0 -27 1.5 -43.5t8 -37.5t21.5 -33t40 -15v-55q-25 -3 -40 -15t-21.5 -33t-8 -37.5t-1.5 -43.5v-144
q0 -39 -24.5 -74t-61.5 -35h-49z" />
    <glyph glyph-name="asciitilde" unicode="~" horiz-adv-x="663" 
d="M122 169l-32 47q21 31 34.5 48t42.5 36t61 19q43 0 115 -36q74 -36 101 -36q54 0 97 87l39 -34q-58 -109 -137 -109q-30 0 -132 42q-8 3 -25.5 12t-31 14t-26.5 5q-8 0 -15.5 -2t-13.5 -4t-12.5 -7.5t-11 -8.5t-11 -11l-9.5 -11.5t-9.5 -13t-8 -12.5t-8 -13.5t-7.5 -11.5
z" />
    <glyph glyph-name="uni00A0" unicode="&#xa0;" horiz-adv-x="280" 
 />
    <glyph glyph-name="exclamdown" unicode="&#xa1;" horiz-adv-x="404" 
d="M165 456v86h79v-86h-79zM164 -180l13 551h55l13 -551h-81z" />
    <glyph glyph-name="cent" unicode="&#xa2;" horiz-adv-x="520" 
d="M284 40q48 5 83.5 38.5t39.5 81.5h64q-10 -79 -60.5 -126t-126.5 -49v-70h-38v73q-86 14 -134.5 90t-48.5 173q0 59 21 115t63.5 97t98.5 51v82h38v-79q75 -2 129 -48.5t58 -121.5h-64q-4 54 -38 83t-85 32v-422zM127 252q0 -44 11.5 -86t39.5 -78t68 -45v416
q-58 -13 -88.5 -75t-30.5 -132z" />
    <glyph glyph-name="sterling" unicode="&#xa3;" horiz-adv-x="555" 
d="M68 0v60h16q42 0 42 42v280h-72v50h73q-1 4 -1 66q0 96 55.5 152.5t150.5 56.5q82 0 131.5 -39t51.5 -104h-68q-2 38 -35.5 60.5t-87.5 22.5q-61 0 -97.5 -39t-36.5 -104v-72h159v-50h-159v-322h314v-60h-436z" />
    <glyph glyph-name="currency" unicode="&#xa4;" horiz-adv-x="554" 
d="M275 50q-73 0 -149 55l-44 -43l-39 40l43 43q-52 76 -52 155q0 85 52 158l-43 44l39 40l44 -43q69 54 158 54q72 0 150 -54l44 43l39 -40l-43 -44q52 -75 52 -163q0 -72 -52 -151l43 -42l-39 -40l-44 43q-74 -55 -159 -55zM278 102q81 0 139 58.5t58 142.5
q0 78 -56.5 138t-134.5 60q-83 0 -141 -58t-58 -143q0 -80 57.5 -139t135.5 -59z" />
    <glyph glyph-name="yen" unicode="&#xa5;" horiz-adv-x="551" 
d="M245 0v146h-199v50h199v70h-199v50h197l-239 376h81l197 -319l196 319h69l-237 -376h195v-50h-196v-70h196v-50h-196v-146h-64z" />
    <glyph glyph-name="brokenbar" unicode="&#xa6;" horiz-adv-x="230" 
d="M87 325v350h58v-350h-58zM87 -175v350h58v-350h-58z" />
    <glyph glyph-name="section" unicode="&#xa7;" horiz-adv-x="564" 
d="M433 231q41 -34 41 -95q0 -73 -53.5 -110t-125.5 -37q-79 0 -128 34t-57 106h58q15 -86 126 -86q47 0 81.5 21.5t34.5 67.5q0 35 -32 56t-77.5 32t-91.5 25t-78 47.5t-32 87.5q0 74 41 115q-41 34 -41 95q0 73 53.5 110t125.5 37q79 0 128 -34t57 -106h-58
q-15 86 -126 86q-47 0 -81.5 -21.5t-34.5 -67.5q0 -35 32 -56t77.5 -32t91.5 -25t78 -47.5t32 -87.5q0 -74 -41 -115zM163 389q0 -34 22.5 -56t49.5 -30.5t74 -20.5t71 -21q30 28 30 76q0 34 -22.5 56t-49.5 30.5t-74 20.5t-71 21q-30 -28 -30 -76z" />
    <glyph glyph-name="copyright" unicode="&#xa9;" horiz-adv-x="795" 
d="M402 -17q-153 0 -262 112t-109 268q0 155 109.5 266.5t261.5 111.5q154 0 262 -110.5t108 -267.5t-108.5 -268.5t-261.5 -111.5zM402 23q138 0 234 99.5t96 240.5q0 139 -97 238t-233 99t-234 -99t-98 -238q0 -140 97.5 -240t234.5 -100zM406 140q-92 0 -137.5 64
t-45.5 161q0 96 46.5 160.5t136.5 64.5q56 0 96 -28t46 -83h-42q-5 37 -33.5 56t-66.5 19q-74 0 -107.5 -54.5t-33.5 -134.5t33.5 -134.5t107.5 -54.5q38 0 67.5 20t36.5 57h42q-9 -52 -51 -82.5t-95 -30.5z" />
    <glyph glyph-name="ordfeminine" unicode="&#xaa;" horiz-adv-x="374" 
d="M153 412q-43 0 -72 25.5t-29 69.5q0 93 134 93h64v42q0 24 -18.5 43.5t-53.5 19.5q-40 0 -58.5 -18.5t-17.5 -52.5h-39q0 48 30.5 76t84.5 28q45 0 76 -25t31 -76v-216h-35v45h-1q-11 -26 -38.5 -40t-57.5 -14zM153 446q36 0 66.5 20.5t30.5 55.5v49h-53q-106 0 -106 -64
q0 -28 17 -44.5t45 -16.5z" />
    <glyph glyph-name="guillemotleft" unicode="&#xab;" horiz-adv-x="564" 
d="M216 72l-104 195l104 195h50l-92 -195l91 -195h-49zM392 72l-104 195l104 195h50l-91 -195l90 -195h-49z" />
    <glyph glyph-name="uni00AD" unicode="&#xad;" horiz-adv-x="277" 
d="M16 237v60h247v-60h-247z" />
    <glyph glyph-name="registered" unicode="&#xae;" horiz-adv-x="398" 
d="M201 362q-76 0 -130.5 55.5t-54.5 134.5t55 134t130 55q76 0 130.5 -55.5t54.5 -133.5q0 -79 -54.5 -134.5t-130.5 -55.5zM201 382q68 0 116 50t48 120q0 69 -47.5 119t-116.5 50q-68 0 -117 -50t-49 -119q0 -71 49 -120.5t117 -49.5zM138 435v235h62q43 0 67 -13t24 -53
q0 -48 -47 -61l59 -108h-23l-55 102h-66v-102h-21zM159 557h51q58 0 58 47q0 28 -14.5 37.5t-43.5 9.5h-51v-94z" />
    <glyph glyph-name="degree" unicode="&#xb0;" horiz-adv-x="402" 
d="M203 407q-61 0 -104 44t-43 106t43 106t104 44t104 -44t43 -106t-43 -106t-104 -44zM203 452q44 0 73.5 29.5t29.5 75.5q0 45 -29.5 75t-74.5 30t-73.5 -30t-28.5 -75q0 -46 29 -75.5t74 -29.5z" />
    <glyph glyph-name="uni00B5" unicode="&#xb5;" horiz-adv-x="560" 
d="M89 -192v694h59v-324q0 -66 34 -102t95 -36q69 0 105 50t36 123v289h59v-502h-59v74l-2 2q-49 -91 -154 -91q-51 0 -114 25v-202h-59z" />
    <glyph glyph-name="paragraph" unicode="&#xb6;" horiz-adv-x="655" 
d="M263 -146v482q-75 0 -131.5 56t-56.5 134q0 95 57 145.5t161 50.5h213v-868h-64v808h-116v-808h-63z" />
    <glyph glyph-name="periodcentered" unicode="&#xb7;" horiz-adv-x="287" 
d="M106 208v86h78v-86h-78z" />
    <glyph glyph-name="ordmasculine" unicode="&#xba;" horiz-adv-x="361" 
d="M183 410q-65 0 -103 48t-38 115t38 115t103 48q64 0 102 -48t38 -115t-38 -115t-102 -48zM183 444q46 0 74 40t28 89t-28 89.5t-74 40.5q-47 0 -74.5 -40t-27.5 -90t27.5 -89.5t74.5 -39.5z" />
    <glyph glyph-name="guillemotright" unicode="&#xbb;" horiz-adv-x="564" 
d="M128 72l91 195l-90 195h49l103 -195l-103 -195h-50zM304 72l91 195l-90 195h49l104 -195l-104 -195h-50z" />
    <glyph glyph-name="questiondown" unicode="&#xbf;" horiz-adv-x="501" 
d="M259 456v86h79v-86h-79zM278 -195q-86 0 -141 45.5t-55 133.5q0 41 19.5 73t47 54l54.5 42.5t46.5 47.5t19.5 60v112h59v-148q0 -35 -28.5 -67.5t-63 -54.5t-63 -53.5t-28.5 -65.5q0 -63 38 -91t99 -28q36 0 63 10t39.5 24.5t20 29t9.5 24.5l1 10h67q0 -6 -1.5 -17
t-13.5 -38t-31.5 -48t-61 -38t-96.5 -17z" />
    <glyph glyph-name="Agrave" unicode="&#xc0;" horiz-adv-x="682" 
d="M319 784l-124 143h78l90 -143h-44zM26 0l281 722h74l282 -722h-69l-76 195h-351l-75 -195h-66zM187 255h309l-153 407z" />
    <glyph glyph-name="Aacute" unicode="&#xc1;" horiz-adv-x="682" 
d="M319 784l89 143h79l-125 -143h-43zM26 0l281 722h74l282 -722h-69l-76 195h-351l-75 -195h-66zM187 255h309l-153 407z" />
    <glyph glyph-name="Acircumflex" unicode="&#xc2;" horiz-adv-x="682" 
d="M207 782l98 145h72l97 -145h-46l-88 106l-88 -106h-45zM26 0l281 722h74l282 -722h-69l-76 195h-351l-75 -195h-66zM187 255h309l-153 407z" />
    <glyph glyph-name="Atilde" unicode="&#xc3;" horiz-adv-x="682" 
d="M206 792q18 81 88 81q22 0 54 -10.5t41 -10.5q36 0 49 33h38q-9 -37 -32 -61t-58 -24q-16 0 -45 10.5t-52 10.5q-39 0 -46 -29h-37zM26 0l281 722h74l282 -722h-69l-76 195h-351l-75 -195h-66zM187 255h309l-153 407z" />
    <glyph glyph-name="Adieresis" unicode="&#xc4;" horiz-adv-x="682" 
d="M219 802v88h72v-88h-72zM389 802v88h73v-88h-73zM26 0l281 722h74l282 -722h-69l-76 195h-351l-75 -195h-66zM187 255h309l-153 407z" />
    <glyph glyph-name="Aring" unicode="&#xc5;" horiz-adv-x="682" 
d="M388 703l275 -703h-69l-76 195h-351l-75 -195h-66l272 699q-48 25 -48 82q0 38 26.5 65.5t63.5 27.5t64 -27.5t27 -65.5q0 -50 -43 -78zM340 837q-23 0 -39 -16.5t-16 -39.5t16 -39.5t39 -16.5t39 16.5t16 39.5t-16 39.5t-39 16.5zM187 255h309l-153 407z" />
    <glyph glyph-name="AE" unicode="&#xc6;" horiz-adv-x="877" 
d="M428 60h371v-60h-435v195h-197l-75 -195h-66l281 722h74h403v-60h-356v-259h343v-60h-343v-283zM187 255h177v407h-21z" />
    <glyph glyph-name="Ccedilla" unicode="&#xc7;" horiz-adv-x="687" 
d="M385 45q63 0 111 31.5t56 92.5h69q-7 -86 -71.5 -133.5t-153.5 -50.5l-9 -35q99 0 99 -63q0 -70 -98 -70q-29 0 -104 22l7 28q70 -24 96 -24q44 0 44 41q0 36 -48 36q-10 0 -32 -2l22 67q-98 3 -166 58t-97 136.5t-29 181.5q0 75 18 141t54 119.5t95.5 84.5t136.5 31
q92 0 160.5 -47.5t75.5 -136.5h-69q-8 61 -56 92.5t-111 31.5q-51 0 -91.5 -18t-67 -48.5t-44.5 -72t-25.5 -85.5t-7.5 -92t7.5 -92t25.5 -85.5t44.5 -72t67 -48.5t91.5 -18z" />
    <glyph glyph-name="Egrave" unicode="&#xc8;" horiz-adv-x="636" 
d="M296 784l-124 143h78l90 -143h-44zM123 0v722h420v-60h-356v-259h343v-60h-343v-283h371v-60h-435z" />
    <glyph glyph-name="Eacute" unicode="&#xc9;" horiz-adv-x="636" 
d="M296 784l89 143h79l-125 -143h-43zM123 0v722h420v-60h-356v-259h343v-60h-343v-283h371v-60h-435z" />
    <glyph glyph-name="Ecircumflex" unicode="&#xca;" horiz-adv-x="636" 
d="M184 782l98 145h72l97 -145h-46l-88 106l-88 -106h-45zM123 0v722h420v-60h-356v-259h343v-60h-343v-283h371v-60h-435z" />
    <glyph glyph-name="Edieresis" unicode="&#xcb;" horiz-adv-x="636" 
d="M219 802v88h72v-88h-72zM389 802v88h73v-88h-73zM123 0v722h420v-60h-356v-259h343v-60h-343v-283h371v-60h-435z" />
    <glyph glyph-name="Igrave" unicode="&#xcc;" horiz-adv-x="308" 
d="M132 784l-124 143h78l90 -143h-44zM124 0v722h64v-722h-64z" />
    <glyph glyph-name="Iacute" unicode="&#xcd;" horiz-adv-x="308" 
d="M132 784l89 143h79l-125 -143h-43zM124 0v722h64v-722h-64z" />
    <glyph glyph-name="Icircumflex" unicode="&#xce;" horiz-adv-x="308" 
d="M20 782l98 145h72l97 -145h-46l-88 106l-88 -106h-45zM124 0v722h64v-722h-64z" />
    <glyph glyph-name="Idieresis" unicode="&#xcf;" horiz-adv-x="308" 
d="M33 802v88h72v-88h-72zM203 802v88h73v-88h-73zM124 0v722h64v-722h-64z" />
    <glyph glyph-name="Eth" unicode="&#xd0;" horiz-adv-x="740" 
d="M108 0v375h-67v45h67v302h191q177 0 270.5 -91t93.5 -270t-93.5 -270t-270.5 -91h-191zM171 60h143q144 0 212.5 79.5t68.5 221.5q0 301 -324 301h-100v-242h212v-45h-212v-315z" />
    <glyph glyph-name="Ntilde" unicode="&#xd1;" horiz-adv-x="746" 
d="M238 792q18 81 88 81q22 0 54 -10.5t41 -10.5q36 0 49 33h38q-9 -37 -32 -61t-58 -24q-16 0 -45 10.5t-52 10.5q-39 0 -46 -29h-37zM113 0v722h73l390 -635h2v635h63v-722h-80l-382 624h-2v-624h-64z" />
    <glyph glyph-name="Ograve" unicode="&#xd2;" horiz-adv-x="799" 
d="M378 784l-124 143h78l90 -143h-44zM403 -15q-104 0 -177 52.5t-105.5 135.5t-32.5 188t32.5 188t105.5 135.5t177 52.5q155 0 235.5 -106.5t80.5 -269.5t-80.5 -269.5t-235.5 -106.5zM403 45q83 0 141 47.5t82 116.5t24 152t-24 152t-82 116.5t-141 47.5
q-63 0 -111.5 -27t-77.5 -72.5t-43.5 -100.5t-14.5 -116t14.5 -116t43.5 -100.5t77.5 -72.5t111.5 -27z" />
    <glyph glyph-name="Oacute" unicode="&#xd3;" horiz-adv-x="799" 
d="M378 784l89 143h79l-125 -143h-43zM403 -15q-104 0 -177 52.5t-105.5 135.5t-32.5 188t32.5 188t105.5 135.5t177 52.5q155 0 235.5 -106.5t80.5 -269.5t-80.5 -269.5t-235.5 -106.5zM403 45q83 0 141 47.5t82 116.5t24 152t-24 152t-82 116.5t-141 47.5
q-63 0 -111.5 -27t-77.5 -72.5t-43.5 -100.5t-14.5 -116t14.5 -116t43.5 -100.5t77.5 -72.5t111.5 -27z" />
    <glyph glyph-name="Ocircumflex" unicode="&#xd4;" horiz-adv-x="799" 
d="M266 782l98 145h72l97 -145h-46l-88 106l-88 -106h-45zM403 -15q-104 0 -177 52.5t-105.5 135.5t-32.5 188t32.5 188t105.5 135.5t177 52.5q155 0 235.5 -106.5t80.5 -269.5t-80.5 -269.5t-235.5 -106.5zM403 45q83 0 141 47.5t82 116.5t24 152t-24 152t-82 116.5
t-141 47.5q-63 0 -111.5 -27t-77.5 -72.5t-43.5 -100.5t-14.5 -116t14.5 -116t43.5 -100.5t77.5 -72.5t111.5 -27z" />
    <glyph glyph-name="Otilde" unicode="&#xd5;" horiz-adv-x="799" 
d="M265 792q18 81 88 81q22 0 54 -10.5t41 -10.5q36 0 49 33h38q-9 -37 -32 -61t-58 -24q-16 0 -45 10.5t-52 10.5q-39 0 -46 -29h-37zM403 -15q-104 0 -177 52.5t-105.5 135.5t-32.5 188t32.5 188t105.5 135.5t177 52.5q155 0 235.5 -106.5t80.5 -269.5t-80.5 -269.5
t-235.5 -106.5zM403 45q83 0 141 47.5t82 116.5t24 152t-24 152t-82 116.5t-141 47.5q-63 0 -111.5 -27t-77.5 -72.5t-43.5 -100.5t-14.5 -116t14.5 -116t43.5 -100.5t77.5 -72.5t111.5 -27z" />
    <glyph glyph-name="Odieresis" unicode="&#xd6;" horiz-adv-x="799" 
d="M282 802v88h72v-88h-72zM452 802v88h73v-88h-73zM403 -15q-104 0 -177 52.5t-105.5 135.5t-32.5 188t32.5 188t105.5 135.5t177 52.5q155 0 235.5 -106.5t80.5 -269.5t-80.5 -269.5t-235.5 -106.5zM403 45q83 0 141 47.5t82 116.5t24 152t-24 152t-82 116.5t-141 47.5
q-63 0 -111.5 -27t-77.5 -72.5t-43.5 -100.5t-14.5 -116t14.5 -116t43.5 -100.5t77.5 -72.5t111.5 -27z" />
    <glyph glyph-name="multiply" unicode="&#xd7;" horiz-adv-x="661" 
d="M101 0l-33 34l233 235l-233 237l33 33l234 -236l232 236l33 -33l-232 -237l232 -235l-33 -34l-232 236z" />
    <glyph glyph-name="Oslash" unicode="&#xd8;" horiz-adv-x="797" 
d="M103 -15l-29 27l83 94q-70 97 -70 255q0 172 83 274t233 102q139 0 223 -92l80 92l27 -25l-83 -97q68 -96 68 -254q0 -172 -82.5 -274t-232.5 -102q-139 0 -222 91zM204 160l377 433q-65 84 -178 84q-64 0 -113 -27t-77.5 -72.5t-42.5 -100t-14 -116.5q0 -124 48 -201z
M403 45q84 0 141.5 47t81.5 116t24 153q0 116 -47 200l-377 -434q63 -82 177 -82z" />
    <glyph glyph-name="Ugrave" unicode="&#xd9;" horiz-adv-x="747" 
d="M352 784l-124 143h78l90 -143h-44zM377 -15q-121 0 -190 73t-69 196v468h64v-467q0 -94 52 -152t143 -58t143 58t52 152v467h64v-468q0 -123 -69 -196t-190 -73z" />
    <glyph glyph-name="Uacute" unicode="&#xda;" horiz-adv-x="747" 
d="M352 784l89 143h79l-125 -143h-43zM377 -15q-121 0 -190 73t-69 196v468h64v-467q0 -94 52 -152t143 -58t143 58t52 152v467h64v-468q0 -123 -69 -196t-190 -73z" />
    <glyph glyph-name="Ucircumflex" unicode="&#xdb;" horiz-adv-x="747" 
d="M240 782l98 145h72l97 -145h-46l-88 106l-88 -106h-45zM377 -15q-121 0 -190 73t-69 196v468h64v-467q0 -94 52 -152t143 -58t143 58t52 152v467h64v-468q0 -123 -69 -196t-190 -73z" />
    <glyph glyph-name="Udieresis" unicode="&#xdc;" horiz-adv-x="747" 
d="M256 802v88h72v-88h-72zM426 802v88h73v-88h-73zM377 -15q-121 0 -190 73t-69 196v468h64v-467q0 -94 52 -152t143 -58t143 58t52 152v467h64v-468q0 -123 -69 -196t-190 -73z" />
    <glyph glyph-name="Yacute" unicode="&#xdd;" horiz-adv-x="626" 
d="M291 784l89 143h79l-125 -143h-43zM285 0v312l-260 410h81l217 -349l216 349h69l-259 -408v-314h-64z" />
    <glyph glyph-name="Thorn" unicode="&#xde;" horiz-adv-x="634" 
d="M121 0v722h64v-155h140q43 0 78 -4.5t70.5 -18t60 -35.5t39.5 -59t15 -87t-15 -87t-39.5 -59t-60 -35.5t-70.5 -18t-78 -4.5h-140v-159h-64zM185 219h155q179 0 179 144t-179 144h-155v-288z" />
    <glyph glyph-name="germandbls" unicode="&#xdf;" horiz-adv-x="633" 
d="M107 0v509q0 106 50.5 167t150.5 61q73 0 125 -41.5t52 -113.5q0 -40 -18 -69.5t-40 -43.5t-40 -30t-18 -32l212 -198q0 -106 -40.5 -157.5t-112.5 -51.5h-182v55h164q55 0 81 27.5t26 108.5l-212 204q0 29 12 48t29 29.5l34 22t29 33.5t12 56q0 47 -36 72.5t-84 25.5
q-49 0 -81 -31.5t-43 -72.5t-11 -90v-488h-59z" />
    <glyph glyph-name="agrave" unicode="&#xe0;" horiz-adv-x="521" 
d="M239 564l-124 143h78l90 -143h-44zM216 -15q-70 0 -117 42t-47 113q0 152 219 152h103v68q0 40 -29.5 71t-87.5 31q-65 0 -95 -29.5t-29 -85.5h-63q0 78 50 124t138 46q73 0 123.5 -41.5t50.5 -124.5v-351h-57v74h-2q-18 -43 -63 -66t-94 -23zM216 40q59 0 108.5 34
t49.5 91v79h-85q-29 0 -56 -4t-55 -14.5t-45 -32.5t-17 -53q0 -46 27.5 -73t72.5 -27z" />
    <glyph glyph-name="aacute" unicode="&#xe1;" horiz-adv-x="521" 
d="M239 564l89 143h79l-125 -143h-43zM216 -15q-70 0 -117 42t-47 113q0 152 219 152h103v68q0 40 -29.5 71t-87.5 31q-65 0 -95 -29.5t-29 -85.5h-63q0 78 50 124t138 46q73 0 123.5 -41.5t50.5 -124.5v-351h-57v74h-2q-18 -43 -63 -66t-94 -23zM216 40q59 0 108.5 34
t49.5 91v79h-85q-29 0 -56 -4t-55 -14.5t-45 -32.5t-17 -53q0 -46 27.5 -73t72.5 -27z" />
    <glyph glyph-name="acircumflex" unicode="&#xe2;" horiz-adv-x="521" 
d="M127 562l98 145h72l97 -145h-46l-88 106l-88 -106h-45zM216 -15q-70 0 -117 42t-47 113q0 152 219 152h103v68q0 40 -29.5 71t-87.5 31q-65 0 -95 -29.5t-29 -85.5h-63q0 78 50 124t138 46q73 0 123.5 -41.5t50.5 -124.5v-351h-57v74h-2q-18 -43 -63 -66t-94 -23zM216 40
q59 0 108.5 34t49.5 91v79h-85q-29 0 -56 -4t-55 -14.5t-45 -32.5t-17 -53q0 -46 27.5 -73t72.5 -27z" />
    <glyph glyph-name="atilde" unicode="&#xe3;" horiz-adv-x="521" 
d="M126 572q18 81 88 81q22 0 54 -10.5t41 -10.5q36 0 49 33h38q-9 -37 -32 -61t-58 -24q-16 0 -45 10.5t-52 10.5q-39 0 -46 -29h-37zM216 -15q-70 0 -117 42t-47 113q0 152 219 152h103v68q0 40 -29.5 71t-87.5 31q-65 0 -95 -29.5t-29 -85.5h-63q0 78 50 124t138 46
q73 0 123.5 -41.5t50.5 -124.5v-351h-57v74h-2q-18 -43 -63 -66t-94 -23zM216 40q59 0 108.5 34t49.5 91v79h-85q-29 0 -56 -4t-55 -14.5t-45 -32.5t-17 -53q0 -46 27.5 -73t72.5 -27z" />
    <glyph glyph-name="adieresis" unicode="&#xe4;" horiz-adv-x="521" 
d="M139 619v88h72v-88h-72zM309 619v88h73v-88h-73zM216 -15q-70 0 -117 42t-47 113q0 152 219 152h103v68q0 40 -29.5 71t-87.5 31q-65 0 -95 -29.5t-29 -85.5h-63q0 78 50 124t138 46q73 0 123.5 -41.5t50.5 -124.5v-351h-57v74h-2q-18 -43 -63 -66t-94 -23zM216 40
q59 0 108.5 34t49.5 91v79h-85q-29 0 -56 -4t-55 -14.5t-45 -32.5t-17 -53q0 -46 27.5 -73t72.5 -27z" />
    <glyph glyph-name="aring" unicode="&#xe5;" horiz-adv-x="521" 
d="M260 552q-38 0 -64 26.5t-26 65.5q0 38 26.5 65.5t63.5 27.5t64 -27.5t27 -65.5t-27 -65t-64 -27zM260 588q23 0 39 16.5t16 39.5t-16 39.5t-39 16.5t-39 -16.5t-16 -39.5t16 -39.5t39 -16.5zM216 -15q-70 0 -117 42t-47 113q0 152 219 152h103v68q0 40 -29.5 71
t-87.5 31q-65 0 -95 -29.5t-29 -85.5h-63q0 78 50 124t138 46q73 0 123.5 -41.5t50.5 -124.5v-351h-57v74h-2q-18 -43 -63 -66t-94 -23zM216 40q59 0 108.5 34t49.5 91v79h-85q-29 0 -56 -4t-55 -14.5t-45 -32.5t-17 -53q0 -46 27.5 -73t72.5 -27z" />
    <glyph glyph-name="ae" unicode="&#xe6;" horiz-adv-x="850" 
d="M220 -15q-70 0 -117 42t-47 113q0 152 219 152h102q0 33 -0.5 49t-4 40t-11.5 35.5t-21.5 24t-35.5 17t-52 4.5q-53 0 -84.5 -30.5t-31.5 -84.5h-62q0 76 51.5 123t127.5 47q134 0 171 -92q23 45 62.5 68.5t82.5 23.5q109 0 161.5 -76t52.5 -197h-343v-12
q0 -82 32.5 -137t100.5 -55q52 0 91.5 33.5t51.5 86.5h61q-43 -175 -203 -175q-121 12 -163 119q-30 -61 -76 -90t-115 -29zM440 299h279q0 72 -35 117.5t-108 45.5q-61 0 -98.5 -48.5t-37.5 -108.5v-6zM220 40q65 0 111 32t46 84v88h-84q-23 0 -44 -2.5t-54.5 -11t-54 -32
t-20.5 -58.5q0 -47 28 -73.5t72 -26.5z" />
    <glyph glyph-name="ccedilla" unicode="&#xe7;" horiz-adv-x="520" 
d="M273 40q51 0 90.5 34.5t43.5 85.5h64q-10 -80 -62 -127.5t-130 -47.5h-8l-9 -35q99 0 99 -63q0 -70 -98 -70q-29 0 -104 22l7 28q70 -24 96 -24q44 0 44 41q0 36 -48 36q-10 0 -32 -2l22 69q-87 13 -136 90t-49 174q0 103 59 184.5t157 81.5q77 0 132.5 -46.5
t59.5 -123.5h-64q-4 57 -42 86t-92 29q-49 0 -83.5 -35t-48.5 -81t-14 -94q0 -49 14 -95t48.5 -81.5t83.5 -35.5z" />
    <glyph glyph-name="egrave" unicode="&#xe8;" 
d="M267 564l-124 143h78l90 -143h-44zM288 -15q-75 0 -127 40t-73 97.5t-21 126.5q0 115 56 191.5t164 76.5q225 0 225 -275v-5h-381q2 -88 40.5 -142.5t123.5 -54.5q55 0 96 31t50 79h62q-16 -80 -71 -122.5t-144 -42.5zM133 288h315q0 81 -40.5 127.5t-119.5 46.5
q-74 0 -114.5 -50.5t-40.5 -123.5z" />
    <glyph glyph-name="eacute" unicode="&#xe9;" 
d="M267 564l89 143h79l-125 -143h-43zM288 -15q-75 0 -127 40t-73 97.5t-21 126.5q0 115 56 191.5t164 76.5q225 0 225 -275v-5h-381q2 -88 40.5 -142.5t123.5 -54.5q55 0 96 31t50 79h62q-16 -80 -71 -122.5t-144 -42.5zM133 288h315q0 81 -40.5 127.5t-119.5 46.5
q-74 0 -114.5 -50.5t-40.5 -123.5z" />
    <glyph glyph-name="ecircumflex" unicode="&#xea;" 
d="M155 562l98 145h72l97 -145h-46l-88 106l-88 -106h-45zM288 -15q-75 0 -127 40t-73 97.5t-21 126.5q0 115 56 191.5t164 76.5q225 0 225 -275v-5h-381q2 -88 40.5 -142.5t123.5 -54.5q55 0 96 31t50 79h62q-16 -80 -71 -122.5t-144 -42.5zM133 288h315q0 81 -40.5 127.5
t-119.5 46.5q-74 0 -114.5 -50.5t-40.5 -123.5z" />
    <glyph glyph-name="edieresis" unicode="&#xeb;" 
d="M167 619v88h72v-88h-72zM337 619v88h73v-88h-73zM288 -15q-75 0 -127 40t-73 97.5t-21 126.5q0 115 56 191.5t164 76.5q225 0 225 -275v-5h-381q2 -88 40.5 -142.5t123.5 -54.5q55 0 96 31t50 79h62q-16 -80 -71 -122.5t-144 -42.5zM133 288h315q0 81 -40.5 127.5
t-119.5 46.5q-74 0 -114.5 -50.5t-40.5 -123.5z" />
    <glyph glyph-name="igrave" unicode="&#xec;" horiz-adv-x="250" 
d="M103 564l-124 143h78l90 -143h-44zM97 0v502h58v-502h-58z" />
    <glyph glyph-name="iacute" unicode="&#xed;" horiz-adv-x="250" 
d="M103 564l89 143h79l-125 -143h-43zM97 0v502h58v-502h-58z" />
    <glyph glyph-name="icircumflex" unicode="&#xee;" horiz-adv-x="250" 
d="M-9 562l98 145h72l97 -145h-46l-88 106l-88 -106h-45zM97 0v502h58v-502h-58z" />
    <glyph glyph-name="idieresis" unicode="&#xef;" horiz-adv-x="250" 
d="M3 619v88h72v-88h-72zM173 619v88h73v-88h-73zM97 0v502h58v-502h-58z" />
    <glyph glyph-name="eth" unicode="&#xf0;" horiz-adv-x="576" 
d="M291 -15q-110 0 -169.5 75t-59.5 177t58 177.5t163 75.5q39 0 71.5 -13.5t52.5 -35.5t31.5 -41.5t18.5 -38.5l2 2q-6 77 -44 152.5t-113 123.5l-91 -57l-29 29l81 51q-41 21 -93 35l17 40q69 -15 124 -45l92 58l29 -28l-83 -53q171 -118 171 -401q0 -134 -59 -208.5
t-170 -74.5zM291 37q81 0 123.5 61.5t42.5 138.5t-42.5 139t-123.5 62q-82 0 -124 -62t-42 -139q0 -48 16 -91.5t55 -76t95 -32.5z" />
    <glyph glyph-name="ntilde" unicode="&#xf1;" 
d="M155 572q18 81 88 81q22 0 54 -10.5t41 -10.5q36 0 49 33h38q-9 -37 -32 -61t-58 -24q-16 0 -45 10.5t-52 10.5q-39 0 -46 -29h-37zM99 0v502h59v-74l2 -2q46 91 154 91q85 0 129 -57t44 -146v-314h-59v324q0 62 -34.5 100t-94.5 38q-67 0 -104 -51t-37 -122v-289h-59z
" />
    <glyph glyph-name="ograve" unicode="&#xf2;" horiz-adv-x="576" 
d="M266 564l-124 143h78l90 -143h-44zM291 -15q-105 0 -167 78.5t-62 187.5t62 187.5t167 78.5q104 0 166.5 -78.5t62.5 -187.5t-62.5 -187.5t-166.5 -78.5zM291 40q76 0 121 65t45 146t-45 146t-121 65t-121 -65t-45 -146t45 -146t121 -65z" />
    <glyph glyph-name="oacute" unicode="&#xf3;" horiz-adv-x="576" 
d="M266 564l89 143h79l-125 -143h-43zM291 -15q-105 0 -167 78.5t-62 187.5t62 187.5t167 78.5q104 0 166.5 -78.5t62.5 -187.5t-62.5 -187.5t-166.5 -78.5zM291 40q76 0 121 65t45 146t-45 146t-121 65t-121 -65t-45 -146t45 -146t121 -65z" />
    <glyph glyph-name="ocircumflex" unicode="&#xf4;" horiz-adv-x="576" 
d="M154 562l98 145h72l97 -145h-46l-88 106l-88 -106h-45zM291 -15q-105 0 -167 78.5t-62 187.5t62 187.5t167 78.5q104 0 166.5 -78.5t62.5 -187.5t-62.5 -187.5t-166.5 -78.5zM291 40q76 0 121 65t45 146t-45 146t-121 65t-121 -65t-45 -146t45 -146t121 -65z" />
    <glyph glyph-name="otilde" unicode="&#xf5;" horiz-adv-x="576" 
d="M153 572q18 81 88 81q22 0 54 -10.5t41 -10.5q36 0 49 33h38q-9 -37 -32 -61t-58 -24q-16 0 -45 10.5t-52 10.5q-39 0 -46 -29h-37zM291 -15q-105 0 -167 78.5t-62 187.5t62 187.5t167 78.5q104 0 166.5 -78.5t62.5 -187.5t-62.5 -187.5t-166.5 -78.5zM291 40
q76 0 121 65t45 146t-45 146t-121 65t-121 -65t-45 -146t45 -146t121 -65z" />
    <glyph glyph-name="odieresis" unicode="&#xf6;" horiz-adv-x="576" 
d="M166 619v88h72v-88h-72zM336 619v88h73v-88h-73zM291 -15q-105 0 -167 78.5t-62 187.5t62 187.5t167 78.5q104 0 166.5 -78.5t62.5 -187.5t-62.5 -187.5t-166.5 -78.5zM291 40q76 0 121 65t45 146t-45 146t-121 65t-121 -65t-45 -146t45 -146t121 -65z" />
    <glyph glyph-name="divide" unicode="&#xf7;" horiz-adv-x="663" 
d="M299 414v88h73v-88h-73zM90 221v60h490v-60h-490zM299 0v88h73v-88h-73z" />
    <glyph glyph-name="oslash" unicode="&#xf8;" horiz-adv-x="575" 
d="M74 -15l-24 25l61 68q-50 72 -50 173q0 69 23.5 127.5t77 98.5t128.5 40q97 0 156 -64l58 64l23 -25l-58 -66q51 -73 51 -175q0 -108 -59.5 -187t-170.5 -79q-96 0 -158 65zM155 127l250 280q-45 55 -115 55q-81 0 -123 -65t-42 -146q0 -73 30 -124zM290 40q43 0 76 19.5
t52 51.5t28.5 67.5t9.5 72.5q0 72 -32 126l-250 -280q45 -57 116 -57z" />
    <glyph glyph-name="ugrave" unicode="&#xf9;" horiz-adv-x="571" 
d="M259 564l-124 143h78l90 -143h-44zM263 -15q-84 0 -128.5 57.5t-44.5 145.5v314h59v-324q0 -62 34.5 -100t94.5 -38q66 0 103.5 51.5t37.5 121.5v289h59v-502h-59v74l-2 2q-22 -42 -64 -66.5t-90 -24.5z" />
    <glyph glyph-name="uacute" unicode="&#xfa;" horiz-adv-x="571" 
d="M259 564l89 143h79l-125 -143h-43zM263 -15q-84 0 -128.5 57.5t-44.5 145.5v314h59v-324q0 -62 34.5 -100t94.5 -38q66 0 103.5 51.5t37.5 121.5v289h59v-502h-59v74l-2 2q-22 -42 -64 -66.5t-90 -24.5z" />
    <glyph glyph-name="ucircumflex" unicode="&#xfb;" horiz-adv-x="571" 
d="M147 562l98 145h72l97 -145h-46l-88 106l-88 -106h-45zM263 -15q-84 0 -128.5 57.5t-44.5 145.5v314h59v-324q0 -62 34.5 -100t94.5 -38q66 0 103.5 51.5t37.5 121.5v289h59v-502h-59v74l-2 2q-22 -42 -64 -66.5t-90 -24.5z" />
    <glyph glyph-name="udieresis" unicode="&#xfc;" horiz-adv-x="571" 
d="M159 619v88h72v-88h-72zM329 619v88h73v-88h-73zM263 -15q-84 0 -128.5 57.5t-44.5 145.5v314h59v-324q0 -62 34.5 -100t94.5 -38q66 0 103.5 51.5t37.5 121.5v289h59v-502h-59v74l-2 2q-22 -42 -64 -66.5t-90 -24.5z" />
    <glyph glyph-name="yacute" unicode="&#xfd;" horiz-adv-x="517" 
d="M237 564l89 143h79l-125 -143h-43zM153 -192l74 192l-204 502h72l166 -420l164 420h64l-271 -694h-65z" />
    <glyph glyph-name="thorn" unicode="&#xfe;" horiz-adv-x="578" 
d="M89 -192v914h59v-294l2 -2q25 43 71 67t97 24q69 0 116.5 -40t66.5 -97.5t19 -126.5q0 -50 -11 -95.5t-34 -85t-62.5 -63.5t-91.5 -24q-109 0 -171 93h-2v-270h-59zM315 40q53 0 86.5 37.5t44 83.5t10.5 99q0 83 -36.5 142.5t-113.5 59.5q-79 0 -118.5 -57.5
t-39.5 -141.5q0 -62 14.5 -109.5t53 -80.5t99.5 -33z" />
    <glyph glyph-name="ydieresis" unicode="&#xff;" horiz-adv-x="517" 
d="M137 619v88h72v-88h-72zM307 619v88h73v-88h-73zM153 -192l74 192l-204 502h72l166 -420l164 420h64l-271 -694h-65z" />
    <glyph glyph-name="Amacron" unicode="&#x100;" horiz-adv-x="682" 
d="M227 812v50h227v-50h-227zM26 0l281 722h74l282 -722h-69l-76 195h-351l-75 -195h-66zM187 255h309l-153 407z" />
    <glyph glyph-name="amacron" unicode="&#x101;" horiz-adv-x="521" 
d="M147 592v50h227v-50h-227zM216 -15q-70 0 -117 42t-47 113q0 152 219 152h103v68q0 40 -29.5 71t-87.5 31q-65 0 -95 -29.5t-29 -85.5h-63q0 78 50 124t138 46q73 0 123.5 -41.5t50.5 -124.5v-351h-57v74h-2q-18 -43 -63 -66t-94 -23zM216 40q59 0 108.5 34t49.5 91v79
h-85q-29 0 -56 -4t-55 -14.5t-45 -32.5t-17 -53q0 -46 27.5 -73t72.5 -27z" />
    <glyph glyph-name="Aogonek" unicode="&#x104;" horiz-adv-x="682" 
d="M609 -108q17 -32 69 -2v-47q-70 -22 -100 16q-12 15 -16 35.5t8.5 50t45.5 55.5h-22l-76 195h-351l-75 -195h-66l281 722h74l282 -722q-31 -18 -48.5 -52t-5.5 -56zM187 255h309l-153 407z" />
    <glyph glyph-name="aogonek" unicode="&#x105;" horiz-adv-x="521" 
d="M378 -108q17 -32 69 -2v-47q-70 -22 -100 16q-12 15 -16 35.5t8.5 50t45.5 55.5h-10v74h-2q-18 -43 -63 -66t-94 -23q-70 0 -117 42t-47 113q0 152 219 152h103v68q0 40 -29.5 71t-87.5 31q-65 0 -95 -29.5t-29 -85.5h-63q0 78 50 124t138 46q73 0 123.5 -41.5
t50.5 -124.5v-351q-31 -18 -48.5 -52t-5.5 -56zM374 165v79h-85q-29 0 -56 -4t-55 -14.5t-45 -32.5t-17 -53q0 -46 27.5 -73t72.5 -27q59 0 108.5 34t49.5 91z" />
    <glyph glyph-name="Cacute" unicode="&#x106;" horiz-adv-x="687" 
d="M363 784l89 143h79l-125 -143h-43zM385 -15q-78 0 -137.5 31t-95 84t-53.5 119t-18 142q0 75 18 141t54 119.5t95.5 84.5t136.5 31q92 0 160.5 -47.5t75.5 -136.5h-69q-8 61 -56 92.5t-111 31.5q-51 0 -91.5 -18t-67 -48.5t-44.5 -72t-25.5 -85.5t-7.5 -92t7.5 -92
t25.5 -85.5t44.5 -72t67 -48.5t91.5 -18q63 0 111 31.5t56 92.5h69q-7 -89 -75.5 -136.5t-160.5 -47.5z" />
    <glyph glyph-name="cacute" unicode="&#x107;" horiz-adv-x="520" 
d="M238 564l89 143h79l-125 -143h-43zM279 -15q-101 0 -158.5 79.5t-57.5 186.5q0 103 59 184.5t157 81.5q77 0 132.5 -46.5t59.5 -123.5h-64q-4 57 -42 86t-92 29q-49 0 -83.5 -35t-48.5 -81t-14 -94q0 -49 14 -95t48.5 -81.5t83.5 -35.5q51 0 90.5 34.5t43.5 85.5h64
q-10 -80 -62 -127.5t-130 -47.5z" />
    <glyph glyph-name="Ccaron" unicode="&#x10c;" horiz-adv-x="687" 
d="M349 782l-98 145h45l88 -106l88 106h46l-97 -145h-72zM385 -15q-78 0 -137.5 31t-95 84t-53.5 119t-18 142q0 75 18 141t54 119.5t95.5 84.5t136.5 31q92 0 160.5 -47.5t75.5 -136.5h-69q-8 61 -56 92.5t-111 31.5q-51 0 -91.5 -18t-67 -48.5t-44.5 -72t-25.5 -85.5
t-7.5 -92t7.5 -92t25.5 -85.5t44.5 -72t67 -48.5t91.5 -18q63 0 111 31.5t56 92.5h69q-7 -89 -75.5 -136.5t-160.5 -47.5z" />
    <glyph glyph-name="ccaron" unicode="&#x10d;" horiz-adv-x="520" 
d="M224 562l-98 145h45l88 -106l88 106h46l-97 -145h-72zM279 -15q-101 0 -158.5 79.5t-57.5 186.5q0 103 59 184.5t157 81.5q77 0 132.5 -46.5t59.5 -123.5h-64q-4 57 -42 86t-92 29q-49 0 -83.5 -35t-48.5 -81t-14 -94q0 -49 14 -95t48.5 -81.5t83.5 -35.5q51 0 90.5 34.5
t43.5 85.5h64q-10 -80 -62 -127.5t-130 -47.5z" />
    <glyph glyph-name="Dcroat" unicode="&#x110;" horiz-adv-x="740" 
d="M108 0v375h-67v45h67v302h191q177 0 270.5 -91t93.5 -270t-93.5 -270t-270.5 -91h-191zM171 60h143q144 0 212.5 79.5t68.5 221.5q0 301 -324 301h-100v-242h212v-45h-212v-315z" />
    <glyph glyph-name="Emacron" unicode="&#x112;" horiz-adv-x="636" 
d="M204 812v50h227v-50h-227zM123 0v722h420v-60h-356v-259h343v-60h-343v-283h371v-60h-435z" />
    <glyph glyph-name="emacron" unicode="&#x113;" 
d="M175 592v50h227v-50h-227zM288 -15q-75 0 -127 40t-73 97.5t-21 126.5q0 115 56 191.5t164 76.5q225 0 225 -275v-5h-381q2 -88 40.5 -142.5t123.5 -54.5q55 0 96 31t50 79h62q-16 -80 -71 -122.5t-144 -42.5zM133 288h315q0 81 -40.5 127.5t-119.5 46.5
q-74 0 -114.5 -50.5t-40.5 -123.5z" />
    <glyph glyph-name="Eogonek" unicode="&#x118;" horiz-adv-x="636" 
d="M504 -108q17 -32 69 -2v-47q-70 -22 -100 16q-12 15 -16 35.5t8.5 50t45.5 55.5h-388v722h420v-60h-356v-259h343v-60h-343v-283h371v-60q-31 -18 -48.5 -52t-5.5 -56z" />
    <glyph glyph-name="eogonek" unicode="&#x119;" 
d="M512 242v-5h-381q2 -88 40.5 -142.5t123.5 -54.5q55 0 96 31t50 79h62q-18 -94 -90 -135q-24 -20 -36 -49t-2 -48q17 -32 69 -2v-47q-70 -22 -100 16q-14 18 -15.5 44t18.5 61q-30 -5 -59 -5q-75 0 -127 40t-73 97.5t-21 126.5q0 115 56 191.5t164 76.5q225 0 225 -275z
M133 288h315q0 81 -40.5 127.5t-119.5 46.5q-74 0 -114.5 -50.5t-40.5 -123.5z" />
    <glyph glyph-name="Ecaron" unicode="&#x11a;" horiz-adv-x="636" 
d="M282 782l-98 145h45l88 -106l88 106h46l-97 -145h-72zM123 0v722h420v-60h-356v-259h343v-60h-343v-283h371v-60h-435z" />
    <glyph glyph-name="ecaron" unicode="&#x11b;" 
d="M253 562l-98 145h45l88 -106l88 106h46l-97 -145h-72zM288 -15q-75 0 -127 40t-73 97.5t-21 126.5q0 115 56 191.5t164 76.5q225 0 225 -275v-5h-381q2 -88 40.5 -142.5t123.5 -54.5q55 0 96 31t50 79h62q-16 -80 -71 -122.5t-144 -42.5zM133 288h315q0 81 -40.5 127.5
t-119.5 46.5q-74 0 -114.5 -50.5t-40.5 -123.5z" />
    <glyph glyph-name="Imacron" unicode="&#x12a;" horiz-adv-x="308" 
d="M40 812v50h227v-50h-227zM124 0v722h64v-722h-64z" />
    <glyph glyph-name="imacron" unicode="&#x12b;" horiz-adv-x="250" 
d="M11 592v50h227v-50h-227zM97 0v502h58v-502h-58z" />
    <glyph glyph-name="Iogonek" unicode="&#x12e;" horiz-adv-x="308" 
d="M134 -108q17 -32 69 -2v-47q-70 -22 -100 16q-12 15 -16 35.5t8.5 50t45.5 55.5h-17v722h64v-722q-31 -18 -48.5 -52t-5.5 -56z" />
    <glyph glyph-name="iogonek" unicode="&#x12f;" horiz-adv-x="250" 
d="M161 707v-88h-72v88h72zM101 -108q17 -32 69 -2v-47q-70 -22 -100 16q-12 15 -16 35.5t8.5 50t45.5 55.5h-11v502h58v-502q-31 -18 -48.5 -52t-5.5 -56z" />
    <glyph glyph-name="dotlessi" unicode="&#x131;" horiz-adv-x="250" 
d="M97 0v502h58v-502h-58z" />
    <glyph glyph-name="Lacute" unicode="&#x139;" horiz-adv-x="579" 
d="M123 784l89 143h79l-125 -143h-43zM121 0v722h63v-662h356v-60h-419z" />
    <glyph glyph-name="Lslash" unicode="&#x141;" horiz-adv-x="570" 
d="M119 0v228l-106 -62l-29 52l135 80v424h64v-387l225 133l30 -52l-255 -150v-206h355v-60h-419z" />
    <glyph glyph-name="lslash" unicode="&#x142;" horiz-adv-x="236" 
d="M89 0v312l-78 -46l-30 52l108 63v341h59v-306l80 47l30 -52l-110 -64v-347h-59z" />
    <glyph glyph-name="Nacute" unicode="&#x143;" horiz-adv-x="746" 
d="M351 784l89 143h79l-125 -143h-43zM113 0v722h73l390 -635h2v635h63v-722h-80l-382 624h-2v-624h-64z" />
    <glyph glyph-name="nacute" unicode="&#x144;" 
d="M268 564l89 143h79l-125 -143h-43zM99 0v502h59v-74l2 -2q46 91 154 91q85 0 129 -57t44 -146v-314h-59v324q0 62 -34.5 100t-94.5 38q-67 0 -104 -51t-37 -122v-289h-59z" />
    <glyph glyph-name="Ncaron" unicode="&#x147;" horiz-adv-x="746" 
d="M337 782l-98 145h45l88 -106l88 106h46l-97 -145h-72zM113 0v722h73l390 -635h2v635h63v-722h-80l-382 624h-2v-624h-64z" />
    <glyph glyph-name="ncaron" unicode="&#x148;" 
d="M254 562l-98 145h45l88 -106l88 106h46l-97 -145h-72zM99 0v502h59v-74l2 -2q46 91 154 91q85 0 129 -57t44 -146v-314h-59v324q0 62 -34.5 100t-94.5 38q-67 0 -104 -51t-37 -122v-289h-59z" />
    <glyph glyph-name="Omacron" unicode="&#x14c;" horiz-adv-x="799" 
d="M286 812v50h227v-50h-227zM403 -15q-104 0 -177 52.5t-105.5 135.5t-32.5 188t32.5 188t105.5 135.5t177 52.5q155 0 235.5 -106.5t80.5 -269.5t-80.5 -269.5t-235.5 -106.5zM403 45q83 0 141 47.5t82 116.5t24 152t-24 152t-82 116.5t-141 47.5q-63 0 -111.5 -27
t-77.5 -72.5t-43.5 -100.5t-14.5 -116t14.5 -116t43.5 -100.5t77.5 -72.5t111.5 -27z" />
    <glyph glyph-name="omacron" unicode="&#x14d;" horiz-adv-x="576" 
d="M174 592v50h227v-50h-227zM291 -15q-105 0 -167 78.5t-62 187.5t62 187.5t167 78.5q104 0 166.5 -78.5t62.5 -187.5t-62.5 -187.5t-166.5 -78.5zM291 40q76 0 121 65t45 146t-45 146t-121 65t-121 -65t-45 -146t45 -146t121 -65z" />
    <glyph glyph-name="Ohungarumlaut" unicode="&#x150;" horiz-adv-x="799" 
d="M302 784l89 143h79l-125 -143h-43zM454 784l89 143h79l-125 -143h-43zM403 -15q-104 0 -177 52.5t-105.5 135.5t-32.5 188t32.5 188t105.5 135.5t177 52.5q155 0 235.5 -106.5t80.5 -269.5t-80.5 -269.5t-235.5 -106.5zM403 45q83 0 141 47.5t82 116.5t24 152t-24 152
t-82 116.5t-141 47.5q-63 0 -111.5 -27t-77.5 -72.5t-43.5 -100.5t-14.5 -116t14.5 -116t43.5 -100.5t77.5 -72.5t111.5 -27z" />
    <glyph glyph-name="ohungarumlaut" unicode="&#x151;" horiz-adv-x="576" 
d="M190 564l89 143h79l-125 -143h-43zM342 564l89 143h79l-125 -143h-43zM291 -15q-105 0 -167 78.5t-62 187.5t62 187.5t167 78.5q104 0 166.5 -78.5t62.5 -187.5t-62.5 -187.5t-166.5 -78.5zM291 40q76 0 121 65t45 146t-45 146t-121 65t-121 -65t-45 -146t45 -146
t121 -65z" />
    <glyph glyph-name="OE" unicode="&#x152;" horiz-adv-x="1017" 
d="M380 -15q-136 0 -216 103t-80 273t80 273t216 103q113 0 188 -78v63h369v-60h-305v-259h291v-60h-291v-283h319v-60h-383v69h-4q-29 -41 -80 -62.5t-104 -21.5zM377 45q88 0 138.5 46.5t50.5 129.5v253q0 106 -47 154.5t-139 48.5q-75 0 -128 -47t-76 -116.5t-23 -152.5
t22.5 -152t75 -116.5t126.5 -47.5z" />
    <glyph glyph-name="oe" unicode="&#x153;" horiz-adv-x="906" 
d="M294 -15q-110 0 -169.5 79t-59.5 187t59.5 187t169.5 79q60 0 105.5 -32.5t69.5 -92.5q18 59 64.5 92t96.5 33q110 0 162.5 -77t52.5 -203h-343v-11q0 -76 32 -131t98 -55q54 0 94 33.5t51 86.5h62q-43 -175 -203 -175q-59 0 -104.5 32t-61.5 93h-2q-23 -61 -69.5 -93
t-104.5 -32zM286 40q43 0 74.5 19t47.5 51.5t23 68.5t7 77q0 52 -12.5 95.5t-48.5 77t-91 33.5q-40 0 -71 -19.5t-49.5 -51.5t-27.5 -67.5t-9 -72.5t9 -72.5t27.5 -67.5t49.5 -51.5t71 -19.5zM502 292h279q0 77 -34.5 123.5t-108.5 46.5q-61 0 -98.5 -49.5t-37.5 -113.5v-7z
" />
    <glyph glyph-name="Racute" unicode="&#x154;" horiz-adv-x="672" 
d="M314 784l89 143h79l-125 -143h-43zM121 0v722h188q49 0 85.5 -4t75 -16.5t63 -34t40 -59.5t15.5 -90q0 -146 -142 -188l179 -330h-70l-170 313h-200v-313h-64zM185 374h155q179 0 179 144q0 85 -45 114.5t-134 29.5h-155v-288z" />
    <glyph glyph-name="racute" unicode="&#x155;" horiz-adv-x="348" 
d="M191 564l89 143h79l-125 -143h-43zM97 0v502h59v-74h2q11 37 40.5 63t66.5 26q38 0 63 -16v-53h-3q-23 14 -50 14q-56 0 -87.5 -50t-31.5 -110v-302h-59z" />
    <glyph glyph-name="Rcaron" unicode="&#x158;" horiz-adv-x="672" 
d="M300 782l-98 145h45l88 -106l88 106h46l-97 -145h-72zM121 0v722h188q49 0 85.5 -4t75 -16.5t63 -34t40 -59.5t15.5 -90q0 -146 -142 -188l179 -330h-70l-170 313h-200v-313h-64zM185 374h155q179 0 179 144q0 85 -45 114.5t-134 29.5h-155v-288z" />
    <glyph glyph-name="rcaron" unicode="&#x159;" horiz-adv-x="348" 
d="M177 562l-98 145h45l88 -106l88 106h46l-97 -145h-72zM97 0v502h59v-74h2q11 37 40.5 63t66.5 26q38 0 63 -16v-53h-3q-23 14 -50 14q-56 0 -87.5 -50t-31.5 -110v-302h-59z" />
    <glyph glyph-name="Sacute" unicode="&#x15a;" horiz-adv-x="636" 
d="M296 784l89 143h79l-125 -143h-43zM334 -15q-230 0 -255 203h68q20 -146 184 -146t164 142q0 39 -22 67.5t-57.5 45.5t-78 31t-85 30.5t-78 38t-57.5 59t-22 88.5q0 93 63 143t159 50q216 0 230 -172h-64q-11 116 -163 116q-68 0 -112 -32t-44 -98q0 -41 22 -71t57.5 -48
t78 -32.5t85 -31t78 -38t57.5 -59t22 -87.5q0 -104 -62 -151.5t-168 -47.5z" />
    <glyph glyph-name="sacute" unicode="&#x15b;" horiz-adv-x="507" 
d="M232 564l89 143h79l-125 -143h-43zM257 -15q-90 0 -144.5 39.5t-54.5 125.5h60q0 -65 41 -89.5t113 -24.5q50 0 84 25t34 75q0 39 -32 61.5t-78 32.5t-91.5 22t-77.5 42.5t-32 82.5q0 69 53.5 104.5t125.5 35.5q79 0 128 -32.5t57 -100.5h-58q-15 82 -126 82
q-47 0 -81.5 -20.5t-34.5 -64.5q0 -34 32 -53.5t77.5 -30t91.5 -24t78 -45.5t32 -83q0 -85 -55 -122.5t-142 -37.5z" />
    <glyph glyph-name="Scedilla" unicode="&#x15e;" horiz-adv-x="636" 
d="M334 -15h-5l-9 -35q99 0 99 -63q0 -70 -98 -70q-29 0 -104 22l7 28q70 -24 96 -24q44 0 44 41q0 36 -48 36q-10 0 -32 -2l22 68q-203 12 -227 202h68q20 -146 184 -146t164 142q0 39 -22 67.5t-57.5 45.5t-78 31t-85 30.5t-78 38t-57.5 59t-22 88.5q0 93 63 143t159 50
q216 0 230 -172h-64q-11 116 -163 116q-68 0 -112 -32t-44 -98q0 -41 22 -71t57.5 -48t78 -32.5t85 -31t78 -38t57.5 -59t22 -87.5q0 -104 -62 -151.5t-168 -47.5z" />
    <glyph glyph-name="scedilla" unicode="&#x15f;" horiz-adv-x="507" 
d="M454 145q0 -83 -52.5 -120.5t-136.5 -39.5l-9 -35q99 0 99 -63q0 -70 -98 -70q-29 0 -104 22l7 28q70 -24 96 -24q44 0 44 41q0 36 -48 36q-10 0 -32 -2l22 67q-84 3 -134 43t-50 122h60q0 -65 41 -89.5t113 -24.5q50 0 84 25t34 75q0 39 -32 61.5t-78 32.5t-91.5 22
t-77.5 42.5t-32 82.5q0 69 53.5 104.5t125.5 35.5q79 0 128 -32.5t57 -100.5h-58q-15 82 -126 82q-47 0 -81.5 -20.5t-34.5 -64.5q0 -34 32 -53.5t77.5 -30t91.5 -24t78 -45.5t32 -83z" />
    <glyph glyph-name="Scaron" unicode="&#x160;" horiz-adv-x="636" 
d="M282 782l-98 145h45l88 -106l88 106h46l-97 -145h-72zM334 -15q-230 0 -255 203h68q20 -146 184 -146t164 142q0 39 -22 67.5t-57.5 45.5t-78 31t-85 30.5t-78 38t-57.5 59t-22 88.5q0 93 63 143t159 50q216 0 230 -172h-64q-11 116 -163 116q-68 0 -112 -32t-44 -98
q0 -41 22 -71t57.5 -48t78 -32.5t85 -31t78 -38t57.5 -59t22 -87.5q0 -104 -62 -151.5t-168 -47.5z" />
    <glyph glyph-name="scaron" unicode="&#x161;" horiz-adv-x="507" 
d="M218 562l-98 145h45l88 -106l88 106h46l-97 -145h-72zM257 -15q-90 0 -144.5 39.5t-54.5 125.5h60q0 -65 41 -89.5t113 -24.5q50 0 84 25t34 75q0 39 -32 61.5t-78 32.5t-91.5 22t-77.5 42.5t-32 82.5q0 69 53.5 104.5t125.5 35.5q79 0 128 -32.5t57 -100.5h-58
q-15 82 -126 82q-47 0 -81.5 -20.5t-34.5 -64.5q0 -34 32 -53.5t77.5 -30t91.5 -24t78 -45.5t32 -83q0 -85 -55 -122.5t-142 -37.5z" />
    <glyph glyph-name="uni0162" unicode="&#x162;" horiz-adv-x="572" 
d="M322 0h-21l-13 -50q99 0 99 -63q0 -70 -98 -70q-29 0 -104 22l7 28q70 -24 96 -24q44 0 44 41q0 36 -48 36q-10 0 -32 -2l26 82h-18l-1 662h-229v60h518v-60h-225z" />
    <glyph glyph-name="uni0163" unicode="&#x163;" horiz-adv-x="343" 
d="M194 0h-7l-13 -50q99 0 99 -63q0 -70 -98 -70q-29 0 -104 22l7 28q70 -24 96 -24q44 0 44 41q0 36 -48 36q-10 0 -32 -2l26 82h-29v447h-98v55h98v133h59v-133h112v-55h-112v-447z" />
    <glyph glyph-name="Umacron" unicode="&#x16a;" horiz-adv-x="747" 
d="M260 812v50h227v-50h-227zM377 -15q-121 0 -190 73t-69 196v468h64v-467q0 -94 52 -152t143 -58t143 58t52 152v467h64v-468q0 -123 -69 -196t-190 -73z" />
    <glyph glyph-name="umacron" unicode="&#x16b;" horiz-adv-x="571" 
d="M167 592v50h227v-50h-227zM263 -15q-84 0 -128.5 57.5t-44.5 145.5v314h59v-324q0 -62 34.5 -100t94.5 -38q66 0 103.5 51.5t37.5 121.5v289h59v-502h-59v74l-2 2q-22 -42 -64 -66.5t-90 -24.5z" />
    <glyph glyph-name="Uring" unicode="&#x16e;" horiz-adv-x="747" 
d="M373 772q-38 0 -64 26.5t-26 65.5q0 38 26.5 65.5t63.5 27.5t64 -27.5t27 -65.5t-27 -65t-64 -27zM373 808q23 0 39 16.5t16 39.5t-16 39.5t-39 16.5t-39 -16.5t-16 -39.5t16 -39.5t39 -16.5zM377 -15q-121 0 -190 73t-69 196v468h64v-467q0 -94 52 -152t143 -58t143 58
t52 152v467h64v-468q0 -123 -69 -196t-190 -73z" />
    <glyph glyph-name="uring" unicode="&#x16f;" horiz-adv-x="571" 
d="M280 552q-38 0 -64 26.5t-26 65.5q0 38 26.5 65.5t63.5 27.5t64 -27.5t27 -65.5t-27 -65t-64 -27zM280 588q23 0 39 16.5t16 39.5t-16 39.5t-39 16.5t-39 -16.5t-16 -39.5t16 -39.5t39 -16.5zM263 -15q-84 0 -128.5 57.5t-44.5 145.5v314h59v-324q0 -62 34.5 -100
t94.5 -38q66 0 103.5 51.5t37.5 121.5v289h59v-502h-59v74l-2 2q-22 -42 -64 -66.5t-90 -24.5z" />
    <glyph glyph-name="Uhungarumlaut" unicode="&#x170;" horiz-adv-x="747" 
d="M276 784l89 143h79l-125 -143h-43zM428 784l89 143h79l-125 -143h-43zM377 -15q-121 0 -190 73t-69 196v468h64v-467q0 -94 52 -152t143 -58t143 58t52 152v467h64v-468q0 -123 -69 -196t-190 -73z" />
    <glyph glyph-name="uhungarumlaut" unicode="&#x171;" horiz-adv-x="571" 
d="M183 564l89 143h79l-125 -143h-43zM335 564l89 143h79l-125 -143h-43zM263 -15q-84 0 -128.5 57.5t-44.5 145.5v314h59v-324q0 -62 34.5 -100t94.5 -38q66 0 103.5 51.5t37.5 121.5v289h59v-502h-59v74l-2 2q-22 -42 -64 -66.5t-90 -24.5z" />
    <glyph glyph-name="Uogonek" unicode="&#x172;" horiz-adv-x="747" 
d="M572 722h64v-468q0 -162 -113 -231q-25 -21 -37 -50t-2 -48q17 -32 69 -2v-47q-70 -22 -100 16q-35 47 1 102q-36 -9 -77 -9q-121 0 -190 73t-69 196v468h64v-467q0 -94 52 -152t143 -58t143 58t52 152v467z" />
    <glyph glyph-name="uogonek" unicode="&#x173;" horiz-adv-x="571" 
d="M424 -108q17 -32 69 -2v-47q-70 -22 -100 16q-12 15 -16 35.5t8.5 50t45.5 55.5h-12v74l-2 2q-22 -42 -64 -66.5t-90 -24.5q-84 0 -128.5 57.5t-44.5 145.5v314h59v-324q0 -62 34.5 -100t94.5 -38q66 0 103.5 51.5t37.5 121.5v289h59v-502q-31 -18 -48.5 -52t-5.5 -56z
" />
    <glyph glyph-name="Wcircumflex" unicode="&#x174;" horiz-adv-x="1002" 
d="M367 782l98 145h72l97 -145h-46l-88 106l-88 -106h-45zM206 0l-185 722h68l165 -657h3l205 657h78l205 -657h3l165 657h68l-185 -722h-90l-203 655h-4l-203 -655h-90z" />
    <glyph glyph-name="wcircumflex" unicode="&#x175;" horiz-adv-x="847" 
d="M290 562l98 145h72l97 -145h-46l-88 106l-88 -106h-45zM216 0l-181 502h65l147 -423h2l149 423h70l145 -419h2l142 419h64l-183 -502h-56l-151 433h-2l-154 -433h-59z" />
    <glyph glyph-name="Ycircumflex" unicode="&#x176;" horiz-adv-x="626" 
d="M179 782l98 145h72l97 -145h-46l-88 106l-88 -106h-45zM285 0v312l-260 410h81l217 -349l216 349h69l-259 -408v-314h-64z" />
    <glyph glyph-name="ycircumflex" unicode="&#x177;" horiz-adv-x="517" 
d="M125 562l98 145h72l97 -145h-46l-88 106l-88 -106h-45zM153 -192l74 192l-204 502h72l166 -420l164 420h64l-271 -694h-65z" />
    <glyph glyph-name="Ydieresis" unicode="&#x178;" horiz-adv-x="626" 
d="M195 802v88h72v-88h-72zM365 802v88h73v-88h-73zM285 0v312l-260 410h81l217 -349l216 349h69l-259 -408v-314h-64z" />
    <glyph glyph-name="Zacute" unicode="&#x179;" horiz-adv-x="575" 
d="M266 784l89 143h79l-125 -143h-43zM56 0v60l393 602h-393v60h469v-60l-394 -602h394v-60h-469z" />
    <glyph glyph-name="zacute" unicode="&#x17a;" horiz-adv-x="465" 
d="M211 564l89 143h79l-125 -143h-43zM56 0v55l287 392h-287v55h357v-55l-285 -392h285v-55h-357z" />
    <glyph glyph-name="Zcaron" unicode="&#x17d;" horiz-adv-x="575" 
d="M252 782l-98 145h45l88 -106l88 106h46l-97 -145h-72zM56 0v60l393 602h-393v60h469v-60l-394 -602h394v-60h-469z" />
    <glyph glyph-name="zcaron" unicode="&#x17e;" horiz-adv-x="465" 
d="M197 562l-98 145h45l88 -106l88 106h46l-97 -145h-72zM56 0v55l287 392h-287v55h357v-55l-285 -392h285v-55h-357z" />
    <glyph glyph-name="florin" unicode="&#x192;" 
d="M94 -192q-24 0 -46 6l11 54q13 -4 27 -4q16 0 29 8.5t20 17t13.5 29t8 27.5l6.5 30l82 432h-92l9 60h92l16 80q6 34 12.5 55.5t20.5 48.5t38.5 41t59.5 14q28 0 70 -7l-8 -57q-17 4 -43 4q-41 0 -57 -19t-24 -60l-20 -100h104l-8 -60h-105l-68 -363q-2 -9 -8.5 -48.5
t-10.5 -56t-15 -47.5t-24 -45.5t-36.5 -27t-53.5 -12.5z" />
    <glyph glyph-name="uni0237" unicode="&#x237;" horiz-adv-x="244" 
d="M47 -192h-2h-35v54h32q32 0 41 18t9 54l-1 568h59v-568q0 -60 -21.5 -93t-81.5 -33z" />
    <glyph glyph-name="gravecomb" unicode="&#x300;" horiz-adv-x="0" 
d="M-54 564l-124 143h78l90 -143h-44z" />
    <glyph glyph-name="acutecomb" unicode="&#x301;" horiz-adv-x="0" 
d="M-178 564l89 143h79l-125 -143h-43z" />
    <glyph glyph-name="uni0302" unicode="&#x302;" horiz-adv-x="0" 
d="M-277 562l98 145h72l97 -145h-46l-88 106l-88 -106h-45z" />
    <glyph glyph-name="tildecomb" unicode="&#x303;" horiz-adv-x="0" 
d="M-280 572q18 81 88 81q22 0 54 -10.5t41 -10.5q36 0 49 33h38q-9 -37 -32 -61t-58 -24q-16 0 -45 10.5t-52 10.5q-39 0 -46 -29h-37z" />
    <glyph glyph-name="uni0304" unicode="&#x304;" horiz-adv-x="0" 
d="M-237 592v50h227v-50h-227z" />
    <glyph glyph-name="uni0307" unicode="&#x307;" horiz-adv-x="0" 
d="M-82 619v88h72v-88h-72z" />
    <glyph glyph-name="uni0308" unicode="&#x308;" horiz-adv-x="0" 
d="M-253 619v88h72v-88h-72zM-83 619v88h73v-88h-73z" />
    <glyph glyph-name="uni030A" unicode="&#x30a;" horiz-adv-x="0" 
d="M-101 552q-38 0 -64 26.5t-26 65.5q0 38 26.5 65.5t63.5 27.5t64 -27.5t27 -65.5t-27 -65t-64 -27zM-101 588q23 0 39 16.5t16 39.5t-16 39.5t-39 16.5t-39 -16.5t-16 -39.5t16 -39.5t39 -16.5z" />
    <glyph glyph-name="uni030B" unicode="&#x30b;" horiz-adv-x="0" 
d="M-330 564l89 143h79l-125 -143h-43zM-178 564l89 143h79l-125 -143h-43z" />
    <glyph glyph-name="uni030C" unicode="&#x30c;" horiz-adv-x="0" 
d="M-179 562l-98 145h45l88 -106l88 106h46l-97 -145h-72z" />
    <glyph glyph-name="uni0327" unicode="&#x327;" horiz-adv-x="0" 
d="M-108 -183q-29 0 -104 22l7 28q70 -24 96 -24q44 0 44 41q0 36 -48 36q-10 0 -32 -2l28 87h22l-14 -55q99 0 99 -63q0 -70 -98 -70z" />
    <glyph glyph-name="uni0328" unicode="&#x328;" horiz-adv-x="0" 
d="M-10 -157q-70 -22 -100 16q-12 16 -16 38t11.5 53.5t54.5 58.5l35 -9q-31 -18 -48.5 -52t-5.5 -56q17 -32 69 -2v-47z" />
    <glyph glyph-name="Wgrave" unicode="&#x1e80;" horiz-adv-x="1002" 
d="M479 784l-124 143h78l90 -143h-44zM206 0l-185 722h68l165 -657h3l205 657h78l205 -657h3l165 657h68l-185 -722h-90l-203 655h-4l-203 -655h-90z" />
    <glyph glyph-name="wgrave" unicode="&#x1e81;" horiz-adv-x="847" 
d="M402 564l-124 143h78l90 -143h-44zM216 0l-181 502h65l147 -423h2l149 423h70l145 -419h2l142 419h64l-183 -502h-56l-151 433h-2l-154 -433h-59z" />
    <glyph glyph-name="Wacute" unicode="&#x1e82;" horiz-adv-x="1002" 
d="M479 784l89 143h79l-125 -143h-43zM206 0l-185 722h68l165 -657h3l205 657h78l205 -657h3l165 657h68l-185 -722h-90l-203 655h-4l-203 -655h-90z" />
    <glyph glyph-name="wacute" unicode="&#x1e83;" horiz-adv-x="847" 
d="M402 564l89 143h79l-125 -143h-43zM216 0l-181 502h65l147 -423h2l149 423h70l145 -419h2l142 419h64l-183 -502h-56l-151 433h-2l-154 -433h-59z" />
    <glyph glyph-name="Wdieresis" unicode="&#x1e84;" horiz-adv-x="1002" 
d="M380 802v88h72v-88h-72zM550 802v88h73v-88h-73zM206 0l-185 722h68l165 -657h3l205 657h78l205 -657h3l165 657h68l-185 -722h-90l-203 655h-4l-203 -655h-90z" />
    <glyph glyph-name="wdieresis" unicode="&#x1e85;" horiz-adv-x="847" 
d="M302 619v88h72v-88h-72zM472 619v88h73v-88h-73zM216 0l-181 502h65l147 -423h2l149 423h70l145 -419h2l142 419h64l-183 -502h-56l-151 433h-2l-154 -433h-59z" />
    <glyph glyph-name="Ygrave" unicode="&#x1ef2;" horiz-adv-x="626" 
d="M291 784l-124 143h78l90 -143h-44zM285 0v312l-260 410h81l217 -349l216 349h69l-259 -408v-314h-64z" />
    <glyph glyph-name="ygrave" unicode="&#x1ef3;" horiz-adv-x="517" 
d="M237 564l-124 143h78l90 -143h-44zM153 -192l74 192l-204 502h72l166 -420l164 420h64l-271 -694h-65z" />
    <glyph glyph-name="endash" unicode="&#x2013;" horiz-adv-x="530" 
d="M20 237v60h490v-60h-490z" />
    <glyph glyph-name="emdash" unicode="&#x2014;" horiz-adv-x="979" 
d="M0 237v60h979v-60h-979z" />
    <glyph glyph-name="quoteleft" unicode="&#x2018;" horiz-adv-x="255" 
d="M50 517l70 205h51l-42 -205h-79z" />
    <glyph glyph-name="quoteright" unicode="&#x2019;" horiz-adv-x="259" 
d="M87 517l42 205h80l-71 -205h-51z" />
    <glyph glyph-name="quotesinglbase" unicode="&#x201a;" horiz-adv-x="285" 
d="M87 -124l42 205h80l-71 -205h-51z" />
    <glyph glyph-name="quotedblleft" unicode="&#x201c;" horiz-adv-x="565" 
d="M129 517l71 205h51l-42 -205h-80zM310 517l70 205h51l-42 -205h-79z" />
    <glyph glyph-name="quotedblright" unicode="&#x201d;" horiz-adv-x="566" 
d="M140 517l42 205h80l-71 -205h-51zM320 517l42 205h80l-71 -205h-51z" />
    <glyph glyph-name="quotedblbase" unicode="&#x201e;" horiz-adv-x="566" 
d="M138 -124l42 205h79l-70 -205h-51zM318 -124l42 205h80l-71 -205h-51z" />
    <glyph glyph-name="dagger" unicode="&#x2020;" horiz-adv-x="560" 
d="M253 0v487h-168v55h168v180h59v-180h169v-55h-169v-487h-59z" />
    <glyph glyph-name="daggerdbl" unicode="&#x2021;" horiz-adv-x="560" 
d="M253 0v177h-168v55h168v255h-168v55h168v180h59v-180h169v-55h-169v-255h169v-55h-169v-177h-59z" />
    <glyph glyph-name="bullet" unicode="&#x2022;" horiz-adv-x="514" 
d="M259 269q-37 0 -63.5 27t-26.5 65t26.5 65t63.5 27q38 0 64.5 -27t26.5 -65t-27 -65t-64 -27z" />
    <glyph glyph-name="ellipsis" unicode="&#x2026;" horiz-adv-x="861" 
d="M106 0v86h78v-86h-78zM393 0v86h78v-86h-78zM680 0v86h78v-86h-78z" />
    <glyph glyph-name="guilsinglleft" unicode="&#x2039;" horiz-adv-x="282" 
d="M167 72l-104 195l104 195h50l-91 -195l90 -195h-49z" />
    <glyph glyph-name="guilsinglright" unicode="&#x203a;" horiz-adv-x="283" 
d="M68 72l92 195l-91 195h49l104 -195l-104 -195h-50z" />
    <glyph glyph-name="fraction" unicode="&#x2044;" horiz-adv-x="439" 
d="M0 0l382 707h57l-382 -707h-57z" />
    <glyph glyph-name="Euro" unicode="&#x20ac;" horiz-adv-x="554" 
d="M351 -15q-114 0 -177.5 81t-75.5 209h-64l14 46h45v25q0 21 2 45h-59l14 46h51q14 115 82 192.5t177 77.5q123 0 164 -64l-27 -68q-40 72 -138 72q-80 0 -128.5 -60.5t-61.5 -149.5h297l-14 -46h-289q-3 -36 -3 -45v-25h274l-14 -46h-256q11 -99 56 -164.5t130 -65.5
q49 0 84 13.5t65 47.5v-73q-51 -48 -148 -48z" />
    <glyph glyph-name="trademark" unicode="&#x2122;" horiz-adv-x="822" 
d="M154 350v337h-116v35h278v-35h-115v-337h-47zM381 350v372h85l104 -275h2l102 275h86v-372h-48v333h-1l-126 -333h-29l-126 333h-2v-333h-47z" />
    <glyph glyph-name="minus" unicode="&#x2212;" horiz-adv-x="277" 
d="M16 237v60h247v-60h-247z" />
    <glyph glyph-name="fi" unicode="&#xfb01;" horiz-adv-x="583" 
d="M135 0v447h-99v55h99v94q0 64 25.5 101t93.5 37q28 0 56 -12v-46q-29 10 -53 10q-63 0 -63 -83v-101h294v-502h-58v447h-236v-447h-59zM415 637v86h78v-86h-78z" />
    <glyph glyph-name="fl" unicode="&#xfb02;" horiz-adv-x="583" 
d="M433 720h55v-720h-58v676q-43 8 -86 8q-150 0 -150 -111v-71h112v-55h-112v-447h-59v447h-99v55h99v64q0 164 204 164q40 0 94 -10z" />
    </font>
</defs>
</svg>
