<svg xmlns="http://www.w3.org/2000/svg" viewBox="0 0 190.72 31.59"><defs><style>.cls-1{fill:#1b2125;}.cls-2{fill:#5cb3e4;}</style></defs><title>Asset 1</title><g id="Layer_2" data-name="Layer 2"><g id="Capa_4" data-name="Capa 4"><g id="_Group_" data-name="&lt;Group&gt;"><g id="_Group_2" data-name="&lt;Group&gt;"><path id="_Compound_Path_" data-name="&lt;Compound Path&gt;" class="cls-1" d="M0,23.07,9.91,9.53H0V7.63H12.33v1.9L2.49,23.07h9.84V25H0Z"/><path id="_Compound_Path_2" data-name="&lt;Compound Path&gt;" class="cls-1" d="M17.13,16.37c0-4.94,2.38-9.25,7.6-9.25,5.8,0,7.77,4,7.77,9.5v.17H19.34c.07,3.66,1.45,6.8,5.66,6.8a5,5,0,0,0,5-3.8h2.14c-.72,3.66-3.32,5.7-7.42,5.7C19.27,25.48,17.13,20.82,17.13,16.37ZM30.28,15c0-3.59-1.8-6-5.52-6-3.56,0-5.35,2.83-5.35,6Z"/><path id="_Compound_Path_3" data-name="&lt;Compound Path&gt;" class="cls-1" d="M39.15,7.63h2v2.62h.07a5.75,5.75,0,0,1,5.42-3.14c4.87,0,7.35,4.56,7.35,9s-2.49,9.32-7.35,9.32c-2.56,0-4-1.1-5.42-3.21h-.07v9.32h-2Zm12.74,8.6C51.89,13,50.37,9,46.68,9c-3.87,0-5.63,3.83-5.63,7.29s1.76,7.29,5.63,7.29S51.89,19.44,51.89,16.23Z"/><path id="_Compound_Path_4" data-name="&lt;Compound Path&gt;" class="cls-1" d="M60.45,7.63h2v2.62h.07A5.75,5.75,0,0,1,68,7.11c4.87,0,7.35,4.56,7.35,9S72.85,25.48,68,25.48c-2.56,0-4-1.1-5.42-3.21h-.07v9.32h-2Zm12.74,8.6C73.2,13,71.68,9,68,9c-3.87,0-5.63,3.83-5.63,7.29s1.76,7.29,5.63,7.29S73.2,19.44,73.2,16.23Z"/><path id="_Compound_Path_5" data-name="&lt;Compound Path&gt;" class="cls-1" d="M81,16.37c0-4.94,2.38-9.25,7.6-9.25,5.8,0,7.77,4,7.77,9.5v.17H83.24c.07,3.66,1.45,6.8,5.66,6.8a5,5,0,0,0,5-3.8h2.14c-.72,3.66-3.32,5.7-7.42,5.7C83.17,25.48,81,20.82,81,16.37ZM94.19,15c0-3.59-1.8-6-5.53-6-3.56,0-5.35,2.83-5.35,6Z"/><path id="_Compound_Path_6" data-name="&lt;Compound Path&gt;" class="cls-1" d="M103.37,0h2V25h-2Z"/><path id="_Compound_Path_7" data-name="&lt;Compound Path&gt;" class="cls-1" d="M112.86,0h2.69V3h-2.69Zm.52,7.63h2V25h-2Z"/><path id="_Compound_Path_8" data-name="&lt;Compound Path&gt;" class="cls-1" d="M123.46,7.63h2v2.56l.07.07a5.71,5.71,0,0,1,5.32-3.14c4.07,0,6,3.14,6,7V25h-2V13.78c0-2.8-1.66-4.76-4.45-4.76-3.25,0-4.87,3-4.87,6V25h-2Z"/><path id="_Compound_Path_9" data-name="&lt;Compound Path&gt;" class="cls-2" d="M155.92,16.3c0-4.76,2.87-9.18,7.91-9.18s7.91,4.42,7.91,9.18-2.9,9.18-7.91,9.18S155.92,21.06,155.92,16.3Zm13.64,0c0-3.38-2-7.29-5.73-7.29s-5.73,3.9-5.73,7.29,2,7.29,5.73,7.29S169.56,19.68,169.56,16.3Z"/><path id="_Compound_Path_10" data-name="&lt;Compound Path&gt;" class="cls-2" d="M177,19.79h2.07c0,3.25,2.45,3.94,5.32,3.94,2.14,0,4.07-1,4.07-3.45,0-5-10.74-1.86-10.74-8.32,0-3.45,3.28-4.83,6.18-4.83,3.45,0,6,1.31,6.39,4.59h-2C188,9.63,186.27,8.87,184,8.87c-1.83,0-4,.72-4,2.93,0,4.25,10.74,1.73,10.74,8.15,0,4.18-3.21,5.52-6.8,5.52C180.09,25.48,177,24,177,19.79Z"/></g><g id="_Group_3" data-name="&lt;Group&gt;"><path id="_Compound_Path_11" data-name="&lt;Compound Path&gt;" class="cls-1" d="M141.17,26.56h13v1.66h-13Z"/></g></g></g></g></svg>