<?xml version="1.0" encoding="UTF-8"?>
<svg width="148px" height="89px" viewBox="0 0 148 89" version="1.1" xmlns="http://www.w3.org/2000/svg" xmlns:xlink="http://www.w3.org/1999/xlink">
    <!-- Generator: Sketch 50 (54983) - http://www.bohemiancoding.com/sketch -->
    <title>district0x_Logo Copy</title>
    <desc>Created with Sketch.</desc>
    <defs></defs>
    <g id="Page-1" stroke="none" stroke-width="1" fill="none" fill-rule="evenodd">
        <g id="zOS-web-01" transform="translate(-304.000000, -2626.000000)" fill="#FFFFFF">
            <g id="Group-22" transform="translate(304.000000, 2526.000000)">
                <g id="logos" transform="translate(0.000000, 100.000000)">
                    <g id="district0x_Logo-Copy">
                        <g id="Group" transform="translate(0.000000, 65.039843)" fill-rule="nonzero">
                            <path d="M15.8160232,0.370145446 L14.4407168,0.370145446 C13.5943745,0.370145446 13.1183069,0.846046734 13.1183069,1.69209347 L13.1183069,9.41226992 C11.7958969,7.50866477 9.89162656,6.71549595 7.77577061,6.71549595 C3.22668032,6.71549595 0.105792797,10.3640725 0.105792797,14.9644516 C0.105792797,19.5648307 3.22668032,23.2134073 7.77577061,23.2134073 C9.89162656,23.2134073 11.7958969,22.4202385 13.1183069,20.5166333 L13.1183069,21.5741917 C13.1183069,22.4202385 13.5943745,22.8961398 14.4407168,22.8961398 L15.8160232,22.8961398 C16.6623656,22.8961398 17.1384332,22.4202385 17.1384332,21.5741917 L17.1384332,1.69209347 C17.1384332,0.846046734 16.6623656,0.370145446 15.8160232,0.370145446 Z M8.56921659,19.8820983 C5.71281106,19.8820983 4.1259191,17.6612256 4.1259191,14.9644516 C4.1259191,12.2676776 5.76570746,10.046805 8.56921659,10.046805 C11.3198293,10.046805 13.2240997,12.1090439 13.2240997,14.9644516 C13.1712033,17.7669814 11.3198293,19.8820983 8.56921659,19.8820983 Z" id="Shape"></path>
                            <path d="M23.5917938,0.0528779209 C22.0577983,0.0528779209 21.0527667,1.05755842 21.0527667,2.37950644 C21.0527667,3.70145446 22.0577983,4.70613496 23.5917938,4.70613496 C25.1257894,4.70613496 26.130821,3.70145446 26.130821,2.37950644 C26.130821,1.11043634 25.1257894,0.0528779209 23.5917938,0.0528779209 Z" id="Shape"></path>
                            <path d="M24.279447,7.0856414 L22.9041406,7.0856414 C22.0577983,7.0856414 21.5817307,7.56154269 21.5817307,8.40758942 L21.5817307,21.5741917 C21.5817307,22.4202385 22.0577983,22.8961398 22.9041406,22.8961398 L24.279447,22.8961398 C25.1257894,22.8961398 25.601857,22.4202385 25.601857,21.5741917 L25.601857,8.40758942 C25.601857,7.56154269 25.1257894,7.0856414 24.279447,7.0856414 Z" id="Shape"></path>
                            <path d="M36.9216863,13.6953815 L34.8058303,12.9550906 C33.959488,12.690701 33.166042,12.2147997 33.166042,11.4216309 C33.166042,10.5227063 33.9065916,9.78241537 35.0703123,9.78241537 C35.7050691,9.78241537 36.3398259,9.94104913 36.7629971,10.5227063 C37.2390647,11.0514855 37.6622359,11.3158751 38.4027855,11.1572413 L39.143335,10.9457296 C39.9896774,10.7342179 40.465745,10.0996829 39.936781,9.25363616 C38.8259566,7.40290893 37.0274791,6.71549595 35.0174159,6.71549595 C31.7378392,6.71549595 29.4632941,8.77773487 29.4632941,11.5802647 C29.4632941,14.1712828 31.6320464,15.387475 33.6421096,16.02201 L35.6521727,16.7623009 C36.6572043,17.1324464 37.3448575,17.5554697 37.3448575,18.4015165 C37.3448575,19.406197 36.3927223,20.1464879 35.0174159,20.1464879 C33.9065916,20.1464879 32.9544564,19.7234645 32.4254924,19.0360515 C31.8965284,18.4543944 31.5262536,18.0842489 30.785704,18.2957606 L29.9922581,18.5072723 C29.1459157,18.718784 28.7227445,19.3004411 29.1459157,20.1464879 C30.2038437,22.2087268 32.4254924,23.2662852 35.0703123,23.2662852 C38.2969927,23.2662852 41.1005018,21.5741917 41.1005018,18.4015165 C41.0476054,16.5507892 40.0954702,14.700062 36.9216863,13.6953815 Z" id="Shape"></path>
                            <path d="M54.5361871,16.9738126 L52.8963987,16.9738126 C52.4203311,16.9738126 52.2616419,17.2382022 52.3145383,17.7669814 C52.3674347,17.9784931 52.3674347,18.1900048 52.3674347,18.3486386 C52.3674347,19.3004411 51.6268851,19.8820983 50.7805428,19.8820983 C49.9342004,19.8820983 49.2465472,19.3004411 49.2465472,17.8727373 L49.2465472,10.0996829 L53.1608807,10.0996829 C53.6369483,10.0996829 53.9014303,9.83529329 53.9014303,9.359392 L53.9014303,7.72017645 C53.9014303,7.29715308 53.6369483,6.97988556 53.1608807,6.97988556 L49.2465472,6.97988556 L49.2465472,3.70145446 C49.2465472,3.06691941 48.8762724,2.69677397 48.2415156,2.69677397 L47.1306912,2.69677397 C46.5488309,2.69677397 46.1256597,3.01404149 46.0198669,3.64857654 L45.4380065,7.03276348 L43.5337361,7.03276348 C43.0576685,7.03276348 42.7931866,7.29715308 42.7931866,7.77305437 L42.7931866,9.41226992 C42.7931866,9.88817121 43.0576685,10.1525608 43.5337361,10.1525608 L45.2793173,10.1525608 L45.2793173,17.7669814 C45.2793173,21.9972151 47.9241372,23.2134073 50.5160608,23.2134073 C53.4782591,23.2134073 55.5412186,21.6799476 55.5412186,18.718784 C55.5412186,18.6130282 55.4883222,18.0842489 55.3825294,17.5554697 C55.2238402,17.1324464 54.9064619,16.9738126 54.5361871,16.9738126 Z" id="Shape"></path>
                            <path d="M66.9668408,6.76837388 C66.8081516,6.71549595 66.4907732,6.71549595 66.332084,6.71549595 C64.6922956,6.71549595 62.6822325,7.87881021 62.1532685,10.5755842 L62.1532685,8.40758942 C62.1532685,7.56154269 61.6772009,7.0856414 60.8308585,7.0856414 L59.5084485,7.0856414 C58.6621062,7.0856414 58.1860386,7.56154269 58.1860386,8.40758942 L58.1860386,21.5741917 C58.1860386,22.4202385 58.6621062,22.8961398 59.5084485,22.8961398 L60.8837549,22.8961398 C61.7300973,22.8961398 62.2061649,22.4202385 62.2061649,21.5741917 L62.2061649,16.6565451 C62.2061649,11.4745088 64.4278136,10.5755842 65.9618092,10.5755842 C66.2262912,10.5755842 66.4907732,10.6284621 66.7552552,10.68134 C67.3371155,10.7870959 67.7073903,10.4169504 67.7073903,9.6237816 L67.7073903,8.0903219 C67.7602867,7.40290893 67.6544939,6.8212518 66.9668408,6.76837388 Z" id="Shape"></path>
                            <path d="M72.309377,0.0528779209 C70.7753815,0.0528779209 69.7703499,1.05755842 69.7703499,2.37950644 C69.7703499,3.70145446 70.7753815,4.70613496 72.309377,4.70613496 C73.8433726,4.70613496 74.8484042,3.70145446 74.8484042,2.37950644 C74.8484042,1.11043634 73.8433726,0.0528779209 72.309377,0.0528779209 Z" id="Shape"></path>
                            <path d="M73.0499266,7.0856414 L71.6217238,7.0856414 C70.7753815,7.0856414 70.2993139,7.56154269 70.2993139,8.40758942 L70.2993139,21.5741917 C70.2993139,22.4202385 70.7753815,22.8961398 71.6217238,22.8961398 L72.9970302,22.8961398 C73.8433726,22.8961398 74.3194402,22.4202385 74.3194402,21.5741917 L74.3194402,8.40758942 C74.3194402,7.56154269 73.8433726,7.0856414 73.0499266,7.0856414 Z" id="Shape"></path>
                            <path d="M86.8558867,10.0996829 C87.2261615,10.0996829 88.3898822,10.1525608 89.6064994,10.7342179 C90.3999454,11.1043634 90.9289094,11.0514855 91.4578734,10.4169504 L91.8281481,9.94104913 C92.3571121,9.25363616 92.2513193,8.56622319 91.5107698,8.0903219 C89.7651886,7.0856414 88.0196074,6.76837388 86.6443011,6.76837388 C80.9843864,6.76837388 77.6519133,10.5227063 77.6519133,15.1230854 C77.6519133,19.6177087 81.1430756,23.2134073 86.6443011,23.2134073 C87.9138146,23.2134073 89.553603,22.9490177 91.140495,22.1029709 C92.1455265,21.5741917 92.3042157,20.7810229 91.8281481,20.0936099 L91.4578734,19.6177087 C90.9818058,18.9831736 90.3999454,18.9302957 89.6064994,19.3004411 C88.4427786,19.8820983 87.2261615,19.9349762 86.8558867,19.9349762 C83.8407919,19.9349762 81.6191432,17.9256152 81.6191432,15.0173295 C81.6720396,12.1090439 83.8407919,10.0996829 86.8558867,10.0996829 Z" id="Shape"></path>
                            <path d="M106.110176,16.9738126 L104.417491,16.9738126 C103.941423,16.9738126 103.782734,17.2382022 103.835631,17.7669814 C103.888527,17.9784931 103.888527,18.1900048 103.888527,18.3486386 C103.888527,19.3004411 103.147977,19.8820983 102.301635,19.8820983 C101.455293,19.8820983 100.76764,19.3004411 100.76764,17.8727373 L100.76764,10.0996829 L104.681973,10.0996829 C105.158041,10.0996829 105.422523,9.83529329 105.422523,9.359392 L105.422523,7.72017645 C105.422523,7.29715308 105.158041,6.97988556 104.681973,6.97988556 L100.76764,6.97988556 L100.76764,3.70145446 C100.76764,3.06691941 100.397365,2.69677397 99.762608,2.69677397 L98.6517836,2.69677397 C98.0699232,2.69677397 97.646752,3.01404149 97.5409592,3.64857654 L96.9590988,7.03276348 L95.0548285,7.03276348 C94.5787609,7.03276348 94.3142789,7.29715308 94.3142789,7.77305437 L94.3142789,9.41226992 C94.3142789,9.88817121 94.5787609,10.1525608 95.0548285,10.1525608 L96.8004096,10.1525608 L96.8004096,17.7669814 C96.8004096,21.9972151 99.4452296,23.2134073 102.037153,23.2134073 C104.999351,23.2134073 107.062311,21.6799476 107.062311,18.718784 C107.062311,18.6130282 107.009415,18.0842489 106.903622,17.5554697 C106.797829,17.1324464 106.480451,16.9738126 106.110176,16.9738126 Z" id="Shape"></path>
                            <path d="M118.699519,0.740290893 C112.775122,0.740290893 109.178167,5.76369338 109.178167,12.003288 C109.178167,18.1900048 112.775122,23.2134073 118.699519,23.2134073 C124.623915,23.2134073 128.273767,18.1900048 128.273767,12.003288 C128.273767,5.76369338 124.571019,0.740290893 118.699519,0.740290893 Z M118.699519,4.12447783 C120.127721,4.12447783 121.344339,4.75901288 122.296474,5.76369338 L113.568568,15.2817191 C113.25119,14.2770386 113.0925,13.1666023 113.0925,11.9504101 C113.0925,7.61442061 115.208356,4.12447783 118.699519,4.12447783 Z M118.699519,19.8292203 C117.377109,19.8292203 116.213388,19.3004411 115.367046,18.4543944 L123.989159,9.04212447 C124.253641,9.94104913 124.359433,10.9457296 124.359433,12.056166 C124.306537,16.3392776 122.137785,19.8292203 118.699519,19.8292203 Z" id="Shape"></path>
                            <path d="M146.73461,21.2569242 L141.286281,14.700062 L146.205646,8.72485695 C146.946196,7.87881021 146.575921,7.0856414 145.4122,7.0856414 L143.931101,7.0856414 C143.243448,7.0856414 142.76738,7.35003101 142.291313,7.87881021 L138.641461,12.2147997 L134.991609,7.87881021 C134.568438,7.35003101 134.039474,7.0856414 133.404718,7.0856414 L131.923618,7.0856414 C130.759898,7.0856414 130.442519,7.82593229 131.130172,8.72485695 L136.049537,14.700062 L130.601208,21.2569242 C129.860659,22.1029709 130.230934,22.8961398 131.341758,22.8961398 L132.822857,22.8961398 C133.51051,22.8961398 133.986578,22.6846281 134.462646,22.1558489 L138.641461,17.1853243 L142.76738,22.1558489 C143.243448,22.6846281 143.719515,22.8961398 144.407168,22.8961398 L145.888268,22.8961398 C147.104885,22.8432618 147.47516,22.1029709 146.73461,21.2569242 Z" id="Shape"></path>
                        </g>
                        <g id="Group" transform="translate(50.371942, 0.000000)">
                            <path d="M21.2268026,32.6207804 C24.2978399,34.3724207 28.0045729,33.6822642 28.6927104,29.754518 C29.0636395,27.4721357 28.8513146,23.9157168 26.8393439,22.8010948 C20.167736,18.9789848 14.5545552,28.7993106 21.2268026,32.6207804" id="Fill-3"></path>
                            <path d="M24.3507932,7.24798816 C25.7801494,7.19484995 27.1046221,8.89335209 27.1570638,9.68978505 C27.2101451,10.486218 25.9387535,10.1673887 24.5624786,10.6449924 C23.02696,11.1757343 21.9148121,10.6981307 21.8617309,9.9023379 C21.8086497,9.10590494 22.8683558,7.30112637 24.3507932,7.24798816 M43.5188752,25.8265157 C42.5653315,22.1106822 43.9953272,19.5626088 45.8486938,19.6688853 C46.5234011,19.720743 47.502526,20.1336846 48.4381628,20.7995128 C48.0512453,18.9204688 47.434096,17.2136438 46.5899125,15.7942773 C44.8452666,12.8646332 41.0291734,8.61421642 36.2646528,5.26010684 L36.2646528,37.2922054 C36.2646528,39.096984 34.7822154,40.5297951 33.0343718,40.5297951 C31.7642593,40.5297951 30.6521115,39.7871406 30.1219387,38.6718783 C28.2161304,39.8402788 25.9918348,40.5297951 23.5564932,40.5297951 C16.6201187,40.5297951 11.0075774,34.9035468 11.0075774,27.9494833 C11.0075774,20.9960601 16.6201187,15.3698118 23.5564932,15.3698118 C25.8332306,15.3698118 27.9513638,16.0061899 29.8047303,17.0676737 L29.8047303,4.64741685 C29.8047303,3.644193 30.2249035,2.74660537 30.9584478,2.16208503 C24.7735245,-0.705457787 17.8281965,-1.28869769 11.9074003,3.95662008 C1.95306972,12.8217385 -3.02505487,25.1894974 1.95306972,37.5041181 L2.42952178,38.5124637 C2.58812595,38.0879982 2.79981136,37.7698091 3.11765925,37.4509799 C5.65916325,34.8504085 8.51851513,40.1584678 14.5019855,43.2904213 C18.4229621,45.2821439 20.6376648,47.9460969 21.4063834,50.4141428 C27.0406688,51.0754895 32.8565816,50.163817 37.4823235,47.4838585 C43.6550957,43.9357624 47.1904339,37.4138471 48.4183372,30.8868101 C47.2077013,31.7767151 45.9491005,32.249197 45.1605563,32.1960588 C43.3071898,32.0897824 44.3662564,29.1703818 43.5188752,25.8265157" id="Fill-5"></path>
                        </g>
                    </g>
                </g>
            </g>
        </g>
    </g>
</svg>