<?xml version="1.0" encoding="UTF-8"?>
<svg width="76px" height="90px" viewBox="0 0 76 90" version="1.1" xmlns="http://www.w3.org/2000/svg" xmlns:xlink="http://www.w3.org/1999/xlink">
    <!-- Generator: Sketch 50 (54983) - http://www.bohemiancoding.com/sketch -->
    <title>Group</title>
    <desc>Created with Sketch.</desc>
    <defs>
        <polygon id="path-1" points="0.109216508 0.101190441 9.48081923 0.101190441 9.48081923 13.5477249 0.109216508 13.5477249"></polygon>
    </defs>
    <g id="Page-1" stroke="none" stroke-width="1" fill="none" fill-rule="evenodd">
        <g id="zOS-web-01" transform="translate(-566.000000, -2626.000000)">
            <g id="Group-22" transform="translate(304.000000, 2526.000000)">
                <g id="logos" transform="translate(0.000000, 100.000000)">
                    <g id="Group" transform="translate(262.476190, 0.000000)">
                        <g id="Group-3" transform="translate(65.654422, 75.612487)">
                            <mask id="mask-2" fill="white">
                                <use xlink:href="#path-1"></use>
                            </mask>
                            <g id="Clip-2"></g>
                            <path d="M9.48081923,10.1197366 C7.95133533,13.7612521 3.4432537,14.6922819 0.109216508,11.9865002 C0.539366168,11.1794697 0.978005624,10.3571981 1.44909497,9.47358536 C1.9356546,9.76486144 2.36052172,10.0819158 2.834441,10.2847554 C3.28798476,10.4787513 3.78624145,10.6219432 4.27581968,10.665597 C4.99990494,10.7301368 5.70040744,10.5749025 5.92151946,9.74660965 C6.15772444,8.86205611 5.53174349,8.51357852 4.85105052,8.25109134 C4.32449451,8.04806363 3.78756209,7.87231953 3.25704417,7.67982894 C1.25835755,6.95502566 0.533706304,5.9398871 0.610680454,3.9779131 C0.683315374,2.12883681 1.80434576,0.706890181 3.65153669,0.276373589 C5.50250086,-0.155083818 7.24630494,0.239117345 8.9578478,1.14399247 C8.51600109,2.00032159 8.1049063,2.79681492 7.71079111,3.56075607 C7.02689088,3.3150154 6.43034122,3.01546014 5.79945506,2.89654122 C5.0902741,2.7629456 4.34581333,2.89052001 4.12696526,3.72539856 C3.91075846,4.55105713 4.61710948,4.78099213 5.19535891,5.01694834 C5.62965914,5.19400958 6.09244735,5.30013342 6.5380673,5.45085186 C7.94812807,5.92746835 9.01520109,6.76799179 9.48081923,8.23810811 L9.48081923,10.1197366 Z" id="Fill-1" fill="#FFFFFF" mask="url(#mask-2)"></path>
                        </g>
                        <path d="M41.2024134,82.3622083 C41.1863771,80.4190506 39.6282166,78.9308707 37.6170783,78.9376445 C35.6317867,78.9442302 34.0534393,80.4809562 34.0538166,82.4073674 C34.0541939,84.3200428 35.6566901,85.8930842 37.6153803,85.903245 C39.6312352,85.9137821 41.218827,84.3463856 41.2024134,82.3622083 M37.654622,75.730597 C41.7001041,75.7400051 44.6760606,78.545325 44.7041712,82.3759442 C44.7319046,86.2043055 41.6752007,89.1110452 37.6244361,89.1074701 C33.5587672,89.1040831 30.583754,86.2396801 30.6016769,82.3458382 C30.6192225,78.5110794 33.5936697,75.721377 37.654622,75.730597" id="Fill-4" fill="#FFFFFF"></path>
                        <path d="M18.7838621,81.7359648 C19.7773569,81.7237342 20.758966,81.8146168 21.1838331,80.8529165 C21.3747592,80.4205183 21.3224998,79.6776514 21.0600707,79.2928584 C20.5365333,78.5247776 19.6551039,78.5185683 18.7838621,78.6922426 L18.7838621,81.7359648 Z M26.027356,88.7454071 C24.611258,88.7454071 23.3991039,88.775325 22.1909116,88.7194406 C21.9598005,88.7087154 21.6894476,88.3967414 21.5311601,88.1611615 C20.6480327,86.8475966 19.7939592,85.5144629 18.7693351,84.2430465 L18.7693351,88.6774803 L15.5013297,88.6774803 L15.5013297,76.183091 C17.6349098,76.183091 19.7401905,76.043286 21.8166059,76.2273093 C23.4815492,76.3746408 24.6018249,77.8090062 24.7601125,79.4441413 C24.9633016,81.5470493 24.2694023,82.6568337 22.0880907,83.6158998 C23.3681633,85.2828344 24.6359728,86.9335871 26.027356,88.7454071 Z" id="Fill-6" fill="#FFFFFF"></path>
                        <path d="M3.30913379,81.8481475 C4.26621678,81.8238744 5.33310113,82.1732928 5.88116463,81.1884485 C6.14359365,80.7167243 6.12736871,79.8299128 5.84513016,79.3715481 C5.26329615,78.4269706 4.21810794,78.7895604 3.30913379,78.7867379 L3.30913379,81.8481475 Z M0,76.1622426 C2.1826322,76.1622426 4.32338141,76.0169808 6.43451066,76.2034502 C8.50960544,76.3867208 9.67685805,78.0813154 9.65176599,80.3738915 C9.62686259,82.6245074 8.45828934,84.1194612 6.39017506,84.4222152 C5.40366077,84.5667243 4.39488435,84.5623965 3.26140227,84.6338984 L3.26140227,86.6449829 L3.26140227,88.6788351 L0,88.6788351 L0,76.1622426 Z" id="Fill-8" fill="#FFFFFF"></path>
                        <path d="M54.244419,78.7723999 L54.244419,81.8799093 C55.2086712,81.798623 56.271405,82.1544389 56.7862639,81.1663958 C57.0307701,80.6973059 57.0226576,79.8754105 56.7655111,79.4149761 C56.2298993,78.4551574 55.1833905,78.7887701 54.244419,78.7723999 Z M50.8798186,76.1595706 C53.0466032,76.1595706 55.1845224,76.020142 57.295463,76.1988967 C59.3726331,76.3750171 60.5557333,78.0667893 60.5329052,80.3539087 C60.5102658,82.6267277 59.3603701,84.1132142 57.2918785,84.4197314 C56.3066848,84.5655576 55.2988517,84.5619826 54.1980082,84.6327318 L54.1980082,88.6786093 L50.8798186,88.6786093 L50.8798186,76.1595706 Z" id="Fill-10" fill="#FFFFFF"></path>
                        <polygon id="Fill-12" fill="#FFFFFF" points="31.0977451 36.0841772 44.0375147 36.0841772 44.0375147 23.1786521 31.0977451 23.1786521"></polygon>
                        <path d="M50.8796299,3.1358091 L50.8796299,42.9081663 L44.0376091,42.9081663 L31.0976508,42.9081663 L31.0976508,58.5559767 C33.1806694,59.017352 35.3453787,59.2627164 37.5676299,59.2627164 C53.9759528,59.2627164 67.2775764,45.9962949 67.2775764,29.6313958 C67.2775764,18.04 60.6034649,8.00508724 50.8796299,3.1358091" id="Fill-14" fill="#FFFFFF"></path>
                        <path d="M24.2556111,42.9081851 L24.2556111,16.354456 L31.0978206,16.354456 L44.0375902,16.354456 L44.0375902,0.70664557 C41.9545716,0.24527027 39.790051,-9.40814232e-05 37.5677997,-9.40814232e-05 C21.1592882,-9.40814232e-05 7.85766458,13.2663274 7.85766458,29.6312265 C7.85766458,41.2226223 14.5317761,51.2577232 24.2556111,56.1268132 L24.2556111,42.9081851 Z" id="Fill-15" fill="#FFFFFF"></path>
                    </g>
                </g>
            </g>
        </g>
    </g>
</svg>