<?xml version="1.0" encoding="UTF-8"?>
<svg width="119px" height="49px" viewBox="0 0 119 49" version="1.1" xmlns="http://www.w3.org/2000/svg" xmlns:xlink="http://www.w3.org/1999/xlink">
    <!-- Generator: Sketch 50 (54983) - http://www.bohemiancoding.com/sketch -->
    <title>Group 21</title>
    <desc>Created with Sketch.</desc>
    <defs>
        <polygon id="path-1" points="0.330805753 0.311686486 47.8748594 0.311686486 47.8748594 47.5675676 0.330805753 47.5675676"></polygon>
    </defs>
    <g id="Page-1" stroke="none" stroke-width="1" fill="none" fill-rule="evenodd">
        <g id="zOS-web-01" transform="translate(-304.000000, -2792.000000)">
            <g id="Group-22" transform="translate(304.000000, 2526.000000)">
                <g id="logos" transform="translate(0.000000, 100.000000)">
                    <g id="Group-21" transform="translate(0.000000, 166.486486)">
                        <g id="Group-3" transform="translate(2.791946, 0.000000)">
                            <mask id="mask-2" fill="white">
                                <use xlink:href="#path-1"></use>
                            </mask>
                            <g id="Clip-2"></g>
                            <path d="M24.1038297,3.17763243 C12.5814673,3.17763243 3.207707,12.4917586 3.207707,23.9392901 C3.207707,35.3888036 12.5814673,44.7037225 24.1038297,44.7037225 C35.6241979,44.7037225 44.9919755,35.3888036 44.9919755,23.9392901 C44.9919755,12.4917586 35.6241979,3.17763243 24.1038297,3.17763243 M24.1038297,47.5676865 C10.9932487,47.5676865 0.330805753,36.9688396 0.330805753,23.9392901 C0.330805753,10.9117225 10.9932487,0.311686486 24.1038297,0.311686486 C37.2112199,0.311686486 47.8748594,10.9117225 47.8748594,23.9392901 C47.8748594,36.9688396 37.2112199,47.5676865 24.1038297,47.5676865" id="Fill-1" fill="#FFFFFF" mask="url(#mask-2)"></path>
                        </g>
                        <path d="M29.0295011,6.36565045 L26.9977618,8.38846126 L33.4296084,14.7851099 C30.836688,14.8453622 26.5797676,15.1719928 21.83306,16.4614703 C17.3388242,17.6827676 13.3455432,19.5200649 9.95213193,21.920245 C5.68843106,24.9447495 2.38675513,28.8643171 0.137244104,33.5711279 C-0.199384851,34.2834523 0.104139597,35.1392721 0.8208721,35.4773982 C1.02149338,35.5709477 1.234479,35.6165333 1.43829108,35.6165333 C1.97913097,35.6165333 2.49643873,35.3136865 2.74173116,34.7979748 C6.43388073,27.0626955 13.0834991,21.8282811 22.5095087,19.2457586 C26.9339459,18.0323892 30.9754876,17.7184432 33.4252211,17.6554162 L28.2393802,22.808173 L30.2767034,24.8317766 L38.9417081,16.2180829 L29.0295011,6.36565045 Z" id="Fill-4" fill="#FFFFFF"></path>
                        <path d="M52.9639394,12.4027676 C52.2468081,12.0626595 51.3880851,12.3686775 51.0490631,13.0845694 C47.355717,20.8174703 40.7041043,26.0487135 31.2788924,28.6348036 C26.8512644,29.848173 22.8129135,30.1633081 20.3679663,30.2259387 L25.5534082,25.0719928 L23.5140909,23.0483892 L14.8482884,31.6644613 L24.756507,41.5145153 L26.7950267,39.4905153 L20.3587927,33.0942631 C22.9529097,33.0359928 27.2098301,32.7073802 31.9581331,31.4198847 C36.4507735,30.1989838 40.4440545,28.3593081 43.8338761,25.9599207 C48.1031609,22.9370018 51.4032414,19.0170378 53.6523536,14.3094342 C53.9921733,13.5943351 53.6866547,12.7408937 52.9639394,12.4027676" id="Fill-6" fill="#FFFFFF"></path>
                        <path d="M67.5788211,38.5713117 C67.0922247,39.0707712 66.5310435,39.3224829 65.8988671,39.3224829 C65.5151739,39.3224829 65.154614,39.2404288 64.8247655,39.084645 C64.4961135,38.9252937 64.2097396,38.7100505 63.9656437,38.4401045 C63.7251375,38.1741225 63.5320943,37.8597802 63.3944913,37.504609 C63.2568882,37.1518162 63.1894826,36.7796 63.1894826,36.3927171 C63.1894826,36.0042486 63.2568882,35.6371856 63.3944913,35.2887532 C63.5320943,34.9371495 63.7251375,34.6319243 63.9656437,34.3687171 C64.2097396,34.1047171 64.4981078,33.896609 64.8347367,33.7451856 C65.1717645,33.5894018 65.5347175,33.5140865 65.9323705,33.5140865 C66.4807885,33.5140865 66.9434539,33.6266631 67.3179735,33.8557802 C67.6912966,34.0845009 67.9740809,34.3893297 68.161939,34.7639243 L67.4655478,35.262591 C67.3072046,34.9541946 67.0922247,34.7171495 66.8150244,34.562555 C66.5426102,34.405582 66.2394846,34.3266991 65.9060464,34.3266991 C65.6344299,34.3266991 65.3895363,34.3869514 65.1681749,34.5007171 C64.9440215,34.6172577 64.7585565,34.7710595 64.5990167,34.9609333 C64.4422688,35.1523928 64.3218163,35.3739784 64.2396533,35.6268793 C64.1546984,35.8793838 64.1124203,36.144573 64.1124203,36.4165009 C64.1124203,36.7090414 64.1618777,36.9821586 64.2568038,37.2326811 C64.35173,37.485582 64.4809572,37.7063748 64.6440867,37.8926811 C64.8088115,38.0817622 65.00345,38.229618 65.2311931,38.3414018 C65.4581384,38.4504108 65.7066217,38.5051135 65.9710589,38.5051135 C66.2642132,38.5051135 66.5426102,38.4393117 66.8094405,38.3061225 C67.0786639,38.1693658 67.3375172,37.9576901 67.5788211,37.6675279 L67.5788211,37.0527171 L66.3687118,37.0527171 L66.3687118,36.3836 L68.3406236,36.3836 L68.3406236,39.2804649 L67.5788211,39.2804649 L67.5788211,38.5713117 Z" id="Fill-8" fill="#FFFFFF"></path>
                        <path d="M69.2739314,33.3923928 L70.1681519,33.3923928 L70.1681519,38.0611495 C70.1681519,38.2181225 70.2084357,38.3414018 70.2874079,38.4290054 C70.3687732,38.5189874 70.4844395,38.5621946 70.6280253,38.5621946 C70.6910435,38.5621946 70.7572525,38.5506991 70.8374213,38.5300865 C70.9151969,38.5098703 70.9885852,38.4848973 71.0559908,38.4559604 L71.1888077,39.151636 C71.0559908,39.2110955 70.9048268,39.2586631 70.7265411,39.2931495 C70.5510474,39.3268432 70.3907099,39.3450775 70.2495172,39.3450775 C69.9392123,39.3450775 69.7022957,39.2610414 69.5315881,39.0949514 C69.3600828,38.9296541 69.2739314,38.6918162 69.2739314,38.3857982 L69.2739314,33.3923928 Z" id="Fill-10" fill="#FFFFFF"></path>
                        <path d="M72.4098056,37.1850739 C72.4098056,37.3900108 72.4393204,37.5743351 72.5071248,37.7483532 C72.5709407,37.9199928 72.6594853,38.068245 72.7727586,38.1954883 C72.8896215,38.3219387 73.0212418,38.422227 73.1759954,38.4939748 C73.3303501,38.5677045 73.4942773,38.604173 73.677748,38.604173 C73.8540395,38.604173 74.0187643,38.5677045 74.1747145,38.4939748 C74.3282715,38.422227 74.4610884,38.3207495 74.5767547,38.1911279 C74.6888314,38.0611099 74.7777749,37.9120649 74.8443827,37.7380468 C74.9054067,37.5695784 74.9373147,37.3808937 74.9373147,37.1755604 C74.9373147,36.9753802 74.9054067,36.7886775 74.8443827,36.6158486 C74.7777749,36.4406414 74.6888314,36.2880288 74.5767547,36.1592 C74.4610884,36.0287856 74.3282715,35.9304793 74.1747145,35.8555604 C74.0187643,35.7850018 73.8540395,35.7485333 73.677748,35.7485333 C73.4998612,35.7485333 73.335934,35.786191 73.182377,35.8599207 C73.0304153,35.9364252 72.8920146,36.0398847 72.7819321,36.1663351 C72.6662658,36.2971459 72.5757269,36.4485694 72.5115122,36.6225874 C72.4429101,36.7966054 72.4098056,36.9844973 72.4098056,37.1850739 M73.677748,39.3620829 C73.3395237,39.3620829 73.0371958,39.3018306 72.7703655,39.1856865 C72.5003444,39.0663712 72.273399,38.9070198 72.0859398,38.7076324 C71.8952897,38.5098306 71.7501085,38.2775423 71.6436157,38.011164 C71.5439034,37.7447856 71.4888621,37.4649297 71.4888621,37.1755604 C71.4888621,36.8853982 71.5439034,36.6067315 71.6436157,36.3427315 C71.7501085,36.075164 71.8952897,35.8416865 72.0887317,35.6446775 C72.2801795,35.4433081 72.5115122,35.2863351 72.7775448,35.168209 C73.0451728,35.0473081 73.3478995,34.990227 73.677748,34.990227 C74.0064,34.990227 74.3027452,35.0473081 74.570772,35.168209 C74.8387988,35.2863351 75.0701315,35.4433081 75.2611804,35.6446775 C75.4538247,35.8416865 75.601399,36.075164 75.7047011,36.3427315 C75.8076042,36.6067315 75.8582581,36.8853982 75.8582581,37.1755604 C75.8582581,37.4649297 75.8076042,37.7447856 75.7047011,38.011164 C75.601399,38.2775423 75.4538247,38.5098306 75.2611804,38.7076324 C75.0701315,38.9070198 74.8387988,39.0663712 74.570772,39.1856865 C74.3027452,39.3018306 74.0064,39.3620829 73.677748,39.3620829" id="Fill-12" fill="#FFFFFF"></path>
                        <path d="M78.6480506,38.6040144 C78.8422903,38.6040144 79.0213737,38.5643748 79.1841043,38.4858883 C79.346436,38.4074018 79.4864322,38.3063207 79.6016997,38.1747171 C79.7197592,38.0462847 79.8091014,37.8972396 79.8709231,37.7279784 C79.9395252,37.5583207 79.9702366,37.3807351 79.9702366,37.1916541 C79.9702366,37.002573 79.9395252,36.8230054 79.8789001,36.6474018 C79.8174773,36.4733838 79.7289327,36.3199784 79.6192491,36.1867892 C79.505577,36.055582 79.3771475,35.9489514 79.2223939,35.8692757 C79.0672414,35.7892036 78.8973315,35.7483748 78.7142596,35.7483748 C78.4386547,35.7483748 78.1909691,35.8371676 77.9779835,36.0147532 C77.7634025,36.1911495 77.6034639,36.4071856 77.4889941,36.6588973 L77.4889941,37.7707892 C77.520902,37.8952577 77.5759432,38.0090234 77.6593028,38.1081225 C77.7398704,38.2072216 77.8383862,38.293636 77.9412894,38.3697441 C78.0501753,38.4434739 78.1670382,38.5029333 78.2914792,38.542573 C78.4143248,38.582609 78.5311877,38.6040144 78.6480506,38.6040144 M78.8825741,39.3623207 C78.5626968,39.3623207 78.2651551,39.2850234 78.0019145,39.1312216 C77.7410669,38.9797982 77.5332663,38.7736721 77.3809058,38.5144288 L77.3809058,39.2806631 L76.598762,39.2806631 L76.598762,33.392591 L77.4889941,33.392591 L77.4889941,35.8601586 C77.6549154,35.5914018 77.8643114,35.3785369 78.1151877,35.2227532 C78.3684571,35.0677622 78.6671954,34.9904649 79.0062174,34.9904649 C79.2858109,34.9904649 79.5422711,35.0471495 79.7748004,35.1704288 C80.011717,35.2921225 80.2087486,35.4534559 80.3726757,35.6552216 C80.536204,35.8554018 80.6646336,36.0896721 80.753577,36.3564468 C80.8469078,36.6224288 80.888787,36.9003027 80.888787,37.1916541 C80.888787,37.4933117 80.8373354,37.7755459 80.7364265,38.0387532 C80.6327256,38.3027532 80.4879432,38.5322667 80.3152414,38.7292757 C80.1345626,38.9250955 79.9235712,39.0812757 79.6786777,39.1922667 C79.4278013,39.305636 79.1681503,39.3623207 78.8825741,39.3623207" id="Fill-14" fill="#FFFFFF"></path>
                        <path d="M83.1156433,38.7077514 C83.3342128,38.7077514 83.5380249,38.6689045 83.73386,38.5916072 C83.9217181,38.5143099 84.0696913,38.4037153 84.181768,38.2649766 C84.2938447,38.1670667 84.351279,38.0644 84.351279,37.9577694 L84.351279,37.4012288 C84.1989185,37.3421658 84.0393787,37.2965802 83.8678734,37.2644721 C83.6983624,37.2327604 83.5312445,37.2145261 83.3685139,37.2145261 C83.0490355,37.2145261 82.7881879,37.2827063 82.5875666,37.421445 C82.382558,37.5582018 82.2816491,37.7381658 82.2816491,37.9664901 C82.2816491,38.1749946 82.3606213,38.3525802 82.5165714,38.4936973 C82.6745158,38.6371928 82.8747383,38.7077514 83.1156433,38.7077514 M82.8747383,39.3622018 C82.6701285,39.3622018 82.4762876,39.3269225 82.2999962,39.2611207 C82.128092,39.1941297 81.9761304,39.1005802 81.8484986,38.9820577 C81.7216644,38.8647243 81.619559,38.7236072 81.5473672,38.5622739 C81.4731812,38.4005441 81.4400767,38.2253369 81.4400767,38.0386342 C81.4400767,37.8392468 81.4811582,37.6604721 81.5681074,37.4991387 C81.6554554,37.337409 81.7779022,37.1962919 81.9358466,37.0777694 C82.0949875,36.9592468 82.2852387,36.8684721 82.5050048,36.8046523 C82.7251697,36.7388505 82.9664736,36.7091207 83.2321074,36.7091207 C83.4303356,36.7091207 83.6297603,36.7249766 83.8243988,36.7590667 C84.0202339,36.7955351 84.1965254,36.8411207 84.351279,36.9001838 L84.351279,36.6112108 C84.351279,36.2992468 84.2619367,36.0558595 84.0820556,35.8806523 C83.9021745,35.707427 83.6469108,35.617445 83.3122761,35.617445 C83.0869262,35.617445 82.8623739,35.6594631 82.6446021,35.7438955 C82.424836,35.8271387 82.1966942,35.9488324 81.9653615,36.103427 L81.6897565,35.5389586 C82.2369779,35.1746703 82.8029453,34.9903459 83.3912483,34.9903459 C83.9755628,34.9903459 84.4314477,35.1385982 84.7565101,35.4343099 C85.0843643,35.7280396 85.2466961,36.1537694 85.2466961,36.7091207 L85.2466961,38.2320757 C85.2466961,38.4219495 85.3212809,38.5186703 85.4792253,38.5246162 L85.4792253,39.2805441 C85.3910796,39.2971928 85.315697,39.3063099 85.2558696,39.313445 C85.1940479,39.3189946 85.1322263,39.3221658 85.0723988,39.3221658 C84.899697,39.3221658 84.7668802,39.2769766 84.6703586,39.1925441 C84.576629,39.1073189 84.5203912,38.9967243 84.4976568,38.8615532 L84.4733269,38.5951748 C84.2802838,38.8421297 84.0501477,39.0331928 83.7717507,39.1632108 C83.4909607,39.2952108 83.1918236,39.3622018 82.8747383,39.3622018" id="Fill-16" fill="#FFFFFF"></path>
                        <path d="M86.2246351,33.3923928 L87.1156648,33.3923928 L87.1156648,38.0611495 C87.1156648,38.2181225 87.1559486,38.3414018 87.2361174,38.4290054 C87.3194769,38.5189874 87.4327501,38.5621946 87.5787291,38.5621946 C87.6369611,38.5621946 87.7103494,38.5506991 87.7845354,38.5300865 C87.8615133,38.5098703 87.939289,38.4848973 88.0090876,38.4559604 L88.1383149,39.151636 C88.0090876,39.2110955 87.8555306,39.2586631 87.676846,39.2931495 C87.4981615,39.3268432 87.3390205,39.3450775 87.1970301,39.3450775 C86.8903149,39.3450775 86.6482132,39.2610414 86.4802976,39.0949514 C86.3060004,38.9296541 86.2246351,38.6918162 86.2246351,38.3857982 L86.2246351,33.3923928 Z" id="Fill-18" fill="#FFFFFF"></path>
                        <path d="M90.4725415,33.3923928 L91.3671609,33.3923928 L91.3671609,38.0611495 C91.3671609,38.2181225 91.4034562,38.3414018 91.4884111,38.4290054 C91.5685799,38.5189874 91.6806566,38.5621946 91.8282309,38.5621946 C91.8856652,38.5621946 91.9566604,38.5506991 92.0356326,38.5300865 C92.111414,38.5098703 92.1891896,38.4848973 92.2581906,38.4559604 L92.3850247,39.151636 C92.2581906,39.2110955 92.1058301,39.2586631 91.9279432,39.2931495 C91.7480621,39.3268432 91.5869269,39.3450775 91.4493239,39.3450775 C91.1378224,39.3450775 90.8997093,39.2610414 90.7325914,39.0949514 C90.5594907,38.9296541 90.4725415,38.6918162 90.4725415,38.3857982 L90.4725415,33.3923928 Z" id="Fill-20" fill="#FFFFFF"></path>
                        <path d="M96.2320874,36.8523784 C96.212145,36.6751892 96.1714623,36.5122703 96.0968775,36.3608468 C96.0214949,36.2106126 95.9293607,36.0817838 95.8136943,35.9763423 C95.7028142,35.8712973 95.5699973,35.7916216 95.4164403,35.7325586 C95.2676694,35.6711171 95.1049388,35.644955 94.9414105,35.644955 C94.7703041,35.644955 94.6147528,35.6711171 94.4647854,35.7325586 C94.3160146,35.7916216 94.187585,35.8712973 94.0719187,35.9763423 C93.9586454,36.0817838 93.864517,36.2106126 93.7975103,36.3608468 C93.7249197,36.5122703 93.6810462,36.6751892 93.6646934,36.8523784 L96.2320874,36.8523784 Z M94.9414105,39.3623604 C94.6079724,39.3623604 94.3104307,39.3044865 94.0400107,39.1883423 C93.7671977,39.0721982 93.5382581,38.914036 93.3436196,38.717027 C93.1533684,38.5188288 93.0069906,38.2869369 92.8993012,38.0225405 C92.7916119,37.7597297 92.740958,37.4798739 92.740958,37.184955 C92.740958,36.8876577 92.7916119,36.6066126 92.8993012,36.3426126 C93.0069906,36.0754414 93.1533684,35.841964 93.3436196,35.6394054 C93.5382581,35.4376396 93.7671977,35.2782883 94.0400107,35.1633333 C94.3104307,35.0471892 94.6123597,34.9905045 94.9493875,34.9905045 C95.2788372,34.9905045 95.5767778,35.0471892 95.8424115,35.1680901 C96.1128314,35.2866126 96.3397768,35.4431892 96.5296291,35.6394054 C96.7210769,35.8352252 96.8626685,36.0635495 96.9647739,36.3251712 C97.0632897,36.5863964 97.1151402,36.8583243 97.1151402,37.1425405 C97.1151402,37.2087387 97.1135448,37.2666126 97.1079609,37.3248829 C97.102377,37.3827568 97.0944,37.4283423 97.0908104,37.4648108 L93.6918151,37.4648108 C93.705376,37.6562703 93.7512437,37.8247387 93.8234355,37.974973 C93.898818,38.1252072 93.9893569,38.2548288 94.1086128,38.3662162 C94.2254757,38.4756216 94.3582926,38.5600541 94.5050692,38.6191171 C94.6550366,38.6805586 94.8117845,38.7079099 94.9733185,38.7079099 C95.0889849,38.7079099 95.2094374,38.694036 95.327098,38.6623243 C95.4395735,38.6325946 95.5480606,38.5913694 95.6441833,38.5362703 C95.7438957,38.478 95.8300472,38.4094234 95.9070251,38.328955 C95.9824077,38.2480901 96.0386454,38.1604865 96.0853108,38.0613874 L96.8467145,38.2798018 C96.7015333,38.5973153 96.4586339,38.856955 96.122005,39.0583243 C95.7829829,39.2608829 95.3857289,39.3623604 94.9414105,39.3623604 Z" id="Fill-22" fill="#FFFFFF"></path>
                        <path d="M101.598647,39.2804649 L100.704028,39.2804649 L100.704028,36.9187351 C100.704028,36.5199604 100.640212,36.2309874 100.514973,36.0522126 C100.388139,35.8714559 100.199084,35.7802847 99.9494044,35.7802847 C99.8161887,35.7802847 99.6869615,35.8052577 99.5601273,35.8532216 C99.4328943,35.9007892 99.3056614,35.9701586 99.1935847,36.0593477 C99.0835022,36.1481405 98.9813967,36.2516 98.8900602,36.3744829 C98.8019145,36.4930054 98.7329135,36.6269874 98.6850516,36.7728613 L98.6850516,39.2804649 L97.7916288,39.2804649 L97.7916288,35.0643928 L98.6048828,35.0643928 L98.6048828,35.9091135 C98.766018,35.6245009 98.9985473,35.4001405 99.3056614,35.2340505 C99.6195559,35.0723207 99.9585779,34.9902667 100.331901,34.9902667 C100.585968,34.9902667 100.796561,35.0346631 100.9561,35.1270234 C101.121224,35.2177982 101.249255,35.3430595 101.34099,35.5012216 C101.437113,35.6593838 101.504917,35.8441045 101.540814,36.0522126 C101.57671,36.2583387 101.598647,36.4779423 101.598647,36.7090414 L101.598647,39.2804649 Z" id="Fill-24" fill="#FFFFFF"></path>
                        <path d="M104.586149,38.6040144 C104.715775,38.6040144 104.847794,38.5814198 104.979415,38.5394018 C105.105451,38.4950054 105.226701,38.4355459 105.333194,38.360627 C105.444074,38.2868973 105.53581,38.1957261 105.614782,38.0978162 C105.691361,37.9951495 105.751188,37.882573 105.782299,37.765636 L105.782299,36.6588973 C105.730448,36.5245189 105.665436,36.4004468 105.5737,36.2878703 C105.485555,36.1752937 105.381455,36.0773838 105.268979,35.9977081 C105.155706,35.9168432 105.035653,35.8542126 104.906026,35.8129874 C104.77999,35.7689874 104.65156,35.7483748 104.522333,35.7483748 C104.345643,35.7483748 104.176531,35.7892036 104.029754,35.8692757 C103.882978,35.9489514 103.752554,36.055582 103.645263,36.1911495 C103.539568,36.3251315 103.451422,36.4789333 103.394387,36.6521586 C103.326583,36.8253838 103.297068,37.000591 103.297068,37.1849153 C103.297068,37.377564 103.330571,37.5618883 103.401167,37.7311495 C103.46618,37.9039784 103.557915,38.0557982 103.680362,38.1842306 C103.797225,38.3138523 103.934828,38.4153297 104.089183,38.4914378 C104.23915,38.5667532 104.406667,38.6040144 104.586149,38.6040144 M104.368776,39.3623207 C104.082402,39.3623207 103.817965,39.3044468 103.571875,39.1883027 C103.330571,39.0721586 103.117984,38.9139964 102.938502,38.7169874 C102.761014,38.5187892 102.618625,38.2833297 102.519311,38.0177441 C102.42279,37.7529514 102.371338,37.4647712 102.371338,37.1587532 C102.371338,36.8638342 102.418402,36.5863568 102.513727,36.3251315 C102.608653,36.0635099 102.742667,35.8351856 102.910981,35.634609 C103.082487,35.435618 103.281513,35.2782486 103.51125,35.1632937 C103.741386,35.0471495 103.99665,34.9904649 104.269064,34.9904649 C104.614866,34.9904649 104.91161,35.0725189 105.172857,35.2338523 C105.43171,35.3999423 105.634326,35.6084468 105.782299,35.8601586 L105.782299,33.392591 L106.671733,33.392591 L106.671733,38.2321946 C106.671733,38.3332757 106.691277,38.4050234 106.727173,38.4494198 C106.760278,38.4938162 106.82529,38.5187892 106.918222,38.5247351 L106.918222,39.2806631 C106.82529,39.2973117 106.751104,39.3064288 106.69367,39.313564 C106.635438,39.3191135 106.589171,39.3222847 106.549685,39.3222847 C106.374191,39.3222847 106.227415,39.2766991 106.116535,39.1859243 C105.998475,39.0927712 105.936653,38.9742486 105.926283,38.8283748 L105.911526,38.5144288 C105.755975,38.7780324 105.538203,38.9853477 105.268979,39.1379604 C104.999756,39.2870054 104.697428,39.3623207 104.368776,39.3623207" id="Fill-26" fill="#FFFFFF"></path>
                        <path d="M107.85488,39.2805045 L108.747106,39.2805045 L108.747106,35.0644324 L107.85488,35.0644324 L107.85488,39.2805045 Z M107.85488,34.3687568 L108.747106,34.3687568 L108.747106,33.3924324 L107.85488,33.3924324 L107.85488,34.3687568 Z" id="Fill-28" fill="#FFFFFF"></path>
                        <path d="M113.525203,39.2804649 L112.627393,39.2804649 L112.627393,36.9187351 C112.627393,36.5199604 112.565572,36.2309874 112.440333,36.0522126 C112.308713,35.8714559 112.125641,35.7802847 111.875562,35.7802847 C111.745138,35.7802847 111.614714,35.8052577 111.483094,35.8532216 C111.355063,35.9007892 111.235807,35.9701586 111.120141,36.0593477 C111.006868,36.1481405 110.905959,36.2516 110.81542,36.3744829 C110.728072,36.4930054 110.657476,36.6269874 110.607221,36.7728613 L110.607221,39.2804649 L109.713399,39.2804649 L109.713399,35.0643928 L110.52785,35.0643928 L110.52785,35.9091135 C110.687389,35.6245009 110.925503,35.4001405 111.235807,35.2340505 C111.542523,35.0723207 111.880348,34.9902667 112.256064,34.9902667 C112.508137,34.9902667 112.717932,35.0346631 112.88146,35.1270234 C113.044191,35.2177982 113.171025,35.3430595 113.265552,35.5012216 C113.357687,35.6593838 113.427884,35.8441045 113.466971,36.0522126 C113.504463,36.2583387 113.525203,36.4779423 113.525203,36.7090414 L113.525203,39.2804649 Z" id="Fill-30" fill="#FFFFFF"></path>
                        <path d="M116.532528,38.6040144 C116.666542,38.6040144 116.801752,38.5802306 116.919811,38.5362306 C117.044252,38.4894559 117.162312,38.4280144 117.26681,38.3479423 C117.371708,38.2710414 117.46464,38.1830414 117.538826,38.0831495 C117.617,37.9828613 117.670047,37.8758342 117.701955,37.765636 L117.701955,36.6588973 C117.64811,36.5245189 117.574722,36.4020324 117.489767,36.2914378 C117.405211,36.1808432 117.304302,36.0853117 117.19422,36.0044468 C117.082542,35.9247712 116.96528,35.8601586 116.841637,35.814573 C116.717993,35.7713658 116.59435,35.7483748 116.468314,35.7483748 C116.276068,35.7483748 116.09858,35.7892036 115.944624,35.8712577 C115.790668,35.9556901 115.66184,36.0670775 115.552156,36.2038342 C115.441276,36.342573 115.360709,36.4928072 115.297691,36.6680144 C115.239857,36.8388613 115.208747,37.0164468 115.208747,37.2007712 C115.208747,37.3942126 115.243048,37.5741766 115.310853,37.7450234 C115.379056,37.9119063 115.472387,38.0613477 115.588851,38.186609 C115.710101,38.3138523 115.851294,38.4153297 116.012429,38.4914378 C116.169575,38.5667532 116.343075,38.6040144 116.532528,38.6040144 M116.238178,39.3222847 C115.953,39.3222847 115.693349,39.2632216 115.456034,39.1494559 C115.214331,39.0333117 115.009721,38.8763387 114.842204,38.6761586 C114.6703,38.4767712 114.539877,38.2480505 114.443754,37.9907892 C114.348429,37.7311495 114.301365,37.4604108 114.301365,37.1754018 C114.301365,36.8741405 114.348429,36.5907171 114.446945,36.3251315 C114.544264,36.0591495 114.677081,35.8272577 114.851378,35.6302486 C115.025675,35.435618 115.232678,35.2782486 115.473184,35.1632937 C115.713691,35.0471495 115.981717,34.9904649 116.276068,34.9904649 C116.61509,34.9904649 116.912632,35.0725189 117.168295,35.2338523 C117.427946,35.3920144 117.640931,35.6025009 117.804858,35.8601586 L117.804858,35.064591 L118.592586,35.064591 L118.592586,39.1597622 C118.592586,39.4657802 118.535152,39.7365189 118.424272,39.9755459 C118.310201,40.2102126 118.152655,40.4103928 117.949242,40.5756901 C117.746626,40.740591 117.505721,40.8634739 117.23211,40.9498883 C116.955309,41.0355099 116.656172,41.0787171 116.335497,41.0787171 C115.869242,41.0787171 115.476774,41.0002306 115.16607,40.8420685 C114.855765,40.6815279 114.591328,40.4607351 114.380337,40.1761225 L114.884482,39.709564 C115.048011,39.9347171 115.256609,40.105564 115.514266,40.2236901 C115.771125,40.3410234 116.045932,40.4036541 116.335497,40.4036541 C116.522557,40.4036541 116.697253,40.3763027 116.863175,40.3299243 C117.028298,40.2819604 117.168295,40.2046631 117.293932,40.105564 C117.423558,40.0017081 117.521276,39.8732757 117.591873,39.7163027 C117.664064,39.5617081 117.701955,39.3750054 117.701955,39.1597622 L117.701955,38.5144288 C117.549196,38.7736721 117.340996,38.9706811 117.074964,39.110609 C116.814116,39.2517261 116.532528,39.3222847 116.238178,39.3222847" id="Fill-31" fill="#FFFFFF"></path>
                        <path d="M68.1996702,18.0312793 L72.3397277,18.0312793 C72.8733883,18.0312793 73.3360537,17.7763964 73.7209434,17.272973 C74.1126136,16.7711351 74.3028648,16.1258018 74.3028648,15.3405405 C74.3028648,14.5346667 74.0783126,13.8936937 73.6375839,13.418018 C73.1960575,12.939964 72.7166405,12.7045045 72.2021246,12.7045045 L68.1996702,12.7045045 L68.1996702,18.0312793 Z M63.6667459,28.2420541 L63.6667459,8.75005405 L72.508441,8.75005405 C73.4277891,8.75005405 74.2797315,8.94151351 75.0630719,9.32641441 C75.8440192,9.71091892 76.5196702,10.2151351 77.0960077,10.8378739 C77.6607785,11.4578378 78.109883,12.1638198 78.4337488,12.9502703 C78.7532272,13.7367207 78.915559,14.5346667 78.915559,15.3405405 C78.915559,15.9438559 78.8425695,16.5241802 78.6969895,17.0830991 C78.5470221,17.6408288 78.335233,18.1664505 78.0560384,18.6603604 C77.7816299,19.1546667 77.4485906,19.5998198 77.0513365,19.9922523 C76.6528859,20.3850811 76.2121572,20.7196396 75.7092081,20.9939459 L80.0199732,28.2420541 L74.911908,28.2420541 L71.1543471,21.9556036 L68.1996702,21.9556036 L68.1996702,28.2420541 L63.6667459,28.2420541 Z" id="Fill-32" fill="#FFFFFF"></path>
                        <path d="M81.0263501,18.3293297 C81.0263501,17.1627351 81.2489081,15.9937622 81.6884403,14.8295459 C82.1295678,13.6673117 82.7753051,12.6291495 83.6240568,11.7150595 C84.4692188,10.7977982 85.4986493,10.0581225 86.7207241,9.49127568 C87.9312322,8.92323964 89.314841,8.63981622 90.8567931,8.63981622 C92.7002754,8.63981622 94.2964709,9.03264505 95.6525592,9.82028468 C97.0058554,10.6091135 98.013748,11.634591 98.6770347,12.8967171 L95.1974719,15.3119604 C94.9769081,14.7998162 94.6941239,14.3732937 94.354703,14.0351676 C94.0124901,13.696645 93.639167,13.4203568 93.2335371,13.2122486 C92.8306991,13.000573 92.415098,12.8535099 91.9919187,12.7714559 C91.5659475,12.6894018 91.1527394,12.648573 90.748306,12.648573 C89.8839992,12.648573 89.1301737,12.8237802 88.4852341,13.168645 C87.8394968,13.5182667 87.3034431,13.9654018 86.8810616,14.5152036 C86.4594777,15.0638162 86.1447854,15.686555 85.9441641,16.3830234 C85.7403521,17.0794919 85.6374489,17.7842847 85.6374489,18.496609 C85.6374489,19.263636 85.7575026,20.0056901 85.9980088,20.7196 C86.2353243,21.4311315 86.5835198,22.0661586 87.0342198,22.6147712 C87.4845208,23.1621946 88.0277538,23.5994198 88.6663118,23.9181225 C89.2960951,24.2392036 90.0120299,24.3993477 90.8049427,24.3993477 C91.2101737,24.3993477 91.6293645,24.3470234 92.0657058,24.2479243 C92.4952667,24.1480324 92.9072782,23.9918523 93.3045323,23.7801766 C93.7009887,23.5720685 94.0639417,23.2977622 94.3949868,22.9572577 C94.7292226,22.6203207 94.990469,22.2017261 95.1974719,21.706627 L98.8983962,23.8768973 C98.6024499,24.5892216 98.1685016,25.2337622 97.5857826,25.7982306 C97.0058554,26.3650775 96.3349906,26.8423387 95.5835582,27.2256541 C94.8281373,27.610555 94.0284441,27.9038883 93.1765016,28.1044649 C92.3313396,28.3070234 91.5025304,28.4057261 90.6932648,28.4057261 C89.277748,28.4057261 87.9735103,28.1191315 86.7869331,27.5443568 C85.5983616,26.9683928 84.5753128,26.2013658 83.7153933,25.249618 C82.8642485,24.2970775 82.2001641,23.2200685 81.7323137,22.0102667 C81.2600759,20.8016541 81.0263501,19.5767892 81.0263501,18.3293297" id="Fill-33" fill="#FFFFFF"></path>
                        <polygon id="Fill-34" fill="#FFFFFF" points="105.709868 17.0968144 105.709868 28.2418955 101.179337 28.2418955 101.179337 8.75029189 104.715935 8.75029189 113.861553 20.199409 113.861553 8.75029189 118.39009 8.75029189 118.39009 28.2418955 114.741415 28.2418955"></polygon>
                    </g>
                </g>
            </g>
        </g>
    </g>
</svg>