<?xml version="1.0" encoding="UTF-8"?>
<svg width="167px" height="47px" viewBox="0 0 167 47" version="1.1" xmlns="http://www.w3.org/2000/svg" xmlns:xlink="http://www.w3.org/1999/xlink">
    <!-- Generator: Sketch 50 (54983) - http://www.bohemiancoding.com/sketch -->
    <title>Shape</title>
    <desc>Created with Sketch.</desc>
    <defs></defs>
    <g id="Page-1" stroke="none" stroke-width="1" fill="none" fill-rule="evenodd">
        <g id="zOS-web-01" transform="translate(-511.000000, -2793.000000)" fill="#FFFFFF" fill-rule="nonzero">
            <g id="Group-22" transform="translate(304.000000, 2526.000000)">
                <g id="logos" transform="translate(0.000000, 100.000000)">
                    <path d="M266.12607,176.761564 C261.671493,176.761564 258.280266,179.035806 256.469697,182.130501 C255.047106,184.519894 254.501061,187.254741 254.501061,190.335043 C254.501061,193.976708 255.564412,197.373676 257.691113,199.863827 C259.659748,202.195644 262.591147,203.721401 266.183548,203.721401 C268.612011,203.721401 270.882408,203.016098 272.707348,201.792614 C274.77657,200.367614 276.299748,197.992615 276.658988,195.459283 L272.463064,195.459283 C272.103824,196.826707 271.658367,197.532009 270.939887,198.251706 C269.876536,199.360039 268.209662,199.921402 266.183548,199.921402 C264.214912,199.921402 262.648626,199.259281 261.484688,198.093373 C259.918401,196.524434 259.013116,193.991102 259.013116,191.659285 L277.118816,191.659285 L277.176294,189.068377 C277.233773,185.628227 276.012356,182.332016 273.943133,180.043381 C272.046346,178.02823 269.416709,176.761564 266.12607,176.761564 Z M259.099334,187.960044 C259.199921,184.203228 261.470318,180.403229 266.12607,180.403229 C268.396467,180.403229 270.120819,181.310047 271.18417,182.735046 C272.190042,184.10247 272.750456,186.031257 272.750456,187.960044 L259.099334,187.960044 Z M292.479921,176.81914 C289.591631,176.81914 286.315361,178.244139 284.835292,180.820653 L284.030595,177.481261 L280.739956,177.481261 L280.739956,213.063063 L285.036467,213.063063 L285.036467,200.137311 C286.401579,202.469128 289.692218,203.778976 292.479921,203.778976 C295.468798,203.778976 297.839783,202.771401 299.506657,201.188068 C302.093185,198.697918 303.400819,194.653223 303.400819,190.248679 C303.400819,185.988075 302.136294,182.087319 299.707831,179.611563 C298.040957,177.884291 295.612494,176.81914 292.479921,176.81914 Z M291.775811,200.122917 C289.907762,200.122917 288.643237,199.360039 287.622995,198.453221 C285.496294,196.58201 284.792184,193.487314 284.792184,190.291861 C284.792184,187.096408 285.496294,184.001712 287.622995,182.130501 C288.628868,181.223683 289.893393,180.460805 291.775811,180.460805 C297.494912,180.460805 299.003721,185.585045 299.003721,190.291861 C299.003721,195.013071 297.494912,200.122917 291.775811,200.122917 Z M318.488902,176.761564 C314.034325,176.761564 310.643099,179.035806 308.832529,182.130501 C307.409938,184.519894 306.863893,187.254741 306.863893,190.335043 C306.863893,193.976708 307.927244,197.373676 310.053945,199.863827 C312.022581,202.195644 314.95398,203.721401 318.54638,203.721401 C320.974843,203.721401 323.245241,203.016098 325.07018,201.792614 C327.139403,200.367614 328.662581,197.992615 329.021821,195.459283 L324.825897,195.459283 C324.466657,196.826707 324.021199,197.532009 323.302719,198.251706 C322.239368,199.360039 320.572494,199.921402 318.54638,199.921402 C316.577745,199.921402 315.011458,199.259281 313.84752,198.093373 C312.281234,196.524434 311.361579,193.991102 311.361579,191.659285 L329.467279,191.659285 L329.524757,189.068377 C329.567866,185.628227 328.360819,182.332016 326.291596,180.043381 C324.394809,178.02823 321.765171,176.761564 318.488902,176.761564 Z M311.447797,187.960044 C311.548384,184.203228 313.818781,180.403229 318.474532,180.403229 C320.74493,180.403229 322.469282,181.310047 323.532633,182.735046 C324.538505,184.10247 325.098919,186.031257 325.098919,187.960044 L311.447797,187.960044 Z M344.727797,176.761564 C340.27322,176.761564 336.881994,179.035806 335.071424,182.130501 C333.648833,184.519894 333.102788,187.254741 333.102788,190.335043 C333.102788,193.976708 334.166139,197.373676 336.29284,199.863827 C338.261475,202.195644 341.192874,203.721401 344.785275,203.721401 C347.213738,203.721401 349.484135,203.016098 351.309075,201.792614 C353.378298,200.367614 354.901475,197.992615 355.260716,195.459283 L351.064792,195.459283 C350.705551,196.826707 350.260094,197.532009 349.541614,198.251706 C348.478263,199.360039 346.811389,199.921402 344.785275,199.921402 C342.81664,199.921402 341.250353,199.259281 340.086415,198.093373 C338.520128,196.524434 337.600474,193.991102 337.600474,191.659285 L355.706173,191.659285 L355.749282,189.068377 C355.80676,185.628227 354.585344,182.332016 352.516121,180.043381 C350.648073,178.02823 348.018436,176.761564 344.727797,176.761564 Z M337.701061,187.960044 C337.801648,184.203228 340.072045,180.403229 344.727797,180.403229 C346.998194,180.403229 348.722546,181.310047 349.785897,182.735046 C350.791769,184.10247 351.352184,186.031257 351.352184,187.960044 L337.701061,187.960044 Z M373.409524,180.73429 L363.595085,184.922924 L363.595085,203.05928 L359.341683,203.05928 L359.341683,177.481261 L362.632322,177.481261 L363.437019,180.820653 L372.432391,177.596412 L373.409524,180.73429 Z M236.768971,198.352464 L241.49657,198.352464 L241.49657,203.088068 L236.768971,203.088068 L236.768971,198.352464 Z M236.768971,177.452473 L241.49657,177.452473 L241.49657,182.188077 L236.768971,182.188077 L236.768971,177.452473 Z M247.948522,177.452473 L252.676121,177.452473 L252.676121,182.188077 L247.948522,182.188077 L247.948522,177.452473 Z M225.60379,177.452473 L230.331389,177.452473 L230.331389,182.188077 L225.60379,182.188077 L225.60379,177.452473 Z M242.358747,187.888074 L247.086346,187.888074 L247.086346,192.623678 L242.358747,192.623678 L242.358747,187.888074 Z M231.179196,187.888074 L235.906795,187.888074 L235.906795,192.623678 L231.179196,192.623678 L231.179196,187.888074 Z M216.1917,167.477477 L220.919299,167.477477 L220.919299,172.213081 L216.1917,172.213081 L216.1917,167.477477 Z M207.009524,167.491871 L211.306035,167.491871 L211.306035,203.05928 L207.009524,203.05928 L207.009524,167.491871 Z M216.407244,177.423685 L220.703755,177.423685 L220.703755,203.05928 L216.407244,203.05928 L216.407244,177.423685 Z" id="Shape"></path>
                </g>
            </g>
        </g>
    </g>
</svg>