<?xml version="1.0" encoding="UTF-8"?>
<svg width="162px" height="60px" viewBox="0 0 162 60" version="1.1" xmlns="http://www.w3.org/2000/svg" xmlns:xlink="http://www.w3.org/1999/xlink">
    <!-- Generator: Sketch 50 (54983) - http://www.bohemiancoding.com/sketch -->
    <title>storj</title>
    <desc>Created with Sketch.</desc>
    <defs></defs>
    <g id="Page-1" stroke="none" stroke-width="1" fill="none" fill-rule="evenodd">
        <g id="zOS-web-01" transform="translate(-974.000000, -2786.000000)" fill="#FFFFFF" fill-rule="nonzero">
            <g id="Group-22" transform="translate(304.000000, 2526.000000)">
                <g id="logos" transform="translate(0.000000, 100.000000)">
                    <g id="storj" transform="translate(670.552381, 160.540541)">
                        <g id="Group">
                            <path d="M52.579716,17.2524743 C52.5318224,19.1152819 51.7265819,20.5034788 50.1726309,21.43914 C49.8863686,21.611482 49.7864986,21.7866623 49.7872838,22.1149478 C49.7971765,27.1965937 49.7967055,32.278555 49.7888541,37.3590971 C49.788383,37.6643616 49.8656408,37.8485295 50.1445229,38.0106225 C51.9428097,39.0531893 52.8523169,40.9778067 52.529467,43.0004998 C52.2196503,44.9391506 50.6763774,46.5318558 48.6778797,46.9129635 C47.5188546,47.1345011 46.3962601,46.957744 45.3804448,46.3319201 C45.0709423,46.1416028 44.8528301,46.1748729 44.5627991,46.343273 C40.2120437,48.8741864 35.8567027,51.3971434 31.4967979,53.9121313 C31.1986014,54.0840003 31.0866403,54.2736869 31.0872684,54.6226283 C31.0919792,57.0680561 29.2126659,59.196078 26.8649375,59.4329104 C24.3647348,59.6858258 22.154092,58.1090461 21.6140721,55.6716599 C21.5311612,55.2971746 21.5032102,54.9062909 21.4945736,54.5220297 C21.4884495,54.2626494 21.4165306,54.103237 21.1866414,53.9692108 C16.7660756,51.4157236 12.3485555,48.8569235 7.93409074,46.292816 C7.69493678,46.153271 7.50697406,46.1524826 7.26609285,46.2986501 C4.38148507,48.0424109 0.704199049,46.3707089 0.0925742703,43.1133973 C-0.293715064,41.0558573 0.540732708,39.1310822 2.37450784,38.0476768 C2.6645389,37.8761232 2.79550041,37.7028351 2.79487229,37.3471135 C2.78183895,32.26531 2.7837233,27.1838218 2.7915747,22.1024912 C2.79188876,21.7969113 2.71290359,21.6166854 2.43464964,21.4544347 C0.592866065,20.3803324 -0.272987343,18.5143711 0.0806401282,16.4189885 C0.43159812,14.3376391 2.03485588,12.8108433 4.12081829,12.5128319 C5.23901599,12.3531041 6.31701447,12.5576125 7.28462217,13.1779176 C7.50932947,13.322193 7.67625046,13.317778 7.9050405,13.1853285 C12.3068666,10.6277594 16.7124017,8.07663209 21.1216317,5.53195476 C21.3881085,5.37806105 21.4920612,5.20114636 21.4928464,4.88579041 C21.5003837,2.08684861 23.7023899,-0.0552067367 26.4934089,0.00108430168 C28.6687203,0.0447611018 30.7038055,1.84765111 31.0123659,4.00310908 C31.040631,4.2013103 31.0847559,4.32319538 31.0847559,4.59629364 C31.0847559,5.1937355 31.3039673,5.44712401 31.7673575,5.71296908 C36.0454333,8.17085339 40.311261,10.6482898 44.5750473,13.1299835 C44.8677478,13.3005911 45.080835,13.308002 45.3856268,13.1339255 C48.2812265,11.4751531 51.7926907,13.0648625 52.4974332,16.3466143 C52.562914,16.6523519 52.5566328,16.9735419 52.579716,17.2524743 Z M14.8268429,34.6858246 C14.783189,34.7230367 14.7536677,34.7555183 14.7170802,34.7758588 C12.3173754,36.1679976 9.91908399,37.5637631 7.51058568,38.9399765 C7.37742582,39.0155042 7.11848633,38.9997365 6.9835991,38.9175862 C6.34684981,38.5314329 5.66943024,38.2752061 4.92747206,38.2553387 C2.45930307,38.1921098 0.95811362,40.2165374 0.874103544,41.9754353 C0.776432014,44.035025 2.32865562,46.1450718 4.83890817,46.1259927 C7.04044333,46.1097519 8.71561996,44.3372937 8.69379308,42.1260178 C8.6901814,41.730719 8.80575415,41.5071317 9.15121614,41.3103496 C11.7087342,39.848044 14.2562024,38.3677631 16.8013152,36.884171 C17.0472214,36.7400533 17.2450769,36.716717 17.51281,36.8430171 C19.0997368,37.5919875 20.7413094,37.7190759 22.4331311,37.2387888 C22.6011513,37.1913277 22.8244453,37.2394195 22.9927796,37.3114784 C23.4902448,37.524186 23.9652551,37.7941307 24.466175,37.9967468 C24.7516522,38.1127978 24.8480676,38.269372 24.8474394,38.5738482 C24.8388028,42.5793419 24.839117,46.5843626 24.8466543,50.5895409 C24.8469684,50.8719422 24.7582474,51.0327737 24.5015064,51.1563933 C23.1571881,51.8068149 22.1431,53.4854547 22.4197837,55.2812492 C22.7410634,57.3668558 24.8753904,58.9423742 26.934344,58.5377725 C28.7488047,58.1814202 29.9408056,56.9381294 30.1959764,55.0247071 C30.3690215,53.727175 29.7470328,52.0132154 28.0848895,51.1556049 C27.8597111,51.0403422 27.7353448,50.9137268 27.7361299,50.6351099 C27.7444524,46.7445634 27.7449235,42.8543323 27.7361299,38.9644166 C27.7358158,38.6186288 27.8941003,38.5476737 28.1954373,38.4942208 C28.9917273,38.3537298 29.7895875,38.199363 30.5675051,37.9798753 C30.9192482,37.8811689 31.1978163,37.8666625 31.5388815,38.0140914 C33.2443646,38.751236 34.9055657,38.6249359 36.4942198,37.6624695 C36.7209686,37.525605 36.8834927,37.5194556 37.1116547,37.6528512 C39.2100223,38.8799012 41.3126297,40.1017479 43.4240306,41.3057769 C43.7654099,41.4995631 43.8977847,41.7147936 43.8872638,42.1171878 C43.8263369,44.4446724 45.8474467,46.3462688 48.2049108,46.0944571 C50.518564,45.847691 52.1579383,43.6107136 51.621216,41.349296 C50.9777145,38.6391269 48.0544778,37.4168072 45.693088,38.8813203 C45.4441982,39.035687 45.264401,39.077314 44.9990233,38.9216858 C43.001342,37.7482948 40.9971073,36.5861897 38.9864142,35.4354257 C38.6890028,35.2662373 38.6494317,35.1084016 38.7441197,34.7883153 C39.3505625,32.7359788 38.9385206,30.9106985 37.4751749,29.338649 C37.1892266,29.0313346 35.8474208,26.8793456 35.6600862,26.4826278 C35.5123226,26.1688486 35.5746628,26.0012369 35.8727023,25.8296833 C38.9222167,24.0760823 41.9669001,22.3140241 45.0067177,20.5435291 C45.2516817,20.4014612 45.4178175,20.3987807 45.6577566,20.5607159 C46.5145023,21.1384481 47.4748867,21.3208815 48.4825366,21.1438091 C50.4441327,20.7988097 51.8660229,19.0164178 51.6910935,16.9125206 C51.5010894,14.6299741 49.2714462,12.9238984 47.0444725,13.4186919 C45.0905708,13.8530947 43.8627674,15.3868284 43.8852224,17.4028991 C43.88852,17.7466371 43.793361,17.9426308 43.4885693,18.1174957 C40.4010942,19.8915796 37.320232,21.6772427 34.2460473,23.4744473 C33.9685786,23.6360672 33.8173604,23.6027972 33.5942233,23.386936 C32.1453243,21.9854942 30.4026255,21.1983657 28.4137065,20.9489191 C27.7427251,20.8640884 27.742411,20.8678726 27.742411,20.1721974 C27.742097,16.5258942 27.7512046,12.8795909 27.7315761,9.23360299 C27.7290636,8.72461849 27.8474629,8.42976063 28.3223161,8.15587401 C30.0248157,7.17369786 30.6722429,5.05876315 29.8930691,3.25587314 C29.1074571,1.43705765 27.1006369,0.465288271 25.218183,1.04097057 C23.5051625,1.56461914 22.5504311,2.78015868 22.3820969,4.54851721 C22.2528627,5.91322011 22.8957361,7.42929386 24.4468605,8.28028193 C24.6850723,8.41083932 24.8513651,8.52578653 24.8501089,8.85407208 C24.8370755,12.8740721 24.8380178,16.8931261 24.8480676,20.9131262 C24.8486957,21.2317934 24.7040727,21.3396451 24.4452902,21.4711486 C23.6706702,21.8632937 22.8398341,22.2060857 22.1825141,22.7521245 C21.424068,23.3807866 20.7150857,23.7440766 19.6590712,23.7440766 C19.5560607,23.7407654 19.4899518,23.7510145 19.3827016,23.7484916 C19.1209356,23.7428153 18.8269788,23.7319354 18.6131065,23.6091043 C15.4981384,21.825451 12.4001293,20.0121543 9.28123549,18.234335 C8.83574655,17.9807888 8.62061795,17.7091097 8.69504928,17.193345 C8.72457057,16.9878906 8.66160232,16.7680875 8.6283123,16.556326 C8.32383467,14.6304472 6.44797597,13.0192936 4.18362956,13.393148 C1.96246589,13.7600647 0.552352794,15.7785005 0.918542518,17.9388465 C1.38601542,20.6980534 4.52155421,22.094765 6.88749788,20.5856291 C7.15444576,20.4151792 7.33911091,20.4017765 7.61249699,20.5621351 C9.95724184,21.9351949 12.3114084,23.2920139 14.6624343,24.6543516 C15.0652117,24.8878727 15.4668898,25.1236013 15.8673116,25.3569647 C13.1651706,28.2292267 12.8619492,31.3157732 14.8268429,34.6858246 Z" id="Shape"></path>
                            <path d="M21.3502262,25.4119937 C21.9655236,25.4670628 22.2719216,25.2584298 22.7213575,24.8383318 C24.6622954,23.0226272 26.9523081,22.4604511 29.4663354,23.3009619 C31.9381548,24.1271546 33.4707703,25.8950278 33.978672,28.4886217 C34.0777824,28.9966728 34.2761595,29.3019126 34.7271587,29.5604223 C36.0155938,30.299134 36.75814,31.8975519 36.5030168,33.2288064 C36.1725446,34.9530963 35.0496582,36.1482516 33.4615472,36.4014118 C32.615826,36.5367242 31.7760452,36.4399601 31.031623,35.9784817 C30.6981806,35.7717368 30.4341468,35.7943937 30.089918,35.9396187 C27.878537,36.8751628 25.737346,36.7165639 23.7026129,35.428106 C23.3901182,35.2300148 23.1285855,35.2145955 22.7902971,35.3261497 C19.9225051,36.2687741 16.9398139,34.6311785 16.2114932,31.7524844 C15.3771838,28.4524335 17.9931353,25.2612619 21.3502262,25.4119937 Z M46.6129019,42.1759502 C46.6125892,41.5303838 47.0739059,41.0610383 47.7053047,41.0629264 C48.3132547,41.0654438 48.8306923,41.5706628 48.8369453,42.1685552 C48.843511,42.7436332 48.2904312,43.2998304 47.7137463,43.3007744 C47.0971984,43.3009317 46.6133708,42.8067265 46.6129019,42.1759502 Z M25.1853606,4.87171796 C25.1878618,4.24629114 25.6718457,3.76388644 26.2980858,3.76325708 C26.9249512,3.7629424 27.4058085,4.24408837 27.4081534,4.87203264 C27.4100293,5.47385846 26.887902,6.00582525 26.300118,5.99874499 C25.7024855,5.99276605 25.1833284,5.46709283 25.1853606,4.87171796 Z M5.97951784,42.1808277 C5.97717299,42.810188 5.48865567,43.3058093 4.87539059,43.3009317 C4.2957355,43.2957395 3.75969524,42.7511855 3.75719403,42.1635203 C3.75391119,41.5767991 4.28432374,41.0627691 4.89289905,41.0627691 C5.52351626,41.0630837 5.98201909,41.5347893 5.97951784,42.1808277 Z M26.3101228,53.5045934 C26.9355813,53.5088416 27.4109673,53.9879421 27.4076844,54.6111662 C27.4040889,55.2321875 26.9213557,55.6996449 26.2876119,55.6961835 C25.6588706,55.6925646 25.1781696,55.2096879 25.1852043,54.5889813 C25.1925516,53.9714215 25.6821631,53.5003453 26.3101228,53.5045934 Z M4.9054051,18.3987169 C4.27150504,18.4045385 3.77579677,17.9397559 3.75719403,17.3229827 C3.73859129,16.7222583 4.23992729,16.2179833 4.86507311,16.2087003 C5.51726324,16.1989452 5.97076364,16.6366653 5.97998681,17.2841197 C5.98952266,17.9344063 5.54712142,18.39321 4.9054051,18.3987169 Z M47.6913917,18.400605 C47.0506134,18.3958848 46.6064925,17.936609 46.6125892,17.2860078 C46.6193112,16.6402841 47.0739059,16.2009906 47.7264087,16.209487 C48.3517108,16.2181407 48.8499203,16.7180101 48.8350694,17.3218814 C48.8199058,17.9340916 48.321071,18.4048531 47.6913917,18.400605 Z" id="Shape"></path>
                        </g>
                        <g id="Group" transform="translate(70.625820, 23.332193)">
                            <path d="M4.41392131,3.17181877 C4.10757607,3.42205654 3.95458821,3.75301616 3.95458821,4.16506457 C3.95458821,4.5774799 4.14175814,4.90495382 4.51609798,5.14803669 C4.89025306,5.39111957 5.75441272,5.67878293 7.10876173,6.00937563 C8.46292595,6.34088566 9.51444029,6.83750855 10.2629352,7.49924435 C11.0112454,8.16134708 11.38577,9.12780791 11.38577,10.397893 C11.38577,11.668345 10.9059276,12.6986495 9.94642776,13.4893568 C8.98692782,14.2802476 7.72440851,14.6752343 6.15942402,14.6752343 C3.89989691,14.6752343 1.86523235,13.8443496 0.055245614,12.1820296 L1.95373619,9.87099942 C3.49137499,11.2087808 4.91390336,11.8776715 6.22058222,11.8776715 C6.80555752,11.8776715 7.26470588,11.7525526 7.59858152,11.5024983 C7.93190289,11.2528109 8.09874832,10.9146964 8.09874832,10.4892555 C8.09874832,10.0636311 7.92174065,9.72606699 7.56791003,9.47601267 C7.21389469,9.22632528 6.51306987,8.97278526 5.46525089,8.7157595 C3.80455664,8.32370809 2.58989221,7.81369267 1.82107281,7.18497946 C1.05188388,6.55663318 0.667566567,5.57035879 0.667566567,4.22560597 C0.667566567,2.88103661 1.15424532,1.84412761 2.12723329,1.11414514 C3.10022126,0.384162675 4.3148857,0.0192631714 5.7712266,0.0192631714 C6.72370536,0.0192631714 7.67655359,0.181624188 8.6295866,0.505612384 C9.58188058,0.830334417 10.4122277,1.28934827 11.1200737,1.88412162 L9.50723432,4.19515181 C8.26855008,3.26263086 6.98921683,2.79646211 5.66923469,2.79646211 C5.13858117,2.79682903 4.72008179,2.92194792 4.41392131,3.17181877 Z M19.2858928,3.08082321 L19.2858928,14.5130568 L16.1012326,14.5130568 L16.1012326,3.08082321 L12.0590643,3.08082321 L12.0590643,0.344352121 L23.328061,0.344352121 L23.328061,3.08082321 L19.2858928,3.08082321 Z M36.5363819,12.5570193 C35.0933443,13.955709 33.3173549,14.6552373 31.2078593,14.6552373 C29.098179,14.6552373 27.3221895,13.9558925 25.8795215,12.5570193 C24.4366686,11.1583296 23.7155193,9.41877355 23.7155193,7.3374337 C23.7155193,5.25646083 24.4366686,3.51653781 25.8795215,2.11803156 C27.3221895,0.719341861 29.0979942,0.0198135477 31.2078593,0.0198135477 C33.3173549,0.0198135477 35.0933443,0.719158398 36.5363819,2.11803156 C37.9788653,3.51672126 38.700384,5.25646083 38.700384,7.3374337 C38.700384,9.41877355 37.9788653,11.1583296 36.5363819,12.5570193 Z M35.4543809,7.3477074 C35.4543809,6.08422683 35.0460437,5.00640652 34.2295542,4.11461341 C33.4128799,3.22300376 32.4088509,2.77683202 31.2183911,2.77683202 C30.0273769,2.77683202 29.0239023,3.22300376 28.207228,4.11461341 C27.3907385,5.00640652 26.9824013,6.08422683 26.9824013,7.3477074 C26.9824013,8.61173839 27.3907385,9.68588952 28.207228,10.5705277 C29.0239023,11.4557163 30.0273769,11.8982189 31.2183911,11.8982189 C32.4090357,11.8982189 33.4128799,11.4557163 34.2295542,10.5705277 C35.0460437,9.68588952 35.4543809,8.61118797 35.4543809,7.3477074 Z M52.2351899,5.04695091 C52.2351899,7.31725328 51.3300118,8.78363925 49.520025,9.44592541 L53.1337164,14.5134237 L49.2140493,14.5134237 L46.0495289,9.99281604 L43.844693,9.99281604 L43.844693,14.5134237 L40.6600328,14.5134237 L40.6600328,0.344719039 L46.0700381,0.344719039 C48.2881772,0.344719039 49.8703451,0.716406519 50.816357,1.45941456 C51.762184,2.20260605 52.2351899,3.39820689 52.2351899,5.04695091 Z M48.397375,6.7292679 C48.7920394,6.37794431 48.9891868,5.82059656 48.9891868,5.0572246 C48.9891868,4.29385263 48.785203,3.76971091 48.3770506,3.48626711 C47.9688982,3.20227292 47.2544006,3.06064275 46.2330034,3.06064275 L43.8445083,3.06064275 L43.8445083,7.2565284 L46.1718452,7.2565284 C47.260498,7.25616148 48.0021564,7.08077486 48.397375,6.7292679 Z M55.1341989,3.06027583 L55.1341989,0.343801745 L62.5651957,0.343801745 L62.5651957,9.58737215 C62.5651957,11.2766605 62.126187,12.5403246 61.2483547,13.3778139 C60.3705225,14.2156701 59.2439922,14.6348734 57.869873,14.6348734 C56.1550418,14.6348734 54.6574976,13.9795586 53.3781644,12.6683788 L55.0318374,10.3980765 C55.8895302,11.3175718 56.7875024,11.7767692 57.7264931,11.7767692 C58.1760335,11.7767692 58.5603508,11.6046848 58.8799994,11.2599658 C59.1994631,10.9152467 59.3598414,10.3986268 59.3598414,9.7093722 L59.3598414,3.0608262 L55.1341989,3.06027583 Z M65.1271884,14.1586144 C64.7798244,13.8140789 64.6066967,13.3915733 64.6066967,12.8918316 C64.6066967,12.3920899 64.7800089,11.9697678 65.1271884,11.6250488 C65.4743673,11.2805132 65.8995182,11.1084288 66.403011,11.1084288 C66.9065032,11.1084288 67.3316547,11.2805132 67.6784638,11.6250488 C68.0258279,11.9697678 68.1991401,12.3924568 68.1991401,12.8918316 C68.1991401,13.3921237 68.0258279,13.8140789 67.6784638,14.1586144 C67.3316547,14.50315 66.9059488,14.6752343 66.403011,14.6752343 C65.8991484,14.6752343 65.4743673,14.5027831 65.1271884,14.1586144 Z M70.3635116,0.344352121 L73.547987,0.344352121 L73.547987,14.5130568 L70.3635116,14.5130568 L70.3635116,0.344352121 Z M88.3283135,12.5570193 C86.8852757,13.955709 85.1094712,14.6552373 82.9999758,14.6552373 C80.8901107,14.6552373 79.1143062,13.9558925 77.6716381,12.5570193 C76.2287849,11.1583296 75.5074512,9.41877355 75.5074512,7.3374337 C75.5074512,5.25646083 76.2286003,3.51653781 77.6716381,2.11803156 C79.1143062,0.719341861 80.8901107,0.0198135477 82.9999758,0.0198135477 C85.1094712,0.0198135477 86.8852757,0.719158398 88.3283135,2.11803156 C89.7709815,3.51672126 90.4923158,5.25646083 90.4923158,7.3374337 C90.4923158,9.41877355 89.7707969,11.1583296 88.3283135,12.5570193 Z M87.2464975,7.3477074 C87.2464975,6.08422683 86.8381603,5.00640652 86.0214858,4.11461341 C85.2049965,3.22300376 84.2007828,2.77683202 83.0101381,2.77683202 C81.8193088,2.77683202 80.8154643,3.22300376 79.998975,4.11461341 C79.1823005,5.00640652 78.7739633,6.08422683 78.7739633,7.3477074 C78.7739633,8.61173839 79.1823005,9.68588952 79.998975,10.5705277 C80.8154643,11.4557163 81.8193088,11.8982189 83.0101381,11.8982189 C84.2007828,11.8982189 85.2049965,11.4557163 86.0214858,10.5705277 C86.8381603,9.68588952 87.2464975,8.61118797 87.2464975,7.3477074 Z" id="Shape"></path>
                        </g>
                    </g>
                </g>
            </g>
        </g>
    </g>
</svg>