<?xml version="1.0" encoding="UTF-8"?>
<svg width="121px" height="45px" viewBox="0 0 121 45" version="1.1" xmlns="http://www.w3.org/2000/svg" xmlns:xlink="http://www.w3.org/1999/xlink">
    <!-- Generator: Sketch 50 (54983) - http://www.bohemiancoding.com/sketch -->
    <title>Group 23</title>
    <desc>Created with Sketch.</desc>
    <defs></defs>
    <g id="Page-1" stroke="none" stroke-width="1" fill="none" fill-rule="evenodd">
        <g id="zOS-web-01" transform="translate(-766.000000, -2794.000000)" fill="#FFFFFF">
            <g id="Group-22" transform="translate(304.000000, 2526.000000)">
                <g id="logos" transform="translate(0.000000, 100.000000)">
                    <g id="Group-23" transform="translate(462.552381, 168.468468)">
                        <path d="M82.1374281,28.8048663 C84.8271189,28.7920859 87.547835,29.3198399 89.153643,26.5189349 C90.1176782,24.8376902 89.9710588,21.859113 88.8331319,20.5803245 C86.9638594,18.4788313 84.5163658,18.9514543 82.1374281,19.0421698 L82.1374281,28.8048663 Z M82.09064,30.1107191 C82.09064,33.944829 82.0823833,37.4368763 82.1111567,40.9286729 C82.1126579,41.1376695 82.3663646,41.4536703 82.5742839,41.534362 C84.424541,42.2540721 88.099034,41.4809852 89.3545566,40.0195127 C91.0797118,38.0114916 91.0864673,35.675441 90.2865658,33.3053095 C89.8634712,32.05133 88.9036894,31.1273847 87.6316533,30.8579946 C85.8717198,30.4853592 84.0589933,30.3630687 82.09064,30.1107191 Z M75.5695784,42.5703235 C76.0116885,42.3480454 76.4327815,42.0137511 76.899912,41.9262933 C78.0210752,41.7157931 78.4606833,41.1872874 78.4504249,39.9834269 C78.3948797,33.5140555 78.4068895,27.0434311 78.440667,20.5733079 C78.4464217,19.4869767 78.1416735,18.8597364 76.9962405,18.6717898 C76.4938312,18.5895945 76.0399616,18.211446 75.4409737,17.904216 C75.7887569,17.6187878 75.8485556,17.5265687 75.9086046,17.5265687 C80.0664913,17.511533 84.2426429,17.2566774 88.3767602,17.5646592 C92.5451555,17.8751469 94.5180124,20.9081033 93.6210318,24.8304229 C93.2071947,26.6407242 92.0905352,27.8300501 89.43237,29.207072 C89.8096774,29.3509137 90.0796472,29.4629299 90.3553718,29.5574044 C92.5414024,30.3054317 94.1812381,31.6075255 94.6436147,33.9967023 C95.1622872,36.674565 94.7076669,39.2093377 92.4545817,40.8707853 C91.0682025,41.8934653 89.2832486,42.8008713 87.6143892,42.9271714 C83.6889419,43.2246281 79.7257137,43.0226482 75.7779982,43.0226482 C75.7084415,42.8717898 75.6388849,42.7211819 75.5695784,42.5703235 Z" id="Fill-1"></path>
                        <path d="M5.95477532,42.670712 C6.29255045,42.4562023 6.60405418,42.1607503 6.97260437,42.0397127 C9.280234,41.282664 9.28598868,41.2954443 9.28648909,38.8937378 C9.28748991,32.8391018 9.2869895,26.7844658 9.2869895,20.7298298 L9.2869895,19.2112215 C7.22881306,19.2112215 5.28397894,19.1803983 3.34289788,19.246806 C3.07517982,19.2560781 2.70963207,19.7028897 2.58578119,20.0234013 C2.13566456,21.187417 1.78813148,22.3907762 1.35327728,23.5610568 C1.27621451,23.7685499 0.966212005,23.8890863 0.763797133,24.0497179 C0.636943808,23.8602678 0.413261612,23.6783355 0.397999181,23.4803651 C0.247376495,21.5349929 0.131532136,19.586864 -7.50611392e-05,17.5500244 L22.3621396,17.5500244 C21.9970922,19.6201932 21.6500595,21.6517703 21.2607424,23.6750778 C21.229467,23.8377142 20.8941939,24.0597417 20.7220537,24.0422001 C20.5669273,24.0259114 20.3672647,23.7379772 20.3152223,23.5367491 C19.9511758,22.13141 19.6204063,20.7175506 19.2708716,19.2718656 L12.917947,19.2718656 C12.8964295,19.7367201 12.8611507,20.1424341 12.8611507,20.5476469 C12.8573977,26.978176 12.8919258,33.4089558 12.8291247,39.8387331 C12.8171149,41.0468537 13.2509683,41.5385219 14.3526156,41.8229477 C14.9871324,41.9868371 16.0354863,41.7908715 16.0892801,43.0556266 L6.21924074,43.0556266 C6.1309188,42.9270711 6.04284706,42.7990169 5.95477532,42.670712" id="Fill-3"></path>
                        <path d="M46.496948,26.9496332 C48.4615482,26.5399097 50.4258982,26.1304368 52.3907486,25.7207133 C52.3907486,29.9154301 52.3869956,33.9505176 52.3945017,37.9856051 C52.3957527,38.6519383 52.4600551,39.3180209 52.4700633,39.9846047 C52.4878277,41.1847062 53.0054994,41.8570537 54.2792869,41.8718389 C54.5377474,41.874846 54.7929553,42.1407278 55.0496644,42.2853213 C54.8402438,42.4930649 54.6663522,42.7982902 54.4148974,42.8900081 C53.7138263,43.145866 52.9884855,43.3516048 52.2581406,43.5077258 C50.6926155,43.8425213 49.7288304,43.0614153 49.1320944,41.5896684 C47.2600696,42.7804979 45.3795378,43.6412932 43.150222,43.5763889 C39.7381928,43.4769026 37.8231329,41.6726155 37.7408159,38.2176564 C37.6715094,35.2992221 37.6222193,32.3782819 37.6720098,29.4603488 C37.6895241,28.4374182 37.313718,28.0597709 36.3817089,27.915428 C35.9303412,27.8452613 35.5140021,27.5493081 35.0816499,27.3553472 C35.1129254,27.2262906 35.1442009,27.0972339 35.1757266,26.9681773 C37.1435794,26.5524395 39.1114323,26.1367017 41.1315778,25.7099377 L41.1315778,32.3878045 C41.1315778,33.9314723 41.119568,35.4756413 41.13433,37.0193091 C41.1643545,40.1682912 42.936548,41.6818875 46.0485828,41.2305652 C46.2132169,41.2067586 46.3738477,41.1573913 46.5372308,41.1243127 C48.9899786,40.6308903 48.9999868,40.6308903 48.9874766,38.1712963 C48.9724644,35.2518596 48.894651,32.3319217 48.936435,29.4134874 C48.9501962,28.4567141 48.608668,28.0748067 47.7184429,27.9312155 C47.2475594,27.8552851 46.8094525,27.5746182 46.3565837,27.386421 C46.4033718,27.2408251 46.4501599,27.0952292 46.496948,26.9496332" id="Fill-6"></path>
                        <path d="M68.8662434,32.4287017 C68.7726672,30.6141402 68.9928465,28.7469537 67.3099758,27.5999785 C66.1125004,26.7842904 64.7153624,26.9296357 63.5193882,27.6909446 C61.8315134,28.7654978 61.3708882,30.5026252 61.1649705,32.4287017 L68.8662434,32.4287017 Z M72.6060395,34.032763 L61.279814,34.032763 C60.6142719,37.5140346 62.6161525,40.5169195 66.0784727,41.0103419 C67.8263964,41.2594338 69.6366209,41.0556997 71.4178217,41.0960456 C71.7706091,41.1040646 72.1196434,41.2910088 72.4704291,41.3955071 C72.2279816,41.6791811 72.0408292,42.0648475 71.7345797,42.2307416 C67.6007126,44.4740719 62.2796284,43.9109839 59.4245529,40.9587193 C56.9615467,38.4121686 56.5031733,33.3090434 58.4760303,29.8215069 C60.5737389,26.1126946 63.8644193,25.2874839 67.5426653,25.8623498 C70.4908166,26.3229442 72.3993712,28.7148775 72.6000346,31.863609 C72.6420689,32.5249303 72.6060395,33.1910129 72.6060395,34.032763 Z" id="Fill-8"></path>
                        <path d="M113.21254,28.0933507 C113.21254,31.9044059 113.145485,35.4816556 113.241313,39.0548957 C113.288101,40.7942786 114.043967,41.3373188 115.836677,41.3523546 C116.377117,41.3568653 116.919309,41.3443355 117.458498,41.3067462 C117.98868,41.2696581 118.516109,41.1904699 119.477392,41.0802079 C119.103338,41.6430453 118.957969,42.1392242 118.695506,42.2118969 C116.949083,42.6965484 115.194904,43.3232876 113.4097,43.4568549 C111.058285,43.6327729 109.694924,42.15852 109.671906,39.7618254 C109.638128,36.302105 109.65214,32.8411316 109.722447,29.382163 C109.743714,28.3459509 109.549806,27.7367534 108.385358,27.6475415 C107.928486,27.6127087 107.496884,27.24709 106.947437,26.9802059 C107.251684,26.6819973 107.300474,26.5900288 107.359772,26.5825109 C109.954636,26.2509732 110.002175,26.2642547 110.672971,23.6648284 C111.018002,22.3274006 111.511904,21.3320356 113.247818,21.5212352 L113.247818,26.2762833 L118.679493,26.2762833 C118.708016,26.9223183 118.730784,27.4312776 118.760308,28.0933507 L113.21254,28.0933507 Z" id="Fill-10"></path>
                        <path d="M101.042227,23.6931206 C100.002129,22.7147961 99.0303378,21.8680342 98.1361095,20.9460936 C96.1447374,18.8924641 94.1918968,16.8012453 92.3549005,14.5391204 C94.7163239,15.7314535 97.0777474,16.9240371 99.5134814,18.1539594 C105.331971,11.0618583 111.663378,4.60601905 119.716437,0.0662323703 C112.032929,6.7934665 105.843387,14.6964944 101.042227,23.6931206" id="Fill-12"></path>
                        <path d="M27.3007622,25.6897898 C27.3465495,26.4328052 27.3838299,27.0389955 27.4298674,27.7870229 C29.5576004,26.6939256 31.5860026,25.5233944 34.1053047,25.7947893 C33.7727838,27.5687543 33.4712882,29.2452377 33.1297601,30.9134514 C33.0834724,31.139739 32.8365212,31.3246785 32.6826459,31.5289137 C32.4849849,31.3632702 32.2277754,31.23271 32.1031739,31.0234628 C31.91427,30.706209 31.8241966,30.3310676 31.6803295,29.9854965 C30.8859324,28.07621 29.5255744,27.6682407 27.8492089,28.89691 C27.5822415,29.092625 27.3945886,29.5737683 27.3910858,29.9248524 C27.3578087,33.3870788 27.3873327,36.8498064 27.3598103,40.3122833 C27.3528046,41.2156798 27.6878275,41.6832909 28.5905628,41.8679797 C29.2235784,41.9975375 29.8163112,42.323061 30.4273088,42.5611266 C30.3805207,42.7032142 30.3339828,42.8453019 30.2874449,42.9873895 L21.4472443,42.9873895 C21.3949518,42.8620917 21.3429094,42.736794 21.2906168,42.6114963 C21.6934449,42.4172849 22.0782583,42.1278472 22.502604,42.047406 C23.6445341,41.8311422 24.0318496,41.2427441 23.9975717,40.0556736 C23.8954885,36.5132567 23.8894836,32.9670809 23.9182571,29.4226592 C23.9260134,28.4861841 23.623517,28.066938 22.7060197,27.9406379 C22.2326341,27.8757337 21.7900235,27.5865465 21.3336518,27.3986 C21.3476632,27.2597701 21.3619249,27.1209403 21.3759363,26.9821104 C23.3185185,26.5583535 25.2611008,26.1345967 27.3007622,25.6897898" id="Fill-15"></path>
                        <path d="M97.1882624,26.9578277 C99.1486092,26.5460994 101.108956,26.1341205 103.170385,25.7010916 C103.170385,26.8849044 103.171636,27.9138492 103.170135,28.9430446 C103.165131,32.6959617 103.190151,36.4491293 103.133355,40.2015452 C103.117092,41.2760984 103.509411,41.8053559 104.541502,42.0143525 C105.003628,42.1080752 105.422219,42.4180617 105.860576,42.6300654 L105.689187,43.0164836 L97.2633235,43.0164836 C97.1982706,42.9172478 97.1332176,42.8177614 97.0684148,42.7185256 C97.3846724,42.5052689 97.6839161,42.1429079 98.0204402,42.1043162 C99.4621145,41.9396751 99.757355,41.1325072 99.7223265,39.7973348 C99.6330037,36.379965 99.6685326,32.9583351 99.7060632,29.5389605 C99.7163216,28.6125093 99.5001455,28.0581922 98.4753107,27.9406629 C97.9936684,27.8852814 97.5420506,27.565271 97.0771719,27.3652958 C97.1142021,27.2294731 97.1512322,27.0936504 97.1882624,26.9578277" id="Fill-17"></path>
                    </g>
                </g>
            </g>
        </g>
    </g>
</svg>