<svg id="Layer_1" data-name="Layer 1" xmlns="http://www.w3.org/2000/svg" viewBox="0 0 120 120"><defs><style>.cls-1{fill:#fff;}</style></defs><title>blue_yard</title><path class="cls-1" d="M71.24,69.87A3.47,3.47,0,0,0,70,69a4.86,4.86,0,0,0-2-.35H65.34v6.91H68a4.79,4.79,0,0,0,2.07-.38,3.59,3.59,0,0,0,1.23-.92,2.73,2.73,0,0,0,.58-1.13A4.78,4.78,0,0,0,72,72.06,4,4,0,0,0,71.87,71,3,3,0,0,0,71.24,69.87Z"/><path class="cls-1" d="M89.43,83.34A7.92,7.92,0,0,0,90.7,83a8.34,8.34,0,0,0,1.3-.59,5.94,5.94,0,0,0,1.47-1.15,6.84,6.84,0,0,0,1.07-1.52A7.54,7.54,0,0,0,95.17,78a8.17,8.17,0,0,0,.21-1.85A7.65,7.65,0,0,0,94.73,73,7.15,7.15,0,0,0,93,70.54,6.29,6.29,0,0,0,90,69a17.12,17.12,0,0,0-3.62-.35h-.79v14.9h.89q.86,0,1.57,0A13.41,13.41,0,0,0,89.43,83.34Z"/><polygon class="cls-1" points="46.94 70.63 44.34 77.54 49.59 77.54 47 70.63 46.94 70.63"/><path class="cls-1" d="M0,120H120V0H0ZM84.16,33.55H96.29v3.93h-8V43H96V47H88.34v5.37h8v3.93H84.16ZM81.45,64.63h5.12a22.9,22.9,0,0,1,3.6.25,14.47,14.47,0,0,1,2.62.64,9.64,9.64,0,0,1,1.83.86,9.54,9.54,0,0,1,1.22.89,10.17,10.17,0,0,1,1.48,1.66A11.57,11.57,0,0,1,98.5,71a12.29,12.29,0,0,1,.78,2.43,12.51,12.51,0,0,1,.27,2.61,12,12,0,0,1-.38,3,12.1,12.1,0,0,1-1.08,2.76,10.74,10.74,0,0,1-1.71,2.33,9.42,9.42,0,0,1-2.22,1.72,10,10,0,0,1-1.69.72,13.56,13.56,0,0,1-1.87.46,18,18,0,0,1-2,.23q-1,.06-2,.06H81.45ZM76.56,87.35h-5.1l-6-8.69h-.06v8.69H61.18V64.63h7A12.08,12.08,0,0,1,71.4,65a6.31,6.31,0,0,1,2.27,1.17,8.25,8.25,0,0,1,1,.94,6.94,6.94,0,0,1,1.47,2.75,6.75,6.75,0,0,1,.23,1.81,8.46,8.46,0,0,1-.11,1.26,7.87,7.87,0,0,1-.37,1.44,8.36,8.36,0,0,1-.68,1.44,5.88,5.88,0,0,1-1,1.29,5.62,5.62,0,0,1-2,1.32q-1,.34-1.81.55ZM59.91,33.55h4.21V47.92q0,.43.06,1.22a4.6,4.6,0,0,0,.43,1.59,3.66,3.66,0,0,0,1.17,1.39,4.64,4.64,0,0,0,4.55,0,3.66,3.66,0,0,0,1.17-1.39,4.61,4.61,0,0,0,.43-1.59q.06-.79.06-1.22V33.55H76.2V47.92a15.46,15.46,0,0,1-.26,2.8,6.36,6.36,0,0,1-1.06,2.55,8.39,8.39,0,0,1-2.72,2.37,8.06,8.06,0,0,1-4.07,1,8.41,8.41,0,0,1-2.38-.32,8.83,8.83,0,0,1-1.94-.81,8.25,8.25,0,0,1-1.46-1.05,8.11,8.11,0,0,1-1-1.05,7.1,7.1,0,0,1-1-2,11.26,11.26,0,0,1-.43-3.42Zm-6.45,53.8L51,81.49H42.9l-2.43,5.86H35.84l9.46-22.72h3.29L58.1,87.35ZM42.53,33.55H46.7V52.34h6.87v3.93h-11Zm-20.63,0h4.45q.94,0,1.87,0a13.12,13.12,0,0,1,1.81.18,7.16,7.16,0,0,1,1.71.52,6.15,6.15,0,0,1,1.55,1,5.85,5.85,0,0,1,1.39,1.92,5.47,5.47,0,0,1,.53,2.32,5.1,5.1,0,0,1-.29,1.83,4.61,4.61,0,0,1-.7,1.26,4,4,0,0,1-.84.8q-.43.29-.7.45a11.57,11.57,0,0,1,1.23.58,4.69,4.69,0,0,1,1.26,1,5.47,5.47,0,0,1,1,1.63,6.51,6.51,0,0,1,.4,2.43,6.68,6.68,0,0,1-.24,1.86,6.31,6.31,0,0,1-.64,1.5,6.11,6.11,0,0,1-.9,1.17,7.88,7.88,0,0,1-1,.88,5.3,5.3,0,0,1-1.42.72,10.57,10.57,0,0,1-1.58.4,14.57,14.57,0,0,1-1.54.18q-.73,0-1.28,0h-6Zm1.67,31.08,4.9,10.44,4.93-10.44H38L30.58,79v8.38H26.41V79L19,64.63Z"/><path class="cls-1" d="M28.37,42.43a3.59,3.59,0,0,0,1.17-.26,2.48,2.48,0,0,0,1-.74A2.17,2.17,0,0,0,31,40a2.39,2.39,0,0,0-.7-1.73,3.4,3.4,0,0,0-2.47-.72H26.06v4.91h1.35Z"/><path class="cls-1" d="M29.18,52.23a4.69,4.69,0,0,0,1.41-.32A3.3,3.3,0,0,0,31.85,51a2.47,2.47,0,0,0,.55-1.71,3.89,3.89,0,0,0-.12-.86,2.2,2.2,0,0,0-.57-1,3.72,3.72,0,0,0-1.25-.83,5.6,5.6,0,0,0-2.19-.35h-2.2v6h2.11Z"/></svg>