<svg xmlns="http://www.w3.org/2000/svg" viewBox="0 0 200 200"><defs><style>.cls-1{fill:#d7d1c7;}.cls-2{fill:#bfb5af;}.cls-3{fill:#f47e33;}.cls-4{fill:#35312e;}.cls-5{fill:#d8a780;}</style></defs><title>Asset 1</title><g id="Layer_2" data-name="Layer 2"><g id="Layer_1-2" data-name="Layer 1"><path class="cls-1" d="M195.5,109.9c.3-3.3.5-6.5.5-9.9A96,96,0,0,0,4,100C4,100.4,194,104.9,195.5,109.9Z"/><path class="cls-2" d="M3.6,100.2a96,96,0,0,0,96,96c53,0,90.55-32.6,96-84C195.64,111.8,3.6,96.9,3.6,100.2Z"/><circle class="cls-3" cx="62.8" cy="48.2" r="19.2"/><path class="cls-4" d="M62.8,71.4A23.2,23.2,0,1,1,86,48.2,23.22,23.22,0,0,1,62.8,71.4Zm0-38.4A15.2,15.2,0,1,0,78,48.2,15.19,15.19,0,0,0,62.8,33Z"/><circle class="cls-3" cx="125.2" cy="58.2" r="30.1"/><polyline class="cls-2" points="71.3 122.6 95.7 91.8 100.9 94.8 110.9 98.5 118 94.8 140.7 70.6 148.6 81.2 152.4 78.1 157.4 78.1 170 95.7 179 94.2 195.2 112.6"/><polyline class="cls-2" points="87.3 107.3 74.1 100 54.9 105 46.1 75.9 30.3 75.9 15.1 102.6 4 103"/><path class="cls-3" d="M43.6,112.9s-7.2,21-7.2,21.4c0,2,3.2,3.6,7.2,3.6s7.2-1.6,7.2-3.6Z"/><path class="cls-3" d="M27,104.8s-7.1,20.9-7.1,21.3c0,2,3.2,3.6,7.1,3.6s7.1-1.6,7.1-3.6C34.1,125.7,27,104.8,27,104.8Z"/><path class="cls-5" d="M157.3,107c0,8.1-38.5,8.1-38.5,0s8.6-14.7,19.2-14.7S157.3,98.8,157.3,107Z"/><path class="cls-5" d="M176.5,127c0,8.1-38.5,8.1-38.5,0s8.6-14.7,19.2-14.7S176.5,118.8,176.5,127Z"/><path class="cls-5" d="M138,150.8c0,8.1-38.5,8.1-38.5,0s8.6-14.7,19.2-14.7S138,142.7,138,150.8Z"/><path class="cls-1" d="M101.1,192.1a93.58,93.58,0,0,1-87.2-59.9c2.7,0,5.5.1,8.4.1a17.27,17.27,0,0,0,4.7.6,15.29,15.29,0,0,0,3.8-.4,12.1,12.1,0,0,1,1.9.1,2.68,2.68,0,0,0-.2,1c0,4.5,4.8,7.7,11.3,7.7s10-4,10.3-8.3c1,.1,3.1,1.1,4.1,1.2,27,2.9,28.8,7.8,28.8,8,.1.4-.6,2.5-6,6.2-11.6,8-15.6,12.7-14.5,17.7,1.3,6,9.1,7.5,20.9,9.7,3.3.6,7.1,1.4,11,2.2,4.3,1,8.8,1.9,13.1,2.7,8,1.6,16.1,3.2,22.5,5.2A87.53,87.53,0,0,1,101.1,192.1Z"/><path class="cls-4" d="M100,0A100,100,0,1,0,200,100,100.16,100.16,0,0,0,100,0Zm0,192a92.16,92.16,0,0,1-85.9-59c2.6,0,5.4.1,8.2.1a16.53,16.53,0,0,0,4.6.6,14.48,14.48,0,0,0,3.7-.4,12.75,12.75,0,0,1,1.9.1,2.68,2.68,0,0,0-.2,1c0,4.4,4.7,7.6,11.2,7.6,6.3,0,10.9-3,11.1-7.2l3.1.3c26.6,2.9,28.4,7.7,28.4,7.9.1.4-.5,2.5-5.9,6.1C68.9,156.9,65,161.6,66,166.5c1.2,5.9,8.9,7.4,20.6,9.6,3.3.6,7,1.3,10.8,2.2,4.2.9,8.7,1.8,13,2.7,7.8,1.6,15.8,3.2,22.2,5.1A92.45,92.45,0,0,1,100,192ZM24.4,125.1c.6-1.8,1.5-4.7,2.6-7.8,1.1,3.2,2.1,6.1,2.6,7.9C27.8,125.2,26.1,125.1,24.4,125.1Zm16.5,8.5,2.7-8.1,2.7,8.1a9.31,9.31,0,0,1-5.4,0Zm101.9,47.8c-7.5-3.7-18.9-5.9-30.9-8.3-4.2-.8-8.6-1.7-12.8-2.6-3.9-.9-7.7-1.6-11.1-2.2-5.4-1-11.9-2.3-14-3.5.7-1.1,2.9-3.7,10.7-9,2.8-1.9,11.3-7.7,9-15.1-2.1-6.9-13-11.1-35.2-13.5l-6.3-.6c-1.1-3.3-2.7-8-5-14.8l-3.8-11.1-3.8,11.1c-1.3,3.7-2.3,6.7-3.2,9.3-1-3.2-2.8-8.4-5.9-17.4L27,92.4l-3.8,11.1c-5.2,15.2-6.7,19.7-7.1,21.4H11.5a97.9,97.9,0,0,1-3.2-18.1l9.2-.3L32.7,79.9H43.2l9.1,29.9,21.4-5.5,4.9,2.7L68.2,120.1l6.3,5L96.7,97l2.6,1.5,12,4.4,5.2-2.7a15.8,15.8,0,0,0-1.6,6.8c0,2.4,1.5,7.5,12.9,9.4a7.52,7.52,0,0,1,6.3,7.4v13a23,23,0,0,0-5.4-2.8h.1c-4.4-1.4-8.5-3.5-9.8-7.8-1,3.5-3.8,5.5-7.4,6.9-9.3,2.5-16,9.5-16,17.8,0,3,2.3,10.1,23.2,10.1s23.2-7.1,23.2-10.1V135.2a27,27,0,0,0,4.9,1.2,7.52,7.52,0,0,1,6.3,7.4v9a4.13,4.13,0,0,0,3.6,4.2,4.05,4.05,0,0,0,4.4-4v-9.2a7.52,7.52,0,0,1,6.3-7.4c11.4-1.9,12.9-6.9,12.9-9.4,0-6.7-4.4-12.5-10.9-15.8h.1c-.1,0-.2-.1-.4-.1a22.38,22.38,0,0,0-3.6-1.4,12.39,12.39,0,0,1-4.5-3.6c-.5-7.1-5.8-13.1-13.4-16h-.1c-.5-.2-1-.3-1.5-.5-3.8-1.4-7.1-3.5-8.2-7.2-1.2,4.1-4.7,6.2-9.2,7.6h0a4.18,4.18,0,0,0-1,.4l12.5-13.3,7.5,10.1,6-4.8h1.5l13,17.9,9.2-1.6L190.9,114A91.92,91.92,0,0,1,142.8,181.4Zm4.3-108.9-6-8.1L122.5,84.3a26.12,26.12,0,1,1,28.9-26A25.82,25.82,0,0,1,147.1,72.5Zm6.1,33.9c-1.4,1-6.7,2.6-15.2,2.6h0c-8.5,0-13.8-1.6-15.2-2.6h0c.4-5.6,7.2-10.2,15.2-10.2s14.8,4.6,15.2,10.2Zm4.1,9.8c8,0,14.8,4.6,15.2,10.2h0c-1.4,1-6.7,2.6-15.2,2.6h0c-8.5,0-13.8-1.6-15.2-2.6h0C142.5,120.8,149.3,116.2,157.3,116.2ZM134,150.3c-1.4,1-6.6,2.6-15.2,2.6s-13.8-1.6-15.2-2.6c.4-5.6,7.2-10.2,15.2-10.2S133.6,144.7,134,150.3Zm46.5-60.4-8.6,1.5L159.5,74.2h-4A34.19,34.19,0,1,0,116,91.1l-.5.5-4.9,2.5-8-2.9-7.9-4.6-11.1,14-8.9-4.9-17.1,4.4L49,71.9H28L12.7,98.7,8,98.8A92,92,0,0,1,192,100v2.9Z"/></g></g></svg>