<?xml version="1.0" encoding="UTF-8"?>
<svg width="97px" height="90px" viewBox="0 0 97 90" version="1.1" xmlns="http://www.w3.org/2000/svg" xmlns:xlink="http://www.w3.org/1999/xlink">
    <!-- Generator: Sketch 50 (54983) - http://www.bohemiancoding.com/sketch -->
    <title>Group</title>
    <desc>Created with Sketch.</desc>
    <defs>
        <polygon id="path-1" points="0 89.0352462 96.0185448 89.0352462 96.0185448 0 0 0"></polygon>
    </defs>
    <g id="Page-1" stroke="none" stroke-width="1" fill="none" fill-rule="evenodd">
        <g id="zOS-web-01" transform="translate(-755.000000, -2626.000000)">
            <g id="Group-22" transform="translate(304.000000, 2526.000000)">
                <g id="logos" transform="translate(0.000000, 100.000000)">
                    <g id="Group" transform="translate(451.657143, 0.000000)">
                        <path d="M21.4450957,43.5175639 C21.4054516,43.5173602 21.3658075,43.516953 21.3261635,43.5167494 C21.0217536,44.4424435 20.7173438,45.3679341 20.3959437,46.3457571 L22.3807766,46.3457571 C22.0607924,45.3783191 21.7527418,44.4479415 21.4450957,43.5175639 Z M28.5440137,49.5561607 C28.1851944,48.4810033 27.8712781,47.540037 27.5575641,46.5990707 C27.5098294,46.6072158 27.4622969,46.6155646 27.4147645,46.6237097 C27.1038822,47.5648797 26.7927976,48.5064569 26.4461142,49.5561607 L28.5440137,49.5561607 Z M69.2825434,47.8190078 C70.0584345,47.7750241 70.8442366,47.7933506 71.6077895,47.6715809 C72.6017229,47.5133617 73.5786661,47.246405 74.5618795,47.0215994 C74.8869204,46.9472751 74.9585225,46.7346872 74.8851,46.4237468 C74.7048813,45.6615661 74.3151154,45.0199334 73.7149931,44.5430359 C71.5070612,42.7885746 69.0659169,42.5855572 66.4975475,43.5660274 C65.3563646,44.0017919 64.4180542,44.728134 63.9158285,45.901033 C63.5440642,46.7684894 63.6104074,46.9043095 64.4983536,47.1826694 C66.0560015,47.6707664 67.6603728,47.7933506 69.2825434,47.8190078 Z M55.3025475,56.6695076 C55.8185272,56.6412033 56.5171528,56.6648241 57.1931246,56.5524213 C58.2728188,56.3728212 59.3387588,56.1076971 60.4081374,55.8680267 C60.7252899,55.797164 60.8015441,55.6002555 60.7234695,55.2705813 C60.4949093,54.3074195 59.922902,53.5908515 59.1373022,53.0599926 C57.1472103,51.7158423 54.9855972,51.5244317 52.7414596,52.2570863 C51.4483752,52.6792077 50.3607928,53.4116586 49.7681544,54.7126398 C49.3713091,55.5839652 49.4491814,55.7572529 50.3452183,56.041518 C51.9020571,56.5355202 53.5124963,56.6228767 55.3025475,56.6695076 Z M62.3426062,40.4140652 C62.8707218,40.3855572 63.5238377,40.4053091 64.1579405,40.3041059 C65.2254987,40.1338726 66.2896183,39.9208775 67.3383658,39.6584006 C67.8804378,39.5225805 67.9002598,39.3959237 67.7433017,38.8477564 C67.5513516,38.1761903 67.1866666,37.601144 66.6510671,37.1659904 C64.48642,35.4064384 62.0727838,35.1983302 59.5230228,36.1075305 C58.3881102,36.5123436 57.446159,37.2089559 56.888108,38.3289115 C56.3998387,39.3089745 56.4918696,39.5085302 57.5242335,39.8190633 C59.0586209,40.2806886 60.6389225,40.3645835 62.3426062,40.4140652 Z M65.5460898,26.8691188 C65.6439863,26.7424621 65.7131612,26.6689522 65.7641322,26.5842429 C69.5214191,20.3275602 65.3693096,12.3003295 58.0296954,11.9179156 C52.7131424,11.6409811 48.3698918,15.5779304 47.9467521,20.9030137 C47.5470751,25.9381303 51.2003975,30.5083636 56.1698626,31.2041614 C56.4366511,31.241629 56.6047338,31.1801333 56.7821208,30.9870937 C58.2285226,29.4134543 59.6828127,27.8467382 61.1366983,26.2800222 C61.8676864,25.4925916 62.6031244,24.7096409 63.3527209,23.9073454 C64.0915974,24.9049204 64.8076178,25.8719511 65.5460898,26.8691188 Z M16.5945628,49.2069382 C19.1748659,55.758271 23.2270562,61.0128989 28.8712795,64.9618623 C35.9550276,69.9175639 43.826196,71.8620104 52.3996307,70.8668789 C55.0416248,70.5602147 57.6116123,69.9409811 60.0841078,68.9191744 C59.9285655,68.8128804 59.7809115,68.7564754 59.6286055,68.7208404 C57.6031171,68.2476083 55.583899,67.7436283 53.5497132,67.3129545 C49.1057343,66.3728027 44.6486081,65.4959793 40.2094836,64.5334284 C39.1752993,64.30903 38.1376764,63.9536986 37.1979501,63.4692669 C35.6364592,62.664528 35.2379959,61.0456831 36.1924875,59.5598075 C36.6409105,58.862177 37.2129178,58.2119919 37.8403459,57.6713588 C38.8981953,56.7595113 40.0531323,55.9629174 41.1504235,55.0960718 C41.7145424,54.6505331 42.2788636,54.1939985 42.7762349,53.6771899 C43.3227567,53.1088634 43.2770447,52.7814291 42.5877233,52.3878156 C41.967779,52.0332988 41.3059658,51.7268382 40.6287803,51.5046797 C37.9938655,50.6402777 35.2578179,50.2961459 32.5173204,49.9894817 C32.1904591,49.9530322 31.8621819,49.9320585 31.5260164,49.9029397 C31.3779579,51.0748204 30.6809504,51.7235802 29.71675,52.1255424 C28.512258,52.6278934 27.2683242,52.6808367 26.004366,52.3898519 C25.2159345,52.2086227 24.5041616,51.883632 23.9485378,51.2690818 C23.4669433,50.7365939 23.3027035,50.1006627 23.3741033,49.4649352 C21.1251114,49.3794113 18.9105046,49.2951092 16.5945628,49.2069382 Z M62.1702758,30.7085302 C62.3314816,30.994017 62.4320076,31.209863 62.5655029,31.4022917 C63.2671625,32.4139171 64.3231916,32.8822621 65.4192692,33.3051981 C66.0604514,33.5526064 66.7135672,33.80592 67.2956878,34.1645094 C69.1367098,35.298719 70.3824641,36.8688967 70.6628043,39.1000518 C70.684649,39.2739504 70.8021653,39.4576231 70.9231202,39.5930359 C71.4763168,40.2116586 72.179999,40.5761533 72.9510357,40.8724324 C75.2870019,41.7704332 77.0068668,43.3004961 77.6425878,45.8295594 C78.0697729,47.5292447 77.5980894,48.7094743 76.0497457,49.4928323 C75.172115,49.9367419 74.1891039,50.2140837 73.2228808,50.4260607 C71.637118,50.7738578 70.7257089,51.7981081 70.7238885,53.4236727 C70.7228772,54.4894632 70.733395,55.55505 70.7186296,56.6206368 C70.7093254,57.3068641 70.2625205,57.8878156 69.6646232,58.0492929 C69.0458926,58.2166753 68.4030923,57.9983858 68.10293,57.4359645 C67.9431402,57.1366309 67.8511093,56.7674528 67.8407937,56.426579 C67.8080267,55.3471455 67.8794265,54.2626213 67.8053972,53.1870566 C67.7695962,52.6657682 67.5891752,52.1059941 67.3189483,51.6584191 C66.4945135,50.2922769 64.9583057,50.5181007 63.6656259,50.0344835 L63.6656259,50.6127879 C63.6656259,52.285187 63.6551081,53.9577897 63.6694689,55.6299852 C63.6785709,56.6656387 63.276669,57.5068271 62.4142082,58.0248575 C61.7046603,58.4508478 60.9311964,58.8373343 60.135281,59.0360755 C57.1413446,59.7837986 54.1095846,59.7483673 51.0796449,59.2525324 C49.9263261,59.0641762 48.8158876,58.7237097 47.8563393,58.0144724 C46.9857879,57.3712107 46.4859894,56.5090485 46.6858279,55.4145465 C46.8324705,54.6118438 47.0389838,53.7790041 47.4204568,53.0691559 C48.4631363,51.1285783 50.2194091,50.0821325 52.2434816,49.3761533 C52.9900441,49.1157127 53.7006034,48.6817808 54.3417856,48.2093632 C54.7364059,47.9181748 54.9690114,47.4044206 55.2752416,46.9896298 C55.7246759,48.1124361 56.6346691,48.7508108 57.6945412,49.2313736 C58.6830135,49.6793558 59.6648111,50.1417956 60.6506539,50.5952758 C60.6838255,50.6105479 60.7301443,50.5973121 60.8096347,50.5973121 C60.8096347,49.00107 60.8438176,47.4205072 60.799926,45.842388 C60.7574502,44.3092706 59.8486705,43.324117 58.3448253,43.0494224 C57.2115308,42.8425361 56.1065535,42.5487005 55.135476,41.8891485 C54.1429584,41.2153425 53.5875369,40.3169345 53.7948592,39.0703221 C53.8769791,38.5777453 54.0183628,38.0951462 54.1354746,37.6086783 C54.1668258,37.4779489 54.2086948,37.3498667 54.2734198,37.1242466 C54.0357576,37.2295224 53.8854742,37.2639356 53.7752394,37.3500703 C52.8367268,38.0839467 51.9026639,38.0155276 50.8531074,37.523358 C49.5982512,36.9350759 48.2740179,36.4974787 46.9352215,35.9772084 C44.2770461,39.3635468 41.5743723,42.8062903 38.8518765,46.2742836 C38.0877168,45.6631951 37.3549083,45.0769493 36.5939849,44.4681007 C37.8704835,42.846405 39.1249351,41.2521992 40.4121538,39.6164532 C39.9283343,39.3454239 39.4704049,39.1145094 39.0401858,38.8398149 C38.713729,38.6312995 38.4062852,38.6176564 38.0401844,38.7143799 C35.7400192,39.3226175 33.4345952,39.9123251 31.1307893,40.5065124 C30.9954735,40.5415365 30.8563148,40.561492 30.7185719,40.5885746 C30.6744779,40.4600852 30.6435313,40.3778193 30.6180458,40.2935172 C29.5838615,36.8715439 28.5448228,33.4509959 27.5252015,30.0245428 C27.4171917,29.6616772 27.2590199,29.5435728 26.8854353,29.5535505 C25.871882,29.5808367 24.8567106,29.5755424 23.8427529,29.5551796 C23.5496699,29.5492743 23.395139,29.6510885 23.2551711,29.8993114 C21.5731298,32.8814476 19.8749073,35.8546242 18.2005522,38.8410367 C17.969767,39.2523658 17.7347343,39.4578267 17.2244181,39.4425546 C16.3213019,39.4152684 15.4151517,39.4950907 14.373079,39.5354091 C14.695895,41.3751907 14.9758307,43.1524583 15.3269639,44.9152684 C15.609529,46.3349648 15.6479595,46.327227 17.0901137,46.2750981 C17.1046768,46.2746909 17.1236898,46.2810033 17.1336008,46.27408 C17.2470718,46.1912033 17.4254701,46.1290966 17.462687,46.0189337 C18.3302045,43.4438504 19.1791134,40.862251 20.0391471,38.2845205 C20.4681525,36.9990152 20.9127325,35.7190078 21.3589305,34.4108997 C22.5055746,37.887649 23.6390713,41.3238763 24.7723659,44.7601037 C24.8170666,44.7584746 24.8619695,44.756642 24.906468,44.755013 C25.7288802,42.351181 26.5508878,39.9475528 27.4070784,37.4449611 C27.4932436,37.6644724 27.5446191,37.7809478 27.5854767,37.9010885 C28.4620961,40.4890004 29.374112,43.0657127 30.1932879,45.6721548 C30.4691783,46.5504036 30.7786448,47.1767642 31.8231446,47.0268937 C31.9354021,47.0108071 32.0555479,47.053569 32.1724574,47.064565 C34.7042168,47.3019956 37.2218175,47.6357423 39.6955266,48.2415365 C41.3557231,48.6481822 42.9878048,49.1470715 44.4012372,50.1652129 C46.242057,51.4906294 46.5432306,53.477227 45.1949277,55.3070307 C44.5116743,56.2345576 43.6101762,56.9163051 42.6997785,57.6000889 C41.4778916,58.5180452 40.2944352,59.4887412 39.1061244,60.4506812 C38.9257034,60.5968863 38.806569,60.8198593 38.6223049,61.0542355 C38.9008248,61.1660274 39.0836729,61.2611218 39.2780502,61.3138615 C40.043019,61.5213588 40.8047515,61.7502369 41.5800358,61.909067 C46.5426238,62.9261903 51.5108753,63.9150093 56.4724521,64.9374269 C58.9621401,65.4505702 61.4318039,66.0443502 63.7679723,67.096294 C63.9152217,67.1624732 64.1670425,67.1001629 64.3262255,67.0148427 C66.8822567,65.6456461 69.219841,63.9610292 71.3246175,61.9634358 C76.9081612,56.6633987 80.3675108,50.2069567 81.6381437,42.5790411 C81.6731357,42.3695076 81.5811048,42.0724139 81.441137,41.9097149 C79.959541,40.1878341 78.4609547,38.4806146 76.9492211,36.7852055 C76.8315025,36.6530507 76.5709843,36.5603999 76.3954177,36.5850389 C75.5088873,36.7086412 74.6237728,36.8552536 73.7481647,37.0411662 C73.4105833,37.113047 73.2544342,37.0024769 73.0709793,36.7457016 C71.6654352,34.7768197 70.2457325,32.8183228 68.8290638,30.8573825 C68.4627606,30.350348 68.1640143,30.3206183 67.6664407,30.7246168 C67.0517554,31.2239134 66.4334292,31.7185265 65.7918426,32.2349278 C64.8638477,30.983632 63.9566862,29.7602332 63.0222188,28.500385 C61.4997652,30.1332803 60.028687,31.7111959 58.5574065,33.2891114 C58.5917917,33.3269863 58.6259746,33.3648612 58.6603598,33.402736 C60.1290108,32.9439615 61.5007765,32.3491633 62.1702758,30.7085302 Z M82.0760489,38.1299667 C82.5082906,26.786853 76.9140269,14.0873713 64.6051499,7.18966679 C52.629809,0.478893003 37.5513083,1.64609034 26.7102732,10.7358534 C18.7232066,17.4325768 14.7011539,26.1189522 14.3295919,36.5921659 C14.8639778,36.5921659 15.2907583,36.5715994 15.7149094,36.5988856 C16.0393435,36.6196557 16.2090444,36.4911662 16.3670139,36.2109737 C18.1048805,33.1245798 19.8603442,30.0483673 21.5988176,26.9623806 C21.7351446,26.7204702 21.8834054,26.6428878 22.1501938,26.6443132 C24.2082469,26.6546983 26.2665023,26.6500148 28.3245555,26.6500148 L29.4503661,26.6500148 C29.980909,28.4069197 30.5041702,30.1448871 31.0310723,31.8818364 C31.5567608,33.6147131 32.08609,35.346368 32.618251,37.0924806 C32.8043354,37.0507368 32.9327741,37.0252832 33.0593924,36.9927027 C34.8652202,36.5274121 36.6730707,36.0700629 38.4742465,35.5872603 C38.8013101,35.4997001 39.0587942,35.5359459 39.3458092,35.701903 C40.1605353,36.1735061 40.996297,36.6082525 41.8092028,37.08291 C42.0986449,37.2521251 42.2669299,37.2651573 42.4902312,36.9639911 C43.1049166,36.1346131 43.7604596,35.3361866 44.3998214,34.5253388 C45.0278563,33.7291522 45.6558912,32.9329656 46.2926235,32.1255794 C46.3889019,32.1785228 46.4511997,32.2125287 46.5132953,32.2469419 C47.8476419,32.9855017 49.1118023,33.8433876 50.5847009,34.3318919 C52.2663376,34.8896298 52.2495495,34.9435913 53.7823187,34.0325583 C53.8955875,33.965361 53.9890342,33.8647686 54.1557012,33.7267086 C50.6328401,32.5912773 48.007634,30.4843354 46.3682708,27.2372788 C44.7258736,23.9839097 44.5383734,20.6106035 45.7903978,17.182114 C47.9625288,11.2345391 54.2861625,7.86184376 60.5019886,9.35973343 C63.5040156,10.0830211 65.9502166,11.7299667 67.7077029,14.2830581 C70.5867524,18.4659904 70.7487672,22.9012181 68.6405522,27.5213402 C68.9985624,27.5213402 69.293668,27.5496446 69.5812898,27.5144169 C69.985012,27.4651388 70.2121564,27.6437208 70.4378849,27.9642318 C71.7366327,29.8099185 73.0636977,31.6354461 74.3658841,33.4790966 C74.5796789,33.7818919 74.78154,33.8938874 75.1638221,33.8075491 C75.9360724,33.6332432 76.7263244,33.5397779 77.5024177,33.3811514 C77.757677,33.328819 77.9047241,33.3931655 78.0663344,33.5802999 C79.0499523,34.7187856 80.0426722,35.8491262 81.0355943,36.9794669 C81.3507242,37.3378526 81.6755629,37.687686 82.0760489,38.1299667 Z M46.6498246,0.000162902629 L49.8253956,0.000162902629 C50.7005991,0.0877230655 51.5766117,0.166934469 52.4508039,0.264268789 C56.6356805,0.730373936 60.6510584,1.84503517 64.3828599,3.79783043 C76.1332814,9.94699741 82.9939305,19.6181192 84.7589007,32.8696372 C85.2748804,36.7436653 85.0574448,40.6101592 84.2651702,44.4316512 C82.645629,52.2438504 78.9708664,58.9391485 73.070777,64.2607701 C63.5758199,72.8251722 52.4706259,75.8533284 40.0284558,73.0697297 C29.6756901,70.7536616 21.8453794,64.710585 16.425671,55.5493484 C13.8144212,51.1355017 12.2735614,46.3349648 11.7116674,41.2234876 C11.6168048,40.3599 11.5397416,39.4942762 11.4543855,38.6296705 L11.4543855,35.4325028 C11.4829049,35.2307071 11.5272011,35.029726 11.5377189,34.8269123 C11.6424925,32.7851314 11.9157534,30.7649352 12.394314,28.7799667 C14.8989697,18.3928878 20.7369636,10.4625842 29.8476159,5.00229174 C34.2297015,2.37589411 38.9956874,0.825468345 44.0699261,0.259585339 C44.9289484,0.163676416 45.789791,0.0860940392 46.6498246,0.000162902629 Z" id="Fill-1" fill="#FFFFFF"></path>
                        <path d="M40.1724488,17.914789 C40.2193744,14.8059959 37.6995488,12.2186949 34.5909278,12.1836709 C31.539548,12.1490541 28.9861462,14.655311 28.9282982,17.7417049 C28.8694389,20.8845039 31.3797581,23.4797464 34.510426,23.5125305 C37.596191,23.5451111 40.1253209,21.0445557 40.1724488,17.914789 M26.0506646,17.8469807 C26.0534963,13.130746 29.868429,9.29744354 34.5537109,9.3029415 C39.2634669,9.30823584 43.0395646,13.1097723 43.0407782,17.8467771 C43.0419917,22.5691207 39.2339361,26.4028304 34.5498678,26.3950926 C29.8536636,26.3871511 26.0478329,22.5595502 26.0506646,17.8469807" id="Fill-3" fill="#FFFFFF"></path>
                        <path d="M2.14749501,87.016455 L3.69765906,87.016455 C5.59632685,87.016455 6.6628737,85.8423343 6.6628737,83.6590318 C6.6628737,81.5685839 5.56072809,80.3730822 3.69765906,80.3730822 L2.14749501,80.3730822 L2.14749501,87.016455 Z M4.0390835,78.5261736 C7.08965425,78.5261736 8.85300631,80.3873362 8.85300631,83.6231933 C8.85300631,86.9806164 7.11089214,88.8633636 4.0390835,88.8633636 L4.04531328e-05,88.8633636 L4.04531328e-05,78.5261736 L4.0390835,78.5261736 Z" id="Fill-5" fill="#FFFFFF"></path>
                        <path d="M12.3587557,84.0885043 L15.7007913,84.0885043 C15.6583155,83.0432803 15.0325055,82.3918734 14.0654734,82.3918734 C13.1053183,82.3918734 12.4299532,83.0648649 12.3587557,84.0885043 Z M17.6706566,86.6155313 C17.3577516,88.1046649 16.006617,89.0352462 14.0867113,89.0352462 C11.697347,89.0352462 10.289578,87.5176046 10.289578,84.954739 C10.289578,82.3847464 11.7258664,80.7954276 14.0581918,80.7954276 C16.3692793,80.7954276 17.7345725,82.2772307 17.7345725,84.7828767 L17.7345725,85.4200296 L12.3516764,85.4200296 L12.3516764,85.5273417 C12.3799936,86.7014624 13.0626402,87.4316735 14.1435479,87.4316735 C14.961308,87.4316735 15.523202,87.1382451 15.7434693,86.6155313 L17.6706566,86.6155313 Z" id="Fill-7" fill="#FFFFFF"></path>
                        <path d="M24.4330652,83.7520492 C24.2908724,83.0004572 23.7574979,82.506455 22.8758219,82.506455 C21.7593154,82.506455 21.1337077,83.3439782 21.1337077,84.8974583 C21.1337077,86.4723195 21.7663947,87.3243003 22.8758219,87.3243003 C23.7218991,87.3243003 24.2767138,86.9091022 24.4330652,86.1287986 L26.3671295,86.1287986 C26.1966195,87.896903 24.9166824,89.0351851 22.8758219,89.0351851 C20.4296209,89.0351851 19.0430898,87.5462551 19.0430898,84.8974583 C19.0430898,82.2773732 20.4225416,80.7953665 22.8758219,80.7953665 C24.9520789,80.7953665 26.1966195,81.9552332 26.3671295,83.7520492 L24.4330652,83.7520492 Z" id="Fill-9" fill="#FFFFFF"></path>
                        <path d="M29.6666893,84.0885043 L33.0087248,84.0885043 C32.9660468,83.0432803 32.3404391,82.3918734 31.3734069,82.3918734 C30.4132518,82.3918734 29.7378868,83.0648649 29.6666893,84.0885043 Z M34.9785901,86.6155313 C34.6656852,88.1046649 33.3145505,89.0352462 31.3946448,89.0352462 C29.0052805,89.0352462 27.5975115,87.5176046 27.5975115,84.954739 C27.5975115,82.3847464 29.0338,80.7954276 31.3661254,80.7954276 C33.6772129,80.7954276 35.0425061,82.2772307 35.0425061,84.7828767 L35.0425061,85.4200296 L29.65961,85.4200296 L29.65961,85.5273417 C29.6879272,86.7014624 30.3705738,87.4316735 31.4514815,87.4316735 C32.2692416,87.4316735 32.8311356,87.1382451 33.0514029,86.6155313 L34.9785901,86.6155313 Z" id="Fill-11" fill="#FFFFFF"></path>
                        <path d="M36.7349236,80.9672695 L38.7401854,80.9672695 L38.7401854,82.2344484 L38.8682195,82.2344484 C39.2308819,81.346629 40.0272018,80.7954073 41.1863863,80.7954073 C42.9285005,80.7954073 43.8672154,81.8693428 43.8672154,83.759217 L43.8672154,88.8633636 L41.7978354,88.8633636 L41.7978354,84.2532192 C41.7978354,83.1650296 41.3356584,82.5922233 40.3544676,82.5922233 C39.3943125,82.5922233 38.8041013,83.2723417 38.8041013,84.3104387 L38.8041013,88.8633636 L36.7349236,88.8633636 L36.7349236,80.9672695 Z" id="Fill-13" fill="#FFFFFF"></path>
                        <path d="M48.5319066,79.0916698 L48.5319066,81.046094 L50.1603475,81.046094 L50.1603475,82.6853017 L48.5319066,82.6853017 L48.5319066,86.2361718 C48.5319066,86.9234173 48.8448116,87.2384302 49.5486961,87.2384302 C49.8189231,87.2384302 49.9611158,87.2313032 50.1603475,87.2097186 L50.1603475,88.7990374 C49.9042792,88.84913 49.5203789,88.8920955 49.1221178,88.8920955 C47.2163708,88.8920955 46.4627289,88.2691966 46.4627289,86.730174 L46.4627289,82.6853017 L45.2396284,82.6853017 L45.2396284,81.046094 L46.4627289,81.046094 L46.4627289,79.0916698 L48.5319066,79.0916698 Z" id="Fill-15" fill="#FFFFFF"></path>
                        <path d="M51.8811429,80.9672695 L53.8864047,80.9672695 L53.8864047,82.2271177 L54.0144388,82.2271177 C54.2205475,81.4396872 55.0312283,80.8383728 56.0267799,80.8383728 C56.3111654,80.8383728 56.6596692,80.8742114 56.8374607,80.9385579 L56.8374607,82.8357627 C56.6738278,82.7712125 56.1904128,82.706866 55.8560677,82.706866 C54.7256049,82.706866 53.9503206,83.3798575 53.9503206,84.489428 L53.9503206,88.8633636 L51.8811429,88.8633636 L51.8811429,80.9672695 Z" id="Fill-17" fill="#FFFFFF"></path>
                        <path d="M62.5901591,85.9999223 L62.5901591,85.4199889 L61.0043963,85.5203776 C60.115641,85.5847242 59.6817811,85.9068641 59.6817811,86.4723399 C59.6817811,87.0594002 60.1866362,87.4173787 60.9048816,87.4173787 C61.8648345,87.4173787 62.5901591,86.8018104 62.5901591,85.9999223 M57.6552815,86.6083636 C57.6552815,85.1766531 58.7430662,84.3462569 60.6914913,84.2316142 L62.5901591,84.1171751 L62.5901591,83.4728952 C62.5901591,82.8141577 62.1209028,82.4419252 61.2675439,82.4419252 C60.5209814,82.4419252 60.0232056,82.6997186 59.8524934,83.1721362 L57.9467463,83.1721362 C58.0818597,81.7117142 59.4115542,80.7953869 61.3812173,80.7953869 C63.4576766,80.7953869 64.6310197,81.7833913 64.6310197,83.4728952 L64.6310197,88.8635468 L62.6257579,88.8635468 L62.6257579,87.8325768 L62.4977237,87.8325768 C62.0923833,88.5556609 61.2390245,88.9851129 60.222235,88.9851129 C58.714749,88.9851129 57.6552815,88.0545317 57.6552815,86.6083636" id="Fill-19" fill="#FFFFFF"></path>
                        <mask id="mask-2" fill="white">
                            <use xlink:href="#path-1"></use>
                        </mask>
                        <g id="Clip-22"></g>
                        <polygon id="Fill-21" fill="#FFFFFF" mask="url(#mask-2)" points="66.7357355 88.8633839 68.8049132 88.8633839 68.8049132 77.9533876 66.7357355 77.9533876"></polygon>
                        <path d="M75.4680094,85.9999223 L75.4680094,85.4199889 L73.8822466,85.5203776 C72.9934913,85.5847242 72.5596314,85.9068641 72.5596314,86.4723399 C72.5596314,87.0594002 73.0644865,87.4173787 73.7827319,87.4173787 C74.7426848,87.4173787 75.4680094,86.8018104 75.4680094,85.9999223 M70.5331318,86.6083636 C70.5331318,85.1766531 71.6209165,84.3462569 73.5693416,84.2316142 L75.4680094,84.1171751 L75.4680094,83.4728952 C75.4680094,82.8141577 74.9987531,82.4419252 74.1453943,82.4419252 C73.3988317,82.4419252 72.9010559,82.6997186 72.7303437,83.1721362 L70.8245966,83.1721362 C70.95971,81.7117142 72.2894045,80.7953869 74.2590676,80.7953869 C76.3355269,80.7953869 77.50887,81.7833913 77.50887,83.4728952 L77.50887,88.8635468 L75.5036082,88.8635468 L75.5036082,87.8325768 L75.375574,87.8325768 C74.9702336,88.5556609 74.1168748,88.9851129 73.1000853,88.9851129 C71.5925993,88.9851129 70.5331318,88.0545317 70.5331318,86.6083636" id="Fill-23" fill="#FFFFFF" mask="url(#mask-2)"></path>
                        <path d="M79.5425501,80.9672695 L81.5478119,80.9672695 L81.5478119,82.2344484 L81.6758461,82.2344484 C82.0385084,81.346629 82.8348283,80.7954073 83.9940128,80.7954073 C85.736127,80.7954073 86.674842,81.8693428 86.674842,83.759217 L86.674842,88.8633636 L84.6054619,88.8633636 L84.6054619,84.2532192 C84.6054619,83.1650296 84.1432849,82.5922233 83.1620942,82.5922233 C82.2019391,82.5922233 81.6117278,83.2723417 81.6117278,84.3104387 L81.6117278,88.8633636 L79.5425501,88.8633636 L79.5425501,80.9672695 Z" id="Fill-24" fill="#FFFFFF" mask="url(#mask-2)"></path>
                        <path d="M90.4222381,84.9117734 C90.4222381,86.3721955 91.0836469,87.2455572 92.1928718,87.2455572 C93.3020967,87.2455572 93.9705847,86.3650685 93.9705847,84.9189004 C93.9705847,83.4800629 93.2950174,82.5851166 92.1928718,82.5851166 C91.0907262,82.5851166 90.4222381,83.4656053 90.4222381,84.9117734 M88.2960215,84.9046464 C88.2960215,82.3918734 89.5191219,80.8383932 91.488785,80.8383932 C92.5484548,80.8383932 93.4230515,81.3537764 93.8283919,82.2271381 L93.9491445,82.2271381 L93.9491445,77.9533876 L96.0185245,77.9533876 L96.0185245,88.8633839 L94.0132627,88.8633839 L94.0132627,87.6249167 L93.8852286,87.6249167 C93.4657296,88.4768974 92.576772,88.9851536 91.488785,88.9851536 C89.5120427,88.9851536 88.2960215,87.4245465 88.2960215,84.9046464" id="Fill-25" fill="#FFFFFF" mask="url(#mask-2)"></path>
                    </g>
                </g>
            </g>
        </g>
    </g>
</svg>