<svg xmlns="http://www.w3.org/2000/svg" viewBox="0 0 552.12 50.19"><defs><style>.cls-1{fill:#fff;}</style></defs><title>Asset 2</title><g id="Layer_2" data-name="Layer 2"><g id="Livello_1" data-name="Livello 1"><polygon class="cls-1" points="5.54 29.01 5.54 48.37 1.08 48.37 1.08 1.69 28.95 1.69 28.95 5.67 5.54 5.67 5.54 29.01"/><path class="cls-1" d="M6,48.88H.57V1.18H29.46v5H6Zm-4.46-1H5V5.16H28.45v-3H1.59Z"/><path class="cls-1" d="M33.95,48.37H29.49L49.12.59h.34l19.7,47.78h-4.6l-3.23-8.1H37.24Zm15.38-38L38.82,36.29H59.69Z"/><path class="cls-1" d="M69.93,48.88h-5.7L61,40.78H37.59l-3.3,8.1H28.73L48.78.08h1Zm-5-1h3.5L49.29,1.51,30.24,47.87h3.37l3.3-8.1H61.69ZM60.44,36.8H38.07L49.33,9.05Zm-20.87-1H58.95l-9.62-24Z"/><path class="cls-1" d="M33.38,48.37H28.91L48.55.59h.34L68.6,48.37H64l-3.23-8.1H36.67Zm15.38-38L38.25,36.29H59.12Z"/><path class="cls-1" d="M69.35,48.88h-5.7l-3.23-8.1H37l-3.3,8.1H28.16L48.21.08h1Zm-5-1h3.5L48.72,1.51,29.67,47.87H33l3.3-8.1H61.11ZM59.87,36.8H37.5L48.76,9.05ZM39,35.79H58.37l-9.62-24Z"/><path class="cls-1" d="M76.78,1.69H92c8.79,0,13.11,5.08,13.11,11.47a9.66,9.66,0,0,1-6,9.34c5.9,1.58,9.68,6,9.68,12.29,0,7.55-4.94,13.59-15,13.59h-17ZM92.5,21c5.91,0,8.17-3.23,8.17-7.76,0-4.26-2.54-7.55-8.92-7.55H81.24V21Zm.89,23.41c7.76,0,10.92-4.19,10.92-9.75s-3.5-9.89-11.05-9.89h-12V44.39Z"/><path class="cls-1" d="M93.81,48.88H76.27V1.18H92c10,0,13.62,6.18,13.62,12a10,10,0,0,1-5.14,9.22,12.62,12.62,0,0,1,8.85,12.41C109.35,41.6,105.27,48.88,93.81,48.88Zm-16.52-1H93.81c9,0,14.53-5,14.53-13.09,0-5.83-3.48-10.24-9.3-11.8l-1.37-.37L99,22a9.17,9.17,0,0,0,5.68-8.87c0-6.76-4.83-11-12.61-11H77.29Zm16.11-3H80.74V24.25H93.26c7.24,0,11.56,3.89,11.56,10.39S100.65,44.9,93.39,44.9Zm-11.64-1H93.39c6.71,0,10.41-3.28,10.41-9.24S100,25.26,93.26,25.26H81.75ZM92.5,21.49H80.74V5.16h11c6,0,9.43,2.94,9.43,8.06C101.18,18.55,98.1,21.49,92.5,21.49Zm-10.75-1H92.5c5.08,0,7.66-2.44,7.66-7.25,0-4.54-3-7-8.42-7h-10Z"/><path class="cls-1" d="M76.78,1.69H92c8.79,0,13.11,5.08,13.11,11.47a9.66,9.66,0,0,1-6,9.34c5.9,1.58,9.68,6,9.68,12.29,0,7.55-4.94,13.59-15,13.59h-17ZM92.5,21c5.91,0,8.17-3.23,8.17-7.76,0-4.26-2.54-7.55-8.92-7.55H81.24V21Zm.89,23.41c7.76,0,10.92-4.19,10.92-9.75s-3.5-9.89-11.05-9.89h-12V44.39Z"/><path class="cls-1" d="M93.81,48.88H76.27V1.18H92c10,0,13.62,6.18,13.62,12a10,10,0,0,1-5.14,9.22,12.62,12.62,0,0,1,8.85,12.41C109.35,41.6,105.27,48.88,93.81,48.88Zm-16.52-1H93.81c9,0,14.53-5,14.53-13.09,0-5.83-3.48-10.24-9.3-11.8l-1.37-.37L99,22a9.17,9.17,0,0,0,5.68-8.87c0-6.76-4.83-11-12.61-11H77.29Zm16.11-3H80.74V24.25H93.26c7.24,0,11.56,3.89,11.56,10.39S100.65,44.9,93.39,44.9Zm-11.64-1H93.39c6.71,0,10.41-3.28,10.41-9.24S100,25.26,93.26,25.26H81.75ZM92.5,21.49H80.74V5.16h11c6,0,9.43,2.94,9.43,8.06C101.18,18.55,98.1,21.49,92.5,21.49Zm-10.75-1H92.5c5.08,0,7.66-2.44,7.66-7.25,0-4.54-3-7-8.42-7h-10Z"/><path class="cls-1" d="M148,48.37h-5.42l-9.27-11.95a23.06,23.06,0,0,1-3.84.27h-5.7V48.37h-4.46V1.69h10.16c12.7,0,19.29,7.48,19.29,17.58,0,7.48-3.71,13.59-10.92,16.13ZM129.14,32.79c10.64,0,14.9-5.7,14.9-13.52s-4.33-13.59-14.9-13.59h-5.42V32.79Z"/><path class="cls-1" d="M149,48.88h-6.71L133,37a24,24,0,0,1-3.63.23h-5.19V48.88h-5.48V1.18h10.67c12.21,0,19.8,6.93,19.8,18.08,0,7.79-3.85,13.71-10.6,16.37Zm-6.22-1h4.13L137,35.16l.67-.23c6.72-2.37,10.58-8.08,10.58-15.66,0-10.53-7.2-17.07-18.79-17.07h-9.65V47.87h3.45V36.2h6.21a22.31,22.31,0,0,0,3.76-.27l.3,0ZM129.14,33.3h-5.93V5.16h5.93c9.93,0,15.41,5,15.41,14.1S139.08,33.3,129.14,33.3Zm-4.92-1h4.92c11.89,0,14.39-7.08,14.39-13,0-8.44-5.11-13.09-14.39-13.09h-4.92Z"/><path class="cls-1" d="M148,48.37h-5.42l-9.27-11.95a23.06,23.06,0,0,1-3.84.27h-5.7V48.37h-4.46V1.69h10.16c12.7,0,19.29,7.48,19.29,17.58,0,7.48-3.71,13.59-10.92,16.13ZM129.14,32.79c10.64,0,14.9-5.7,14.9-13.52s-4.33-13.59-14.9-13.59h-5.42V32.79Z"/><path class="cls-1" d="M149,48.88h-6.71L133,37a24,24,0,0,1-3.63.23h-5.19V48.88h-5.48V1.18h10.67c12.21,0,19.8,6.93,19.8,18.08,0,7.79-3.85,13.71-10.6,16.37Zm-6.22-1h4.13L137,35.16l.67-.23c6.72-2.37,10.58-8.08,10.58-15.66,0-10.53-7.2-17.07-18.79-17.07h-9.65V47.87h3.45V36.2h6.21a22.31,22.31,0,0,0,3.76-.27l.3,0ZM129.14,33.3h-5.93V5.16h5.93c9.93,0,15.41,5,15.41,14.1S139.08,33.3,129.14,33.3Zm-4.92-1h4.92c11.89,0,14.39-7.08,14.39-13,0-8.44-5.11-13.09-14.39-13.09h-4.92Z"/><rect class="cls-1" x="159.42" y="1.69" width="4.53" height="46.68"/><path class="cls-1" d="M164.46,48.88h-5.54V1.18h5.54Zm-4.53-1h3.52V2.2h-3.52Z"/><rect class="cls-1" x="159.42" y="1.69" width="4.53" height="46.68"/><path class="cls-1" d="M164.46,48.88h-5.54V1.18h5.54Zm-4.53-1h3.52V2.2h-3.52Z"/><path class="cls-1" d="M173.53,25c0-13.87,10.37-23.89,23.62-23.89,7.9,0,14.14,3.23,18.33,8.72L212,12.33a18,18,0,0,0-15-7.14C186.23,5.19,178.2,13.7,178.2,25s8.17,19.84,19.22,19.84a19.09,19.09,0,0,0,15.86-7.76l3.5,2.47c-4.6,6-11.12,9.34-19.5,9.34-13.39,0-23.82-10-23.76-23.89"/><path class="cls-1" d="M197.28,49.43a24.26,24.26,0,0,1-17.39-7A24.23,24.23,0,0,1,173,25C173,11.12,183.39.63,197.15.63c7.81,0,14.29,3.08,18.73,8.92l.32.41L211.94,13l-.3-.39A17.49,17.49,0,0,0,197.08,5.7C186.6,5.7,178.7,14,178.7,25c0,11.2,7.87,19.33,18.71,19.33a18.59,18.59,0,0,0,15.46-7.56l.3-.39,4.33,3.06-.32.42C212.37,46.22,205.67,49.43,197.28,49.43Zm-.14-47.78C184,1.65,174,11.7,174,25h0a23.22,23.22,0,0,0,6.58,16.68,23.26,23.26,0,0,0,16.67,6.7c7.87,0,14.18-2.93,18.77-8.72l-2.67-1.89a19.57,19.57,0,0,1-16,7.57c-11.43,0-19.73-8.56-19.73-20.35,0-11.6,8.33-20.35,19.39-20.35a18.45,18.45,0,0,1,15.06,7l2.61-1.88C210.52,4.45,204.44,1.65,197.15,1.65Z"/><path class="cls-1" d="M173.53,25c0-13.87,10.37-23.89,23.62-23.89,7.9,0,14.14,3.23,18.33,8.72L212,12.33a18,18,0,0,0-15-7.14C186.23,5.19,178.2,13.7,178.2,25s8.17,19.84,19.22,19.84a19.09,19.09,0,0,0,15.86-7.76l3.5,2.47c-4.6,6-11.12,9.34-19.5,9.34C183.9,48.92,173.46,38.9,173.53,25Z"/><path class="cls-1" d="M197.28,49.43a24.26,24.26,0,0,1-17.39-7A24.23,24.23,0,0,1,173,25C173,11.12,183.39.63,197.15.63c7.81,0,14.29,3.08,18.73,8.92l.32.41L211.94,13l-.3-.39A17.49,17.49,0,0,0,197.08,5.7C186.6,5.7,178.7,14,178.7,25c0,11.2,7.87,19.33,18.71,19.33a18.59,18.59,0,0,0,15.46-7.56l.3-.39,4.33,3.06-.32.42C212.37,46.22,205.67,49.43,197.28,49.43Zm-.14-47.78C184,1.65,174,11.7,174,25h0a23.22,23.22,0,0,0,6.58,16.68,23.26,23.26,0,0,0,16.67,6.7c7.87,0,14.18-2.93,18.77-8.72l-2.67-1.89a19.57,19.57,0,0,1-16,7.57c-11.43,0-19.73-8.56-19.73-20.35,0-11.6,8.33-20.35,19.39-20.35a18.45,18.45,0,0,1,15.06,7l2.61-1.88C210.52,4.45,204.44,1.65,197.15,1.65Z"/><rect class="cls-1" x="24.84" y="1.74" width="4.14" height="10.18"/><path class="cls-1" d="M29.49,12.43H24.33V1.23h5.16Zm-4.14-1h3.13V2.24H25.34Z"/><polyline class="cls-1" points="5.34 25.03 18.26 25.03 18.26 28.95 5.34 28.95"/><polygon class="cls-1" points="18.77 29.45 5.34 29.45 5.34 28.44 17.75 28.44 17.75 25.54 5.34 25.54 5.34 24.52 18.77 24.52 18.77 29.45"/><polygon class="cls-1" points="28.89 1.18 23.76 1.18 0 1.18 0 48.88 5.48 48.88 5.48 29.45 18.19 29.45 18.19 24.52 5.48 24.52 5.48 6.18 23.76 6.18 23.76 12.38 28.91 12.38 28.91 1.18 28.89 1.18"/><path class="cls-1" d="M319.38,5.76V49h-2V0h.28l33.46,44.43V1.2h2v49h-.28Z"/><path class="cls-1" d="M377.23,3.16H361.91v-2h32.9v2H379.48V49h-2.25Z"/><path class="cls-1" d="M403.1,33.25V1.2h2.25V33c0,9.42,5.55,14.55,13.5,14.55S432.48,42.46,432.48,33V1.2h2.25V33.25c0,10.62-6.89,16.31-15.89,16.31S403.1,43.87,403.1,33.25Z"/><path class="cls-1" d="M474.8,49H472L461.3,36.27a37.26,37.26,0,0,1-4.15.28H450.4V49h-2.25V1.2h9c12.79,0,19.12,7.94,19.12,17.71,0,7.94-4.22,14.62-12.58,16.87ZM456.87,34.59c12.23,0,17.15-7,17.15-15.68S469,3.16,456.87,3.16H450.4V34.59Z"/><path class="cls-1" d="M489.77,32.34V47h26.29v2H487.52V1.2h27.56v2H489.77V30.37m0-2.88H508.2v2H489.77"/><path class="cls-1" d="M280.44,32.34V47h26.29v2H278.19V1.2h27.56v2H280.44V30.37m0-2.88h18.43v2H280.44"/><path class="cls-1" d="M524.07,39.16a15.16,15.16,0,0,0,13.85,8.37c7.66,0,12-4,12-9.91s-3.09-8.93-10.12-12.3l-4.36-2.11c-6.75-3.3-10.4-5.91-10.4-12,0-6.4,5.13-10.54,11.53-10.54,5.76,0,9.63,2.11,12.51,6.75l-1.69,1c-2.46-3.94-5.83-5.76-10.83-5.76-5.48,0-9.35,3.66-9.35,8.58,0,5.2,2.88,7.1,9.21,10.19l4.29,2.11c8,3.94,11.39,7.66,11.39,14.13,0,7.1-5.27,12-14.2,12a17,17,0,0,1-15.75-9.35Z"/><polygon class="cls-1" points="267.29 1.2 266.31 1.2 256.57 1.2 256.57 3.16 265.54 3.16 248.95 45.13 232.37 3.16 241.33 3.16 241.33 1.2 231.59 1.2 230.61 1.2 229.27 1.2 248.74 50.19 249.02 50.19 268.49 1.2 267.29 1.2"/></g></g></svg>