<?xml version="1.0" encoding="utf-8"?>
<!-- Generator: Adobe Illustrator 21.1.0, SVG Export Plug-In . SVG Version: 6.00 Build 0)  -->
<svg version="1.1" id="Layer_1" xmlns="http://www.w3.org/2000/svg" xmlns:xlink="http://www.w3.org/1999/xlink" x="0px" y="0px"
	 viewBox="0 0 552.1 181.6" style="enable-background:new 0 0 552.1 181.6;" xml:space="preserve">
<style type="text/css">
	.st0{fill:#FFFFFF;}
</style>
<title>Asset 2</title>
<g id="Layer_2">
	<g id="Livello_1">
		<polygon class="st0" points="5.5,94.7 5.5,114.1 1.1,114.1 1.1,67.4 29,67.4 29,71.4 5.5,71.4 		"/>
		<path class="st0" d="M6,114.6H0.6V66.9h28.9v5H6V114.6z M1.5,113.6H5V70.9h23.5v-3H1.6L1.5,113.6z"/>
		<path class="st0" d="M34,114.1h-4.5l19.6-47.8h0.3l19.7,47.8h-4.6l-3.2-8.1H37.2L34,114.1z M49.3,76.1L38.8,102h20.9L49.3,76.1z"
			/>
		<path class="st0" d="M69.9,114.6h-5.7l-3.2-8.1H37.6l-3.3,8.1h-5.6l20-48.8h1L69.9,114.6z M64.9,113.6h3.5L49.3,67.2l-19.1,46.4
			h3.4l3.3-8.1h24.8L64.9,113.6z M60.4,102.5H38.1l11.3-27.8L60.4,102.5z M39.6,101.5H59l-9.6-24L39.6,101.5z"/>
		<path class="st0" d="M33.4,114.1h-4.5l19.6-47.8h0.3l19.7,47.8H64l-3.2-8.1H36.7L33.4,114.1z M48.8,76.1L38.2,102h20.9L48.8,76.1z
			"/>
		<path class="st0" d="M69.3,114.6h-5.7l-3.2-8.1H37l-3.3,8.1h-5.5l20-48.8h1L69.3,114.6z M64.3,113.6h3.5L48.7,67.2l-19.1,46.4H33
			l3.3-8.1h24.8L64.3,113.6z M59.9,102.5H37.5l11.3-27.8L59.9,102.5z M39,101.5h19.4l-9.6-24L39,101.5z"/>
		<path class="st0" d="M76.8,67.4H92c8.8,0,13.1,5.1,13.1,11.5c0.2,4.1-2.2,7.8-6,9.3c5.9,1.6,9.7,6,9.7,12.3
			c0,7.5-4.9,13.6-15,13.6h-17L76.8,67.4z M92.5,86.7c5.9,0,8.2-3.2,8.2-7.8c0-4.3-2.5-7.5-8.9-7.5H81.2v15.3H92.5z M93.4,110.1
			c7.8,0,10.9-4.2,10.9-9.8c0-5.6-3.5-9.9-11.1-9.9h-12v19.6L93.4,110.1z"/>
		<path class="st0" d="M93.8,114.6H76.3V66.9H92c10,0,13.6,6.2,13.6,12c0.2,3.8-1.8,7.4-5.1,9.2c5.4,1.7,9,6.8,8.8,12.4
			C109.3,107.3,105.3,114.6,93.8,114.6z M77.3,113.6h16.5c9,0,14.5-5,14.5-13.1c0-5.8-3.5-10.2-9.3-11.8l-1.4-0.4l1.3-0.6
			c3.6-1.5,5.8-5,5.7-8.9c0-6.8-4.8-11-12.6-11H77.3L77.3,113.6z M93.4,110.6H80.7V90h12.5c7.2,0,11.6,3.9,11.6,10.4
			S100.7,110.6,93.4,110.6L93.4,110.6z M81.8,109.6h11.6c6.7,0,10.4-3.3,10.4-9.2S100,91,93.3,91H81.8L81.8,109.6z M92.5,87.2H80.7
			V70.9h11c6,0,9.4,2.9,9.4,8.1C101.2,84.3,98.1,87.2,92.5,87.2z M81.8,86.2h10.8c5.1,0,7.7-2.4,7.7-7.2c0-4.5-3-7-8.4-7h-10
			L81.8,86.2z"/>
		<path class="st0" d="M76.8,67.4H92c8.8,0,13.1,5.1,13.1,11.5c0.2,4.1-2.2,7.8-6,9.3c5.9,1.6,9.7,6,9.7,12.3
			c0,7.5-4.9,13.6-15,13.6h-17L76.8,67.4z M92.5,86.7c5.9,0,8.2-3.2,8.2-7.8c0-4.3-2.5-7.5-8.9-7.5H81.2v15.3H92.5z M93.4,110.1
			c7.8,0,10.9-4.2,10.9-9.8c0-5.6-3.5-9.9-11.1-9.9h-12v19.6L93.4,110.1z"/>
		<path class="st0" d="M93.8,114.6H76.3V66.9H92c10,0,13.6,6.2,13.6,12c0.2,3.8-1.8,7.4-5.1,9.2c5.4,1.7,9,6.8,8.8,12.4
			C109.3,107.3,105.3,114.6,93.8,114.6z M77.3,113.6h16.5c9,0,14.5-5,14.5-13.1c0-5.8-3.5-10.2-9.3-11.8l-1.4-0.4l1.3-0.6
			c3.6-1.5,5.8-5,5.7-8.9c0-6.8-4.8-11-12.6-11H77.3L77.3,113.6z M93.4,110.6H80.7V90h12.5c7.2,0,11.6,3.9,11.6,10.4
			S100.7,110.6,93.4,110.6L93.4,110.6z M81.8,109.6h11.6c6.7,0,10.4-3.3,10.4-9.2S100,91,93.3,91H81.8L81.8,109.6z M92.5,87.2H80.7
			V70.9h11c6,0,9.4,2.9,9.4,8.1C101.2,84.3,98.1,87.2,92.5,87.2z M81.8,86.2h10.8c5.1,0,7.7-2.4,7.7-7.2c0-4.5-3-7-8.4-7h-10
			L81.8,86.2z"/>
		<path class="st0" d="M148,114.1h-5.4l-9.3-11.9c-1.3,0.2-2.6,0.3-3.8,0.3h-5.7v11.7h-4.5V67.4h10.2c12.7,0,19.3,7.5,19.3,17.6
			c0,7.5-3.7,13.6-10.9,16.1L148,114.1z M129.1,98.5c10.6,0,14.9-5.7,14.9-13.5c0-7.8-4.3-13.6-14.9-13.6h-5.4v27.1H129.1z"/>
		<path class="st0" d="M149,114.6h-6.7l-9.3-11.9c-1.2,0.2-2.4,0.2-3.6,0.2h-5.2v11.7h-5.5V66.9h10.7c12.2,0,19.8,6.9,19.8,18.1
			c0,7.8-3.9,13.7-10.6,16.4L149,114.6z M142.8,113.6h4.1l-9.9-12.7l0.7-0.2c6.7-2.4,10.6-8.1,10.6-15.7c0-10.5-7.2-17.1-18.8-17.1
			h-9.7v45.7h3.4v-11.7h6.2c1.3,0,2.5-0.1,3.8-0.3h0.3L142.8,113.6z M129.1,99h-5.9V70.9h5.9c9.9,0,15.4,5,15.4,14.1
			S139.1,99,129.1,99z M124.2,98h4.9c11.9,0,14.4-7.1,14.4-13c0-8.4-5.1-13.1-14.4-13.1h-4.9V98z"/>
		<path class="st0" d="M148,114.1h-5.4l-9.3-11.9c-1.3,0.2-2.6,0.3-3.8,0.3h-5.7v11.7h-4.5V67.4h10.2c12.7,0,19.3,7.5,19.3,17.6
			c0,7.5-3.7,13.6-10.9,16.1L148,114.1z M129.1,98.5c10.6,0,14.9-5.7,14.9-13.5c0-7.8-4.3-13.6-14.9-13.6h-5.4v27.1H129.1z"/>
		<path class="st0" d="M149,114.6h-6.7l-9.3-11.9c-1.2,0.2-2.4,0.2-3.6,0.2h-5.2v11.7h-5.5V66.9h10.7c12.2,0,19.8,6.9,19.8,18.1
			c0,7.8-3.9,13.7-10.6,16.4L149,114.6z M142.8,113.6h4.1l-9.9-12.7l0.7-0.2c6.7-2.4,10.6-8.1,10.6-15.7c0-10.5-7.2-17.1-18.8-17.1
			h-9.7v45.7h3.4v-11.7h6.2c1.3,0,2.5-0.1,3.8-0.3h0.3L142.8,113.6z M129.1,99h-5.9V70.9h5.9c9.9,0,15.4,5,15.4,14.1
			S139.1,99,129.1,99z M124.2,98h4.9c11.9,0,14.4-7.1,14.4-13c0-8.4-5.1-13.1-14.4-13.1h-4.9V98z"/>
		<rect x="159.4" y="67.4" class="st0" width="4.5" height="46.7"/>
		<path class="st0" d="M164.5,114.6h-5.5V66.9h5.5V114.6z M159.9,113.6h3.5V67.9h-3.5V113.6z"/>
		<rect x="159.4" y="67.4" class="st0" width="4.5" height="46.7"/>
		<path class="st0" d="M164.5,114.6h-5.5V66.9h5.5V114.6z M159.9,113.6h3.5V67.9h-3.5V113.6z"/>
		<path class="st0" d="M173.5,90.7c0-13.9,10.4-23.9,23.6-23.9c7.9,0,14.1,3.2,18.3,8.7L212,78c-3.5-4.7-9.1-7.3-15-7.1
			c-10.8,0-18.8,8.5-18.8,19.8s8.2,19.8,19.2,19.8c6.2,0.2,12.2-2.7,15.9-7.8l3.5,2.5c-4.6,6-11.1,9.3-19.5,9.3
			C183.9,114.6,173.5,104.6,173.5,90.7"/>
		<path class="st0" d="M197.3,115.1c-6.5,0.1-12.8-2.4-17.4-7c-4.5-4.7-7-10.9-6.9-17.4c0-13.9,10.4-24.4,24.1-24.4
			c7.8,0,14.3,3.1,18.7,8.9l0.3,0.4l-4.3,3l-0.3-0.4c-3.4-4.5-8.9-7.1-14.6-6.9c-10.5,0-18.4,8.3-18.4,19.3
			c0,11.2,7.9,19.3,18.7,19.3c6.1,0.2,11.9-2.7,15.5-7.6l0.3-0.4l4.3,3.1l-0.3,0.4C212.4,111.9,205.7,115.1,197.3,115.1z
			 M197.1,67.4c-13.1,0-23.1,10-23.1,23.3l0,0c-0.1,6.2,2.2,12.2,6.6,16.7c4.4,4.4,10.4,6.8,16.7,6.7c7.9,0,14.2-2.9,18.8-8.7
			l-2.7-1.9c-3.8,4.9-9.8,7.7-16,7.6c-11.4,0-19.7-8.6-19.7-20.3c0-11.6,8.3-20.3,19.4-20.3c5.8-0.2,11.4,2.4,15.1,7l2.6-1.9
			C210.5,70.2,204.4,67.4,197.1,67.4L197.1,67.4z"/>
		<path class="st0" d="M173.5,90.7c0-13.9,10.4-23.9,23.6-23.9c7.9,0,14.1,3.2,18.3,8.7L212,78c-3.5-4.7-9.1-7.3-15-7.1
			c-10.8,0-18.8,8.5-18.8,19.8s8.2,19.8,19.2,19.8c6.2,0.2,12.2-2.7,15.9-7.8l3.5,2.5c-4.6,6-11.1,9.3-19.5,9.3
			C183.9,114.6,173.5,104.6,173.5,90.7z"/>
		<path class="st0" d="M197.3,115.1c-6.5,0.1-12.8-2.4-17.4-7c-4.5-4.7-7-10.9-6.9-17.4c0-13.9,10.4-24.4,24.1-24.4
			c7.8,0,14.3,3.1,18.7,8.9l0.3,0.4l-4.3,3l-0.3-0.4c-3.4-4.5-8.9-7.1-14.6-6.9c-10.5,0-18.4,8.3-18.4,19.3
			c0,11.2,7.9,19.3,18.7,19.3c6.1,0.2,11.9-2.7,15.5-7.6l0.3-0.4l4.3,3.1l-0.3,0.4C212.4,111.9,205.7,115.1,197.3,115.1z
			 M197.1,67.4c-13.1,0-23.1,10-23.1,23.3l0,0c-0.1,6.2,2.2,12.2,6.6,16.7c4.4,4.4,10.4,6.8,16.7,6.7c7.9,0,14.2-2.9,18.8-8.7
			l-2.7-1.9c-3.8,4.9-9.8,7.7-16,7.6c-11.4,0-19.7-8.6-19.7-20.3c0-11.6,8.3-20.3,19.4-20.3c5.8-0.2,11.4,2.4,15.1,7l2.6-1.9
			C210.5,70.2,204.4,67.4,197.1,67.4L197.1,67.4z"/>
		<rect x="24.8" y="67.5" class="st0" width="4.1" height="10.2"/>
		<path class="st0" d="M29.5,78.1h-5.2V66.9h5.2V78.1z M25.4,77.1h3.1V68h-3.1L25.4,77.1z"/>
		<polyline class="st0" points="5.3,90.7 18.3,90.7 18.3,94.7 5.3,94.7 		"/>
		<polygon class="st0" points="18.8,95.2 5.3,95.2 5.3,94.2 17.8,94.2 17.8,91.3 5.3,91.3 5.3,90.2 18.8,90.2 		"/>
		<polygon class="st0" points="28.9,66.9 23.8,66.9 0,66.9 0,114.6 5.5,114.6 5.5,95.2 18.2,95.2 18.2,90.2 5.5,90.2 5.5,71.9 
			23.8,71.9 23.8,78.1 28.9,78.1 28.9,66.9 		"/>
		<path class="st0" d="M319.4,71.5v43.2h-2v-49h0.3l33.5,44.4V66.9h2v49h-0.3L319.4,71.5z"/>
		<path class="st0" d="M377.2,68.9h-15.3v-2h32.9v2h-15.3v45.8h-2.2V68.9z"/>
		<path class="st0" d="M403.1,99V66.9h2.2v31.8c0,9.4,5.5,14.6,13.5,14.6s13.6-5.1,13.6-14.6V66.9h2.2V99c0,10.6-6.9,16.3-15.9,16.3
			S403.1,109.6,403.1,99z"/>
		<path class="st0" d="M474.8,114.7H472L461.3,102c-1.4,0.2-2.8,0.3-4.1,0.3h-6.8v12.4h-2.2V66.9h9c12.8,0,19.1,7.9,19.1,17.7
			c0,7.9-4.2,14.6-12.6,16.9L474.8,114.7z M456.9,100.3c12.2,0,17.1-7,17.1-15.7c0-8.7-5-15.8-17.1-15.8h-6.5v31.4H456.9z"/>
		<path class="st0" d="M489.8,98.1v14.7h26.3v2h-28.5V66.9h27.6v2h-25.3v27.2 M489.8,93.2h18.4v2h-18.4"/>
		<path class="st0" d="M280.4,98.1v14.7h26.3v2h-28.5V66.9h27.6v2h-25.3v27.2 M280.4,93.2h18.4v2h-18.4"/>
		<path class="st0" d="M524.1,104.9c2.6,5.2,8,8.5,13.8,8.4c7.7,0,12-4,12-9.9c0-5.9-3.1-8.9-10.1-12.3l-4.4-2.1
			c-6.8-3.3-10.4-5.9-10.4-12c0-6.4,5.1-10.5,11.5-10.5c5.8,0,9.6,2.1,12.5,6.8l-1.7,1c-2.5-3.9-5.8-5.8-10.8-5.8
			c-5.5,0-9.3,3.7-9.3,8.6c0,5.2,2.9,7.1,9.2,10.2l4.3,2.1c8,3.9,11.4,7.7,11.4,14.1c0,7.1-5.3,12-14.2,12
			c-6.6,0.2-12.8-3.4-15.8-9.3L524.1,104.9z"/>
		<polygon class="st0" points="267.3,66.9 266.3,66.9 256.6,66.9 256.6,68.9 265.5,68.9 248.9,110.8 232.4,68.9 241.3,68.9 
			241.3,66.9 231.6,66.9 230.6,66.9 229.3,66.9 248.7,115.9 249,115.9 268.5,66.9 		"/>
	</g>
</g>
</svg>
