<svg id="Kenetic_Logo_Black" data-name="Kenetic Logo Black" xmlns="http://www.w3.org/2000/svg" viewBox="0 0 778.41 219.79"><defs><style>.cls-1{fill:#fff;}</style></defs><title>Kenetic Logo White</title><circle class="cls-1" cx="165.42" cy="164.34" r="4.26" transform="translate(-67.76 165.11) rotate(-45)"/><circle class="cls-1" cx="157.19" cy="156.11" r="3.65" transform="translate(-64.35 156.88) rotate(-45)"/><circle class="cls-1" cx="149.82" cy="148.74" r="3.04" transform="translate(-61.3 149.51) rotate(-45)"/><circle class="cls-1" cx="143.32" cy="142.24" r="2.43" transform="translate(-58.6 143) rotate(-45)"/><circle class="cls-1" cx="137.67" cy="136.59" r="1.82" transform="translate(-56.26 137.35) rotate(-45)"/><circle class="cls-1" cx="132.88" cy="131.8" r="1.22" transform="translate(-54.28 132.56) rotate(-45)"/><circle class="cls-1" cx="128.95" cy="127.87" r="0.61" transform="translate(-52.65 128.63) rotate(-45)"/><circle class="cls-1" cx="122.87" cy="121.79" r="3.04" transform="translate(-50.13 122.55) rotate(-45)"/><circle class="cls-1" cx="56" cy="54.92" r="4.26" transform="translate(-22.43 55.68) rotate(-45)"/><circle class="cls-1" cx="64.23" cy="63.15" r="3.65" transform="translate(-25.84 63.91) rotate(-45)"/><circle class="cls-1" cx="71.59" cy="70.51" r="3.04" transform="translate(-28.89 71.28) rotate(-45)"/><circle class="cls-1" cx="78.1" cy="77.02" r="2.43" transform="translate(-31.59 77.79) rotate(-45)"/><circle class="cls-1" cx="83.75" cy="82.67" r="1.82" transform="translate(-33.93 83.44) rotate(-45)"/><circle class="cls-1" cx="88.54" cy="87.46" r="1.22" transform="translate(-35.91 88.23) rotate(-45)"/><circle class="cls-1" cx="92.47" cy="91.39" r="0.61" transform="translate(-37.54 92.16) rotate(-45)"/><circle class="cls-1" cx="98.55" cy="97.47" r="3.04" transform="translate(-40.06 98.24) rotate(-45)"/><circle class="cls-1" cx="56" cy="164.34" r="4.26" transform="translate(-99.81 87.73) rotate(-45)"/><circle class="cls-1" cx="64.23" cy="156.11" r="3.65" transform="translate(-91.58 91.14) rotate(-45)"/><circle class="cls-1" cx="71.59" cy="148.74" r="3.04" transform="translate(-84.21 94.19) rotate(-45)"/><circle class="cls-1" cx="78.1" cy="142.24" r="2.43" transform="translate(-77.7 96.89) rotate(-45)"/><circle class="cls-1" cx="83.75" cy="136.59" r="1.82" transform="translate(-72.05 99.23) rotate(-45)"/><circle class="cls-1" cx="88.54" cy="131.8" r="1.22" transform="translate(-67.26 101.21) rotate(-45)"/><circle class="cls-1" cx="92.47" cy="127.87" r="0.61" transform="translate(-63.33 102.84) rotate(-45)"/><circle class="cls-1" cx="98.55" cy="121.79" r="3.04" transform="translate(-57.25 105.36) rotate(-45)"/><circle class="cls-1" cx="165.42" cy="54.92" r="4.26" transform="translate(9.62 133.06) rotate(-45)"/><circle class="cls-1" cx="157.19" cy="63.15" r="3.65" transform="translate(1.39 129.65) rotate(-45)"/><circle class="cls-1" cx="149.82" cy="70.51" r="3.04" transform="translate(-5.98 126.6) rotate(-45)"/><circle class="cls-1" cx="143.32" cy="77.02" r="2.43" transform="translate(-12.49 123.9) rotate(-45)"/><circle class="cls-1" cx="137.67" cy="82.67" r="1.82" transform="translate(-18.14 121.56) rotate(-45)"/><circle class="cls-1" cx="132.88" cy="87.46" r="1.22" transform="translate(-22.93 119.58) rotate(-45)"/><circle class="cls-1" cx="128.95" cy="91.39" r="0.61" transform="translate(-26.86 117.95) rotate(-45)"/><circle class="cls-1" cx="122.87" cy="97.47" r="3.04" transform="translate(-32.94 115.43) rotate(-45)"/><circle class="cls-1" cx="98.55" cy="109.63" r="3.04"/><circle class="cls-1" cx="122.87" cy="109.63" r="3.04"/><circle class="cls-1" cx="56" cy="109.63" r="4.26"/><circle class="cls-1" cx="67.85" cy="109.63" r="3.65" transform="translate(-57.65 80.09) rotate(-45)"/><circle class="cls-1" cx="78.49" cy="109.63" r="3.04" transform="translate(-54.53 87.61) rotate(-45)"/><circle class="cls-1" cx="87.91" cy="109.63" r="2.43" transform="translate(-51.77 94.27) rotate(-45)"/><circle class="cls-1" cx="165.42" cy="109.63" r="4.26"/><circle class="cls-1" cx="153.57" cy="109.63" r="3.65" transform="translate(-32.54 140.7) rotate(-45)"/><circle class="cls-1" cx="142.93" cy="109.63" r="3.04" transform="translate(-35.66 133.18) rotate(-45)"/><circle class="cls-1" cx="133.51" cy="109.63" r="2.43" transform="translate(-38.42 126.51) rotate(-45)"/><circle class="cls-1" cx="110.71" cy="121.79" r="3.04"/><circle class="cls-1" cx="110.71" cy="97.47" r="3.04"/><circle class="cls-1" cx="110.71" cy="164.34" r="4.26"/><circle class="cls-1" cx="110.71" cy="152.49" r="3.65" transform="translate(-75.4 122.95) rotate(-45)"/><circle class="cls-1" cx="110.71" cy="141.85" r="3.04" transform="translate(-67.88 119.83) rotate(-45)"/><circle class="cls-1" cx="110.71" cy="132.43" r="2.43" transform="translate(-61.21 117.07) rotate(-45)"/><circle class="cls-1" cx="110.71" cy="54.92" r="4.26"/><circle class="cls-1" cx="110.71" cy="66.77" r="3.65" transform="translate(-14.79 97.84) rotate(-45)"/><circle class="cls-1" cx="110.71" cy="77.41" r="3.04" transform="translate(-22.31 100.96) rotate(-45)"/><circle class="cls-1" cx="110.71" cy="86.83" r="2.43" transform="translate(-28.97 103.72) rotate(-45)"/><circle class="cls-1" cx="83.35" cy="54.92" r="4.26" transform="translate(-15.77 43.14) rotate(-26.6)"/><circle class="cls-1" cx="88.43" cy="65.06" r="3.65" transform="translate(-1.21 128.43) rotate(-71.6)"/><circle class="cls-1" cx="92.96" cy="74.11" r="3.04" transform="translate(-6.7 138.93) rotate(-71.6)"/><circle class="cls-1" cx="96.95" cy="82.07" r="2.43" transform="translate(-11.53 148.16) rotate(-71.6)"/><circle class="cls-1" cx="100.4" cy="88.95" r="1.82" transform="translate(-15.7 156.14) rotate(-71.6)"/><circle class="cls-1" cx="138.09" cy="54.92" r="4.26" transform="translate(27.15 153.8) rotate(-63.4)"/><circle class="cls-1" cx="133.01" cy="65.06" r="3.65" transform="translate(-13.74 45.31) rotate(-18.4)"/><circle class="cls-1" cx="128.48" cy="74.11" r="3.04" transform="matrix(0.95, -0.32, 0.32, 0.95, -16.82, 44.34)"/><circle class="cls-1" cx="124.49" cy="82.07" r="2.43" transform="translate(-19.54 43.49) rotate(-18.4)"/><circle class="cls-1" cx="121.04" cy="88.95" r="1.82" transform="translate(-21.89 42.76) rotate(-18.4)"/><circle class="cls-1" cx="83.35" cy="164.33" r="4.26" transform="translate(-100.91 165.28) rotate(-63.4)"/><circle class="cls-1" cx="88.43" cy="154.19" r="3.65" transform="translate(-44.15 35.8) rotate(-18.4)"/><circle class="cls-1" cx="92.96" cy="145.14" r="3.04" transform="translate(-41.06 36.76) rotate(-18.4)"/><circle class="cls-1" cx="96.95" cy="137.18" r="2.43" transform="translate(-38.34 37.62) rotate(-18.4)"/><circle class="cls-1" cx="100.4" cy="130.3" r="1.82" transform="translate(-36 38.35) rotate(-18.4)"/><circle class="cls-1" cx="138.09" cy="164.33" r="4.26" transform="translate(-58.96 79.22) rotate(-26.6)"/><circle class="cls-1" cx="133.01" cy="154.19" r="3.65" transform="translate(-55.28 231.73) rotate(-71.6)"/><circle class="cls-1" cx="128.48" cy="145.14" r="3.04" transform="translate(-49.8 221.24) rotate(-71.6)"/><circle class="cls-1" cx="124.49" cy="137.18" r="2.43" transform="translate(-44.97 212) rotate(-71.6)"/><circle class="cls-1" cx="121.04" cy="130.3" r="1.82" transform="translate(-40.8 204.03) rotate(-71.6)"/><circle class="cls-1" cx="56.01" cy="136.99" r="4.26" transform="translate(-55.41 39.58) rotate(-26.6)"/><circle class="cls-1" cx="66.15" cy="131.91" r="3.65" transform="translate(-79.9 153.05) rotate(-71.6)"/><circle class="cls-1" cx="75.2" cy="127.38" r="3.04" transform="translate(-69.4 158.53) rotate(-71.6)"/><circle class="cls-1" cx="83.17" cy="123.39" r="2.43" transform="translate(-60.17 163.36) rotate(-71.6)"/><circle class="cls-1" cx="90.05" cy="119.95" r="1.82" transform="translate(-52.19 167.53) rotate(-71.6)"/><circle class="cls-1" cx="56.01" cy="82.26" r="4.26" transform="translate(-42.62 95.51) rotate(-63.4)"/><circle class="cls-1" cx="66.15" cy="87.34" r="3.65" transform="translate(-24.19 25.35) rotate(-18.4)"/><circle class="cls-1" cx="75.2" cy="91.87" r="3.04" transform="translate(-25.15 28.44) rotate(-18.4)"/><circle class="cls-1" cx="83.17" cy="95.86" r="2.43" transform="translate(-26.01 31.15) rotate(-18.4)"/><circle class="cls-1" cx="90.05" cy="99.3" r="1.82" transform="translate(-26.74 33.5) rotate(-18.4)"/><circle class="cls-1" cx="165.43" cy="136.99" r="4.26" transform="translate(-31.14 223.57) rotate(-63.4)"/><circle class="cls-1" cx="155.29" cy="131.91" r="3.65" transform="translate(-33.7 55.76) rotate(-18.4)"/><circle class="cls-1" cx="146.24" cy="127.38" r="3.04" transform="translate(-32.73 52.67) rotate(-18.4)"/><circle class="cls-1" cx="138.27" cy="123.39" r="2.43" transform="translate(-31.88 49.95) rotate(-18.4)"/><circle class="cls-1" cx="131.39" cy="119.95" r="1.82" transform="translate(-31.14 47.61) rotate(-18.4)"/><circle class="cls-1" cx="165.43" cy="82.26" r="4.26" transform="translate(-19.32 82.78) rotate(-26.6)"/><circle class="cls-1" cx="155.29" cy="87.34" r="3.65" transform="translate(23.4 207.12) rotate(-71.6)"/><circle class="cls-1" cx="146.24" cy="91.87" r="3.04" transform="translate(12.91 201.63) rotate(-71.6)"/><circle class="cls-1" cx="138.27" cy="95.86" r="2.43" transform="translate(3.67 196.8) rotate(-71.6)"/><circle class="cls-1" cx="131.39" cy="99.3" r="1.82" transform="translate(-4.3 192.63) rotate(-71.6)"/><path class="cls-1" d="M234.24,110.2l-17.7,18V160h-12V61h12v51l49.8-51h15.75l-39.45,40.35L282.54,160h-14.4Z"/><path class="cls-1" d="M353.64,127H297.09q1,11.4,7.57,17.7t16.88,6.3q8.25,0,13.73-2.85a14.78,14.78,0,0,0,7.42-8.25l10.05,5.25a31.15,31.15,0,0,1-12,12.15q-7.5,4.2-19.2,4.2-17,0-26.62-10.35t-9.67-28.65q0-18.3,9.22-28.65T320.64,83.5a34.28,34.28,0,0,1,18.15,4.65,29.89,29.89,0,0,1,11.55,12.6,40,40,0,0,1,3.9,17.85A59.54,59.54,0,0,1,353.64,127Zm-49-27.15q-6.07,5.85-7.42,16.5h45.45q-1.2-10.5-6.9-16.42T320.64,94Q310.74,94,304.66,99.85Z"/><path class="cls-1" d="M430,90.85q8.25,7.35,8.25,21.15v48h-12V116.2q0-11.7-5-17T407.79,94a24.84,24.84,0,0,0-11.25,2.63,20.55,20.55,0,0,0-8.62,8.55q-3.37,5.93-3.37,14.92V160h-12V85H383l.75,11.7a23.44,23.44,0,0,1,10.35-10A33.4,33.4,0,0,1,409,83.5Q421.74,83.5,430,90.85Z"/><path class="cls-1" d="M524.63,127H468.09q1,11.4,7.57,17.7t16.88,6.3q8.25,0,13.72-2.85a14.77,14.77,0,0,0,7.43-8.25l10,5.25a31.14,31.14,0,0,1-12,12.15q-7.5,4.2-19.2,4.2-17,0-26.62-10.35t-9.68-28.65q0-18.3,9.23-28.65T491.63,83.5a34.29,34.29,0,0,1,18.15,4.65,29.9,29.9,0,0,1,11.55,12.6,40,40,0,0,1,3.9,17.85A59.54,59.54,0,0,1,524.63,127Zm-49-27.15q-6.08,5.85-7.43,16.5h45.45q-1.2-10.5-6.9-16.42T491.63,94Q481.74,94,475.66,99.85Z"/><path class="cls-1" d="M587.18,154.75q-7.5,6.75-19.35,6.75-9.15,0-14.92-5T547,141.4V95.35H532V85h15V67l12-3.3V85h27.75V95.35H559v44q0,5.4,3.07,8.17a11.73,11.73,0,0,0,8.18,2.78A17.53,17.53,0,0,0,583,144.7Z"/><path class="cls-1" d="M599.11,68.13a8.83,8.83,0,0,1-2.47-6.53,9,9,0,1,1,18,0,9.23,9.23,0,0,1-15.53,6.53ZM611.63,160h-12V85h12Z"/><path class="cls-1" d="M685.66,88.67a34.3,34.3,0,0,1,12.08,14.78l-11.4,5.4Q681.53,94,666.38,94q-11.25,0-17.62,7.58t-6.37,20.92q0,13.35,6.38,20.92T666.38,151q8.7,0,14-4a18.73,18.73,0,0,0,7-11.48l11.1,3.9a33.8,33.8,0,0,1-12,16.27q-8.1,5.78-19.8,5.78-17,0-26.62-10.35t-9.68-28.65q0-18.3,9.68-28.65T666.68,83.5Q677.93,83.5,685.66,88.67Z"/></svg>