<svg id="Layer_1" data-name="Layer 1" xmlns="http://www.w3.org/2000/svg" viewBox="0 0 1004 260"><defs><style>.cls-1{fill:#fff;}</style></defs><title>Artboard 1 copy 2</title><path class="cls-1" d="M59.53,155V256.75H2V26H72.48l22.44,108.1V26h57.84V256.75H86.08Z"/><path class="cls-1" d="M300,198c0,35.08-19.6,60.37-68,60.37s-68-25.29-68-60.37V132.21c0-35.09,19.6-60.37,68-60.37s68,25.29,68,60.37Zm-62.27-66.38c0-2.21-1.26-4.74-5.69-4.74s-5.69,2.53-5.69,4.74v66.69c0,2.21,1.26,4.74,5.69,4.74s5.69-2.53,5.69-4.74Z"/><path class="cls-1" d="M375.9,40.24V73.42h19.28v55.31H375.9v55.63c0,5.06,2.84,8.53,6.64,8.53H392v63.85h-43.3c-19,0-36.35-17.7-36.35-41.09V40.24Z"/><path class="cls-1" d="M477,256.75v-37c-3.79,19-14.22,38.56-39.19,38.56-24,0-36-15.49-36-45.2,0-27.5,2.84-44.25,33.5-54,25.6-8.22,41.72-7.27,41.72-21.81V126.84c0-3.16-.95-6-5.69-6s-5.69,2.84-5.69,6v17.7h-62v-19C403.7,99,423,71.84,472.92,71.84c50.57,0,66.37,25.29,66.37,60.05V256.75Zm-5.69-37.3c3.79,0,5.69-1.9,5.69-4.74V179.62c-7.27.32-11.38,5.69-11.38,13.59v21.49C465.65,217.55,467.55,219.45,471.34,219.45Z"/><path class="cls-1" d="M614.51,40.24V73.42H633.8v55.31H614.51v55.63c0,5.06,2.85,8.53,6.64,8.53h9.48v63.85h-43.3c-19,0-36.35-17.7-36.35-41.09V40.24Z"/><path class="cls-1" d="M641.69,33.28c0-21.18,14.22-31.61,33.82-31.61,19.28,0,33.82,10.43,33.82,31.61,0,21.49-14.54,31.61-33.82,31.61C655.92,64.89,641.69,54.77,641.69,33.28Zm65.74,223.47H643.91V61.41c5.06,6.32,14.22,12.33,31.29,12.33,17.7,0,28.45-6.64,32.24-11.69Z"/><path class="cls-1" d="M854.72,198c0,35.08-19.6,60.37-68,60.37s-68-25.29-68-60.37V132.21c0-35.09,19.6-60.37,68-60.37s68,25.29,68,60.37Zm-62.27-66.38c0-2.21-1.27-4.74-5.69-4.74s-5.69,2.53-5.69,4.74v66.69c0,2.21,1.26,4.74,5.69,4.74s5.69-2.53,5.69-4.74Z"/><path class="cls-1" d="M866.09,73.42h62v72.06c0-26.87,1.9-73.65,35.08-73.65,32.55,0,38.88,22.13,38.88,51.84V256.75H939.42V150.54c0-10.43.95-15.49-5.37-15.49-5.37,0-6,3.79-6,12.33V256.75h-62Z"/></svg>