<?xml version="1.0" encoding="utf-8"?>
<!-- Generator: Adobe Illustrator 21.1.0, SVG Export Plug-In . SVG Version: 6.00 Build 0)  -->
<svg version="1.1" id="Layer_1" xmlns="http://www.w3.org/2000/svg" xmlns:xlink="http://www.w3.org/1999/xlink" x="0px" y="0px"
	 viewBox="0 0 512.9 202.5" style="enable-background:new 0 0 512.9 202.5;" xml:space="preserve">
<style type="text/css">
	.st0{clip-path:url(#SVGID_2_);}
	.st1{fill:#FFFFFF;}
</style>
<title>Artboard 1 copy 2</title>
<g>
	<defs>
		<rect id="SVGID_1_" width="512.9" height="202.5"/>
	</defs>
	<clipPath id="SVGID_2_">
		<use xlink:href="#SVGID_1_"  style="overflow:visible;"/>
	</clipPath>
	<g class="st0">
		<path class="st1" d="M44.2,113.3v48.8H16.6V51.4h33.8l10.8,51.9V51.4h27.7v110.7h-32L44.2,113.3z"/>
		<path class="st1" d="M159.6,133.9c0,16.8-9.4,29-32.6,29s-32.6-12.1-32.6-29v-31.6c0-16.8,9.4-29,32.6-29s32.6,12.1,32.6,29V133.9
			z M129.7,102c0-1.1-0.6-2.3-2.7-2.3s-2.7,1.2-2.7,2.3v32c0,1.1,0.6,2.3,2.7,2.3s2.7-1.2,2.7-2.3V102z"/>
		<path class="st1" d="M196,58.2v15.9h9.2v26.6H196v26.7c0,2.4,1.4,4.1,3.2,4.1h4.5v30.6h-20.8c-9.1,0-17.4-8.5-17.4-19.7V58.2H196z
			"/>
		<path class="st1" d="M244.5,162.1v-17.7c-1.8,9.1-6.8,18.5-18.8,18.5c-11.5,0-17.3-7.4-17.3-21.7c0-13.2,1.4-21.2,16.1-25.9
			c12.3-3.9,20-3.5,20-10.5v-5c0-1.5-0.5-2.9-2.7-2.9s-2.7,1.4-2.7,2.9v8.5h-29.7v-9.1c0-12.7,9.3-25.8,33.2-25.8
			c24.3,0,31.8,12.1,31.8,28.8v59.9H244.5z M241.7,144.2c1.8,0,2.7-0.9,2.7-2.3v-16.8c-3.5,0.2-5.5,2.7-5.5,6.5v10.3
			C239,143.3,239.9,144.2,241.7,144.2L241.7,144.2z"/>
		<path class="st1" d="M310.4,58.2v15.9h9.3v26.6h-9.3v26.7c0,2.4,1.4,4.1,3.2,4.1h4.5v30.6h-20.8c-9.1,0-17.4-8.5-17.4-19.7V58.2
			H310.4z"/>
		<path class="st1" d="M323.5,54.9c0-10.2,6.8-15.2,16.2-15.2c9.2,0,16.2,5,16.2,15.2c0,10.3-7,15.2-16.2,15.2
			C330.3,70,323.5,65.2,323.5,54.9z M355,162.1h-30.5V68.4c2.4,3,6.8,5.9,15,5.9c8.5,0,13.6-3.2,15.5-5.6V162.1z"/>
		<path class="st1" d="M425.7,133.9c0,16.8-9.4,29-32.6,29s-32.6-12.1-32.6-29v-31.6c0-16.8,9.4-29,32.6-29s32.6,12.1,32.6,29V133.9
			z M395.8,102c0-1.1-0.6-2.3-2.7-2.3s-2.7,1.2-2.7,2.3v32c0,1.1,0.6,2.3,2.7,2.3s2.7-1.2,2.7-2.3V102z"/>
		<path class="st1" d="M431.1,74.1h29.7v34.6c0-12.9,0.9-35.3,16.8-35.3c15.6,0,18.7,10.6,18.7,24.9v63.8h-30v-51
			c0-5,0.5-7.4-2.6-7.4c-2.6,0-2.9,1.8-2.9,5.9v52.5h-29.7V74.1z"/>
	</g>
</g>
</svg>
