<?xml version="1.0" encoding="utf-8"?>
<!-- Generator: Adobe Illustrator 21.1.0, SVG Export Plug-In . SVG Version: 6.00 Build 0)  -->
<svg version="1.1" id="Layer_1" xmlns="http://www.w3.org/2000/svg" xmlns:xlink="http://www.w3.org/1999/xlink" x="0px" y="0px"
	 viewBox="0 0 479.7 123.1" style="enable-background:new 0 0 479.7 123.1;" xml:space="preserve">
<style type="text/css">
	.st0{fill:#FFFFFF;}
</style>
<title>Artboard 1 copy 2</title>
<g>
	<path class="st0" d="M27.6,73.6v48.8H0V11.7h33.8l10.8,51.9V11.7h27.7v110.7h-32L27.6,73.6z"/>
	<path class="st0" d="M143,94.2c0,16.8-9.4,29-32.6,29s-32.6-12.1-32.6-29V62.6c0-16.8,9.4-29,32.6-29s32.6,12.1,32.6,29V94.2z
		 M113.1,62.3c0-1.1-0.6-2.3-2.7-2.3c-2.1,0-2.7,1.2-2.7,2.3v32c0,1.1,0.6,2.3,2.7,2.3c2.1,0,2.7-1.2,2.7-2.3V62.3z"/>
	<path class="st0" d="M179.4,18.5v15.9h9.2V61h-9.2v26.7c0,2.4,1.4,4.1,3.2,4.1h4.5v30.6h-20.8c-9.1,0-17.4-8.5-17.4-19.7V18.5
		H179.4z"/>
	<path class="st0" d="M227.9,122.4v-17.7c-1.8,9.1-6.8,18.5-18.8,18.5c-11.5,0-17.3-7.4-17.3-21.7c0-13.2,1.4-21.2,16.1-25.9
		c12.3-3.9,20-3.5,20-10.5v-5c0-1.5-0.5-2.9-2.7-2.9s-2.7,1.4-2.7,2.9v8.5h-29.7v-9.1c0-12.7,9.3-25.8,33.2-25.8
		c24.3,0,31.8,12.1,31.8,28.8v59.9H227.9z M225.1,104.5c1.8,0,2.7-0.9,2.7-2.3V85.4c-3.5,0.2-5.5,2.7-5.5,6.5v10.3
		C222.4,103.6,223.3,104.5,225.1,104.5L225.1,104.5z"/>
	<path class="st0" d="M293.8,18.5v15.9h9.3V61h-9.3v26.7c0,2.4,1.4,4.1,3.2,4.1h4.5v30.6h-20.8c-9.1,0-17.4-8.5-17.4-19.7V18.5
		H293.8z"/>
	<path class="st0" d="M306.9,15.2C306.9,5,313.7,0,323.1,0c9.2,0,16.2,5,16.2,15.2c0,10.3-7,15.2-16.2,15.2
		C313.7,30.3,306.9,25.5,306.9,15.2z M338.4,122.4h-30.5V28.7c2.4,3,6.8,5.9,15,5.9c8.5,0,13.6-3.2,15.5-5.6L338.4,122.4z"/>
	<path class="st0" d="M409.1,94.2c0,16.8-9.4,29-32.6,29s-32.6-12.1-32.6-29V62.6c0-16.8,9.4-29,32.6-29s32.6,12.1,32.6,29V94.2z
		 M379.2,62.3c0-1.1-0.6-2.3-2.7-2.3c-2.1,0-2.7,1.2-2.7,2.3v32c0,1.1,0.6,2.3,2.7,2.3s2.7-1.2,2.7-2.3V62.3z"/>
	<path class="st0" d="M414.5,34.4h29.7V69c0-12.9,0.9-35.3,16.8-35.3c15.6,0,18.7,10.6,18.7,24.9v63.8h-30v-51c0-5,0.5-7.4-2.6-7.4
		c-2.6,0-2.9,1.8-2.9,5.9v52.5h-29.7L414.5,34.4z"/>
</g>
</svg>
