<?xml version="1.0" encoding="UTF-8"?>
<svg width="44px" height="45px" viewBox="0 0 44 45" version="1.1" xmlns="http://www.w3.org/2000/svg" xmlns:xlink="http://www.w3.org/1999/xlink">
    <!-- Generator: Sketch 50 (54983) - http://www.bohemiancoding.com/sketch -->
    <title>Group 7</title>
    <desc>Created with Sketch.</desc>
    <defs>
        <linearGradient x1="11.0309687%" y1="2.22044605e-14%" x2="100%" y2="98.7706585%" id="linearGradient-1">
            <stop stop-color="#5C8EE4" offset="0%"></stop>
            <stop stop-color="#67EAEC" offset="100%"></stop>
        </linearGradient>
    </defs>
    <g id="Page-1" stroke="none" stroke-width="1" fill="none" fill-rule="evenodd">
        <g id="zOS-web-02" transform="translate(-568.000000, -1234.000000)" fill="url(#linearGradient-1)">
            <g id="Group-7" transform="translate(568.000000, 1234.000000)">
                <path d="M13.7293882,5.26081468 L16.5675676,8.13088369 L9,8.13088369 L9,0.478287276 L11.8903159,3.40107864 C15.1501607,1.25013613 19.0441945,0 23.2269689,0 C34.6995972,0 44,9.40490172 44,21.0064359 C44,25.465923 42.6258291,29.6008491 40.2823307,33.001822 L38.373856,31.0719038 C40.262855,28.1727872 41.3621767,24.7009146 41.3621767,20.9693967 C41.3621767,10.8155038 33.2222796,2.58414722 23.1812078,2.58414722 C19.7194026,2.58414722 16.483576,3.56254733 13.7293882,5.26081468 Z M30.2706118,39.3702208 L27.4324324,36.5001518 L35,36.5001518 L35,44.1527483 L32.1096841,41.2299569 C28.8498393,43.3808994 24.9558055,44.6310355 20.7730311,44.6310355 C9.30040281,44.6310355 0,35.2261338 0,23.6245996 C0,19.1651125 1.37417086,15.0301864 3.71766927,11.6292135 L5.626144,13.5591318 C3.73714503,16.4582483 2.6378233,19.9301209 2.6378233,23.6616388 C2.6378233,33.8155317 10.7777204,42.0468883 20.8187922,42.0468883 C24.2805974,42.0468883 27.516424,41.0684882 30.2706118,39.3702208 Z" id="Combined-Shape"></path>
            </g>
        </g>
    </g>
</svg>