<svg xmlns="http://www.w3.org/2000/svg" xmlns:xlink="http://www.w3.org/1999/xlink" viewBox="708.42 5742.906 23.419 22.707">
  <defs>
    <style>
      .cls-1 {
        fill: #fff;
      }

      .cls-2 {
        clip-path: url(#clip-path);
      }
    </style>
    <clipPath id="clip-path">
      <path id="Path_237" data-name="Path 237" d="M11.648,0A11.722,11.722,0,0,0,0,11.648,11.524,11.524,0,0,0,7.97,22.683c.613.123.736-.245.736-.613V19.863c-3.188.736-3.924-1.349-3.924-1.349A2.9,2.9,0,0,0,3.433,16.8c-1.1-.736.123-.736.123-.736a2.574,2.574,0,0,1,1.839,1.226c.981,1.839,2.7,1.226,3.433.981a2.772,2.772,0,0,1,.736-1.594c-2.575-.123-5.395-1.226-5.395-5.64A4.355,4.355,0,0,1,5.395,7.97a4.656,4.656,0,0,1,.123-3.188S6.5,4.414,8.705,6.008a11.955,11.955,0,0,1,5.885,0c2.207-1.471,3.188-1.226,3.188-1.226A4.243,4.243,0,0,1,17.9,7.847a4.585,4.585,0,0,1,1.226,3.065c0,4.414-2.7,5.517-5.272,5.763a3.109,3.109,0,0,1,.736,2.207V22.07c0,.368.245.613.858.613a11.639,11.639,0,0,0,7.97-11.035A11.91,11.91,0,0,0,11.648,0Z"/>
    </clipPath>
  </defs>
  <g id="cat-object" transform="translate(708.42 5742.906)">
    <path id="Path_236" data-name="Path 236" class="cls-1" d="M11.648,0A11.722,11.722,0,0,0,0,11.648,11.524,11.524,0,0,0,7.97,22.683c.613.123.736-.245.736-.613V19.863c-3.188.736-3.924-1.349-3.924-1.349A2.9,2.9,0,0,0,3.433,16.8c-1.1-.736.123-.736.123-.736a2.574,2.574,0,0,1,1.839,1.226c.981,1.839,2.7,1.226,3.433.981a2.772,2.772,0,0,1,.736-1.594c-2.575-.123-5.395-1.226-5.395-5.64A4.355,4.355,0,0,1,5.395,7.97a4.656,4.656,0,0,1,.123-3.188S6.5,4.414,8.705,6.008a11.955,11.955,0,0,1,5.885,0c2.207-1.471,3.188-1.226,3.188-1.226A4.243,4.243,0,0,1,17.9,7.847a4.585,4.585,0,0,1,1.226,3.065c0,4.414-2.7,5.517-5.272,5.763a3.109,3.109,0,0,1,.736,2.207V22.07c0,.368.245.613.858.613a11.639,11.639,0,0,0,7.97-11.035A11.91,11.91,0,0,0,11.648,0Z"/>
    <g id="XMLID_4_" class="cls-2">
      <rect id="Rectangle_122" data-name="Rectangle 122" class="cls-1" width="1765.602" height="5995.664" transform="translate(-872.992 -5755.347)"/>
    </g>
  </g>
</svg>
