<?xml version="1.0" encoding="utf-8"?>
<!-- Generator: Adobe Illustrator 21.1.0, SVG Export Plug-In . SVG Version: 6.00 Build 0)  -->
<svg version="1.1" id="Capa_1" xmlns="http://www.w3.org/2000/svg" xmlns:xlink="http://www.w3.org/1999/xlink" x="0px" y="0px"
	 viewBox="0 0 19.7 19.2" style="enable-background:new 0 0 19.7 19.2;" xml:space="preserve">
<style type="text/css">
	.st0{fill-rule:evenodd;clip-rule:evenodd;fill:#FFFFFF;}
</style>
<path class="st0" d="M9.8,0C4.4,0,0,4.4,0,9.8c0,4.3,2.8,8,6.7,9.3c0.5,0.1,0.7-0.2,0.7-0.5c0-0.2,0-0.9,0-1.7
	c-2.7,0.6-3.3-1.3-3.3-1.3C3.6,14.6,3,14.3,3,14.3C2.1,13.6,3,13.7,3,13.7c1,0.1,1.5,1,1.5,1c0.9,1.5,2.3,1.1,2.9,0.8
	c0.1-0.6,0.3-1.1,0.6-1.3c-2.2-0.2-4.5-1.1-4.5-4.9c0-1.1,0.4-2,1-2.6C4.5,6.4,4.1,5.4,4.7,4.1c0,0,0.8-0.3,2.7,1
	C8.2,4.9,9,4.8,9.8,4.8c0.8,0,1.7,0.1,2.5,0.3c1.9-1.3,2.7-1,2.7-1c0.5,1.4,0.2,2.4,0.1,2.6c0.6,0.7,1,1.6,1,2.6
	c0,3.8-2.3,4.6-4.5,4.8c0.4,0.3,0.7,0.9,0.7,1.8c0,1.3,0,2.4,0,2.7c0,0.3,0.2,0.6,0.7,0.5c3.9-1.3,6.7-5,6.7-9.3
	C19.7,4.4,15.3,0,9.8,0z"/>
</svg>
