<?xml version="1.0" encoding="utf-8"?>
<!-- Generator: Adobe Illustrator 21.1.0, SVG Export Plug-In . SVG Version: 6.00 Build 0)  -->
<svg version="1.1" id="Layer_1" xmlns="http://www.w3.org/2000/svg" xmlns:xlink="http://www.w3.org/1999/xlink" x="0px" y="0px"
	 viewBox="0 0 38 37" style="enable-background:new 0 0 38 37;" xml:space="preserve">
<style type="text/css">
	.st0{fill:#FFFFFF;}
</style>
<title>Shape</title>
<desc>Created with Sketch.</desc>
<g>
	<path class="st0" d="M0,37.5c0-0.1,0-0.1,0-0.2c0-6.4,0-12.8,0-19.2c0-2.7,0.6-5.2,1.7-7.7c1.1-2.3,2.6-4.3,4.5-6
		c2.1-1.9,4.6-3.3,7.3-4.1c1.5-0.5,3-0.7,4.6-0.8c1.8-0.1,3.6,0.1,5.4,0.5c1.6,0.4,3.1,1,4.6,1.8c1.4,0.8,2.6,1.7,3.7,2.7
		c1.6,1.4,2.9,3.1,3.9,5c0.9,1.7,1.6,3.6,2,5.5c0.3,1.4,0.4,2.9,0.3,4.3c-0.1,2.2-0.6,4.3-1.4,6.3c-1.2,2.9-2.9,5.3-5.2,7.3
		c-1.5,1.3-3.1,2.3-4.8,3c-1.5,0.7-3.1,1.1-4.7,1.3c-1,0.1-2,0.2-2.9,0.2c-6.2,0-12.5,0-18.7,0C0.1,37.5,0.1,37.5,0,37.5z M7.5,30
		c0.1,0,0.1,0,0.2,0c2.2-0.5,4.4-1.1,6.6-1.6c0.1,0,0.2,0,0.2,0c1.1,0.5,2.3,0.8,3.5,0.9c1.1,0.1,2.1,0.1,3.2-0.2
		c1.8-0.4,3.4-1.2,4.9-2.4c1.1-0.9,1.9-2,2.6-3.3s1.1-2.7,1.2-4.2c0.1-1.1,0-2.1-0.2-3.1c-0.3-1.4-0.9-2.7-1.7-3.9
		c-1-1.4-2.2-2.5-3.7-3.3c-1.4-0.7-2.8-1.2-4.3-1.3c-1.1-0.1-2.1,0-3.2,0.2C15,8.2,13.5,9,12.1,10.1C10,11.9,8.8,14,8.3,16.5
		c-0.2,1.2-0.2,2.5-0.1,3.7c0.2,1.2,0.6,2.3,1.1,3.4c0,0.1,0,0.1,0,0.2C8.7,25.8,8.1,27.9,7.5,30C7.5,29.9,7.5,30,7.5,30z"/>
</g>
</svg>
