<?xml version="1.0" encoding="UTF-8"?>
<svg width="38px" height="37px" viewBox="0 0 38 37" version="1.1" xmlns="http://www.w3.org/2000/svg" xmlns:xlink="http://www.w3.org/1999/xlink">
    <!-- Generator: Sketch 50 (54983) - http://www.bohemiancoding.com/sketch -->
    <title>Shape</title>
    <desc>Created with Sketch.</desc>
    <defs></defs>
    <g id="Page-1" stroke="none" stroke-width="1" fill="none" fill-rule="evenodd">
        <g id="Mobile-menu" transform="translate(-91.000000, -505.000000)" fill="#FFFFFF" fill-rule="nonzero">
            <g id="github_white" transform="translate(91.000000, 505.000000)">
                <path d="M18.962963,0 C8.49074074,0 0,8.49074074 0,18.962963 C0,27.3425926 5.43288889,34.4490741 12.9687407,36.956 C13.9166667,37.1296296 14.2627407,36.543963 14.2627407,36.043963 C14.2627407,35.5925556 14.2453704,34.0972222 14.2361111,32.5138889 C8.96296296,33.6597037 7.84837037,30.2777778 7.84837037,30.2777778 C6.98496296,28.087963 5.74303704,27.5046296 5.74303704,27.5046296 C4.01966667,26.3287037 5.87377778,26.3518519 5.87377778,26.3518519 C7.7777037,26.4837778 8.78007407,28.3055556 8.78007407,28.3055556 C10.4722222,31.2037037 13.2198889,30.3657407 14.2985926,29.8796296 C14.470963,28.6574074 14.9617037,27.8194444 15.5022963,27.3472222 C11.2928148,26.8680741 6.86459259,25.2407407 6.86459259,17.9745185 C6.86459259,15.9027407 7.60418519,14.212963 8.81481481,12.8854074 C8.62151852,12.4039259 7.96874074,10.4745185 9.0022963,7.86459259 C9.0022963,7.86459259 10.5925926,7.35533333 14.2175556,9.80903704 C15.7291111,9.38659259 17.3506667,9.17825926 18.9629259,9.1712963 C20.574037,9.17825926 22.1967037,9.38888889 23.7106296,9.81133333 C27.3287037,7.35533333 28.9212963,7.86688889 28.9212963,7.86688889 C29.9583333,10.4791481 29.3055556,12.4062222 29.1111111,12.8854074 C30.3263704,14.212963 31.0601852,15.9027778 31.0601852,17.9745185 C31.0601852,25.2592593 26.625,26.8634074 22.4004815,27.3333333 C23.0833704,27.9212963 23.6875185,29.0740741 23.6875185,30.8425926 C23.6875185,33.3773333 23.662037,35.4212963 23.662037,36.0462963 C23.662037,36.5509259 24.0069259,37.1411852 24.9675926,36.956 C32.4977037,34.4444444 37.9259259,27.337963 37.9259259,18.962963 C37.9259259,8.49074074 29.4351852,0 18.962963,0 Z" id="Shape"></path>
            </g>
        </g>
    </g>
</svg>