<?xml version="1.0" encoding="UTF-8"?>
<svg width="38px" height="38px" viewBox="0 0 38 38" version="1.1" xmlns="http://www.w3.org/2000/svg" xmlns:xlink="http://www.w3.org/1999/xlink">
    <!-- Generator: Sketch 50 (54983) - http://www.bohemiancoding.com/sketch -->
    <title>Combined-Shape</title>
    <desc>Created with Sketch.</desc>
    <defs></defs>
    <g id="Page-1" stroke="none" stroke-width="1" fill="none" fill-rule="evenodd">
        <g id="Mobile-menu" transform="translate(-245.000000, -507.000000)" fill="#FFFFFF" fill-rule="nonzero">
            <g id="Slack" transform="translate(245.000000, 507.000000)">
                <path d="M27.8431795,12.1655645 C28.5973572,14.4823573 29.401829,16.9536851 30.1575217,19.2752296 L33.5680775,18.1687121 C35.346934,17.5927182 37.2564143,18.5621895 37.8335333,20.3375782 C38.4106523,22.1129669 37.4392874,24.0187246 35.6604308,24.5947186 C35.6604308,24.5947186 34.3250888,25.027732 32.2490824,25.700937 C32.9397507,27.8229644 33.3875303,29.1990022 33.3923516,29.214507 C33.9670956,30.9756736 32.869857,32.879061 31.0743756,33.3957963 C29.3501434,33.8888282 27.557037,32.9572824 26.9561682,31.3004109 L25.812527,27.7882081 C23.4909108,28.5410833 21.014315,29.3442319 18.687806,30.0987372 C19.3785606,32.2207093 19.8264056,33.5965339 19.8312272,33.6115052 C20.4059713,35.3726718 19.3087326,37.2760592 17.5132512,37.7927945 C15.7890191,38.2858265 13.9959127,37.3542806 13.3950439,35.6974092 L12.2516149,32.1861677 C10.1237554,32.8763574 8.74375212,33.3240925 8.72820982,33.3294415 C6.96360309,33.9030651 5.05649785,32.8079655 4.53875321,31.0159843 C4.04475834,29.2951136 4.97812365,27.5055028 6.63823148,26.9058053 L10.1599908,25.7632091 L7.84381138,18.6506863 C5.71680941,19.3403813 4.33762715,19.7875706 4.32262304,19.7923839 C2.55801631,20.3636372 0.650911067,19.2709079 0.133166431,17.4789268 C-0.363203426,15.758056 0.570161903,13.9684452 2.23264468,13.3687478 L5.7519965,12.2271418 L4.64325956,8.82243268 C4.06376556,7.04704395 5.03988045,5.14365659 6.81636202,4.5652923 C8.59284363,3.986928 10.5023239,4.95876964 11.0818179,6.73415837 C11.0818179,6.73415837 11.5156644,8.06685804 12.190141,10.1387389 L19.313155,7.82817833 L18.2043839,4.42306415 C17.6272649,2.64767544 18.5986298,0.741917719 20.3774864,0.165923779 C22.156343,-0.41007016 24.0658232,0.561771465 24.6429422,2.33478984 C24.6429422,2.33478984 25.0768379,3.66764071 25.7513802,5.73974925 L29.1601157,4.63402491 C30.9389723,4.05803098 32.8484525,5.02750226 33.4255715,6.80289099 C34.0026905,8.57827971 33.0313256,10.4840374 31.252469,11.0600314 C31.252469,11.0600314 29.9179986,11.4927622 27.8431795,12.1655645 Z M21.3735777,14.2220725 C19.0522808,14.9747962 16.5760418,15.7777602 14.2498524,16.532063 C15.0042655,18.8495078 15.80903,21.3216324 16.5649705,23.643792 L23.6888767,21.3325187 L21.3735777,14.2220725 Z" id="Combined-Shape"></path>
            </g>
        </g>
    </g>
</svg>