<svg xmlns="http://www.w3.org/2000/svg" xmlns:xlink="http://www.w3.org/1999/xlink" viewBox="0 0 435.34 326.98"><defs><style>.cls-1{fill:#272c34;}.cls-1,.cls-3{stroke:#ff4747;}.cls-1,.cls-122,.cls-19,.cls-21,.cls-3{stroke-linecap:round;stroke-linejoin:round;}.cls-2,.cls-4,.cls-5{fill:#ff4747;}.cls-2{opacity:0.09;}.cls-3{fill:url(#New_Gradient_Swatch_copy);}.cls-5{opacity:0.08;}.cls-6{opacity:0.3;}.cls-7{fill:url(#linear-gradient);}.cls-8{fill:url(#linear-gradient-2);}.cls-10,.cls-100,.cls-101,.cls-102,.cls-103,.cls-104,.cls-105,.cls-106,.cls-107,.cls-108,.cls-109,.cls-11,.cls-110,.cls-111,.cls-112,.cls-113,.cls-114,.cls-115,.cls-116,.cls-117,.cls-118,.cls-119,.cls-12,.cls-120,.cls-13,.cls-14,.cls-15,.cls-16,.cls-17,.cls-25,.cls-26,.cls-27,.cls-28,.cls-29,.cls-30,.cls-31,.cls-32,.cls-33,.cls-34,.cls-35,.cls-36,.cls-37,.cls-38,.cls-39,.cls-40,.cls-41,.cls-42,.cls-43,.cls-44,.cls-45,.cls-46,.cls-47,.cls-48,.cls-49,.cls-50,.cls-51,.cls-52,.cls-53,.cls-54,.cls-55,.cls-56,.cls-57,.cls-58,.cls-59,.cls-60,.cls-61,.cls-62,.cls-63,.cls-64,.cls-65,.cls-66,.cls-67,.cls-68,.cls-69,.cls-70,.cls-71,.cls-72,.cls-73,.cls-74,.cls-75,.cls-76,.cls-77,.cls-78,.cls-79,.cls-80,.cls-81,.cls-82,.cls-83,.cls-84,.cls-85,.cls-86,.cls-87,.cls-88,.cls-89,.cls-9,.cls-90,.cls-91,.cls-92,.cls-93,.cls-94,.cls-95,.cls-96,.cls-97,.cls-98,.cls-99{stroke:#424b4f;stroke-width:0.25px;}.cls-10,.cls-100,.cls-101,.cls-102,.cls-103,.cls-104,.cls-105,.cls-106,.cls-107,.cls-108,.cls-109,.cls-11,.cls-110,.cls-111,.cls-112,.cls-113,.cls-114,.cls-115,.cls-116,.cls-117,.cls-118,.cls-119,.cls-12,.cls-120,.cls-13,.cls-14,.cls-15,.cls-16,.cls-17,.cls-18,.cls-20,.cls-22,.cls-25,.cls-26,.cls-27,.cls-28,.cls-29,.cls-30,.cls-31,.cls-32,.cls-33,.cls-34,.cls-35,.cls-36,.cls-37,.cls-38,.cls-39,.cls-40,.cls-41,.cls-42,.cls-43,.cls-44,.cls-45,.cls-46,.cls-47,.cls-48,.cls-49,.cls-50,.cls-51,.cls-52,.cls-53,.cls-54,.cls-55,.cls-56,.cls-57,.cls-58,.cls-59,.cls-60,.cls-61,.cls-62,.cls-63,.cls-64,.cls-65,.cls-66,.cls-67,.cls-68,.cls-69,.cls-70,.cls-71,.cls-72,.cls-73,.cls-74,.cls-75,.cls-76,.cls-77,.cls-78,.cls-79,.cls-80,.cls-81,.cls-82,.cls-83,.cls-84,.cls-85,.cls-86,.cls-87,.cls-88,.cls-89,.cls-9,.cls-90,.cls-91,.cls-92,.cls-93,.cls-94,.cls-95,.cls-96,.cls-97,.cls-98,.cls-99{stroke-miterlimit:10;}.cls-9{fill:url(#linear-gradient-3);}.cls-10{fill:url(#New_Gradient_Swatch);}.cls-11{fill:#f5ffff;}.cls-12{fill:url(#New_Gradient_Swatch-2);}.cls-13{fill:url(#New_Gradient_Swatch-3);}.cls-14{fill:url(#New_Gradient_Swatch-4);}.cls-15{fill:url(#New_Gradient_Swatch-5);}.cls-16{fill:url(#New_Gradient_Swatch-6);}.cls-17{fill:url(#New_Gradient_Swatch-7);}.cls-18,.cls-19,.cls-20,.cls-21,.cls-22{stroke-width:0.6px;}.cls-18{fill:url(#New_Gradient_Swatch-8);stroke:url(#New_Gradient_Swatch_copy-3);}.cls-122,.cls-19,.cls-21{fill:none;}.cls-19{stroke:url(#New_Gradient_Swatch_copy-4);}.cls-20{fill:url(#New_Gradient_Swatch-9);stroke:url(#New_Gradient_Swatch_copy-5);}.cls-21{stroke:url(#New_Gradient_Swatch_copy-6);}.cls-22{fill:url(#New_Gradient_Swatch-10);stroke:url(#New_Gradient_Swatch_copy-7);}.cls-23{fill:#fff;}.cls-24{fill:#424b4f;}.cls-25{fill:url(#New_Gradient_Swatch-11);}.cls-26{fill:url(#New_Gradient_Swatch-12);}.cls-27{fill:url(#New_Gradient_Swatch-13);}.cls-28{fill:url(#linear-gradient-4);}.cls-29{fill:url(#linear-gradient-5);}.cls-30{fill:url(#linear-gradient-6);}.cls-31{fill:url(#linear-gradient-7);}.cls-32{fill:url(#linear-gradient-8);}.cls-33{fill:url(#New_Gradient_Swatch-14);}.cls-34{fill:url(#New_Gradient_Swatch-15);}.cls-35{fill:url(#New_Gradient_Swatch-16);}.cls-36{fill:url(#linear-gradient-9);}.cls-37{fill:url(#linear-gradient-10);}.cls-38{fill:url(#linear-gradient-11);}.cls-39{fill:url(#linear-gradient-12);}.cls-40{fill:url(#linear-gradient-13);}.cls-41{fill:url(#New_Gradient_Swatch-17);}.cls-42{fill:url(#New_Gradient_Swatch-18);}.cls-43{fill:url(#New_Gradient_Swatch-19);}.cls-44{fill:url(#linear-gradient-14);}.cls-45{fill:url(#linear-gradient-15);}.cls-46{fill:url(#linear-gradient-16);}.cls-47{fill:url(#linear-gradient-17);}.cls-48{fill:url(#linear-gradient-18);}.cls-49{fill:url(#New_Gradient_Swatch-20);}.cls-50{fill:url(#New_Gradient_Swatch-21);}.cls-51{fill:url(#New_Gradient_Swatch-22);}.cls-52{fill:url(#linear-gradient-19);}.cls-53{fill:url(#linear-gradient-20);}.cls-54{fill:url(#linear-gradient-21);}.cls-55{fill:url(#linear-gradient-22);}.cls-56{fill:url(#linear-gradient-23);}.cls-57{fill:url(#New_Gradient_Swatch-23);}.cls-58{fill:url(#New_Gradient_Swatch-24);}.cls-59{fill:url(#New_Gradient_Swatch-25);}.cls-60{fill:url(#linear-gradient-24);}.cls-61{fill:url(#linear-gradient-25);}.cls-62{fill:url(#linear-gradient-26);}.cls-63{fill:url(#linear-gradient-27);}.cls-64{fill:url(#linear-gradient-28);}.cls-65{fill:url(#New_Gradient_Swatch-26);}.cls-66{fill:url(#New_Gradient_Swatch-27);}.cls-67{fill:url(#New_Gradient_Swatch-28);}.cls-68{fill:url(#linear-gradient-29);}.cls-69{fill:url(#linear-gradient-30);}.cls-70{fill:url(#linear-gradient-31);}.cls-71{fill:url(#linear-gradient-32);}.cls-72{fill:url(#linear-gradient-33);}.cls-73{fill:url(#New_Gradient_Swatch-29);}.cls-74{fill:url(#New_Gradient_Swatch-30);}.cls-75{fill:url(#New_Gradient_Swatch-31);}.cls-76{fill:url(#linear-gradient-34);}.cls-77{fill:url(#linear-gradient-35);}.cls-78{fill:url(#linear-gradient-36);}.cls-79{fill:url(#linear-gradient-37);}.cls-80{fill:url(#linear-gradient-38);}.cls-81{fill:url(#New_Gradient_Swatch-32);}.cls-82{fill:url(#New_Gradient_Swatch-33);}.cls-83{fill:url(#New_Gradient_Swatch-34);}.cls-84{fill:url(#linear-gradient-39);}.cls-85{fill:url(#linear-gradient-40);}.cls-86{fill:url(#linear-gradient-41);}.cls-87{fill:url(#linear-gradient-42);}.cls-88{fill:url(#linear-gradient-43);}.cls-89{fill:url(#New_Gradient_Swatch-35);}.cls-90{fill:url(#New_Gradient_Swatch-36);}.cls-91{fill:url(#New_Gradient_Swatch-37);}.cls-92{fill:url(#linear-gradient-44);}.cls-93{fill:url(#linear-gradient-45);}.cls-94{fill:url(#linear-gradient-46);}.cls-95{fill:url(#linear-gradient-47);}.cls-96{fill:url(#linear-gradient-48);}.cls-97{fill:url(#New_Gradient_Swatch-38);}.cls-98{fill:url(#New_Gradient_Swatch-39);}.cls-99{fill:url(#New_Gradient_Swatch-40);}.cls-100{fill:url(#linear-gradient-49);}.cls-101{fill:url(#linear-gradient-50);}.cls-102{fill:url(#linear-gradient-51);}.cls-103{fill:url(#linear-gradient-52);}.cls-104{fill:url(#linear-gradient-53);}.cls-105{fill:url(#New_Gradient_Swatch-41);}.cls-106{fill:url(#New_Gradient_Swatch-42);}.cls-107{fill:url(#New_Gradient_Swatch-43);}.cls-108{fill:url(#linear-gradient-54);}.cls-109{fill:url(#linear-gradient-55);}.cls-110{fill:url(#linear-gradient-56);}.cls-111{fill:url(#linear-gradient-57);}.cls-112{fill:url(#linear-gradient-58);}.cls-113{fill:url(#New_Gradient_Swatch-44);}.cls-114{fill:url(#New_Gradient_Swatch-45);}.cls-115{fill:url(#New_Gradient_Swatch-46);}.cls-116{fill:url(#linear-gradient-59);}.cls-117{fill:url(#linear-gradient-60);}.cls-118{fill:url(#linear-gradient-61);}.cls-119{fill:url(#linear-gradient-62);}.cls-120{fill:url(#linear-gradient-63);}.cls-121{fill:#67eaec;}.cls-122{stroke:#67eaec;stroke-width:0.99px;stroke-dasharray:3.97 4.97;}</style><linearGradient id="New_Gradient_Swatch_copy" x1="-1883.18" y1="117.6" x2="-1794.69" y2="117.6" gradientTransform="matrix(-1, 0, 0, 1, -1559.93, 0)" gradientUnits="userSpaceOnUse"><stop offset="0" stop-color="#2e3d4a"/><stop offset="1" stop-color="#232329"/></linearGradient><linearGradient id="linear-gradient" x1="-1952.04" y1="55.56" x2="-1905.32" y2="55.56" gradientTransform="matrix(-1, 0, 0, 1, -1559.93, 0)" gradientUnits="userSpaceOnUse"><stop offset="0" stop-color="#ff4747"/><stop offset="1" stop-color="#232329"/></linearGradient><linearGradient id="linear-gradient-2" x1="-1943.68" y1="15.5" x2="-1913.67" y2="15.5" xlink:href="#linear-gradient"/><linearGradient id="linear-gradient-3" x1="1594.09" y1="-3814.11" x2="1651.77" y2="-3814.11" gradientTransform="matrix(0.5, -0.87, -0.87, -0.5, -3826.96, -457.8)" gradientUnits="userSpaceOnUse"><stop offset="0" stop-color="#67eaec"/><stop offset="1" stop-color="#5c8ee4"/></linearGradient><linearGradient id="New_Gradient_Swatch" x1="156.92" y1="2074.68" x2="214.59" y2="2074.68" gradientTransform="matrix(-0.5, 0.87, 0.87, 0.5, -1405.93, -1148.57)" gradientUnits="userSpaceOnUse"><stop offset="0" stop-color="#5c8ee4"/><stop offset="1" stop-color="#67eaec"/></linearGradient><linearGradient id="New_Gradient_Swatch-2" x1="939.18" y1="741.18" x2="953.59" y2="766.14" gradientTransform="matrix(0.5, -0.87, -0.87, -0.5, 479.04, 1247.85)" xlink:href="#New_Gradient_Swatch"/><linearGradient id="New_Gradient_Swatch-3" x1="462.04" y1="-14.62" x2="499.93" y2="-14.62" gradientTransform="matrix(0.58, 0.17, -1, 1.44, 5.68, -9.3)" xlink:href="#New_Gradient_Swatch"/><linearGradient id="New_Gradient_Swatch-4" x1="483.64" y1="-19.14" x2="488.07" y2="-19.14" gradientTransform="matrix(0.58, 0.17, -1, 1.44, 5.68, -9.3)" xlink:href="#New_Gradient_Swatch"/><linearGradient id="New_Gradient_Swatch-5" x1="472.02" y1="-12.44" x2="476.46" y2="-12.44" gradientTransform="matrix(0.58, 0.17, -1, 1.44, 5.68, -9.3)" xlink:href="#New_Gradient_Swatch"/><linearGradient id="New_Gradient_Swatch-6" x1="485.22" y1="-16.82" x2="489.65" y2="-16.82" gradientTransform="matrix(0.58, 0.17, -1, 1.44, 5.68, -9.3)" xlink:href="#New_Gradient_Swatch"/><linearGradient id="New_Gradient_Swatch-7" x1="473.61" y1="-10.11" x2="478.04" y2="-10.11" gradientTransform="matrix(0.58, 0.17, -1, 1.44, 5.68, -9.3)" xlink:href="#New_Gradient_Swatch"/><linearGradient id="New_Gradient_Swatch-8" x1="28.94" y1="139.55" x2="283.06" y2="286.27" gradientTransform="matrix(1, 0, 0, 1, 0, 0)" xlink:href="#New_Gradient_Swatch"/><linearGradient id="New_Gradient_Swatch_copy-3" x1="0.3" y1="212.91" x2="311.7" y2="212.91" gradientTransform="matrix(1, 0, 0, 1, 0, 0)" xlink:href="#New_Gradient_Swatch_copy"/><linearGradient id="New_Gradient_Swatch_copy-4" x1="0.2" y1="212.41" x2="0.8" y2="212.41" gradientTransform="matrix(1, 0, 0, 1, 0, 0)" xlink:href="#New_Gradient_Swatch_copy"/><linearGradient id="New_Gradient_Swatch-9" x1="156.5" y1="302.41" x2="156.5" y2="302.41" gradientTransform="matrix(1, 0, 0, 1, 0, 0)" xlink:href="#New_Gradient_Swatch"/><linearGradient id="New_Gradient_Swatch_copy-5" x1="156.2" y1="302.41" x2="156.8" y2="302.41" gradientTransform="matrix(1, 0, 0, 1, 0, 0)" xlink:href="#New_Gradient_Swatch_copy"/><linearGradient id="New_Gradient_Swatch_copy-6" x1="311.2" y1="213.41" x2="311.8" y2="213.41" gradientTransform="matrix(1, 0, 0, 1, 0, 0)" xlink:href="#New_Gradient_Swatch_copy"/><linearGradient id="New_Gradient_Swatch-10" x1="39.33" y1="121.55" x2="272.67" y2="256.27" gradientTransform="matrix(1, 0, 0, 1, 0, 0)" xlink:href="#New_Gradient_Swatch"/><linearGradient id="New_Gradient_Swatch_copy-7" x1="0" y1="188.91" x2="312" y2="188.91" gradientTransform="matrix(1, 0, 0, 1, 0, 0)" xlink:href="#New_Gradient_Swatch_copy"/><linearGradient id="New_Gradient_Swatch-11" x1="104.81" y1="188.2" x2="163.7" y2="188.2" gradientTransform="matrix(1, 0, 0, 1, 0, 0)" xlink:href="#New_Gradient_Swatch"/><linearGradient id="New_Gradient_Swatch-12" x1="104.81" y1="177.36" x2="163.69" y2="177.36" gradientTransform="matrix(1, 0, 0, 1, 0, 0)" xlink:href="#New_Gradient_Swatch"/><linearGradient id="New_Gradient_Swatch-13" x1="158.54" y1="170.48" x2="109.96" y2="170.48" gradientTransform="matrix(1, 0, 0, 1, 0, 0)" xlink:href="#New_Gradient_Swatch"/><linearGradient id="linear-gradient-4" x1="-3377.22" y1="-1934.68" x2="-3372.31" y2="-1954.51" gradientTransform="matrix(-0.14, 0.58, -1.75, 0.14, -3755.85, 2426.52)" gradientUnits="userSpaceOnUse"><stop offset="0" stop-color="#5fa5e6"/><stop offset="1" stop-color="#67eaec"/></linearGradient><linearGradient id="linear-gradient-5" x1="-3369.15" y1="-1947.5" x2="-3368.09" y2="-1951.81" xlink:href="#linear-gradient-4"/><linearGradient id="linear-gradient-6" x1="-3382.71" y1="-1939.67" x2="-3381.65" y2="-1943.98" xlink:href="#linear-gradient-4"/><linearGradient id="linear-gradient-7" x1="-3368.16" y1="-1945.28" x2="-3367.09" y2="-1949.59" xlink:href="#linear-gradient-4"/><linearGradient id="linear-gradient-8" x1="-3381.72" y1="-1937.45" x2="-3380.65" y2="-1941.76" xlink:href="#linear-gradient-4"/><linearGradient id="New_Gradient_Swatch-14" x1="104.81" y1="183.51" x2="163.7" y2="183.51" gradientTransform="matrix(1, 0, 0, 1, 0, 0)" xlink:href="#New_Gradient_Swatch"/><linearGradient id="New_Gradient_Swatch-15" x1="104.81" y1="172.67" x2="163.69" y2="172.67" gradientTransform="matrix(1, 0, 0, 1, 0, 0)" xlink:href="#New_Gradient_Swatch"/><linearGradient id="New_Gradient_Swatch-16" x1="158.54" y1="165.8" x2="109.96" y2="165.8" gradientTransform="matrix(1, 0, 0, 1, 0, 0)" xlink:href="#New_Gradient_Swatch"/><linearGradient id="linear-gradient-9" x1="-3385.41" y1="-1934" x2="-3380.51" y2="-1953.83" xlink:href="#linear-gradient-4"/><linearGradient id="linear-gradient-10" x1="-3377.35" y1="-1946.83" x2="-3376.28" y2="-1951.13" xlink:href="#linear-gradient-4"/><linearGradient id="linear-gradient-11" x1="-3390.91" y1="-1939" x2="-3389.84" y2="-1943.3" xlink:href="#linear-gradient-4"/><linearGradient id="linear-gradient-12" x1="-3376.35" y1="-1944.61" x2="-3375.29" y2="-1948.91" xlink:href="#linear-gradient-4"/><linearGradient id="linear-gradient-13" x1="-3389.91" y1="-1936.78" x2="-3388.85" y2="-1941.08" xlink:href="#linear-gradient-4"/><linearGradient id="New_Gradient_Swatch-17" x1="104.81" y1="178.83" x2="163.7" y2="178.83" gradientTransform="matrix(1, 0, 0, 1, 0, 0)" xlink:href="#New_Gradient_Swatch"/><linearGradient id="New_Gradient_Swatch-18" x1="104.81" y1="167.99" x2="163.69" y2="167.99" gradientTransform="matrix(1, 0, 0, 1, 0, 0)" xlink:href="#New_Gradient_Swatch"/><linearGradient id="New_Gradient_Swatch-19" x1="158.54" y1="161.12" x2="109.96" y2="161.12" gradientTransform="matrix(1, 0, 0, 1, 0, 0)" xlink:href="#New_Gradient_Swatch"/><linearGradient id="linear-gradient-14" x1="-3393.61" y1="-1933.33" x2="-3388.7" y2="-1953.16" xlink:href="#linear-gradient-4"/><linearGradient id="linear-gradient-15" x1="-3385.54" y1="-1946.15" x2="-3384.48" y2="-1950.46" xlink:href="#linear-gradient-4"/><linearGradient id="linear-gradient-16" x1="-3399.11" y1="-1938.32" x2="-3398.04" y2="-1942.63" xlink:href="#linear-gradient-4"/><linearGradient id="linear-gradient-17" x1="-3384.55" y1="-1943.93" x2="-3383.48" y2="-1948.24" xlink:href="#linear-gradient-4"/><linearGradient id="linear-gradient-18" x1="-3398.11" y1="-1936.1" x2="-3397.04" y2="-1940.41" xlink:href="#linear-gradient-4"/><linearGradient id="New_Gradient_Swatch-20" x1="104.81" y1="174.15" x2="163.7" y2="174.15" gradientTransform="matrix(1, 0, 0, 1, 0, 0)" xlink:href="#New_Gradient_Swatch"/><linearGradient id="New_Gradient_Swatch-21" x1="104.81" y1="163.31" x2="163.69" y2="163.31" gradientTransform="matrix(1, 0, 0, 1, 0, 0)" xlink:href="#New_Gradient_Swatch"/><linearGradient id="New_Gradient_Swatch-22" x1="158.54" y1="156.43" x2="109.96" y2="156.43" gradientTransform="matrix(1, 0, 0, 1, 0, 0)" xlink:href="#New_Gradient_Swatch"/><linearGradient id="linear-gradient-19" x1="-3401.81" y1="-1932.65" x2="-3396.9" y2="-1952.48" xlink:href="#linear-gradient-4"/><linearGradient id="linear-gradient-20" x1="-3393.74" y1="-1945.47" x2="-3392.67" y2="-1949.78" xlink:href="#linear-gradient-4"/><linearGradient id="linear-gradient-21" x1="-3407.3" y1="-1937.65" x2="-3406.24" y2="-1941.95" xlink:href="#linear-gradient-4"/><linearGradient id="linear-gradient-22" x1="-3392.75" y1="-1943.26" x2="-3391.68" y2="-1947.56" xlink:href="#linear-gradient-4"/><linearGradient id="linear-gradient-23" x1="-3406.31" y1="-1935.43" x2="-3405.24" y2="-1939.73" xlink:href="#linear-gradient-4"/><linearGradient id="New_Gradient_Swatch-23" x1="104.81" y1="169.49" x2="163.7" y2="169.49" gradientTransform="matrix(1, 0, 0, 1, 0, 0)" xlink:href="#New_Gradient_Swatch"/><linearGradient id="New_Gradient_Swatch-24" x1="104.81" y1="158.65" x2="163.69" y2="158.65" gradientTransform="matrix(1, 0, 0, 1, 0, 0)" xlink:href="#New_Gradient_Swatch"/><linearGradient id="New_Gradient_Swatch-25" x1="158.54" y1="151.77" x2="109.96" y2="151.77" gradientTransform="matrix(1, 0, 0, 1, 0, 0)" xlink:href="#New_Gradient_Swatch"/><linearGradient id="linear-gradient-24" x1="-3409.96" y1="-1931.98" x2="-3405.05" y2="-1951.81" xlink:href="#linear-gradient-4"/><linearGradient id="linear-gradient-25" x1="-3401.89" y1="-1944.8" x2="-3400.83" y2="-1949.11" xlink:href="#linear-gradient-4"/><linearGradient id="linear-gradient-26" x1="-3415.46" y1="-1936.97" x2="-3414.39" y2="-1941.28" xlink:href="#linear-gradient-4"/><linearGradient id="linear-gradient-27" x1="-3400.9" y1="-1942.58" x2="-3399.83" y2="-1946.89" xlink:href="#linear-gradient-4"/><linearGradient id="linear-gradient-28" x1="-3414.46" y1="-1934.75" x2="-3413.4" y2="-1939.06" xlink:href="#linear-gradient-4"/><linearGradient id="New_Gradient_Swatch-26" x1="148.51" y1="211.28" x2="207.39" y2="211.28" gradientTransform="matrix(1, 0, 0, 1, 0, 0)" xlink:href="#New_Gradient_Swatch"/><linearGradient id="New_Gradient_Swatch-27" x1="148.51" y1="200.44" x2="207.39" y2="200.44" gradientTransform="matrix(1, 0, 0, 1, 0, 0)" xlink:href="#New_Gradient_Swatch"/><linearGradient id="New_Gradient_Swatch-28" x1="202.24" y1="193.57" x2="153.66" y2="193.57" gradientTransform="matrix(1, 0, 0, 1, 0, 0)" xlink:href="#New_Gradient_Swatch"/><linearGradient id="linear-gradient-29" x1="-3330.51" y1="-1963.5" x2="-3325.6" y2="-1983.33" xlink:href="#linear-gradient-4"/><linearGradient id="linear-gradient-30" x1="-3322.44" y1="-1976.32" x2="-3321.38" y2="-1980.63" xlink:href="#linear-gradient-4"/><linearGradient id="linear-gradient-31" x1="-3336.01" y1="-1968.49" x2="-3334.94" y2="-1972.8" xlink:href="#linear-gradient-4"/><linearGradient id="linear-gradient-32" x1="-3321.45" y1="-1974.1" x2="-3320.38" y2="-1978.41" xlink:href="#linear-gradient-4"/><linearGradient id="linear-gradient-33" x1="-3335.01" y1="-1966.27" x2="-3333.95" y2="-1970.58" xlink:href="#linear-gradient-4"/><linearGradient id="New_Gradient_Swatch-29" x1="148.51" y1="206.6" x2="207.39" y2="206.6" gradientTransform="matrix(1, 0, 0, 1, 0, 0)" xlink:href="#New_Gradient_Swatch"/><linearGradient id="New_Gradient_Swatch-30" x1="148.51" y1="195.76" x2="207.39" y2="195.76" gradientTransform="matrix(1, 0, 0, 1, 0, 0)" xlink:href="#New_Gradient_Swatch"/><linearGradient id="New_Gradient_Swatch-31" x1="202.24" y1="188.89" x2="153.66" y2="188.89" gradientTransform="matrix(1, 0, 0, 1, 0, 0)" xlink:href="#New_Gradient_Swatch"/><linearGradient id="linear-gradient-34" x1="-3338.71" y1="-1962.82" x2="-3333.8" y2="-1982.65" xlink:href="#linear-gradient-4"/><linearGradient id="linear-gradient-35" x1="-3330.64" y1="-1975.65" x2="-3329.58" y2="-1979.95" xlink:href="#linear-gradient-4"/><linearGradient id="linear-gradient-36" x1="-3344.2" y1="-1967.82" x2="-3343.14" y2="-1972.13" xlink:href="#linear-gradient-4"/><linearGradient id="linear-gradient-37" x1="-3329.65" y1="-1973.43" x2="-3328.58" y2="-1977.73" xlink:href="#linear-gradient-4"/><linearGradient id="linear-gradient-38" x1="-3343.21" y1="-1965.6" x2="-3342.14" y2="-1969.9" xlink:href="#linear-gradient-4"/><linearGradient id="New_Gradient_Swatch-32" x1="148.51" y1="201.92" x2="207.39" y2="201.92" gradientTransform="matrix(1, 0, 0, 1, 0, 0)" xlink:href="#New_Gradient_Swatch"/><linearGradient id="New_Gradient_Swatch-33" x1="148.51" y1="191.07" x2="207.39" y2="191.07" gradientTransform="matrix(1, 0, 0, 1, 0, 0)" xlink:href="#New_Gradient_Swatch"/><linearGradient id="New_Gradient_Swatch-34" x1="202.24" y1="184.2" x2="153.66" y2="184.2" gradientTransform="matrix(1, 0, 0, 1, 0, 0)" xlink:href="#New_Gradient_Swatch"/><linearGradient id="linear-gradient-39" x1="-3346.9" y1="-1962.15" x2="-3342" y2="-1981.98" xlink:href="#linear-gradient-4"/><linearGradient id="linear-gradient-40" x1="-3338.84" y1="-1974.97" x2="-3337.77" y2="-1979.28" xlink:href="#linear-gradient-4"/><linearGradient id="linear-gradient-41" x1="-3352.4" y1="-1967.14" x2="-3351.33" y2="-1971.45" xlink:href="#linear-gradient-4"/><linearGradient id="linear-gradient-42" x1="-3337.84" y1="-1972.75" x2="-3336.78" y2="-1977.06" xlink:href="#linear-gradient-4"/><linearGradient id="linear-gradient-43" x1="-3351.4" y1="-1964.92" x2="-3350.34" y2="-1969.23" xlink:href="#linear-gradient-4"/><linearGradient id="New_Gradient_Swatch-35" x1="148.51" y1="197.23" x2="207.39" y2="197.23" gradientTransform="matrix(1, 0, 0, 1, 0, 0)" xlink:href="#New_Gradient_Swatch"/><linearGradient id="New_Gradient_Swatch-36" x1="148.51" y1="186.39" x2="207.39" y2="186.39" gradientTransform="matrix(1, 0, 0, 1, 0, 0)" xlink:href="#New_Gradient_Swatch"/><linearGradient id="New_Gradient_Swatch-37" x1="202.24" y1="179.52" x2="153.66" y2="179.52" gradientTransform="matrix(1, 0, 0, 1, 0, 0)" xlink:href="#New_Gradient_Swatch"/><linearGradient id="linear-gradient-44" x1="-3355.1" y1="-1961.47" x2="-3350.19" y2="-1981.3" xlink:href="#linear-gradient-4"/><linearGradient id="linear-gradient-45" x1="-3347.03" y1="-1974.29" x2="-3345.97" y2="-1978.6" xlink:href="#linear-gradient-4"/><linearGradient id="linear-gradient-46" x1="-3360.6" y1="-1966.47" x2="-3359.53" y2="-1970.77" xlink:href="#linear-gradient-4"/><linearGradient id="linear-gradient-47" x1="-3346.04" y1="-1972.08" x2="-3344.97" y2="-1976.38" xlink:href="#linear-gradient-4"/><linearGradient id="linear-gradient-48" x1="-3359.6" y1="-1964.25" x2="-3358.53" y2="-1968.55" xlink:href="#linear-gradient-4"/><linearGradient id="New_Gradient_Swatch-38" x1="148.51" y1="192.57" x2="207.39" y2="192.57" gradientTransform="matrix(1, 0, 0, 1, 0, 0)" xlink:href="#New_Gradient_Swatch"/><linearGradient id="New_Gradient_Swatch-39" x1="148.51" y1="181.73" x2="207.39" y2="181.73" gradientTransform="matrix(1, 0, 0, 1, 0, 0)" xlink:href="#New_Gradient_Swatch"/><linearGradient id="New_Gradient_Swatch-40" x1="202.24" y1="174.86" x2="153.66" y2="174.86" gradientTransform="matrix(1, 0, 0, 1, 0, 0)" xlink:href="#New_Gradient_Swatch"/><linearGradient id="linear-gradient-49" x1="-3363.25" y1="-1960.8" x2="-3358.35" y2="-1980.63" xlink:href="#linear-gradient-4"/><linearGradient id="linear-gradient-50" x1="-3355.19" y1="-1973.62" x2="-3354.12" y2="-1977.93" xlink:href="#linear-gradient-4"/><linearGradient id="linear-gradient-51" x1="-3368.75" y1="-1965.79" x2="-3367.68" y2="-1970.1" xlink:href="#linear-gradient-4"/><linearGradient id="linear-gradient-52" x1="-3354.19" y1="-1971.4" x2="-3353.13" y2="-1975.71" xlink:href="#linear-gradient-4"/><linearGradient id="linear-gradient-53" x1="-3367.75" y1="-1963.57" x2="-3366.69" y2="-1967.88" xlink:href="#linear-gradient-4"/><linearGradient id="New_Gradient_Swatch-41" x1="148.51" y1="187.89" x2="207.39" y2="187.89" gradientTransform="matrix(1, 0, 0, 1, 0, 0)" xlink:href="#New_Gradient_Swatch"/><linearGradient id="New_Gradient_Swatch-42" x1="148.51" y1="177.05" x2="207.39" y2="177.05" gradientTransform="matrix(1, 0, 0, 1, 0, 0)" xlink:href="#New_Gradient_Swatch"/><linearGradient id="New_Gradient_Swatch-43" x1="202.24" y1="170.18" x2="153.66" y2="170.18" gradientTransform="matrix(1, 0, 0, 1, 0, 0)" xlink:href="#New_Gradient_Swatch"/><linearGradient id="linear-gradient-54" x1="-3371.45" y1="-1960.12" x2="-3366.54" y2="-1979.95" xlink:href="#linear-gradient-4"/><linearGradient id="linear-gradient-55" x1="-3363.38" y1="-1972.95" x2="-3362.32" y2="-1977.25" xlink:href="#linear-gradient-4"/><linearGradient id="linear-gradient-56" x1="-3376.95" y1="-1965.12" x2="-3375.88" y2="-1969.42" xlink:href="#linear-gradient-4"/><linearGradient id="linear-gradient-57" x1="-3362.39" y1="-1970.73" x2="-3361.32" y2="-1975.03" xlink:href="#linear-gradient-4"/><linearGradient id="linear-gradient-58" x1="-3375.95" y1="-1962.9" x2="-3374.89" y2="-1967.2" xlink:href="#linear-gradient-4"/><linearGradient id="New_Gradient_Swatch-44" x1="148.51" y1="183.21" x2="207.39" y2="183.21" gradientTransform="matrix(1, 0, 0, 1, 0, 0)" xlink:href="#New_Gradient_Swatch"/><linearGradient id="New_Gradient_Swatch-45" x1="148.51" y1="172.36" x2="207.39" y2="172.36" gradientTransform="matrix(1, 0, 0, 1, 0, 0)" xlink:href="#New_Gradient_Swatch"/><linearGradient id="New_Gradient_Swatch-46" x1="202.24" y1="165.49" x2="153.66" y2="165.49" gradientTransform="matrix(1, 0, 0, 1, 0, 0)" xlink:href="#New_Gradient_Swatch"/><linearGradient id="linear-gradient-59" x1="-3379.65" y1="-1959.45" x2="-3374.74" y2="-1979.28" xlink:href="#linear-gradient-4"/><linearGradient id="linear-gradient-60" x1="-3371.58" y1="-1972.27" x2="-3370.52" y2="-1976.58" xlink:href="#linear-gradient-4"/><linearGradient id="linear-gradient-61" x1="-3385.14" y1="-1964.44" x2="-3384.08" y2="-1968.75" xlink:href="#linear-gradient-4"/><linearGradient id="linear-gradient-62" x1="-3370.59" y1="-1970.05" x2="-3369.52" y2="-1974.36" xlink:href="#linear-gradient-4"/><linearGradient id="linear-gradient-63" x1="-3384.15" y1="-1962.22" x2="-3383.08" y2="-1966.53" xlink:href="#linear-gradient-4"/></defs><title>Asset 34</title><g id="Layer_2" data-name="Layer 2"><g id="ilus"><path class="cls-1" d="M321.85,37.93c-25.72,14.85-25.57,39,.33,54s67.75,15,93.47.19,25.57-39-.33-54S347.57,23.08,321.85,37.93Z"/><path class="cls-1" d="M302.69,65.5c-.34-10,6-20,19.16-27.57,25.72-14.85,67.57-14.77,93.47.19,13.11,7.57,19.61,17.5,19.51,27.38,0,0-.16,14.88,0,23,.2,9.87-6.19,19.75-19.18,27.25-25.72,14.85-67.57,14.77-93.47-.19-13-7.49-19.48-17.28-19.52-27.06C302.62,80.38,302.69,65.5,302.69,65.5Z"/><path class="cls-2" d="M302.69,65.5c-.34-10,6-20,19.16-27.57,25.72-14.85,67.57-14.77,93.47.19,13.11,7.57,19.61,17.5,19.51,27.38,0,0-.16,14.88,0,23,.2,9.87-6.19,19.75-19.18,27.25-25.72,14.85-67.57,14.77-93.47-.19-13-7.49-19.48-17.28-19.52-27.06C302.62,80.38,302.69,65.5,302.69,65.5Z"/><polygon class="cls-1" points="233.25 168 323.25 116 323.25 92 233.25 144 233.25 168"/><polygon class="cls-2" points="233.25 168 323.25 116 323.25 92 233.25 144 233.25 168"/><path class="cls-1" d="M321.85,37.93c-25.72,14.85-25.57,39,.33,54s67.75,15,93.47.19,25.57-39-.33-54S347.57,23.08,321.85,37.93Z"/><line class="cls-3" x1="323.25" y1="92" x2="234.76" y2="143.19"/><path class="cls-4" d="M233.53,144.19l6-9,.69.32a7.18,7.18,0,0,1,4.16,7.2l-.07.76Z"/><polygon class="cls-1" points="233.25 168 323.25 116 323.25 92 233.25 144 233.25 168"/><polygon class="cls-5" points="233.25 168 323.25 116 323.25 92 233.25 144 233.25 168"/><line class="cls-3" x1="323.25" y1="92" x2="234.76" y2="143.19"/><path class="cls-4" d="M233.53,144.19l6-9,.69.32a7.18,7.18,0,0,1,4.16,7.2l-.07.76Z"/><path class="cls-1" d="M356.29,34.25a19.54,19.54,0,0,0,24.92,0c0-.2,10.88,29,10.91,29.13h0c0,3.46-2.22,6.93-6.79,9.56-9.09,5.25-23.87,5.22-33-.06-4.55-2.63-6.85-6.07-6.89-9.5h0C345.41,63.23,356.25,34.06,356.29,34.25Z"/><circle class="cls-1" cx="368.75" cy="15.5" r="15"/><g class="cls-6"><path class="cls-7" d="M356.29,34.25a19.54,19.54,0,0,0,24.92,0c0-.2,10.88,29,10.91,29.13h0c0,3.46-2.22,6.93-6.79,9.56-9.09,5.25-23.87,5.22-33-.06-4.55-2.63-6.85-6.07-6.89-9.5h0C345.41,63.23,356.25,34.06,356.29,34.25Z"/><circle class="cls-8" cx="368.75" cy="15.5" r="15"/></g><path class="cls-9" d="M282.39,74s-3.06-1.8-3.86-2.23c-3.8-2.07-6.15-6.65-6.15-13.22,0-13,9.16-28.75,20.46-35.27,5.65-3.26,10.77-3.59,14.47-1.48,1.24.71,3.92,2.26,3.92,2.26Z"/><path class="cls-10" d="M277.45,61.45c0-13,9.16-28.75,20.46-35.27s20.46-1.31,20.46,11.65-9.16,28.75-20.46,35.27S277.45,74.41,277.45,61.45Z"/><path class="cls-11" d="M314.8,39.89c0,10.69-7.56,23.73-16.88,29.11S281,70.08,281,59.39s7.56-23.73,16.88-29.11S314.8,29.2,314.8,39.89Z"/><path class="cls-12" d="M297.91,69c-4.76,2.75-9.06,3-12.13,1.1,3,1.62,7.17,1.31,11.74-1.33,9.33-5.38,16.88-18.42,16.88-29.11,0-5.23-1.81-8.93-4.75-10.71,3.17,1.69,5.15,5.48,5.15,10.94C314.8,50.59,307.24,63.62,297.91,69Z"/><polygon class="cls-13" points="304.11 39.3 306.54 33.09 289.67 42.82 289.67 47.63 298.62 42.47 289.29 66.38 294.79 63.2 306.48 56.45 306.48 51.62 297.23 56.96 304.11 39.3"/><polygon class="cls-14" points="306.81 44.12 307.74 41.72 303.84 43.97 302.9 46.38 306.81 44.12"/><polygon class="cls-15" points="294.33 49.46 290.43 51.71 289.49 54.12 293.4 51.86 294.33 49.46"/><polygon class="cls-16" points="306.33 45.34 302.43 47.59 301.49 49.99 305.4 47.73 306.33 45.34"/><polygon class="cls-17" points="289.02 55.33 288.08 57.73 291.99 55.47 292.93 53.08 289.02 55.33"/><polygon class="cls-18" points="311.4 189.19 155.51 99.19 0.6 188.63 0.6 236.63 156.49 326.63 311.4 237.19 311.4 189.19"/><line class="cls-19" x1="0.5" y1="188.41" x2="0.5" y2="236.41"/><line class="cls-20" x1="156.5" y1="278.41" x2="156.5" y2="326.41"/><line class="cls-21" x1="311.5" y1="189.41" x2="311.5" y2="237.41"/><polygon class="cls-22" points="156.49 278.63 0.6 188.63 155.51 99.19 311.4 189.19 156.49 278.63"/><path class="cls-23" d="M121.06,175.15l2.14-1.23,14,8.06L135,183.21Z"/><path class="cls-23" d="M146,189.5q-4-2.33-3.42-5.43t4.78-5.51a21.66,21.66,0,0,1,9.54-2.76,16.27,16.27,0,0,1,9.41,2q4,2.31,3.4,5.42t-4.76,5.52a21.59,21.59,0,0,1-9.56,2.75A16.3,16.3,0,0,1,146,189.5Zm-.07-5.33q-.75,2.43,2.17,4.12a11.58,11.58,0,0,0,7.13,1.25,18.17,18.17,0,0,0,7.3-2.22,7.73,7.73,0,0,0,3.84-4.22q.75-2.43-2.17-4.12a11.58,11.58,0,0,0-7.13-1.25,18.17,18.17,0,0,0-7.3,2.22A7.73,7.73,0,0,0,145.89,184.18Z"/><path class="cls-23" d="M166.78,201.52q-3.46-2-4-4.07t2.7-4l2.3,1.33q-2.48,1.43-1.84,2.88t3.4,3a10.06,10.06,0,0,0,4.18,1.31,6.9,6.9,0,0,0,4.17-.9q1.49-.86,1.12-2.06a5.68,5.68,0,0,0-1.76-2.45q-1.39-1.24-2.67-2.51a4,4,0,0,1-1.35-2.66q-.07-1.38,1.92-2.53a9.53,9.53,0,0,1,6-1.12,16,16,0,0,1,6.17,2q3,1.75,3.68,3.55t-1.65,3.48l-2.23-1.29q2.55-2.14-1.71-4.6a11,11,0,0,0-3.91-1.36,5.69,5.69,0,0,0-3.79.66q-1.3.75-.81,1.89a7.26,7.26,0,0,0,1.83,2.38q1.35,1.24,2.6,2.56a4,4,0,0,1,1.26,2.73q0,1.41-1.94,2.54a10.88,10.88,0,0,1-6.79,1.48A17.55,17.55,0,0,1,166.78,201.52Z"/><polygon class="cls-24" points="18.68 226.03 16.47 214.87 14.07 213.48 17.67 229.38 19.68 230.54 23.24 218.78 20.85 217.4 18.68 226.03"/><polygon class="cls-24" points="27.05 218.8 27.05 221.41 30.45 221.81 30.45 236.76 32.75 238.09 32.75 219.42 32.45 219.25 27.05 218.8"/><path class="cls-24" d="M41.1,239.64c-.42-.25-.75-.27-1-.08a1.27,1.27,0,0,0-.35,1,3,3,0,0,0,.36,1.42,2.54,2.54,0,0,0,1,1c.43.25.76.28,1,.1a1.22,1.22,0,0,0,.35-1,3.14,3.14,0,0,0-.35-1.44A2.52,2.52,0,0,0,41.1,239.64Z"/><path class="cls-24" d="M54.73,244.15v-12l-2.39-1.38-6,9.12.07,1.93,6,3.46v4.14l2.31,1.33v-4.14l1.72,1v-2.49Zm-2.31-1.33-3.63-2.1,3.45-5.37.17-.31Z"/><path class="cls-25" d="M104.81,177.36s0,3.63,0,4.56c-.11,4.41,2.74,8.83,8.55,12.19,11.46,6.61,30.1,6.58,41.63-.08,5.77-3.33,8.67-7.69,8.7-12,0-1.46,0-4.62,0-4.62Z"/><path class="cls-26" d="M155.14,165.3c-11.46-6.61-30.1-6.58-41.63.08s-11.6,17.42-.15,24,30.1,6.58,41.63-.08S166.6,171.91,155.14,165.3Z"/><path class="cls-11" d="M151.49,167.4c-9.45-5.46-24.84-5.43-34.36.07s-9.57,14.38-.12,19.84,24.84,5.43,34.36-.07S160.95,172.86,151.49,167.4Z"/><path class="cls-27" d="M117.13,167.47c-4.86,2.81-7.25,6.5-7.17,10.17.12-3.51,2.51-7,7.16-9.7,9.52-5.5,24.9-5.53,34.36-.07,4.62,2.67,7,6.16,7,9.67.13-3.67-2.22-7.35-7-10.14C142,161.94,126.65,162,117.13,167.47Z"/><polygon class="cls-28" points="146.64 176.33 153.57 174.78 138.8 166.26 134 169.03 141.83 173.55 115.17 179.5 120 182.29 130.23 188.2 135.06 185.41 126.96 180.73 146.64 176.33"/><polygon class="cls-29" points="142.64 181.37 145.32 180.77 141.9 178.79 139.22 179.39 142.64 181.37"/><polygon class="cls-30" points="133.58 173.99 130.16 172.01 127.47 172.61 130.9 174.59 133.58 173.99"/><polygon class="cls-31" points="141.29 181.67 137.87 179.7 135.19 180.29 138.62 182.27 141.29 181.67"/><polygon class="cls-32" points="126.12 172.91 123.45 173.51 126.87 175.49 129.54 174.89 126.12 172.91"/><path class="cls-33" d="M104.81,172.67s0,3.63,0,4.56c-.11,4.41,2.74,8.83,8.55,12.19,11.46,6.61,30.1,6.58,41.63-.08,5.77-3.33,8.67-7.69,8.7-12,0-1.46,0-4.62,0-4.62Z"/><path class="cls-34" d="M155.14,160.61c-11.46-6.61-30.1-6.58-41.63.08s-11.6,17.42-.15,24,30.1,6.58,41.63-.08S166.6,167.23,155.14,160.61Z"/><path class="cls-11" d="M151.49,162.72c-9.45-5.46-24.84-5.43-34.36.07s-9.57,14.38-.12,19.84,24.84,5.43,34.36-.07S160.95,168.18,151.49,162.72Z"/><path class="cls-35" d="M117.13,162.79c-4.86,2.81-7.25,6.5-7.17,10.17.12-3.51,2.51-7,7.16-9.7,9.52-5.5,24.9-5.53,34.36-.07,4.62,2.67,7,6.16,7,9.67.13-3.67-2.22-7.35-7-10.14C142,157.26,126.65,157.29,117.13,162.79Z"/><polygon class="cls-36" points="146.64 171.64 153.57 170.1 138.8 161.57 134 164.34 141.83 168.87 115.17 174.82 120 177.61 130.23 183.51 135.06 180.73 126.96 176.05 146.64 171.64"/><polygon class="cls-37" points="142.64 176.69 145.32 176.09 141.9 174.11 139.22 174.71 142.64 176.69"/><polygon class="cls-38" points="133.58 169.3 130.16 167.33 127.47 167.93 130.9 169.9 133.58 169.3"/><polygon class="cls-39" points="141.29 176.99 137.87 175.01 135.19 175.61 138.62 177.59 141.29 176.99"/><polygon class="cls-40" points="126.12 168.23 123.45 168.83 126.87 170.81 129.54 170.21 126.12 168.23"/><path class="cls-41" d="M104.81,168s0,3.63,0,4.56c-.11,4.41,2.74,8.83,8.55,12.19,11.46,6.61,30.1,6.58,41.63-.08,5.77-3.33,8.67-7.69,8.7-12,0-1.46,0-4.62,0-4.62Z"/><path class="cls-42" d="M155.14,155.93c-11.46-6.61-30.1-6.58-41.63.08s-11.6,17.42-.15,24,30.1,6.58,41.63-.08S166.6,162.54,155.14,155.93Z"/><path class="cls-11" d="M151.49,158c-9.45-5.46-24.84-5.43-34.36.07s-9.57,14.38-.12,19.84,24.84,5.43,34.36-.07S160.95,163.49,151.49,158Z"/><path class="cls-43" d="M117.13,158.11c-4.86,2.81-7.25,6.5-7.17,10.17.12-3.51,2.51-7,7.16-9.7,9.52-5.5,24.9-5.53,34.36-.07,4.62,2.67,7,6.16,7,9.67.13-3.67-2.22-7.35-7-10.14C142,152.58,126.65,152.61,117.13,158.11Z"/><polygon class="cls-44" points="146.64 166.96 153.57 165.42 138.8 156.89 134 159.66 141.83 164.18 115.17 170.14 120 172.92 130.23 178.83 135.06 176.04 126.96 171.37 146.64 166.96"/><polygon class="cls-45" points="142.64 172 145.32 171.4 141.9 169.43 139.22 170.03 142.64 172"/><polygon class="cls-46" points="133.58 164.62 130.16 162.65 127.47 163.25 130.9 165.22 133.58 164.62"/><polygon class="cls-47" points="141.29 172.3 137.87 170.33 135.19 170.93 138.62 172.9 141.29 172.3"/><polygon class="cls-48" points="126.12 163.55 123.45 164.14 126.87 166.12 129.54 165.52 126.12 163.55"/><path class="cls-49" d="M104.81,163.31s0,3.63,0,4.56c-.11,4.41,2.74,8.83,8.55,12.19,11.46,6.61,30.1,6.58,41.63-.08,5.77-3.33,8.67-7.69,8.7-12,0-1.46,0-4.62,0-4.62Z"/><path class="cls-50" d="M155.14,151.24c-11.46-6.61-30.1-6.58-41.63.08s-11.6,17.42-.15,24,30.1,6.58,41.63-.08S166.6,157.86,155.14,151.24Z"/><path class="cls-11" d="M151.49,153.35c-9.45-5.46-24.84-5.43-34.36.07s-9.57,14.38-.12,19.84,24.84,5.43,34.36-.07S160.95,158.81,151.49,153.35Z"/><path class="cls-51" d="M117.13,153.42c-4.86,2.81-7.25,6.5-7.17,10.17.12-3.51,2.51-7,7.16-9.7,9.52-5.5,24.9-5.53,34.36-.07,4.62,2.67,7,6.16,7,9.67.13-3.67-2.22-7.35-7-10.14C142,147.89,126.65,147.92,117.13,153.42Z"/><polygon class="cls-52" points="146.64 162.28 153.57 160.73 138.8 152.21 134 154.98 141.83 159.5 115.17 165.45 120 168.24 130.23 174.15 135.06 171.36 126.96 166.68 146.64 162.28"/><polygon class="cls-53" points="142.64 167.32 145.32 166.72 141.9 164.74 139.22 165.34 142.64 167.32"/><polygon class="cls-54" points="133.58 159.94 130.16 157.96 127.47 158.56 130.9 160.54 133.58 159.94"/><polygon class="cls-55" points="141.29 167.62 137.87 165.65 135.19 166.24 138.62 168.22 141.29 167.62"/><polygon class="cls-56" points="126.12 158.86 123.45 159.46 126.87 161.44 129.54 160.84 126.12 158.86"/><path class="cls-57" d="M104.81,158.65s0,3.63,0,4.56c-.11,4.41,2.74,8.83,8.55,12.19,11.46,6.61,30.1,6.58,41.63-.08,5.77-3.33,8.67-7.69,8.7-12,0-1.46,0-4.62,0-4.62Z"/><path class="cls-58" d="M155.14,146.59c-11.46-6.61-30.1-6.58-41.63.08s-11.6,17.42-.15,24,30.1,6.58,41.63-.08S166.6,153.2,155.14,146.59Z"/><path class="cls-11" d="M151.49,148.69c-9.45-5.46-24.84-5.43-34.36.07s-9.57,14.38-.12,19.84,24.84,5.43,34.36-.07S160.95,154.15,151.49,148.69Z"/><path class="cls-59" d="M117.13,148.76c-4.86,2.81-7.25,6.5-7.17,10.17.12-3.51,2.51-7,7.16-9.7,9.52-5.5,24.9-5.53,34.36-.07,4.62,2.67,7,6.16,7,9.67.13-3.67-2.22-7.35-7-10.14C142,143.23,126.65,143.27,117.13,148.76Z"/><polygon class="cls-60" points="146.64 157.62 153.57 156.07 138.8 147.54 134 150.32 141.83 154.84 115.17 160.79 120 163.58 130.23 169.49 135.06 166.7 126.96 162.02 146.64 157.62"/><polygon class="cls-61" points="142.64 162.66 145.32 162.06 141.9 160.08 139.22 160.68 142.64 162.66"/><polygon class="cls-62" points="133.58 155.28 130.16 153.3 127.47 153.9 130.9 155.88 133.58 155.28"/><polygon class="cls-63" points="141.29 162.96 137.87 160.99 135.19 161.58 138.62 163.56 141.29 162.96"/><polygon class="cls-64" points="126.12 154.21 123.45 154.8 126.87 156.78 129.54 156.18 126.12 154.21"/><path class="cls-65" d="M148.51,200.44s0,3.63,0,4.56c-.11,4.41,2.74,8.83,8.55,12.19,11.46,6.61,30.1,6.58,41.63-.08,5.77-3.33,8.67-7.69,8.7-12,0-1.46,0-4.62,0-4.62Z"/><path class="cls-66" d="M198.84,188.38c-11.46-6.61-30.1-6.58-41.63.08s-11.6,17.42-.15,24,30.1,6.58,41.63-.08S210.29,195,198.84,188.38Z"/><path class="cls-11" d="M195.19,190.49c-9.45-5.46-24.84-5.43-34.36.07s-9.57,14.38-.12,19.84,24.84,5.43,34.36-.07S204.64,195.95,195.19,190.49Z"/><path class="cls-67" d="M160.83,190.56c-4.86,2.81-7.25,6.5-7.17,10.17.12-3.51,2.51-7,7.16-9.7,9.52-5.5,24.9-5.53,34.36-.07,4.62,2.67,7,6.16,7,9.67.13-3.67-2.22-7.35-7-10.14C185.73,185,170.35,185.06,160.83,190.56Z"/><polygon class="cls-68" points="190.34 199.41 197.27 197.87 182.5 189.34 177.7 192.11 185.53 196.63 158.87 202.59 163.69 205.38 173.93 211.28 178.75 208.5 170.65 203.82 190.34 199.41"/><polygon class="cls-69" points="186.33 204.45 189.01 203.85 185.6 201.88 182.91 202.48 186.33 204.45"/><polygon class="cls-70" points="177.27 197.07 173.85 195.1 171.17 195.7 174.59 197.67 177.27 197.07"/><polygon class="cls-71" points="184.98 204.76 181.56 202.78 178.89 203.38 182.31 205.35 184.98 204.76"/><polygon class="cls-72" points="169.81 196 167.14 196.6 170.57 198.57 173.24 197.98 169.81 196"/><path class="cls-73" d="M148.51,195.76s0,3.63,0,4.56c-.11,4.41,2.74,8.83,8.55,12.19,11.46,6.61,30.1,6.58,41.63-.08,5.77-3.33,8.67-7.69,8.7-12,0-1.46,0-4.62,0-4.62Z"/><path class="cls-74" d="M198.84,183.7c-11.46-6.61-30.1-6.58-41.63.08s-11.6,17.42-.15,24,30.1,6.58,41.63-.08S210.29,190.31,198.84,183.7Z"/><path class="cls-11" d="M195.19,185.81c-9.45-5.46-24.84-5.43-34.36.07s-9.57,14.38-.12,19.84,24.84,5.43,34.36-.07S204.64,191.26,195.19,185.81Z"/><path class="cls-75" d="M160.83,185.87c-4.86,2.81-7.25,6.5-7.17,10.17.12-3.51,2.51-7,7.16-9.7,9.52-5.5,24.9-5.53,34.36-.07,4.62,2.67,7,6.16,7,9.67.13-3.67-2.22-7.35-7-10.14C185.73,180.35,170.35,180.38,160.83,185.87Z"/><polygon class="cls-76" points="190.34 194.73 197.27 193.19 182.5 184.66 177.7 187.43 185.53 191.95 158.87 197.91 163.69 200.69 173.93 206.6 178.75 203.81 170.65 199.13 190.34 194.73"/><polygon class="cls-77" points="186.33 199.77 189.01 199.17 185.6 197.2 182.91 197.79 186.33 199.77"/><polygon class="cls-78" points="177.27 192.39 173.85 190.41 171.17 191.01 174.59 192.99 177.27 192.39"/><polygon class="cls-79" points="184.98 200.07 181.56 198.1 178.89 198.69 182.31 200.67 184.98 200.07"/><polygon class="cls-80" points="169.81 191.32 167.14 191.91 170.57 193.89 173.24 193.29 169.81 191.32"/><path class="cls-81" d="M148.51,191.08s0,3.63,0,4.56c-.11,4.41,2.74,8.83,8.55,12.19,11.46,6.61,30.1,6.58,41.63-.08,5.77-3.33,8.67-7.69,8.7-12,0-1.46,0-4.62,0-4.62Z"/><path class="cls-82" d="M198.84,179c-11.46-6.61-30.1-6.58-41.63.08s-11.6,17.42-.15,24,30.1,6.58,41.63-.08S210.29,185.63,198.84,179Z"/><path class="cls-11" d="M195.19,181.12c-9.45-5.46-24.84-5.43-34.36.07s-9.57,14.38-.12,19.84,24.84,5.43,34.36-.07S204.64,186.58,195.19,181.12Z"/><path class="cls-83" d="M160.83,181.19c-4.86,2.81-7.25,6.5-7.17,10.17.12-3.51,2.51-7,7.16-9.7,9.52-5.5,24.9-5.53,34.36-.07,4.62,2.67,7,6.16,7,9.67.13-3.67-2.22-7.35-7-10.14C185.73,175.66,170.35,175.69,160.83,181.19Z"/><polygon class="cls-84" points="190.34 190.04 197.27 188.5 182.5 179.97 177.7 182.75 185.53 187.27 158.87 193.22 163.69 196.01 173.93 201.92 178.75 199.13 170.65 194.45 190.34 190.04"/><polygon class="cls-85" points="186.33 195.09 189.01 194.49 185.6 192.51 182.91 193.11 186.33 195.09"/><polygon class="cls-86" points="177.27 187.71 173.85 185.73 171.17 186.33 174.59 188.31 177.27 187.71"/><polygon class="cls-87" points="184.98 195.39 181.56 193.41 178.89 194.01 182.31 195.99 184.98 195.39"/><polygon class="cls-88" points="169.81 186.63 167.14 187.23 170.57 189.21 173.24 188.61 169.81 186.63"/><path class="cls-89" d="M148.51,186.39s0,3.63,0,4.56c-.11,4.41,2.74,8.83,8.55,12.19,11.46,6.61,30.1,6.58,41.63-.08,5.77-3.33,8.67-7.69,8.7-12,0-1.46,0-4.62,0-4.62Z"/><path class="cls-90" d="M198.84,174.33c-11.46-6.61-30.1-6.58-41.63.08s-11.6,17.42-.15,24,30.1,6.58,41.63-.08S210.29,180.94,198.84,174.33Z"/><path class="cls-11" d="M195.19,176.44c-9.45-5.46-24.84-5.43-34.36.07s-9.57,14.38-.12,19.84,24.84,5.43,34.36-.07S204.64,181.9,195.19,176.44Z"/><path class="cls-91" d="M160.83,176.51c-4.86,2.81-7.25,6.5-7.17,10.17.12-3.51,2.51-7,7.16-9.7,9.52-5.5,24.9-5.53,34.36-.07,4.62,2.67,7,6.16,7,9.67.13-3.67-2.22-7.35-7-10.14C185.73,171,170.35,171,160.83,176.51Z"/><polygon class="cls-92" points="190.34 185.36 197.27 183.82 182.5 175.29 177.7 178.06 185.53 182.58 158.87 188.54 163.69 191.32 173.93 197.23 178.75 194.44 170.65 189.77 190.34 185.36"/><polygon class="cls-93" points="186.33 190.4 189.01 189.8 185.6 187.83 182.91 188.43 186.33 190.4"/><polygon class="cls-94" points="177.27 183.02 173.85 181.05 171.17 181.65 174.59 183.62 177.27 183.02"/><polygon class="cls-95" points="184.98 190.71 181.56 188.73 178.89 189.33 182.31 191.3 184.98 190.71"/><polygon class="cls-96" points="169.81 181.95 167.14 182.55 170.57 184.52 173.24 183.93 169.81 181.95"/><path class="cls-97" d="M148.51,181.73s0,3.63,0,4.56c-.11,4.41,2.74,8.83,8.55,12.19,11.46,6.61,30.1,6.58,41.63-.08,5.77-3.33,8.67-7.69,8.7-12,0-1.46,0-4.62,0-4.62Z"/><path class="cls-98" d="M198.84,169.67c-11.46-6.61-30.1-6.58-41.63.08s-11.6,17.42-.15,24,30.1,6.58,41.63-.08S210.29,176.29,198.84,169.67Z"/><path class="cls-11" d="M195.19,171.78c-9.45-5.46-24.84-5.43-34.36.07s-9.57,14.38-.12,19.84,24.84,5.43,34.36-.07S204.64,177.24,195.19,171.78Z"/><path class="cls-99" d="M160.83,171.85c-4.86,2.81-7.25,6.5-7.17,10.17.12-3.51,2.51-7,7.16-9.7,9.52-5.5,24.9-5.53,34.36-.07,4.62,2.67,7,6.16,7,9.67.13-3.67-2.22-7.35-7-10.14C185.73,166.32,170.35,166.35,160.83,171.85Z"/><polygon class="cls-100" points="190.34 180.7 197.27 179.16 182.5 170.63 177.7 173.4 185.53 177.92 158.87 183.88 163.69 186.66 173.93 192.57 178.75 189.79 170.65 185.11 190.34 180.7"/><polygon class="cls-101" points="186.33 185.74 189.01 185.14 185.6 183.17 182.91 183.77 186.33 185.74"/><polygon class="cls-102" points="177.27 178.36 173.85 176.39 171.17 176.99 174.59 178.96 177.27 178.36"/><polygon class="cls-103" points="184.98 186.05 181.56 184.07 178.89 184.67 182.31 186.64 184.98 186.05"/><polygon class="cls-104" points="169.81 177.29 167.14 177.89 170.57 179.86 173.24 179.27 169.81 177.29"/><path class="cls-105" d="M148.51,177s0,3.63,0,4.56c-.11,4.41,2.74,8.83,8.55,12.19,11.46,6.61,30.1,6.58,41.63-.08,5.77-3.33,8.67-7.69,8.7-12,0-1.46,0-4.62,0-4.62Z"/><path class="cls-106" d="M198.84,165c-11.46-6.61-30.1-6.58-41.63.08s-11.6,17.42-.15,24,30.1,6.58,41.63-.08S210.29,171.6,198.84,165Z"/><path class="cls-11" d="M195.19,167.09c-9.45-5.46-24.84-5.43-34.36.07s-9.57,14.38-.12,19.84,24.84,5.43,34.36-.07S204.64,172.55,195.19,167.09Z"/><path class="cls-107" d="M160.83,167.16c-4.86,2.81-7.25,6.5-7.17,10.17.12-3.51,2.51-7,7.16-9.7,9.52-5.5,24.9-5.53,34.36-.07,4.62,2.67,7,6.16,7,9.67.13-3.67-2.22-7.35-7-10.14C185.73,161.64,170.35,161.67,160.83,167.16Z"/><polygon class="cls-108" points="190.34 176.02 197.27 174.47 182.5 165.95 177.7 168.72 185.53 173.24 158.87 179.2 163.69 181.98 173.93 187.89 178.75 185.1 170.65 180.42 190.34 176.02"/><polygon class="cls-109" points="186.33 181.06 189.01 180.46 185.6 178.49 182.91 179.09 186.33 181.06"/><polygon class="cls-110" points="177.27 173.68 173.85 171.71 171.17 172.3 174.59 174.28 177.27 173.68"/><polygon class="cls-111" points="184.98 181.36 181.56 179.39 178.89 179.98 182.31 181.96 184.98 181.36"/><polygon class="cls-112" points="169.81 172.61 167.14 173.2 170.57 175.18 173.24 174.58 169.81 172.61"/><path class="cls-113" d="M148.51,172.37s0,3.63,0,4.56c-.11,4.41,2.74,8.83,8.55,12.19,11.46,6.61,30.1,6.58,41.63-.08,5.77-3.33,8.67-7.69,8.7-12,0-1.46,0-4.62,0-4.62Z"/><path class="cls-114" d="M198.84,160.3c-11.46-6.61-30.1-6.58-41.63.08s-11.6,17.42-.15,24,30.1,6.58,41.63-.08S210.29,166.92,198.84,160.3Z"/><path class="cls-11" d="M195.19,162.41c-9.45-5.46-24.84-5.43-34.36.07s-9.57,14.38-.12,19.84,24.84,5.43,34.36-.07S204.64,167.87,195.19,162.41Z"/><path class="cls-115" d="M160.83,162.48c-4.86,2.81-7.25,6.5-7.17,10.17.12-3.51,2.51-7,7.16-9.7,9.52-5.5,24.9-5.53,34.36-.07,4.62,2.67,7,6.16,7,9.67.13-3.67-2.22-7.35-7-10.14C185.73,157,170.35,157,160.83,162.48Z"/><polygon class="cls-116" points="190.34 171.33 197.27 169.79 182.5 161.26 177.7 164.04 185.53 168.56 158.87 174.51 163.69 177.3 173.93 183.21 178.75 180.42 170.65 175.74 190.34 171.33"/><polygon class="cls-117" points="186.33 176.38 189.01 175.78 185.6 173.8 182.91 174.4 186.33 176.38"/><polygon class="cls-118" points="177.27 169 173.85 167.02 171.17 167.62 174.59 169.6 177.27 169"/><polygon class="cls-119" points="184.98 176.68 181.56 174.7 178.89 175.3 182.31 177.28 184.98 176.68"/><polygon class="cls-120" points="169.81 167.92 167.14 168.52 170.57 170.5 173.24 169.9 169.81 167.92"/><path class="cls-121" d="M325.25,73.05l-6,9-.69-.32a7.18,7.18,0,0,1-4.16-7.2l.07-.76Z"/><line class="cls-122" x1="323.7" y1="73.68" x2="178.87" y2="159.03"/></g></g></svg>