<svg xmlns="http://www.w3.org/2000/svg" xmlns:xlink="http://www.w3.org/1999/xlink" viewBox="0 0 622.55 336.45"><defs><style>.cls-1,.cls-2,.cls-3,.cls-5{stroke:#67eaec;}.cls-1,.cls-10,.cls-14,.cls-15,.cls-16,.cls-17,.cls-2,.cls-3,.cls-5,.cls-6,.cls-8{stroke-linecap:round;stroke-linejoin:round;}.cls-1,.cls-2,.cls-3{stroke-width:0.6px;}.cls-1{fill:url(#New_Gradient_Swatch_copy);}.cls-2{fill:url(#New_Gradient_Swatch_copy-2);}.cls-3{fill:url(#New_Gradient_Swatch_copy-3);}.cls-4{fill:#67eaec;}.cls-17,.cls-5{fill:none;stroke-dasharray:4 5;}.cls-6{fill:#272c34;}.cls-10,.cls-14,.cls-15,.cls-16,.cls-17,.cls-6,.cls-8{stroke:#ff4747;}.cls-7,.cls-9{fill:#ff4747;}.cls-7{opacity:0.09;}.cls-8{fill:url(#New_Gradient_Swatch_copy-4);}.cls-10{fill:url(#New_Gradient_Swatch_copy-5);}.cls-11{opacity:0.3;}.cls-12{fill:url(#linear-gradient);}.cls-13{fill:url(#linear-gradient-2);}.cls-14{fill:url(#New_Gradient_Swatch_copy-6);}.cls-15{fill:url(#New_Gradient_Swatch_copy-7);}.cls-16{fill:url(#New_Gradient_Swatch_copy-8);}.cls-100,.cls-101,.cls-102,.cls-103,.cls-104,.cls-105,.cls-106,.cls-107,.cls-108,.cls-109,.cls-110,.cls-111,.cls-112,.cls-113,.cls-114,.cls-115,.cls-116,.cls-117,.cls-118,.cls-119,.cls-120,.cls-121,.cls-122,.cls-123,.cls-124,.cls-125,.cls-126,.cls-127,.cls-128,.cls-129,.cls-130,.cls-18,.cls-19,.cls-20,.cls-21,.cls-22,.cls-23,.cls-24,.cls-25,.cls-26,.cls-27,.cls-28,.cls-29,.cls-30,.cls-31,.cls-32,.cls-33,.cls-34,.cls-35,.cls-36,.cls-37,.cls-38,.cls-39,.cls-40,.cls-41,.cls-42,.cls-43,.cls-44,.cls-45,.cls-46,.cls-47,.cls-48,.cls-49,.cls-50,.cls-51,.cls-52,.cls-53,.cls-54,.cls-55,.cls-56,.cls-57,.cls-58,.cls-59,.cls-60,.cls-61,.cls-62,.cls-63,.cls-64,.cls-65,.cls-66,.cls-67,.cls-68,.cls-69,.cls-70,.cls-71,.cls-72,.cls-73,.cls-74,.cls-75,.cls-76,.cls-77,.cls-78,.cls-79,.cls-80,.cls-81,.cls-82,.cls-83,.cls-84,.cls-85,.cls-86,.cls-87,.cls-88,.cls-89,.cls-90,.cls-91,.cls-92,.cls-93,.cls-94,.cls-95,.cls-96,.cls-97,.cls-98,.cls-99{stroke:#424b4f;stroke-miterlimit:10;stroke-width:0.25px;}.cls-18{fill:url(#New_Gradient_Swatch);}.cls-19{fill:url(#New_Gradient_Swatch-2);}.cls-20{fill:#f5ffff;}.cls-21{fill:url(#New_Gradient_Swatch-3);}.cls-22{fill:url(#linear-gradient-3);}.cls-23{fill:url(#linear-gradient-4);}.cls-24{fill:url(#linear-gradient-5);}.cls-25{fill:url(#linear-gradient-6);}.cls-26{fill:url(#linear-gradient-7);}.cls-27{fill:url(#New_Gradient_Swatch-4);}.cls-28{fill:url(#New_Gradient_Swatch-5);}.cls-29{fill:url(#New_Gradient_Swatch-6);}.cls-30{fill:url(#linear-gradient-8);}.cls-31{fill:url(#linear-gradient-9);}.cls-32{fill:url(#linear-gradient-10);}.cls-33{fill:url(#linear-gradient-11);}.cls-34{fill:url(#linear-gradient-12);}.cls-35{fill:url(#New_Gradient_Swatch-7);}.cls-36{fill:url(#New_Gradient_Swatch-8);}.cls-37{fill:url(#New_Gradient_Swatch-9);}.cls-38{fill:url(#linear-gradient-13);}.cls-39{fill:url(#linear-gradient-14);}.cls-40{fill:url(#linear-gradient-15);}.cls-41{fill:url(#linear-gradient-16);}.cls-42{fill:url(#linear-gradient-17);}.cls-43{fill:url(#New_Gradient_Swatch-10);}.cls-44{fill:url(#New_Gradient_Swatch-11);}.cls-45{fill:url(#New_Gradient_Swatch-12);}.cls-46{fill:url(#linear-gradient-18);}.cls-47{fill:url(#linear-gradient-19);}.cls-48{fill:url(#linear-gradient-20);}.cls-49{fill:url(#linear-gradient-21);}.cls-50{fill:url(#linear-gradient-22);}.cls-51{fill:url(#New_Gradient_Swatch-13);}.cls-52{fill:url(#New_Gradient_Swatch-14);}.cls-53{fill:url(#New_Gradient_Swatch-15);}.cls-54{fill:url(#linear-gradient-23);}.cls-55{fill:url(#linear-gradient-24);}.cls-56{fill:url(#linear-gradient-25);}.cls-57{fill:url(#linear-gradient-26);}.cls-58{fill:url(#linear-gradient-27);}.cls-59{fill:url(#New_Gradient_Swatch-16);}.cls-60{fill:url(#New_Gradient_Swatch-17);}.cls-61{fill:url(#New_Gradient_Swatch-18);}.cls-62{fill:url(#linear-gradient-28);}.cls-63{fill:url(#linear-gradient-29);}.cls-64{fill:url(#linear-gradient-30);}.cls-65{fill:url(#linear-gradient-31);}.cls-66{fill:url(#linear-gradient-32);}.cls-67{fill:url(#New_Gradient_Swatch-19);}.cls-68{fill:url(#New_Gradient_Swatch-20);}.cls-69{fill:url(#New_Gradient_Swatch-21);}.cls-70{fill:url(#linear-gradient-33);}.cls-71{fill:url(#linear-gradient-34);}.cls-72{fill:url(#linear-gradient-35);}.cls-73{fill:url(#linear-gradient-36);}.cls-74{fill:url(#linear-gradient-37);}.cls-75{fill:url(#New_Gradient_Swatch-22);}.cls-76{fill:url(#New_Gradient_Swatch-23);}.cls-77{fill:url(#New_Gradient_Swatch-24);}.cls-78{fill:url(#linear-gradient-38);}.cls-79{fill:url(#linear-gradient-39);}.cls-80{fill:url(#linear-gradient-40);}.cls-81{fill:url(#linear-gradient-41);}.cls-82{fill:url(#linear-gradient-42);}.cls-83{fill:url(#New_Gradient_Swatch-25);}.cls-84{fill:url(#New_Gradient_Swatch-26);}.cls-85{fill:url(#New_Gradient_Swatch-27);}.cls-86{fill:url(#linear-gradient-43);}.cls-87{fill:url(#linear-gradient-44);}.cls-88{fill:url(#linear-gradient-45);}.cls-89{fill:url(#linear-gradient-46);}.cls-90{fill:url(#linear-gradient-47);}.cls-91{fill:url(#New_Gradient_Swatch-28);}.cls-92{fill:url(#New_Gradient_Swatch-29);}.cls-93{fill:url(#New_Gradient_Swatch-30);}.cls-94{fill:url(#linear-gradient-48);}.cls-95{fill:url(#linear-gradient-49);}.cls-96{fill:url(#linear-gradient-50);}.cls-97{fill:url(#linear-gradient-51);}.cls-98{fill:url(#linear-gradient-52);}.cls-99{fill:url(#New_Gradient_Swatch-31);}.cls-100{fill:url(#New_Gradient_Swatch-32);}.cls-101{fill:url(#New_Gradient_Swatch-33);}.cls-102{fill:url(#linear-gradient-53);}.cls-103{fill:url(#linear-gradient-54);}.cls-104{fill:url(#linear-gradient-55);}.cls-105{fill:url(#linear-gradient-56);}.cls-106{fill:url(#linear-gradient-57);}.cls-107{fill:url(#New_Gradient_Swatch-34);}.cls-108{fill:url(#New_Gradient_Swatch-35);}.cls-109{fill:url(#New_Gradient_Swatch-36);}.cls-110{fill:url(#linear-gradient-58);}.cls-111{fill:url(#linear-gradient-59);}.cls-112{fill:url(#linear-gradient-60);}.cls-113{fill:url(#linear-gradient-61);}.cls-114{fill:url(#linear-gradient-62);}.cls-115{fill:url(#New_Gradient_Swatch-37);}.cls-116{fill:url(#New_Gradient_Swatch-38);}.cls-117{fill:url(#New_Gradient_Swatch-39);}.cls-118{fill:url(#linear-gradient-63);}.cls-119{fill:url(#linear-gradient-64);}.cls-120{fill:url(#linear-gradient-65);}.cls-121{fill:url(#linear-gradient-66);}.cls-122{fill:url(#linear-gradient-67);}.cls-123{fill:url(#New_Gradient_Swatch-40);}.cls-124{fill:url(#New_Gradient_Swatch-41);}.cls-125{fill:url(#New_Gradient_Swatch-42);}.cls-126{fill:url(#linear-gradient-68);}.cls-127{fill:url(#linear-gradient-69);}.cls-128{fill:url(#linear-gradient-70);}.cls-129{fill:url(#linear-gradient-71);}.cls-130{fill:url(#linear-gradient-72);}</style><linearGradient id="New_Gradient_Swatch_copy" x1="311.1" y1="114.02" x2="0.3" y2="114.02" gradientUnits="userSpaceOnUse"><stop offset="0" stop-color="#2e3d4a"/><stop offset="1" stop-color="#232329"/></linearGradient><linearGradient id="New_Gradient_Swatch_copy-2" x1="156.2" y1="203.52" x2="156.2" y2="203.52" xlink:href="#New_Gradient_Swatch_copy"/><linearGradient id="New_Gradient_Swatch_copy-3" x1="155.7" y1="179.74" x2="155.7" y2="0.3" xlink:href="#New_Gradient_Swatch_copy"/><linearGradient id="New_Gradient_Swatch_copy-4" x1="-1631.13" y1="153.72" x2="-1542.64" y2="153.72" gradientTransform="matrix(-1, 0, 0, 1, -1120.67, 0)" xlink:href="#New_Gradient_Swatch_copy"/><linearGradient id="New_Gradient_Swatch_copy-5" x1="-1631.13" y1="129.72" x2="-1542.64" y2="129.72" gradientTransform="matrix(-1, 0, 0, 1, -1120.67, 0)" xlink:href="#New_Gradient_Swatch_copy"/><linearGradient id="linear-gradient" x1="-1699.99" y1="67.68" x2="-1653.26" y2="67.68" gradientTransform="matrix(-1, 0, 0, 1, -1120.67, 0)" gradientUnits="userSpaceOnUse"><stop offset="0" stop-color="#ff4747"/><stop offset="1" stop-color="#232329"/></linearGradient><linearGradient id="linear-gradient-2" x1="-1691.63" y1="27.63" x2="-1661.62" y2="27.63" xlink:href="#linear-gradient"/><linearGradient id="New_Gradient_Swatch_copy-6" x1="495.6" y1="222.23" x2="184.81" y2="222.23" xlink:href="#New_Gradient_Swatch_copy"/><linearGradient id="New_Gradient_Swatch_copy-7" x1="340.71" y1="311.73" x2="340.71" y2="311.73" xlink:href="#New_Gradient_Swatch_copy"/><linearGradient id="New_Gradient_Swatch_copy-8" x1="340.21" y1="287.95" x2="340.21" y2="108.51" xlink:href="#New_Gradient_Swatch_copy"/><linearGradient id="New_Gradient_Swatch" x1="104.41" y1="89.3" x2="163.29" y2="89.3" gradientUnits="userSpaceOnUse"><stop offset="0" stop-color="#5c8ee4"/><stop offset="1" stop-color="#67eaec"/></linearGradient><linearGradient id="New_Gradient_Swatch-2" x1="104.41" y1="78.46" x2="163.29" y2="78.46" xlink:href="#New_Gradient_Swatch"/><linearGradient id="New_Gradient_Swatch-3" x1="158.14" y1="71.59" x2="109.56" y2="71.59" xlink:href="#New_Gradient_Swatch"/><linearGradient id="linear-gradient-3" x1="-1315.44" y1="-374.79" x2="-1310.53" y2="-394.62" gradientTransform="matrix(-0.14, 0.58, -1.75, 0.14, -728.85, 899.77)" gradientUnits="userSpaceOnUse"><stop offset="0" stop-color="#5fa5e6"/><stop offset="1" stop-color="#67eaec"/></linearGradient><linearGradient id="linear-gradient-4" x1="-1307.37" y1="-387.61" x2="-1306.31" y2="-391.92" xlink:href="#linear-gradient-3"/><linearGradient id="linear-gradient-5" x1="-1320.93" y1="-379.78" x2="-1319.87" y2="-384.09" xlink:href="#linear-gradient-3"/><linearGradient id="linear-gradient-6" x1="-1306.38" y1="-385.39" x2="-1305.31" y2="-389.7" xlink:href="#linear-gradient-3"/><linearGradient id="linear-gradient-7" x1="-1319.94" y1="-377.56" x2="-1318.87" y2="-381.87" xlink:href="#linear-gradient-3"/><linearGradient id="New_Gradient_Swatch-4" x1="104.41" y1="84.62" x2="163.29" y2="84.62" xlink:href="#New_Gradient_Swatch"/><linearGradient id="New_Gradient_Swatch-5" x1="104.41" y1="73.78" x2="163.29" y2="73.78" xlink:href="#New_Gradient_Swatch"/><linearGradient id="New_Gradient_Swatch-6" x1="158.14" y1="66.91" x2="109.56" y2="66.91" xlink:href="#New_Gradient_Swatch"/><linearGradient id="linear-gradient-8" x1="-1323.64" y1="-374.11" x2="-1318.73" y2="-393.94" xlink:href="#linear-gradient-3"/><linearGradient id="linear-gradient-9" x1="-1315.57" y1="-386.94" x2="-1314.5" y2="-391.24" xlink:href="#linear-gradient-3"/><linearGradient id="linear-gradient-10" x1="-1329.13" y1="-379.11" x2="-1328.07" y2="-383.41" xlink:href="#linear-gradient-3"/><linearGradient id="linear-gradient-11" x1="-1314.57" y1="-384.72" x2="-1313.51" y2="-389.02" xlink:href="#linear-gradient-3"/><linearGradient id="linear-gradient-12" x1="-1328.14" y1="-376.89" x2="-1327.07" y2="-381.19" xlink:href="#linear-gradient-3"/><linearGradient id="New_Gradient_Swatch-7" x1="289.02" y1="197.51" x2="347.9" y2="197.51" xlink:href="#New_Gradient_Swatch"/><linearGradient id="New_Gradient_Swatch-8" x1="289.02" y1="186.67" x2="347.9" y2="186.67" xlink:href="#New_Gradient_Swatch"/><linearGradient id="New_Gradient_Swatch-9" x1="342.75" y1="179.8" x2="294.17" y2="179.8" xlink:href="#New_Gradient_Swatch"/><linearGradient id="linear-gradient-13" x1="-1099.43" y1="-498.1" x2="-1094.52" y2="-517.93" xlink:href="#linear-gradient-3"/><linearGradient id="linear-gradient-14" x1="-1091.36" y1="-510.92" x2="-1090.29" y2="-515.23" xlink:href="#linear-gradient-3"/><linearGradient id="linear-gradient-15" x1="-1104.92" y1="-503.09" x2="-1103.86" y2="-507.4" xlink:href="#linear-gradient-3"/><linearGradient id="linear-gradient-16" x1="-1090.36" y1="-508.7" x2="-1089.3" y2="-513.01" xlink:href="#linear-gradient-3"/><linearGradient id="linear-gradient-17" x1="-1103.93" y1="-500.87" x2="-1102.86" y2="-505.18" xlink:href="#linear-gradient-3"/><linearGradient id="New_Gradient_Swatch-10" x1="289.02" y1="192.83" x2="347.9" y2="192.83" xlink:href="#New_Gradient_Swatch"/><linearGradient id="New_Gradient_Swatch-11" x1="289.02" y1="181.99" x2="347.9" y2="181.99" xlink:href="#New_Gradient_Swatch"/><linearGradient id="New_Gradient_Swatch-12" x1="342.75" y1="175.12" x2="294.17" y2="175.12" xlink:href="#New_Gradient_Swatch"/><linearGradient id="linear-gradient-18" x1="-1107.62" y1="-497.42" x2="-1102.72" y2="-517.25" xlink:href="#linear-gradient-3"/><linearGradient id="linear-gradient-19" x1="-1099.56" y1="-510.25" x2="-1098.49" y2="-514.55" xlink:href="#linear-gradient-3"/><linearGradient id="linear-gradient-20" x1="-1113.12" y1="-502.42" x2="-1112.05" y2="-506.72" xlink:href="#linear-gradient-3"/><linearGradient id="linear-gradient-21" x1="-1098.56" y1="-508.03" x2="-1097.5" y2="-512.33" xlink:href="#linear-gradient-3"/><linearGradient id="linear-gradient-22" x1="-1112.12" y1="-500.2" x2="-1111.06" y2="-504.5" xlink:href="#linear-gradient-3"/><linearGradient id="New_Gradient_Swatch-13" x1="289.02" y1="188.15" x2="347.9" y2="188.15" xlink:href="#New_Gradient_Swatch"/><linearGradient id="New_Gradient_Swatch-14" x1="289.02" y1="177.31" x2="347.9" y2="177.31" xlink:href="#New_Gradient_Swatch"/><linearGradient id="New_Gradient_Swatch-15" x1="342.75" y1="170.43" x2="294.17" y2="170.43" xlink:href="#New_Gradient_Swatch"/><linearGradient id="linear-gradient-23" x1="-1115.82" y1="-496.74" x2="-1110.91" y2="-516.58" xlink:href="#linear-gradient-3"/><linearGradient id="linear-gradient-24" x1="-1107.75" y1="-509.57" x2="-1106.69" y2="-513.88" xlink:href="#linear-gradient-3"/><linearGradient id="linear-gradient-25" x1="-1121.31" y1="-501.74" x2="-1120.25" y2="-506.05" xlink:href="#linear-gradient-3"/><linearGradient id="linear-gradient-26" x1="-1106.76" y1="-507.35" x2="-1105.69" y2="-511.65" xlink:href="#linear-gradient-3"/><linearGradient id="linear-gradient-27" x1="-1120.32" y1="-499.52" x2="-1119.25" y2="-503.82" xlink:href="#linear-gradient-3"/><linearGradient id="New_Gradient_Swatch-16" x1="289.02" y1="183.46" x2="347.9" y2="183.46" xlink:href="#New_Gradient_Swatch"/><linearGradient id="New_Gradient_Swatch-17" x1="289.02" y1="172.62" x2="347.9" y2="172.62" xlink:href="#New_Gradient_Swatch"/><linearGradient id="New_Gradient_Swatch-18" x1="342.75" y1="165.75" x2="294.17" y2="165.75" xlink:href="#New_Gradient_Swatch"/><linearGradient id="linear-gradient-28" x1="-1124.02" y1="-496.07" x2="-1119.11" y2="-515.9" xlink:href="#linear-gradient-3"/><linearGradient id="linear-gradient-29" x1="-1115.95" y1="-508.89" x2="-1114.88" y2="-513.2" xlink:href="#linear-gradient-3"/><linearGradient id="linear-gradient-30" x1="-1129.51" y1="-501.06" x2="-1128.45" y2="-505.37" xlink:href="#linear-gradient-3"/><linearGradient id="linear-gradient-31" x1="-1114.95" y1="-506.67" x2="-1113.89" y2="-510.98" xlink:href="#linear-gradient-3"/><linearGradient id="linear-gradient-32" x1="-1128.52" y1="-498.84" x2="-1127.45" y2="-503.15" xlink:href="#linear-gradient-3"/><linearGradient id="New_Gradient_Swatch-19" x1="289.02" y1="178.8" x2="347.9" y2="178.8" xlink:href="#New_Gradient_Swatch"/><linearGradient id="New_Gradient_Swatch-20" x1="289.02" y1="167.96" x2="347.9" y2="167.96" xlink:href="#New_Gradient_Swatch"/><linearGradient id="New_Gradient_Swatch-21" x1="342.75" y1="161.09" x2="294.17" y2="161.09" xlink:href="#New_Gradient_Swatch"/><linearGradient id="linear-gradient-33" x1="-1132.17" y1="-495.4" x2="-1127.26" y2="-515.23" xlink:href="#linear-gradient-3"/><linearGradient id="linear-gradient-34" x1="-1124.1" y1="-508.22" x2="-1123.04" y2="-512.53" xlink:href="#linear-gradient-3"/><linearGradient id="linear-gradient-35" x1="-1137.66" y1="-500.39" x2="-1136.6" y2="-504.7" xlink:href="#linear-gradient-3"/><linearGradient id="linear-gradient-36" x1="-1123.11" y1="-506" x2="-1122.04" y2="-510.31" xlink:href="#linear-gradient-3"/><linearGradient id="linear-gradient-37" x1="-1136.67" y1="-498.17" x2="-1135.6" y2="-502.48" xlink:href="#linear-gradient-3"/><linearGradient id="New_Gradient_Swatch-22" x1="332.71" y1="220.6" x2="391.6" y2="220.6" xlink:href="#New_Gradient_Swatch"/><linearGradient id="New_Gradient_Swatch-23" x1="332.71" y1="209.76" x2="391.59" y2="209.76" xlink:href="#New_Gradient_Swatch"/><linearGradient id="New_Gradient_Swatch-24" x1="386.44" y1="202.89" x2="337.87" y2="202.89" xlink:href="#New_Gradient_Swatch"/><linearGradient id="linear-gradient-38" x1="-1052.72" y1="-526.92" x2="-1047.81" y2="-546.75" xlink:href="#linear-gradient-3"/><linearGradient id="linear-gradient-39" x1="-1044.65" y1="-539.74" x2="-1043.59" y2="-544.05" xlink:href="#linear-gradient-3"/><linearGradient id="linear-gradient-40" x1="-1058.21" y1="-531.91" x2="-1057.15" y2="-536.22" xlink:href="#linear-gradient-3"/><linearGradient id="linear-gradient-41" x1="-1043.66" y1="-537.52" x2="-1042.59" y2="-541.83" xlink:href="#linear-gradient-3"/><linearGradient id="linear-gradient-42" x1="-1057.22" y1="-529.69" x2="-1056.15" y2="-534" xlink:href="#linear-gradient-3"/><linearGradient id="New_Gradient_Swatch-25" x1="332.71" y1="215.92" x2="391.6" y2="215.92" xlink:href="#New_Gradient_Swatch"/><linearGradient id="New_Gradient_Swatch-26" x1="332.71" y1="205.07" x2="391.59" y2="205.07" xlink:href="#New_Gradient_Swatch"/><linearGradient id="New_Gradient_Swatch-27" x1="386.44" y1="198.2" x2="337.87" y2="198.2" xlink:href="#New_Gradient_Swatch"/><linearGradient id="linear-gradient-43" x1="-1060.92" y1="-526.24" x2="-1056.01" y2="-546.07" xlink:href="#linear-gradient-3"/><linearGradient id="linear-gradient-44" x1="-1052.85" y1="-539.07" x2="-1051.78" y2="-543.37" xlink:href="#linear-gradient-3"/><linearGradient id="linear-gradient-45" x1="-1066.41" y1="-531.24" x2="-1065.35" y2="-535.54" xlink:href="#linear-gradient-3"/><linearGradient id="linear-gradient-46" x1="-1051.85" y1="-536.85" x2="-1050.79" y2="-541.15" xlink:href="#linear-gradient-3"/><linearGradient id="linear-gradient-47" x1="-1065.42" y1="-529.02" x2="-1064.35" y2="-533.32" xlink:href="#linear-gradient-3"/><linearGradient id="New_Gradient_Swatch-28" x1="332.71" y1="211.23" x2="391.6" y2="211.23" xlink:href="#New_Gradient_Swatch"/><linearGradient id="New_Gradient_Swatch-29" x1="332.71" y1="200.39" x2="391.59" y2="200.39" xlink:href="#New_Gradient_Swatch"/><linearGradient id="New_Gradient_Swatch-30" x1="386.44" y1="193.52" x2="337.87" y2="193.52" xlink:href="#New_Gradient_Swatch"/><linearGradient id="linear-gradient-48" x1="-1069.11" y1="-525.56" x2="-1064.21" y2="-545.4" xlink:href="#linear-gradient-3"/><linearGradient id="linear-gradient-49" x1="-1061.05" y1="-538.39" x2="-1059.98" y2="-542.7" xlink:href="#linear-gradient-3"/><linearGradient id="linear-gradient-50" x1="-1074.61" y1="-530.56" x2="-1073.54" y2="-534.87" xlink:href="#linear-gradient-3"/><linearGradient id="linear-gradient-51" x1="-1060.05" y1="-536.17" x2="-1058.99" y2="-540.47" xlink:href="#linear-gradient-3"/><linearGradient id="linear-gradient-52" x1="-1073.61" y1="-528.34" x2="-1072.55" y2="-532.64" xlink:href="#linear-gradient-3"/><linearGradient id="New_Gradient_Swatch-31" x1="332.71" y1="206.55" x2="391.6" y2="206.55" xlink:href="#New_Gradient_Swatch"/><linearGradient id="New_Gradient_Swatch-32" x1="332.71" y1="195.71" x2="391.59" y2="195.71" xlink:href="#New_Gradient_Swatch"/><linearGradient id="New_Gradient_Swatch-33" x1="386.44" y1="188.84" x2="337.87" y2="188.84" xlink:href="#New_Gradient_Swatch"/><linearGradient id="linear-gradient-53" x1="-1077.31" y1="-524.89" x2="-1072.4" y2="-544.72" xlink:href="#linear-gradient-3"/><linearGradient id="linear-gradient-54" x1="-1069.24" y1="-537.71" x2="-1068.18" y2="-542.02" xlink:href="#linear-gradient-3"/><linearGradient id="linear-gradient-55" x1="-1082.8" y1="-529.88" x2="-1081.74" y2="-534.19" xlink:href="#linear-gradient-3"/><linearGradient id="linear-gradient-56" x1="-1068.25" y1="-535.49" x2="-1067.18" y2="-539.8" xlink:href="#linear-gradient-3"/><linearGradient id="linear-gradient-57" x1="-1081.81" y1="-527.67" x2="-1080.74" y2="-531.97" xlink:href="#linear-gradient-3"/><linearGradient id="New_Gradient_Swatch-34" x1="332.71" y1="201.89" x2="391.6" y2="201.89" xlink:href="#New_Gradient_Swatch"/><linearGradient id="New_Gradient_Swatch-35" x1="332.71" y1="191.05" x2="391.59" y2="191.05" xlink:href="#New_Gradient_Swatch"/><linearGradient id="New_Gradient_Swatch-36" x1="386.44" y1="184.18" x2="337.87" y2="184.18" xlink:href="#New_Gradient_Swatch"/><linearGradient id="linear-gradient-58" x1="-1085.46" y1="-524.22" x2="-1080.56" y2="-544.05" xlink:href="#linear-gradient-3"/><linearGradient id="linear-gradient-59" x1="-1077.4" y1="-537.04" x2="-1076.33" y2="-541.35" xlink:href="#linear-gradient-3"/><linearGradient id="linear-gradient-60" x1="-1090.96" y1="-529.21" x2="-1089.89" y2="-533.52" xlink:href="#linear-gradient-3"/><linearGradient id="linear-gradient-61" x1="-1076.4" y1="-534.82" x2="-1075.34" y2="-539.13" xlink:href="#linear-gradient-3"/><linearGradient id="linear-gradient-62" x1="-1089.96" y1="-526.99" x2="-1088.9" y2="-531.3" xlink:href="#linear-gradient-3"/><linearGradient id="New_Gradient_Swatch-37" x1="332.71" y1="197.21" x2="391.6" y2="197.21" xlink:href="#New_Gradient_Swatch"/><linearGradient id="New_Gradient_Swatch-38" x1="332.71" y1="186.36" x2="391.59" y2="186.36" xlink:href="#New_Gradient_Swatch"/><linearGradient id="New_Gradient_Swatch-39" x1="386.44" y1="179.49" x2="337.87" y2="179.49" xlink:href="#New_Gradient_Swatch"/><linearGradient id="linear-gradient-63" x1="-1093.66" y1="-523.54" x2="-1088.75" y2="-543.37" xlink:href="#linear-gradient-3"/><linearGradient id="linear-gradient-64" x1="-1085.59" y1="-536.36" x2="-1084.53" y2="-540.67" xlink:href="#linear-gradient-3"/><linearGradient id="linear-gradient-65" x1="-1099.15" y1="-528.54" x2="-1098.09" y2="-532.84" xlink:href="#linear-gradient-3"/><linearGradient id="linear-gradient-66" x1="-1084.6" y1="-534.15" x2="-1083.53" y2="-538.45" xlink:href="#linear-gradient-3"/><linearGradient id="linear-gradient-67" x1="-1098.16" y1="-526.32" x2="-1097.09" y2="-530.62" xlink:href="#linear-gradient-3"/><linearGradient id="New_Gradient_Swatch-40" x1="332.71" y1="192.52" x2="391.6" y2="192.52" xlink:href="#New_Gradient_Swatch"/><linearGradient id="New_Gradient_Swatch-41" x1="332.71" y1="181.68" x2="391.59" y2="181.68" xlink:href="#New_Gradient_Swatch"/><linearGradient id="New_Gradient_Swatch-42" x1="386.44" y1="174.81" x2="337.87" y2="174.81" xlink:href="#New_Gradient_Swatch"/><linearGradient id="linear-gradient-68" x1="-1101.86" y1="-522.86" x2="-1096.95" y2="-542.7" xlink:href="#linear-gradient-3"/><linearGradient id="linear-gradient-69" x1="-1093.79" y1="-535.69" x2="-1092.72" y2="-540" xlink:href="#linear-gradient-3"/><linearGradient id="linear-gradient-70" x1="-1107.35" y1="-527.86" x2="-1106.29" y2="-532.17" xlink:href="#linear-gradient-3"/><linearGradient id="linear-gradient-71" x1="-1092.79" y1="-533.47" x2="-1091.73" y2="-537.77" xlink:href="#linear-gradient-3"/><linearGradient id="linear-gradient-72" x1="-1106.36" y1="-525.64" x2="-1105.29" y2="-529.94" xlink:href="#linear-gradient-3"/></defs><title>Asset 31</title><g id="Layer_2" data-name="Layer 2"><g id="ilus"><polygon class="cls-1" points="311.1 90.3 155.21 0.3 0.3 89.74 0.3 137.74 156.19 227.74 311.1 138.3 311.1 90.3"/><line class="cls-2" x1="156.2" y1="179.52" x2="156.2" y2="227.52"/><polygon class="cls-3" points="156.19 179.74 0.3 89.74 155.21 0.3 311.1 90.3 156.19 179.74"/><polygon class="cls-4" points="120.76 76.25 134.72 84.32 136.86 83.08 122.9 75.02 120.76 76.25"/><path class="cls-4" d="M169.36,84.31q.6-3.12-3.4-5.42a16.27,16.27,0,0,0-9.41-2A21.65,21.65,0,0,0,147,79.67q-4.16,2.4-4.78,5.51t3.42,5.43a16.3,16.3,0,0,0,9.39,2,21.59,21.59,0,0,0,9.56-2.75Q168.77,87.43,169.36,84.31Zm-14.48,6.34a11.58,11.58,0,0,1-7.13-1.25q-2.92-1.69-2.17-4.12a7.73,7.73,0,0,1,3.84-4.22,18.18,18.18,0,0,1,7.3-2.22,11.58,11.58,0,0,1,7.13,1.25q2.92,1.68,2.17,4.12a7.73,7.73,0,0,1-3.84,4.22A18.17,18.17,0,0,1,154.89,90.65Z"/><path class="cls-4" d="M190.5,94.48q-.64-1.8-3.68-3.55a16,16,0,0,0-6.17-2,9.53,9.53,0,0,0-6,1.12q-2,1.15-1.92,2.53A4,4,0,0,0,174,95.23q1.29,1.27,2.67,2.51a5.68,5.68,0,0,1,1.76,2.45q.37,1.21-1.12,2.06a6.9,6.9,0,0,1-4.17.9,10.05,10.05,0,0,1-4.18-1.31q-2.77-1.6-3.4-3t1.84-2.88l-2.3-1.33q-3.28,1.9-2.7,4t4,4.07a17.55,17.55,0,0,0,6.88,2.32,10.88,10.88,0,0,0,6.79-1.48q1.95-1.12,1.94-2.54a4,4,0,0,0-1.26-2.73q-1.25-1.32-2.6-2.56a7.26,7.26,0,0,1-1.83-2.38q-.49-1.14.81-1.89a5.69,5.69,0,0,1,3.79-.66,11,11,0,0,1,3.91,1.36q4.26,2.46,1.71,4.6L188.85,98Q191.14,96.28,190.5,94.48Z"/><polygon class="cls-4" points="18.26 128.03 15.99 116.56 13.53 115.14 17.22 131.47 19.29 132.66 22.95 120.58 20.5 119.16 18.26 128.03"/><polygon class="cls-4" points="26.85 120.6 26.85 123.28 30.34 123.7 30.34 139.05 32.71 140.41 32.71 121.24 32.41 121.07 26.85 120.6"/><path class="cls-4" d="M41.29,142q-.65-.38-1-.08a1.31,1.31,0,0,0-.36,1.06,3.07,3.07,0,0,0,.37,1.46,2.61,2.61,0,0,0,1,1.07c.44.26.79.29,1,.1a1.25,1.25,0,0,0,.36-1,3.22,3.22,0,0,0-.36-1.47A2.59,2.59,0,0,0,41.29,142Z"/><path class="cls-4" d="M55.78,145.62A8.48,8.48,0,0,0,54,142.9a2,2,0,0,0,1.58-.8,3.26,3.26,0,0,0,.61-2.07,9.35,9.35,0,0,0-1.22-4.7A8.9,8.9,0,0,0,51.62,132a4.14,4.14,0,0,0-2.33-.67,2,2,0,0,0-1.62.95,4.15,4.15,0,0,0-.58,2.34L49.47,136a1.74,1.74,0,0,1,.61-1.58,1.49,1.49,0,0,1,1.58.17,4,4,0,0,1,1.63,1.69,5.35,5.35,0,0,1,.53,2.43c0,.94-.22,1.54-.64,1.8a1.73,1.73,0,0,1-1.74-.24L50,139.38v2.52l1.4.81a5.12,5.12,0,0,1,2,2,5.49,5.49,0,0,1,.66,2.7c0,1-.21,1.64-.63,1.92s-1,.21-1.74-.21A4.46,4.46,0,0,1,50,147.3a5,5,0,0,1-.63-2.41L47,143.52a9.06,9.06,0,0,0,1.31,4.67,9.25,9.25,0,0,0,3.36,3.41q2.14,1.24,3.46.47t1.31-3.34A8.21,8.21,0,0,0,55.78,145.62Z"/><path class="cls-5" d="M194.44,67.65c21.25,12.27,21.12,32.22-.27,44.58s-56,12.42-77.21.16-21.12-32.22.27-44.58S173.19,55.39,194.44,67.65Z"/><path class="cls-6" d="M489.9,77.62c-.34-10,6-20,19.16-27.57,25.72-14.85,67.57-14.77,93.47.19,13.11,7.57,19.61,17.5,19.51,27.38,0,0-.16,14.88,0,23,.2,9.87-6.19,19.75-19.18,27.25-25.72,14.85-67.57,14.77-93.47-.19-13-7.49-19.48-17.28-19.52-27.06C489.83,92.5,489.9,77.62,489.9,77.62Z"/><path class="cls-7" d="M489.9,77.62c-.34-10,6-20,19.16-27.57,25.72-14.85,67.57-14.77,93.47.19,13.11,7.57,19.61,17.5,19.51,27.38,0,0-.16,14.88,0,23,.2,9.87-6.19,19.75-19.18,27.25-25.72,14.85-67.57,14.77-93.47-.19-13-7.49-19.48-17.28-19.52-27.06C489.83,92.5,489.9,77.62,489.9,77.62Z"/><polygon class="cls-6" points="420.46 180.12 510.46 128.12 510.46 104.12 420.46 156.12 420.46 180.12"/><line class="cls-8" x1="510.46" y1="128.12" x2="421.97" y2="179.31"/><path class="cls-9" d="M420.74,180.32l6-9,.69.32a7.18,7.18,0,0,1,4.16,7.2l-.07.76Z"/><polygon class="cls-7" points="420.46 180.12 510.46 128.12 510.46 104.12 420.46 156.12 420.46 180.12"/><path class="cls-6" d="M509.06,50.05c-25.72,14.85-25.57,39,.33,54s67.75,15,93.47.19,25.57-39-.33-54S534.78,35.2,509.06,50.05Z"/><line class="cls-10" x1="510.46" y1="104.12" x2="421.97" y2="155.31"/><path class="cls-9" d="M420.74,156.32l6-9,.69.32a7.18,7.18,0,0,1,4.16,7.2l-.07.76Z"/><path class="cls-6" d="M543.5,46.38a19.54,19.54,0,0,0,24.92,0c0-.2,10.88,29,10.91,29.13h0c0,3.46-2.22,6.93-6.79,9.56-9.09,5.25-23.87,5.22-33-.06-4.55-2.63-6.85-6.07-6.89-9.5h0C532.62,75.35,543.45,46.18,543.5,46.38Z"/><circle class="cls-6" cx="555.96" cy="27.63" r="15"/><g class="cls-11"><path class="cls-12" d="M543.5,46.38a19.54,19.54,0,0,0,24.92,0c0-.2,10.88,29,10.91,29.13h0c0,3.46-2.22,6.93-6.79,9.56-9.09,5.25-23.87,5.22-33-.06-4.55-2.63-6.85-6.07-6.89-9.5h0C532.62,75.35,543.45,46.18,543.5,46.38Z"/><circle class="cls-13" cx="555.96" cy="27.63" r="15"/></g><polygon class="cls-14" points="495.6 198.51 339.72 108.51 184.81 197.95 184.81 245.95 340.69 335.95 495.6 246.51 495.6 198.51"/><line class="cls-15" x1="340.71" y1="287.73" x2="340.71" y2="335.73"/><polygon class="cls-16" points="340.69 287.95 184.81 197.95 339.72 108.51 495.6 198.51 340.69 287.95"/><polygon class="cls-9" points="305.27 184.46 319.23 192.53 321.37 191.29 307.41 183.23 305.27 184.46"/><path class="cls-9" d="M353.87,192.52q.6-3.12-3.4-5.42a16.27,16.27,0,0,0-9.41-2,21.65,21.65,0,0,0-9.54,2.76q-4.16,2.4-4.78,5.51t3.42,5.43a16.3,16.3,0,0,0,9.39,2,21.59,21.59,0,0,0,9.56-2.75Q353.28,195.64,353.87,192.52Zm-14.48,6.34a11.58,11.58,0,0,1-7.13-1.25q-2.92-1.69-2.17-4.12a7.73,7.73,0,0,1,3.84-4.22,18.17,18.17,0,0,1,7.3-2.22,11.58,11.58,0,0,1,7.13,1.25q2.92,1.68,2.17,4.12a7.73,7.73,0,0,1-3.84,4.22A18.17,18.17,0,0,1,339.4,198.86Z"/><path class="cls-9" d="M375,202.69q-.64-1.8-3.68-3.55a16,16,0,0,0-6.17-2,9.53,9.53,0,0,0-6,1.12q-2,1.15-1.92,2.53a4,4,0,0,0,1.35,2.66q1.29,1.27,2.67,2.51A5.68,5.68,0,0,1,363,208.4q.37,1.21-1.12,2.06a6.9,6.9,0,0,1-4.17.9,10.06,10.06,0,0,1-4.18-1.31q-2.77-1.6-3.4-3t1.84-2.88l-2.3-1.33q-3.28,1.9-2.7,4t4,4.07a17.55,17.55,0,0,0,6.88,2.32,10.88,10.88,0,0,0,6.79-1.48q1.95-1.12,1.94-2.54a4,4,0,0,0-1.26-2.73q-1.25-1.32-2.6-2.56a7.25,7.25,0,0,1-1.83-2.38q-.49-1.14.81-1.89a5.69,5.69,0,0,1,3.79-.66,11,11,0,0,1,3.91,1.36q4.26,2.46,1.71,4.6l2.23,1.29Q375.64,204.49,375,202.69Z"/><polygon class="cls-9" points="202.88 235.35 200.68 224.18 198.28 222.8 201.87 238.7 203.88 239.86 207.45 228.09 205.06 226.71 202.88 235.35"/><polygon class="cls-9" points="211.25 228.12 211.25 230.72 214.65 231.13 214.65 246.08 216.96 247.41 216.96 228.74 216.66 228.57 211.25 228.12"/><path class="cls-9" d="M225.31,249c-.42-.25-.75-.27-1-.08a1.27,1.27,0,0,0-.35,1,3,3,0,0,0,.36,1.42,2.54,2.54,0,0,0,1,1c.43.25.76.28,1,.1a1.22,1.22,0,0,0,.35-1,3.14,3.14,0,0,0-.35-1.44A2.52,2.52,0,0,0,225.31,249Z"/><path class="cls-9" d="M238.94,253.46v-12l-2.39-1.38-6,9.12.07,1.93,6,3.46v4.14l2.31,1.33V256l1.72,1v-2.49Zm-2.31-1.33L233,250l3.45-5.37.17-.31Z"/><path class="cls-17" d="M378.94,175.86c21.25,12.27,21.12,32.22-.27,44.58s-56,12.42-77.21.16-21.12-32.22.27-44.58S357.7,163.6,378.94,175.86Z"/><path class="cls-18" d="M104.41,78.46s0,3.63,0,4.56c-.11,4.41,2.74,8.83,8.55,12.19,11.46,6.61,30.1,6.58,41.63-.08,5.77-3.33,8.67-7.69,8.7-12,0-1.46,0-4.62,0-4.62Z"/><path class="cls-19" d="M154.74,66.4c-11.46-6.61-30.1-6.58-41.63.08s-11.6,17.42-.15,24,30.1,6.58,41.63-.08S166.2,73,154.74,66.4Z"/><path class="cls-20" d="M151.09,68.51c-9.45-5.46-24.84-5.43-34.36.07s-9.57,14.38-.12,19.84,24.84,5.43,34.36-.07S160.54,74,151.09,68.51Z"/><path class="cls-21" d="M116.73,68.58c-4.86,2.81-7.25,6.5-7.17,10.17.12-3.51,2.51-7,7.16-9.7,9.52-5.5,24.9-5.53,34.36-.07,4.62,2.67,7,6.16,7,9.67.13-3.67-2.22-7.35-7-10.14C141.63,63.05,126.25,63.08,116.73,68.58Z"/><polygon class="cls-22" points="146.24 77.43 153.17 75.89 138.4 67.36 133.6 70.14 141.43 74.66 114.77 80.61 119.59 83.4 129.83 89.31 134.66 86.52 126.55 81.84 146.24 77.43"/><polygon class="cls-23" points="142.24 82.47 144.92 81.88 141.5 79.9 138.82 80.5 142.24 82.47"/><polygon class="cls-24" points="133.17 75.09 129.75 73.12 127.07 73.72 130.49 75.69 133.17 75.09"/><polygon class="cls-25" points="140.88 82.78 137.46 80.8 134.79 81.4 138.21 83.38 140.88 82.78"/><polygon class="cls-26" points="125.72 74.02 123.05 74.62 126.47 76.59 129.14 76 125.72 74.02"/><path class="cls-27" d="M104.41,73.78s0,3.63,0,4.56c-.11,4.41,2.74,8.83,8.55,12.19,11.46,6.61,30.1,6.58,41.63-.08,5.77-3.33,8.67-7.69,8.7-12,0-1.46,0-4.62,0-4.62Z"/><path class="cls-28" d="M154.74,61.72c-11.46-6.61-30.1-6.58-41.63.08s-11.6,17.42-.15,24,30.1,6.58,41.63-.08S166.2,68.33,154.74,61.72Z"/><path class="cls-20" d="M151.09,63.83c-9.45-5.46-24.84-5.43-34.36.07s-9.57,14.38-.12,19.84,24.84,5.43,34.36-.07S160.54,69.29,151.09,63.83Z"/><path class="cls-29" d="M116.73,63.9c-4.86,2.81-7.25,6.5-7.17,10.17.12-3.51,2.51-7,7.16-9.7,9.52-5.5,24.9-5.53,34.36-.07,4.62,2.67,7,6.16,7,9.67.13-3.67-2.22-7.35-7-10.14C141.63,58.37,126.25,58.4,116.73,63.9Z"/><polygon class="cls-30" points="146.24 72.75 153.17 71.21 138.4 62.68 133.6 65.45 141.43 69.97 114.77 75.93 119.59 78.71 129.83 84.62 134.66 81.83 126.55 77.16 146.24 72.75"/><polygon class="cls-31" points="142.24 77.79 144.92 77.19 141.5 75.22 138.82 75.82 142.24 77.79"/><polygon class="cls-32" points="133.17 70.41 129.75 68.44 127.07 69.04 130.49 71.01 133.17 70.41"/><polygon class="cls-33" points="140.88 78.09 137.46 76.12 134.79 76.72 138.21 78.69 140.88 78.09"/><polygon class="cls-34" points="125.72 69.34 123.05 69.94 126.47 71.91 129.14 71.31 125.72 69.34"/><path class="cls-35" d="M289,186.67s0,3.63,0,4.56c-.11,4.41,2.74,8.83,8.55,12.19,11.46,6.61,30.1,6.58,41.63-.08,5.77-3.33,8.67-7.69,8.7-12,0-1.46,0-4.62,0-4.62Z"/><path class="cls-36" d="M339.35,174.61c-11.46-6.61-30.1-6.58-41.63.08s-11.6,17.42-.15,24,30.1,6.58,41.63-.08S350.81,181.23,339.35,174.61Z"/><path class="cls-20" d="M335.7,176.72c-9.45-5.46-24.84-5.43-34.36.07s-9.57,14.38-.12,19.84,24.84,5.43,34.36-.07S345.15,182.18,335.7,176.72Z"/><path class="cls-37" d="M301.34,176.79c-4.86,2.81-7.25,6.5-7.17,10.17.12-3.51,2.51-7,7.16-9.7,9.52-5.5,24.9-5.53,34.36-.07,4.62,2.67,7,6.16,7,9.67.13-3.67-2.22-7.35-7-10.14C326.25,171.26,310.86,171.29,301.34,176.79Z"/><polygon class="cls-38" points="330.85 185.64 337.78 184.1 323.01 175.57 318.21 178.34 326.04 182.87 299.38 188.82 304.21 191.61 314.44 197.51 319.27 194.73 311.17 190.05 330.85 185.64"/><polygon class="cls-39" points="326.85 190.69 329.53 190.09 326.11 188.11 323.43 188.71 326.85 190.69"/><polygon class="cls-40" points="317.79 183.3 314.37 181.33 311.68 181.93 315.1 183.9 317.79 183.3"/><polygon class="cls-41" points="325.5 190.99 322.07 189.01 319.4 189.61 322.83 191.59 325.5 190.99"/><polygon class="cls-42" points="310.33 182.23 307.66 182.83 311.08 184.81 313.75 184.21 310.33 182.23"/><path class="cls-43" d="M289,182s0,3.63,0,4.56c-.11,4.41,2.74,8.83,8.55,12.19,11.46,6.61,30.1,6.58,41.63-.08,5.77-3.33,8.67-7.69,8.7-12,0-1.46,0-4.62,0-4.62Z"/><path class="cls-44" d="M339.35,169.93c-11.46-6.61-30.1-6.58-41.63.08s-11.6,17.42-.15,24,30.1,6.58,41.63-.08S350.81,176.54,339.35,169.93Z"/><path class="cls-20" d="M335.7,172c-9.45-5.46-24.84-5.43-34.36.07s-9.57,14.38-.12,19.84,24.84,5.43,34.36-.07S345.15,177.49,335.7,172Z"/><path class="cls-45" d="M301.34,172.11c-4.86,2.81-7.25,6.5-7.17,10.17.12-3.51,2.51-7,7.16-9.7,9.52-5.5,24.9-5.53,34.36-.07,4.62,2.67,7,6.16,7,9.67.13-3.67-2.22-7.35-7-10.14C326.25,166.58,310.86,166.61,301.34,172.11Z"/><polygon class="cls-46" points="330.85 180.96 337.78 179.42 323.01 170.89 318.21 173.66 326.04 178.18 299.38 184.14 304.21 186.92 314.44 192.83 319.27 190.04 311.17 185.37 330.85 180.96"/><polygon class="cls-47" points="326.85 186 329.53 185.4 326.11 183.43 323.43 184.03 326.85 186"/><polygon class="cls-48" points="317.79 178.62 314.37 176.65 311.68 177.25 315.1 179.22 317.79 178.62"/><polygon class="cls-49" points="325.5 186.3 322.07 184.33 319.4 184.93 322.83 186.9 325.5 186.3"/><polygon class="cls-50" points="310.33 177.55 307.66 178.14 311.08 180.12 313.75 179.52 310.33 177.55"/><path class="cls-51" d="M289,177.31s0,3.63,0,4.56c-.11,4.41,2.74,8.83,8.55,12.19,11.46,6.61,30.1,6.58,41.63-.08,5.77-3.33,8.67-7.69,8.7-12,0-1.46,0-4.62,0-4.62Z"/><path class="cls-52" d="M339.35,165.24c-11.46-6.61-30.1-6.58-41.63.08s-11.6,17.42-.15,24,30.1,6.58,41.63-.08S350.81,171.86,339.35,165.24Z"/><path class="cls-20" d="M335.7,167.35c-9.45-5.46-24.84-5.43-34.36.07s-9.57,14.38-.12,19.84,24.84,5.43,34.36-.07S345.15,172.81,335.7,167.35Z"/><path class="cls-53" d="M301.34,167.42c-4.86,2.81-7.25,6.5-7.17,10.17.12-3.51,2.51-7,7.16-9.7,9.52-5.5,24.9-5.53,34.36-.07,4.62,2.67,7,6.16,7,9.67.13-3.67-2.22-7.35-7-10.14C326.25,161.89,310.86,161.92,301.34,167.42Z"/><polygon class="cls-54" points="330.85 176.28 337.78 174.73 323.01 166.21 318.21 168.98 326.04 173.5 299.38 179.45 304.21 182.24 314.44 188.15 319.27 185.36 311.17 180.68 330.85 176.28"/><polygon class="cls-55" points="326.85 181.32 329.53 180.72 326.11 178.74 323.43 179.34 326.85 181.32"/><polygon class="cls-56" points="317.79 173.94 314.37 171.96 311.68 172.56 315.1 174.54 317.79 173.94"/><polygon class="cls-57" points="325.5 181.62 322.07 179.65 319.4 180.24 322.83 182.22 325.5 181.62"/><polygon class="cls-58" points="310.33 172.86 307.66 173.46 311.08 175.44 313.75 174.84 310.33 172.86"/><path class="cls-59" d="M289,172.62s0,3.63,0,4.56c-.11,4.41,2.74,8.83,8.55,12.19,11.46,6.61,30.1,6.58,41.63-.08,5.77-3.33,8.67-7.69,8.7-12,0-1.46,0-4.62,0-4.62Z"/><path class="cls-60" d="M339.35,160.56c-11.46-6.61-30.1-6.58-41.63.08s-11.6,17.42-.15,24,30.1,6.58,41.63-.08S350.81,167.18,339.35,160.56Z"/><path class="cls-20" d="M335.7,162.67c-9.45-5.46-24.84-5.43-34.36.07s-9.57,14.38-.12,19.84,24.84,5.43,34.36-.07S345.15,168.13,335.7,162.67Z"/><path class="cls-61" d="M301.34,162.74c-4.86,2.81-7.25,6.5-7.17,10.17.12-3.51,2.51-7,7.16-9.7,9.52-5.5,24.9-5.53,34.36-.07,4.62,2.67,7,6.16,7,9.67.13-3.67-2.22-7.35-7-10.14C326.25,157.21,310.86,157.24,301.34,162.74Z"/><polygon class="cls-62" points="330.85 171.59 337.78 170.05 323.01 161.52 318.21 164.29 326.04 168.81 299.38 174.77 304.21 177.56 314.44 183.46 319.27 180.68 311.17 176 330.85 171.59"/><polygon class="cls-63" points="326.85 176.63 329.53 176.03 326.11 174.06 323.43 174.66 326.85 176.63"/><polygon class="cls-64" points="317.79 169.25 314.37 167.28 311.68 167.88 315.1 169.85 317.79 169.25"/><polygon class="cls-65" points="325.5 176.94 322.07 174.96 319.4 175.56 322.83 177.53 325.5 176.94"/><polygon class="cls-66" points="310.33 168.18 307.66 168.78 311.08 170.75 313.75 170.16 310.33 168.18"/><path class="cls-67" d="M289,168s0,3.63,0,4.56c-.11,4.41,2.74,8.83,8.55,12.19,11.46,6.61,30.1,6.58,41.63-.08,5.77-3.33,8.67-7.69,8.7-12,0-1.46,0-4.62,0-4.62Z"/><path class="cls-68" d="M339.35,155.9c-11.46-6.61-30.1-6.58-41.63.08s-11.6,17.42-.15,24,30.1,6.58,41.63-.08S350.81,162.52,339.35,155.9Z"/><path class="cls-20" d="M335.7,158c-9.45-5.46-24.84-5.43-34.36.07s-9.57,14.38-.12,19.84,24.84,5.43,34.36-.07S345.15,163.47,335.7,158Z"/><path class="cls-69" d="M301.34,158.08c-4.86,2.81-7.25,6.5-7.17,10.17.12-3.51,2.51-7,7.16-9.7,9.52-5.5,24.9-5.53,34.36-.07,4.62,2.67,7,6.16,7,9.67.13-3.67-2.22-7.35-7-10.14C326.25,152.55,310.86,152.58,301.34,158.08Z"/><polygon class="cls-70" points="330.85 166.93 337.78 165.39 323.01 156.86 318.21 159.63 326.04 164.16 299.38 170.11 304.21 172.9 314.44 178.8 319.27 176.02 311.17 171.34 330.85 166.93"/><polygon class="cls-71" points="326.85 171.97 329.53 171.37 326.11 169.4 323.43 170 326.85 171.97"/><polygon class="cls-72" points="317.79 164.59 314.37 162.62 311.68 163.22 315.1 165.19 317.79 164.59"/><polygon class="cls-73" points="325.5 172.28 322.07 170.3 319.4 170.9 322.83 172.88 325.5 172.28"/><polygon class="cls-74" points="310.33 163.52 307.66 164.12 311.08 166.09 313.75 165.5 310.33 163.52"/><path class="cls-75" d="M332.72,209.76s0,3.63,0,4.56c-.11,4.41,2.74,8.83,8.55,12.19,11.46,6.61,30.1,6.58,41.63-.08,5.77-3.33,8.67-7.69,8.7-12,0-1.46,0-4.62,0-4.62Z"/><path class="cls-76" d="M383,197.7c-11.46-6.61-30.1-6.58-41.63.08s-11.6,17.42-.15,24,30.1,6.58,41.63-.08S394.5,204.31,383,197.7Z"/><path class="cls-20" d="M379.39,199.81c-9.45-5.46-24.84-5.43-34.36.07s-9.57,14.38-.12,19.84,24.84,5.43,34.36-.07S388.85,205.26,379.39,199.81Z"/><path class="cls-77" d="M345,199.87c-4.86,2.81-7.25,6.5-7.17,10.17.12-3.51,2.51-7,7.16-9.7,9.52-5.5,24.9-5.53,34.36-.07,4.62,2.67,7,6.16,7,9.67.13-3.67-2.22-7.35-7-10.14C369.94,194.35,354.56,194.38,345,199.87Z"/><polygon class="cls-78" points="374.54 208.73 381.48 207.19 366.71 198.66 361.9 201.43 369.74 205.95 343.08 211.91 347.9 214.69 358.13 220.6 362.96 217.81 354.86 213.13 374.54 208.73"/><polygon class="cls-79" points="370.54 213.77 373.22 213.17 369.8 211.2 367.12 211.79 370.54 213.77"/><polygon class="cls-80" points="361.48 206.39 358.06 204.42 355.38 205.01 358.8 206.99 361.48 206.39"/><polygon class="cls-81" points="369.19 214.07 365.77 212.1 363.1 212.69 366.52 214.67 369.19 214.07"/><polygon class="cls-82" points="354.02 205.32 351.35 205.91 354.78 207.89 357.44 207.29 354.02 205.32"/><path class="cls-83" d="M332.72,205.08s0,3.63,0,4.56c-.11,4.41,2.74,8.83,8.55,12.19,11.46,6.61,30.1,6.58,41.63-.08,5.77-3.33,8.67-7.69,8.7-12,0-1.46,0-4.62,0-4.62Z"/><path class="cls-84" d="M383,193c-11.46-6.61-30.1-6.58-41.63.08s-11.6,17.42-.15,24,30.1,6.58,41.63-.08S394.5,199.63,383,193Z"/><path class="cls-20" d="M379.39,195.12c-9.45-5.46-24.84-5.43-34.36.07s-9.57,14.38-.12,19.84,24.84,5.43,34.36-.07S388.85,200.58,379.39,195.12Z"/><path class="cls-85" d="M345,195.19c-4.86,2.81-7.25,6.5-7.17,10.17.12-3.51,2.51-7,7.16-9.7,9.52-5.5,24.9-5.53,34.36-.07,4.62,2.67,7,6.16,7,9.67.13-3.67-2.22-7.35-7-10.14C369.94,189.66,354.56,189.69,345,195.19Z"/><polygon class="cls-86" points="374.54 204.04 381.48 202.5 366.71 193.97 361.9 196.75 369.74 201.27 343.08 207.22 347.9 210.01 358.13 215.92 362.96 213.13 354.86 208.45 374.54 204.04"/><polygon class="cls-87" points="370.54 209.09 373.22 208.49 369.8 206.51 367.12 207.11 370.54 209.09"/><polygon class="cls-88" points="361.48 201.71 358.06 199.73 355.38 200.33 358.8 202.31 361.48 201.71"/><polygon class="cls-89" points="369.19 209.39 365.77 207.41 363.1 208.01 366.52 209.99 369.19 209.39"/><polygon class="cls-90" points="354.02 200.63 351.35 201.23 354.78 203.21 357.44 202.61 354.02 200.63"/><path class="cls-91" d="M332.72,200.39s0,3.63,0,4.56c-.11,4.41,2.74,8.83,8.55,12.19,11.46,6.61,30.1,6.58,41.63-.08,5.77-3.33,8.67-7.69,8.7-12,0-1.46,0-4.62,0-4.62Z"/><path class="cls-92" d="M383,188.33c-11.46-6.61-30.1-6.58-41.63.08s-11.6,17.42-.15,24,30.1,6.58,41.63-.08S394.5,194.94,383,188.33Z"/><path class="cls-20" d="M379.39,190.44c-9.45-5.46-24.84-5.43-34.36.07s-9.57,14.38-.12,19.84,24.84,5.43,34.36-.07S388.85,195.9,379.39,190.44Z"/><path class="cls-93" d="M345,190.51c-4.86,2.81-7.25,6.5-7.17,10.17.12-3.51,2.51-7,7.16-9.7,9.52-5.5,24.9-5.53,34.36-.07,4.62,2.67,7,6.16,7,9.67.13-3.67-2.22-7.35-7-10.14C369.94,185,354.56,185,345,190.51Z"/><polygon class="cls-94" points="374.54 199.36 381.48 197.82 366.71 189.29 361.9 192.06 369.74 196.58 343.08 202.54 347.9 205.32 358.13 211.23 362.96 208.44 354.86 203.77 374.54 199.36"/><polygon class="cls-95" points="370.54 204.4 373.22 203.8 369.8 201.83 367.12 202.43 370.54 204.4"/><polygon class="cls-96" points="361.48 197.02 358.06 195.05 355.38 195.65 358.8 197.62 361.48 197.02"/><polygon class="cls-97" points="369.19 204.71 365.77 202.73 363.1 203.33 366.52 205.3 369.19 204.71"/><polygon class="cls-98" points="354.02 195.95 351.35 196.55 354.78 198.52 357.44 197.93 354.02 195.95"/><path class="cls-99" d="M332.72,195.71s0,3.63,0,4.56c-.11,4.41,2.74,8.83,8.55,12.19,11.46,6.61,30.1,6.58,41.63-.08,5.77-3.33,8.67-7.69,8.7-12,0-1.46,0-4.62,0-4.62Z"/><path class="cls-100" d="M383,183.65c-11.46-6.61-30.1-6.58-41.63.08s-11.6,17.42-.15,24,30.1,6.58,41.63-.08S394.5,190.26,383,183.65Z"/><path class="cls-20" d="M379.39,185.75c-9.45-5.46-24.84-5.43-34.36.07s-9.57,14.38-.12,19.84,24.84,5.43,34.36-.07S388.85,191.21,379.39,185.75Z"/><path class="cls-101" d="M345,185.82c-4.86,2.81-7.25,6.5-7.17,10.17.12-3.51,2.51-7,7.16-9.7,9.52-5.5,24.9-5.53,34.36-.07,4.62,2.67,7,6.16,7,9.67.13-3.67-2.22-7.35-7-10.14C369.94,180.3,354.56,180.33,345,185.82Z"/><polygon class="cls-102" points="374.54 194.68 381.48 193.13 366.71 184.61 361.9 187.38 369.74 191.9 343.08 197.85 347.9 200.64 358.13 206.55 362.96 203.76 354.86 199.08 374.54 194.68"/><polygon class="cls-103" points="370.54 199.72 373.22 199.12 369.8 197.15 367.12 197.74 370.54 199.72"/><polygon class="cls-104" points="361.48 192.34 358.06 190.36 355.38 190.96 358.8 192.94 361.48 192.34"/><polygon class="cls-105" points="369.19 200.02 365.77 198.05 363.1 198.64 366.52 200.62 369.19 200.02"/><polygon class="cls-106" points="354.02 191.27 351.35 191.86 354.78 193.84 357.44 193.24 354.02 191.27"/><path class="cls-107" d="M332.72,191s0,3.63,0,4.56c-.11,4.41,2.74,8.83,8.55,12.19,11.46,6.61,30.1,6.58,41.63-.08,5.77-3.33,8.67-7.69,8.7-12,0-1.46,0-4.62,0-4.62Z"/><path class="cls-108" d="M383,179c-11.46-6.61-30.1-6.58-41.63.08s-11.6,17.42-.15,24,30.1,6.58,41.63-.08S394.5,185.6,383,179Z"/><path class="cls-20" d="M379.39,181.09c-9.45-5.46-24.84-5.43-34.36.07s-9.57,14.38-.12,19.84,24.84,5.43,34.36-.07S388.85,186.55,379.39,181.09Z"/><path class="cls-109" d="M345,181.16c-4.86,2.81-7.25,6.5-7.17,10.17.12-3.51,2.51-7,7.16-9.7,9.52-5.5,24.9-5.53,34.36-.07,4.62,2.67,7,6.16,7,9.67.13-3.67-2.22-7.35-7-10.14C369.94,175.64,354.56,175.67,345,181.16Z"/><polygon class="cls-110" points="374.54 190.02 381.48 188.47 366.71 179.95 361.9 182.72 369.74 187.24 343.08 193.2 347.9 195.98 358.13 201.89 362.96 199.1 354.86 194.42 374.54 190.02"/><polygon class="cls-111" points="370.54 195.06 373.22 194.46 369.8 192.49 367.12 193.09 370.54 195.06"/><polygon class="cls-112" points="361.48 187.68 358.06 185.71 355.38 186.3 358.8 188.28 361.48 187.68"/><polygon class="cls-113" points="369.19 195.36 365.77 193.39 363.1 193.98 366.52 195.96 369.19 195.36"/><polygon class="cls-114" points="354.02 186.61 351.35 187.2 354.78 189.18 357.44 188.58 354.02 186.61"/><path class="cls-115" d="M332.72,186.37s0,3.63,0,4.56c-.11,4.41,2.74,8.83,8.55,12.19,11.46,6.61,30.1,6.58,41.63-.08,5.77-3.33,8.67-7.69,8.7-12,0-1.46,0-4.62,0-4.62Z"/><path class="cls-116" d="M383,174.3c-11.46-6.61-30.1-6.58-41.63.08s-11.6,17.42-.15,24,30.1,6.58,41.63-.08S394.5,180.92,383,174.3Z"/><path class="cls-20" d="M379.39,176.41c-9.45-5.46-24.84-5.43-34.36.07s-9.57,14.38-.12,19.84,24.84,5.43,34.36-.07S388.85,181.87,379.39,176.41Z"/><path class="cls-117" d="M345,176.48c-4.86,2.81-7.25,6.5-7.17,10.17.12-3.51,2.51-7,7.16-9.7,9.52-5.5,24.9-5.53,34.36-.07,4.62,2.67,7,6.16,7,9.67.13-3.67-2.22-7.35-7-10.14C369.94,171,354.56,171,345,176.48Z"/><polygon class="cls-118" points="374.54 185.33 381.48 183.79 366.71 175.26 361.9 178.04 369.74 182.56 343.08 188.51 347.9 191.3 358.13 197.21 362.96 194.42 354.86 189.74 374.54 185.33"/><polygon class="cls-119" points="370.54 190.38 373.22 189.78 369.8 187.8 367.12 188.4 370.54 190.38"/><polygon class="cls-120" points="361.48 183 358.06 181.02 355.38 181.62 358.8 183.6 361.48 183"/><polygon class="cls-121" points="369.19 190.68 365.77 188.7 363.1 189.3 366.52 191.28 369.19 190.68"/><polygon class="cls-122" points="354.02 181.92 351.35 182.52 354.78 184.5 357.44 183.9 354.02 181.92"/><path class="cls-123" d="M332.72,181.68s0,3.63,0,4.56c-.11,4.41,2.74,8.83,8.55,12.19,11.46,6.61,30.1,6.58,41.63-.08,5.77-3.33,8.67-7.69,8.7-12,0-1.46,0-4.62,0-4.62Z"/><path class="cls-124" d="M383,169.62c-11.46-6.61-30.1-6.58-41.63.08s-11.6,17.42-.15,24,30.1,6.58,41.63-.08S394.5,176.23,383,169.62Z"/><path class="cls-20" d="M379.39,171.73c-9.45-5.46-24.84-5.43-34.36.07s-9.57,14.38-.12,19.84,24.84,5.43,34.36-.07S388.85,177.19,379.39,171.73Z"/><path class="cls-125" d="M345,171.8c-4.86,2.81-7.25,6.5-7.17,10.17.12-3.51,2.51-7,7.16-9.7,9.52-5.5,24.9-5.53,34.36-.07,4.62,2.67,7,6.16,7,9.67.13-3.67-2.22-7.35-7-10.14C369.94,166.27,354.56,166.3,345,171.8Z"/><polygon class="cls-126" points="374.54 180.65 381.48 179.11 366.71 170.58 361.9 173.35 369.74 177.87 343.08 183.83 347.9 186.61 358.13 192.52 362.96 189.74 354.86 185.06 374.54 180.65"/><polygon class="cls-127" points="370.54 185.69 373.22 185.09 369.8 183.12 367.12 183.72 370.54 185.69"/><polygon class="cls-128" points="361.48 178.31 358.06 176.34 355.38 176.94 358.8 178.91 361.48 178.31"/><polygon class="cls-129" points="369.19 186 365.77 184.02 363.1 184.62 366.52 186.59 369.19 186"/><polygon class="cls-130" points="354.02 177.24 351.35 177.84 354.78 179.81 357.44 179.22 354.02 177.24"/><path class="cls-5" d="M377.51,155.38V122.84a34.12,34.12,0,0,0-16.75-29.37L212.26,5.68a12.25,12.25,0,0,0-18.48,10.54V67.75"/><path class="cls-4" d="M377.51,155.31l-4.77-9.73.62-.44a7.18,7.18,0,0,1,8.31,0l.62.44Z"/></g></g></svg>