<svg id="Layer_1" data-name="Layer 1" xmlns="http://www.w3.org/2000/svg" xmlns:xlink="http://www.w3.org/1999/xlink" viewBox="0 0 320 1356"><defs><style>.cls-1,.cls-10,.cls-11,.cls-12,.cls-13,.cls-14,.cls-8{fill:none;}.cls-1{stroke:#1a1a1a;stroke-width:0.62px;}.cls-1,.cls-10,.cls-11,.cls-12,.cls-13,.cls-14,.cls-2,.cls-3,.cls-8{stroke-linecap:round;stroke-linejoin:round;}.cls-10,.cls-11,.cls-12,.cls-13,.cls-14,.cls-2,.cls-3,.cls-8{stroke-width:0.51px;}.cls-2{fill:url(#linear-gradient);stroke:url(#linear-gradient-2);}.cls-3{fill:url(#linear-gradient-3);stroke:url(#linear-gradient-4);}.cls-4{fill:url(#linear-gradient-5);}.cls-5{fill:url(#linear-gradient-6);}.cls-6{fill:url(#linear-gradient-7);}.cls-7{fill:url(#linear-gradient-8);}.cls-8{stroke:url(#linear-gradient-9);}.cls-9{opacity:0.1;fill:url(#linear-gradient-10);}.cls-15,.cls-16,.cls-9{isolation:isolate;}.cls-10,.cls-11,.cls-12,.cls-13,.cls-14{stroke-dasharray:2.06;}.cls-10{stroke:url(#linear-gradient-11);}.cls-11{stroke:url(#linear-gradient-12);}.cls-12{stroke:url(#linear-gradient-13);}.cls-13{stroke:url(#linear-gradient-14);}.cls-14{stroke:url(#linear-gradient-15);}.cls-15,.cls-16{opacity:0;}.cls-15{fill:url(#linear-gradient-16);}.cls-16{fill:#fff;}</style><linearGradient id="linear-gradient" x1="-1251.73" y1="1064.46" x2="-1250.73" y2="1064.46" gradientTransform="matrix(136.87, 0, 0, -99.33, 171505.8, 105903.21)" gradientUnits="userSpaceOnUse"><stop offset="0" stop-color="#2d3438"/><stop offset="1" stop-color="#1a1a1a"/></linearGradient><linearGradient id="linear-gradient-2" x1="-1251.73" y1="1064.46" x2="-1250.73" y2="1064.46" gradientTransform="matrix(136.87, 0, 0, -99.33, 171505.8, 105903.21)" gradientUnits="userSpaceOnUse"><stop offset="0" stop-color="#5c8ee4"/><stop offset="1" stop-color="#67eaec"/></linearGradient><linearGradient id="linear-gradient-3" x1="-1251.73" y1="1065.22" x2="-1250.73" y2="1065.22" gradientTransform="matrix(136.87, 0, 0, -79, 171505.8, 84313.06)" xlink:href="#linear-gradient"/><linearGradient id="linear-gradient-4" x1="-1251.73" y1="1065.22" x2="-1250.73" y2="1065.22" gradientTransform="matrix(136.87, 0, 0, -79, 171505.8, 84313.06)" xlink:href="#linear-gradient-2"/><linearGradient id="linear-gradient-5" x1="-1158" y1="1102.91" x2="-1157" y2="1102.91" gradientTransform="matrix(12.25, 0, 0, -7.1, 14415.17, 7994.46)" xlink:href="#linear-gradient-2"/><linearGradient id="linear-gradient-6" x1="-1160.91" y1="1101.92" x2="-1159.91" y2="1101.92" gradientTransform="matrix(12.6, 0, 0, -7.27, 14873.97, 8174.91)" xlink:href="#linear-gradient-2"/><linearGradient id="linear-gradient-7" x1="-1136.39" y1="1102.31" x2="-1135.39" y2="1102.31" gradientTransform="matrix(10.12, 0, 0, -7.2, 11753.91, 8097.19)" xlink:href="#linear-gradient-2"/><linearGradient id="linear-gradient-8" x1="-1136.39" y1="1102.31" x2="-1135.39" y2="1102.31" gradientTransform="matrix(10.12, 0, 0, -7.2, 11761.6, 8092.75)" xlink:href="#linear-gradient-2"/><linearGradient id="linear-gradient-9" x1="-0.25" y1="1075.96" x2="0.25" y2="1075.96" gradientTransform="matrix(1, 0, 0, -20.33, 250.62, 22079.99)" xlink:href="#linear-gradient-2"/><linearGradient id="linear-gradient-10" x1="-1251.73" y1="1064.46" x2="-1250.73" y2="1064.46" xlink:href="#linear-gradient-2"/><linearGradient id="linear-gradient-11" x1="-0.25" y1="1063" x2="0.25" y2="1063" gradientTransform="matrix(1, 0, 0, -195.47, 318.84, 208054.67)" xlink:href="#linear-gradient-2"/><linearGradient id="linear-gradient-12" x1="-0.25" y1="1064.14" x2="0.25" y2="1064.14" gradientTransform="matrix(1, 0, 0, -111.24, 250.79, 118644.31)" xlink:href="#linear-gradient-2"/><linearGradient id="linear-gradient-13" x1="-0.25" y1="1064.04" x2="0.25" y2="1064.04" gradientTransform="matrix(1, 0, 0, -115.58, 181.97, 123215.87)" xlink:href="#linear-gradient-2"/><linearGradient id="linear-gradient-14" x1="-0.25" y1="1065.31" x2="0.25" y2="1065.31" gradientTransform="matrix(1, 0, 0, -77.07, 250.79, 82473.24)" xlink:href="#linear-gradient"/><linearGradient id="linear-gradient-15" x1="-0.25" y1="1065.5" x2="0.25" y2="1065.5" gradientTransform="matrix(1, 0, 0, -73.53, 181.97, 78675.73)" xlink:href="#linear-gradient"/><linearGradient id="linear-gradient-16" x1="-1257.28" y1="1062.05" x2="-1255.69" y2="1061.68" gradientTransform="matrix(318.32, 0, 0, -801.22, 400126.83, 851747.08)" xlink:href="#linear-gradient"/></defs><title>03</title><path id="Shape" class="cls-1" d="M318.84,369.18v49.16"/><polygon id="Shape-2" data-name="Shape" class="cls-2" points="318.84 156.45 250.19 116.83 181.97 156.22 181.97 176.54 250.62 216.17 318.84 176.78 318.84 156.45"/><polygon id="Shape-3" data-name="Shape" class="cls-3" points="250.62 195.84 181.97 156.22 250.19 116.83 318.84 156.45 250.62 195.84"/><path id="Shape-4" data-name="Shape" class="cls-4" d="M238.55,167.92l-8.23-4.73,2.44-1.41a7,7,0,0,1,2.43-.84,8,8,0,0,1,2.69,0,7.73,7.73,0,0,1,2.5.91l.41.24a4,4,0,0,1,1.58,1.45,1.6,1.6,0,0,1,0,1.55,3.6,3.6,0,0,1-1.5,1.42Zm-5.62-4.9,5.92,3.42.94-.53q1.13-.65,1-1.41t-1.4-1.51l-.45-.27a5.86,5.86,0,0,0-2.62-.84,4.25,4.25,0,0,0-2.4.58Z"/><path id="Shape-5" data-name="Shape" class="cls-5" d="M249.89,159.16l-3.2,1.84,1.23,1.49-1.49.86-5.08-6.53,1.29-.74L254,159l-1.5.86Zm-3.94.95,2.39-1.38-4.59-1.32Z"/><path id="Shape-6" data-name="Shape" class="cls-6" d="M258,153.21q1.41.81,1.61,1.68t-.9,1.49a4.26,4.26,0,0,1-2.27.56l2.89,1.67-1.38.79-8.44-4.87,1.27-.73.68.33q-.12-.77.92-1.38a4.39,4.39,0,0,1,2.59-.53,6.91,6.91,0,0,1,2.94,1Zm-1.49.72a4.61,4.61,0,0,0-1.81-.63,2.53,2.53,0,0,0-1.58.3q-.84.48-.52,1.1l2.71,1.56a2.78,2.78,0,0,0,1.93-.3q.66-.38.5-.9T256.56,153.93Z"/><path id="Shape-7" data-name="Shape" class="cls-7" d="M265.74,148.77q1.41.81,1.61,1.68t-.9,1.49a4.26,4.26,0,0,1-2.27.56l2.89,1.67-1.38.79-8.44-4.87,1.28-.73.68.33q-.12-.77.92-1.38a4.39,4.39,0,0,1,2.59-.54,6.92,6.92,0,0,1,2.94,1Zm-1.49.72a4.61,4.61,0,0,0-1.81-.63,2.54,2.54,0,0,0-1.58.3q-.84.48-.52,1.1l2.71,1.56a2.78,2.78,0,0,0,1.93-.3q.66-.38.5-.9T264.25,149.49Z"/><path id="Shape-8" data-name="Shape" class="cls-8" d="M250.62,195.84v20.33"/><polygon id="Shape-9" data-name="Shape" class="cls-9" points="318.84 156.45 250.19 116.83 181.97 156.22 181.97 176.54 250.62 216.17 318.84 176.78 318.84 156.45"/><path id="Shape-10" data-name="Shape" class="cls-10" d="M318.84,174V369.42"/><path id="Shape-11" data-name="Shape" class="cls-11" d="M250.79,216.34V327.58"/><path id="Shape-12" data-name="Shape" class="cls-12" d="M182,177V292.62"/><path id="Shape-13" data-name="Shape" class="cls-13" d="M250.79,331.12v77.07"/><path id="Shape-14" data-name="Shape" class="cls-14" d="M182,292.26v73.53"/><polygon id="Shape-15" data-name="Shape" class="cls-15" points="319.16 646.94 159.5 554.78 0.84 646.36 0.84 1263.83 160.5 1356 319.16 1264.4 319.16 646.94"/><polygon id="Shape-16" data-name="Shape" class="cls-16" points="228 39.89 159.36 0.26 91.14 39.64 91.14 59.96 159.78 99.6 228 60.22 228 39.89"/></svg>