<?xml version="1.0" encoding="utf-8"?>
<!-- Generator: Adobe Illustrator 21.1.0, SVG Export Plug-In . SVG Version: 6.00 Build 0)  -->
<svg version="1.1" id="Layer_1" xmlns="http://www.w3.org/2000/svg" xmlns:xlink="http://www.w3.org/1999/xlink" x="0px" y="0px"
	 viewBox="0 0 310.2 1163.5" style="enable-background:new 0 0 310.2 1163.5;" xml:space="preserve">
<style type="text/css">
	.st0{fill:none;stroke:#4CC5FF;stroke-width:0.5;stroke-linecap:round;stroke-linejoin:round;stroke-dasharray:2,3;}
	.st1{fill:url(#SVGID_1_);stroke:url(#SVGID_2_);stroke-width:0.5;stroke-linecap:round;stroke-linejoin:round;}
	.st2{fill:url(#SVGID_3_);stroke:url(#SVGID_4_);stroke-width:0.5;stroke-linecap:round;stroke-linejoin:round;}
	.st3{fill:url(#SVGID_5_);stroke:url(#SVGID_6_);stroke-width:0.5;stroke-linecap:round;stroke-linejoin:round;}
	.st4{fill:url(#SVGID_7_);}
	.st5{fill:none;}
	.st6{fill:url(#SVGID_8_);}
	.st7{opacity:0.35;fill:url(#SVGID_9_);enable-background:new    ;}
	.st8{fill:url(#SVGID_10_);stroke:#000000;stroke-width:0.25;stroke-linecap:round;stroke-linejoin:round;}
	.st9{fill:none;stroke:#000000;stroke-width:0.25;stroke-linecap:round;stroke-linejoin:round;}
	.st10{fill:url(#SVGID_11_);stroke:#000000;stroke-width:0.25;stroke-linecap:round;stroke-linejoin:round;}
	.st11{fill:url(#SVGID_12_);stroke:#1C51AF;stroke-width:0.75;stroke-miterlimit:10;}
	.st12{fill:none;stroke:#1A1A1A;stroke-width:0.6;stroke-linecap:round;stroke-linejoin:round;}
	.st13{fill:none;stroke:#1C51AF;stroke-width:0.75;stroke-miterlimit:10;}
	.st14{fill:url(#SVGID_13_);stroke:#1C51AF;stroke-width:0.75;stroke-miterlimit:10;}
	.st15{fill:url(#SVGID_14_);stroke:url(#SVGID_15_);stroke-width:0.5;stroke-linecap:round;stroke-linejoin:round;}
	.st16{fill:none;stroke:url(#SVGID_16_);stroke-width:0.5;stroke-linecap:round;stroke-linejoin:round;}
	.st17{fill:none;stroke:#1C51AF;stroke-width:0.5;stroke-linecap:round;stroke-linejoin:round;stroke-dasharray:2,3;}
	.st18{fill:url(#SVGID_17_);stroke:url(#SVGID_18_);stroke-width:0.5;stroke-linecap:round;stroke-linejoin:round;}
	.st19{fill:#4CC5FF;}
	.st20{fill:none;stroke:url(#SVGID_19_);stroke-width:0.5;stroke-linecap:round;stroke-linejoin:round;}
	.st21{fill:url(#SVGID_20_);stroke:url(#SVGID_21_);stroke-width:0.5;stroke-linecap:round;stroke-linejoin:round;}
	.st22{fill:none;stroke:url(#SVGID_22_);stroke-width:0.5;stroke-linecap:round;stroke-linejoin:round;}
	.st23{opacity:0.1;fill:url(#SVGID_23_);enable-background:new    ;}
	.st24{opacity:0.1;fill:url(#SVGID_24_);enable-background:new    ;}
	.st25{opacity:0.1;fill:url(#SVGID_25_);enable-background:new    ;}
	.st26{fill:#FFFFFF;}
</style>
<path class="st0" d="M88.6,58.8v248.9"/>
<linearGradient id="SVGID_1_" gradientUnits="userSpaceOnUse" x1="0.3" y1="-183.65" x2="133.3" y2="-183.65" gradientTransform="matrix(1 0 0 1 0 419.45)">
	<stop  offset="0" style="stop-color:#2D3438"/>
	<stop  offset="1" style="stop-color:#1A1A1A"/>
</linearGradient>
<linearGradient id="SVGID_2_" gradientUnits="userSpaceOnUse" x1="5.000305e-02" y1="-183.65" x2="133.55" y2="-183.65" gradientTransform="matrix(1 0 0 1 0 419.45)">
	<stop  offset="0" style="stop-color:#5C8EE4"/>
	<stop  offset="1" style="stop-color:#67EAEC"/>
</linearGradient>
<path class="st1" d="M133.3,226l-66.7-38.5L0.3,225.8v19.7L67,284.1l66.3-38.3V226z"/>
<linearGradient id="SVGID_3_" gradientUnits="userSpaceOnUse" x1="88.6" y1="-370.95" x2="221.6" y2="-370.95" gradientTransform="matrix(1 0 0 1 0 419.45)">
	<stop  offset="0" style="stop-color:#2D3438"/>
	<stop  offset="1" style="stop-color:#1A1A1A"/>
</linearGradient>
<linearGradient id="SVGID_4_" gradientUnits="userSpaceOnUse" x1="88.35" y1="-370.95" x2="221.85" y2="-370.95" gradientTransform="matrix(1 0 0 1 0 419.45)">
	<stop  offset="0" style="stop-color:#5C8EE4"/>
	<stop  offset="1" style="stop-color:#67EAEC"/>
</linearGradient>
<path class="st2" d="M221.6,38.8L154.9,0.2L88.6,38.5v19.8l66.7,38.5l66.3-38.3V38.8z"/>
<path class="st0" d="M221.6,58.8v248.9"/>
<linearGradient id="SVGID_5_" gradientUnits="userSpaceOnUse" x1="176.9" y1="-257.6" x2="309.9" y2="-257.6" gradientTransform="matrix(1 0 0 1 0 419.45)">
	<stop  offset="0" style="stop-color:#2D3438"/>
	<stop  offset="1" style="stop-color:#1A1A1A"/>
</linearGradient>
<linearGradient id="SVGID_6_" gradientUnits="userSpaceOnUse" x1="176.65" y1="-257.6" x2="310.15" y2="-257.6" gradientTransform="matrix(1 0 0 1 0 419.45)">
	<stop  offset="0" style="stop-color:#5C8EE4"/>
	<stop  offset="1" style="stop-color:#67EAEC"/>
</linearGradient>
<path class="st3" d="M309.9,152.1l-66.8-38.5l-66.2,38.2v19.8l66.7,38.5l66.3-38.3V152.1z"/>
<linearGradient id="SVGID_7_" gradientUnits="userSpaceOnUse" x1="155.1" y1="442.4666" x2="155.1" y2="86.7816" gradientTransform="matrix(1 0 0 -1 0 1164.5499)">
	<stop  offset="0" style="stop-color:#2D3438"/>
	<stop  offset="1" style="stop-color:#1A1A1A;stop-opacity:0"/>
</linearGradient>
<path class="st4" d="M309.8,628.2l-155.2-89.6L0.4,627.7V1074l155.2,89.5l154.2-89V628.2z"/>
<path class="st5" d="M0.3,627.5v446.2"/>
<path class="st5" d="M155.6,717v446.3"/>
<path class="st5" d="M309.9,628.4v446.3"/>
<linearGradient id="SVGID_8_" gradientUnits="userSpaceOnUse" x1="38.9662" y1="141.4507" x2="271.2338" y2="275.5493" gradientTransform="matrix(1 0 0 1 0 419.45)">
	<stop  offset="0" style="stop-color:#2D3438"/>
	<stop  offset="1" style="stop-color:#1A1A1A"/>
</linearGradient>
<path class="st6" d="M155.6,717.2L0.4,627.7l154.2-89.1l155.2,89.6L155.6,717.2z"/>
<linearGradient id="SVGID_9_" gradientUnits="userSpaceOnUse" x1="154.9" y1="620.6326" x2="154.9" y2="96.212" gradientTransform="matrix(1 0 0 -1 0 1164.5499)">
	<stop  offset="0" style="stop-color:#1B1B1B;stop-opacity:0.7382"/>
	<stop  offset="1" style="stop-color:#2D3438;stop-opacity:0"/>
</linearGradient>
<path class="st7" d="M309.6,628.1l-155.2-89.6L0.2,627.6v446.3l155.2,89.5l154.2-89V628.1z"/>
<linearGradient id="SVGID_10_" gradientUnits="userSpaceOnUse" x1="1055.0198" y1="101" x2="1364.4198" y2="101" gradientTransform="matrix(-1 0 0 1 1364.8198 419.45)">
	<stop  offset="0" style="stop-color:#2E3D4A"/>
	<stop  offset="1" style="stop-color:#232329"/>
</linearGradient>
<path class="st8" d="M0.4,501.1l155.2-89.6l154.2,89v39.3l-155.2,89.6l-154.2-89L0.4,501.1z"/>
<path class="st9" d="M309.9,500.3v39.3"/>
<path class="st9" d="M154.6,589.9v39.3"/>
<path class="st9" d="M0.3,501.3v39.3"/>
<linearGradient id="SVGID_11_" gradientUnits="userSpaceOnUse" x1="1209.7198" y1="170.65" x2="1209.7198" y2="-7.95" gradientTransform="matrix(-1 0 0 1 1364.8198 419.45)">
	<stop  offset="0" style="stop-color:#2E3D4A"/>
	<stop  offset="1" style="stop-color:#232329"/>
</linearGradient>
<path class="st10" d="M154.6,590.1l155.2-89.6l-154.2-89L0.4,501.1L154.6,590.1z"/>
<linearGradient id="SVGID_12_" gradientUnits="userSpaceOnUse" x1="0.4" y1="-37.25" x2="309.8" y2="-37.25" gradientTransform="matrix(1 0 0 1 0 419.45)">
	<stop  offset="0" style="stop-color:#67EAEC"/>
	<stop  offset="1" style="stop-color:#1BCCE5"/>
</linearGradient>
<path class="st11" d="M309.8,358.6L154.6,269L0.4,358.1v47.7l155.2,89.6l154.2-89V358.6z"/>
<path class="st12" d="M0.3,357.8v47.8"/>
<path class="st13" d="M155.6,447.4v47.8"/>
<path class="st12" d="M309.9,358.8v47.8"/>
<linearGradient id="SVGID_13_" gradientUnits="userSpaceOnUse" x1="309.8" y1="-61.15" x2="0.4" y2="-61.15" gradientTransform="matrix(1 0 0 1 0 419.45)">
	<stop  offset="0" style="stop-color:#67EAEC"/>
	<stop  offset="1" style="stop-color:#1BCCE5"/>
</linearGradient>
<path class="st14" d="M155.6,447.6L0.4,358.1L154.6,269l155.2,89.6L155.6,447.6z"/>
<g>
	<path class="st0" d="M155.1,97.2v171.9"/>
	
		<linearGradient id="SVGID_14_" gradientUnits="userSpaceOnUse" x1="0.3" y1="-193.55" x2="133.3" y2="-193.55" gradientTransform="matrix(1 0 0 1 0 419.45)">
		<stop  offset="0" style="stop-color:#2D3438"/>
		<stop  offset="1" style="stop-color:#1A1A1A"/>
	</linearGradient>
	
		<linearGradient id="SVGID_15_" gradientUnits="userSpaceOnUse" x1="5.000305e-02" y1="-193.55" x2="133.55" y2="-193.55" gradientTransform="matrix(1 0 0 1 0 419.45)">
		<stop  offset="0" style="stop-color:#5C8EE4"/>
		<stop  offset="1" style="stop-color:#67EAEC"/>
	</linearGradient>
	<path class="st15" d="M67,264.3L0.3,225.8l66.3-38.3l66.7,38.5L67,264.3z"/>
	
		<linearGradient id="SVGID_16_" gradientUnits="userSpaceOnUse" x1="66.77" y1="-145.25" x2="67.27" y2="-145.25" gradientTransform="matrix(1 0 0 1 0 419.45)">
		<stop  offset="0" style="stop-color:#5C8EE4"/>
		<stop  offset="1" style="stop-color:#67EAEC"/>
	</linearGradient>
	<path class="st16" d="M67,264.3v19.8"/>
	<path class="st17" d="M66.9,320.1l-0.2,75.6"/>
	<path class="st0" d="M66.9,284.2l-0.2,33.9"/>
	<path class="st0" d="M133,247.2l-0.1,33"/>
	<path class="st0" d="M0.3,246.5v112.6"/>
	<path class="st17" d="M133,282l-0.1,75.6"/>
	
		<linearGradient id="SVGID_17_" gradientUnits="userSpaceOnUse" x1="176.9" y1="-267.45" x2="309.9" y2="-267.45" gradientTransform="matrix(1 0 0 1 0 419.45)">
		<stop  offset="0" style="stop-color:#2D3438"/>
		<stop  offset="1" style="stop-color:#1A1A1A"/>
	</linearGradient>
	
		<linearGradient id="SVGID_18_" gradientUnits="userSpaceOnUse" x1="176.65" y1="-267.45" x2="310.15" y2="-267.45" gradientTransform="matrix(1 0 0 1 0 419.45)">
		<stop  offset="0" style="stop-color:#5C8EE4"/>
		<stop  offset="1" style="stop-color:#67EAEC"/>
	</linearGradient>
	<path class="st18" d="M243.6,190.4l-66.7-38.6l66.2-38.2l66.8,38.5L243.6,190.4z"/>
	<path class="st17" d="M155.1,269.1v77"/>
</g>
<path class="st19" d="M238.1,145.8c0.3-0.5,0.3-1,0-1.5c-0.2-0.5-0.7-0.9-1.4-1.4l-2.4-1.4l-8,4.6l2.4,1.3c0.5,0.4,1.4,0.6,2.4,0.8
	c0.8,0.1,1.8,0.1,2.6,0c1-0.2,1.9-0.5,2.4-0.9l0.4-0.2C237.4,146.8,237.9,146.3,238.1,145.8L238.1,145.8z M234.7,146.7
	c-0.8,0.5-1.7,0.7-2.5,0.8c-0.9,0-1.6-0.2-2.4-0.6l-0.9-0.5l5.8-3.3l1,0.6c0.7,0.4,1.1,0.9,1,1.3c-0.1,0.5-0.6,1-1.4,1.5
	L234.7,146.7z"/>
<path class="st19" d="M245.1,147.7l-11,2.9l1.5,0.8l2.5-0.7l3.1,1.8l-1.2,1.4l1.5,0.8l4.9-6.4L245.1,147.7z M239.5,150.3l4.5-1.2
	l-2.2,2.6L239.5,150.3z"/>
<path class="st19" d="M252.8,155.4c0.2-0.5-0.2-1-0.9-1.5c-0.7-0.4-1.5-0.6-2.3-0.5l0.6-0.4l-1.2-0.7l-8.2,4.7l1.3,0.8l2.8-1.6
	c-0.1,0.4,0.3,0.9,0.9,1.3c0.7,0.4,1.5,0.6,2.5,0.5s1.9-0.4,2.8-0.9l0.1-0.1C252.1,156.6,252.7,156,252.8,155.4L252.8,155.4z
	 M248,157c-0.6,0.1-1.1,0-1.5-0.3c-0.6-0.3-0.7-0.7-0.5-1.1l2.6-1.5c0.7-0.1,1.3,0,1.9,0.3c0.5,0.3,0.6,0.6,0.5,0.9
	c-0.1,0.4-0.5,0.7-1.1,1C249.2,156.7,248.6,156.9,248,157L248,157z"/>
<path class="st19" d="M258.7,161.4c0.9-0.5,1.5-1.1,1.6-1.7c0.2-0.5-0.2-1-0.9-1.5c-0.7-0.4-1.5-0.6-2.3-0.5l0.6-0.4l-1.2-0.7
	l-8.2,4.7l1.3,0.8l2.8-1.6c-0.1,0.4,0.3,0.9,0.9,1.3c0.7,0.4,1.5,0.6,2.5,0.5C256.8,162.3,257.7,162,258.7,161.4L258.7,161.4z
	 M255.5,161.3c-0.6,0.1-1.1,0-1.5-0.3c-0.6-0.3-0.7-0.7-0.5-1.1l2.6-1.5c0.7-0.1,1.3,0,1.9,0.3c0.5,0.3,0.6,0.6,0.5,0.9
	c-0.1,0.4-0.5,0.7-1.1,1C256.7,161,256.1,161.2,255.5,161.3L255.5,161.3z"/>
<linearGradient id="SVGID_19_" gradientUnits="userSpaceOnUse" x1="243.32" y1="-219.2" x2="243.82" y2="-219.2" gradientTransform="matrix(1 0 0 1 0 419.45)">
	<stop  offset="0" style="stop-color:#5C8EE4"/>
	<stop  offset="1" style="stop-color:#67EAEC"/>
</linearGradient>
<path class="st20" d="M243.6,190.4v19.7"/>
<path class="st0" d="M309.9,169.1v190"/>
<path class="st0" d="M243.7,210.3v108.1"/>
<path class="st0" d="M176.9,172.1v112.3"/>
<path class="st17" d="M243.7,321.8v75"/>
<path class="st17" d="M176.9,284.1v71.4"/>
<linearGradient id="SVGID_20_" gradientUnits="userSpaceOnUse" x1="88.6" y1="-380.8" x2="221.6" y2="-380.8" gradientTransform="matrix(1 0 0 1 0 419.45)">
	<stop  offset="0" style="stop-color:#2D3438"/>
	<stop  offset="1" style="stop-color:#1A1A1A"/>
</linearGradient>
<linearGradient id="SVGID_21_" gradientUnits="userSpaceOnUse" x1="88.35" y1="-380.8" x2="221.85" y2="-380.8" gradientTransform="matrix(1 0 0 1 0 419.45)">
	<stop  offset="0" style="stop-color:#5C8EE4"/>
	<stop  offset="1" style="stop-color:#67EAEC"/>
</linearGradient>
<path class="st21" d="M155.3,77.1L88.6,38.5l66.3-38.3l66.7,38.6L155.3,77.1z"/>
<linearGradient id="SVGID_22_" gradientUnits="userSpaceOnUse" x1="155.04" y1="-332.5" x2="155.54" y2="-332.5" gradientTransform="matrix(1 0 0 1 0 419.45)">
	<stop  offset="0" style="stop-color:#5C8EE4"/>
	<stop  offset="1" style="stop-color:#67EAEC"/>
</linearGradient>
<path class="st22" d="M155.3,77.1v19.7"/>
<linearGradient id="SVGID_23_" gradientUnits="userSpaceOnUse" x1="176.9" y1="-257.6" x2="309.9" y2="-257.6" gradientTransform="matrix(1 0 0 1 0 419.45)">
	<stop  offset="0" style="stop-color:#5C8EE4"/>
	<stop  offset="1" style="stop-color:#67EAEC"/>
</linearGradient>
<path class="st23" d="M309.9,152.1l-66.8-38.5l-66.2,38.2v19.8l66.7,38.5l66.3-38.3V152.1z"/>
<path class="st19" d="M149.9,32.5c0.3-0.5,0.3-1,0-1.5c-0.2-0.5-0.7-0.9-1.4-1.4l-2.4-1.4l-8,4.6l2.4,1.3c0.5,0.4,1.4,0.6,2.4,0.8
	c0.8,0.1,1.8,0.1,2.6,0c1-0.2,1.9-0.5,2.4-0.9l0.4-0.2C149.1,33.5,149.6,33,149.9,32.5z M146.4,33.4c-0.8,0.5-1.7,0.7-2.5,0.8
	c-0.9,0-1.6-0.2-2.4-0.6l-0.9-0.5l5.8-3.3l1,0.6c0.7,0.4,1.1,0.9,1,1.3c-0.1,0.5-0.6,1-1.4,1.5L146.4,33.4z"/>
<path class="st19" d="M156.8,34.4l-11,2.9l1.5,0.8l2.5-0.7l3.1,1.8l-1.2,1.4l1.5,0.8l4.9-6.4L156.8,34.4z M151.3,37l4.5-1.2
	l-2.2,2.6L151.3,37z"/>
<path class="st19" d="M164.5,42.1c0.2-0.5-0.2-1-0.9-1.5c-0.7-0.4-1.5-0.6-2.3-0.5l0.6-0.4l-1.2-0.7l-8.2,4.7l1.3,0.8l2.8-1.6
	c-0.1,0.4,0.3,0.9,0.9,1.3c0.7,0.4,1.5,0.6,2.5,0.5s1.9-0.4,2.8-0.9l0.1-0.1C163.8,43.3,164.4,42.7,164.5,42.1L164.5,42.1z
	 M159.7,43.7c-0.6,0.1-1.1,0-1.5-0.3c-0.6-0.3-0.7-0.7-0.5-1.1l2.6-1.5c0.7-0.1,1.3,0,1.9,0.3c0.5,0.3,0.6,0.6,0.5,0.9
	c-0.1,0.4-0.5,0.7-1.1,1C160.9,43.4,160.3,43.6,159.7,43.7z"/>
<path class="st19" d="M170.4,48.1c0.9-0.5,1.5-1.1,1.6-1.7c0.2-0.5-0.2-1-0.9-1.5c-0.7-0.4-1.5-0.6-2.3-0.5l0.6-0.4l-1.2-0.7L160,48
	l1.3,0.8l2.8-1.6c-0.1,0.4,0.3,0.9,0.9,1.3c0.7,0.4,1.5,0.6,2.5,0.5S169.4,48.7,170.4,48.1L170.4,48.1z M167.2,48
	c-0.6,0.1-1.1,0-1.5-0.3c-0.6-0.3-0.7-0.7-0.5-1.1l2.6-1.5c0.7-0.1,1.3,0,1.9,0.3c0.5,0.3,0.6,0.6,0.5,0.9c-0.1,0.4-0.5,0.7-1.1,1
	C168.4,47.7,167.8,47.9,167.2,48z"/>
<linearGradient id="SVGID_24_" gradientUnits="userSpaceOnUse" x1="88.6" y1="-370.95" x2="221.6" y2="-370.95" gradientTransform="matrix(1 0 0 1 0 419.45)">
	<stop  offset="0" style="stop-color:#5C8EE4"/>
	<stop  offset="1" style="stop-color:#67EAEC"/>
</linearGradient>
<path class="st24" d="M221.6,38.8L154.9,0.2L88.6,38.5v19.8l66.7,38.5l66.3-38.3V38.8z"/>
<path class="st19" d="M61.6,219.7c0.3-0.5,0.3-1,0-1.5c-0.2-0.5-0.7-0.9-1.4-1.4l-2.4-1.4l-8,4.6l2.4,1.3c0.5,0.4,1.4,0.6,2.4,0.8
	c0.8,0.1,1.8,0.1,2.6,0c1-0.2,1.9-0.5,2.4-0.9L60,221C60.8,220.7,61.3,220.2,61.6,219.7L61.6,219.7z M58.1,220.6
	c-0.8,0.5-1.7,0.7-2.5,0.8c-0.9,0-1.6-0.2-2.4-0.6l-0.9-0.5l5.8-3.3l1,0.6c0.7,0.4,1.1,0.9,1,1.3c-0.1,0.5-0.6,1-1.4,1.5L58.1,220.6
	z"/>
<path class="st19" d="M68.5,221.7l-11,2.9l1.5,0.8l2.5-0.7l3.1,1.8l-1.2,1.4l1.5,0.8l4.9-6.4L68.5,221.7z M63,224.3l4.5-1.2
	l-2.2,2.6L63,224.3z"/>
<path class="st19" d="M76.3,229.4c0.2-0.5-0.2-1-0.9-1.5c-0.7-0.4-1.5-0.6-2.3-0.5l0.6-0.4l-1.2-0.7l-8.2,4.7l1.3,0.8l2.8-1.6
	c-0.1,0.4,0.3,0.9,0.9,1.3c0.7,0.4,1.5,0.6,2.5,0.5s1.9-0.4,2.8-0.9l0.1-0.1C75.5,230.5,76.1,229.9,76.3,229.4z M71.4,230.9
	c-0.6,0.1-1.1,0-1.5-0.3c-0.6-0.3-0.7-0.7-0.5-1.1L72,228c0.7-0.1,1.3,0,1.9,0.3c0.5,0.3,0.6,0.6,0.5,0.9c-0.1,0.4-0.5,0.7-1.1,1
	C72.7,230.6,72,230.9,71.4,230.9L71.4,230.9z"/>
<path class="st19" d="M82.1,235.3c0.9-0.5,1.5-1.1,1.6-1.7c0.2-0.5-0.2-1-0.9-1.5c-0.7-0.4-1.5-0.6-2.3-0.5l0.6-0.4l-1.2-0.7
	l-8.2,4.7L73,236l2.8-1.6c-0.1,0.4,0.3,0.9,0.9,1.3c0.7,0.4,1.5,0.6,2.5,0.5C80.2,236.2,81.2,235.9,82.1,235.3L82.1,235.3z
	 M78.9,235.2c-0.6,0.1-1.1,0-1.5-0.3c-0.6-0.3-0.7-0.7-0.5-1.1l2.6-1.5c0.7-0.1,1.3,0,1.9,0.3c0.5,0.3,0.6,0.6,0.5,0.9
	c-0.1,0.4-0.5,0.7-1.1,1C80.2,234.9,79.5,235.2,78.9,235.2L78.9,235.2z"/>
<linearGradient id="SVGID_25_" gradientUnits="userSpaceOnUse" x1="0.3" y1="-183.65" x2="133.3" y2="-183.65" gradientTransform="matrix(1 0 0 1 0 419.45)">
	<stop  offset="0" style="stop-color:#5C8EE4"/>
	<stop  offset="1" style="stop-color:#67EAEC"/>
</linearGradient>
<path class="st25" d="M133.3,226l-66.7-38.5L0.3,225.8v19.7L67,284.1l66.3-38.3V226z"/>
<path class="st26" d="M112.9,344.2l1.6-0.9l19.3-1.7l-8.2-4.7l1.6-0.9l10.2,5.9l-1.6,0.9l-19.2,1.7l8.1,4.7l-1.6,0.9L112.9,344.2z"
	/>
<path class="st26" d="M167.7,343.7c-2.6-1.5-5.6-2.4-8.7-2.7s-6.3-0.1-9.2,0.6c-6.2,1.7-11.3,4.6-14.2,8.2c-1.3,1.7-1.6,3.5-1.1,5.3
	s2.1,3.5,4.8,5c3.9,2.3,8.3,3.2,13,2.9s9.1-1.8,13.2-4.1c4.1-2.4,6.5-4.9,7.1-7.6C173.2,348.5,171.6,345.9,167.7,343.7L167.7,343.7z
	 M162.7,357.2c-1.9,1.1-4.1,2.1-6.6,2.8c-2.3,0.6-4.9,0.9-7.4,0.7c-2.7-0.2-5.2-0.9-7-2c-1.5-0.8-2.6-1.9-3.2-3
	c-0.5-1.1-0.6-2.2-0.2-3.2c0.4-1.1,1.1-2.1,2.1-3.1c2.1-2.1,5.1-3.8,8.7-5c1.7-0.6,3.5-1,5.4-1.2s3.8-0.2,5.6,0.1
	c2,0.3,3.8,1,5.2,1.8c2,1.1,3.2,2.5,3.5,4.1c0.3,1.5-0.2,3-1.3,4.3C166.3,354.9,164.7,356.1,162.7,357.2L162.7,357.2z"/>
<path class="st26" d="M184,373.4c0.4-0.8,0.4-1.7,0-2.6s-0.9-1.7-1.5-2.5c-0.6-0.9-1.4-1.7-2.1-2.5s-1.2-1.6-1.7-2.4
	c-0.4-0.7-0.6-1.5-0.4-2.3s0.8-1.5,1.8-2c1.6-0.9,3.4-1.3,5.3-1.1s3.7,0.8,5.4,1.7c3.8,2.2,4.4,4.2,1.8,6h-0.1l2.6,1.5h0.1
	c4-2.7,3.2-5.7-2.2-8.9c-2.4-1.4-5.1-2.2-8-2.4s-5.5,0.4-7.9,1.7c-1.2,0.7-2.1,1.5-2.5,2.4c-0.4,0.8-0.4,1.7,0,2.6s0.9,1.7,1.5,2.5
	c0.6,0.9,1.4,1.7,2.1,2.5s1.3,1.6,1.8,2.4c0.5,0.7,0.6,1.5,0.5,2.2c-0.2,0.7-0.8,1.4-1.7,1.9c-3.5,2-7.3,1.9-11.4-0.5
	c-4.1-2.3-4.5-4.7-1.5-7.1h0.1l-2.7-1.6l-0.1,0.1c-4.5,3.3-3.8,6.7,2,10.1c2.7,1.5,5.4,2.4,8.2,2.7c2.8,0.2,5.5-0.4,8.1-2
	C182.7,375.1,183.6,374.3,184,373.4L184,373.4z"/>
</svg>
