<svg id="Layer_1" data-name="Layer 1" xmlns="http://www.w3.org/2000/svg" xmlns:xlink="http://www.w3.org/1999/xlink" viewBox="0 0 320 1356"><defs><style>.cls-1,.cls-3{fill:url(#linear-gradient);}.cls-2{fill:url(#linear-gradient-2);}.cls-3{opacity:0.35;}.cls-14,.cls-3{isolation:isolate;}.cls-4,.cls-5,.cls-6,.cls-7,.cls-8{stroke:#000;stroke-width:0.5px;}.cls-10,.cls-11,.cls-12,.cls-4,.cls-5,.cls-6,.cls-7,.cls-8,.cls-9{stroke-linecap:round;stroke-linejoin:round;}.cls-4{fill:url(#linear-gradient-4);}.cls-5{fill:url(#linear-gradient-5);}.cls-6{fill:url(#linear-gradient-6);}.cls-7{fill:url(#linear-gradient-7);}.cls-8{fill:url(#linear-gradient-8);}.cls-11,.cls-12,.cls-9{stroke-width:0.51px;}.cls-9{fill:url(#linear-gradient-9);stroke:url(#linear-gradient-10);}.cls-10,.cls-11{fill:none;}.cls-10{stroke:#1a1a1a;stroke-width:0.62px;}.cls-11{stroke:url(#linear-gradient-11);}.cls-12{fill:url(#linear-gradient-12);stroke:url(#linear-gradient-13);}.cls-13,.cls-14{fill:#fff;}.cls-14{opacity:0;}</style><linearGradient id="linear-gradient" x1="-437.92" y1="1062.05" x2="-436.33" y2="1061.68" gradientTransform="matrix(318.32, 0, 0, -801.22, 139305.13, 851747.08)" gradientUnits="userSpaceOnUse"><stop offset="0" stop-color="#2d3438"/><stop offset="1" stop-color="#1a1a1a"/></linearGradient><linearGradient id="linear-gradient-2" x1="-437.5" y1="1063.48" x2="-436.75" y2="1062.72" gradientTransform="matrix(318.32, 0, 0, -183.76, 139305.13, 196000.85)" xlink:href="#linear-gradient"/><linearGradient id="linear-gradient-4" x1="-436.62" y1="1062.81" x2="-437.62" y2="1062.81" gradientTransform="matrix(318.32, 0, 0, -224.16, 139305.13, 238777.26)" gradientUnits="userSpaceOnUse"><stop offset="0" stop-color="#2e3d4a"/><stop offset="1" stop-color="#232329"/></linearGradient><linearGradient id="linear-gradient-5" x1="0" y1="1069.28" x2="0" y2="1068.28" gradientTransform="matrix(1, 0, 0, -40.39, 318.84, 43705.04)" xlink:href="#linear-gradient-4"/><linearGradient id="linear-gradient-6" x1="0" y1="1069.28" x2="0" y2="1068.28" gradientTransform="matrix(1, 0, 0, -40.4, 159.06, 43808.02)" xlink:href="#linear-gradient-4"/><linearGradient id="linear-gradient-7" x1="0" y1="1069.28" x2="0" y2="1068.28" gradientTransform="matrix(1, 0, 0, -40.4, 0.31, 43716.94)" xlink:href="#linear-gradient-4"/><linearGradient id="linear-gradient-8" x1="-437.12" y1="1062.6" x2="-437.12" y2="1063.6" gradientTransform="matrix(318.32, 0, 0, -183.76, 139305.13, 195870.1)" xlink:href="#linear-gradient-4"/><linearGradient id="linear-gradient-9" x1="-437.62" y1="1062.76" x2="-436.62" y2="1062.76" gradientTransform="matrix(318.32, 0, 0, -232.92, 139305.13, 247928.83)" gradientUnits="userSpaceOnUse"><stop offset="0" stop-color="#5c8ee4"/><stop offset="1" stop-color="#67eaec"/></linearGradient><linearGradient id="linear-gradient-10" x1="-437.62" y1="1062.76" x2="-436.62" y2="1062.76" gradientTransform="matrix(318.32, 0, 0, -232.92, 139305.13, 247928.83)" xlink:href="#linear-gradient"/><linearGradient id="linear-gradient-11" x1="-0.25" y1="1067.48" x2="0.25" y2="1067.48" gradientTransform="matrix(1, 0, 0, -49.16, 160.08, 52959.65)" xlink:href="#linear-gradient"/><linearGradient id="linear-gradient-12" x1="-437.62" y1="1063.1" x2="-436.62" y2="1063.1" gradientTransform="matrix(318.32, 0, 0, -183.76, 139305.13, 195723.5)" xlink:href="#linear-gradient-9"/><linearGradient id="linear-gradient-13" x1="-437.62" y1="1063.1" x2="-436.62" y2="1063.1" gradientTransform="matrix(318.32, 0, 0, -183.76, 139305.13, 195723.5)" xlink:href="#linear-gradient"/></defs><title>01</title><polygon id="Shape" class="cls-1" points="318.73 646.33 159.07 554.17 0.41 645.76 0.41 1263.22 160.07 1355.39 318.73 1263.8 318.73 646.33"/><polygon id="Shape-2" data-name="Shape" class="cls-2" points="160.07 737.93 0.41 645.76 159.07 554.17 318.73 646.33 160.07 737.93"/><polygon id="Shape-3" data-name="Shape" class="cls-3" points="318.73 646.33 159.07 554.17 0.41 645.76 0.41 1263.22 160.07 1355.39 318.73 1263.8 318.73 646.33"/><polygon id="Shape-4" data-name="Shape" class="cls-4" points="0.41 515.56 160.07 423.39 318.73 514.98 318.73 555.38 159.07 647.56 0.41 555.96 0.41 515.56"/><path id="Shape-5" data-name="Shape" class="cls-5" d="M318.84,514.77v40.39"/><path id="Shape-6" data-name="Shape" class="cls-6" d="M159.06,606.93v40.4"/><path id="Shape-7" data-name="Shape" class="cls-7" d="M.31,515.78v40.4"/><polygon id="Shape-8" data-name="Shape" class="cls-8" points="159.07 607.15 318.73 514.98 160.07 423.39 0.41 515.56 159.07 607.15"/><polygon id="Shape-9" data-name="Shape" class="cls-9" points="318.73 368.95 159.07 276.79 0.41 368.38 0.41 417.53 160.07 509.7 318.73 418.11 318.73 368.95"/><path id="Shape-10" data-name="Shape" class="cls-10" d="M.31,368.16v49.16"/><path id="Shape-11" data-name="Shape" class="cls-11" d="M160.08,460.32v49.16"/><path id="Shape-12" data-name="Shape" class="cls-10" d="M318.84,369.18v49.16"/><polygon id="Shape-13" data-name="Shape" class="cls-12" points="160.07 460.55 0.41 368.38 159.07 276.79 318.73 368.95 160.07 460.55"/><polygon id="Shape-14" data-name="Shape" class="cls-13" points="131.33 391.01 150 380.24 147.77 378.95 129.1 389.72 131.33 391.01"/><path id="Shape-15" data-name="Shape" class="cls-13" d="M143.54,361.7c-2.93,1.7-4.33,3.61-4.17,5.71s1.57,3.9,4.19,5.41a19.55,19.55,0,0,0,9.37,2.42,18.52,18.52,0,0,0,9.89-2.41c2.9-1.68,4.3-3.59,4.12-5.7s-1.55-3.91-4.17-5.42a19.55,19.55,0,0,0-9.39-2.41A18.52,18.52,0,0,0,143.54,361.7Zm17.09,9.87a12.44,12.44,0,0,1-7.14,1.5,16,16,0,0,1-7-1.92,6.17,6.17,0,0,1-3.33-4c-.3-1.56.57-3,2.59-4.12a12.44,12.44,0,0,1,7.14-1.5,16,16,0,0,1,7,1.92,6.17,6.17,0,0,1,3.33,4C163.53,369,162.65,370.38,160.63,371.56Z"/><path id="Shape-16" data-name="Shape" class="cls-13" d="M183.26,350.76a17.49,17.49,0,0,0-4.95.94c-1.58.55-3.15,1.11-4.65,1.69a23.13,23.13,0,0,1-4.21,1.21,4.47,4.47,0,0,1-3.09-.33c-1-.58-1.3-1.28-.85-2.06a6.64,6.64,0,0,1,2.57-2.3c3-1.73,5.59-2.15,7.9-1.28h.11l2.7-1.55-.14-.06a10.79,10.79,0,0,0-6.09-.73A19.11,19.11,0,0,0,166,348.7a9.33,9.33,0,0,0-4,3.8c-.64,1.37-.11,2.55,1.56,3.53a7.78,7.78,0,0,0,4.39,1,16.87,16.87,0,0,0,4.83-1c1.55-.57,3.09-1.14,4.58-1.73a19,19,0,0,1,4.31-1.17,5.22,5.22,0,0,1,3.39.49c1.15.67,1.57,1.43,1.25,2.28a5.4,5.4,0,0,1-2.5,2.45,17.38,17.38,0,0,1-5.44,2.15,6.8,6.8,0,0,1-4.74-.85l-.11-.06-2.79,1.6.11.06a10.68,10.68,0,0,0,6.89,1.32,20.44,20.44,0,0,0,7.51-2.67c2.42-1.4,4-2.82,4.6-4.23s-.09-2.75-2.15-3.93A8,8,0,0,0,183.26,350.76Z"/><polygon id="Shape-17" data-name="Shape" class="cls-14" points="228 39.89 159.36 0.26 91.14 39.64 91.14 59.96 159.78 99.6 228 60.22 228 39.89"/></svg>