<?xml version="1.0" encoding="utf-8"?>
<!-- Generator: Adobe Illustrator 21.1.0, SVG Export Plug-In . SVG Version: 6.00 Build 0)  -->
<svg version="1.1" id="Layer_1" xmlns="http://www.w3.org/2000/svg" xmlns:xlink="http://www.w3.org/1999/xlink" x="0px" y="0px"
	 viewBox="0 0 310.2 1187.6" style="enable-background:new 0 0 310.2 1187.6;" xml:space="preserve">
<style type="text/css">
	.st0{fill:url(#SVGID_1_);}
	.st1{fill:none;}
	.st2{fill:url(#SVGID_2_);}
	.st3{opacity:0.35;fill:url(#SVGID_3_);enable-background:new    ;}
	.st4{fill:url(#SVGID_4_);stroke:#000000;stroke-width:0.25;stroke-linecap:round;stroke-linejoin:round;}
	.st5{fill:none;stroke:#000000;stroke-width:0.25;stroke-linecap:round;stroke-linejoin:round;}
	.st6{fill:url(#SVGID_5_);stroke:#000000;stroke-width:0.25;stroke-linecap:round;stroke-linejoin:round;}
	.st7{fill:url(#SVGID_6_);stroke:#1C51AF;stroke-width:0.75;stroke-miterlimit:10;}
	.st8{fill:none;stroke:#1C51AF;stroke-width:0.75;stroke-miterlimit:10;}
	.st9{fill:url(#SVGID_7_);stroke:#1C51AF;stroke-width:0.75;stroke-miterlimit:10;}
	.st10{fill:#FFFFFF;}
	.st11{fill:none;stroke:#1A1A1A;stroke-width:0.6;stroke-linecap:round;stroke-linejoin:round;}
	.st12{fill:url(#SVGID_8_);stroke:url(#SVGID_9_);stroke-width:0.5;stroke-linecap:round;stroke-linejoin:round;}
	.st13{fill:url(#SVGID_10_);stroke:url(#SVGID_11_);stroke-width:0.5;stroke-linecap:round;stroke-linejoin:round;}
	.st14{fill:none;stroke:url(#SVGID_12_);stroke-width:0.5;stroke-linecap:round;stroke-linejoin:round;}
	.st15{opacity:0.1;fill:url(#SVGID_13_);enable-background:new    ;}
	.st16{fill:none;stroke:#1C51AF;stroke-width:0.5;stroke-linecap:round;stroke-linejoin:round;stroke-dasharray:2,3;}
	.st17{fill:none;stroke:url(#SVGID_14_);stroke-width:0.5;stroke-linecap:round;stroke-linejoin:round;stroke-dasharray:2,3;}
	.st18{fill:none;stroke:url(#SVGID_15_);stroke-width:0.5;stroke-linecap:round;stroke-linejoin:round;stroke-dasharray:2,3;}
	.st19{fill:none;stroke:url(#SVGID_16_);stroke-width:0.5;stroke-linecap:round;stroke-linejoin:round;stroke-dasharray:2,3;}
	.st20{fill:url(#SVGID_17_);stroke:url(#SVGID_18_);stroke-width:0.5;stroke-linecap:round;stroke-linejoin:round;}
	.st21{fill:url(#SVGID_19_);stroke:url(#SVGID_20_);stroke-width:0.5;stroke-linecap:round;stroke-linejoin:round;}
	.st22{fill:#4CC5FF;}
	.st23{fill:none;stroke:url(#SVGID_21_);stroke-width:0.5;stroke-linecap:round;stroke-linejoin:round;}
	.st24{opacity:0.1;fill:url(#SVGID_22_);enable-background:new    ;}
	.st25{fill:none;stroke:url(#SVGID_23_);stroke-width:0.5;stroke-linecap:round;stroke-linejoin:round;stroke-dasharray:2,3;}
	.st26{fill:none;stroke:url(#SVGID_24_);stroke-width:0.5;stroke-linecap:round;stroke-linejoin:round;stroke-dasharray:2,3;}
	.st27{fill:none;stroke:url(#SVGID_25_);stroke-width:0.5;stroke-linecap:round;stroke-linejoin:round;stroke-dasharray:2,3;}
</style>
<linearGradient id="SVGID_1_" gradientUnits="userSpaceOnUse" x1="155.1" y1="590.55" x2="155.1" y2="72.5461" gradientTransform="matrix(1 0 0 -1 0 1188.5499)">
	<stop  offset="0" style="stop-color:#2D3438"/>
	<stop  offset="1" style="stop-color:#1A1A1A;stop-opacity:0"/>
</linearGradient>
<path class="st0" d="M309.8,514.9l-155.2-89.6L0.4,514.4V1098l155.2,89.6l154.2-89V514.9z"/>
<path class="st1" d="M0.3,514.1v583.7"/>
<path class="st1" d="M155.6,603.7v583.7"/>
<path class="st1" d="M309.9,515.1v583.7"/>
<linearGradient id="SVGID_2_" gradientUnits="userSpaceOnUse" x1="38.9662" y1="450.1508" x2="271.2338" y2="584.2493" gradientTransform="matrix(1 0 0 1 0 -2.55)">
	<stop  offset="0" style="stop-color:#2D3438"/>
	<stop  offset="1" style="stop-color:#1A1A1A"/>
</linearGradient>
<path class="st2" d="M155.6,604L0.4,514.4l154.2-89.1l155.2,89.6L155.6,604z"/>
<linearGradient id="SVGID_3_" gradientUnits="userSpaceOnUse" x1="155.1" y1="642.55" x2="155.1" y2="110.3658" gradientTransform="matrix(1 0 0 -1 0 1188.5499)">
	<stop  offset="0" style="stop-color:#1B1B1B;stop-opacity:0.7382"/>
	<stop  offset="1" style="stop-color:#2D3438;stop-opacity:0"/>
</linearGradient>
<path class="st3" d="M309.8,514.9l-155.2-89.6L0.4,514.4V1098l155.2,89.6l154.2-89V514.9z"/>
<linearGradient id="SVGID_4_" gradientUnits="userSpaceOnUse" x1="3820.0398" y1="409.7" x2="4129.4399" y2="409.7" gradientTransform="matrix(-1 0 0 1 4129.8398 -2.55)">
	<stop  offset="0" style="stop-color:#2E3D4A"/>
	<stop  offset="1" style="stop-color:#232329"/>
</linearGradient>
<path class="st4" d="M0.4,387.8l155.2-89.6l154.2,89v39.3l-155.2,89.6l-154.2-89L0.4,387.8z"/>
<path class="st5" d="M309.9,387v39.3"/>
<path class="st5" d="M154.6,476.6v39.3"/>
<path class="st5" d="M0.3,388v39.3"/>
<linearGradient id="SVGID_5_" gradientUnits="userSpaceOnUse" x1="3974.7397" y1="479.35" x2="3974.7397" y2="300.75" gradientTransform="matrix(-1 0 0 1 4129.8398 -2.55)">
	<stop  offset="0" style="stop-color:#2E3D4A"/>
	<stop  offset="1" style="stop-color:#232329"/>
</linearGradient>
<path class="st6" d="M154.6,476.8l155.2-89.6l-154.2-89L0.4,387.8L154.6,476.8z"/>
<linearGradient id="SVGID_6_" gradientUnits="userSpaceOnUse" x1="0.9" y1="-174.65" x2="310.3" y2="-174.65" gradientTransform="matrix(1 0 0 1 0 443.45)">
	<stop  offset="0" style="stop-color:#67EAEC"/>
	<stop  offset="1" style="stop-color:#1BCCE5"/>
</linearGradient>
<path class="st7" d="M310.3,245.2l-155.2-89.6L0.9,244.7v47.6L156.1,382l154.2-89V245.2z"/>
<path class="st8" d="M156.1,334v47.8"/>
<linearGradient id="SVGID_7_" gradientUnits="userSpaceOnUse" x1="310.3" y1="-198.55" x2="0.9" y2="-198.55" gradientTransform="matrix(1 0 0 1 0 443.45)">
	<stop  offset="0" style="stop-color:#67EAEC"/>
	<stop  offset="1" style="stop-color:#1BCCE5"/>
</linearGradient>
<path class="st9" d="M156.1,334.2L0.9,244.7l154.2-89.1l155.2,89.6L156.1,334.2z"/>
<path class="st10" d="M113.4,230.8l1.6-0.9l19.3-1.7l-8.2-4.7l1.6-0.9l10.2,5.9l-1.6,0.9l-19.2,1.7l8.1,4.7l-1.6,0.9L113.4,230.8z"
	/>
<path class="st10" d="M168.2,230.3c-2.6-1.5-5.6-2.4-8.7-2.7s-6.3-0.1-9.2,0.6c-6.2,1.7-11.3,4.6-14.2,8.2c-1.3,1.7-1.6,3.5-1.1,5.3
	s2.1,3.5,4.8,5c3.9,2.3,8.3,3.2,13,2.9s9.1-1.8,13.2-4.1c4.1-2.4,6.5-4.9,7.1-7.6C173.7,235.1,172.1,232.4,168.2,230.3L168.2,230.3z
	 M163.2,243.8c-1.9,1.1-4.1,2.1-6.6,2.8c-2.3,0.6-4.9,0.9-7.4,0.7c-2.7-0.2-5.2-0.9-7-2c-1.5-0.8-2.6-1.9-3.2-3
	c-0.5-1.1-0.6-2.2-0.2-3.2c0.4-1.1,1.1-2.1,2.1-3.1c2.1-2.1,5.1-3.8,8.7-5c1.7-0.6,3.5-1,5.4-1.2s3.8-0.2,5.6,0.1
	c2,0.3,3.8,1,5.2,1.8c2,1.1,3.2,2.5,3.5,4.1c0.3,1.5-0.2,3-1.3,4.3C166.8,241.4,165.2,242.7,163.2,243.8L163.2,243.8z"/>
<path class="st10" d="M184.5,260c0.4-0.8,0.4-1.7,0-2.6s-0.9-1.7-1.5-2.5c-0.6-0.9-1.4-1.7-2.1-2.5s-1.2-1.6-1.7-2.4
	c-0.4-0.7-0.6-1.5-0.4-2.3s0.8-1.5,1.8-2c1.6-0.9,3.4-1.3,5.3-1.1s3.7,0.8,5.4,1.7c3.8,2.2,4.4,4.2,1.8,6H193l2.6,1.5h0.1
	c4-2.7,3.2-5.7-2.2-8.9c-2.4-1.4-5.1-2.2-8-2.4s-5.5,0.4-7.9,1.7c-1.2,0.7-2.1,1.5-2.5,2.4c-0.4,0.8-0.4,1.7,0,2.6s0.9,1.7,1.5,2.5
	c0.6,0.9,1.4,1.7,2.1,2.5s1.3,1.6,1.8,2.4c0.5,0.7,0.6,1.5,0.5,2.2c-0.2,0.7-0.8,1.4-1.7,1.9c-3.5,2-7.3,1.9-11.4-0.5
	c-4.1-2.3-4.5-4.7-1.5-7.1h0.1l-2.7-1.6l-0.1,0.1c-4.5,3.3-3.8,6.7,2,10.1c2.7,1.5,5.4,2.4,8.2,2.7c2.8,0.2,5.5-0.4,8.1-2
	C183.2,261.7,184.1,260.8,184.5,260L184.5,260z"/>
<path class="st11" d="M0.3,244.5v47.8"/>
<path class="st11" d="M309.9,245.5v47.8"/>
<linearGradient id="SVGID_8_" gradientUnits="userSpaceOnUse" x1="0.3" y1="125.05" x2="133.3" y2="125.05" gradientTransform="matrix(1 0 0 1 0 -2.55)">
	<stop  offset="0" style="stop-color:#2D3438"/>
	<stop  offset="1" style="stop-color:#1A1A1A"/>
</linearGradient>
<linearGradient id="SVGID_9_" gradientUnits="userSpaceOnUse" x1="5.000305e-02" y1="125.05" x2="133.55" y2="125.05" gradientTransform="matrix(1 0 0 1 0 -2.55)">
	<stop  offset="0" style="stop-color:#5C8EE4"/>
	<stop  offset="1" style="stop-color:#67EAEC"/>
</linearGradient>
<path class="st12" d="M133.3,112.7L66.6,74.2L0.3,112.5v19.7L67,170.8l66.3-38.3V112.7z"/>
<linearGradient id="SVGID_10_" gradientUnits="userSpaceOnUse" x1="0.3" y1="115.15" x2="133.3" y2="115.15" gradientTransform="matrix(1 0 0 1 0 -2.55)">
	<stop  offset="0" style="stop-color:#2D3438"/>
	<stop  offset="1" style="stop-color:#1A1A1A"/>
</linearGradient>
<linearGradient id="SVGID_11_" gradientUnits="userSpaceOnUse" x1="5.000305e-02" y1="115.15" x2="133.55" y2="115.15" gradientTransform="matrix(1 0 0 1 0 -2.55)">
	<stop  offset="0" style="stop-color:#5C8EE4"/>
	<stop  offset="1" style="stop-color:#67EAEC"/>
</linearGradient>
<path class="st13" d="M67,151L0.3,112.5l66.3-38.3l66.7,38.5L67,151z"/>
<linearGradient id="SVGID_12_" gradientUnits="userSpaceOnUse" x1="66.77" y1="163.45" x2="67.27" y2="163.45" gradientTransform="matrix(1 0 0 1 0 -2.55)">
	<stop  offset="0" style="stop-color:#5C8EE4"/>
	<stop  offset="1" style="stop-color:#67EAEC"/>
</linearGradient>
<path class="st14" d="M67,151v19.8"/>
<linearGradient id="SVGID_13_" gradientUnits="userSpaceOnUse" x1="0.3" y1="125.05" x2="133.3" y2="125.05" gradientTransform="matrix(1 0 0 1 0 -2.55)">
	<stop  offset="0" style="stop-color:#5C8EE4"/>
	<stop  offset="1" style="stop-color:#67EAEC"/>
</linearGradient>
<path class="st15" d="M133.3,112.7L66.6,74.2L0.3,112.5v19.7L67,170.8l66.3-38.3V112.7z"/>
<g>
	<path class="st16" d="M66.9,206.9l-0.2,75.5"/>
	
		<linearGradient id="SVGID_14_" gradientUnits="userSpaceOnUse" x1="66.48" y1="190.45" x2="67.13" y2="190.45" gradientTransform="matrix(1 0 0 1 0 -2.55)">
		<stop  offset="0" style="stop-color:#5C8EE4"/>
		<stop  offset="1" style="stop-color:#67EAEC"/>
	</linearGradient>
	<path class="st17" d="M66.9,170.9l-0.2,34"/>
	
		<linearGradient id="SVGID_15_" gradientUnits="userSpaceOnUse" x1="132.62" y1="152.95" x2="133.27" y2="152.95" gradientTransform="matrix(1 0 0 1 0 -2.55)">
		<stop  offset="0" style="stop-color:#5C8EE4"/>
		<stop  offset="1" style="stop-color:#67EAEC"/>
	</linearGradient>
	<path class="st18" d="M133,133.9l-0.1,33"/>
	
		<linearGradient id="SVGID_16_" gradientUnits="userSpaceOnUse" x1="5.000001e-02" y1="192" x2="0.55" y2="192" gradientTransform="matrix(1 0 0 1 0 -2.55)">
		<stop  offset="0" style="stop-color:#5C8EE4"/>
		<stop  offset="1" style="stop-color:#67EAEC"/>
	</linearGradient>
	<path class="st19" d="M0.3,133.1v112.7"/>
	<path class="st16" d="M133,168.7l-0.1,75.6"/>
	
		<linearGradient id="SVGID_17_" gradientUnits="userSpaceOnUse" x1="176.9" y1="51.05" x2="309.9" y2="51.05" gradientTransform="matrix(1 0 0 1 0 -2.55)">
		<stop  offset="0" style="stop-color:#2D3438"/>
		<stop  offset="1" style="stop-color:#1A1A1A"/>
	</linearGradient>
	
		<linearGradient id="SVGID_18_" gradientUnits="userSpaceOnUse" x1="176.65" y1="51.05" x2="310.15" y2="51.05" gradientTransform="matrix(1 0 0 1 0 -2.55)">
		<stop  offset="0" style="stop-color:#5C8EE4"/>
		<stop  offset="1" style="stop-color:#67EAEC"/>
	</linearGradient>
	<path class="st20" d="M309.9,38.8L243.1,0.2l-66.2,38.3v19.8l66.7,38.5l66.3-38.3V38.8z"/>
	
		<linearGradient id="SVGID_19_" gradientUnits="userSpaceOnUse" x1="176.9" y1="41.2" x2="309.9" y2="41.2" gradientTransform="matrix(1 0 0 1 0 -2.55)">
		<stop  offset="0" style="stop-color:#2D3438"/>
		<stop  offset="1" style="stop-color:#1A1A1A"/>
	</linearGradient>
	
		<linearGradient id="SVGID_20_" gradientUnits="userSpaceOnUse" x1="176.65" y1="41.2" x2="310.15" y2="41.2" gradientTransform="matrix(1 0 0 1 0 -2.55)">
		<stop  offset="0" style="stop-color:#5C8EE4"/>
		<stop  offset="1" style="stop-color:#67EAEC"/>
	</linearGradient>
	<path class="st21" d="M243.6,77.1l-66.7-38.6l66.2-38.3l66.8,38.6L243.6,77.1z"/>
	<g>
		<path class="st22" d="M238.2,32.5c0.3-0.5,0.3-1,0-1.5c-0.2-0.5-0.7-0.9-1.4-1.4l-2.4-1.4l-8,4.6l2.4,1.3c0.5,0.4,1.4,0.6,2.4,0.8
			c0.8,0.1,1.8,0.1,2.6,0c1-0.2,1.9-0.5,2.4-0.9l0.4-0.2C237.4,33.5,237.9,33,238.2,32.5L238.2,32.5z M234.7,33.4
			c-0.8,0.5-1.7,0.7-2.5,0.8c-0.9,0-1.6-0.2-2.4-0.6l-0.9-0.5l5.8-3.3l1,0.6c0.7,0.4,1.1,0.9,1,1.3c-0.1,0.5-0.6,1-1.4,1.5
			L234.7,33.4z"/>
		<path class="st22" d="M245.1,34.5l-11,2.9l1.5,0.8l2.5-0.7l3.1,1.8l-1.2,1.4l1.5,0.8l4.9-6.4L245.1,34.5z M239.6,37.1l4.5-1.2
			l-2.2,2.6L239.6,37.1z"/>
		<path class="st22" d="M252.9,42.2c0.2-0.5-0.2-1-0.9-1.5c-0.7-0.4-1.5-0.6-2.3-0.5l0.6-0.4l-1.2-0.7l-8.2,4.7l1.3,0.8L245,43
			c-0.1,0.4,0.3,0.9,0.9,1.3c0.7,0.4,1.5,0.6,2.5,0.5s1.9-0.4,2.8-0.9l0.1-0.1C252.1,43.3,252.7,42.7,252.9,42.2z M248,43.7
			c-0.6,0.1-1.1,0-1.5-0.3c-0.6-0.3-0.7-0.7-0.5-1.1l2.6-1.5c0.7-0.1,1.3,0,1.9,0.3c0.5,0.3,0.6,0.6,0.5,0.9c-0.1,0.4-0.5,0.7-1.1,1
			C249.3,43.4,248.6,43.7,248,43.7L248,43.7z"/>
		<path class="st22" d="M258.7,48.1c0.9-0.5,1.5-1.1,1.6-1.7c0.2-0.5-0.2-1-0.9-1.5c-0.7-0.4-1.5-0.6-2.3-0.5l0.6-0.4l-1.2-0.7
			l-8.2,4.7l1.3,0.8l2.8-1.6c-0.1,0.4,0.3,0.9,0.9,1.3c0.7,0.4,1.5,0.6,2.5,0.5C256.8,49,257.8,48.7,258.7,48.1L258.7,48.1z
			 M255.5,48c-0.6,0.1-1.1,0-1.5-0.3c-0.6-0.3-0.7-0.7-0.5-1.1l2.6-1.5c0.7-0.1,1.3,0,1.9,0.3c0.5,0.3,0.6,0.6,0.5,0.9
			c-0.1,0.4-0.5,0.7-1.1,1C256.8,47.7,256.1,48,255.5,48L255.5,48z"/>
	</g>
</g>
<linearGradient id="SVGID_21_" gradientUnits="userSpaceOnUse" x1="243.32" y1="89.5" x2="243.82" y2="89.5" gradientTransform="matrix(1 0 0 1 0 -2.55)">
	<stop  offset="0" style="stop-color:#5C8EE4"/>
	<stop  offset="1" style="stop-color:#67EAEC"/>
</linearGradient>
<path class="st23" d="M243.6,77.1v19.7"/>
<linearGradient id="SVGID_22_" gradientUnits="userSpaceOnUse" x1="176.9" y1="51.05" x2="309.9" y2="51.05" gradientTransform="matrix(1 0 0 1 0 -2.55)">
	<stop  offset="0" style="stop-color:#5C8EE4"/>
	<stop  offset="1" style="stop-color:#67EAEC"/>
</linearGradient>
<path class="st24" d="M309.9,38.8L243.1,0.2l-66.2,38.3v19.8l66.7,38.5l66.3-38.3V38.8z"/>
<linearGradient id="SVGID_23_" gradientUnits="userSpaceOnUse" x1="309.62" y1="153.35" x2="310.12" y2="153.35" gradientTransform="matrix(1 0 0 1 0 -2.55)">
	<stop  offset="0" style="stop-color:#5C8EE4"/>
	<stop  offset="1" style="stop-color:#67EAEC"/>
</linearGradient>
<path class="st25" d="M309.9,55.8v190"/>
<linearGradient id="SVGID_24_" gradientUnits="userSpaceOnUse" x1="243.49" y1="153.6" x2="243.99" y2="153.6" gradientTransform="matrix(1 0 0 1 0 -2.55)">
	<stop  offset="0" style="stop-color:#5C8EE4"/>
	<stop  offset="1" style="stop-color:#67EAEC"/>
</linearGradient>
<path class="st26" d="M243.7,97v108.1"/>
<linearGradient id="SVGID_25_" gradientUnits="userSpaceOnUse" x1="176.6" y1="117.5" x2="177.1" y2="117.5" gradientTransform="matrix(1 0 0 1 0 -2.55)">
	<stop  offset="0" style="stop-color:#5C8EE4"/>
	<stop  offset="1" style="stop-color:#67EAEC"/>
</linearGradient>
<path class="st27" d="M176.9,58.8v112.3"/>
<path class="st16" d="M243.7,208.5v74.9"/>
<path class="st16" d="M176.9,170.8v71.4"/>
<g>
	<path class="st22" d="M61.6,106.5c0.3-0.5,0.3-1,0-1.5c-0.2-0.5-0.7-0.9-1.4-1.4l-2.4-1.4l-8,4.6l2.4,1.3c0.5,0.4,1.4,0.6,2.4,0.8
		c0.8,0.1,1.8,0.1,2.6,0c1-0.2,1.9-0.5,2.4-0.9l0.4-0.2C60.8,107.5,61.3,107,61.6,106.5L61.6,106.5z M58.1,107.4
		c-0.8,0.5-1.7,0.7-2.5,0.8c-0.9,0-1.6-0.2-2.4-0.6l-0.9-0.5l5.8-3.3l1,0.6c0.7,0.4,1.1,0.9,1,1.3c-0.1,0.5-0.6,1-1.4,1.5
		L58.1,107.4z"/>
	<path class="st22" d="M68.5,108.5l-11,2.9l1.5,0.8l2.5-0.7l3.1,1.8l-1.2,1.4l1.5,0.8l4.9-6.4L68.5,108.5z M63,111.1l4.5-1.2
		l-2.2,2.6L63,111.1z"/>
	<path class="st22" d="M76.3,116.2c0.2-0.5-0.2-1-0.9-1.5c-0.7-0.4-1.5-0.6-2.3-0.5l0.6-0.4l-1.2-0.7l-8.2,4.7l1.3,0.8l2.8-1.6
		c-0.1,0.4,0.3,0.9,0.9,1.3c0.7,0.4,1.5,0.6,2.5,0.5s1.9-0.4,2.8-0.9l0.1-0.1C75.5,117.3,76.1,116.7,76.3,116.2z M71.4,117.7
		c-0.6,0.1-1.1,0-1.5-0.3c-0.6-0.3-0.7-0.7-0.5-1.1l2.6-1.5c0.7-0.1,1.3,0,1.9,0.3c0.5,0.3,0.6,0.6,0.5,0.9c-0.1,0.4-0.5,0.7-1.1,1
		C72.7,117.4,72,117.7,71.4,117.7L71.4,117.7z"/>
	<path class="st22" d="M82.1,122.1c0.9-0.5,1.5-1.1,1.6-1.7c0.2-0.5-0.2-1-0.9-1.5c-0.7-0.4-1.5-0.6-2.3-0.5l0.6-0.4l-1.2-0.7
		l-8.2,4.7l1.3,0.8l2.8-1.6c-0.1,0.4,0.3,0.9,0.9,1.3c0.7,0.4,1.5,0.6,2.5,0.5C80.2,123,81.2,122.7,82.1,122.1L82.1,122.1z
		 M78.9,122c-0.6,0.1-1.1,0-1.5-0.3c-0.6-0.3-0.7-0.7-0.5-1.1l2.6-1.5c0.7-0.1,1.3,0,1.9,0.3c0.5,0.3,0.6,0.6,0.5,0.9
		c-0.1,0.4-0.5,0.7-1.1,1C80.2,121.7,79.5,122,78.9,122L78.9,122z"/>
</g>
</svg>
