<svg xmlns="http://www.w3.org/2000/svg" xmlns:xlink="http://www.w3.org/1999/xlink" viewBox="0 0 310.17 1187.6"><defs><style>.cls-1{isolation:isolate;}.cls-2,.cls-7{fill:url(#linear-gradient);}.cls-3{fill:url(#linear-gradient-2);}.cls-4{fill:url(#linear-gradient-3);}.cls-5{fill:url(#linear-gradient-4);}.cls-6{fill:url(#linear-gradient-5);}.cls-7{opacity:0.35;mix-blend-mode:multiply;}.cls-10,.cls-11,.cls-12,.cls-8,.cls-9{stroke:#000;stroke-width:0.25px;}.cls-10,.cls-11,.cls-12,.cls-13,.cls-14,.cls-15,.cls-16,.cls-18,.cls-19,.cls-24,.cls-26,.cls-27,.cls-28,.cls-29,.cls-30,.cls-31,.cls-32,.cls-37,.cls-39,.cls-40,.cls-41,.cls-42,.cls-43,.cls-8,.cls-9{stroke-linecap:round;stroke-linejoin:round;}.cls-8{fill:url(#linear-gradient-7);}.cls-9{fill:url(#linear-gradient-8);}.cls-10{fill:url(#linear-gradient-9);}.cls-11{fill:url(#linear-gradient-10);}.cls-12{fill:url(#linear-gradient-11);}.cls-13,.cls-15,.cls-16,.cls-18,.cls-19,.cls-24,.cls-26,.cls-27,.cls-28,.cls-29,.cls-30,.cls-31,.cls-32,.cls-37,.cls-39,.cls-40,.cls-41,.cls-42,.cls-43{stroke-width:0.5px;}.cls-13{fill:url(#New_Gradient_Swatch);stroke:url(#gradient12);}.cls-14,.cls-15,.cls-24,.cls-26,.cls-27,.cls-28,.cls-29,.cls-30,.cls-37,.cls-39,.cls-40,.cls-41,.cls-42,.cls-43{fill:none;}.cls-14{stroke:#1a1a1a;stroke-width:0.6px;}.cls-15{stroke:url(#gradient12-2);}.cls-16{fill:url(#New_Gradient_Swatch-2);stroke:url(#gradient12-3);}.cls-17{fill:#fff;}.cls-18{fill:url(#linear-gradient-12);stroke:url(#New_Gradient_Swatch-3);}.cls-19{fill:url(#linear-gradient-13);stroke:url(#New_Gradient_Swatch-4);}.cls-20{fill:url(#New_Gradient_Swatch-5);}.cls-21{fill:url(#New_Gradient_Swatch-6);}.cls-22{fill:url(#New_Gradient_Swatch-7);}.cls-23{fill:url(#New_Gradient_Swatch-8);}.cls-24{stroke:url(#New_Gradient_Swatch-9);}.cls-25,.cls-38{opacity:0.1;}.cls-25{fill:url(#New_Gradient_Swatch-10);}.cls-26,.cls-27,.cls-28,.cls-29,.cls-30,.cls-39,.cls-40,.cls-41,.cls-42,.cls-43{stroke-dasharray:2 3;}.cls-26{stroke:url(#_);}.cls-27{stroke:url(#New_Gradient_Swatch-11);}.cls-28{stroke:url(#New_Gradient_Swatch-12);}.cls-29{stroke:url(#New_Gradient_Swatch-13);}.cls-30{stroke:url(#_2);}.cls-31{fill:url(#linear-gradient-14);stroke:url(#New_Gradient_Swatch-14);}.cls-32{fill:url(#linear-gradient-15);stroke:url(#New_Gradient_Swatch-15);}.cls-33{fill:url(#New_Gradient_Swatch-16);}.cls-34{fill:url(#New_Gradient_Swatch-17);}.cls-35{fill:url(#New_Gradient_Swatch-18);}.cls-36{fill:url(#New_Gradient_Swatch-19);}.cls-37{stroke:url(#New_Gradient_Swatch-20);}.cls-38{fill:url(#New_Gradient_Swatch-21);}.cls-39{stroke:url(#New_Gradient_Swatch-22);}.cls-40{stroke:url(#New_Gradient_Swatch-23);}.cls-41{stroke:url(#New_Gradient_Swatch-24);}.cls-42{stroke:url(#_3);}.cls-43{stroke:url(#_4);}</style><linearGradient id="linear-gradient" x1="-87.41" y1="666.46" x2="397.59" y2="946.47" gradientUnits="userSpaceOnUse"><stop offset="0" stop-color="#2d3438"/><stop offset="1" stop-color="#1a1a1a"/></linearGradient><linearGradient id="linear-gradient-2" x1="-126.07" y1="733.01" x2="126.67" y2="878.93" xlink:href="#linear-gradient"/><linearGradient id="linear-gradient-3" x1="29.22" y1="822.6" x2="281.95" y2="968.51" xlink:href="#linear-gradient"/><linearGradient id="linear-gradient-4" x1="183.51" y1="734.01" x2="436.24" y2="879.92" xlink:href="#linear-gradient"/><linearGradient id="linear-gradient-5" x1="38.95" y1="447.59" x2="271.22" y2="581.69" xlink:href="#linear-gradient"/><linearGradient id="linear-gradient-7" x1="5404.07" y1="407.16" x2="5713.44" y2="407.16" gradientTransform="matrix(-1, 0, 0, 1, 5713.84, 0)" gradientUnits="userSpaceOnUse"><stop offset="0" stop-color="#2e3d4a"/><stop offset="1" stop-color="#232329"/></linearGradient><linearGradient id="linear-gradient-8" x1="5403.97" y1="406.66" x2="5403.97" y2="406.66" xlink:href="#linear-gradient-7"/><linearGradient id="linear-gradient-9" x1="5559.26" y1="496.25" x2="5559.26" y2="496.25" xlink:href="#linear-gradient-7"/><linearGradient id="linear-gradient-10" x1="5713.54" y1="407.66" x2="5713.54" y2="407.66" xlink:href="#linear-gradient-7"/><linearGradient id="linear-gradient-11" x1="5558.76" y1="476.83" x2="5558.76" y2="298.22" xlink:href="#linear-gradient-7"/><linearGradient id="New_Gradient_Swatch" x1="0.4" y1="268.92" x2="309.77" y2="268.92" gradientUnits="userSpaceOnUse"><stop offset="0" stop-color="#5c8ee4"/><stop offset="1" stop-color="#67eaec"/></linearGradient><linearGradient id="gradient12" x1="0.15" y1="268.92" x2="310.02" y2="268.92" xlink:href="#linear-gradient"/><linearGradient id="gradient12-2" x1="155.33" y1="358.01" x2="155.83" y2="358.01" xlink:href="#linear-gradient"/><linearGradient id="New_Gradient_Swatch-2" x1="0.4" y1="245.03" x2="309.77" y2="245.03" xlink:href="#New_Gradient_Swatch"/><linearGradient id="gradient12-3" x1="0.15" y1="245.03" x2="310.02" y2="245.03" xlink:href="#linear-gradient"/><linearGradient id="linear-gradient-12" x1="0.3" y1="122.47" x2="133.32" y2="122.47" xlink:href="#linear-gradient"/><linearGradient id="New_Gradient_Swatch-3" x1="0.05" y1="122.47" x2="133.57" y2="122.47" xlink:href="#New_Gradient_Swatch"/><linearGradient id="linear-gradient-13" x1="0.3" y1="112.6" x2="133.32" y2="112.6" xlink:href="#linear-gradient"/><linearGradient id="New_Gradient_Swatch-4" x1="0.05" y1="112.6" x2="133.57" y2="112.6" xlink:href="#New_Gradient_Swatch"/><linearGradient id="New_Gradient_Swatch-5" x1="47.32" y1="120.41" x2="59.24" y2="120.41" xlink:href="#New_Gradient_Swatch"/><linearGradient id="New_Gradient_Swatch-6" x1="58.02" y1="115.88" x2="70.27" y2="115.88" xlink:href="#New_Gradient_Swatch"/><linearGradient id="New_Gradient_Swatch-7" x1="65.99" y1="112.06" x2="75.83" y2="112.06" xlink:href="#New_Gradient_Swatch"/><linearGradient id="New_Gradient_Swatch-8" x1="73.47" y1="107.74" x2="83.31" y2="107.74" xlink:href="#New_Gradient_Swatch"/><linearGradient id="New_Gradient_Swatch-9" x1="66.77" y1="160.87" x2="67.27" y2="160.87" xlink:href="#New_Gradient_Swatch"/><linearGradient id="New_Gradient_Swatch-10" x1="0.3" y1="122.47" x2="133.32" y2="122.47" xlink:href="#New_Gradient_Swatch"/><linearGradient id="_" x1="66.48" y1="244.62" x2="67.13" y2="244.62" xlink:href="#linear-gradient"/><linearGradient id="New_Gradient_Swatch-11" x1="66.48" y1="187.88" x2="67.13" y2="187.88" xlink:href="#New_Gradient_Swatch"/><linearGradient id="New_Gradient_Swatch-12" x1="132.62" y1="150.39" x2="133.27" y2="150.39" xlink:href="#New_Gradient_Swatch"/><linearGradient id="New_Gradient_Swatch-13" x1="0.05" y1="189.46" x2="0.55" y2="189.46" xlink:href="#New_Gradient_Swatch"/><linearGradient id="_2" x1="132.62" y1="206.5" x2="133.27" y2="206.5" xlink:href="#linear-gradient"/><linearGradient id="linear-gradient-14" x1="176.85" y1="48.53" x2="309.87" y2="48.53" xlink:href="#linear-gradient"/><linearGradient id="New_Gradient_Swatch-14" x1="176.6" y1="48.53" x2="310.12" y2="48.53" xlink:href="#New_Gradient_Swatch"/><linearGradient id="linear-gradient-15" x1="176.85" y1="38.65" x2="309.87" y2="38.65" xlink:href="#linear-gradient"/><linearGradient id="New_Gradient_Swatch-15" x1="176.6" y1="38.65" x2="310.12" y2="38.65" xlink:href="#New_Gradient_Swatch"/><linearGradient id="New_Gradient_Swatch-16" x1="223.87" y1="46.46" x2="235.79" y2="46.46" xlink:href="#New_Gradient_Swatch"/><linearGradient id="New_Gradient_Swatch-17" x1="234.57" y1="41.94" x2="246.83" y2="41.94" xlink:href="#New_Gradient_Swatch"/><linearGradient id="New_Gradient_Swatch-18" x1="242.55" y1="38.11" x2="252.38" y2="38.11" xlink:href="#New_Gradient_Swatch"/><linearGradient id="New_Gradient_Swatch-19" x1="250.03" y1="33.79" x2="259.87" y2="33.79" xlink:href="#New_Gradient_Swatch"/><linearGradient id="New_Gradient_Swatch-20" x1="243.32" y1="86.93" x2="243.82" y2="86.93" xlink:href="#New_Gradient_Swatch"/><linearGradient id="New_Gradient_Swatch-21" x1="176.85" y1="48.53" x2="309.87" y2="48.53" xlink:href="#New_Gradient_Swatch"/><linearGradient id="New_Gradient_Swatch-22" x1="309.62" y1="150.77" x2="310.12" y2="150.77" xlink:href="#New_Gradient_Swatch"/><linearGradient id="New_Gradient_Swatch-23" x1="243.49" y1="151.04" x2="243.99" y2="151.04" xlink:href="#New_Gradient_Swatch"/><linearGradient id="New_Gradient_Swatch-24" x1="176.6" y1="114.95" x2="177.1" y2="114.95" xlink:href="#New_Gradient_Swatch"/><linearGradient id="_3" x1="243.49" y1="245.99" x2="243.99" y2="245.99" xlink:href="#linear-gradient"/><linearGradient id="_4" x1="176.6" y1="206.5" x2="177.1" y2="206.5" xlink:href="#linear-gradient"/></defs><title>Asset 47</title><g class="cls-1"><g id="Layer_2" data-name="Layer 2"><g id="ilus"><polygon class="cls-2" points="309.77 514.92 154.6 425.33 0.4 514.36 0.4 1098.01 155.57 1187.6 309.77 1098.57 309.77 514.92"/><line class="cls-3" x1="0.3" y1="514.14" x2="0.3" y2="1097.8"/><line class="cls-4" x1="155.58" y1="603.73" x2="155.58" y2="1187.38"/><line class="cls-5" x1="309.87" y1="515.14" x2="309.87" y2="1098.79"/><polygon class="cls-6" points="155.57 603.95 0.4 514.36 154.6 425.33 309.77 514.92 155.57 603.95"/><polygon class="cls-7" points="309.77 514.92 154.6 425.33 0.4 514.36 0.4 1098.01 155.57 1187.6 309.77 1098.57 309.77 514.92"/><polygon class="cls-8" points="0.4 387.81 155.57 298.22 309.77 387.25 309.77 426.52 154.6 516.1 0.4 427.07 0.4 387.81"/><line class="cls-9" x1="309.87" y1="387.03" x2="309.87" y2="426.3"/><line class="cls-10" x1="154.59" y1="476.62" x2="154.59" y2="515.88"/><line class="cls-11" x1="0.3" y1="388.03" x2="0.3" y2="427.29"/><polygon class="cls-12" points="154.6 476.83 309.77 387.25 155.57 298.22 0.4 387.81 154.6 476.83"/><polygon class="cls-13" points="309.77 245.31 154.6 155.72 0.4 244.75 0.4 292.53 155.57 382.12 309.77 293.09 309.77 245.31"/><line class="cls-14" x1="0.3" y1="244.53" x2="0.3" y2="292.31"/><line class="cls-15" x1="155.58" y1="334.12" x2="155.58" y2="381.9"/><line class="cls-14" x1="309.87" y1="245.53" x2="309.87" y2="293.31"/><polygon class="cls-16" points="155.57 334.34 0.4 244.75 154.6 155.72 309.77 245.31 155.57 334.34"/><polygon class="cls-17" points="127.64 266.75 145.78 256.27 143.61 255.02 125.47 265.49 127.64 266.75"/><path class="cls-17" d="M139.5,238.26c-2.85,1.65-4.21,3.51-4.05,5.55s1.53,3.79,4.07,5.26a19,19,0,0,0,9.11,2.35,18,18,0,0,0,9.61-2.34c2.82-1.63,4.18-3.49,4-5.54s-1.51-3.8-4.05-5.27a19,19,0,0,0-9.13-2.34A18,18,0,0,0,139.5,238.26Zm16.61,9.59a12.09,12.09,0,0,1-6.94,1.46,15.54,15.54,0,0,1-6.81-1.87,6,6,0,0,1-3.24-3.93c-.29-1.52.55-2.87,2.52-4a12.09,12.09,0,0,1,6.94-1.46,15.55,15.55,0,0,1,6.81,1.87,6,6,0,0,1,3.24,3.93C158.93,245.36,158.08,246.71,156.11,247.85Z"/><path class="cls-17" d="M178.11,227.63a17,17,0,0,0-4.81.91c-1.54.53-3.06,1.08-4.52,1.64a22.48,22.48,0,0,1-4.09,1.18,4.34,4.34,0,0,1-3-.32c-1-.56-1.26-1.24-.83-2a6.45,6.45,0,0,1,2.5-2.24c2.92-1.68,5.43-2.09,7.68-1.24l.11,0,2.62-1.51-.14-.06a10.49,10.49,0,0,0-5.92-.71,18.57,18.57,0,0,0-6.39,2.35,9.07,9.07,0,0,0-3.87,3.69c-.62,1.33-.11,2.48,1.52,3.43a7.56,7.56,0,0,0,4.27.94,16.39,16.39,0,0,0,4.69-1c1.51-.55,3-1.11,4.45-1.68a18.49,18.49,0,0,1,4.19-1.14,5.07,5.07,0,0,1,3.29.48c1.12.65,1.53,1.39,1.21,2.22a5.25,5.25,0,0,1-2.43,2.38,16.89,16.89,0,0,1-5.29,2.09,6.61,6.61,0,0,1-4.61-.83l-.11-.06-2.71,1.56.11.06a10.38,10.38,0,0,0,6.7,1.28,19.86,19.86,0,0,0,7.3-2.6c2.35-1.36,3.86-2.74,4.47-4.11s-.09-2.67-2.09-3.82A7.8,7.8,0,0,0,178.11,227.63Z"/><polygon class="cls-18" points="133.32 112.72 66.6 74.2 0.3 112.47 0.3 132.23 67.02 170.75 133.32 132.47 133.32 112.72"/><polygon class="cls-19" points="67.02 150.99 0.3 112.47 66.6 74.2 133.32 112.72 67.02 150.99"/><path class="cls-20" d="M55.29,123.85l-8-4.6,2.37-1.37a6.78,6.78,0,0,1,2.36-.82,7.76,7.76,0,0,1,2.61,0,7.51,7.51,0,0,1,2.43.88l.4.23A3.85,3.85,0,0,1,59,119.62a1.56,1.56,0,0,1,0,1.51,3.5,3.5,0,0,1-1.46,1.38Zm-5.46-4.76,5.75,3.32.91-.52q1.1-.63,1-1.37T56.13,119l-.44-.26a5.69,5.69,0,0,0-2.55-.82,4.13,4.13,0,0,0-2.33.56Z"/><path class="cls-21" d="M66.31,115.34l-3.11,1.79,1.2,1.45-1.45.84L58,113.07l1.25-.72,11,2.85-1.46.84Zm-3.83.92,2.32-1.34-4.47-1.24Z"/><path class="cls-22" d="M74.24,109.56q1.37.79,1.56,1.63t-.87,1.45a4.14,4.14,0,0,1-2.21.54l2.81,1.62-1.34.77L66,110.83l1.23-.71.66.32q-.12-.75.89-1.34a4.27,4.27,0,0,1,2.52-.52,6.72,6.72,0,0,1,2.86.94Zm-1.45.7a4.48,4.48,0,0,0-1.76-.61,2.46,2.46,0,0,0-1.54.29q-.82.47-.51,1.07l2.63,1.52a2.7,2.7,0,0,0,1.88-.29q.64-.37.49-.87T72.79,110.26Z"/><path class="cls-23" d="M81.72,105.24q1.37.79,1.56,1.63t-.87,1.45a4.14,4.14,0,0,1-2.21.54L83,110.47l-1.34.77-8.2-4.73,1.24-.71.66.32q-.12-.75.89-1.34a4.27,4.27,0,0,1,2.52-.52,6.72,6.72,0,0,1,2.86.94Zm-1.45.7a4.48,4.48,0,0,0-1.76-.61,2.47,2.47,0,0,0-1.54.29q-.82.47-.51,1.07l2.63,1.52a2.7,2.7,0,0,0,1.88-.29q.64-.37.49-.87T80.27,105.94Z"/><line class="cls-24" x1="67.02" y1="150.99" x2="67.02" y2="170.75"/><polygon class="cls-25" points="133.32 112.72 66.6 74.2 0.3 112.47 0.3 132.23 67.02 170.75 133.32 132.47 133.32 112.72"/><line class="cls-26" x1="66.88" y1="206.85" x2="66.73" y2="282.38"/><line class="cls-27" x1="66.88" y1="170.92" x2="66.73" y2="204.85"/><line class="cls-28" x1="133.02" y1="133.93" x2="132.87" y2="166.85"/><line class="cls-29" x1="0.3" y1="133.15" x2="0.3" y2="245.76"/><line class="cls-30" x1="133.02" y1="168.73" x2="132.87" y2="244.27"/><polygon class="cls-31" points="309.87 38.77 243.15 0.25 176.85 38.53 176.85 58.28 243.57 96.81 309.87 58.53 309.87 38.77"/><polygon class="cls-32" points="243.57 77.05 176.85 38.53 243.15 0.25 309.87 38.77 243.57 77.05"/><path class="cls-33" d="M231.84,49.9l-8-4.6,2.37-1.37a6.78,6.78,0,0,1,2.36-.82,7.76,7.76,0,0,1,2.61,0,7.51,7.51,0,0,1,2.43.88l.4.23a3.85,3.85,0,0,1,1.54,1.41,1.56,1.56,0,0,1,0,1.51,3.5,3.5,0,0,1-1.46,1.38Zm-5.46-4.76,5.75,3.32.91-.52q1.1-.63,1-1.37t-1.36-1.47l-.44-.26a5.69,5.69,0,0,0-2.55-.82,4.13,4.13,0,0,0-2.33.56Z"/><path class="cls-34" d="M242.86,41.4l-3.11,1.79,1.2,1.45-1.45.84-4.94-6.35,1.25-.72,11,2.85-1.46.84Zm-3.83.92L241.35,41l-4.47-1.24Z"/><path class="cls-35" d="M250.79,35.61q1.37.79,1.56,1.63t-.87,1.45a4.14,4.14,0,0,1-2.21.54l2.81,1.62-1.34.77-8.2-4.73,1.23-.71.66.32q-.12-.75.89-1.34a4.27,4.27,0,0,1,2.52-.52,6.72,6.72,0,0,1,2.86.94Zm-1.45.7a4.48,4.48,0,0,0-1.76-.61A2.46,2.46,0,0,0,246,36q-.82.47-.51,1.07l2.63,1.52a2.7,2.7,0,0,0,1.88-.29q.64-.37.49-.87T249.34,36.31Z"/><path class="cls-36" d="M258.27,31.29q1.37.79,1.56,1.63T259,34.37a4.14,4.14,0,0,1-2.21.54l2.81,1.62-1.34.77L250,32.56l1.24-.71.66.32q-.12-.75.89-1.34a4.27,4.27,0,0,1,2.52-.52,6.72,6.72,0,0,1,2.86.94Zm-1.45.7a4.48,4.48,0,0,0-1.76-.61,2.47,2.47,0,0,0-1.54.29q-.82.47-.51,1.07l2.63,1.52a2.7,2.7,0,0,0,1.88-.29q.64-.37.49-.87T256.82,32Z"/><line class="cls-37" x1="243.57" y1="77.05" x2="243.57" y2="96.8"/><polygon class="cls-38" points="309.87 38.77 243.15 0.25 176.85 38.53 176.85 58.28 243.57 96.81 309.87 58.53 309.87 38.77"/><line class="cls-39" x1="309.87" y1="55.77" x2="309.87" y2="245.76"/><line class="cls-40" x1="243.74" y1="96.98" x2="243.74" y2="205.1"/><line class="cls-41" x1="176.85" y1="58.77" x2="176.85" y2="171.12"/><line class="cls-42" x1="243.74" y1="208.53" x2="243.74" y2="283.44"/><line class="cls-43" x1="176.85" y1="170.76" x2="176.85" y2="242.24"/></g></g></g></svg>