<svg xmlns="http://www.w3.org/2000/svg" xmlns:xlink="http://www.w3.org/1999/xlink" viewBox="0 0 310.17 1163.54"><defs><style>.cls-1{isolation:isolate;}.cls-2,.cls-7{fill:url(#linear-gradient);}.cls-3{fill:url(#linear-gradient-2);}.cls-4{fill:url(#linear-gradient-3);}.cls-5{fill:url(#linear-gradient-4);}.cls-6{fill:url(#linear-gradient-5);}.cls-7{opacity:0.35;mix-blend-mode:multiply;}.cls-10,.cls-11,.cls-12,.cls-8,.cls-9{stroke:#000;stroke-width:0.25px;}.cls-10,.cls-11,.cls-12,.cls-13,.cls-14,.cls-15,.cls-16,.cls-18,.cls-19,.cls-20,.cls-21,.cls-22,.cls-27,.cls-29,.cls-30,.cls-31,.cls-32,.cls-33,.cls-34,.cls-35,.cls-40,.cls-42,.cls-43,.cls-44,.cls-45,.cls-46,.cls-47,.cls-48,.cls-53,.cls-8,.cls-9{stroke-linecap:round;stroke-linejoin:round;}.cls-8{fill:url(#linear-gradient-7);}.cls-9{fill:url(#linear-gradient-8);}.cls-10{fill:url(#linear-gradient-9);}.cls-11{fill:url(#linear-gradient-10);}.cls-12{fill:url(#linear-gradient-11);}.cls-13,.cls-15,.cls-16,.cls-18,.cls-19,.cls-20,.cls-21,.cls-22,.cls-27,.cls-29,.cls-30,.cls-31,.cls-32,.cls-33,.cls-34,.cls-35,.cls-40,.cls-42,.cls-43,.cls-44,.cls-45,.cls-46,.cls-47,.cls-48,.cls-53{stroke-width:0.5px;}.cls-13{fill:url(#New_Gradient_Swatch);stroke:url(#gradient12);}.cls-14,.cls-15,.cls-18,.cls-19,.cls-20,.cls-27,.cls-29,.cls-30,.cls-31,.cls-32,.cls-33,.cls-40,.cls-42,.cls-43,.cls-44,.cls-45,.cls-46,.cls-53{fill:none;}.cls-14{stroke:#1a1a1a;stroke-width:0.6px;}.cls-15{stroke:url(#gradient12-2);}.cls-16{fill:url(#New_Gradient_Swatch-2);stroke:url(#gradient12-3);}.cls-17{fill:#fff;}.cls-18,.cls-19,.cls-20,.cls-29,.cls-30,.cls-31,.cls-32,.cls-33,.cls-42,.cls-43,.cls-44,.cls-45,.cls-46{stroke-dasharray:2 3;}.cls-18{stroke:url(#New_Gradient_Swatch-3);}.cls-19{stroke:url(#New_Gradient_Swatch-4);}.cls-20{stroke:url(#New_Gradient_Swatch-5);}.cls-21{fill:url(#linear-gradient-12);stroke:url(#New_Gradient_Swatch-6);}.cls-22{fill:url(#linear-gradient-13);stroke:url(#New_Gradient_Swatch-7);}.cls-23{fill:url(#New_Gradient_Swatch-8);}.cls-24{fill:url(#New_Gradient_Swatch-9);}.cls-25{fill:url(#New_Gradient_Swatch-10);}.cls-26{fill:url(#New_Gradient_Swatch-11);}.cls-27{stroke:url(#New_Gradient_Swatch-12);}.cls-28,.cls-41,.cls-54{opacity:0.1;}.cls-28{fill:url(#New_Gradient_Swatch-13);}.cls-29{stroke:url(#_);}.cls-30{stroke:url(#New_Gradient_Swatch-14);}.cls-31{stroke:url(#New_Gradient_Swatch-15);}.cls-32{stroke:url(#New_Gradient_Swatch-16);}.cls-33{stroke:url(#_2);}.cls-34{fill:url(#linear-gradient-14);stroke:url(#New_Gradient_Swatch-17);}.cls-35{fill:url(#linear-gradient-15);stroke:url(#New_Gradient_Swatch-18);}.cls-36{fill:url(#New_Gradient_Swatch-19);}.cls-37{fill:url(#New_Gradient_Swatch-20);}.cls-38{fill:url(#New_Gradient_Swatch-21);}.cls-39{fill:url(#New_Gradient_Swatch-22);}.cls-40{stroke:url(#New_Gradient_Swatch-23);}.cls-41{fill:url(#New_Gradient_Swatch-24);}.cls-42{stroke:url(#New_Gradient_Swatch-25);}.cls-43{stroke:url(#New_Gradient_Swatch-26);}.cls-44{stroke:url(#New_Gradient_Swatch-27);}.cls-45{stroke:url(#_3);}.cls-46{stroke:url(#_4);}.cls-47{fill:url(#linear-gradient-16);stroke:url(#New_Gradient_Swatch-28);}.cls-48{fill:url(#linear-gradient-17);stroke:url(#New_Gradient_Swatch-29);}.cls-49{fill:url(#New_Gradient_Swatch-30);}.cls-50{fill:url(#New_Gradient_Swatch-31);}.cls-51{fill:url(#New_Gradient_Swatch-32);}.cls-52{fill:url(#New_Gradient_Swatch-33);}.cls-53{stroke:url(#New_Gradient_Swatch-34);}.cls-54{fill:url(#New_Gradient_Swatch-35);}</style><linearGradient id="linear-gradient" x1="-57.67" y1="728.25" x2="367.85" y2="973.93" gradientUnits="userSpaceOnUse"><stop offset="0" stop-color="#2d3438"/><stop offset="1" stop-color="#1a1a1a"/></linearGradient><linearGradient id="linear-gradient-2" x1="-96.33" y1="794.81" x2="96.93" y2="906.38" xlink:href="#linear-gradient"/><linearGradient id="linear-gradient-3" x1="58.96" y1="884.39" x2="252.21" y2="995.97" xlink:href="#linear-gradient"/><linearGradient id="linear-gradient-4" x1="213.25" y1="795.8" x2="406.5" y2="907.37" xlink:href="#linear-gradient"/><linearGradient id="linear-gradient-5" x1="38.95" y1="560.89" x2="271.22" y2="694.99" xlink:href="#linear-gradient"/><linearGradient id="linear-gradient-7" x1="4495.05" y1="520.47" x2="4804.42" y2="520.47" gradientTransform="matrix(-1, 0, 0, 1, 4804.82, 0)" gradientUnits="userSpaceOnUse"><stop offset="0" stop-color="#2e3d4a"/><stop offset="1" stop-color="#232329"/></linearGradient><linearGradient id="linear-gradient-8" x1="4494.95" y1="519.97" x2="4494.95" y2="519.97" xlink:href="#linear-gradient-7"/><linearGradient id="linear-gradient-9" x1="4650.23" y1="609.56" x2="4650.23" y2="609.56" xlink:href="#linear-gradient-7"/><linearGradient id="linear-gradient-10" x1="4804.52" y1="520.96" x2="4804.52" y2="520.96" xlink:href="#linear-gradient-7"/><linearGradient id="linear-gradient-11" x1="4649.73" y1="590.14" x2="4649.73" y2="411.53" xlink:href="#linear-gradient-7"/><linearGradient id="New_Gradient_Swatch" x1="0.4" y1="382.22" x2="309.77" y2="382.22" gradientUnits="userSpaceOnUse"><stop offset="0" stop-color="#5c8ee4"/><stop offset="1" stop-color="#67eaec"/></linearGradient><linearGradient id="gradient12" x1="0.15" y1="382.22" x2="310.02" y2="382.22" xlink:href="#linear-gradient"/><linearGradient id="gradient12-2" x1="155.33" y1="471.31" x2="155.83" y2="471.31" xlink:href="#linear-gradient"/><linearGradient id="New_Gradient_Swatch-2" x1="0.4" y1="358.33" x2="309.77" y2="358.33" xlink:href="#New_Gradient_Swatch"/><linearGradient id="gradient12-3" x1="0.15" y1="358.33" x2="310.02" y2="358.33" xlink:href="#linear-gradient"/><linearGradient id="New_Gradient_Swatch-3" x1="221.35" y1="183.22" x2="221.85" y2="183.22" xlink:href="#New_Gradient_Swatch"/><linearGradient id="New_Gradient_Swatch-4" x1="88.33" y1="183.22" x2="88.83" y2="183.22" xlink:href="#New_Gradient_Swatch"/><linearGradient id="New_Gradient_Swatch-5" x1="154.84" y1="221.66" x2="155.34" y2="221.66" xlink:href="#New_Gradient_Swatch"/><linearGradient id="linear-gradient-12" x1="0.3" y1="235.78" x2="133.32" y2="235.78" xlink:href="#linear-gradient"/><linearGradient id="New_Gradient_Swatch-6" x1="0.05" y1="235.78" x2="133.57" y2="235.78" xlink:href="#New_Gradient_Swatch"/><linearGradient id="linear-gradient-13" x1="0.3" y1="225.9" x2="133.32" y2="225.9" xlink:href="#linear-gradient"/><linearGradient id="New_Gradient_Swatch-7" x1="0.05" y1="225.9" x2="133.57" y2="225.9" xlink:href="#New_Gradient_Swatch"/><linearGradient id="New_Gradient_Swatch-8" x1="47.32" y1="233.71" x2="59.24" y2="233.71" xlink:href="#New_Gradient_Swatch"/><linearGradient id="New_Gradient_Swatch-9" x1="58.02" y1="229.19" x2="70.27" y2="229.19" xlink:href="#New_Gradient_Swatch"/><linearGradient id="New_Gradient_Swatch-10" x1="65.99" y1="225.37" x2="75.83" y2="225.37" xlink:href="#New_Gradient_Swatch"/><linearGradient id="New_Gradient_Swatch-11" x1="73.47" y1="221.05" x2="83.31" y2="221.05" xlink:href="#New_Gradient_Swatch"/><linearGradient id="New_Gradient_Swatch-12" x1="66.77" y1="274.18" x2="67.27" y2="274.18" xlink:href="#New_Gradient_Swatch"/><linearGradient id="New_Gradient_Swatch-13" x1="0.3" y1="235.78" x2="133.32" y2="235.78" xlink:href="#New_Gradient_Swatch"/><linearGradient id="_" x1="66.48" y1="357.92" x2="67.13" y2="357.92" xlink:href="#linear-gradient"/><linearGradient id="New_Gradient_Swatch-14" x1="66.48" y1="301.19" x2="67.13" y2="301.19" xlink:href="#New_Gradient_Swatch"/><linearGradient id="New_Gradient_Swatch-15" x1="132.62" y1="263.69" x2="133.27" y2="263.69" xlink:href="#New_Gradient_Swatch"/><linearGradient id="New_Gradient_Swatch-16" x1="0.05" y1="302.76" x2="0.55" y2="302.76" xlink:href="#New_Gradient_Swatch"/><linearGradient id="_2" x1="132.62" y1="319.81" x2="133.27" y2="319.81" xlink:href="#linear-gradient"/><linearGradient id="linear-gradient-14" x1="176.85" y1="161.83" x2="309.87" y2="161.83" xlink:href="#linear-gradient"/><linearGradient id="New_Gradient_Swatch-17" x1="176.6" y1="161.83" x2="310.12" y2="161.83" xlink:href="#New_Gradient_Swatch"/><linearGradient id="linear-gradient-15" x1="176.85" y1="151.95" x2="309.87" y2="151.95" xlink:href="#linear-gradient"/><linearGradient id="New_Gradient_Swatch-18" x1="176.6" y1="151.95" x2="310.12" y2="151.95" xlink:href="#New_Gradient_Swatch"/><linearGradient id="New_Gradient_Swatch-19" x1="223.87" y1="159.77" x2="235.79" y2="159.77" xlink:href="#New_Gradient_Swatch"/><linearGradient id="New_Gradient_Swatch-20" x1="234.57" y1="155.24" x2="246.83" y2="155.24" xlink:href="#New_Gradient_Swatch"/><linearGradient id="New_Gradient_Swatch-21" x1="242.55" y1="151.42" x2="252.38" y2="151.42" xlink:href="#New_Gradient_Swatch"/><linearGradient id="New_Gradient_Swatch-22" x1="250.03" y1="147.1" x2="259.87" y2="147.1" xlink:href="#New_Gradient_Swatch"/><linearGradient id="New_Gradient_Swatch-23" x1="243.32" y1="200.23" x2="243.82" y2="200.23" xlink:href="#New_Gradient_Swatch"/><linearGradient id="New_Gradient_Swatch-24" x1="176.85" y1="161.83" x2="309.87" y2="161.83" xlink:href="#New_Gradient_Swatch"/><linearGradient id="New_Gradient_Swatch-25" x1="309.62" y1="264.07" x2="310.12" y2="264.07" xlink:href="#New_Gradient_Swatch"/><linearGradient id="New_Gradient_Swatch-26" x1="243.49" y1="264.34" x2="243.99" y2="264.34" xlink:href="#New_Gradient_Swatch"/><linearGradient id="New_Gradient_Swatch-27" x1="176.6" y1="228.25" x2="177.1" y2="228.25" xlink:href="#New_Gradient_Swatch"/><linearGradient id="_3" x1="243.49" y1="359.29" x2="243.99" y2="359.29" xlink:href="#linear-gradient"/><linearGradient id="_4" x1="176.6" y1="319.81" x2="177.1" y2="319.81" xlink:href="#linear-gradient"/><linearGradient id="linear-gradient-16" x1="88.58" y1="48.53" x2="221.6" y2="48.53" xlink:href="#linear-gradient"/><linearGradient id="New_Gradient_Swatch-28" x1="88.33" y1="48.53" x2="221.85" y2="48.53" xlink:href="#New_Gradient_Swatch"/><linearGradient id="linear-gradient-17" x1="88.58" y1="38.65" x2="221.6" y2="38.65" xlink:href="#linear-gradient"/><linearGradient id="New_Gradient_Swatch-29" x1="88.33" y1="38.65" x2="221.85" y2="38.65" xlink:href="#New_Gradient_Swatch"/><linearGradient id="New_Gradient_Swatch-30" x1="135.59" y1="46.46" x2="147.51" y2="46.46" xlink:href="#New_Gradient_Swatch"/><linearGradient id="New_Gradient_Swatch-31" x1="146.3" y1="41.94" x2="158.55" y2="41.94" xlink:href="#New_Gradient_Swatch"/><linearGradient id="New_Gradient_Swatch-32" x1="154.27" y1="38.11" x2="164.11" y2="38.11" xlink:href="#New_Gradient_Swatch"/><linearGradient id="New_Gradient_Swatch-33" x1="161.75" y1="33.79" x2="171.59" y2="33.79" xlink:href="#New_Gradient_Swatch"/><linearGradient id="New_Gradient_Swatch-34" x1="155.04" y1="86.93" x2="155.54" y2="86.93" xlink:href="#New_Gradient_Swatch"/><linearGradient id="New_Gradient_Swatch-35" x1="88.58" y1="48.53" x2="221.6" y2="48.53" xlink:href="#New_Gradient_Swatch"/></defs><title>Asset 46</title><g class="cls-1"><g id="Layer_2" data-name="Layer 2"><g id="ilus"><polygon class="cls-2" points="309.77 628.22 154.6 538.64 0.4 627.66 0.4 1073.96 155.57 1163.54 309.77 1074.52 309.77 628.22"/><line class="cls-3" x1="0.3" y1="627.45" x2="0.3" y2="1073.74"/><line class="cls-4" x1="155.58" y1="717.03" x2="155.58" y2="1163.33"/><line class="cls-5" x1="309.87" y1="628.44" x2="309.87" y2="1074.73"/><polygon class="cls-6" points="155.57 717.25 0.4 627.66 154.6 538.64 309.77 628.22 155.57 717.25"/><polygon class="cls-7" points="309.77 628.22 154.6 538.64 0.4 627.66 0.4 1073.96 155.57 1163.54 309.77 1074.52 309.77 628.22"/><polygon class="cls-8" points="0.4 501.11 155.57 411.53 309.77 500.55 309.77 539.82 154.6 629.41 0.4 540.38 0.4 501.11"/><line class="cls-9" x1="309.87" y1="500.34" x2="309.87" y2="539.6"/><line class="cls-10" x1="154.59" y1="589.92" x2="154.59" y2="629.19"/><line class="cls-11" x1="0.3" y1="501.33" x2="0.3" y2="540.6"/><polygon class="cls-12" points="154.6 590.14 309.77 500.55 155.57 411.53 0.4 501.11 154.6 590.14"/><polygon class="cls-13" points="309.77 358.61 154.6 269.03 0.4 358.06 0.4 405.83 155.57 495.42 309.77 406.39 309.77 358.61"/><line class="cls-14" x1="0.3" y1="357.84" x2="0.3" y2="405.62"/><line class="cls-15" x1="155.58" y1="447.42" x2="155.58" y2="495.2"/><line class="cls-14" x1="309.87" y1="358.83" x2="309.87" y2="406.61"/><polygon class="cls-16" points="155.57 447.64 0.4 358.06 154.6 269.03 309.77 358.61 155.57 447.64"/><polygon class="cls-17" points="127.64 380.05 145.78 369.58 143.61 368.33 125.47 378.8 127.64 380.05"/><path class="cls-17" d="M139.5,351.56c-2.85,1.65-4.21,3.51-4.05,5.55s1.53,3.79,4.07,5.26a19,19,0,0,0,9.11,2.35,18,18,0,0,0,9.61-2.34c2.82-1.63,4.18-3.49,4-5.54s-1.51-3.8-4.05-5.27a19,19,0,0,0-9.13-2.34A18,18,0,0,0,139.5,351.56Zm16.61,9.59a12.09,12.09,0,0,1-6.94,1.46,15.54,15.54,0,0,1-6.81-1.87,6,6,0,0,1-3.24-3.93c-.29-1.52.55-2.87,2.52-4a12.09,12.09,0,0,1,6.94-1.46,15.55,15.55,0,0,1,6.81,1.87,6,6,0,0,1,3.24,3.93C158.93,358.67,158.08,360,156.11,361.15Z"/><path class="cls-17" d="M178.11,340.93a17,17,0,0,0-4.81.91c-1.54.53-3.06,1.08-4.52,1.64a22.48,22.48,0,0,1-4.09,1.18,4.34,4.34,0,0,1-3-.32c-1-.56-1.26-1.24-.83-2a6.45,6.45,0,0,1,2.5-2.24c2.92-1.68,5.43-2.09,7.68-1.24l.11,0,2.62-1.51-.14-.06a10.49,10.49,0,0,0-5.92-.71,18.57,18.57,0,0,0-6.39,2.35,9.07,9.07,0,0,0-3.87,3.69c-.62,1.33-.11,2.48,1.52,3.43a7.56,7.56,0,0,0,4.27.94,16.39,16.39,0,0,0,4.69-1c1.51-.55,3-1.11,4.45-1.68a18.49,18.49,0,0,1,4.19-1.14,5.07,5.07,0,0,1,3.29.48c1.12.65,1.53,1.39,1.21,2.22a5.25,5.25,0,0,1-2.43,2.38,16.89,16.89,0,0,1-5.29,2.09,6.61,6.61,0,0,1-4.61-.83l-.11-.06-2.71,1.56.11.06a10.38,10.38,0,0,0,6.7,1.28,19.86,19.86,0,0,0,7.3-2.6c2.35-1.36,3.86-2.74,4.47-4.11s-.09-2.67-2.09-3.82A7.8,7.8,0,0,0,178.11,340.93Z"/><line class="cls-18" x1="221.6" y1="58.77" x2="221.6" y2="307.67"/><line class="cls-19" x1="88.58" y1="58.77" x2="88.58" y2="307.67"/><line class="cls-20" x1="155.09" y1="97.21" x2="155.09" y2="346.11"/><polygon class="cls-21" points="133.32 226.02 66.6 187.5 0.3 225.78 0.3 245.54 67.02 284.06 133.32 245.78 133.32 226.02"/><polygon class="cls-22" points="67.02 264.3 0.3 225.78 66.6 187.5 133.32 226.02 67.02 264.3"/><path class="cls-23" d="M55.29,237.15l-8-4.6,2.37-1.37a6.78,6.78,0,0,1,2.36-.82,7.76,7.76,0,0,1,2.61,0,7.51,7.51,0,0,1,2.43.88l.4.23A3.85,3.85,0,0,1,59,232.93a1.56,1.56,0,0,1,0,1.51,3.5,3.5,0,0,1-1.46,1.38Zm-5.46-4.76,5.75,3.32.91-.52q1.1-.63,1-1.37t-1.36-1.47l-.44-.26a5.69,5.69,0,0,0-2.55-.82,4.13,4.13,0,0,0-2.33.56Z"/><path class="cls-24" d="M66.31,228.65l-3.11,1.79,1.2,1.45-1.45.84L58,226.38l1.25-.72,11,2.85-1.46.84Zm-3.83.92,2.32-1.34L60.33,227Z"/><path class="cls-25" d="M74.24,222.86q1.37.79,1.56,1.63t-.87,1.45a4.14,4.14,0,0,1-2.21.54l2.81,1.62-1.34.77L66,224.13l1.23-.71.66.32q-.12-.75.89-1.34a4.27,4.27,0,0,1,2.52-.52,6.72,6.72,0,0,1,2.86.94Zm-1.45.7A4.48,4.48,0,0,0,71,223a2.46,2.46,0,0,0-1.54.29q-.82.47-.51,1.07l2.63,1.52a2.7,2.7,0,0,0,1.88-.29q.64-.37.49-.87T72.79,223.57Z"/><path class="cls-26" d="M81.72,218.54q1.37.79,1.56,1.63t-.87,1.45a4.14,4.14,0,0,1-2.21.54L83,223.77l-1.34.77-8.2-4.73,1.24-.71.66.32q-.12-.75.89-1.34a4.27,4.27,0,0,1,2.52-.52,6.72,6.72,0,0,1,2.86.94Zm-1.45.7a4.48,4.48,0,0,0-1.76-.61,2.47,2.47,0,0,0-1.54.29q-.82.47-.51,1.07l2.63,1.52a2.7,2.7,0,0,0,1.88-.29q.64-.37.49-.87T80.27,219.25Z"/><line class="cls-27" x1="67.02" y1="264.3" x2="67.02" y2="284.06"/><polygon class="cls-28" points="133.32 226.02 66.6 187.5 0.3 225.78 0.3 245.54 67.02 284.06 133.32 245.78 133.32 226.02"/><line class="cls-29" x1="66.88" y1="320.15" x2="66.73" y2="395.69"/><line class="cls-30" x1="66.88" y1="284.23" x2="66.73" y2="318.15"/><line class="cls-31" x1="133.02" y1="247.23" x2="132.87" y2="280.16"/><line class="cls-32" x1="0.3" y1="246.46" x2="0.3" y2="359.07"/><line class="cls-33" x1="133.02" y1="282.04" x2="132.87" y2="357.57"/><polygon class="cls-34" points="309.87 152.07 243.15 113.56 176.85 151.84 176.85 171.59 243.57 210.11 309.87 171.83 309.87 152.07"/><polygon class="cls-35" points="243.57 190.35 176.85 151.84 243.15 113.56 309.87 152.07 243.57 190.35"/><path class="cls-36" d="M231.84,163.21l-8-4.6,2.37-1.37a6.78,6.78,0,0,1,2.36-.82,7.76,7.76,0,0,1,2.61,0,7.51,7.51,0,0,1,2.43.88l.4.23a3.85,3.85,0,0,1,1.54,1.41,1.56,1.56,0,0,1,0,1.51,3.5,3.5,0,0,1-1.46,1.38Zm-5.46-4.76,5.75,3.32.91-.52q1.1-.63,1-1.37t-1.36-1.47l-.44-.26a5.69,5.69,0,0,0-2.55-.82,4.13,4.13,0,0,0-2.33.56Z"/><path class="cls-37" d="M242.86,154.7l-3.11,1.79,1.2,1.45-1.45.84-4.94-6.35,1.25-.72,11,2.85-1.46.84Zm-3.83.92,2.32-1.34L236.89,153Z"/><path class="cls-38" d="M250.79,148.92q1.37.79,1.56,1.63t-.87,1.45a4.14,4.14,0,0,1-2.21.54l2.81,1.62-1.34.77-8.2-4.73,1.23-.71.66.32q-.12-.75.89-1.34a4.27,4.27,0,0,1,2.52-.52,6.72,6.72,0,0,1,2.86.94Zm-1.45.7a4.48,4.48,0,0,0-1.76-.61,2.46,2.46,0,0,0-1.54.29q-.82.47-.51,1.07l2.63,1.52a2.7,2.7,0,0,0,1.88-.29q.64-.37.49-.87T249.34,149.62Z"/><path class="cls-39" d="M258.27,144.6q1.37.79,1.56,1.63t-.87,1.45a4.14,4.14,0,0,1-2.21.54l2.81,1.62-1.34.77-8.2-4.73,1.24-.71.66.32q-.12-.75.89-1.34a4.27,4.27,0,0,1,2.52-.52,6.72,6.72,0,0,1,2.86.94Zm-1.45.7a4.48,4.48,0,0,0-1.76-.61,2.47,2.47,0,0,0-1.54.29q-.82.47-.51,1.07l2.63,1.52a2.7,2.7,0,0,0,1.88-.29q.64-.37.49-.87T256.82,145.3Z"/><line class="cls-40" x1="243.57" y1="190.35" x2="243.57" y2="210.11"/><polygon class="cls-41" points="309.87 152.07 243.15 113.56 176.85 151.84 176.85 171.59 243.57 210.11 309.87 171.83 309.87 152.07"/><line class="cls-42" x1="309.87" y1="169.08" x2="309.87" y2="359.07"/><line class="cls-43" x1="243.74" y1="210.28" x2="243.74" y2="318.4"/><line class="cls-44" x1="176.85" y1="172.08" x2="176.85" y2="284.42"/><line class="cls-45" x1="243.74" y1="321.84" x2="243.74" y2="396.75"/><line class="cls-46" x1="176.85" y1="284.07" x2="176.85" y2="355.54"/><polygon class="cls-47" points="221.59 38.77 154.88 0.25 88.58 38.53 88.58 58.28 155.29 96.81 221.59 58.53 221.59 38.77"/><polygon class="cls-48" points="155.29 77.05 88.58 38.53 154.88 0.25 221.59 38.77 155.29 77.05"/><path class="cls-49" d="M143.56,49.9l-8-4.6L138,43.93a6.78,6.78,0,0,1,2.36-.82,7.76,7.76,0,0,1,2.61,0,7.51,7.51,0,0,1,2.43.88l.4.23a3.85,3.85,0,0,1,1.54,1.41,1.56,1.56,0,0,1,0,1.51,3.5,3.5,0,0,1-1.46,1.38Zm-5.46-4.76,5.75,3.32.91-.52q1.1-.63,1-1.37t-1.36-1.47l-.44-.26a5.69,5.69,0,0,0-2.55-.82,4.13,4.13,0,0,0-2.33.56Z"/><path class="cls-50" d="M154.58,41.4l-3.11,1.79,1.2,1.45-1.45.84-4.94-6.35,1.25-.72,11,2.85-1.46.84Zm-3.83.92L153.08,41l-4.47-1.24Z"/><path class="cls-51" d="M162.51,35.61q1.37.79,1.56,1.63t-.87,1.45a4.14,4.14,0,0,1-2.21.54l2.81,1.62-1.34.77-8.2-4.73,1.23-.71.66.32q-.12-.75.89-1.34a4.27,4.27,0,0,1,2.52-.52,6.72,6.72,0,0,1,2.86.94Zm-1.45.7a4.48,4.48,0,0,0-1.76-.61,2.46,2.46,0,0,0-1.54.29q-.82.47-.51,1.07l2.63,1.52a2.7,2.7,0,0,0,1.88-.29q.64-.37.49-.87T161.07,36.31Z"/><path class="cls-52" d="M170,31.29q1.37.79,1.56,1.63t-.87,1.45a4.14,4.14,0,0,1-2.21.54l2.81,1.62-1.34.77-8.2-4.73,1.24-.71.66.32q-.12-.75.89-1.34a4.27,4.27,0,0,1,2.52-.52,6.72,6.72,0,0,1,2.86.94Zm-1.45.7a4.48,4.48,0,0,0-1.76-.61,2.47,2.47,0,0,0-1.54.29q-.82.47-.51,1.07l2.63,1.52a2.7,2.7,0,0,0,1.88-.29q.64-.37.49-.87T168.55,32Z"/><line class="cls-53" x1="155.29" y1="77.05" x2="155.29" y2="96.8"/><polygon class="cls-54" points="221.59 38.77 154.88 0.25 88.58 38.53 88.58 58.28 155.29 96.81 221.59 58.53 221.59 38.77"/></g></g></g></svg>