<svg id="Layer_1" data-name="Layer 1" xmlns="http://www.w3.org/2000/svg" xmlns:xlink="http://www.w3.org/1999/xlink" viewBox="0 0 320 1356"><defs><style>.cls-1{stroke:#000;stroke-width:0.5px;fill:url(#linear-gradient);}.cls-1,.cls-11,.cls-2,.cls-3,.cls-4,.cls-5,.cls-6{stroke-linecap:round;stroke-linejoin:round;}.cls-11,.cls-2,.cls-3,.cls-4{fill:none;}.cls-11,.cls-2,.cls-3,.cls-4,.cls-5,.cls-6{stroke-width:0.51px;}.cls-2,.cls-3,.cls-4{stroke-dasharray:2.06;}.cls-2{stroke:url(#linear-gradient-2);}.cls-3{stroke:url(#linear-gradient-3);}.cls-4{stroke:url(#linear-gradient-4);}.cls-5{fill:url(#linear-gradient-5);stroke:url(#linear-gradient-6);}.cls-6{fill:url(#linear-gradient-7);stroke:url(#linear-gradient-8);}.cls-7{fill:url(#linear-gradient-9);}.cls-8{fill:url(#linear-gradient-10);}.cls-9{fill:url(#linear-gradient-11);}.cls-10{fill:url(#linear-gradient-12);}.cls-11{stroke:url(#linear-gradient-13);}.cls-12{opacity:0.1;fill:url(#linear-gradient-14);}.cls-12,.cls-13{isolation:isolate;}.cls-13{opacity:0;fill:url(#linear-gradient-15);}</style><linearGradient id="linear-gradient" y1="1069.28" x2="0" y2="1068.28" gradientTransform="matrix(1, 0, 0, -40.4, 0.31, 43716.94)" gradientUnits="userSpaceOnUse"><stop offset="0" stop-color="#2e3d4a"/><stop offset="1" stop-color="#232329"/></linearGradient><linearGradient id="linear-gradient-2" x1="-0.25" y1="1062.65" x2="0.25" y2="1062.65" gradientTransform="matrix(1, 0, 0, -256.08, 228.01, 272307.36)" gradientUnits="userSpaceOnUse"><stop offset="0" stop-color="#5c8ee4"/><stop offset="1" stop-color="#67eaec"/></linearGradient><linearGradient id="linear-gradient-3" y1="1062.65" y2="1062.65" gradientTransform="matrix(1, 0, 0, -256.08, 91.14, 272307.36)" xlink:href="#linear-gradient-2"/><linearGradient id="linear-gradient-4" y1="1062.65" y2="1062.65" gradientTransform="matrix(1, 0, 0, -256.08, 159.58, 272346.91)" xlink:href="#linear-gradient-2"/><linearGradient id="linear-gradient-5" x1="-850.64" y1="1064.46" x2="-849.64" y2="1064.46" gradientTransform="matrix(136.86, 0, 0, -99.34, 116509.6, 105797.55)" gradientUnits="userSpaceOnUse"><stop offset="0" stop-color="#2d3438"/><stop offset="1" stop-color="#1a1a1a"/></linearGradient><linearGradient id="linear-gradient-6" x1="-850.65" y1="1064.46" x2="-849.64" y2="1064.46" gradientTransform="matrix(136.86, 0, 0, -99.34, 116509.6, 105797.55)" xlink:href="#linear-gradient-2"/><linearGradient id="linear-gradient-7" x1="-850.64" y1="1065.22" x2="-849.64" y2="1065.22" gradientTransform="matrix(136.86, 0, 0, -79.01, 116509.6, 84207.4)" xlink:href="#linear-gradient-5"/><linearGradient id="linear-gradient-8" x1="-850.65" y1="1065.22" x2="-849.64" y2="1065.22" gradientTransform="matrix(136.86, 0, 0, -79.01, 116509.6, 84207.4)" xlink:href="#linear-gradient-2"/><linearGradient id="linear-gradient-9" x1="-787.36" y1="1102.91" x2="-786.36" y2="1102.91" gradientTransform="matrix(12.32, 0, 0, -7.1, 9840.86, 7877.87)" xlink:href="#linear-gradient-2"/><linearGradient id="linear-gradient-10" x1="-788.92" y1="1101.92" x2="-787.92" y2="1101.92" gradientTransform="matrix(12.6, 0, 0, -7.27, 10094.48, 8058.33)" xlink:href="#linear-gradient-2"/><linearGradient id="linear-gradient-11" x1="-772.26" y1="1102.31" x2="-771.26" y2="1102.31" gradientTransform="matrix(10.12, 0, 0, -7.2, 7976.78, 7980.62)" xlink:href="#linear-gradient-2"/><linearGradient id="linear-gradient-12" x1="-772.26" y1="1102.31" x2="-771.26" y2="1102.31" gradientTransform="matrix(10.12, 0, 0, -7.2, 7984.5, 7976.17)" xlink:href="#linear-gradient-2"/><linearGradient id="linear-gradient-13" y1="1075.97" y2="1075.97" gradientTransform="matrix(1, 0, 0, -20.32, 159.78, 21952.5)" xlink:href="#linear-gradient-2"/><linearGradient id="linear-gradient-14" x1="-850.64" y1="1064.46" x2="-849.64" y2="1064.46" gradientTransform="matrix(136.86, 0, 0, -99.34, 116509.6, 105797.55)" xlink:href="#linear-gradient-2"/><linearGradient id="linear-gradient-15" x1="-854.51" y1="1062.05" x2="-852.92" y2="1061.68" gradientTransform="matrix(318.32, 0, 0, -801.22, 271916.07, 851747.08)" xlink:href="#linear-gradient-5"/></defs><title>02</title><path id="Shape" class="cls-1" d="M.31,515.78v40.4"/><path id="Shape-2" data-name="Shape" class="cls-2" d="M228,60.46V316.54"/><path id="Shape-3" data-name="Shape" class="cls-3" d="M91.14,60.46V316.54"/><path id="Shape-4" data-name="Shape" class="cls-4" d="M159.58,100V356.09"/><polygon id="Shape-5" data-name="Shape" class="cls-5" points="228 39.89 159.36 0.26 91.14 39.64 91.14 59.96 159.78 99.6 228 60.22 228 39.89"/><polygon id="Shape-6" data-name="Shape" class="cls-6" points="159.78 79.27 91.14 39.64 159.36 0.26 228 39.89 159.78 79.27"/><path id="Shape-7" data-name="Shape" class="cls-7" d="M147.71,51.34l-8.23-4.73L142,45.2a7,7,0,0,1,2.43-.84,8,8,0,0,1,2.69,0,7.73,7.73,0,0,1,2.5.91l.41.24a4,4,0,0,1,1.58,1.45,1.6,1.6,0,0,1,0,1.55,3.6,3.6,0,0,1-1.5,1.42Zm-5.62-4.9L148,49.86l.94-.53q1.13-.65,1-1.41t-1.4-1.51l-.45-.27a5.85,5.85,0,0,0-2.62-.84,4.25,4.25,0,0,0-2.4.58Z"/><path id="Shape-8" data-name="Shape" class="cls-8" d="M159.05,42.59l-3.2,1.84,1.23,1.49-1.49.86-5.08-6.53,1.29-.74,11.32,2.93-1.5.86Zm-3.94.95,2.4-1.36-4.6-1.28Z"/><path id="Shape-9" data-name="Shape" class="cls-9" d="M167.21,36.64q1.41.81,1.61,1.68t-.9,1.49a4.26,4.26,0,0,1-2.27.56L168.54,42l-1.38.79L158.72,38l1.27-.73.68.33q-.12-.77.92-1.38a4.39,4.39,0,0,1,2.59-.53,6.92,6.92,0,0,1,2.94,1Zm-1.49.72a4.61,4.61,0,0,0-1.81-.63,2.53,2.53,0,0,0-1.58.3q-.84.48-.52,1.1l2.71,1.56a2.78,2.78,0,0,0,1.93-.3q.66-.38.5-.9t-1.21-1.14Z"/><path id="Shape-10" data-name="Shape" class="cls-10" d="M174.92,32.19q1.41.81,1.61,1.68t-.9,1.49a4.26,4.26,0,0,1-2.27.56l2.89,1.67-1.38.79-8.44-4.87,1.28-.73.68.33q-.12-.77.92-1.38a4.39,4.39,0,0,1,2.59-.53,6.91,6.91,0,0,1,2.94,1Zm-1.49.72a4.61,4.61,0,0,0-1.81-.63,2.54,2.54,0,0,0-1.58.3q-.84.48-.52,1.1l2.71,1.56a2.78,2.78,0,0,0,1.93-.3q.66-.38.5-.9t-1.22-1.13Z"/><path id="Shape-11" data-name="Shape" class="cls-11" d="M159.78,79.27V99.59"/><polygon id="Shape-12" data-name="Shape" class="cls-12" points="228 39.89 159.36 0.26 91.14 39.64 91.14 59.96 159.78 99.6 228 60.22 228 39.89"/><polygon id="Shape-13" data-name="Shape" class="cls-13" points="319.16 646.94 159.5 554.78 0.84 646.36 0.84 1263.83 160.5 1356 319.16 1264.4 319.16 646.94"/></svg>