<?xml version="1.0" encoding="UTF-8"?>
<svg width="241px" height="931px" viewBox="0 0 241 931" version="1.1" xmlns="http://www.w3.org/2000/svg" xmlns:xlink="http://www.w3.org/1999/xlink">
    <!-- Generator: Sketch 50 (54983) - http://www.bohemiancoding.com/sketch -->
    <title>hero -mobile</title>
    <desc>Created with Sketch.</desc>
    <defs>
        <linearGradient x1="-29.5406794%" y1="31.7577719%" x2="129.540679%" y2="68.2435122%" id="linearGradient-1">
            <stop stop-color="#2D3438" offset="0%"></stop>
            <stop stop-color="#1A1A1A" offset="100%"></stop>
        </linearGradient>
        <linearGradient x1="-12994%" y1="37.5%" x2="12994%" y2="62.5%" id="linearGradient-2">
            <stop stop-color="#2D3438" offset="0%"></stop>
            <stop stop-color="#1A1A1A" offset="100%"></stop>
        </linearGradient>
        <linearGradient x1="-12993%" y1="37.5006248%" x2="12994%" y2="62.4993752%" id="linearGradient-3">
            <stop stop-color="#2D3438" offset="0%"></stop>
            <stop stop-color="#1A1A1A" offset="100%"></stop>
        </linearGradient>
        <linearGradient x1="-12994%" y1="37.4989586%" x2="12994%" y2="62.4993752%" id="linearGradient-4">
            <stop stop-color="#2D3438" offset="0%"></stop>
            <stop stop-color="#1A1A1A" offset="100%"></stop>
        </linearGradient>
        <linearGradient x1="12.4608074%" y1="12.4622103%" x2="87.5391926%" y2="87.5377897%" id="linearGradient-5">
            <stop stop-color="#2D3438" offset="0%"></stop>
            <stop stop-color="#1A1A1A" offset="100%"></stop>
        </linearGradient>
        <linearGradient x1="100%" y1="50%" x2="1.76382525e-13%" y2="50%" id="linearGradient-6">
            <stop stop-color="#2E3D4A" offset="0%"></stop>
            <stop stop-color="#232329" offset="100%"></stop>
        </linearGradient>
        <linearGradient x1="509410%" y1="49.9872676%" x2="509410%" y2="49.9872676%" id="linearGradient-7">
            <stop stop-color="#2E3D4A" offset="0%"></stop>
            <stop stop-color="#232329" offset="100%"></stop>
        </linearGradient>
        <linearGradient x1="540467%" y1="50%" x2="540467%" y2="50%" id="linearGradient-8">
            <stop stop-color="#2E3D4A" offset="0%"></stop>
            <stop stop-color="#232329" offset="100%"></stop>
        </linearGradient>
        <linearGradient x1="571324%" y1="50%" x2="571324%" y2="50%" id="linearGradient-9">
            <stop stop-color="#2E3D4A" offset="0%"></stop>
            <stop stop-color="#232329" offset="100%"></stop>
        </linearGradient>
        <linearGradient x1="1796.67065%" y1="100%" x2="1796.67065%" y2="0%" id="linearGradient-10">
            <stop stop-color="#2E3D4A" offset="0%"></stop>
            <stop stop-color="#232329" offset="100%"></stop>
        </linearGradient>
        <linearGradient x1="0%" y1="50%" x2="100%" y2="50%" id="linearGradient-11">
            <stop stop-color="#5C8EE4" offset="0%"></stop>
            <stop stop-color="#67EAEC" offset="100%"></stop>
        </linearGradient>
        <linearGradient x1="-0.0808093868%" y1="50%" x2="100.080809%" y2="50%" id="linearGradient-12">
            <stop stop-color="#2D3438" offset="0%"></stop>
            <stop stop-color="#1A1A1A" offset="100%"></stop>
        </linearGradient>
        <linearGradient x1="-25%" y1="50%" x2="25%" y2="50%" id="linearGradient-13">
            <stop stop-color="#2D3438" offset="0%"></stop>
            <stop stop-color="#1A1A1A" offset="100%"></stop>
        </linearGradient>
        <linearGradient x1="0%" y1="49.9948213%" x2="100%" y2="49.9948213%" id="linearGradient-14">
            <stop stop-color="#2D3438" offset="0%"></stop>
            <stop stop-color="#1A1A1A" offset="100%"></stop>
        </linearGradient>
        <linearGradient x1="-0.187941663%" y1="49.9948213%" x2="100.187942%" y2="49.9948213%" id="linearGradient-15">
            <stop stop-color="#5C8EE4" offset="0%"></stop>
            <stop stop-color="#67EAEC" offset="100%"></stop>
        </linearGradient>
        <linearGradient x1="0%" y1="50.0065113%" x2="100%" y2="50.0065113%" id="linearGradient-16">
            <stop stop-color="#2D3438" offset="0%"></stop>
            <stop stop-color="#1A1A1A" offset="100%"></stop>
        </linearGradient>
        <linearGradient x1="-0.187941663%" y1="50.0065113%" x2="100.187942%" y2="50.0065113%" id="linearGradient-17">
            <stop stop-color="#5C8EE4" offset="0%"></stop>
            <stop stop-color="#67EAEC" offset="100%"></stop>
        </linearGradient>
        <linearGradient x1="0.251997674%" y1="50.1486699%" x2="100.379073%" y2="50.1486699%" id="linearGradient-18">
            <stop stop-color="#5C8EE4" offset="0%"></stop>
            <stop stop-color="#67EAEC" offset="100%"></stop>
        </linearGradient>
        <linearGradient x1="0.163265306%" y1="49.9292786%" x2="100.163265%" y2="49.9292786%" id="linearGradient-19">
            <stop stop-color="#5C8EE4" offset="0%"></stop>
            <stop stop-color="#67EAEC" offset="100%"></stop>
        </linearGradient>
        <linearGradient x1="-0.101740992%" y1="49.9461087%" x2="100.011395%" y2="49.9461087%" id="linearGradient-20">
            <stop stop-color="#5C8EE4" offset="0%"></stop>
            <stop stop-color="#67EAEC" offset="100%"></stop>
        </linearGradient>
        <linearGradient x1="0.101534388%" y1="50.0174354%" x2="100.011372%" y2="50.0174354%" id="linearGradient-21">
            <stop stop-color="#5C8EE4" offset="0%"></stop>
            <stop stop-color="#67EAEC" offset="100%"></stop>
        </linearGradient>
        <linearGradient x1="-25%" y1="50%" x2="25%" y2="50%" id="linearGradient-22">
            <stop stop-color="#5C8EE4" offset="0%"></stop>
            <stop stop-color="#67EAEC" offset="100%"></stop>
        </linearGradient>
        <linearGradient x1="0%" y1="49.9948213%" x2="100%" y2="49.9948213%" id="linearGradient-23">
            <stop stop-color="#5C8EE4" offset="0%"></stop>
            <stop stop-color="#67EAEC" offset="100%"></stop>
        </linearGradient>
        <linearGradient x1="-25%" y1="50.0066199%" x2="40%" y2="50.0066199%" id="linearGradient-24">
            <stop stop-color="#2D3438" offset="0%"></stop>
            <stop stop-color="#1A1A1A" offset="100%"></stop>
        </linearGradient>
        <linearGradient x1="-25%" y1="49.9852638%" x2="40%" y2="49.9852638%" id="linearGradient-25">
            <stop stop-color="#5C8EE4" offset="0%"></stop>
            <stop stop-color="#67EAEC" offset="100%"></stop>
        </linearGradient>
        <linearGradient x1="-25%" y1="50%" x2="40%" y2="50%" id="linearGradient-26">
            <stop stop-color="#5C8EE4" offset="0%"></stop>
            <stop stop-color="#67EAEC" offset="100%"></stop>
        </linearGradient>
        <linearGradient x1="-25%" y1="50.0044401%" x2="25%" y2="50.0044401%" id="linearGradient-27">
            <stop stop-color="#5C8EE4" offset="0%"></stop>
            <stop stop-color="#67EAEC" offset="100%"></stop>
        </linearGradient>
        <linearGradient x1="-25%" y1="50%" x2="40%" y2="50%" id="linearGradient-28">
            <stop stop-color="#2D3438" offset="0%"></stop>
            <stop stop-color="#1A1A1A" offset="100%"></stop>
        </linearGradient>
        <linearGradient x1="0%" y1="50%" x2="100%" y2="50%" id="linearGradient-29">
            <stop stop-color="#2D3438" offset="0%"></stop>
            <stop stop-color="#1A1A1A" offset="100%"></stop>
        </linearGradient>
        <linearGradient x1="-0.187941663%" y1="50%" x2="100.187942%" y2="50%" id="linearGradient-30">
            <stop stop-color="#5C8EE4" offset="0%"></stop>
            <stop stop-color="#67EAEC" offset="100%"></stop>
        </linearGradient>
        <linearGradient x1="0.0816326531%" y1="49.9292786%" x2="100.163265%" y2="49.9292786%" id="linearGradient-31">
            <stop stop-color="#5C8EE4" offset="0%"></stop>
            <stop stop-color="#67EAEC" offset="100%"></stop>
        </linearGradient>
        <linearGradient x1="0.101637585%" y1="49.874628%" x2="100.011383%" y2="49.874628%" id="linearGradient-32">
            <stop stop-color="#5C8EE4" offset="0%"></stop>
            <stop stop-color="#67EAEC" offset="100%"></stop>
        </linearGradient>
        <linearGradient x1="0.304264735%" y1="49.9461087%" x2="100.103098%" y2="49.9461087%" id="linearGradient-33">
            <stop stop-color="#5C8EE4" offset="0%"></stop>
            <stop stop-color="#67EAEC" offset="100%"></stop>
        </linearGradient>
        <linearGradient x1="-25%" y1="50.0253165%" x2="25%" y2="50.0253165%" id="linearGradient-34">
            <stop stop-color="#5C8EE4" offset="0%"></stop>
            <stop stop-color="#67EAEC" offset="100%"></stop>
        </linearGradient>
        <linearGradient x1="-25%" y1="50.0026317%" x2="25%" y2="50.0026317%" id="linearGradient-35">
            <stop stop-color="#5C8EE4" offset="0%"></stop>
            <stop stop-color="#67EAEC" offset="100%"></stop>
        </linearGradient>
        <linearGradient x1="-25%" y1="50.0044504%" x2="25%" y2="50.0044504%" id="linearGradient-36">
            <stop stop-color="#5C8EE4" offset="0%"></stop>
            <stop stop-color="#67EAEC" offset="100%"></stop>
        </linearGradient>
        <linearGradient x1="-25%" y1="50.0066747%" x2="25%" y2="50.0066747%" id="linearGradient-37">
            <stop stop-color="#2D3438" offset="0%"></stop>
            <stop stop-color="#1A1A1A" offset="100%"></stop>
        </linearGradient>
    </defs>
    <g id="Page-1" stroke="none" stroke-width="1" fill="none" fill-rule="evenodd">
        <g id="Mobile" transform="translate(-67.000000, -529.000000)">
            <g id="hero--mobile" transform="translate(68.000000, 530.000000)">
                <polygon id="Shape" fill="url(#linearGradient-1)" fill-rule="nonzero" points="239.050804 397.407137 119.305466 328.262988 0.308681672 396.974938 0.308681672 860.168963 120.054019 929.305394 239.050804 860.593444"></polygon>
                <path d="M0.231511254,396.805145 L0.231511254,859.99917" id="Shape" fill="url(#linearGradient-2)" fill-rule="nonzero"></path>
                <path d="M120.061736,465.949295 L120.061736,929.135602" id="Shape" fill="url(#linearGradient-3)" fill-rule="nonzero"></path>
                <path d="M239.127974,397.576929 L239.127974,860.763237" id="Shape" fill="url(#linearGradient-4)" fill-rule="nonzero"></path>
                <polygon id="Shape" fill="url(#linearGradient-5)" fill-rule="nonzero" points="120.054019 466.119087 0.308681672 396.974938 119.305466 328.262988 239.050804 397.407137"></polygon>
                <polygon id="Shape" fill="url(#linearGradient-1)" fill-rule="nonzero" opacity="0.35" style="mix-blend-mode: multiply;" points="239.050804 397.407137 119.305466 328.262988 0.308681672 396.974938 0.308681672 860.168963 120.054019 929.305394 239.050804 860.593444"></polygon>
                <polygon id="Shape" stroke="#000000" stroke-width="0.5" fill="url(#linearGradient-6)" fill-rule="nonzero" stroke-linecap="round" stroke-linejoin="round" points="0.308681672 299.305643 120.054019 230.161494 239.050804 298.873444 239.050804 329.181411 119.305466 398.317842 0.308681672 329.605892"></polygon>
                <path d="M239.127974,298.703651 L239.127974,329.011618" id="Shape" stroke="#000000" stroke-width="0.5" fill="url(#linearGradient-7)" fill-rule="nonzero" stroke-linecap="round" stroke-linejoin="round"></path>
                <path d="M119.297749,367.847801 L119.297749,398.14805" id="Shape" stroke="#000000" stroke-width="0.5" fill="url(#linearGradient-8)" fill-rule="nonzero" stroke-linecap="round" stroke-linejoin="round"></path>
                <path d="M0.231511254,299.475436 L0.231511254,329.775685" id="Shape" stroke="#000000" stroke-width="0.5" fill="url(#linearGradient-9)" fill-rule="nonzero" stroke-linecap="round" stroke-linejoin="round"></path>
                <polygon id="Shape" stroke="#000000" stroke-width="0.5" fill="url(#linearGradient-10)" fill-rule="nonzero" stroke-linecap="round" stroke-linejoin="round" points="119.305466 368.009876 239.050804 298.873444 120.054019 230.161494 0.308681672 299.305643"></polygon>
                <polygon id="Shape" stroke="url(#linearGradient-12)" stroke-width="0.5" fill="url(#linearGradient-11)" fill-rule="nonzero" stroke-linecap="round" stroke-linejoin="round" points="239.050804 189.32639 119.305466 120.182241 0.308681672 188.894191 0.308681672 225.770041 120.054019 294.914191 239.050804 226.202241"></polygon>
                <path d="M0.231511254,188.724398 L0.231511254,225.600249" id="Shape" stroke="#1A1A1A" stroke-width="0.5" stroke-linecap="round" stroke-linejoin="round"></path>
                <path d="M120.061736,257.868548 L120.061736,294.744398" id="Shape" stroke="url(#linearGradient-13)" stroke-width="0.5" stroke-linecap="round" stroke-linejoin="round"></path>
                <path d="M239.127974,189.496183 L239.127974,226.372033" id="Shape" stroke="#1A1A1A" stroke-width="0.5" stroke-linecap="round" stroke-linejoin="round"></path>
                <polygon id="Shape" stroke="url(#linearGradient-12)" stroke-width="0.5" fill="url(#linearGradient-11)" fill-rule="nonzero" stroke-linecap="round" stroke-linejoin="round" points="120.054019 258.03834 0.308681672 188.894191 119.305466 120.182241 239.050804 189.32639"></polygon>
                <polygon id="Shape" fill="#FFFFFF" fill-rule="nonzero" points="98.5003215 205.873444 112.499035 197.785145 110.824437 196.820415 96.8257235 204.900996"></polygon>
                <path d="M107.652733,183.885311 C105.453376,185.158755 104.403859,186.594274 104.527331,188.168714 C104.650804,189.743154 105.708039,191.093776 107.668167,192.228299 C109.822487,193.412731 112.240008,194.036415 114.698392,194.041992 C117.290541,194.144381 119.859563,193.518769 122.114469,192.236017 C124.290675,190.978008 125.340193,189.54249 125.201286,187.960332 C125.062379,186.378174 124.036013,185.027552 122.075884,183.893029 C119.916272,182.708776 117.493168,182.087675 115.030225,182.087054 C112.45179,181.989561 109.897165,182.612248 107.652733,183.885311 Z M120.47074,191.286722 C118.838296,192.189302 116.972811,192.581794 115.115113,192.413527 C113.275809,192.342182 111.477612,191.848352 109.859807,190.97029 C108.617342,190.380764 107.701191,189.269392 107.359486,187.937178 C107.135691,186.764066 107.783923,185.722158 109.30418,184.850041 C110.936623,183.947461 112.802108,183.55497 114.659807,183.723237 C116.499068,183.794857 118.297204,184.288669 119.915113,185.166473 C121.157578,185.755999 122.073728,186.867371 122.415434,188.199585 C122.646945,189.364979 121.990997,190.406888 120.47074,191.286722 Z" id="Shape" fill="#FFFFFF" fill-rule="nonzero"></path>
                <path d="M137.448232,175.681245 C136.183532,175.735029 134.933274,175.971589 133.736334,176.383568 C132.54791,176.792614 131.37492,177.217095 130.248232,177.649295 C129.227314,178.052026 128.170487,178.356962 127.091961,178.56 C126.315558,178.757216 125.494189,178.669595 124.776849,178.313029 C124.005145,177.88083 123.804502,177.356017 124.136334,176.769461 C124.615588,176.033006 125.281216,175.436541 126.065595,175.040664 C128.318971,173.744066 130.255949,173.427635 131.992283,174.083651 L132.07717,174.083651 L134.099035,172.918257 L133.990997,172.87195 C132.553221,172.251202 130.966278,172.060856 129.422508,172.323983 C127.681062,172.61945 126.009239,173.234347 124.491318,174.137676 C123.232281,174.765253 122.191544,175.757687 121.504823,176.98556 C121.026367,178.012033 121.419936,178.899585 122.677814,179.63278 C123.680783,180.193915 124.827125,180.446298 125.97299,180.358257 C127.210731,180.27985 128.430212,180.019806 129.592283,179.586473 C130.757556,179.161992 131.907395,178.729793 133.026367,178.289876 C134.065885,177.870603 135.151181,177.575289 136.259807,177.410041 C137.123687,177.244602 138.018107,177.375108 138.798714,177.780498 C139.663023,178.282158 139.979421,178.853278 139.732476,179.493859 C139.328532,180.297296 138.668812,180.943509 137.857235,181.330705 C136.597423,182.095315 135.217083,182.640723 133.77492,182.943734 C132.550638,183.17167 131.285274,182.943826 130.217363,182.303154 L130.132476,182.256846 L128.041158,183.46083 L128.126045,183.507137 C129.689032,184.409545 131.510926,184.757645 133.296463,184.495021 C135.287807,184.202575 137.202055,183.520718 138.929904,182.488382 C140.743408,181.438755 141.908682,180.373693 142.379421,179.316349 C142.850161,178.259004 142.309968,177.255685 140.766559,176.368133 C139.749046,175.826086 138.597289,175.587674 137.448232,175.681245 Z" id="Shape" fill="#FFFFFF" fill-rule="nonzero"></path>
                <polygon id="Shape" stroke="url(#linearGradient-15)" stroke-width="0.5" fill="url(#linearGradient-14)" fill-rule="nonzero" stroke-linecap="round" stroke-linejoin="round" points="102.883601 86.9955187 51.3954984 57.26639 0.231511254 86.8025726 0.231511254 102.053029 51.7196141 131.782158 102.883601 102.238257"></polygon>
                <polygon id="Shape" stroke="url(#linearGradient-17)" stroke-width="0.5" fill="url(#linearGradient-16)" fill-rule="nonzero" stroke-linecap="round" stroke-linejoin="round" points="51.7196141 116.531701 0.231511254 86.8025726 51.3954984 57.26639 102.883601 86.9955187"></polygon>
                <path d="M42.6675241,95.5854772 L36.4938907,92.0352697 L38.3228296,90.9779253 C38.8854627,90.6559629 39.5030196,90.4413658 40.1440514,90.3450622 C40.8106189,90.2313342 41.4916319,90.2313342 42.1581994,90.3450622 C42.817826,90.4613768 43.4522992,90.6911687 44.0334405,91.0242324 L44.3421222,91.2017427 C44.8349651,91.456489 45.2466453,91.8441502 45.5305466,92.3208299 C45.7310578,92.6834151 45.7310578,93.1236388 45.5305466,93.4862241 C45.2671217,93.9437295 44.8754202,94.3140064 44.4038585,94.5512863 L42.6675241,95.5854772 Z M38.4540193,91.9117842 L42.8913183,94.4741079 L43.5935691,94.0727801 C44.1594855,93.7486307 44.4167203,93.3961826 44.3652733,93.0154357 C44.3138264,92.6346888 43.9639871,92.2436515 43.3157556,91.8423237 L42.9762058,91.6416598 C42.3799596,91.2770992 41.7053188,91.0601334 41.0083601,91.0087967 C40.3794652,90.9719746 39.7537644,91.1223732 39.2102894,91.4409959 L38.4540193,91.9117842 Z" id="Shape" fill="url(#linearGradient-18)" fill-rule="nonzero"></path>
                <path d="M51.1717042,89.0175934 L48.7717042,90.3990871 L49.6977492,91.5181743 L48.5787781,92.166473 L44.7588424,87.2656432 L45.7234727,86.7099585 L54.2122186,88.9095436 L53.0855305,89.5578423 L51.1717042,89.0175934 Z M48.2160772,89.7276349 L50.0064309,88.693444 L46.5569132,87.7364315 L48.2160772,89.7276349 Z" id="Shape" fill="url(#linearGradient-19)" fill-rule="nonzero"></path>
                <path d="M57.2913183,84.5566805 C57.9961415,84.9631535 58.3974277,85.3824896 58.4951768,85.8146888 C58.592926,86.246888 58.3691318,86.619917 57.8237942,86.9337759 C57.3053749,87.2292508 56.7145772,87.3736236 56.118328,87.3505394 L58.2868167,88.6008299 L57.2527331,89.1951037 L50.9324759,85.5368465 L51.881672,84.9888797 L52.3909968,85.2358506 C52.3292605,84.8499585 52.5581994,84.5052282 53.0778135,84.2016598 C53.669364,83.8710879 54.3484355,83.7309475 55.022508,83.800332 C55.8035916,83.8721154 56.5582175,84.120165 57.229582,84.5258091 L57.2913183,84.5566805 Z M56.1723473,85.0969295 C55.7575958,84.8465642 55.294862,84.6861683 54.8141479,84.6261411 C54.4042024,84.5691904 53.9868781,84.6477856 53.6257235,84.8499585 C53.2038585,85.0917842 53.0726688,85.3670539 53.2321543,85.6757676 L55.2617363,86.8488797 C55.7564735,86.9527593 56.2721,86.8732129 56.7125402,86.6250622 C57.0418006,86.4346888 57.1678457,86.2108714 57.0906752,85.95361 C57.0135048,85.6963485 56.7073955,85.4107884 56.1723473,85.0969295 Z" id="Shape" fill="url(#linearGradient-20)" fill-rule="nonzero"></path>
                <path d="M63.0636656,81.2225726 C63.7684887,81.6290456 64.1697749,82.0483817 64.2675241,82.4805809 C64.3652733,82.9127801 64.1414791,83.2858091 63.5961415,83.599668 C63.0777221,83.895143 62.4869245,84.0395157 61.8906752,84.0164315 L64.0514469,85.2590041 L63.0173633,85.853278 L56.6893891,82.2027386 L57.6463023,81.6547718 L58.155627,81.9017427 C58.0938907,81.5158506 58.3228296,81.1711203 58.8424437,80.8675519 C59.4339942,80.53698 60.1130657,80.3968396 60.7871383,80.4662241 C61.5682218,80.5380075 62.3228477,80.7860571 62.9942122,81.1917012 L63.0636656,81.2225726 Z M61.9446945,81.7628216 C61.529943,81.5124563 61.0672093,81.3520604 60.5864952,81.2920332 C60.1765635,81.2356527 59.7594198,81.3142139 59.3980707,81.5158506 C58.9762058,81.7576763 58.8450161,82.0329461 59.0045016,82.3416598 L61.0340836,83.5147718 C61.5288207,83.6186514 62.0444473,83.539105 62.4848875,83.2909544 C62.8141479,83.1005809 62.9401929,82.8767635 62.8630225,82.6195021 C62.7858521,82.3622407 62.4797428,82.0766805 61.9446945,81.7628216 Z" id="Shape" fill="url(#linearGradient-21)" fill-rule="nonzero"></path>
                <path d="M51.7196141,116.531701 L51.7196141,131.782158" id="Shape" stroke="url(#linearGradient-22)" stroke-width="0.5" stroke-linecap="round" stroke-linejoin="round"></path>
                <polygon id="Shape" fill="url(#linearGradient-23)" fill-rule="nonzero" opacity="0.1" points="102.883601 86.9955187 51.3954984 57.26639 0.231511254 86.8025726 0.231511254 102.053029 51.7196141 131.782158 102.883601 102.238257"></polygon>
                <path d="M51.6115756,159.643568 L51.4958199,217.936432" id="Shape" stroke="url(#linearGradient-24)" stroke-width="0.5" stroke-linecap="round" stroke-linejoin="round" stroke-dasharray="1.543408355712891"></path>
                <path d="M51.6115756,131.913361 L51.4958199,158.1" id="Shape" stroke="url(#linearGradient-25)" stroke-width="0.5" stroke-linecap="round" stroke-linejoin="round" stroke-dasharray="1.543408355712891"></path>
                <path d="M102.65209,103.365062 L102.536334,128.772199" id="Shape" stroke="url(#linearGradient-26)" stroke-width="0.5" stroke-linecap="round" stroke-linejoin="round" stroke-dasharray="1.543408355712891"></path>
                <path d="M0.231511254,102.763071 L0.231511254,189.673693" id="Shape" stroke="url(#linearGradient-27)" stroke-width="0.5" stroke-linecap="round" stroke-linejoin="round" stroke-dasharray="1.543408355712891"></path>
                <path d="M102.65209,130.223154 L102.536334,188.523734" id="Shape" stroke="url(#linearGradient-28)" stroke-width="0.5" stroke-linecap="round" stroke-linejoin="round" stroke-dasharray="1.543408355712891"></path>
                <polygon id="Shape" stroke="url(#linearGradient-30)" stroke-width="0.5" fill="url(#linearGradient-29)" fill-rule="nonzero" stroke-linecap="round" stroke-linejoin="round" points="239.127974 29.9220747 187.639871 0.192946058 136.475884 29.7368465 136.475884 44.9795851 187.963987 74.7164315 239.127974 45.1725311"></polygon>
                <polygon id="Shape" stroke="url(#linearGradient-30)" stroke-width="0.5" fill="url(#linearGradient-29)" fill-rule="nonzero" stroke-linecap="round" stroke-linejoin="round" points="187.963987 59.4659751 136.475884 29.7368465 187.639871 0.192946058 239.127974 29.9220747"></polygon>
                <path d="M178.911897,38.5120332 L172.738264,34.9618257 L174.567203,33.9044813 C175.129836,33.5825189 175.747393,33.3679218 176.388424,33.2716183 C177.054992,33.1578902 177.736005,33.1578902 178.402572,33.2716183 C179.062199,33.3879328 179.696672,33.6177247 180.277814,33.9507884 L180.586495,34.1282988 C181.075304,34.3746292 181.486572,34.7512183 181.77492,35.2165145 C181.975431,35.5790998 181.975431,36.0193235 181.77492,36.3819087 C181.511495,36.8394141 181.119793,37.209691 180.648232,37.446971 L178.911897,38.5120332 Z M174.698392,34.8383402 L179.135691,37.4006639 L179.837942,36.9993361 C180.403859,36.6751867 180.661093,36.3227386 180.609646,35.9419917 C180.558199,35.5612448 180.20836,35.1830705 179.560129,34.8074689 L179.220579,34.606805 C178.624333,34.2422444 177.949692,34.0252787 177.252733,33.9739419 C176.623838,33.9371199 175.998137,34.0875185 175.454662,34.4061411 L174.698392,34.8383402 Z" id="Shape" fill="url(#linearGradient-18)" fill-rule="nonzero"></path>
                <path d="M187.416077,31.9518672 L185.016077,33.333361 L185.942122,34.4524481 L184.823151,35.1007469 L181.010932,30.199917 L181.975563,29.6442324 L190.464309,31.8438174 L189.337621,32.4921162 L187.416077,31.9518672 Z M184.46045,32.6619087 L186.250804,31.6431535 L182.801286,30.6861411 L184.46045,32.6619087 Z" id="Shape" fill="url(#linearGradient-31)" fill-rule="nonzero"></path>
                <path d="M193.535691,27.4832365 C194.240514,27.8897095 194.641801,28.3090456 194.73955,28.7412448 C194.837299,29.173444 194.613505,29.546473 194.068167,29.860332 C193.549748,30.1558069 192.95895,30.3001796 192.362701,30.2770954 L194.53119,31.5273859 L193.497106,32.1216598 L187.169132,28.4711203 L188.118328,27.9231535 L188.627653,28.1701245 C188.565916,27.7842324 188.794855,27.4395021 189.314469,27.1359336 C189.90602,26.8053618 190.585091,26.6652214 191.259164,26.7346058 C192.040248,26.8063893 192.794873,27.0544389 193.466238,27.460083 L193.535691,27.4832365 Z M192.41672,28.0234855 C192.001969,27.7731202 191.539235,27.6127243 191.058521,27.5526971 C190.637631,27.4910772 190.208243,27.572615 189.839228,27.7842324 C189.417363,28.0260581 189.286174,28.3013278 189.445659,28.6100415 L191.475241,29.7831535 C191.969978,29.8870332 192.485605,29.8074868 192.926045,29.5593361 C193.255305,29.3689627 193.38135,29.1451452 193.30418,28.8878838 C193.22701,28.6306224 192.93119,28.3424896 192.41672,28.0234855 Z" id="Shape" fill="url(#linearGradient-32)" fill-rule="nonzero"></path>
                <path d="M199.308039,24.1491286 C200.012862,24.5556017 200.414148,24.9749378 200.511897,25.4071369 C200.609646,25.8393361 200.396141,26.2123651 199.871383,26.5262241 C199.352963,26.821699 198.762166,26.9660717 198.165916,26.9429876 L200.334405,28.193278 L199.300322,28.7875519 L192.926045,25.1292946 L193.882958,24.5813278 L194.392283,24.8282988 C194.330547,24.4424066 194.559486,24.0976763 195.0791,23.7941079 C195.67065,23.4635361 196.349722,23.3233956 197.023794,23.3927801 C197.804878,23.4645635 198.559504,23.7126131 199.230868,24.1182573 L199.308039,24.1491286 Z M198.189068,24.6893776 C197.774316,24.4390123 197.311582,24.2786164 196.830868,24.2185892 C196.420937,24.1622087 196.003793,24.2407699 195.642444,24.4424066 C195.220579,24.6842324 195.089389,24.9595021 195.248875,25.2682158 L197.278457,26.4413278 C197.773194,26.5452075 198.28882,26.4656611 198.72926,26.2175104 C199.058521,26.0271369 199.184566,25.8033195 199.107395,25.5460581 C199.030225,25.2887967 198.724116,25.0058091 198.189068,24.6970954 L198.189068,24.6893776 Z" id="Shape" fill="url(#linearGradient-33)" fill-rule="nonzero"></path>
                <path d="M187.963987,59.4659751 L187.963987,74.7087137" id="Shape" stroke="url(#linearGradient-34)" stroke-width="0.5" stroke-linecap="round" stroke-linejoin="round"></path>
                <polygon id="Shape" fill="url(#linearGradient-11)" fill-rule="nonzero" opacity="0.1" points="239.127974 29.9220747 187.639871 0.192946058 136.475884 29.7368465 136.475884 44.9795851 187.963987 74.7164315 239.127974 45.1725311"></polygon>
                <path d="M239.127974,43.0424066 L239.127974,189.673693" id="Shape" stroke="url(#linearGradient-35)" stroke-width="0.5" stroke-linecap="round" stroke-linejoin="round" stroke-dasharray="1.543408355712891"></path>
                <path d="M188.095177,74.8476349 L188.095177,158.292946" id="Shape" stroke="url(#linearGradient-22)" stroke-width="0.5" stroke-linecap="round" stroke-linejoin="round" stroke-dasharray="1.543408355712891"></path>
                <path d="M136.475884,45.3577593 L136.475884,132.067718" id="Shape" stroke="url(#linearGradient-36)" stroke-width="0.5" stroke-linecap="round" stroke-linejoin="round" stroke-dasharray="1.543408355712891"></path>
                <path d="M188.095177,160.940166 L188.095177,218.754523" id="Shape" stroke="url(#linearGradient-37)" stroke-width="0.5" stroke-linecap="round" stroke-linejoin="round" stroke-dasharray="1.543408355712891"></path>
                <path d="M136.475884,131.789876 L136.475884,186.957012" id="Shape" stroke="url(#linearGradient-13)" stroke-width="0.5" stroke-linecap="round" stroke-linejoin="round" stroke-dasharray="1.543408355712891"></path>
            </g>
        </g>
    </g>
</svg>