<?xml version="1.0" encoding="utf-8"?>
<!-- Generator: Adobe Illustrator 21.1.0, SVG Export Plug-In . SVG Version: 6.00 Build 0)  -->
<svg version="1.1" id="Layer_1" xmlns="http://www.w3.org/2000/svg" xmlns:xlink="http://www.w3.org/1999/xlink" x="0px" y="0px"
	 viewBox="0 0 310.2 1163.5" style="enable-background:new 0 0 310.2 1163.5;" xml:space="preserve">
<style type="text/css">
	.st0{fill:none;stroke:#4CC5FF;stroke-width:0.5;stroke-linecap:round;stroke-linejoin:round;stroke-dasharray:2,3;}
	.st1{fill:url(#SVGID_1_);stroke:url(#SVGID_2_);stroke-width:0.5;stroke-linecap:round;stroke-linejoin:round;}
	.st2{fill:url(#SVGID_3_);stroke:url(#SVGID_4_);stroke-width:0.5;stroke-linecap:round;stroke-linejoin:round;}
	.st3{fill:url(#SVGID_5_);stroke:url(#SVGID_6_);stroke-width:0.5;stroke-linecap:round;stroke-linejoin:round;}
	.st4{fill:url(#SVGID_7_);}
	.st5{fill:none;}
	.st6{fill:url(#SVGID_8_);}
	.st7{opacity:0.35;fill:url(#SVGID_9_);enable-background:new    ;}
	.st8{fill:url(#SVGID_10_);stroke:#000000;stroke-width:0.25;stroke-linecap:round;stroke-linejoin:round;}
	.st9{fill:none;stroke:#000000;stroke-width:0.25;stroke-linecap:round;stroke-linejoin:round;}
	.st10{fill:url(#SVGID_11_);stroke:#000000;stroke-width:0.25;stroke-linecap:round;stroke-linejoin:round;}
	.st11{fill:url(#SVGID_12_);stroke:url(#SVGID_13_);stroke-width:0.5;stroke-linecap:round;stroke-linejoin:round;}
	.st12{fill:none;stroke:#1A1A1A;stroke-width:0.6;stroke-linecap:round;stroke-linejoin:round;}
	.st13{fill:none;stroke:url(#SVGID_14_);stroke-width:0.5;stroke-linecap:round;stroke-linejoin:round;}
	.st14{fill:url(#SVGID_15_);stroke:url(#SVGID_16_);stroke-width:0.5;stroke-linecap:round;stroke-linejoin:round;}
	.st15{fill:#FFFFFF;}
	.st16{fill:url(#SVGID_17_);stroke:url(#SVGID_18_);stroke-width:0.5;stroke-linecap:round;stroke-linejoin:round;}
	.st17{fill:none;stroke:url(#SVGID_19_);stroke-width:0.5;stroke-linecap:round;stroke-linejoin:round;}
	.st18{fill:none;stroke:url(#SVGID_20_);stroke-width:0.5;stroke-linecap:round;stroke-linejoin:round;stroke-dasharray:2,3;}
	.st19{fill:none;stroke:url(#SVGID_21_);stroke-width:0.5;stroke-linecap:round;stroke-linejoin:round;stroke-dasharray:2,3;}
	.st20{fill:url(#SVGID_22_);stroke:url(#SVGID_23_);stroke-width:0.5;stroke-linecap:round;stroke-linejoin:round;}
	.st21{fill:#4CC5FF;}
	.st22{fill:none;stroke:url(#SVGID_24_);stroke-width:0.5;stroke-linecap:round;stroke-linejoin:round;}
	.st23{fill:none;stroke:url(#SVGID_25_);stroke-width:0.5;stroke-linecap:round;stroke-linejoin:round;stroke-dasharray:2,3;}
	.st24{fill:none;stroke:url(#SVGID_26_);stroke-width:0.5;stroke-linecap:round;stroke-linejoin:round;stroke-dasharray:2,3;}
	.st25{fill:url(#SVGID_27_);stroke:url(#SVGID_28_);stroke-width:0.5;stroke-linecap:round;stroke-linejoin:round;}
	.st26{fill:none;stroke:url(#SVGID_29_);stroke-width:0.5;stroke-linecap:round;stroke-linejoin:round;}
	.st27{opacity:0.1;fill:url(#SVGID_30_);enable-background:new    ;}
	.st28{opacity:0.1;fill:url(#SVGID_31_);enable-background:new    ;}
	.st29{opacity:0.1;fill:url(#SVGID_32_);enable-background:new    ;}
</style>
<title>Asset 46</title>
<g>
	<g id="Layer_2">
		<g id="ilus">
			<line class="st0" x1="88.6" y1="58.8" x2="88.6" y2="307.7"/>
			
				<linearGradient id="SVGID_1_" gradientUnits="userSpaceOnUse" x1="0.3" y1="930.22" x2="133.32" y2="930.22" gradientTransform="matrix(1 0 0 -1 0 1166)">
				<stop  offset="0" style="stop-color:#2D3438"/>
				<stop  offset="1" style="stop-color:#1A1A1A"/>
			</linearGradient>
			
				<linearGradient id="SVGID_2_" gradientUnits="userSpaceOnUse" x1="5.000001e-02" y1="930.22" x2="133.57" y2="930.22" gradientTransform="matrix(1 0 0 -1 0 1166)">
				<stop  offset="0" style="stop-color:#5C8EE4"/>
				<stop  offset="1" style="stop-color:#67EAEC"/>
			</linearGradient>
			<polygon class="st1" points="133.3,226 66.6,187.5 0.3,225.8 0.3,245.5 67,284.1 133.3,245.8 			"/>
			
				<linearGradient id="SVGID_3_" gradientUnits="userSpaceOnUse" x1="88.58" y1="1117.47" x2="221.59" y2="1117.47" gradientTransform="matrix(1 0 0 -1 0 1166)">
				<stop  offset="0" style="stop-color:#2D3438"/>
				<stop  offset="1" style="stop-color:#1A1A1A"/>
			</linearGradient>
			
				<linearGradient id="SVGID_4_" gradientUnits="userSpaceOnUse" x1="88.33" y1="1117.47" x2="221.84" y2="1117.47" gradientTransform="matrix(1 0 0 -1 0 1166)">
				<stop  offset="0" style="stop-color:#5C8EE4"/>
				<stop  offset="1" style="stop-color:#67EAEC"/>
			</linearGradient>
			<polygon class="st2" points="221.6,38.8 154.9,0.2 88.6,38.5 88.6,58.3 155.3,96.8 221.6,58.5 			"/>
			<line class="st0" x1="221.6" y1="58.8" x2="221.6" y2="307.7"/>
			
				<linearGradient id="SVGID_5_" gradientUnits="userSpaceOnUse" x1="176.85" y1="1004.165" x2="309.87" y2="1004.165" gradientTransform="matrix(1 0 0 -1 0 1166)">
				<stop  offset="0" style="stop-color:#2D3438"/>
				<stop  offset="1" style="stop-color:#1A1A1A"/>
			</linearGradient>
			
				<linearGradient id="SVGID_6_" gradientUnits="userSpaceOnUse" x1="176.6" y1="1004.165" x2="310.12" y2="1004.165" gradientTransform="matrix(1 0 0 -1 0 1166)">
				<stop  offset="0" style="stop-color:#5C8EE4"/>
				<stop  offset="1" style="stop-color:#67EAEC"/>
			</linearGradient>
			<polygon class="st3" points="309.9,152.1 243.1,113.6 176.9,151.8 176.9,171.6 243.6,210.1 309.9,171.8 			"/>
			
				<linearGradient id="SVGID_7_" gradientUnits="userSpaceOnUse" x1="-57.6765" y1="437.7509" x2="367.8466" y2="192.0691" gradientTransform="matrix(1 0 0 -1 0 1166)">
				<stop  offset="0" style="stop-color:#2D3438"/>
				<stop  offset="1" style="stop-color:#1A1A1A"/>
			</linearGradient>
			<polygon class="st4" points="309.8,628.2 154.6,538.6 0.4,627.7 0.4,1074 155.6,1163.5 309.8,1074.5 			"/>
			<line class="st5" x1="0.3" y1="627.5" x2="0.3" y2="1073.7"/>
			<line class="st5" x1="155.6" y1="717" x2="155.6" y2="1163.3"/>
			<line class="st5" x1="309.9" y1="628.4" x2="309.9" y2="1074.7"/>
			
				<linearGradient id="SVGID_8_" gradientUnits="userSpaceOnUse" x1="38.9488" y1="605.109" x2="271.2198" y2="471.0085" gradientTransform="matrix(1 0 0 -1 0 1166)">
				<stop  offset="0" style="stop-color:#2D3438"/>
				<stop  offset="1" style="stop-color:#1A1A1A"/>
			</linearGradient>
			<polygon class="st6" points="155.6,717.2 0.4,627.7 154.6,538.6 309.8,628.2 			"/>
			
				<linearGradient id="SVGID_9_" gradientUnits="userSpaceOnUse" x1="-57.6765" y1="437.7509" x2="367.8466" y2="192.0691" gradientTransform="matrix(1 0 0 -1 0 1166)">
				<stop  offset="0" style="stop-color:#2D3438"/>
				<stop  offset="1" style="stop-color:#1A1A1A"/>
			</linearGradient>
			<polygon class="st7" points="309.8,628.2 154.6,538.6 0.4,627.7 0.4,1074 155.6,1163.5 309.8,1074.5 			"/>
			
				<linearGradient id="SVGID_10_" gradientUnits="userSpaceOnUse" x1="3607.0498" y1="645.53" x2="3916.4199" y2="645.53" gradientTransform="matrix(-1 0 0 -1 3916.8198 1166)">
				<stop  offset="0" style="stop-color:#2E3D4A"/>
				<stop  offset="1" style="stop-color:#232329"/>
			</linearGradient>
			<polygon class="st8" points="0.4,501.1 155.6,411.5 309.8,500.5 309.8,539.8 154.6,629.4 0.4,540.4 			"/>
			<line class="st9" x1="309.9" y1="500.3" x2="309.9" y2="539.6"/>
			<line class="st9" x1="154.6" y1="589.9" x2="154.6" y2="629.2"/>
			<line class="st9" x1="0.3" y1="501.3" x2="0.3" y2="540.6"/>
			
				<linearGradient id="SVGID_11_" gradientUnits="userSpaceOnUse" x1="3761.7349" y1="575.86" x2="3761.7349" y2="754.47" gradientTransform="matrix(-1 0 0 -1 3916.8198 1166)">
				<stop  offset="0" style="stop-color:#2E3D4A"/>
				<stop  offset="1" style="stop-color:#232329"/>
			</linearGradient>
			<polygon class="st10" points="154.6,590.1 309.8,500.5 155.6,411.5 0.4,501.1 			"/>
			
				<linearGradient id="SVGID_12_" gradientUnits="userSpaceOnUse" x1="0.4" y1="783.775" x2="309.77" y2="783.775" gradientTransform="matrix(1 0 0 -1 0 1166)">
				<stop  offset="0" style="stop-color:#5C8EE4"/>
				<stop  offset="1" style="stop-color:#67EAEC"/>
			</linearGradient>
			
				<linearGradient id="SVGID_13_" gradientUnits="userSpaceOnUse" x1="0.15" y1="783.775" x2="310.02" y2="783.775" gradientTransform="matrix(1 0 0 -1 0 1166)">
				<stop  offset="0" style="stop-color:#2D3438"/>
				<stop  offset="1" style="stop-color:#1A1A1A"/>
			</linearGradient>
			<polygon class="st11" points="309.8,358.6 154.6,269 0.4,358.1 0.4,405.8 155.6,495.4 309.8,406.4 			"/>
			<line class="st12" x1="0.3" y1="357.8" x2="0.3" y2="405.6"/>
			
				<linearGradient id="SVGID_14_" gradientUnits="userSpaceOnUse" x1="155.33" y1="694.69" x2="155.83" y2="694.69" gradientTransform="matrix(1 0 0 -1 0 1166)">
				<stop  offset="0" style="stop-color:#2D3438"/>
				<stop  offset="1" style="stop-color:#1A1A1A"/>
			</linearGradient>
			<line class="st13" x1="155.6" y1="447.4" x2="155.6" y2="495.2"/>
			<line class="st12" x1="309.9" y1="358.8" x2="309.9" y2="406.6"/>
			
				<linearGradient id="SVGID_15_" gradientUnits="userSpaceOnUse" x1="0.4" y1="807.665" x2="309.77" y2="807.665" gradientTransform="matrix(1 0 0 -1 0 1166)">
				<stop  offset="0" style="stop-color:#5C8EE4"/>
				<stop  offset="1" style="stop-color:#67EAEC"/>
			</linearGradient>
			
				<linearGradient id="SVGID_16_" gradientUnits="userSpaceOnUse" x1="0.15" y1="807.665" x2="310.02" y2="807.665" gradientTransform="matrix(1 0 0 -1 0 1166)">
				<stop  offset="0" style="stop-color:#2D3438"/>
				<stop  offset="1" style="stop-color:#1A1A1A"/>
			</linearGradient>
			<polygon class="st14" points="155.6,447.6 0.4,358.1 154.6,269 309.8,358.6 			"/>
			<g>
				<polygon class="st15" points="114.6,338.9 112.1,340.3 132.7,352.2 135.2,350.8 				"/>
				<path class="st15" d="M172.8,354.4c0.2-2.2-1.3-4.4-4.6-6.3c-3.3-1.9-6.9-2.8-10.9-2.7c-4,0.1-7.5,1-10.4,2.7
					c-3,1.8-4.6,3.9-4.6,6c-0.3,2.2,1.3,4.4,4.6,6.3c3.2,1.9,6.9,2.7,10.9,2.6c4-0.1,7.5-1,10.4-2.7
					C171.2,358.5,172.8,356.5,172.8,354.4z M157.2,360.7c-3,0.2-5.6-0.4-7.9-1.7c-2.3-1.4-3.3-3-2.9-4.6c0.2-1.6,1.4-3.1,3.7-4.5
					c1.5-1.1,4.3-1.8,7.7-2.1c3-0.2,5.7,0.4,7.9,1.7c2.3,1.4,3.3,3,2.9,4.6c-0.2,1.6-1.4,3.1-3.7,4.5
					C163.5,359.6,160.6,360.4,157.2,360.7z"/>
				<path class="st15" d="M189.2,373.5c-0.1-1.1-0.7-2.1-1.8-3.2c-1-1-2.1-2-3.2-3c-1-0.9-1.8-1.8-2.3-2.7c-0.5-0.7-0.3-1.4,0.6-2
					c1.1-0.7,2.4-0.8,3.9-0.5c1.9,0.4,3.4,1,4.4,1.6c3.3,1.9,4.1,3.6,2.4,5l0,0.1l3,1.7l0.1-0.1c1.6-1.2,2.1-2.6,1.4-3.9
					c-0.8-1.5-2.3-2.9-4.6-4.2c-1.6-1.1-4.1-2-7.3-2.5c-2.6-0.4-4.9-0.1-6.8,1c-1.4,0.9-2.1,1.8-1.9,2.8c0.2,1.1,0.9,2.1,2,3.1
					c1.1,1,2.2,2,3.3,2.9c1.1,0.9,1.8,1.8,2.2,2.8c0.4,0.7,0.1,1.5-0.9,2.2c-1.3,0.7-2.7,1-4.4,0.8c-2.1-0.3-3.7-0.9-4.7-1.6
					c-2-1.1-3.3-2.2-4.1-3.5c-0.6-1,0-2.1,1.6-3l0.1-0.1l-3.1-1.8l-0.1,0.1c-2.3,1.3-3.2,2.9-2.5,4.4c0.7,1.7,2.5,3.3,5.1,4.8
					c2.7,1.5,5.4,2.5,8.1,2.9c2.7,0.4,5.3-0.1,7.5-1.4C188.8,375.4,189.4,374.4,189.2,373.5z"/>
			</g>
			<line class="st0" x1="155.1" y1="97.2" x2="155.1" y2="346.1"/>
			
				<linearGradient id="SVGID_17_" gradientUnits="userSpaceOnUse" x1="0.3" y1="940.1" x2="133.32" y2="940.1" gradientTransform="matrix(1 0 0 -1 0 1166)">
				<stop  offset="0" style="stop-color:#2D3438"/>
				<stop  offset="1" style="stop-color:#1A1A1A"/>
			</linearGradient>
			
				<linearGradient id="SVGID_18_" gradientUnits="userSpaceOnUse" x1="5.000001e-02" y1="940.1" x2="133.57" y2="940.1" gradientTransform="matrix(1 0 0 -1 0 1166)">
				<stop  offset="0" style="stop-color:#5C8EE4"/>
				<stop  offset="1" style="stop-color:#67EAEC"/>
			</linearGradient>
			<polygon class="st16" points="67,264.3 0.3,225.8 66.6,187.5 133.3,226 			"/>
			
				<linearGradient id="SVGID_19_" gradientUnits="userSpaceOnUse" x1="66.77" y1="891.82" x2="67.27" y2="891.82" gradientTransform="matrix(1 0 0 -1 0 1166)">
				<stop  offset="0" style="stop-color:#5C8EE4"/>
				<stop  offset="1" style="stop-color:#67EAEC"/>
			</linearGradient>
			<line class="st17" x1="67" y1="264.3" x2="67" y2="284.1"/>
			
				<linearGradient id="SVGID_20_" gradientUnits="userSpaceOnUse" x1="66.48" y1="808.08" x2="67.13" y2="808.08" gradientTransform="matrix(1 0 0 -1 0 1166)">
				<stop  offset="0" style="stop-color:#2D3438"/>
				<stop  offset="1" style="stop-color:#1A1A1A"/>
			</linearGradient>
			<line class="st18" x1="66.9" y1="320.1" x2="66.7" y2="395.7"/>
			<line class="st0" x1="66.9" y1="284.2" x2="66.7" y2="318.1"/>
			<line class="st0" x1="133" y1="247.2" x2="132.9" y2="280.2"/>
			<line class="st0" x1="0.3" y1="246.5" x2="0.3" y2="359.1"/>
			
				<linearGradient id="SVGID_21_" gradientUnits="userSpaceOnUse" x1="132.62" y1="846.195" x2="133.27" y2="846.195" gradientTransform="matrix(1 0 0 -1 0 1166)">
				<stop  offset="0" style="stop-color:#2D3438"/>
				<stop  offset="1" style="stop-color:#1A1A1A"/>
			</linearGradient>
			<line class="st19" x1="133" y1="282" x2="132.9" y2="357.6"/>
			
				<linearGradient id="SVGID_22_" gradientUnits="userSpaceOnUse" x1="176.85" y1="1014.045" x2="309.87" y2="1014.045" gradientTransform="matrix(1 0 0 -1 0 1166)">
				<stop  offset="0" style="stop-color:#2D3438"/>
				<stop  offset="1" style="stop-color:#1A1A1A"/>
			</linearGradient>
			
				<linearGradient id="SVGID_23_" gradientUnits="userSpaceOnUse" x1="176.6" y1="1014.045" x2="310.12" y2="1014.045" gradientTransform="matrix(1 0 0 -1 0 1166)">
				<stop  offset="0" style="stop-color:#5C8EE4"/>
				<stop  offset="1" style="stop-color:#67EAEC"/>
			</linearGradient>
			<polygon class="st20" points="243.6,190.4 176.9,151.8 243.1,113.6 309.9,152.1 			"/>
			<g>
				<path class="st21" d="M238.1,145.8c0.3-0.5,0.3-1,0-1.5c-0.2-0.5-0.7-0.9-1.4-1.4l-2.4-1.4l-8,4.6l2.4,1.3
					c0.5,0.4,1.4,0.6,2.4,0.8c0.8,0.1,1.8,0.1,2.6,0c1-0.2,1.9-0.5,2.4-0.9l0.4-0.2C237.4,146.8,237.9,146.3,238.1,145.8z
					 M234.7,146.7c-0.8,0.5-1.7,0.7-2.5,0.8c-0.9,0-1.6-0.2-2.4-0.6l-0.9-0.5l5.8-3.3l1,0.6c0.7,0.4,1.1,0.9,1,1.3
					c-0.1,0.5-0.6,1-1.4,1.5L234.7,146.7z"/>
				<path class="st21" d="M245.1,147.7l-11,2.9l1.5,0.8l2.5-0.7l3.1,1.8l-1.2,1.4l1.5,0.8l4.9-6.4L245.1,147.7z M239.5,150.3
					l4.5-1.2l-2.2,2.6L239.5,150.3z"/>
				<path class="st21" d="M252.8,155.4c0.2-0.5-0.2-1-0.9-1.5c-0.7-0.4-1.5-0.6-2.3-0.5l0.6-0.4l-1.2-0.7l-8.2,4.7l1.3,0.8l2.8-1.6
					c-0.1,0.4,0.3,0.9,0.9,1.3c0.7,0.4,1.5,0.6,2.5,0.5c1-0.1,1.9-0.4,2.8-0.9l0.1-0.1C252.1,156.6,252.7,156,252.8,155.4z M248,157
					c-0.6,0.1-1.1,0-1.5-0.3c-0.6-0.3-0.7-0.7-0.5-1.1l2.6-1.5c0.7-0.1,1.3,0,1.9,0.3c0.5,0.3,0.6,0.6,0.5,0.9
					c-0.1,0.4-0.5,0.7-1.1,1C249.2,156.7,248.6,156.9,248,157z"/>
				<path class="st21" d="M258.7,161.4c0.9-0.5,1.5-1.1,1.6-1.7c0.2-0.5-0.2-1-0.9-1.5c-0.7-0.4-1.5-0.6-2.3-0.5l0.6-0.4l-1.2-0.7
					l-8.2,4.7l1.3,0.8l2.8-1.6c-0.1,0.4,0.3,0.9,0.9,1.3c0.7,0.4,1.5,0.6,2.5,0.5C256.8,162.3,257.7,162,258.7,161.4L258.7,161.4z
					 M255.5,161.3c-0.6,0.1-1.1,0-1.5-0.3c-0.6-0.3-0.7-0.7-0.5-1.1l2.6-1.5c0.7-0.1,1.3,0,1.9,0.3c0.5,0.3,0.6,0.6,0.5,0.9
					c-0.1,0.4-0.5,0.7-1.1,1C256.7,161,256.1,161.2,255.5,161.3z"/>
			</g>
			
				<linearGradient id="SVGID_24_" gradientUnits="userSpaceOnUse" x1="243.32" y1="965.77" x2="243.82" y2="965.77" gradientTransform="matrix(1 0 0 -1 0 1166)">
				<stop  offset="0" style="stop-color:#5C8EE4"/>
				<stop  offset="1" style="stop-color:#67EAEC"/>
			</linearGradient>
			<line class="st22" x1="243.6" y1="190.4" x2="243.6" y2="210.1"/>
			<line class="st0" x1="309.9" y1="169.1" x2="309.9" y2="359.1"/>
			<line class="st0" x1="243.7" y1="210.3" x2="243.7" y2="318.4"/>
			<line class="st0" x1="176.9" y1="172.1" x2="176.9" y2="284.4"/>
			
				<linearGradient id="SVGID_25_" gradientUnits="userSpaceOnUse" x1="243.49" y1="806.705" x2="243.99" y2="806.705" gradientTransform="matrix(1 0 0 -1 0 1166)">
				<stop  offset="0" style="stop-color:#2D3438"/>
				<stop  offset="1" style="stop-color:#1A1A1A"/>
			</linearGradient>
			<line class="st23" x1="243.7" y1="321.8" x2="243.7" y2="396.8"/>
			
				<linearGradient id="SVGID_26_" gradientUnits="userSpaceOnUse" x1="176.6" y1="846.195" x2="177.1" y2="846.195" gradientTransform="matrix(1 0 0 -1 0 1166)">
				<stop  offset="0" style="stop-color:#2D3438"/>
				<stop  offset="1" style="stop-color:#1A1A1A"/>
			</linearGradient>
			<line class="st24" x1="176.9" y1="284.1" x2="176.9" y2="355.5"/>
			
				<linearGradient id="SVGID_27_" gradientUnits="userSpaceOnUse" x1="88.58" y1="1127.35" x2="221.59" y2="1127.35" gradientTransform="matrix(1 0 0 -1 0 1166)">
				<stop  offset="0" style="stop-color:#2D3438"/>
				<stop  offset="1" style="stop-color:#1A1A1A"/>
			</linearGradient>
			
				<linearGradient id="SVGID_28_" gradientUnits="userSpaceOnUse" x1="88.33" y1="1127.35" x2="221.84" y2="1127.35" gradientTransform="matrix(1 0 0 -1 0 1166)">
				<stop  offset="0" style="stop-color:#5C8EE4"/>
				<stop  offset="1" style="stop-color:#67EAEC"/>
			</linearGradient>
			<polygon class="st25" points="155.3,77.1 88.6,38.5 154.9,0.2 221.6,38.8 			"/>
			
				<linearGradient id="SVGID_29_" gradientUnits="userSpaceOnUse" x1="155.04" y1="1079.075" x2="155.54" y2="1079.075" gradientTransform="matrix(1 0 0 -1 0 1166)">
				<stop  offset="0" style="stop-color:#5C8EE4"/>
				<stop  offset="1" style="stop-color:#67EAEC"/>
			</linearGradient>
			<line class="st26" x1="155.3" y1="77.1" x2="155.3" y2="96.8"/>
			
				<linearGradient id="SVGID_30_" gradientUnits="userSpaceOnUse" x1="176.85" y1="1004.165" x2="309.87" y2="1004.165" gradientTransform="matrix(1 0 0 -1 0 1166)">
				<stop  offset="0" style="stop-color:#5C8EE4"/>
				<stop  offset="1" style="stop-color:#67EAEC"/>
			</linearGradient>
			<polygon class="st27" points="309.9,152.1 243.1,113.6 176.9,151.8 176.9,171.6 243.6,210.1 309.9,171.8 			"/>
			<g>
				<path class="st21" d="M149.9,32.5c0.3-0.5,0.3-1,0-1.5c-0.2-0.5-0.7-0.9-1.4-1.4l-2.4-1.4l-8,4.6l2.4,1.3
					c0.5,0.4,1.4,0.6,2.4,0.8c0.8,0.1,1.8,0.1,2.6,0c1-0.2,1.9-0.5,2.4-0.9l0.4-0.2C149.1,33.5,149.6,33,149.9,32.5z M146.4,33.4
					c-0.8,0.5-1.7,0.7-2.5,0.8c-0.9,0-1.6-0.2-2.4-0.6l-0.9-0.5l5.8-3.3l1,0.6c0.7,0.4,1.1,0.9,1,1.3c-0.1,0.5-0.6,1-1.4,1.5
					L146.4,33.4z"/>
				<path class="st21" d="M156.8,34.4l-11,2.9l1.5,0.8l2.5-0.7l3.1,1.8l-1.2,1.4l1.5,0.8l4.9-6.4L156.8,34.4z M151.3,37l4.5-1.2
					l-2.2,2.6L151.3,37z"/>
				<path class="st21" d="M164.5,42.1c0.2-0.5-0.2-1-0.9-1.5c-0.7-0.4-1.5-0.6-2.3-0.5l0.6-0.4l-1.2-0.7l-8.2,4.7l1.3,0.8l2.8-1.6
					c-0.1,0.4,0.3,0.9,0.9,1.3c0.7,0.4,1.5,0.6,2.5,0.5c1-0.1,1.9-0.4,2.8-0.9l0.1-0.1C163.8,43.3,164.4,42.7,164.5,42.1z
					 M159.7,43.7c-0.6,0.1-1.1,0-1.5-0.3c-0.6-0.3-0.7-0.7-0.5-1.1l2.6-1.5c0.7-0.1,1.3,0,1.9,0.3c0.5,0.3,0.6,0.6,0.5,0.9
					c-0.1,0.4-0.5,0.7-1.1,1C160.9,43.4,160.3,43.6,159.7,43.7z"/>
				<path class="st21" d="M170.4,48.1c0.9-0.5,1.5-1.1,1.6-1.7c0.2-0.5-0.2-1-0.9-1.5c-0.7-0.4-1.5-0.6-2.3-0.5l0.6-0.4l-1.2-0.7
					l-8.2,4.7l1.3,0.8l2.8-1.6c-0.1,0.4,0.3,0.9,0.9,1.3c0.7,0.4,1.5,0.6,2.5,0.5S169.4,48.7,170.4,48.1L170.4,48.1z M167.2,48
					c-0.6,0.1-1.1,0-1.5-0.3c-0.6-0.3-0.7-0.7-0.5-1.1l2.6-1.5c0.7-0.1,1.3,0,1.9,0.3c0.5,0.3,0.6,0.6,0.5,0.9
					c-0.1,0.4-0.5,0.7-1.1,1C168.4,47.7,167.8,47.9,167.2,48z"/>
			</g>
			
				<linearGradient id="SVGID_31_" gradientUnits="userSpaceOnUse" x1="88.58" y1="1117.47" x2="221.59" y2="1117.47" gradientTransform="matrix(1 0 0 -1 0 1166)">
				<stop  offset="0" style="stop-color:#5C8EE4"/>
				<stop  offset="1" style="stop-color:#67EAEC"/>
			</linearGradient>
			<polygon class="st28" points="221.6,38.8 154.9,0.2 88.6,38.5 88.6,58.3 155.3,96.8 221.6,58.5 			"/>
			<g>
				<path class="st21" d="M61.6,219.7c0.3-0.5,0.3-1,0-1.5c-0.2-0.5-0.7-0.9-1.4-1.4l-2.4-1.4l-8,4.6l2.4,1.3
					c0.5,0.4,1.4,0.6,2.4,0.8c0.8,0.1,1.8,0.1,2.6,0c1-0.2,1.9-0.5,2.4-0.9l0.4-0.2C60.8,220.7,61.3,220.2,61.6,219.7z M58.1,220.6
					c-0.8,0.5-1.7,0.7-2.5,0.8c-0.9,0-1.6-0.2-2.4-0.6l-0.9-0.5l5.8-3.3l1,0.6c0.7,0.4,1.1,0.9,1,1.3c-0.1,0.5-0.6,1-1.4,1.5
					L58.1,220.6z"/>
				<path class="st21" d="M68.5,221.7l-11,2.9l1.5,0.8l2.5-0.7l3.1,1.8l-1.2,1.4l1.5,0.8l4.9-6.4L68.5,221.7z M63,224.3l4.5-1.2
					l-2.2,2.6L63,224.3z"/>
				<path class="st21" d="M76.3,229.4c0.2-0.5-0.2-1-0.9-1.5c-0.7-0.4-1.5-0.6-2.3-0.5l0.6-0.4l-1.2-0.7l-8.2,4.7l1.3,0.8l2.8-1.6
					c-0.1,0.4,0.3,0.9,0.9,1.3c0.7,0.4,1.5,0.6,2.5,0.5c1-0.1,1.9-0.4,2.8-0.9l0.1-0.1C75.5,230.5,76.1,229.9,76.3,229.4z
					 M71.4,230.9c-0.6,0.1-1.1,0-1.5-0.3c-0.6-0.3-0.7-0.7-0.5-1.1l2.6-1.5c0.7-0.1,1.3,0,1.9,0.3c0.5,0.3,0.6,0.6,0.5,0.9
					c-0.1,0.4-0.5,0.7-1.1,1C72.7,230.6,72,230.9,71.4,230.9z"/>
				<path class="st21" d="M82.1,235.3c0.9-0.5,1.5-1.1,1.6-1.7c0.2-0.5-0.2-1-0.9-1.5c-0.7-0.4-1.5-0.6-2.3-0.5l0.6-0.4l-1.2-0.7
					l-8.2,4.7l1.3,0.8l2.8-1.6c-0.1,0.4,0.3,0.9,0.9,1.3c0.7,0.4,1.5,0.6,2.5,0.5C80.2,236.2,81.2,235.9,82.1,235.3L82.1,235.3z
					 M78.9,235.2c-0.6,0.1-1.1,0-1.5-0.3c-0.6-0.3-0.7-0.7-0.5-1.1l2.6-1.5c0.7-0.1,1.3,0,1.9,0.3c0.5,0.3,0.6,0.6,0.5,0.9
					c-0.1,0.4-0.5,0.7-1.1,1C80.2,234.9,79.5,235.2,78.9,235.2z"/>
			</g>
			
				<linearGradient id="SVGID_32_" gradientUnits="userSpaceOnUse" x1="0.3" y1="930.22" x2="133.32" y2="930.22" gradientTransform="matrix(1 0 0 -1 0 1166)">
				<stop  offset="0" style="stop-color:#5C8EE4"/>
				<stop  offset="1" style="stop-color:#67EAEC"/>
			</linearGradient>
			<polygon class="st29" points="133.3,226 66.6,187.5 0.3,225.8 0.3,245.5 67,284.1 133.3,245.8 			"/>
		</g>
	</g>
</g>
</svg>
