<?xml version="1.0" encoding="UTF-8"?>
<svg width="77px" height="17px" viewBox="0 0 77 17" version="1.1" xmlns="http://www.w3.org/2000/svg" xmlns:xlink="http://www.w3.org/1999/xlink">
    <!-- Generator: Sketch 50 (54983) - http://www.bohemiancoding.com/sketch -->
    <title>W_Zeppelin</title>
    <desc>Created with Sketch.</desc>
    <defs></defs>
    <g id="Symbols" stroke="none" stroke-width="1" fill="none" fill-rule="evenodd">
        <g id="footer" transform="translate(-805.000000, -299.000000)" fill="#FFFFFF" fill-rule="nonzero">
            <g id="Group" transform="translate(559.000000, 289.000000)">
                <g id="W_Zeppelin" transform="translate(246.000000, 10.000000)">
                    <polygon id="Shape" points="14.5466616 0.0297695853 0.328658537 0.0297695853 0.328658537 3.52495392 12.4960671 3.52495392"></polygon>
                    <polygon id="Shape" points="5.47998984 16.980023 14.4950152 16.980023 14.4950152 13.4664286 10.0303455 13.4664286"></polygon>
                    <polygon id="Shape" points="6.69446138 13.4664286 11.9839075 4.40237327 6.41666667 6.0040553 0 16.980023 4.64386687 16.980023 6.69446138 13.4664286"></polygon>
                    <polygon id="Shape" points="20.7579167 11.0629263 24.8293699 5.49562212 20.7579167 5.49562212 20.7579167 4.71456221 25.8231707 4.71456221 25.8231707 5.49562212 21.779497 11.0629263 25.8231707 11.0629263 25.8231707 11.8439862 20.7579167 11.8439862"></polygon>
                    <path d="M27.7943394,8.30767281 C27.7943394,6.27668203 28.7724898,4.50147465 30.9154217,4.50147465 C33.2985874,4.50147465 34.1073222,6.13488479 34.1073222,8.4071659 L34.1073222,8.47806452 L28.7024543,8.47806452 C28.730625,9.9833871 29.2983435,11.2760138 31.0288872,11.2760138 C32.0786382,11.2760138 32.9296291,10.6101152 33.1002185,9.71389401 L33.9797713,9.71389401 C33.6820224,11.2192166 32.6177947,12.0570737 30.9279421,12.0570737 C28.6738923,12.0570737 27.7943394,10.1396774 27.7943394,8.30767281 Z M33.1992073,7.75380184 C33.1992073,6.27668203 32.4616819,5.28253456 30.9298984,5.28253456 C29.4689329,5.28253456 28.7310163,6.44707373 28.7310163,7.75380184 L33.1992073,7.75380184 Z" id="Shape"></path>
                    <path d="M36.8449695,4.71456221 L37.681875,4.71456221 L37.681875,5.79410138 L37.7100457,5.79410138 C38.1924695,4.91354839 38.9440803,4.50147465 39.9370986,4.50147465 C41.9372205,4.50147465 42.9588008,6.37617512 42.9588008,8.22267281 C42.9588008,10.040576 41.9376118,12.0574654 39.9370986,12.0574654 C38.8873476,12.0574654 38.277373,11.6030876 37.7100457,10.7366359 L37.681875,10.7366359 L37.681875,14.5714286 L36.8449695,14.5714286 L36.8449695,4.71456221 Z M42.0796392,8.25087558 C42.0796392,6.93004608 41.453623,5.28253456 39.9374898,5.28253456 C38.3485823,5.28253456 37.6251423,6.85914747 37.6251423,8.27907834 C37.6251423,9.69900922 38.3485823,11.2756221 39.9374898,11.2756221 C41.4696646,11.2756221 42.0796392,9.57170507 42.0796392,8.25087558 Z" id="Shape"></path>
                    <path d="M45.5974593,4.71456221 L46.4343648,4.71456221 L46.4343648,5.79410138 L46.4625356,5.79410138 C46.9449593,4.91354839 47.6965701,4.50147465 48.6895884,4.50147465 C50.6897104,4.50147465 51.7112907,6.37617512 51.7112907,8.22267281 C51.7112907,10.040576 50.6901016,12.0574654 48.6895884,12.0574654 C47.6398374,12.0574654 47.0298628,11.6030876 46.4625356,10.7366359 L46.4343648,10.7366359 L46.4343648,14.5714286 L45.5974593,14.5714286 L45.5974593,4.71456221 Z M50.8321291,8.25087558 C50.8321291,6.93004608 50.2061128,5.28253456 48.6899797,5.28253456 C47.1010722,5.28253456 46.3776321,6.85914747 46.3776321,8.27907834 C46.3776321,9.69900922 47.1010722,11.2756221 48.6899797,11.2756221 C50.2221545,11.2756221 50.8321291,9.57170507 50.8321291,8.25087558 Z" id="Shape"></path>
                    <path d="M54.0522002,8.30767281 C54.0522002,6.27668203 55.0303506,4.50147465 57.1732825,4.50147465 C59.5564482,4.50147465 60.3651829,6.13488479 60.3651829,8.4071659 L60.3651829,8.47806452 L54.9599238,8.47806452 C54.9880945,9.9833871 55.555813,11.2760138 57.2863567,11.2760138 C58.3361077,11.2760138 59.1870986,10.6101152 59.357688,9.71389401 L60.2372409,9.71389401 C59.9394919,11.2192166 58.8752642,12.0570737 57.1854116,12.0570737 C54.9329268,12.0570737 54.0522002,10.1396774 54.0522002,8.30767281 Z M59.4570681,7.75380184 C59.4570681,6.27668203 58.7195427,5.28253456 57.1877591,5.28253456 C55.7267937,5.28253456 54.988877,6.44707373 54.988877,7.75380184 L59.4570681,7.75380184 Z" id="Shape"></path>
                    <polygon id="Shape" points="63.2299898 1.58993088 64.0516362 1.58993088 64.0516362 11.8439862 63.2299898 11.8439862"></polygon>
                    <path d="M67.1312449,1.57582949 L68.2377287,1.57582949 L68.2377287,2.7971659 L67.1312449,2.7971659 L67.1312449,1.57582949 Z M67.3440904,4.71456221 L68.1657368,4.71456221 L68.1657368,11.8435945 L67.3440904,11.8435945 L67.3440904,4.71456221 Z" id="Shape"></path>
                    <path d="M71.4863618,4.71456221 L72.3232673,4.71456221 L72.3232673,5.76550691 L72.351438,5.79370968 C72.8052998,4.8990553 73.6425965,4.50108295 74.5362348,4.50108295 C76.2100457,4.50108295 76.9906098,5.79370968 76.9906098,7.38403226 L76.9906098,11.8439862 L76.1537043,11.8439862 L76.1537043,7.24223502 C76.1537043,6.09179724 75.4729116,5.28370968 74.3237805,5.28370968 C72.9903659,5.28370968 72.3236585,6.50504608 72.3236585,7.74087558 L72.3236585,11.8439862 L71.486753,11.8439862 L71.4863618,4.71456221 Z" id="Shape"></path>
                </g>
            </g>
        </g>
    </g>
</svg>