<?xml version="1.0" encoding="UTF-8"?>
<svg width="140px" height="23px" viewBox="0 0 140 23" version="1.1" xmlns="http://www.w3.org/2000/svg" xmlns:xlink="http://www.w3.org/1999/xlink">
    <!-- Generator: Sketch 50 (54983) - http://www.bohemiancoding.com/sketch -->
    <title>D_Zeppelin OS</title>
    <desc>Created with Sketch.</desc>
    <defs></defs>
    <g id="Symbols" stroke="none" stroke-width="1" fill="none" fill-rule="evenodd">
        <g id="navbar" transform="translate(-180.000000, -34.000000)">
            <g id="D_Zeppelin-OS" transform="translate(180.000000, 34.000000)">
                <polygon id="_Compound_Path_" fill="#FFFFFF" fill-rule="nonzero" points="0 16.7151163 7.27277221 6.90802326 0 6.90802326 0 5.53069767 9.04797318 5.53069767 9.04797318 6.90802326 1.82530198 16.7151163 9.04797318 16.7151163 9.04797318 18.0911047 0 18.0911047"></polygon>
                <path d="M12.5699394,11.8637209 C12.5699394,8.29069767 14.3180587,5.15627907 18.1446933,5.15627907 C22.4032799,5.15627907 23.8467309,8.0352907 23.8467309,12.0388953 L23.8467309,12.1686047 L14.1921291,12.1686047 C14.2422302,14.8216279 15.2564373,17.0988953 18.3491596,17.0988953 C20.2245626,17.0988953 21.7451962,15.9234884 22.0498646,14.3455814 L23.6205992,14.3455814 C23.0884452,16.9986047 21.1832524,18.4748837 18.1717749,18.4748837 C14.140674,18.4708721 12.5699394,15.0917442 12.5699394,11.8637209 Z M22.2258952,10.8875581 C22.2258952,8.28534884 20.9083738,6.53360465 18.1717749,6.53360465 C15.5611056,6.53360465 14.2449383,8.58622093 14.2449383,10.8875581 L22.2258952,10.8875581 Z" id="_Compound_Path_2" fill="#FFFFFF" fill-rule="nonzero"></path>
                <path d="M28.7363195,5.53069767 L30.2258092,5.53069767 L30.2258092,7.43354651 L30.2759102,7.43354651 C31.1384602,5.88238372 32.4817092,5.1602907 34.255556,5.1602907 C37.8289773,5.1602907 39.6542793,8.46453488 39.6542793,11.7126163 C39.6542793,14.9219186 37.8289773,18.4695349 34.255556,18.4695349 C32.380153,18.4695349 31.2901174,17.6672093 30.2759102,16.1427907 L30.2258092,16.1427907 L30.2258092,22.8997093 L28.7363195,22.8997093 L28.7363195,5.53069767 Z M38.088961,11.7674419 C38.088961,9.44069767 36.9731978,6.53627907 34.2623264,6.53627907 C31.4187551,6.53627907 30.1310235,9.315 30.1310235,11.8169186 C30.1310235,14.3188372 31.4241714,17.0975581 34.2623264,17.0975581 C36.9989253,17.0935465 38.088961,14.0901744 38.088961,11.7674419 Z" id="_Compound_Path_3" fill="#FFFFFF" fill-rule="nonzero"></path>
                <path d="M44.3718996,5.53069767 L45.8613893,5.53069767 L45.8613893,7.43354651 L45.9114903,7.43354651 C46.7740403,5.88238372 48.1172893,5.1602907 49.8911361,5.1602907 C53.4645575,5.1602907 55.2898594,8.46453488 55.2898594,11.7126163 C55.2898594,14.9219186 53.4645575,18.4695349 49.8911361,18.4695349 C48.0157331,18.4695349 46.9256975,17.6672093 45.9114903,16.1427907 L45.8613893,16.1427907 L45.8613893,22.8997093 L44.3718996,22.8997093 L44.3718996,5.53069767 Z M53.7245411,11.7674419 C53.7245411,9.44069767 52.6087779,6.53627907 49.8979065,6.53627907 C47.0543352,6.53627907 45.7666036,9.315 45.7666036,11.8169186 C45.7666036,14.3188372 47.0597515,17.0975581 49.8979065,17.0975581 C52.6345054,17.0935465 53.7245411,14.0901744 53.7245411,11.7674419 Z" id="_Compound_Path_4" fill="#FFFFFF" fill-rule="nonzero"></path>
                <path d="M59.4753256,11.8637209 C59.4753256,8.28534884 61.223445,5.15627907 65.0500795,5.15627907 C69.3086661,5.15627907 70.7521171,8.0352907 70.7521171,12.0388953 L70.7521171,12.1686047 L61.0975154,12.1686047 C61.1476164,14.8216279 62.1618235,17.0988953 65.2545458,17.0988953 C67.1299488,17.0988953 68.6505825,15.9234884 68.9552508,14.3455814 L70.5259855,14.3455814 C69.9938314,16.9986047 68.0886386,18.4748837 65.0771612,18.4748837 C61.0474143,18.4708721 59.4753256,15.0917442 59.4753256,11.8637209 Z M69.1312814,10.8875581 C69.1312814,8.28534884 67.81376,6.53360465 65.0758071,6.53360465 C62.4651378,6.53360465 61.1489705,8.58622093 61.1489705,10.8875581 L69.1312814,10.8875581 Z" id="_Compound_Path_5" fill="#FFFFFF" fill-rule="nonzero"></path>
                <polygon id="_Compound_Path_6" fill="#FFFFFF" fill-rule="nonzero" points="75.8718996 0.0254069767 77.3410781 0.0254069767 77.3410781 18.0951163 75.8718996 18.0951163"></polygon>
                <path d="M82.8400034,0 L84.8169626,0 L84.8169626,2.15156977 L82.8400034,2.15156977 L82.8400034,0 Z M83.2205004,5.53069767 L84.6896789,5.53069767 L84.6896789,18.1004651 L83.2205004,18.1004651 L83.2205004,5.53069767 Z" id="_Compound_Path_7" fill="#FFFFFF" fill-rule="nonzero"></path>
                <path d="M90.6205562,5.53069767 L92.110046,5.53069767 L92.110046,7.38273256 L92.160147,7.4322093 C92.972596,5.85563953 94.4620857,5.15895349 96.0639642,5.15895349 C99.0551305,5.15895349 100.44848,7.4322093 100.44848,10.2403488 L100.44848,18.0991279 L98.9589907,18.0991279 L98.9589907,9.98627907 C98.9589907,7.95906977 97.7403172,6.53226744 95.6902377,6.53226744 C93.3070541,6.53226744 92.1168164,8.68383721 92.1168164,10.8621512 L92.1168164,18.0951163 L90.6273267,18.0951163 L90.6205562,5.53069767 Z" id="_Compound_Path_8" fill="#FFFFFF" fill-rule="nonzero"></path>
                <path d="M114.440205,11.812907 C114.440205,8.35889535 116.543094,5.15494186 120.243799,5.15494186 C123.918777,5.15494186 126.047393,8.36424419 126.047393,11.812907 C126.047393,15.2615698 123.918777,18.4708721 120.242445,18.4708721 C116.544448,18.4708721 114.440205,15.2669186 114.440205,11.812907 Z M124.450931,11.812907 C124.450931,9.36046512 122.980398,6.53226744 120.243799,6.53226744 C117.5072,6.53226744 116.036668,9.36046512 116.036668,11.812907 C116.036668,14.2653488 117.5072,17.0935465 120.242445,17.0935465 C122.97769,17.0935465 124.450931,14.266686 124.450931,11.812907 Z" id="Combined-Shape" fill="#4CC5FF"></path>
                <path d="M129.949856,14.3415698 L131.47049,14.3415698 C131.47049,16.6937209 133.270064,17.1938372 135.372953,17.1938372 C136.943687,17.1938372 138.364119,16.4436628 138.364119,14.6919186 C138.364119,11.0814535 130.48201,13.34 130.48201,8.65976744 C130.48201,6.15784884 132.889567,5.15627907 135.018183,5.15627907 C137.553024,5.15627907 139.428427,6.10703488 139.707368,8.48459302 L138.236835,8.48459302 C137.957895,6.98290698 136.716202,6.43197674 135.043911,6.43197674 C133.700662,6.43197674 132.1042,6.9575 132.1042,8.55947674 C132.1042,11.6350581 139.986309,9.81110465 139.986309,14.4659302 C139.986309,17.4947093 137.630207,18.4695349 134.99381,18.4695349 C132.180028,18.4708721 129.949856,17.3690116 129.949856,14.3415698 Z" id="_Compound_Path_10" fill="#4CC5FF" fill-rule="nonzero"></path>
                <polygon id="_Compound_Path_11" fill="#FFFFFF" fill-rule="nonzero" points="103.614323 19.255814 113.130809 19.255814 113.130809 20.4593023 103.614323 20.4593023"></polygon>
            </g>
        </g>
    </g>
</svg>