<svg id="Layer_1" data-name="Layer 1" xmlns="http://www.w3.org/2000/svg" viewBox="0 0 1224.18 215.92"><defs><style>.cls-1{fill:#fff;}.cls-2{fill:#67eaec;}</style></defs><title>zOS_logo_light</title><path class="cls-1" d="M0,171.3V157.35L91.34,17.43H0V3.49H109V17.43L17.43,157.35H109V171.3Z"/><path class="cls-1" d="M187.57,174.78q-17.43,0-29.52-9.3a49.81,49.81,0,0,1-17-22.66,85.13,85.13,0,0,1-4.88-29.4q0-26.73,13-44.51t38.12-17.78q52.3,0,52.3,63.92v1.16H151.08q.46,20.46,9.41,33.12T189.19,162a36,36,0,0,0,22.31-7.21,29.16,29.16,0,0,0,11.62-18.36h14.41Q233.82,155,221,164.91T187.57,174.78Zm-36-70.42h73.21q0-18.83-9.41-29.63T187.57,63.92q-17.2,0-26.61,11.74T151.54,104.36Z"/><path class="cls-1" d="M275.19,215.92V54.62H288.9V72.28h.46Q301,51.14,325.86,51.13q23.24,0,36.37,18.13T375.37,112q0,24.4-13.25,43.58t-36.26,19.18q-12.32,0-20.8-5.23t-15.69-16.39h-.46v62.76ZM325.86,162q17.2,0,26.15-15.34A66.58,66.58,0,0,0,361,112.49,64.29,64.29,0,0,0,352,78.91q-9-15-26.15-15-18.13,0-28,14.76T288,113q0,19.52,9.88,34.28T325.86,162Z"/><path class="cls-1" d="M409.3,215.92V54.62H423V72.28h.46Q435.1,51.14,460,51.13q23.24,0,36.37,18.13T509.48,112q0,24.4-13.25,43.58T460,174.78q-12.32,0-20.8-5.23t-15.69-16.39H423v62.76ZM460,162q17.2,0,26.15-15.34a66.58,66.58,0,0,0,8.95-34.17,64.29,64.29,0,0,0-8.95-33.59q-9-15-26.15-15-18.13,0-28,14.76T422.08,113q0,19.52,9.88,34.28T460,162Z"/><path class="cls-1" d="M589.89,174.78q-17.43,0-29.52-9.3a49.81,49.81,0,0,1-17-22.66,85.13,85.13,0,0,1-4.88-29.4q0-26.73,13-44.51t38.12-17.78q52.3,0,52.3,63.92v1.16H553.4q.46,20.46,9.41,33.12T591.52,162a36,36,0,0,0,22.31-7.21,29.15,29.15,0,0,0,11.62-18.36h14.41q-3.72,18.6-16.5,28.47T589.89,174.78Zm-36-70.42h73.21q0-18.83-9.41-29.63T589.89,63.92q-17.2,0-26.61,11.74T553.87,104.36Z"/><path class="cls-1" d="M679.61,171.3V3.49h13.48V171.3Z"/><path class="cls-1" d="M734.23,23.24v-20h18.13v20Zm3.49,148.06V54.62H751.2V171.3Z"/><path class="cls-1" d="M796.29,171.3V54.62H810v17.2l.46.46q10.69-21.15,35.79-21.15,19.75,0,30,13.25t10.23,33.93v73H872.76V96q0-14.41-8-23.24t-22-8.83q-15.57,0-24.17,11.85T810,104.13V171.3Z"/><path class="cls-2" d="M1001.05,174.78q-24.18,0-41.14-12.2a69.05,69.05,0,0,1-24.52-31.49q-7.55-19.29-7.55-43.7t7.55-43.7A69.07,69.07,0,0,1,959.91,12.2Q976.88,0,1001.05,0q36,0,54.74,24.75t18.71,62.64q0,37.89-18.71,62.64T1001.05,174.78Zm0-13.95q19.29,0,32.77-11a59.87,59.87,0,0,0,19.06-27.08,106.92,106.92,0,0,0,5.58-35.33,106.94,106.94,0,0,0-5.58-35.33A59.89,59.89,0,0,0,1033.82,25q-13.48-11-32.77-11-14.64,0-25.92,6.28a49.54,49.54,0,0,0-18,16.85A82,82,0,0,0,947,60.43a105.32,105.32,0,0,0-3.37,27,105.29,105.29,0,0,0,3.37,27,81.91,81.91,0,0,0,10.11,23.36,49.5,49.5,0,0,0,18,16.85Q986.41,160.84,1001.05,160.84Z"/><path class="cls-2" d="M1170.72,174.78q-53.46,0-59.27-47.18h15.81q4.65,33.94,42.77,33.93t38.12-33a24.94,24.94,0,0,0-5.11-15.69,36.46,36.46,0,0,0-13.36-10.58,153.08,153.08,0,0,0-18.13-7.21q-9.88-3.25-19.76-7.09a115.45,115.45,0,0,1-18.13-8.83,38.43,38.43,0,0,1-13.37-13.71q-5.11-8.72-5.11-20.57,0-21.62,14.64-33.24t37-11.62q50.2,0,53.46,40h-14.87q-2.56-27-37.89-27-15.81,0-26,7.44t-10.23,22.78a27.13,27.13,0,0,0,5.11,16.5,37,37,0,0,0,13.36,11.16,139.47,139.47,0,0,0,18.13,7.55q9.88,3.37,19.76,7.21a116.09,116.09,0,0,1,18.13,8.83,38.51,38.51,0,0,1,13.36,13.71,39.48,39.48,0,0,1,5.11,20.34q0,24.18-14.41,35.21T1170.72,174.78Z"/></svg>