<?xml version="1.0" encoding="UTF-8"?>
<svg width="44px" height="18px" viewBox="0 0 44 18" version="1.1" xmlns="http://www.w3.org/2000/svg" xmlns:xlink="http://www.w3.org/1999/xlink">
    <!-- Generator: Sketch 50 (54983) - http://www.bohemiancoding.com/sketch -->
    <title>_OS Copy 2</title>
    <desc>Created with Sketch.</desc>
    <defs>
        <linearGradient x1="1.44057081%" y1="1.44057081%" x2="100%" y2="100%" id="linearGradient-1">
            <stop stop-color="#5C8EE4" offset="0%"></stop>
            <stop stop-color="#67EAEC" offset="100%"></stop>
        </linearGradient>
    </defs>
    <g id="Symbols" stroke="none" stroke-width="1" fill="none" fill-rule="evenodd">
        <g id="footer" transform="translate(-180.000000, -96.000000)" fill="url(#linearGradient-1)">
            <path d="M180,113.986191 L180,112.645765 L191.578382,112.645765 L191.578382,113.986191 L180,113.986191 Z M201.193246,114 C199.554936,114 198.160818,113.581121 197.01085,112.743351 C195.860883,111.905581 195.029926,110.824475 194.517954,109.5 C194.005982,108.175525 193.75,106.67554 193.75,105 C193.75,103.32446 194.005982,101.824475 194.517954,100.5 C195.029926,99.1755253 195.860883,98.0944191 197.01085,97.2566489 C198.160818,96.4188788 199.554936,96 201.193246,96 C203.634957,96 205.489843,96.8497255 206.757958,98.5492021 C208.026073,100.248679 208.660121,102.398923 208.660121,105 C208.660121,107.601077 208.026073,109.751321 206.757958,111.450798 C205.489843,113.150274 203.634957,114 201.193246,114 Z M201.208417,112.56383 C202.515914,112.56383 203.626482,112.184844 204.540155,111.426862 C205.453828,110.668879 206.099691,109.739367 206.477762,108.638298 C206.855834,107.537229 207.044866,106.324475 207.044866,105 C207.044866,103.675525 206.855834,102.462771 206.477762,101.361702 C206.099691,100.260633 205.453828,99.3311208 204.540155,98.5731383 C203.626482,97.8151558 202.515914,97.4361702 201.208417,97.4361702 C200.215979,97.4361702 199.337764,97.6515936 198.573744,98.0824468 C197.809725,98.5133 197.199306,99.0917517 196.742469,99.8178191 C196.285633,100.543887 195.943011,101.34574 195.714593,102.223404 C195.486174,103.101068 195.371967,104.026591 195.371967,105 C195.371967,105.973409 195.486174,106.898932 195.714593,107.776596 C195.943011,108.65426 196.285633,109.456113 196.742469,110.182181 C197.199306,110.908248 197.809725,111.4867 198.573744,111.917553 C199.337764,112.348406 200.215979,112.56383 201.208417,112.56383 Z M218.565249,114 C214.942064,114 212.933589,112.380335 212.539765,109.140957 L214.146561,109.140957 C214.46162,111.470756 215.910873,112.635638 218.494361,112.635638 C221.07785,112.635638 222.369575,111.502671 222.369575,109.236702 C222.369575,108.614359 222.196295,108.0758 221.849729,107.621011 C221.503163,107.166221 221.050272,106.803193 220.491041,106.531915 C219.931811,106.260637 219.317454,106.013299 218.647952,105.789894 C217.97845,105.566488 217.308959,105.32314 216.639457,105.05984 C215.969955,104.796541 215.355598,104.493353 214.796368,104.150266 C214.237137,103.807179 213.784246,103.336439 213.43768,102.738032 C213.091114,102.139625 212.917834,101.433515 212.917834,100.619681 C212.917834,99.1356309 213.414046,97.9946848 214.406483,97.1968085 C215.398921,96.3989322 216.651264,96 218.16355,96 C221.566194,96 223.377759,97.3723267 223.598301,100.117021 L222.086023,100.117021 C221.91274,98.2659482 220.628891,97.3404255 218.234438,97.3404255 C217.163236,97.3404255 216.281082,97.5957421 215.587951,98.106383 C214.89482,98.6170238 214.54826,99.3989309 214.54826,100.452128 C214.54826,101.106386 214.72154,101.67287 215.068105,102.151596 C215.414671,102.630322 215.867562,103.013296 216.426793,103.300532 C216.986024,103.587767 217.600381,103.847073 218.269882,104.078457 C218.939384,104.309842 219.608876,104.55718 220.278377,104.820479 C220.947879,105.083778 221.562236,105.386966 222.121467,105.730053 C222.680697,106.07314 223.133589,106.54388 223.480154,107.142287 C223.82672,107.740694 224,108.438826 224,109.236702 C224,110.896285 223.511665,112.105049 222.53498,112.863032 C221.558295,113.621014 220.235065,114 218.565249,114 Z" id="_OS-Copy-2"></path>
        </g>
    </g>
</svg>