<svg xmlns="http://www.w3.org/2000/svg" viewBox="766 3941 230 27.51">
  <defs>
    <style>
      .cls-1 {
        fill: #5ab4e5;
      }

      .cls-2 {
        fill: #414141;
      }

      .cls-3 {
        fill: #72cde5;
      }
    </style>
  </defs>
  <g id="logo-open-zeppelin" transform="translate(1300 3441.7)">
    <g id="XMLID_235_" transform="translate(-524.383 501.837)">
      <path id="XMLID_236_" class="cls-1" d="M-419.6,530.945c0-3.773,2.27-7.245,6.243-7.245,3.94,0,6.243,3.506,6.243,7.245s-2.3,7.245-6.243,7.245C-417.33,538.223-419.6,534.718-419.6,530.945Zm10.784,0c0-2.671-1.569-5.742-4.541-5.742-2.938,0-4.541,3.072-4.541,5.742s1.569,5.742,4.541,5.742C-410.385,536.721-408.816,533.649-408.816,530.945Z" transform="translate(419.6 -518.091)"/>
      <path id="XMLID_239_" class="cls-1" d="M-367.1,524.1h1.6v2.07h.067a4.514,4.514,0,0,1,4.273-2.471c3.839,0,5.809,3.606,5.809,7.145,0,3.506-1.97,7.378-5.809,7.378a4.663,4.663,0,0,1-4.273-2.537h-.067v7.378h-1.6Zm10.049,6.811c0-2.537-1.2-5.709-4.107-5.709-3.072,0-4.44,3.038-4.44,5.742s1.4,5.742,4.44,5.742C-358.219,536.721-357.051,533.449-357.051,530.911Z" transform="translate(384.628 -518.091)"/>
      <path id="XMLID_242_" class="cls-1" d="M-318.4,531.012c0-3.906,1.87-7.312,6.01-7.312,4.574,0,6.143,3.138,6.143,7.512v.134h-10.383c.067,2.9,1.135,5.375,4.474,5.375a3.9,3.9,0,0,0,3.973-3h1.7c-.568,2.9-2.6,4.507-5.876,4.507C-316.7,538.223-318.4,534.551-318.4,531.012Zm10.383-1.068c0-2.838-1.4-4.741-4.374-4.741-2.8,0-4.24,2.237-4.24,4.741Z" transform="translate(352.187 -518.091)"/>
      <path id="XMLID_245_" class="cls-1" d="M-265.4,524.1h1.6v2l.067.067a4.515,4.515,0,0,1,4.207-2.471c3.205,0,4.708,2.471,4.708,5.542v8.58h-1.6v-8.847c0-2.2-1.3-3.773-3.506-3.773-2.571,0-3.839,2.337-3.839,4.708v7.913h-1.6V524.1Z" transform="translate(316.882 -518.091)"/>
      <path id="XMLID_247_" class="cls-2" d="M-211.9,537.186l7.846-10.684H-211.9V525h9.749v1.5l-7.779,10.684h7.779v1.5H-211.9Z" transform="translate(281.244 -518.957)"/>
      <path id="XMLID_249_" class="cls-2" d="M-171.4,531.012c0-3.906,1.87-7.312,6.01-7.312,4.574,0,6.143,3.138,6.143,7.512v.134h-10.383c.067,2.9,1.135,5.375,4.474,5.375a3.9,3.9,0,0,0,3.973-3h1.7c-.568,2.9-2.6,4.507-5.876,4.507C-169.7,538.223-171.4,534.551-171.4,531.012Zm10.383-1.068c0-2.838-1.4-4.741-4.374-4.741-2.8,0-4.24,2.237-4.24,4.741Z" transform="translate(254.265 -518.091)"/>
      <path id="XMLID_252_" class="cls-2" d="M-119.3,524.1h1.6v2.07h.067a4.514,4.514,0,0,1,4.273-2.471c3.839,0,5.809,3.606,5.809,7.145,0,3.506-1.97,7.378-5.809,7.378a4.663,4.663,0,0,1-4.273-2.537h-.067v7.378h-1.6Zm10.083,6.811c0-2.537-1.2-5.709-4.107-5.709-3.072,0-4.44,3.038-4.44,5.742s1.4,5.742,4.44,5.742C-110.386,536.721-109.217,533.449-109.217,530.911Z" transform="translate(219.56 -518.091)"/>
      <path id="XMLID_255_" class="cls-2" d="M-68.8,524.1h1.6v2.07h.067a4.514,4.514,0,0,1,4.273-2.471c3.839,0,5.809,3.606,5.809,7.145,0,3.506-1.97,7.378-5.809,7.378a4.663,4.663,0,0,1-4.273-2.537H-67.2v7.378h-1.6Zm10.049,6.811c0-2.537-1.2-5.709-4.107-5.709-3.072,0-4.44,3.038-4.44,5.742s1.4,5.742,4.44,5.742C-59.919,536.721-58.751,533.449-58.751,530.911Z" transform="translate(185.92 -518.091)"/>
      <path id="XMLID_258_" class="cls-2" d="M-20.1,531.012c0-3.906,1.87-7.312,6.01-7.312,4.574,0,6.143,3.138,6.143,7.512v.134H-18.331c.067,2.9,1.135,5.375,4.474,5.375a3.9,3.9,0,0,0,3.973-3h1.7c-.568,2.9-2.6,4.507-5.876,4.507C-18.431,538.223-20.1,534.551-20.1,531.012Zm10.383-1.068c0-2.838-1.4-4.741-4.374-4.741-2.8,0-4.24,2.237-4.24,4.741Z" transform="translate(153.479 -518.091)"/>
      <path id="XMLID_261_" class="cls-2" d="M32.7,507h1.569v19.7H32.7Z" transform="translate(118.307 -506.967)"/>
      <path id="XMLID_263_" class="cls-2" d="M55.2,506.9h2.137v2.337H55.2Zm.4,6.01H57.17V526.6H55.6Z" transform="translate(103.319 -506.9)"/>
      <path id="XMLID_266_" class="cls-2" d="M80.3,524.1h1.6v2l.067.067a4.515,4.515,0,0,1,4.207-2.471c3.205,0,4.708,2.471,4.708,5.542v8.58h-1.6v-8.847c0-2.2-1.3-3.773-3.506-3.773-2.571,0-3.839,2.337-3.839,4.708v7.913h-1.6V524.1Z" transform="translate(86.599 -518.091)"/>
    </g>
  </g>
</svg>
