<?xml version="1.0" encoding="UTF-8"?>
<svg width="121px" height="48px" viewBox="0 0 121 48" version="1.1" xmlns="http://www.w3.org/2000/svg" xmlns:xlink="http://www.w3.org/1999/xlink">
    <!-- Generator: Sketch 51.2 (57519) - http://www.bohemiancoding.com/sketch -->
    <title>token</title>
    <desc>Created with Sketch.</desc>
    <defs>
        <path d="M0.0637058824,23.9611429 C0.0637058824,37.1054066 10.7581765,47.7607033 23.9507647,47.7607033 C37.1433529,47.7607033 47.838,37.1054066 47.838,23.9611429 C47.838,10.8168791 37.1433529,0.161406593 23.9507647,0.161406593 C10.7581765,0.161406593 0.0637058824,10.8168791 0.0637058824,23.9611429" id="path-1"></path>
        <linearGradient x1="14.6447057%" y1="85.3552943%" x2="85.3552918%" y2="14.6447082%" id="linearGradient-3">
            <stop stop-color="#5B8EE4" offset="0%"></stop>
            <stop stop-color="#67E9EB" offset="100%"></stop>
        </linearGradient>
        <polygon id="path-4" points="0.480705882 0.0838681319 0.480705882 4.85520879 10.8199412 4.85520879 0.03 23.2228571 0.0301764706 23.223033 6.39970588 23.223033 19.9124118 23.223033 19.9124118 18.4261978 9.21247059 18.4261978 17.1705882 4.85520879 19.9831765 0.0838681319 19.983 0.0838681319"></polygon>
        <linearGradient x1="-4.09819321%" y1="96.478267%" x2="104.098177%" y2="3.52100726%" id="linearGradient-6">
            <stop stop-color="#5B8EE4" offset="0%"></stop>
            <stop stop-color="#67E9EB" offset="100%"></stop>
        </linearGradient>
        <polygon id="path-7" points="1.15711765 0.0152967033 0.0714705882 1.86391209 4.58823529 1.86391209 5.67211765 0.0152967033"></polygon>
        <linearGradient x1="16.717017%" y1="150.461525%" x2="83.2828292%" y2="-50.4704879%" id="linearGradient-9">
            <stop stop-color="#5B8EE4" offset="0%"></stop>
            <stop stop-color="#67E9EB" offset="100%"></stop>
        </linearGradient>
        <polygon id="path-10" points="1.17952941 0.0152967033 0.0937058824 1.86391209 4.61047059 1.86391209 5.69452941 0.0152967033"></polygon>
        <linearGradient x1="16.7173782%" y1="150.463846%" x2="83.2826798%" y2="-50.4729561%" id="linearGradient-12">
            <stop stop-color="#5B8EE4" offset="0%"></stop>
            <stop stop-color="#67E9EB" offset="100%"></stop>
        </linearGradient>
        <polygon id="path-13" points="1.11141176 0.159648352 0.0307058824 1.99894505 0.0307058824 1.99912088 4.55064706 1.99912088 5.62905882 0.159648352"></polygon>
        <linearGradient x1="16.7545937%" y1="150.805362%" x2="83.2453058%" y2="-50.8149159%" id="linearGradient-15">
            <stop stop-color="#5B8EE4" offset="0%"></stop>
            <stop stop-color="#67E9EB" offset="100%"></stop>
        </linearGradient>
        <polygon id="path-16" points="1.13364706 0.159648352 0.0531176471 1.99894505 0.0531176471 1.99912088 4.57288235 1.99912088 5.65182353 0.159648352"></polygon>
        <linearGradient x1="16.7543516%" y1="150.807695%" x2="83.2424352%" y2="-50.8173227%" id="linearGradient-18">
            <stop stop-color="#5B8EE4" offset="0%"></stop>
            <stop stop-color="#67E9EB" offset="100%"></stop>
        </linearGradient>
    </defs>
    <g id="Page-1" stroke="none" stroke-width="1" fill="none" fill-rule="evenodd">
        <g id="zOS-web" transform="translate(-660.000000, -149.000000)">
            <g id="token" transform="translate(661.000000, 149.000000)">
                <g id="Group-34" transform="translate(36.000000, 0.000000)">
                    <g id="Group-3" transform="translate(0.000000, 0.077714)">
                        <mask id="mask-2" fill="white">
                            <use xlink:href="#path-1"></use>
                        </mask>
                        <g id="Clip-2"></g>
                        <path d="M0.0637058824,23.9611429 C0.0637058824,37.1054066 10.7581765,47.7607033 23.9507647,47.7607033 C37.1433529,47.7607033 47.838,37.1054066 47.838,23.9611429 C47.838,10.8168791 37.1433529,0.161406593 23.9507647,0.161406593 C10.7581765,0.161406593 0.0637058824,10.8168791 0.0637058824,23.9611429" id="Fill-1" fill="url(#linearGradient-3)" mask="url(#mask-2)"></path>
                    </g>
                    <g id="Group-18" transform="translate(4.588235, 4.824967)">
                        <path d="M38.6114824,19.2138725 C38.6114824,8.62204835 29.9933647,0.0354989011 19.3626,0.0354989011 C8.73201176,0.0354989011 0.113717647,8.62204835 0.113717647,19.2138725 C0.113717647,29.8055209 8.73201176,38.3920703 19.3626,38.3920703 C29.9933647,38.3920703 38.6114824,29.8055209 38.6114824,19.2138725" id="Fill-4" fill="#F5FFFF"></path>
                        <path d="M19.3625824,0.0354637363 C13.9322294,0.0354637363 9.03005294,2.27968352 5.53046471,5.88372747 C8.99440588,2.54482637 13.7095235,0.486628571 18.9099353,0.486628571 C29.5405235,0.486628571 38.1584647,9.07317802 38.1584647,19.665178 C38.1584647,24.846189 36.0930529,29.5440352 32.7417,32.9951121 C36.3589941,29.5083429 38.6114647,24.6244747 38.6114647,19.2138374 C38.6114647,8.62183736 29.9933471,0.0354637363 19.3625824,0.0354637363" id="Fill-6" fill="#64F2EE"></path>
                        <polygon id="Fill-8" fill="#64F2EE" points="26.0596765 12.8778374 28.8722647 8.10632088 10.4672647 8.10632088 9.36979412 8.10632088 9.36979412 12.8778374 19.7093824 12.8778374 8.91891176 31.2454857 15.2887941 31.2454857 28.8015 31.2454857 28.8015 26.4490022 18.1015588 26.4490022"></polygon>
                        <polygon id="Fill-10" fill="#64F2EE" points="29.1832412 19.2049407 30.2674765 17.3563253 25.7524765 17.3563253 24.6661235 19.2049407"></polygon>
                        <polygon id="Fill-12" fill="#64F2EE" points="14.7602118 17.356378 10.2450353 17.356378 9.15921176 19.2049934 13.6759765 19.2049934"></polygon>
                        <polygon id="Fill-14" fill="#64F2EE" points="28.6360765 20.1381451 24.1180765 20.1381451 23.0373706 21.9777934 27.5574882 21.9777934"></polygon>
                        <polygon id="Fill-16" fill="#64F2EE" points="8.61114706 20.1381451 7.53026471 21.9777934 12.0502059 21.9777934 13.1291471 20.1381451"></polygon>
                    </g>
                    <g id="Group-21" transform="translate(13.941176, 12.385407)">
                        <mask id="mask-5" fill="white">
                            <use xlink:href="#path-4"></use>
                        </mask>
                        <g id="Clip-20"></g>
                        <polygon id="Fill-19" fill="url(#linearGradient-6)" mask="url(#mask-5)" points="0.480705882 0.0838681319 0.480705882 4.85520879 10.8199412 4.85520879 0.03 23.2228571 0.0301764706 23.223033 6.39970588 23.223033 19.9124118 23.223033 19.9124118 18.4261978 9.21247059 18.4261978 17.1705882 4.85520879 19.9831765 0.0838681319 19.983 0.0838681319"></polygon>
                    </g>
                    <g id="Group-24" transform="translate(29.647059, 21.704088)">
                        <mask id="mask-8" fill="white">
                            <use xlink:href="#path-7"></use>
                        </mask>
                        <g id="Clip-23"></g>
                        <polygon id="Fill-22" fill="url(#linearGradient-9)" mask="url(#mask-8)" points="1.15711765 0.0152967033 0.0714705882 1.86391209 4.58823529 1.86391209 5.67211765 0.0152967033"></polygon>
                    </g>
                    <g id="Group-27" transform="translate(14.117647, 21.704088)">
                        <mask id="mask-11" fill="white">
                            <use xlink:href="#path-10"></use>
                        </mask>
                        <g id="Clip-26"></g>
                        <polygon id="Fill-25" fill="url(#linearGradient-12)" mask="url(#mask-11)" points="1.17952941 0.0152967033 0.0937058824 1.86391209 4.61047059 1.86391209 5.69452941 0.0152967033"></polygon>
                    </g>
                    <g id="Group-30" transform="translate(28.058824, 24.341451)">
                        <mask id="mask-14" fill="white">
                            <use xlink:href="#path-13"></use>
                        </mask>
                        <g id="Clip-29"></g>
                        <polygon id="Fill-28" fill="url(#linearGradient-15)" mask="url(#mask-14)" points="1.11141176 0.159648352 0.0307058824 1.99894505 0.0307058824 1.99912088 4.55064706 1.99912088 5.62905882 0.159648352"></polygon>
                    </g>
                    <g id="Group-33" transform="translate(12.529412, 24.341451)">
                        <mask id="mask-17" fill="white">
                            <use xlink:href="#path-16"></use>
                        </mask>
                        <g id="Clip-32"></g>
                        <polygon id="Fill-31" fill="url(#linearGradient-18)" mask="url(#mask-17)" points="1.13364706 0.159648352 0.0531176471 1.99894505 0.0531176471 1.99912088 4.57288235 1.99912088 5.65182353 0.159648352"></polygon>
                    </g>
                </g>
                <g id="Group-25" transform="translate(93.000000, 18.000000)" fill-rule="nonzero" stroke-linecap="square">
                    <path d="M1.1984127,6.5 L25.8015873,6.5" id="Line-3" stroke="#4CC5FF"></path>
                    <path d="M0,1 L8,1" id="Line-3-Copy" stroke="#67EAEC"></path>
                    <path d="M0,12 L8,12" id="Line-3-Copy-2" stroke="#5C8EE4"></path>
                </g>
                <g id="Group-25-Copy" transform="translate(13.000000, 24.500000) scale(-1, 1) translate(-13.000000, -24.500000) translate(0.000000, 18.000000)" fill-rule="nonzero" stroke-linecap="square">
                    <path d="M1.1984127,6.5 L25.8015873,6.5" id="Line-3" stroke="#4CC5FF"></path>
                    <path d="M0,1 L8,1" id="Line-3-Copy" stroke="#67EAEC"></path>
                    <path d="M0,12 L8,12" id="Line-3-Copy-2" stroke="#5C8EE4"></path>
                </g>
            </g>
        </g>
    </g>
</svg>