<svg xmlns="http://www.w3.org/2000/svg" xmlns:xlink="http://www.w3.org/1999/xlink" viewBox="647.78 5746.444 23.776 19.169">
  <defs>
    <style>
      .cls-1 {
        clip-path: url(#clip-path);
      }

      .cls-2 {
        clip-path: url(#clip-path-2);
      }

      .cls-3 {
        fill: #fff;
      }
    </style>
    <clipPath id="clip-path">
      <path id="Path_235" data-name="Path 235" d="M25.276,5.029a8.794,8.794,0,0,1-2.823.743A4.2,4.2,0,0,0,24.533,3.1a8.005,8.005,0,0,1-3.121,1.189A5.189,5.189,0,0,0,17.846,2.8a4.947,4.947,0,0,0-4.9,4.9,2.2,2.2,0,0,0,.149,1.04A13.622,13.622,0,0,1,3.135,3.692,4.36,4.36,0,0,0,2.54,6.069a4.877,4.877,0,0,0,2.229,4.012A6.227,6.227,0,0,1,2.54,9.487h0A4.8,4.8,0,0,0,6.4,14.242a4.114,4.114,0,0,1-1.337.149,1.885,1.885,0,0,1-.892-.149A4.815,4.815,0,0,0,8.781,17.66a9.449,9.449,0,0,1-6.092,2.08H1.5a14.5,14.5,0,0,0,7.43,2.229A13.754,13.754,0,0,0,22.749,8.149V7.555A8.192,8.192,0,0,0,25.276,5.029Z" transform="translate(-1.5 -2.8)"/>
    </clipPath>
    <clipPath id="clip-path-2">
      <rect id="Rectangle_121" data-name="Rectangle 121" width="2139.801" height="7266.377"/>
    </clipPath>
  </defs>
  <g id="twitter" transform="translate(647.78 5746.444)">
    <g id="XMLID_86_" class="cls-1" transform="translate(0 0)">
      <g id="Group_286" data-name="Group 286" class="cls-2" transform="translate(-967.368 -6979.585)">
        <rect id="XMLID_88_" class="cls-3" width="38.635" height="34.177" transform="translate(959.939 6972.156)"/>
      </g>
    </g>
  </g>
</svg>
