<?xml version="1.0" encoding="utf-8"?>
<!-- Generator: Adobe Illustrator 21.1.0, SVG Export Plug-In . SVG Version: 6.00 Build 0)  -->
<svg version="1.1" id="Layer_1" xmlns="http://www.w3.org/2000/svg" xmlns:xlink="http://www.w3.org/1999/xlink" x="0px" y="0px"
	 viewBox="0 0 555.5 100" style="enable-background:new 0 0 555.5 100;" xml:space="preserve">
<style type="text/css">
	.st0{fill:#FFFFFF;}
</style>
<title>zeppelin_logo_white</title>
<g id="Layer_2">
	<g id="Layer_1-2">
		<polygon id="Shape" class="st0" points="89,0 173,0 160.9,20.6 89,20.6 		"/>
		<g id="_Group_">
			<path id="_Path_" class="st0" d="M129.4,85l-12.1,15h55.3V79.3h-29C138.4,79.3,133.3,81.3,129.4,85z"/>
		</g>
		<path id="_Path_2" class="st0" d="M159.5,22.9l-20,3c-6.5,1.2-12.2,5.2-15.6,10.9L87,100h27.4L159.5,22.9z"/>
		<path class="st0" d="M210.5,71.5v-4.8l25-34.1h-25v-4.8h31.1v4.8l-24.8,34.1h24.8v4.8H210.5z"/>
		<path class="st0" d="M272.9,72.8c-4,0.1-7.9-1.1-11-3.5c-2.9-2.2-5.1-5.1-6.4-8.5c-1.3-3.5-1.9-7.3-1.8-11
			c0-6.7,1.6-12.2,4.9-16.7c3.2-4.4,8-6.7,14.3-6.7c13.1,0,19.6,8,19.6,23.9v0.4h-33.2c0.1,5.1,1.3,9.2,3.5,12.4
			c2.2,3.2,5.8,4.7,10.8,4.7c3,0.1,6-0.9,8.4-2.7c2.3-1.6,3.8-4.1,4.4-6.9h5.4c-0.7,4.2-2.9,8-6.2,10.7
			C282.2,71.6,278,72.8,272.9,72.8z M259.4,46.5h27.4c0-4.7-1.2-8.4-3.5-11.1s-5.8-4-10.4-4c-4.3,0-7.6,1.5-10,4.4
			C260.5,38.8,259.3,42.6,259.4,46.5z"/>
		<path class="st0" d="M309.2,88.2V27.8h5.1v6.6h0.2c2.9-5.3,7.5-7.9,13.7-7.9c5.4-0.2,10.5,2.4,13.6,6.8c3.3,4.7,5,10.3,4.9,16
			c0.1,5.8-1.7,11.5-5,16.3c-3,4.6-8.1,7.3-13.6,7.2c-2.7,0.1-5.4-0.6-7.8-2c-2.4-1.6-4.4-3.7-5.9-6.1h-0.2v23.5L309.2,88.2z
			 M328.2,68c4.1,0.1,7.9-2.1,9.8-5.7c2.2-3.9,3.4-8.3,3.4-12.8c0.1-4.4-1.1-8.8-3.4-12.6c-1.9-3.6-5.7-5.7-9.8-5.6
			c-4.2-0.2-8.2,2-10.5,5.5c-2.5,3.8-3.8,8.3-3.7,12.8c-0.1,4.6,1.2,9,3.7,12.8C319.9,66.1,323.9,68.2,328.2,68L328.2,68z"/>
		<path class="st0" d="M362.9,88.2V27.8h5.2v6.6h0.2c2.9-5.3,7.5-7.9,13.7-7.9c5.4-0.2,10.5,2.4,13.6,6.8c3.3,4.7,5,10.3,4.9,16
			c0.1,5.8-1.7,11.5-5,16.3c-3,4.6-8.1,7.3-13.6,7.2c-2.7,0.1-5.4-0.6-7.8-2c-2.4-1.6-4.4-3.7-5.9-6.1H368v23.5L362.9,88.2z
			 M381.9,68c4.1,0.1,7.9-2.1,9.8-5.7c2.3-3.9,3.4-8.3,3.4-12.8c0.1-4.4-1.1-8.8-3.4-12.6c-1.9-3.6-5.7-5.7-9.8-5.6
			c-4.2-0.2-8.2,2-10.5,5.5c-2.5,3.8-3.8,8.3-3.7,12.8c-0.1,4.6,1.2,9,3.7,12.8C373.7,66.1,377.6,68.2,381.9,68L381.9,68z"/>
		<path class="st0" d="M434,72.8c-4,0.1-7.9-1.1-11-3.5c-2.9-2.2-5.1-5.1-6.4-8.5c-1.3-3.5-1.9-7.3-1.8-11c0-6.7,1.6-12.2,4.9-16.7
			s8-6.7,14.3-6.7c13.1,0,19.6,8,19.6,23.9v0.4h-33.2c0.1,5.1,1.3,9.2,3.5,12.4c2.2,3.2,5.8,4.7,10.8,4.7c3,0.1,6-0.9,8.4-2.7
			c2.3-1.6,3.8-4.1,4.4-6.9h5.4c-0.7,4.2-2.9,8-6.2,10.7C443.3,71.6,439.2,72.8,434,72.8z M420.5,46.5h27.4c0-4.7-1.2-8.4-3.5-11.1
			s-5.8-4-10.4-4c-4.3,0-7.6,1.5-10,4.4C421.6,38.8,420.4,42.6,420.5,46.5z"/>
		<path class="st0" d="M471,71.5V8.7h5v62.8H471z"/>
		<path class="st0" d="M495,16.1V8.6h6.8v7.5L495,16.1z M496.4,71.5V27.8h5v43.7H496.4z"/>
		<path class="st0" d="M521.7,71.5V27.8h5.1v6.4l0.2,0.2c2.7-5.3,7.1-7.9,13.4-7.9c4.9,0,8.7,1.7,11.2,5s3.8,7.6,3.8,12.7v27.3h-5.1
			V43.3c0.1-3.2-0.9-6.3-3-8.7c-4.6-4.5-12-4.4-16.5,0.2c-0.3,0.3-0.6,0.6-0.8,1c-2.2,3.1-3.3,6.8-3.2,10.6v25.2H521.7z"/>
	</g>
</g>
<g>
	<path class="st0" d="M14.9,69c-4.7,0-8.3-2-11-6H3.8v5H0V21.6h3.8v19h0.1c1.1-1.8,2.6-3.3,4.6-4.3c2-1,4.1-1.5,6.2-1.5
		c3,0,5.5,0.9,7.5,2.6c2,1.7,3.5,3.8,4.3,6.3c0.8,2.5,1.2,5.2,1.2,8.1c0,2.1-0.2,4.2-0.7,6.1c-0.5,2-1.2,3.8-2.2,5.5
		c-1,1.7-2.3,3.1-4,4.1C19.1,68.5,17.2,69,14.9,69z M14.5,65.5c2.3,0,4.1-0.8,5.6-2.4c1.4-1.6,2.4-3.4,2.8-5.3
		c0.4-2,0.7-4.1,0.7-6.3c0-3.6-0.8-6.7-2.3-9.3c-1.6-2.6-4-3.9-7.3-3.9c-3.4,0-5.9,1.2-7.6,3.7c-1.7,2.5-2.5,5.6-2.5,9.2
		c0,2.7,0.3,5,0.9,7c0.6,2,1.7,3.7,3.4,5.1C9.8,64.8,11.9,65.5,14.5,65.5z"/>
	<path class="st0" d="M40,80.4l4.8-12.3L31.6,35.8h4.6l10.7,27l10.5-27h4.1L44.2,80.4H40z"/>
</g>
</svg>
